<?xml version="1.0" encoding="utf-8" standalone="no"?>
<!DOCTYPE svg PUBLIC "-//W3C//DTD SVG 1.1//EN"
  "http://www.w3.org/Graphics/SVG/1.1/DTD/svg11.dtd">
<svg xmlns:xlink="http://www.w3.org/1999/xlink" width="576pt" height="432pt" viewBox="0 0 576 432" xmlns="http://www.w3.org/2000/svg" version="1.1">
 <metadata>
  <rdf:RDF xmlns:dc="http://purl.org/dc/elements/1.1/" xmlns:cc="http://creativecommons.org/ns#" xmlns:rdf="http://www.w3.org/1999/02/22-rdf-syntax-ns#">
   <cc:Work>
    <dc:type rdf:resource="http://purl.org/dc/dcmitype/StillImage"/>
    <dc:date>2025-05-03T04:43:35.716901</dc:date>
    <dc:format>image/svg+xml</dc:format>
    <dc:creator>
     <cc:Agent>
      <dc:title>Matplotlib v3.10.0, https://matplotlib.org/</dc:title>
     </cc:Agent>
    </dc:creator>
   </cc:Work>
  </rdf:RDF>
 </metadata>
 <defs>
  <style type="text/css">*{stroke-linejoin: round; stroke-linecap: butt}</style>
 </defs>
 <g id="figure_1">
  <g id="patch_1">
   <path d="M 0 432 
L 576 432 
L 576 0 
L 0 0 
z
" style="fill: #ffffff"/>
  </g>
  <g id="axes_1">
   <g id="patch_2">
    <path d="M 72 384.48 
L 349.267081 384.48 
L 349.267081 51.84 
L 72 51.84 
z
" style="fill: #ffffff"/>
   </g>
   <g id="matplotlib.axis_1">
    <g id="xtick_1">
     <g id="line2d_1">
      <path d="M 85.106239 384.48 
L 85.106239 51.84 
" clip-path="url(#p6ef0447fe8)" style="fill: none; stroke: #b0b0b0; stroke-width: 0.8; stroke-linecap: square"/>
     </g>
     <g id="line2d_2">
      <defs>
       <path id="mfd3353b9e4" d="M 0 0 
L 0 3.5 
" style="stroke: #000000; stroke-width: 0.8"/>
      </defs>
      <g>
       <use xlink:href="#mfd3353b9e4" x="85.106239" y="384.48" style="stroke: #000000; stroke-width: 0.8"/>
      </g>
     </g>
     <g id="text_1">
      <!-- 0.00 -->
      <g transform="translate(73.973427 399.078438) scale(0.1 -0.1)">
       <defs>
        <path id="DejaVuSans-30" d="M 2034 4250 
Q 1547 4250 1301 3770 
Q 1056 3291 1056 2328 
Q 1056 1369 1301 889 
Q 1547 409 2034 409 
Q 2525 409 2770 889 
Q 3016 1369 3016 2328 
Q 3016 3291 2770 3770 
Q 2525 4250 2034 4250 
z
M 2034 4750 
Q 2819 4750 3233 4129 
Q 3647 3509 3647 2328 
Q 3647 1150 3233 529 
Q 2819 -91 2034 -91 
Q 1250 -91 836 529 
Q 422 1150 422 2328 
Q 422 3509 836 4129 
Q 1250 4750 2034 4750 
z
" transform="scale(0.015625)"/>
        <path id="DejaVuSans-2e" d="M 684 794 
L 1344 794 
L 1344 0 
L 684 0 
L 684 794 
z
" transform="scale(0.015625)"/>
       </defs>
       <use xlink:href="#DejaVuSans-30"/>
       <use xlink:href="#DejaVuSans-2e" transform="translate(63.623047 0)"/>
       <use xlink:href="#DejaVuSans-30" transform="translate(95.410156 0)"/>
       <use xlink:href="#DejaVuSans-30" transform="translate(159.033203 0)"/>
      </g>
     </g>
    </g>
    <g id="xtick_2">
     <g id="line2d_3">
      <path d="M 117.871838 384.48 
L 117.871838 51.84 
" clip-path="url(#p6ef0447fe8)" style="fill: none; stroke: #b0b0b0; stroke-width: 0.8; stroke-linecap: square"/>
     </g>
     <g id="line2d_4">
      <g>
       <use xlink:href="#mfd3353b9e4" x="117.871838" y="384.48" style="stroke: #000000; stroke-width: 0.8"/>
      </g>
     </g>
     <g id="text_2">
      <!-- 0.25 -->
      <g transform="translate(106.739025 399.078438) scale(0.1 -0.1)">
       <defs>
        <path id="DejaVuSans-32" d="M 1228 531 
L 3431 531 
L 3431 0 
L 469 0 
L 469 531 
Q 828 903 1448 1529 
Q 2069 2156 2228 2338 
Q 2531 2678 2651 2914 
Q 2772 3150 2772 3378 
Q 2772 3750 2511 3984 
Q 2250 4219 1831 4219 
Q 1534 4219 1204 4116 
Q 875 4013 500 3803 
L 500 4441 
Q 881 4594 1212 4672 
Q 1544 4750 1819 4750 
Q 2544 4750 2975 4387 
Q 3406 4025 3406 3419 
Q 3406 3131 3298 2873 
Q 3191 2616 2906 2266 
Q 2828 2175 2409 1742 
Q 1991 1309 1228 531 
z
" transform="scale(0.015625)"/>
        <path id="DejaVuSans-35" d="M 691 4666 
L 3169 4666 
L 3169 4134 
L 1269 4134 
L 1269 2991 
Q 1406 3038 1543 3061 
Q 1681 3084 1819 3084 
Q 2600 3084 3056 2656 
Q 3513 2228 3513 1497 
Q 3513 744 3044 326 
Q 2575 -91 1722 -91 
Q 1428 -91 1123 -41 
Q 819 9 494 109 
L 494 744 
Q 775 591 1075 516 
Q 1375 441 1709 441 
Q 2250 441 2565 725 
Q 2881 1009 2881 1497 
Q 2881 1984 2565 2268 
Q 2250 2553 1709 2553 
Q 1456 2553 1204 2497 
Q 953 2441 691 2322 
L 691 4666 
z
" transform="scale(0.015625)"/>
       </defs>
       <use xlink:href="#DejaVuSans-30"/>
       <use xlink:href="#DejaVuSans-2e" transform="translate(63.623047 0)"/>
       <use xlink:href="#DejaVuSans-32" transform="translate(95.410156 0)"/>
       <use xlink:href="#DejaVuSans-35" transform="translate(159.033203 0)"/>
      </g>
     </g>
    </g>
    <g id="xtick_3">
     <g id="line2d_5">
      <path d="M 150.637436 384.48 
L 150.637436 51.84 
" clip-path="url(#p6ef0447fe8)" style="fill: none; stroke: #b0b0b0; stroke-width: 0.8; stroke-linecap: square"/>
     </g>
     <g id="line2d_6">
      <g>
       <use xlink:href="#mfd3353b9e4" x="150.637436" y="384.48" style="stroke: #000000; stroke-width: 0.8"/>
      </g>
     </g>
     <g id="text_3">
      <!-- 0.50 -->
      <g transform="translate(139.504624 399.078438) scale(0.1 -0.1)">
       <use xlink:href="#DejaVuSans-30"/>
       <use xlink:href="#DejaVuSans-2e" transform="translate(63.623047 0)"/>
       <use xlink:href="#DejaVuSans-35" transform="translate(95.410156 0)"/>
       <use xlink:href="#DejaVuSans-30" transform="translate(159.033203 0)"/>
      </g>
     </g>
    </g>
    <g id="xtick_4">
     <g id="line2d_7">
      <path d="M 183.403035 384.48 
L 183.403035 51.84 
" clip-path="url(#p6ef0447fe8)" style="fill: none; stroke: #b0b0b0; stroke-width: 0.8; stroke-linecap: square"/>
     </g>
     <g id="line2d_8">
      <g>
       <use xlink:href="#mfd3353b9e4" x="183.403035" y="384.48" style="stroke: #000000; stroke-width: 0.8"/>
      </g>
     </g>
     <g id="text_4">
      <!-- 0.75 -->
      <g transform="translate(172.270222 399.078438) scale(0.1 -0.1)">
       <defs>
        <path id="DejaVuSans-37" d="M 525 4666 
L 3525 4666 
L 3525 4397 
L 1831 0 
L 1172 0 
L 2766 4134 
L 525 4134 
L 525 4666 
z
" transform="scale(0.015625)"/>
       </defs>
       <use xlink:href="#DejaVuSans-30"/>
       <use xlink:href="#DejaVuSans-2e" transform="translate(63.623047 0)"/>
       <use xlink:href="#DejaVuSans-37" transform="translate(95.410156 0)"/>
       <use xlink:href="#DejaVuSans-35" transform="translate(159.033203 0)"/>
      </g>
     </g>
    </g>
    <g id="xtick_5">
     <g id="line2d_9">
      <path d="M 216.168633 384.48 
L 216.168633 51.84 
" clip-path="url(#p6ef0447fe8)" style="fill: none; stroke: #b0b0b0; stroke-width: 0.8; stroke-linecap: square"/>
     </g>
     <g id="line2d_10">
      <g>
       <use xlink:href="#mfd3353b9e4" x="216.168633" y="384.48" style="stroke: #000000; stroke-width: 0.8"/>
      </g>
     </g>
     <g id="text_5">
      <!-- 1.00 -->
      <g transform="translate(205.03582 399.078438) scale(0.1 -0.1)">
       <defs>
        <path id="DejaVuSans-31" d="M 794 531 
L 1825 531 
L 1825 4091 
L 703 3866 
L 703 4441 
L 1819 4666 
L 2450 4666 
L 2450 531 
L 3481 531 
L 3481 0 
L 794 0 
L 794 531 
z
" transform="scale(0.015625)"/>
       </defs>
       <use xlink:href="#DejaVuSans-31"/>
       <use xlink:href="#DejaVuSans-2e" transform="translate(63.623047 0)"/>
       <use xlink:href="#DejaVuSans-30" transform="translate(95.410156 0)"/>
       <use xlink:href="#DejaVuSans-30" transform="translate(159.033203 0)"/>
      </g>
     </g>
    </g>
    <g id="xtick_6">
     <g id="line2d_11">
      <path d="M 248.934231 384.48 
L 248.934231 51.84 
" clip-path="url(#p6ef0447fe8)" style="fill: none; stroke: #b0b0b0; stroke-width: 0.8; stroke-linecap: square"/>
     </g>
     <g id="line2d_12">
      <g>
       <use xlink:href="#mfd3353b9e4" x="248.934231" y="384.48" style="stroke: #000000; stroke-width: 0.8"/>
      </g>
     </g>
     <g id="text_6">
      <!-- 1.25 -->
      <g transform="translate(237.801419 399.078438) scale(0.1 -0.1)">
       <use xlink:href="#DejaVuSans-31"/>
       <use xlink:href="#DejaVuSans-2e" transform="translate(63.623047 0)"/>
       <use xlink:href="#DejaVuSans-32" transform="translate(95.410156 0)"/>
       <use xlink:href="#DejaVuSans-35" transform="translate(159.033203 0)"/>
      </g>
     </g>
    </g>
    <g id="xtick_7">
     <g id="line2d_13">
      <path d="M 281.69983 384.48 
L 281.69983 51.84 
" clip-path="url(#p6ef0447fe8)" style="fill: none; stroke: #b0b0b0; stroke-width: 0.8; stroke-linecap: square"/>
     </g>
     <g id="line2d_14">
      <g>
       <use xlink:href="#mfd3353b9e4" x="281.69983" y="384.48" style="stroke: #000000; stroke-width: 0.8"/>
      </g>
     </g>
     <g id="text_7">
      <!-- 1.50 -->
      <g transform="translate(270.567017 399.078438) scale(0.1 -0.1)">
       <use xlink:href="#DejaVuSans-31"/>
       <use xlink:href="#DejaVuSans-2e" transform="translate(63.623047 0)"/>
       <use xlink:href="#DejaVuSans-35" transform="translate(95.410156 0)"/>
       <use xlink:href="#DejaVuSans-30" transform="translate(159.033203 0)"/>
      </g>
     </g>
    </g>
    <g id="xtick_8">
     <g id="line2d_15">
      <path d="M 314.465428 384.48 
L 314.465428 51.84 
" clip-path="url(#p6ef0447fe8)" style="fill: none; stroke: #b0b0b0; stroke-width: 0.8; stroke-linecap: square"/>
     </g>
     <g id="line2d_16">
      <g>
       <use xlink:href="#mfd3353b9e4" x="314.465428" y="384.48" style="stroke: #000000; stroke-width: 0.8"/>
      </g>
     </g>
     <g id="text_8">
      <!-- 1.75 -->
      <g transform="translate(303.332616 399.078438) scale(0.1 -0.1)">
       <use xlink:href="#DejaVuSans-31"/>
       <use xlink:href="#DejaVuSans-2e" transform="translate(63.623047 0)"/>
       <use xlink:href="#DejaVuSans-37" transform="translate(95.410156 0)"/>
       <use xlink:href="#DejaVuSans-35" transform="translate(159.033203 0)"/>
      </g>
     </g>
    </g>
    <g id="xtick_9">
     <g id="line2d_17">
      <path d="M 347.231026 384.48 
L 347.231026 51.84 
" clip-path="url(#p6ef0447fe8)" style="fill: none; stroke: #b0b0b0; stroke-width: 0.8; stroke-linecap: square"/>
     </g>
     <g id="line2d_18">
      <g>
       <use xlink:href="#mfd3353b9e4" x="347.231026" y="384.48" style="stroke: #000000; stroke-width: 0.8"/>
      </g>
     </g>
     <g id="text_9">
      <!-- 2.00 -->
      <g transform="translate(336.098214 399.078438) scale(0.1 -0.1)">
       <use xlink:href="#DejaVuSans-32"/>
       <use xlink:href="#DejaVuSans-2e" transform="translate(63.623047 0)"/>
       <use xlink:href="#DejaVuSans-30" transform="translate(95.410156 0)"/>
       <use xlink:href="#DejaVuSans-30" transform="translate(159.033203 0)"/>
      </g>
     </g>
    </g>
    <g id="text_10">
     <!-- 1e−6 -->
     <g transform="translate(322.009268 411.756563) scale(0.1 -0.1)">
      <defs>
       <path id="DejaVuSans-65" d="M 3597 1894 
L 3597 1613 
L 953 1613 
Q 991 1019 1311 708 
Q 1631 397 2203 397 
Q 2534 397 2845 478 
Q 3156 559 3463 722 
L 3463 178 
Q 3153 47 2828 -22 
Q 2503 -91 2169 -91 
Q 1331 -91 842 396 
Q 353 884 353 1716 
Q 353 2575 817 3079 
Q 1281 3584 2069 3584 
Q 2775 3584 3186 3129 
Q 3597 2675 3597 1894 
z
M 3022 2063 
Q 3016 2534 2758 2815 
Q 2500 3097 2075 3097 
Q 1594 3097 1305 2825 
Q 1016 2553 972 2059 
L 3022 2063 
z
" transform="scale(0.015625)"/>
       <path id="DejaVuSans-2212" d="M 678 2272 
L 4684 2272 
L 4684 1741 
L 678 1741 
L 678 2272 
z
" transform="scale(0.015625)"/>
       <path id="DejaVuSans-36" d="M 2113 2584 
Q 1688 2584 1439 2293 
Q 1191 2003 1191 1497 
Q 1191 994 1439 701 
Q 1688 409 2113 409 
Q 2538 409 2786 701 
Q 3034 994 3034 1497 
Q 3034 2003 2786 2293 
Q 2538 2584 2113 2584 
z
M 3366 4563 
L 3366 3988 
Q 3128 4100 2886 4159 
Q 2644 4219 2406 4219 
Q 1781 4219 1451 3797 
Q 1122 3375 1075 2522 
Q 1259 2794 1537 2939 
Q 1816 3084 2150 3084 
Q 2853 3084 3261 2657 
Q 3669 2231 3669 1497 
Q 3669 778 3244 343 
Q 2819 -91 2113 -91 
Q 1303 -91 875 529 
Q 447 1150 447 2328 
Q 447 3434 972 4092 
Q 1497 4750 2381 4750 
Q 2619 4750 2861 4703 
Q 3103 4656 3366 4563 
z
" transform="scale(0.015625)"/>
      </defs>
      <use xlink:href="#DejaVuSans-31"/>
      <use xlink:href="#DejaVuSans-65" transform="translate(63.623047 0)"/>
      <use xlink:href="#DejaVuSans-2212" transform="translate(125.146484 0)"/>
      <use xlink:href="#DejaVuSans-36" transform="translate(208.935547 0)"/>
     </g>
    </g>
   </g>
   <g id="matplotlib.axis_2">
    <g id="ytick_1">
     <g id="line2d_19">
      <path d="M 72 366.215214 
L 349.267081 366.215214 
" clip-path="url(#p6ef0447fe8)" style="fill: none; stroke: #b0b0b0; stroke-width: 0.8; stroke-linecap: square"/>
     </g>
     <g id="line2d_20">
      <defs>
       <path id="m2aa2aeabfe" d="M 0 0 
L -3.5 0 
" style="stroke: #000000; stroke-width: 0.8"/>
      </defs>
      <g>
       <use xlink:href="#m2aa2aeabfe" x="72" y="366.215214" style="stroke: #000000; stroke-width: 0.8"/>
      </g>
     </g>
     <g id="text_11">
      <!-- 0.0 -->
      <g transform="translate(49.096875 370.014432) scale(0.1 -0.1)">
       <use xlink:href="#DejaVuSans-30"/>
       <use xlink:href="#DejaVuSans-2e" transform="translate(63.623047 0)"/>
       <use xlink:href="#DejaVuSans-30" transform="translate(95.410156 0)"/>
      </g>
     </g>
    </g>
    <g id="ytick_2">
     <g id="line2d_21">
      <path d="M 72 326.735838 
L 349.267081 326.735838 
" clip-path="url(#p6ef0447fe8)" style="fill: none; stroke: #b0b0b0; stroke-width: 0.8; stroke-linecap: square"/>
     </g>
     <g id="line2d_22">
      <g>
       <use xlink:href="#m2aa2aeabfe" x="72" y="326.735838" style="stroke: #000000; stroke-width: 0.8"/>
      </g>
     </g>
     <g id="text_12">
      <!-- 0.2 -->
      <g transform="translate(49.096875 330.535056) scale(0.1 -0.1)">
       <use xlink:href="#DejaVuSans-30"/>
       <use xlink:href="#DejaVuSans-2e" transform="translate(63.623047 0)"/>
       <use xlink:href="#DejaVuSans-32" transform="translate(95.410156 0)"/>
      </g>
     </g>
    </g>
    <g id="ytick_3">
     <g id="line2d_23">
      <path d="M 72 287.256462 
L 349.267081 287.256462 
" clip-path="url(#p6ef0447fe8)" style="fill: none; stroke: #b0b0b0; stroke-width: 0.8; stroke-linecap: square"/>
     </g>
     <g id="line2d_24">
      <g>
       <use xlink:href="#m2aa2aeabfe" x="72" y="287.256462" style="stroke: #000000; stroke-width: 0.8"/>
      </g>
     </g>
     <g id="text_13">
      <!-- 0.4 -->
      <g transform="translate(49.096875 291.05568) scale(0.1 -0.1)">
       <defs>
        <path id="DejaVuSans-34" d="M 2419 4116 
L 825 1625 
L 2419 1625 
L 2419 4116 
z
M 2253 4666 
L 3047 4666 
L 3047 1625 
L 3713 1625 
L 3713 1100 
L 3047 1100 
L 3047 0 
L 2419 0 
L 2419 1100 
L 313 1100 
L 313 1709 
L 2253 4666 
z
" transform="scale(0.015625)"/>
       </defs>
       <use xlink:href="#DejaVuSans-30"/>
       <use xlink:href="#DejaVuSans-2e" transform="translate(63.623047 0)"/>
       <use xlink:href="#DejaVuSans-34" transform="translate(95.410156 0)"/>
      </g>
     </g>
    </g>
    <g id="ytick_4">
     <g id="line2d_25">
      <path d="M 72 247.777086 
L 349.267081 247.777086 
" clip-path="url(#p6ef0447fe8)" style="fill: none; stroke: #b0b0b0; stroke-width: 0.8; stroke-linecap: square"/>
     </g>
     <g id="line2d_26">
      <g>
       <use xlink:href="#m2aa2aeabfe" x="72" y="247.777086" style="stroke: #000000; stroke-width: 0.8"/>
      </g>
     </g>
     <g id="text_14">
      <!-- 0.6 -->
      <g transform="translate(49.096875 251.576304) scale(0.1 -0.1)">
       <use xlink:href="#DejaVuSans-30"/>
       <use xlink:href="#DejaVuSans-2e" transform="translate(63.623047 0)"/>
       <use xlink:href="#DejaVuSans-36" transform="translate(95.410156 0)"/>
      </g>
     </g>
    </g>
    <g id="ytick_5">
     <g id="line2d_27">
      <path d="M 72 208.29771 
L 349.267081 208.29771 
" clip-path="url(#p6ef0447fe8)" style="fill: none; stroke: #b0b0b0; stroke-width: 0.8; stroke-linecap: square"/>
     </g>
     <g id="line2d_28">
      <g>
       <use xlink:href="#m2aa2aeabfe" x="72" y="208.29771" style="stroke: #000000; stroke-width: 0.8"/>
      </g>
     </g>
     <g id="text_15">
      <!-- 0.8 -->
      <g transform="translate(49.096875 212.096928) scale(0.1 -0.1)">
       <defs>
        <path id="DejaVuSans-38" d="M 2034 2216 
Q 1584 2216 1326 1975 
Q 1069 1734 1069 1313 
Q 1069 891 1326 650 
Q 1584 409 2034 409 
Q 2484 409 2743 651 
Q 3003 894 3003 1313 
Q 3003 1734 2745 1975 
Q 2488 2216 2034 2216 
z
M 1403 2484 
Q 997 2584 770 2862 
Q 544 3141 544 3541 
Q 544 4100 942 4425 
Q 1341 4750 2034 4750 
Q 2731 4750 3128 4425 
Q 3525 4100 3525 3541 
Q 3525 3141 3298 2862 
Q 3072 2584 2669 2484 
Q 3125 2378 3379 2068 
Q 3634 1759 3634 1313 
Q 3634 634 3220 271 
Q 2806 -91 2034 -91 
Q 1263 -91 848 271 
Q 434 634 434 1313 
Q 434 1759 690 2068 
Q 947 2378 1403 2484 
z
M 1172 3481 
Q 1172 3119 1398 2916 
Q 1625 2713 2034 2713 
Q 2441 2713 2670 2916 
Q 2900 3119 2900 3481 
Q 2900 3844 2670 4047 
Q 2441 4250 2034 4250 
Q 1625 4250 1398 4047 
Q 1172 3844 1172 3481 
z
" transform="scale(0.015625)"/>
       </defs>
       <use xlink:href="#DejaVuSans-30"/>
       <use xlink:href="#DejaVuSans-2e" transform="translate(63.623047 0)"/>
       <use xlink:href="#DejaVuSans-38" transform="translate(95.410156 0)"/>
      </g>
     </g>
    </g>
    <g id="ytick_6">
     <g id="line2d_29">
      <path d="M 72 168.818333 
L 349.267081 168.818333 
" clip-path="url(#p6ef0447fe8)" style="fill: none; stroke: #b0b0b0; stroke-width: 0.8; stroke-linecap: square"/>
     </g>
     <g id="line2d_30">
      <g>
       <use xlink:href="#m2aa2aeabfe" x="72" y="168.818333" style="stroke: #000000; stroke-width: 0.8"/>
      </g>
     </g>
     <g id="text_16">
      <!-- 1.0 -->
      <g transform="translate(49.096875 172.617552) scale(0.1 -0.1)">
       <use xlink:href="#DejaVuSans-31"/>
       <use xlink:href="#DejaVuSans-2e" transform="translate(63.623047 0)"/>
       <use xlink:href="#DejaVuSans-30" transform="translate(95.410156 0)"/>
      </g>
     </g>
    </g>
    <g id="ytick_7">
     <g id="line2d_31">
      <path d="M 72 129.338957 
L 349.267081 129.338957 
" clip-path="url(#p6ef0447fe8)" style="fill: none; stroke: #b0b0b0; stroke-width: 0.8; stroke-linecap: square"/>
     </g>
     <g id="line2d_32">
      <g>
       <use xlink:href="#m2aa2aeabfe" x="72" y="129.338957" style="stroke: #000000; stroke-width: 0.8"/>
      </g>
     </g>
     <g id="text_17">
      <!-- 1.2 -->
      <g transform="translate(49.096875 133.138176) scale(0.1 -0.1)">
       <use xlink:href="#DejaVuSans-31"/>
       <use xlink:href="#DejaVuSans-2e" transform="translate(63.623047 0)"/>
       <use xlink:href="#DejaVuSans-32" transform="translate(95.410156 0)"/>
      </g>
     </g>
    </g>
    <g id="ytick_8">
     <g id="line2d_33">
      <path d="M 72 89.859581 
L 349.267081 89.859581 
" clip-path="url(#p6ef0447fe8)" style="fill: none; stroke: #b0b0b0; stroke-width: 0.8; stroke-linecap: square"/>
     </g>
     <g id="line2d_34">
      <g>
       <use xlink:href="#m2aa2aeabfe" x="72" y="89.859581" style="stroke: #000000; stroke-width: 0.8"/>
      </g>
     </g>
     <g id="text_18">
      <!-- 1.4 -->
      <g transform="translate(49.096875 93.6588) scale(0.1 -0.1)">
       <use xlink:href="#DejaVuSans-31"/>
       <use xlink:href="#DejaVuSans-2e" transform="translate(63.623047 0)"/>
       <use xlink:href="#DejaVuSans-34" transform="translate(95.410156 0)"/>
      </g>
     </g>
    </g>
    <g id="text_19">
     <!-- Force [N] -->
     <g transform="translate(42.185312 250.015469) rotate(-90) scale(0.14 -0.14)">
      <defs>
       <path id="DejaVuSans-46" d="M 628 4666 
L 3309 4666 
L 3309 4134 
L 1259 4134 
L 1259 2759 
L 3109 2759 
L 3109 2228 
L 1259 2228 
L 1259 0 
L 628 0 
L 628 4666 
z
" transform="scale(0.015625)"/>
       <path id="DejaVuSans-6f" d="M 1959 3097 
Q 1497 3097 1228 2736 
Q 959 2375 959 1747 
Q 959 1119 1226 758 
Q 1494 397 1959 397 
Q 2419 397 2687 759 
Q 2956 1122 2956 1747 
Q 2956 2369 2687 2733 
Q 2419 3097 1959 3097 
z
M 1959 3584 
Q 2709 3584 3137 3096 
Q 3566 2609 3566 1747 
Q 3566 888 3137 398 
Q 2709 -91 1959 -91 
Q 1206 -91 779 398 
Q 353 888 353 1747 
Q 353 2609 779 3096 
Q 1206 3584 1959 3584 
z
" transform="scale(0.015625)"/>
       <path id="DejaVuSans-72" d="M 2631 2963 
Q 2534 3019 2420 3045 
Q 2306 3072 2169 3072 
Q 1681 3072 1420 2755 
Q 1159 2438 1159 1844 
L 1159 0 
L 581 0 
L 581 3500 
L 1159 3500 
L 1159 2956 
Q 1341 3275 1631 3429 
Q 1922 3584 2338 3584 
Q 2397 3584 2469 3576 
Q 2541 3569 2628 3553 
L 2631 2963 
z
" transform="scale(0.015625)"/>
       <path id="DejaVuSans-63" d="M 3122 3366 
L 3122 2828 
Q 2878 2963 2633 3030 
Q 2388 3097 2138 3097 
Q 1578 3097 1268 2742 
Q 959 2388 959 1747 
Q 959 1106 1268 751 
Q 1578 397 2138 397 
Q 2388 397 2633 464 
Q 2878 531 3122 666 
L 3122 134 
Q 2881 22 2623 -34 
Q 2366 -91 2075 -91 
Q 1284 -91 818 406 
Q 353 903 353 1747 
Q 353 2603 823 3093 
Q 1294 3584 2113 3584 
Q 2378 3584 2631 3529 
Q 2884 3475 3122 3366 
z
" transform="scale(0.015625)"/>
       <path id="DejaVuSans-20" transform="scale(0.015625)"/>
       <path id="DejaVuSans-5b" d="M 550 4863 
L 1875 4863 
L 1875 4416 
L 1125 4416 
L 1125 -397 
L 1875 -397 
L 1875 -844 
L 550 -844 
L 550 4863 
z
" transform="scale(0.015625)"/>
       <path id="DejaVuSans-4e" d="M 628 4666 
L 1478 4666 
L 3547 763 
L 3547 4666 
L 4159 4666 
L 4159 0 
L 3309 0 
L 1241 3903 
L 1241 0 
L 628 0 
L 628 4666 
z
" transform="scale(0.015625)"/>
       <path id="DejaVuSans-5d" d="M 1947 4863 
L 1947 -844 
L 622 -844 
L 622 -397 
L 1369 -397 
L 1369 4416 
L 622 4416 
L 622 4863 
L 1947 4863 
z
" transform="scale(0.015625)"/>
      </defs>
      <use xlink:href="#DejaVuSans-46"/>
      <use xlink:href="#DejaVuSans-6f" transform="translate(53.894531 0)"/>
      <use xlink:href="#DejaVuSans-72" transform="translate(115.076172 0)"/>
      <use xlink:href="#DejaVuSans-63" transform="translate(153.939453 0)"/>
      <use xlink:href="#DejaVuSans-65" transform="translate(208.919922 0)"/>
      <use xlink:href="#DejaVuSans-20" transform="translate(270.443359 0)"/>
      <use xlink:href="#DejaVuSans-5b" transform="translate(302.230469 0)"/>
      <use xlink:href="#DejaVuSans-4e" transform="translate(341.244141 0)"/>
      <use xlink:href="#DejaVuSans-5d" transform="translate(416.048828 0)"/>
     </g>
    </g>
    <g id="text_20">
     <!-- 1e−9 -->
     <g transform="translate(72 48.84) scale(0.1 -0.1)">
      <defs>
       <path id="DejaVuSans-39" d="M 703 97 
L 703 672 
Q 941 559 1184 500 
Q 1428 441 1663 441 
Q 2288 441 2617 861 
Q 2947 1281 2994 2138 
Q 2813 1869 2534 1725 
Q 2256 1581 1919 1581 
Q 1219 1581 811 2004 
Q 403 2428 403 3163 
Q 403 3881 828 4315 
Q 1253 4750 1959 4750 
Q 2769 4750 3195 4129 
Q 3622 3509 3622 2328 
Q 3622 1225 3098 567 
Q 2575 -91 1691 -91 
Q 1453 -91 1209 -44 
Q 966 3 703 97 
z
M 1959 2075 
Q 2384 2075 2632 2365 
Q 2881 2656 2881 3163 
Q 2881 3666 2632 3958 
Q 2384 4250 1959 4250 
Q 1534 4250 1286 3958 
Q 1038 3666 1038 3163 
Q 1038 2656 1286 2365 
Q 1534 2075 1959 2075 
z
" transform="scale(0.015625)"/>
      </defs>
      <use xlink:href="#DejaVuSans-31"/>
      <use xlink:href="#DejaVuSans-65" transform="translate(63.623047 0)"/>
      <use xlink:href="#DejaVuSans-2212" transform="translate(125.146484 0)"/>
      <use xlink:href="#DejaVuSans-39" transform="translate(208.935547 0)"/>
     </g>
    </g>
   </g>
   <g id="line2d_35">
    <path d="M 71.862699 365.286193 
L 72.191827 364.503396 
L 72.359543 364.321658 
L 72.494753 364.51651 
L 72.667042 364.55128 
L 73.184939 365.15907 
L 73.337375 365.578016 
L 73.816683 364.374722 
L 73.983591 364.384263 
L 74.322371 364.750435 
L 74.466142 364.836419 
L 74.658003 364.696437 
L 74.957188 364.889839 
L 75.122249 364.481552 
L 75.28755 364.421931 
L 75.464478 364.147576 
L 75.768902 364.691437 
L 75.943163 364.741473 
L 76.109978 364.368655 
L 76.272863 364.376331 
L 76.583842 364.560077 
L 76.746223 364.366996 
L 77.079735 364.344508 
L 77.25262 364.69947 
L 77.410882 364.747127 
L 77.739579 364.258684 
L 77.909044 364.406892 
L 78.046541 364.888883 
L 78.234982 365.123381 
L 78.404802 365.039886 
L 78.744146 365.215337 
L 78.867328 365.275542 
L 79.040764 364.583887 
L 79.37015 364.100069 
L 79.530329 364.32563 
L 79.693197 364.802935 
L 80.021841 364.434515 
L 80.202605 364.317036 
L 80.33931 364.38691 
L 80.679087 363.890079 
L 80.831293 363.962223 
L 81.01071 363.549647 
L 81.153441 363.778749 
L 81.331357 363.716951 
L 81.483701 363.428547 
L 81.826722 363.914811 
L 81.980479 364.524168 
L 82.488953 364.847351 
L 82.793719 364.492806 
L 82.960699 364.25333 
L 83.118548 363.726408 
L 83.295047 363.769375 
L 83.448995 363.653353 
L 83.768653 363.66781 
L 83.940996 363.530384 
L 84.088582 363.059135 
L 84.421971 363.348255 
L 84.578629 363.479255 
L 85.231715 362.870295 
L 85.38958 362.775354 
L 85.722156 362.411907 
L 86.051082 362.986534 
L 86.219323 363.083729 
L 86.389952 363.017708 
L 86.879189 363.306275 
L 87.515996 362.823916 
L 87.846247 362.644428 
L 88.014544 362.619856 
L 88.168031 362.7153 
L 88.356982 362.552767 
L 88.495715 362.609166 
L 88.66127 362.908523 
L 89.173634 362.376375 
L 89.32115 362.633627 
L 89.464358 362.649319 
L 89.808862 362.80892 
L 89.978369 362.624011 
L 90.304214 362.656814 
L 90.77683 361.944387 
L 91.113035 361.727454 
L 91.268763 362.036349 
L 91.764891 362.248236 
L 92.087126 361.884499 
L 93.068672 361.811263 
L 93.381182 361.215375 
L 93.546629 360.893397 
L 93.713758 360.839329 
L 94.048632 361.712466 
L 94.372872 361.643923 
L 95.024531 360.423133 
L 95.173454 360.500368 
L 95.515479 361.293274 
L 95.673607 361.083109 
L 95.833008 360.55231 
L 96.008102 360.510918 
L 96.141055 360.272583 
L 96.661084 360.664347 
L 96.983023 361.148983 
L 97.303338 361.064686 
L 97.619433 360.487538 
L 97.803762 360.438768 
L 97.9548 360.249359 
L 98.58595 358.760046 
L 98.752125 358.936995 
L 98.915077 359.298781 
L 99.088318 359.199009 
L 99.271979 359.443444 
L 99.412284 359.838152 
L 99.903612 358.985612 
L 100.066023 358.6421 
L 100.392939 358.696066 
L 100.882023 359.403821 
L 101.058908 359.395681 
L 101.511543 358.311808 
L 101.856117 358.488506 
L 102.008857 358.521075 
L 102.373551 358.794948 
L 102.497388 358.753635 
L 102.66159 358.826844 
L 102.840264 358.738255 
L 102.998358 358.363864 
L 103.179569 358.348759 
L 103.325776 358.965801 
L 103.485862 358.78161 
L 103.817008 358.187569 
L 103.983463 358.154771 
L 104.30512 358.389646 
L 104.47207 358.241402 
L 104.642781 358.454428 
L 104.788756 358.429597 
L 104.958453 358.513725 
L 105.604913 357.361452 
L 105.761468 357.398274 
L 106.092277 356.88527 
L 106.262378 357.382238 
L 106.424433 357.203135 
L 106.564591 357.233886 
L 107.231571 356.482968 
L 107.384736 356.376941 
L 107.722497 355.816858 
L 107.862962 355.925632 
L 108.037481 355.519175 
L 108.205341 355.798922 
L 108.524288 355.89674 
L 108.696753 356.315663 
L 109.506267 356.083093 
L 109.671172 355.893045 
L 109.835282 356.169926 
L 110.16229 355.730235 
L 110.318991 355.974947 
L 110.491397 355.903975 
L 110.642848 355.587842 
L 110.820045 355.484922 
L 110.985565 355.850377 
L 111.474888 354.945803 
L 111.762227 354.243663 
L 111.946199 354.255945 
L 112.104425 354.026262 
L 112.271843 354.076955 
L 112.596635 354.529932 
L 112.928681 353.45423 
L 113.236468 353.417143 
L 113.390716 353.35207 
L 113.579413 353.106503 
L 113.893377 353.620446 
L 114.396904 352.530364 
L 114.535249 352.623646 
L 115.207782 353.068388 
L 115.348099 353.263819 
L 115.531816 352.982859 
L 115.987323 351.314234 
L 116.157808 351.2019 
L 116.489651 350.844478 
L 116.821036 351.094329 
L 117.293604 350.098069 
L 117.787995 350.116524 
L 118.268695 350.622846 
L 118.44185 350.54736 
L 118.611842 350.261484 
L 118.77372 350.464107 
L 118.925891 350.402679 
L 119.088297 350.6244 
L 119.435041 349.782246 
L 119.741662 349.072796 
L 120.209401 347.541923 
L 120.370114 348.023422 
L 120.543618 347.85285 
L 120.704899 348.318511 
L 120.88238 348.450565 
L 121.046696 348.935968 
L 121.377973 348.375273 
L 121.830813 347.268483 
L 122.167781 346.617985 
L 122.490301 347.1665 
L 122.650729 347.195687 
L 122.827517 347.049532 
L 123.613993 345.725244 
L 124.432345 346.183029 
L 125.248384 344.929372 
L 125.411236 345.117702 
L 125.577579 345.031757 
L 125.902885 344.214892 
L 126.720266 344.0604 
L 127.042208 344.481245 
L 127.198398 344.386618 
L 127.67153 343.056531 
L 128.160369 341.997168 
L 128.653431 341.289355 
L 128.81411 341.445757 
L 129.30548 341.187713 
L 129.462498 341.202355 
L 129.785139 341.627191 
L 129.959827 341.463317 
L 130.28284 341.444784 
L 130.436314 341.258347 
L 130.764629 340.746746 
L 131.090903 340.6405 
L 131.572982 340.76382 
L 131.735945 340.58967 
L 132.542949 339.098896 
L 132.705709 338.867653 
L 132.877452 338.983084 
L 133.033221 339.449629 
L 133.221442 339.400642 
L 133.821218 337.866932 
L 134.008329 337.858105 
L 134.506882 338.503344 
L 134.677033 338.46584 
L 134.812647 337.790996 
L 134.991856 337.555129 
L 135.290839 336.081764 
L 135.463583 335.728135 
L 135.627825 335.719691 
L 135.762254 335.947794 
L 135.96279 336.558258 
L 136.116369 336.559288 
L 136.602344 336.961198 
L 136.944284 336.524088 
L 137.092003 336.353887 
L 137.254768 336.772027 
L 137.435482 336.883251 
L 137.578192 336.653068 
L 137.760625 336.066437 
L 137.924626 336.022573 
L 138.227995 335.356749 
L 138.714948 334.936933 
L 138.87699 335.104784 
L 139.205875 333.94511 
L 139.34606 333.571712 
L 139.851831 333.271304 
L 140.169896 333.906969 
L 140.335133 333.756021 
L 140.66907 333.217104 
L 140.814011 333.169266 
L 141.321034 332.491235 
L 141.469114 332.563068 
L 141.629452 332.884798 
L 142.127112 332.378445 
L 142.436292 332.659433 
L 142.61826 332.540854 
L 143.391253 329.918852 
L 143.579425 330.022557 
L 144.090752 331.638717 
L 144.242452 331.582098 
L 144.396393 330.865565 
L 144.7159 330.775076 
L 145.039381 329.94803 
L 145.511678 329.148604 
L 145.849111 328.267833 
L 146.00423 328.133656 
L 146.332266 329.101974 
L 146.516226 328.905881 
L 146.8228 328.434146 
L 147.316852 327.361078 
L 147.627436 327.932319 
L 147.794942 327.867106 
L 147.96589 327.565911 
L 148.122707 327.035306 
L 148.272769 327.062864 
L 148.760151 326.607602 
L 149.091301 327.148372 
L 149.426865 327.148924 
L 149.730908 326.232239 
L 149.908231 326.038769 
L 150.398273 324.505256 
L 150.536577 324.26063 
L 150.864711 323.041004 
L 151.334588 322.882136 
L 151.504991 323.433844 
L 151.994207 323.966626 
L 152.187747 323.84221 
L 152.481943 322.927062 
L 152.809039 322.879483 
L 152.973119 322.253826 
L 153.146712 322.27991 
L 153.604047 321.324229 
L 153.942807 320.718448 
L 154.255419 321.263979 
L 154.431396 321.206104 
L 154.600606 320.804957 
L 154.764709 320.801468 
L 154.906053 320.562026 
L 155.073321 320.694592 
L 155.239464 320.65009 
L 155.562918 320.478217 
L 155.744867 320.428737 
L 156.041597 319.821874 
L 156.212214 319.67098 
L 156.541752 319.00457 
L 156.862566 319.114392 
L 157.347844 318.298394 
L 157.836725 318.506961 
L 158.317168 317.978693 
L 158.646646 317.853459 
L 158.801535 317.616495 
L 158.977172 317.674348 
L 159.295929 317.58369 
L 160.433537 315.697284 
L 160.583722 315.839018 
L 160.74863 315.731567 
L 160.905834 315.930023 
L 161.704699 314.12212 
L 162.034551 313.020441 
L 162.202036 312.819069 
L 162.856999 313.504241 
L 163.176023 314.150985 
L 164.145071 311.450713 
L 164.316139 311.406342 
L 164.613478 311.863627 
L 164.807789 311.655981 
L 165.119521 310.988386 
L 165.275331 311.060143 
L 165.603438 310.891776 
L 165.937467 311.109924 
L 166.274385 311.012805 
L 166.57579 310.040111 
L 167.058132 309.728425 
L 167.236836 309.823319 
L 167.550553 309.18341 
L 167.868018 309.041955 
L 168.035703 308.70324 
L 168.205262 308.912243 
L 168.526562 308.799729 
L 168.856682 308.419938 
L 169.337314 307.281315 
L 169.806006 306.60871 
L 170.136296 306.258212 
L 170.630565 306.756866 
L 170.964951 305.969821 
L 171.259684 305.146868 
L 171.420537 305.234512 
L 171.601888 305.0375 
L 171.75974 304.600905 
L 172.089446 305.168424 
L 172.577549 303.539753 
L 172.863259 302.871878 
L 173.202579 302.515734 
L 173.375949 302.797161 
L 173.699227 303.602759 
L 173.880972 303.462612 
L 174.034895 303.589383 
L 174.35315 303.115959 
L 174.675983 302.420543 
L 174.99917 303.176188 
L 175.168299 303.090944 
L 175.498229 302.356057 
L 175.645288 301.913339 
L 176.124301 299.464004 
L 176.283555 299.644775 
L 176.61378 299.729513 
L 176.940357 299.210885 
L 177.25782 299.442947 
L 177.601182 299.263259 
L 177.754526 299.290733 
L 177.90654 299.458802 
L 178.226778 298.663244 
L 178.396766 298.144593 
L 178.711407 297.978265 
L 179.20335 297.408702 
L 179.525881 296.872908 
L 179.841466 296.213726 
L 180.004954 296.183098 
L 180.498426 295.835049 
L 180.655036 296.210748 
L 181.431319 294.476082 
L 181.626929 294.374319 
L 182.114652 293.402202 
L 182.269008 293.313878 
L 182.587728 292.628815 
L 182.745013 292.676337 
L 183.093871 293.255245 
L 183.241199 293.23594 
L 183.579313 292.57099 
L 183.878857 291.486784 
L 184.048504 291.526252 
L 184.206814 291.299359 
L 184.86542 292.561143 
L 185.045259 292.571831 
L 185.196519 292.24709 
L 185.364396 292.151721 
L 185.684831 292.38524 
L 186.174283 291.384711 
L 186.322795 291.048524 
L 186.812963 288.807088 
L 186.954354 288.866343 
L 187.288969 289.322429 
L 187.628473 288.938846 
L 187.78141 289.173397 
L 188.095233 288.749875 
L 188.43929 288.788187 
L 188.91949 287.622474 
L 189.210795 287.162809 
L 189.410522 287.228891 
L 189.556394 287.02432 
L 189.73971 287.214527 
L 190.042747 287.828353 
L 190.700549 286.28472 
L 190.843997 286.152682 
L 191.178665 284.85351 
L 191.343869 284.688929 
L 191.644985 284.947754 
L 191.83766 284.834416 
L 191.98964 284.882007 
L 192.152187 284.769309 
L 192.310703 284.951535 
L 192.477158 284.895585 
L 192.969769 284.066295 
L 194.068368 281.066851 
L 194.392122 280.924643 
L 194.578782 281.230746 
L 195.069776 281.220145 
L 195.223028 280.959563 
L 195.35911 280.442163 
L 195.539919 280.352822 
L 195.704131 279.599623 
L 195.855868 279.560695 
L 196.026335 279.793386 
L 196.188817 280.226527 
L 196.534045 279.881739 
L 196.843779 279.958359 
L 196.994293 279.926857 
L 197.978807 278.189379 
L 198.112788 277.893515 
L 198.293564 277.954626 
L 198.468683 277.835386 
L 198.790887 278.2307 
L 198.943404 278.45663 
L 199.718554 274.865889 
L 200.063843 274.156781 
L 200.383157 274.531679 
L 200.55649 274.669508 
L 200.722766 274.627382 
L 201.035452 274.94769 
L 201.21788 275.397337 
L 201.374972 275.430969 
L 201.535137 275.208826 
L 201.707527 275.654661 
L 201.873461 275.601875 
L 202.004702 274.834511 
L 202.17691 274.604108 
L 202.368208 274.042063 
L 202.641337 273.050545 
L 202.832899 272.965786 
L 203.142702 272.086872 
L 203.315147 272.40237 
L 203.464886 272.349575 
L 203.631558 272.126995 
L 203.788397 272.444548 
L 203.95901 272.262351 
L 205.078959 269.056826 
L 205.242426 268.955632 
L 205.563352 269.007374 
L 205.710955 268.864444 
L 206.220381 269.334913 
L 207.003794 267.496034 
L 207.190969 267.420474 
L 207.346364 267.178134 
L 207.499721 267.188485 
L 207.833497 266.632181 
L 208.147444 265.401624 
L 208.301508 265.175266 
L 208.4605 265.143711 
L 208.799565 265.582592 
L 209.13472 266.196095 
L 209.450768 266.254143 
L 210.101991 264.209626 
L 210.235963 263.955944 
L 210.419162 263.882703 
L 210.57371 264.172198 
L 211.069231 263.292786 
L 211.220792 263.085987 
L 211.372916 263.469842 
L 211.544319 263.471151 
L 212.202711 264.499009 
L 212.385373 264.198229 
L 212.860264 262.127671 
L 213.005521 261.898068 
L 213.320306 260.471661 
L 213.637137 259.638881 
L 213.784254 259.82303 
L 213.97862 259.832534 
L 214.289329 259.401713 
L 214.465897 259.792045 
L 214.612333 259.824637 
L 214.948363 259.078138 
L 215.267605 259.623295 
L 215.432429 259.484669 
L 215.909785 257.813051 
L 216.228659 257.550456 
L 216.555713 257.439792 
L 216.739239 257.916076 
L 216.892884 257.885289 
L 217.361563 256.693176 
L 217.526859 256.370431 
L 217.861015 256.364149 
L 218.022117 256.711711 
L 218.190388 256.802135 
L 219.15042 254.041373 
L 219.793412 254.582051 
L 219.976703 254.1947 
L 220.113545 254.352561 
L 220.448371 252.890338 
L 220.774231 252.598006 
L 220.9022 252.842862 
L 221.414733 251.977005 
L 221.720252 252.091347 
L 222.068354 250.853441 
L 222.22749 250.850685 
L 222.53415 251.254266 
L 222.711294 250.788221 
L 222.870967 250.681987 
L 223.193617 251.062403 
L 223.343696 250.975232 
L 223.684118 250.167087 
L 223.840868 250.101168 
L 224.005587 250.203079 
L 224.158419 250.113435 
L 224.333558 249.484359 
L 224.503847 249.296208 
L 224.646115 249.429289 
L 224.808738 249.374109 
L 225.309055 247.702415 
L 225.591783 247.390849 
L 225.938299 246.705316 
L 226.100646 246.889926 
L 226.276165 247.267376 
L 226.415576 247.171948 
L 226.590282 246.840642 
L 226.762983 247.0324 
L 227.074741 246.593465 
L 227.247953 246.695903 
L 227.548243 245.618456 
L 227.728559 245.427549 
L 227.877773 245.054777 
L 228.199977 244.029209 
L 228.365024 243.872626 
L 228.66631 243.123165 
L 229.002341 242.168204 
L 229.151411 241.700577 
L 229.31849 241.576729 
L 229.473392 241.638345 
L 229.639973 241.110886 
L 229.803696 241.173025 
L 230.130212 240.758295 
L 230.272572 240.054131 
L 230.768433 239.119234 
L 230.912366 239.256332 
L 231.114189 239.377444 
L 231.249288 239.280163 
L 231.424309 239.834154 
L 232.058218 237.302505 
L 232.378548 236.336767 
L 232.698288 235.529341 
L 232.849402 235.655326 
L 233.007516 235.62239 
L 233.34221 234.290897 
L 233.506169 234.303602 
L 233.821165 234.812733 
L 234.155413 234.220938 
L 234.474406 234.85565 
L 235.285367 234.191311 
L 235.449785 233.607717 
L 235.762749 231.967672 
L 235.911466 231.85273 
L 236.24612 231.137313 
L 236.419961 230.586135 
L 236.723672 230.74286 
L 237.046571 230.382502 
L 237.235641 230.184438 
L 237.381737 230.439887 
L 237.53719 230.406419 
L 237.710231 230.659722 
L 237.863168 230.54636 
L 238.038687 230.162667 
L 238.195437 230.391608 
L 238.510603 230.247406 
L 238.678704 229.951048 
L 238.998915 228.866522 
L 239.306532 227.878911 
L 239.475301 227.333257 
L 239.9463 227.14349 
L 240.144361 227.448337 
L 240.301505 227.467845 
L 240.781416 226.507689 
L 241.079387 224.96494 
L 241.731239 223.229685 
L 241.880479 223.190967 
L 242.051293 222.911029 
L 242.208345 222.978477 
L 242.872412 222.700172 
L 243.025323 223.110117 
L 243.182309 223.10543 
L 243.687279 222.389171 
L 243.990007 222.317162 
L 244.169851 222.291811 
L 244.653314 221.585346 
L 244.951743 220.508719 
L 245.110119 220.451219 
L 245.453109 219.731416 
L 245.771106 220.461334 
L 245.917241 220.157038 
L 246.1166 219.147349 
L 246.278173 218.930612 
L 246.406496 218.95101 
L 246.568974 219.151248 
L 246.735555 218.840224 
L 247.07675 217.721011 
L 247.213002 217.890087 
L 247.704355 216.483572 
L 248.026415 217.024395 
L 248.368251 216.103573 
L 248.663103 215.536139 
L 248.822016 215.371532 
L 249.025136 214.881585 
L 249.330747 215.499361 
L 249.47717 215.327806 
L 249.650959 214.897628 
L 249.829794 213.89759 
L 249.961171 213.830209 
L 250.6255 212.650191 
L 250.930954 213.217039 
L 251.109435 213.033224 
L 251.264468 212.559164 
L 251.428191 212.456572 
L 251.585348 212.598228 
L 252.230005 211.891257 
L 252.389102 211.827724 
L 253.03786 210.496956 
L 253.501231 208.023731 
L 253.996346 207.454663 
L 254.157985 207.697201 
L 254.477948 208.752322 
L 254.66171 208.845347 
L 254.975696 207.935066 
L 255.142329 207.686089 
L 255.449435 206.766652 
L 255.785059 206.899531 
L 256.131706 207.502319 
L 256.278745 207.20115 
L 256.606886 206.14367 
L 256.745183 206.330861 
L 257.070899 205.655417 
L 257.252211 205.615533 
L 257.549854 204.903155 
L 257.891704 203.347643 
L 258.027052 202.448965 
L 258.36016 202.672143 
L 258.694173 202.251512 
L 258.982654 202.360662 
L 259.16812 202.064683 
L 259.339078 202.029674 
L 259.668818 201.60843 
L 259.810182 201.612534 
L 260.449268 199.192139 
L 260.767881 198.797702 
L 260.942102 198.725894 
L 261.726616 197.098323 
L 261.91237 196.97292 
L 262.059409 197.018087 
L 262.38831 197.424475 
L 262.548036 197.137203 
L 263.006846 195.727876 
L 263.189167 195.477341 
L 263.341868 194.764928 
L 263.509431 194.652468 
L 263.696667 194.324778 
L 263.820809 194.543091 
L 263.981282 194.109836 
L 264.176263 193.925706 
L 264.48426 192.977477 
L 264.799911 192.901865 
L 264.955705 192.46277 
L 265.120568 192.596293 
L 265.286231 192.349913 
L 265.460518 192.380797 
L 265.600269 192.010494 
L 265.771974 192.097682 
L 266.246971 191.182478 
L 266.432345 191.080144 
L 266.5654 190.755228 
L 266.739569 190.659394 
L 267.053607 190.126147 
L 267.226937 189.758146 
L 267.384985 189.747651 
L 268.012565 187.259852 
L 268.33064 186.499854 
L 268.50203 186.430359 
L 268.666199 186.528514 
L 268.818991 187.189073 
L 268.99721 187.261557 
L 269.165651 187.145484 
L 269.488183 186.019625 
L 270.279695 183.266318 
L 270.425502 183.808177 
L 270.769986 183.812873 
L 270.916029 183.4723 
L 271.232636 183.47816 
L 271.563543 182.490781 
L 271.744068 182.342032 
L 271.875419 181.748388 
L 272.037569 181.863308 
L 272.363705 180.609166 
L 272.519695 180.716991 
L 272.694441 181.028774 
L 272.838151 181.022282 
L 273.326332 180.010704 
L 273.641642 179.289901 
L 273.82011 178.530125 
L 273.983675 178.611849 
L 274.294398 178.888859 
L 274.470769 178.665235 
L 275.256567 175.811951 
L 275.416882 175.584494 
L 275.576044 175.886368 
L 276.356521 173.76226 
L 276.550257 173.273348 
L 276.716733 173.338985 
L 276.873981 173.666742 
L 277.198767 173.806638 
L 277.532557 172.864363 
L 277.665139 172.773827 
L 277.840986 172.797201 
L 278.172338 171.765836 
L 278.328787 171.515057 
L 278.484974 171.582121 
L 278.625853 171.362477 
L 278.814806 171.297582 
L 279.297849 170.517474 
L 279.759962 168.335784 
L 280.063555 167.893239 
L 280.414606 167.175444 
L 280.873757 167.221305 
L 281.075881 166.576563 
L 281.231098 166.51718 
L 281.378845 166.803608 
L 281.532306 166.603103 
L 282.034196 164.978827 
L 282.165193 165.069958 
L 282.339244 164.890633 
L 282.833782 163.608254 
L 282.97356 163.530046 
L 283.309735 162.780439 
L 283.624324 163.179175 
L 283.800078 163.333149 
L 284.132413 163.216988 
L 284.284577 163.255702 
L 284.621997 163.670645 
L 284.944305 163.281248 
L 285.110204 163.347176 
L 285.581007 160.974669 
L 285.867837 160.131075 
L 286.224602 159.538511 
L 286.536294 158.32692 
L 286.679663 157.933759 
L 286.849704 157.120275 
L 287.339313 157.434757 
L 287.507925 157.069832 
L 287.958308 154.38228 
L 288.274929 153.673173 
L 288.618954 153.773524 
L 289.237333 152.686713 
L 289.598488 153.003566 
L 289.756602 153.399604 
L 290.071571 153.068081 
L 290.542426 152.017612 
L 290.731798 151.889441 
L 290.88847 152.146786 
L 291.190228 151.560364 
L 291.372116 150.839802 
L 291.525826 149.767235 
L 291.65951 149.692766 
L 292.163366 148.236268 
L 292.457785 148.868644 
L 292.648546 148.757574 
L 292.986464 147.841777 
L 293.118287 147.338631 
L 293.286702 147.325191 
L 293.433322 147.036506 
L 293.77702 147.253481 
L 293.953928 147.809011 
L 294.123837 147.836438 
L 295.0794 145.077343 
L 295.238142 144.948579 
L 295.881737 143.950473 
L 296.032433 143.849502 
L 296.195842 143.99525 
L 296.526604 143.04669 
L 296.669055 142.204757 
L 296.835688 141.921587 
L 296.978638 141.956944 
L 297.316858 141.509704 
L 297.656217 141.841359 
L 297.789547 141.806952 
L 298.133258 141.080825 
L 298.7549 138.481272 
L 299.076921 138.207983 
L 299.424197 137.713712 
L 299.573804 137.965966 
L 299.721748 137.824631 
L 299.886663 137.937253 
L 300.066927 137.650402 
L 300.232799 137.773314 
L 300.384242 138.370842 
L 300.564754 138.367159 
L 301.677133 134.592796 
L 301.850345 134.442013 
L 302.322786 132.822425 
L 302.456915 132.370186 
L 302.79676 132.811273 
L 302.945896 132.631397 
L 303.127155 132.024518 
L 303.284692 132.625304 
L 303.945718 131.568738 
L 304.065693 131.215215 
L 304.243675 131.286245 
L 304.896314 128.986334 
L 305.194507 128.220316 
L 305.350733 128.216757 
L 305.529529 128.380133 
L 305.845507 128.099 
L 306.020462 128.132124 
L 306.178248 127.869704 
L 306.492903 126.805783 
L 306.671881 126.655584 
L 306.972067 125.514608 
L 307.440589 124.901407 
L 307.785165 125.244932 
L 308.109924 124.788158 
L 308.560635 122.453132 
L 308.736088 122.117147 
L 309.395122 122.804286 
L 310.034851 121.091742 
L 310.185612 120.82095 
L 310.370515 120.733718 
L 310.846979 121.138203 
L 311.01909 120.96977 
L 311.176548 120.43678 
L 311.340363 120.318944 
L 311.975059 118.415436 
L 312.445311 118.095091 
L 313.096783 116.736805 
L 313.255381 116.800104 
L 313.59229 116.29947 
L 313.899304 116.015368 
L 314.063486 115.666903 
L 314.850267 112.298684 
L 315.171068 110.684735 
L 315.314227 110.175252 
L 315.471411 110.050339 
L 315.647191 110.298643 
L 315.981322 110.197607 
L 316.314155 110.865414 
L 316.445401 110.281252 
L 317.096008 109.61066 
L 317.289141 109.674054 
L 317.593481 108.457067 
L 317.904925 107.236934 
L 318.237902 106.019457 
L 318.861313 104.447194 
L 319.030646 103.874026 
L 319.168851 103.918449 
L 319.336323 103.521943 
L 319.513244 103.418551 
L 319.67141 103.455895 
L 319.840598 102.896877 
L 320.144768 102.589589 
L 320.64599 100.73002 
L 320.797996 100.346373 
L 320.931037 100.44765 
L 321.105246 100.383552 
L 321.439114 99.605065 
L 321.612758 99.75154 
L 321.749391 99.632047 
L 322.080861 98.612418 
L 322.383418 97.442408 
L 322.559553 97.323695 
L 323.50893 94.65386 
L 323.667188 94.63026 
L 323.995682 94.306113 
L 324.168016 94.469619 
L 324.336209 94.344924 
L 324.82055 93.386858 
L 324.953539 92.830014 
L 325.126384 92.776919 
L 325.292702 92.548739 
L 325.612193 91.274835 
L 325.77239 91.050916 
L 326.243652 89.509271 
L 327.520265 85.541274 
L 327.674014 85.415968 
L 327.82623 85.562652 
L 327.998656 86.007818 
L 328.149771 85.208588 
L 328.638384 84.154411 
L 328.972082 83.101967 
L 329.115347 82.820682 
L 329.288323 82.909936 
L 329.612545 83.981698 
L 329.930017 83.185041 
L 330.39715 82.028789 
L 330.739957 81.101566 
L 331.060915 80.831395 
L 332.172193 78.204119 
L 332.341107 78.300965 
L 332.497477 78.253451 
L 333.446513 74.9405 
L 333.629961 74.754949 
L 333.784733 75.086757 
L 334.100488 74.303432 
L 334.72601 71.485932 
L 334.877649 71.43459 
L 335.059367 71.230467 
L 335.552319 71.621398 
L 335.867458 70.568477 
L 336.160841 67.642614 
L 336.160841 67.642614 
" clip-path="url(#p6ef0447fe8)" style="fill: none; stroke: #a6cee3; stroke-opacity: 0.5; stroke-width: 1.5; stroke-linecap: square"/>
   </g>
   <g id="line2d_36">
    <path d="M 71.862699 366.215214 
L 86.389952 366.105817 
L 88.823606 365.676329 
L 91.764891 364.923913 
L 95.173454 363.815908 
L 98.915077 362.363014 
L 102.998358 360.537227 
L 107.384736 358.331357 
L 112.104425 355.70534 
L 117.126451 352.650918 
L 122.334093 349.224345 
L 127.856407 345.324581 
L 133.688179 340.929959 
L 139.676745 336.141207 
L 146.00423 330.796329 
L 152.654054 324.88179 
L 159.450901 318.538899 
L 166.57579 311.583868 
L 174.034895 303.983853 
L 181.626929 295.929757 
L 189.556394 287.190467 
L 197.806857 277.758445 
L 206.220381 267.799559 
L 214.948363 257.12058 
L 224.005587 245.679691 
L 233.171423 233.744292 
L 242.696671 220.975037 
L 252.560885 207.373548 
L 262.717958 192.981872 
L 273.03232 177.981219 
L 283.624324 162.186786 
L 294.589331 145.435004 
L 305.845507 127.829237 
L 317.432694 109.288301 
L 329.288323 89.895128 
L 336.160841 78.463408 
L 336.160841 78.463408 
" clip-path="url(#p6ef0447fe8)" style="fill: none; stroke-dasharray: 5.55,2.4; stroke-dashoffset: 0; stroke: #1f78b4; stroke-opacity: 0.7; stroke-width: 1.5"/>
   </g>
   <g id="line2d_37">
    <path d="M 71.862699 366.215214 
L 86.389952 366.105795 
L 88.823606 365.676023 
L 91.764891 364.9226 
L 95.173454 363.812216 
L 98.915077 362.354878 
L 102.998358 360.521677 
L 107.384736 358.304453 
L 112.104425 355.66184 
L 117.126451 352.584276 
L 122.334093 349.127206 
L 127.856407 345.187301 
L 133.531338 340.864207 
L 139.516841 336.021625 
L 145.66009 330.766368 
L 152.187747 324.882524 
L 158.801535 318.621554 
L 165.776702 311.707086 
L 172.863259 304.369124 
L 180.336057 296.303673 
L 187.93616 287.769594 
L 195.855868 278.534745 
L 203.95901 268.737932 
L 212.202711 258.42243 
L 220.774231 247.336105 
L 229.473392 235.720766 
L 238.510603 223.277768 
L 247.704355 210.237444 
L 257.070899 196.567406 
L 266.739569 182.060534 
L 276.550257 166.940522 
L 286.679663 150.917531 
L 296.978638 134.20825 
L 307.440589 116.813582 
L 318.237902 98.427075 
L 329.288323 79.163504 
L 336.160841 66.96 
L 336.160841 66.96 
" clip-path="url(#p6ef0447fe8)" style="fill: none; stroke: #1f77b4; stroke-width: 2.5; stroke-linecap: square"/>
   </g>
   <g id="patch_3">
    <path d="M 72 384.48 
L 72 51.84 
" style="fill: none; stroke: #000000; stroke-width: 0.8; stroke-linejoin: miter; stroke-linecap: square"/>
   </g>
   <g id="patch_4">
    <path d="M 349.267081 384.48 
L 349.267081 51.84 
" style="fill: none; stroke: #000000; stroke-width: 0.8; stroke-linejoin: miter; stroke-linecap: square"/>
   </g>
   <g id="patch_5">
    <path d="M 72 384.48 
L 349.267081 384.48 
" style="fill: none; stroke: #000000; stroke-width: 0.8; stroke-linejoin: miter; stroke-linecap: square"/>
   </g>
   <g id="patch_6">
    <path d="M 72 51.84 
L 349.267081 51.84 
" style="fill: none; stroke: #000000; stroke-width: 0.8; stroke-linejoin: miter; stroke-linecap: square"/>
   </g>
   <g id="text_21">
    <!-- Control-Cell11 Sneddon Model Fit Quality -->
    <g transform="translate(46.34854 35.241562) scale(0.16 -0.16)">
     <defs>
      <path id="DejaVuSans-43" d="M 4122 4306 
L 4122 3641 
Q 3803 3938 3442 4084 
Q 3081 4231 2675 4231 
Q 1875 4231 1450 3742 
Q 1025 3253 1025 2328 
Q 1025 1406 1450 917 
Q 1875 428 2675 428 
Q 3081 428 3442 575 
Q 3803 722 4122 1019 
L 4122 359 
Q 3791 134 3420 21 
Q 3050 -91 2638 -91 
Q 1578 -91 968 557 
Q 359 1206 359 2328 
Q 359 3453 968 4101 
Q 1578 4750 2638 4750 
Q 3056 4750 3426 4639 
Q 3797 4528 4122 4306 
z
" transform="scale(0.015625)"/>
      <path id="DejaVuSans-6e" d="M 3513 2113 
L 3513 0 
L 2938 0 
L 2938 2094 
Q 2938 2591 2744 2837 
Q 2550 3084 2163 3084 
Q 1697 3084 1428 2787 
Q 1159 2491 1159 1978 
L 1159 0 
L 581 0 
L 581 3500 
L 1159 3500 
L 1159 2956 
Q 1366 3272 1645 3428 
Q 1925 3584 2291 3584 
Q 2894 3584 3203 3211 
Q 3513 2838 3513 2113 
z
" transform="scale(0.015625)"/>
      <path id="DejaVuSans-74" d="M 1172 4494 
L 1172 3500 
L 2356 3500 
L 2356 3053 
L 1172 3053 
L 1172 1153 
Q 1172 725 1289 603 
Q 1406 481 1766 481 
L 2356 481 
L 2356 0 
L 1766 0 
Q 1100 0 847 248 
Q 594 497 594 1153 
L 594 3053 
L 172 3053 
L 172 3500 
L 594 3500 
L 594 4494 
L 1172 4494 
z
" transform="scale(0.015625)"/>
      <path id="DejaVuSans-6c" d="M 603 4863 
L 1178 4863 
L 1178 0 
L 603 0 
L 603 4863 
z
" transform="scale(0.015625)"/>
      <path id="DejaVuSans-2d" d="M 313 2009 
L 1997 2009 
L 1997 1497 
L 313 1497 
L 313 2009 
z
" transform="scale(0.015625)"/>
      <path id="DejaVuSans-53" d="M 3425 4513 
L 3425 3897 
Q 3066 4069 2747 4153 
Q 2428 4238 2131 4238 
Q 1616 4238 1336 4038 
Q 1056 3838 1056 3469 
Q 1056 3159 1242 3001 
Q 1428 2844 1947 2747 
L 2328 2669 
Q 3034 2534 3370 2195 
Q 3706 1856 3706 1288 
Q 3706 609 3251 259 
Q 2797 -91 1919 -91 
Q 1588 -91 1214 -16 
Q 841 59 441 206 
L 441 856 
Q 825 641 1194 531 
Q 1563 422 1919 422 
Q 2459 422 2753 634 
Q 3047 847 3047 1241 
Q 3047 1584 2836 1778 
Q 2625 1972 2144 2069 
L 1759 2144 
Q 1053 2284 737 2584 
Q 422 2884 422 3419 
Q 422 4038 858 4394 
Q 1294 4750 2059 4750 
Q 2388 4750 2728 4690 
Q 3069 4631 3425 4513 
z
" transform="scale(0.015625)"/>
      <path id="DejaVuSans-64" d="M 2906 2969 
L 2906 4863 
L 3481 4863 
L 3481 0 
L 2906 0 
L 2906 525 
Q 2725 213 2448 61 
Q 2172 -91 1784 -91 
Q 1150 -91 751 415 
Q 353 922 353 1747 
Q 353 2572 751 3078 
Q 1150 3584 1784 3584 
Q 2172 3584 2448 3432 
Q 2725 3281 2906 2969 
z
M 947 1747 
Q 947 1113 1208 752 
Q 1469 391 1925 391 
Q 2381 391 2643 752 
Q 2906 1113 2906 1747 
Q 2906 2381 2643 2742 
Q 2381 3103 1925 3103 
Q 1469 3103 1208 2742 
Q 947 2381 947 1747 
z
" transform="scale(0.015625)"/>
      <path id="DejaVuSans-4d" d="M 628 4666 
L 1569 4666 
L 2759 1491 
L 3956 4666 
L 4897 4666 
L 4897 0 
L 4281 0 
L 4281 4097 
L 3078 897 
L 2444 897 
L 1241 4097 
L 1241 0 
L 628 0 
L 628 4666 
z
" transform="scale(0.015625)"/>
      <path id="DejaVuSans-69" d="M 603 3500 
L 1178 3500 
L 1178 0 
L 603 0 
L 603 3500 
z
M 603 4863 
L 1178 4863 
L 1178 4134 
L 603 4134 
L 603 4863 
z
" transform="scale(0.015625)"/>
      <path id="DejaVuSans-51" d="M 2522 4238 
Q 1834 4238 1429 3725 
Q 1025 3213 1025 2328 
Q 1025 1447 1429 934 
Q 1834 422 2522 422 
Q 3209 422 3611 934 
Q 4013 1447 4013 2328 
Q 4013 3213 3611 3725 
Q 3209 4238 2522 4238 
z
M 3406 84 
L 4238 -825 
L 3475 -825 
L 2784 -78 
Q 2681 -84 2626 -87 
Q 2572 -91 2522 -91 
Q 1538 -91 948 567 
Q 359 1225 359 2328 
Q 359 3434 948 4092 
Q 1538 4750 2522 4750 
Q 3503 4750 4090 4092 
Q 4678 3434 4678 2328 
Q 4678 1516 4351 937 
Q 4025 359 3406 84 
z
" transform="scale(0.015625)"/>
      <path id="DejaVuSans-75" d="M 544 1381 
L 544 3500 
L 1119 3500 
L 1119 1403 
Q 1119 906 1312 657 
Q 1506 409 1894 409 
Q 2359 409 2629 706 
Q 2900 1003 2900 1516 
L 2900 3500 
L 3475 3500 
L 3475 0 
L 2900 0 
L 2900 538 
Q 2691 219 2414 64 
Q 2138 -91 1772 -91 
Q 1169 -91 856 284 
Q 544 659 544 1381 
z
M 1991 3584 
L 1991 3584 
z
" transform="scale(0.015625)"/>
      <path id="DejaVuSans-61" d="M 2194 1759 
Q 1497 1759 1228 1600 
Q 959 1441 959 1056 
Q 959 750 1161 570 
Q 1363 391 1709 391 
Q 2188 391 2477 730 
Q 2766 1069 2766 1631 
L 2766 1759 
L 2194 1759 
z
M 3341 1997 
L 3341 0 
L 2766 0 
L 2766 531 
Q 2569 213 2275 61 
Q 1981 -91 1556 -91 
Q 1019 -91 701 211 
Q 384 513 384 1019 
Q 384 1609 779 1909 
Q 1175 2209 1959 2209 
L 2766 2209 
L 2766 2266 
Q 2766 2663 2505 2880 
Q 2244 3097 1772 3097 
Q 1472 3097 1187 3025 
Q 903 2953 641 2809 
L 641 3341 
Q 956 3463 1253 3523 
Q 1550 3584 1831 3584 
Q 2591 3584 2966 3190 
Q 3341 2797 3341 1997 
z
" transform="scale(0.015625)"/>
      <path id="DejaVuSans-79" d="M 2059 -325 
Q 1816 -950 1584 -1140 
Q 1353 -1331 966 -1331 
L 506 -1331 
L 506 -850 
L 844 -850 
Q 1081 -850 1212 -737 
Q 1344 -625 1503 -206 
L 1606 56 
L 191 3500 
L 800 3500 
L 1894 763 
L 2988 3500 
L 3597 3500 
L 2059 -325 
z
" transform="scale(0.015625)"/>
     </defs>
     <use xlink:href="#DejaVuSans-43"/>
     <use xlink:href="#DejaVuSans-6f" transform="translate(69.824219 0)"/>
     <use xlink:href="#DejaVuSans-6e" transform="translate(131.005859 0)"/>
     <use xlink:href="#DejaVuSans-74" transform="translate(194.384766 0)"/>
     <use xlink:href="#DejaVuSans-72" transform="translate(233.59375 0)"/>
     <use xlink:href="#DejaVuSans-6f" transform="translate(272.457031 0)"/>
     <use xlink:href="#DejaVuSans-6c" transform="translate(333.638672 0)"/>
     <use xlink:href="#DejaVuSans-2d" transform="translate(361.421875 0)"/>
     <use xlink:href="#DejaVuSans-43" transform="translate(397.505859 0)"/>
     <use xlink:href="#DejaVuSans-65" transform="translate(467.330078 0)"/>
     <use xlink:href="#DejaVuSans-6c" transform="translate(528.853516 0)"/>
     <use xlink:href="#DejaVuSans-6c" transform="translate(556.636719 0)"/>
     <use xlink:href="#DejaVuSans-31" transform="translate(584.419922 0)"/>
     <use xlink:href="#DejaVuSans-31" transform="translate(648.042969 0)"/>
     <use xlink:href="#DejaVuSans-20" transform="translate(711.666016 0)"/>
     <use xlink:href="#DejaVuSans-53" transform="translate(743.453125 0)"/>
     <use xlink:href="#DejaVuSans-6e" transform="translate(806.929688 0)"/>
     <use xlink:href="#DejaVuSans-65" transform="translate(870.308594 0)"/>
     <use xlink:href="#DejaVuSans-64" transform="translate(931.832031 0)"/>
     <use xlink:href="#DejaVuSans-64" transform="translate(995.308594 0)"/>
     <use xlink:href="#DejaVuSans-6f" transform="translate(1058.785156 0)"/>
     <use xlink:href="#DejaVuSans-6e" transform="translate(1119.966797 0)"/>
     <use xlink:href="#DejaVuSans-20" transform="translate(1183.345703 0)"/>
     <use xlink:href="#DejaVuSans-4d" transform="translate(1215.132812 0)"/>
     <use xlink:href="#DejaVuSans-6f" transform="translate(1301.412109 0)"/>
     <use xlink:href="#DejaVuSans-64" transform="translate(1362.59375 0)"/>
     <use xlink:href="#DejaVuSans-65" transform="translate(1426.070312 0)"/>
     <use xlink:href="#DejaVuSans-6c" transform="translate(1487.59375 0)"/>
     <use xlink:href="#DejaVuSans-20" transform="translate(1515.376953 0)"/>
     <use xlink:href="#DejaVuSans-46" transform="translate(1547.164062 0)"/>
     <use xlink:href="#DejaVuSans-69" transform="translate(1597.433594 0)"/>
     <use xlink:href="#DejaVuSans-74" transform="translate(1625.216797 0)"/>
     <use xlink:href="#DejaVuSans-20" transform="translate(1664.425781 0)"/>
     <use xlink:href="#DejaVuSans-51" transform="translate(1696.212891 0)"/>
     <use xlink:href="#DejaVuSans-75" transform="translate(1774.923828 0)"/>
     <use xlink:href="#DejaVuSans-61" transform="translate(1838.302734 0)"/>
     <use xlink:href="#DejaVuSans-6c" transform="translate(1899.582031 0)"/>
     <use xlink:href="#DejaVuSans-69" transform="translate(1927.365234 0)"/>
     <use xlink:href="#DejaVuSans-74" transform="translate(1955.148438 0)"/>
     <use xlink:href="#DejaVuSans-79" transform="translate(1994.357422 0)"/>
    </g>
   </g>
   <g id="legend_1">
    <g id="patch_7">
     <path d="M 79 103.874375 
L 214.90625 103.874375 
Q 216.90625 103.874375 216.90625 101.874375 
L 216.90625 58.84 
Q 216.90625 56.84 214.90625 56.84 
L 79 56.84 
Q 77 56.84 77 58.84 
L 77 101.874375 
Q 77 103.874375 79 103.874375 
z
" style="fill: #ffffff; opacity: 0.8; stroke: #cccccc; stroke-linejoin: miter"/>
    </g>
    <g id="line2d_38">
     <path d="M 81 64.938437 
L 91 64.938437 
L 101 64.938437 
" style="fill: none; stroke: #a6cee3; stroke-opacity: 0.5; stroke-width: 1.5; stroke-linecap: square"/>
    </g>
    <g id="text_22">
     <!-- Experiment 50 Force -->
     <g transform="translate(109 68.438437) scale(0.1 -0.1)">
      <defs>
       <path id="DejaVuSans-45" d="M 628 4666 
L 3578 4666 
L 3578 4134 
L 1259 4134 
L 1259 2753 
L 3481 2753 
L 3481 2222 
L 1259 2222 
L 1259 531 
L 3634 531 
L 3634 0 
L 628 0 
L 628 4666 
z
" transform="scale(0.015625)"/>
       <path id="DejaVuSans-78" d="M 3513 3500 
L 2247 1797 
L 3578 0 
L 2900 0 
L 1881 1375 
L 863 0 
L 184 0 
L 1544 1831 
L 300 3500 
L 978 3500 
L 1906 2253 
L 2834 3500 
L 3513 3500 
z
" transform="scale(0.015625)"/>
       <path id="DejaVuSans-70" d="M 1159 525 
L 1159 -1331 
L 581 -1331 
L 581 3500 
L 1159 3500 
L 1159 2969 
Q 1341 3281 1617 3432 
Q 1894 3584 2278 3584 
Q 2916 3584 3314 3078 
Q 3713 2572 3713 1747 
Q 3713 922 3314 415 
Q 2916 -91 2278 -91 
Q 1894 -91 1617 61 
Q 1341 213 1159 525 
z
M 3116 1747 
Q 3116 2381 2855 2742 
Q 2594 3103 2138 3103 
Q 1681 3103 1420 2742 
Q 1159 2381 1159 1747 
Q 1159 1113 1420 752 
Q 1681 391 2138 391 
Q 2594 391 2855 752 
Q 3116 1113 3116 1747 
z
" transform="scale(0.015625)"/>
       <path id="DejaVuSans-6d" d="M 3328 2828 
Q 3544 3216 3844 3400 
Q 4144 3584 4550 3584 
Q 5097 3584 5394 3201 
Q 5691 2819 5691 2113 
L 5691 0 
L 5113 0 
L 5113 2094 
Q 5113 2597 4934 2840 
Q 4756 3084 4391 3084 
Q 3944 3084 3684 2787 
Q 3425 2491 3425 1978 
L 3425 0 
L 2847 0 
L 2847 2094 
Q 2847 2600 2669 2842 
Q 2491 3084 2119 3084 
Q 1678 3084 1418 2786 
Q 1159 2488 1159 1978 
L 1159 0 
L 581 0 
L 581 3500 
L 1159 3500 
L 1159 2956 
Q 1356 3278 1631 3431 
Q 1906 3584 2284 3584 
Q 2666 3584 2933 3390 
Q 3200 3197 3328 2828 
z
" transform="scale(0.015625)"/>
      </defs>
      <use xlink:href="#DejaVuSans-45"/>
      <use xlink:href="#DejaVuSans-78" transform="translate(63.183594 0)"/>
      <use xlink:href="#DejaVuSans-70" transform="translate(122.363281 0)"/>
      <use xlink:href="#DejaVuSans-65" transform="translate(185.839844 0)"/>
      <use xlink:href="#DejaVuSans-72" transform="translate(247.363281 0)"/>
      <use xlink:href="#DejaVuSans-69" transform="translate(288.476562 0)"/>
      <use xlink:href="#DejaVuSans-6d" transform="translate(316.259766 0)"/>
      <use xlink:href="#DejaVuSans-65" transform="translate(413.671875 0)"/>
      <use xlink:href="#DejaVuSans-6e" transform="translate(475.195312 0)"/>
      <use xlink:href="#DejaVuSans-74" transform="translate(538.574219 0)"/>
      <use xlink:href="#DejaVuSans-20" transform="translate(577.783203 0)"/>
      <use xlink:href="#DejaVuSans-35" transform="translate(609.570312 0)"/>
      <use xlink:href="#DejaVuSans-30" transform="translate(673.193359 0)"/>
      <use xlink:href="#DejaVuSans-20" transform="translate(736.816406 0)"/>
      <use xlink:href="#DejaVuSans-46" transform="translate(768.603516 0)"/>
      <use xlink:href="#DejaVuSans-6f" transform="translate(822.498047 0)"/>
      <use xlink:href="#DejaVuSans-72" transform="translate(883.679688 0)"/>
      <use xlink:href="#DejaVuSans-63" transform="translate(922.542969 0)"/>
      <use xlink:href="#DejaVuSans-65" transform="translate(977.523438 0)"/>
     </g>
    </g>
    <g id="line2d_39">
     <path d="M 81 79.616562 
L 91 79.616562 
L 101 79.616562 
" style="fill: none; stroke-dasharray: 5.55,2.4; stroke-dashoffset: 0; stroke: #1f78b4; stroke-opacity: 0.7; stroke-width: 1.5"/>
    </g>
    <g id="text_23">
     <!-- Experiment 50 Fit -->
     <g transform="translate(109 83.116562) scale(0.1 -0.1)">
      <use xlink:href="#DejaVuSans-45"/>
      <use xlink:href="#DejaVuSans-78" transform="translate(63.183594 0)"/>
      <use xlink:href="#DejaVuSans-70" transform="translate(122.363281 0)"/>
      <use xlink:href="#DejaVuSans-65" transform="translate(185.839844 0)"/>
      <use xlink:href="#DejaVuSans-72" transform="translate(247.363281 0)"/>
      <use xlink:href="#DejaVuSans-69" transform="translate(288.476562 0)"/>
      <use xlink:href="#DejaVuSans-6d" transform="translate(316.259766 0)"/>
      <use xlink:href="#DejaVuSans-65" transform="translate(413.671875 0)"/>
      <use xlink:href="#DejaVuSans-6e" transform="translate(475.195312 0)"/>
      <use xlink:href="#DejaVuSans-74" transform="translate(538.574219 0)"/>
      <use xlink:href="#DejaVuSans-20" transform="translate(577.783203 0)"/>
      <use xlink:href="#DejaVuSans-35" transform="translate(609.570312 0)"/>
      <use xlink:href="#DejaVuSans-30" transform="translate(673.193359 0)"/>
      <use xlink:href="#DejaVuSans-20" transform="translate(736.816406 0)"/>
      <use xlink:href="#DejaVuSans-46" transform="translate(768.603516 0)"/>
      <use xlink:href="#DejaVuSans-69" transform="translate(818.873047 0)"/>
      <use xlink:href="#DejaVuSans-74" transform="translate(846.65625 0)"/>
     </g>
    </g>
    <g id="line2d_40">
     <path d="M 81 94.294687 
L 91 94.294687 
L 101 94.294687 
" style="fill: none; stroke: #1f77b4; stroke-width: 2.5; stroke-linecap: square"/>
    </g>
    <g id="text_24">
     <!-- Mean Cell 11 Fit -->
     <g transform="translate(109 97.794687) scale(0.1 -0.1)">
      <use xlink:href="#DejaVuSans-4d"/>
      <use xlink:href="#DejaVuSans-65" transform="translate(86.279297 0)"/>
      <use xlink:href="#DejaVuSans-61" transform="translate(147.802734 0)"/>
      <use xlink:href="#DejaVuSans-6e" transform="translate(209.082031 0)"/>
      <use xlink:href="#DejaVuSans-20" transform="translate(272.460938 0)"/>
      <use xlink:href="#DejaVuSans-43" transform="translate(304.248047 0)"/>
      <use xlink:href="#DejaVuSans-65" transform="translate(374.072266 0)"/>
      <use xlink:href="#DejaVuSans-6c" transform="translate(435.595703 0)"/>
      <use xlink:href="#DejaVuSans-6c" transform="translate(463.378906 0)"/>
      <use xlink:href="#DejaVuSans-20" transform="translate(491.162109 0)"/>
      <use xlink:href="#DejaVuSans-31" transform="translate(522.949219 0)"/>
      <use xlink:href="#DejaVuSans-31" transform="translate(586.572266 0)"/>
      <use xlink:href="#DejaVuSans-20" transform="translate(650.195312 0)"/>
      <use xlink:href="#DejaVuSans-46" transform="translate(681.982422 0)"/>
      <use xlink:href="#DejaVuSans-69" transform="translate(732.251953 0)"/>
      <use xlink:href="#DejaVuSans-74" transform="translate(760.035156 0)"/>
     </g>
    </g>
   </g>
  </g>
  <g id="axes_2">
   <g id="patch_8">
    <path d="M 407.493168 384.48 
L 518.4 384.48 
L 518.4 51.84 
L 407.493168 51.84 
z
" style="fill: #ffffff"/>
   </g>
   <g id="PathCollection_1">
    <defs>
     <path id="mc913d1062f" d="M 0 3 
C 0.795609 3 1.55874 2.683901 2.12132 2.12132 
C 2.683901 1.55874 3 0.795609 3 0 
C 3 -0.795609 2.683901 -1.55874 2.12132 -2.12132 
C 1.55874 -2.683901 0.795609 -3 0 -3 
C -0.795609 -3 -1.55874 -2.683901 -2.12132 -2.12132 
C -2.683901 -1.55874 -3 -0.795609 -3 0 
C -3 0.795609 -2.683901 1.55874 -2.12132 2.12132 
C -1.55874 2.683901 -0.795609 3 0 3 
z
" style="stroke: #a6cee3; stroke-opacity: 0.5"/>
    </defs>
    <g clip-path="url(#p12e9b2e9e7)">
     <use xlink:href="#mc913d1062f" x="465.710685" y="360.555201" style="fill: #a6cee3; fill-opacity: 0.5; stroke: #a6cee3; stroke-opacity: 0.5"/>
    </g>
   </g>
   <g id="matplotlib.axis_3">
    <g id="xtick_10">
     <g id="line2d_41">
      <g>
       <use xlink:href="#mfd3353b9e4" x="462.946584" y="384.48" style="stroke: #000000; stroke-width: 0.8"/>
      </g>
     </g>
     <g id="text_25">
      <!-- Certianty -->
      <g transform="translate(439.821584 399.078438) scale(0.1 -0.1)">
       <use xlink:href="#DejaVuSans-43"/>
       <use xlink:href="#DejaVuSans-65" transform="translate(69.824219 0)"/>
       <use xlink:href="#DejaVuSans-72" transform="translate(131.347656 0)"/>
       <use xlink:href="#DejaVuSans-74" transform="translate(172.460938 0)"/>
       <use xlink:href="#DejaVuSans-69" transform="translate(211.669922 0)"/>
       <use xlink:href="#DejaVuSans-61" transform="translate(239.453125 0)"/>
       <use xlink:href="#DejaVuSans-6e" transform="translate(300.732422 0)"/>
       <use xlink:href="#DejaVuSans-74" transform="translate(364.111328 0)"/>
       <use xlink:href="#DejaVuSans-79" transform="translate(403.320312 0)"/>
      </g>
     </g>
    </g>
   </g>
   <g id="matplotlib.axis_4">
    <g id="ytick_9">
     <g id="line2d_42">
      <path d="M 407.493168 384.48 
L 518.4 384.48 
" clip-path="url(#p12e9b2e9e7)" style="fill: none; stroke-dasharray: 2.96,1.28; stroke-dashoffset: 0; stroke: #b0b0b0; stroke-opacity: 0.7; stroke-width: 0.8"/>
     </g>
     <g id="line2d_43">
      <g>
       <use xlink:href="#m2aa2aeabfe" x="407.493168" y="384.48" style="stroke: #000000; stroke-width: 0.8"/>
      </g>
     </g>
     <g id="text_26">
      <!-- 0 -->
      <g transform="translate(394.130668 388.279219) scale(0.1 -0.1)">
       <use xlink:href="#DejaVuSans-30"/>
      </g>
     </g>
    </g>
    <g id="ytick_10">
     <g id="line2d_44">
      <path d="M 407.493168 342.9 
L 518.4 342.9 
" clip-path="url(#p12e9b2e9e7)" style="fill: none; stroke-dasharray: 2.96,1.28; stroke-dashoffset: 0; stroke: #b0b0b0; stroke-opacity: 0.7; stroke-width: 0.8"/>
     </g>
     <g id="line2d_45">
      <g>
       <use xlink:href="#m2aa2aeabfe" x="407.493168" y="342.9" style="stroke: #000000; stroke-width: 0.8"/>
      </g>
     </g>
     <g id="text_27">
      <!-- 250 -->
      <g transform="translate(381.405668 346.699219) scale(0.1 -0.1)">
       <use xlink:href="#DejaVuSans-32"/>
       <use xlink:href="#DejaVuSans-35" transform="translate(63.623047 0)"/>
       <use xlink:href="#DejaVuSans-30" transform="translate(127.246094 0)"/>
      </g>
     </g>
    </g>
    <g id="ytick_11">
     <g id="line2d_46">
      <path d="M 407.493168 301.32 
L 518.4 301.32 
" clip-path="url(#p12e9b2e9e7)" style="fill: none; stroke-dasharray: 2.96,1.28; stroke-dashoffset: 0; stroke: #b0b0b0; stroke-opacity: 0.7; stroke-width: 0.8"/>
     </g>
     <g id="line2d_47">
      <g>
       <use xlink:href="#m2aa2aeabfe" x="407.493168" y="301.32" style="stroke: #000000; stroke-width: 0.8"/>
      </g>
     </g>
     <g id="text_28">
      <!-- 500 -->
      <g transform="translate(381.405668 305.119219) scale(0.1 -0.1)">
       <use xlink:href="#DejaVuSans-35"/>
       <use xlink:href="#DejaVuSans-30" transform="translate(63.623047 0)"/>
       <use xlink:href="#DejaVuSans-30" transform="translate(127.246094 0)"/>
      </g>
     </g>
    </g>
    <g id="ytick_12">
     <g id="line2d_48">
      <path d="M 407.493168 259.74 
L 518.4 259.74 
" clip-path="url(#p12e9b2e9e7)" style="fill: none; stroke-dasharray: 2.96,1.28; stroke-dashoffset: 0; stroke: #b0b0b0; stroke-opacity: 0.7; stroke-width: 0.8"/>
     </g>
     <g id="line2d_49">
      <g>
       <use xlink:href="#m2aa2aeabfe" x="407.493168" y="259.74" style="stroke: #000000; stroke-width: 0.8"/>
      </g>
     </g>
     <g id="text_29">
      <!-- 750 -->
      <g transform="translate(381.405668 263.539219) scale(0.1 -0.1)">
       <use xlink:href="#DejaVuSans-37"/>
       <use xlink:href="#DejaVuSans-35" transform="translate(63.623047 0)"/>
       <use xlink:href="#DejaVuSans-30" transform="translate(127.246094 0)"/>
      </g>
     </g>
    </g>
    <g id="ytick_13">
     <g id="line2d_50">
      <path d="M 407.493168 218.16 
L 518.4 218.16 
" clip-path="url(#p12e9b2e9e7)" style="fill: none; stroke-dasharray: 2.96,1.28; stroke-dashoffset: 0; stroke: #b0b0b0; stroke-opacity: 0.7; stroke-width: 0.8"/>
     </g>
     <g id="line2d_51">
      <g>
       <use xlink:href="#m2aa2aeabfe" x="407.493168" y="218.16" style="stroke: #000000; stroke-width: 0.8"/>
      </g>
     </g>
     <g id="text_30">
      <!-- 1000 -->
      <g transform="translate(375.043168 221.959219) scale(0.1 -0.1)">
       <use xlink:href="#DejaVuSans-31"/>
       <use xlink:href="#DejaVuSans-30" transform="translate(63.623047 0)"/>
       <use xlink:href="#DejaVuSans-30" transform="translate(127.246094 0)"/>
       <use xlink:href="#DejaVuSans-30" transform="translate(190.869141 0)"/>
      </g>
     </g>
    </g>
    <g id="ytick_14">
     <g id="line2d_52">
      <path d="M 407.493168 176.58 
L 518.4 176.58 
" clip-path="url(#p12e9b2e9e7)" style="fill: none; stroke-dasharray: 2.96,1.28; stroke-dashoffset: 0; stroke: #b0b0b0; stroke-opacity: 0.7; stroke-width: 0.8"/>
     </g>
     <g id="line2d_53">
      <g>
       <use xlink:href="#m2aa2aeabfe" x="407.493168" y="176.58" style="stroke: #000000; stroke-width: 0.8"/>
      </g>
     </g>
     <g id="text_31">
      <!-- 1250 -->
      <g transform="translate(375.043168 180.379219) scale(0.1 -0.1)">
       <use xlink:href="#DejaVuSans-31"/>
       <use xlink:href="#DejaVuSans-32" transform="translate(63.623047 0)"/>
       <use xlink:href="#DejaVuSans-35" transform="translate(127.246094 0)"/>
       <use xlink:href="#DejaVuSans-30" transform="translate(190.869141 0)"/>
      </g>
     </g>
    </g>
    <g id="ytick_15">
     <g id="line2d_54">
      <path d="M 407.493168 135 
L 518.4 135 
" clip-path="url(#p12e9b2e9e7)" style="fill: none; stroke-dasharray: 2.96,1.28; stroke-dashoffset: 0; stroke: #b0b0b0; stroke-opacity: 0.7; stroke-width: 0.8"/>
     </g>
     <g id="line2d_55">
      <g>
       <use xlink:href="#m2aa2aeabfe" x="407.493168" y="135" style="stroke: #000000; stroke-width: 0.8"/>
      </g>
     </g>
     <g id="text_32">
      <!-- 1500 -->
      <g transform="translate(375.043168 138.799219) scale(0.1 -0.1)">
       <use xlink:href="#DejaVuSans-31"/>
       <use xlink:href="#DejaVuSans-35" transform="translate(63.623047 0)"/>
       <use xlink:href="#DejaVuSans-30" transform="translate(127.246094 0)"/>
       <use xlink:href="#DejaVuSans-30" transform="translate(190.869141 0)"/>
      </g>
     </g>
    </g>
    <g id="ytick_16">
     <g id="line2d_56">
      <path d="M 407.493168 93.42 
L 518.4 93.42 
" clip-path="url(#p12e9b2e9e7)" style="fill: none; stroke-dasharray: 2.96,1.28; stroke-dashoffset: 0; stroke: #b0b0b0; stroke-opacity: 0.7; stroke-width: 0.8"/>
     </g>
     <g id="line2d_57">
      <g>
       <use xlink:href="#m2aa2aeabfe" x="407.493168" y="93.42" style="stroke: #000000; stroke-width: 0.8"/>
      </g>
     </g>
     <g id="text_33">
      <!-- 1750 -->
      <g transform="translate(375.043168 97.219219) scale(0.1 -0.1)">
       <use xlink:href="#DejaVuSans-31"/>
       <use xlink:href="#DejaVuSans-37" transform="translate(63.623047 0)"/>
       <use xlink:href="#DejaVuSans-35" transform="translate(127.246094 0)"/>
       <use xlink:href="#DejaVuSans-30" transform="translate(190.869141 0)"/>
      </g>
     </g>
    </g>
    <g id="ytick_17">
     <g id="line2d_58">
      <path d="M 407.493168 51.84 
L 518.4 51.84 
" clip-path="url(#p12e9b2e9e7)" style="fill: none; stroke-dasharray: 2.96,1.28; stroke-dashoffset: 0; stroke: #b0b0b0; stroke-opacity: 0.7; stroke-width: 0.8"/>
     </g>
     <g id="line2d_59">
      <g>
       <use xlink:href="#m2aa2aeabfe" x="407.493168" y="51.84" style="stroke: #000000; stroke-width: 0.8"/>
      </g>
     </g>
     <g id="text_34">
      <!-- 2000 -->
      <g transform="translate(375.043168 55.639219) scale(0.1 -0.1)">
       <use xlink:href="#DejaVuSans-32"/>
       <use xlink:href="#DejaVuSans-30" transform="translate(63.623047 0)"/>
       <use xlink:href="#DejaVuSans-30" transform="translate(127.246094 0)"/>
       <use xlink:href="#DejaVuSans-30" transform="translate(190.869141 0)"/>
      </g>
     </g>
    </g>
    <g id="text_35">
     <!-- Young's Modulus [Pa] -->
     <g transform="translate(368.96348 270.913906) rotate(-90) scale(0.1 -0.1)">
      <defs>
       <path id="DejaVuSans-59" d="M -13 4666 
L 666 4666 
L 1959 2747 
L 3244 4666 
L 3922 4666 
L 2272 2222 
L 2272 0 
L 1638 0 
L 1638 2222 
L -13 4666 
z
" transform="scale(0.015625)"/>
       <path id="DejaVuSans-67" d="M 2906 1791 
Q 2906 2416 2648 2759 
Q 2391 3103 1925 3103 
Q 1463 3103 1205 2759 
Q 947 2416 947 1791 
Q 947 1169 1205 825 
Q 1463 481 1925 481 
Q 2391 481 2648 825 
Q 2906 1169 2906 1791 
z
M 3481 434 
Q 3481 -459 3084 -895 
Q 2688 -1331 1869 -1331 
Q 1566 -1331 1297 -1286 
Q 1028 -1241 775 -1147 
L 775 -588 
Q 1028 -725 1275 -790 
Q 1522 -856 1778 -856 
Q 2344 -856 2625 -561 
Q 2906 -266 2906 331 
L 2906 616 
Q 2728 306 2450 153 
Q 2172 0 1784 0 
Q 1141 0 747 490 
Q 353 981 353 1791 
Q 353 2603 747 3093 
Q 1141 3584 1784 3584 
Q 2172 3584 2450 3431 
Q 2728 3278 2906 2969 
L 2906 3500 
L 3481 3500 
L 3481 434 
z
" transform="scale(0.015625)"/>
       <path id="DejaVuSans-27" d="M 1147 4666 
L 1147 2931 
L 616 2931 
L 616 4666 
L 1147 4666 
z
" transform="scale(0.015625)"/>
       <path id="DejaVuSans-73" d="M 2834 3397 
L 2834 2853 
Q 2591 2978 2328 3040 
Q 2066 3103 1784 3103 
Q 1356 3103 1142 2972 
Q 928 2841 928 2578 
Q 928 2378 1081 2264 
Q 1234 2150 1697 2047 
L 1894 2003 
Q 2506 1872 2764 1633 
Q 3022 1394 3022 966 
Q 3022 478 2636 193 
Q 2250 -91 1575 -91 
Q 1294 -91 989 -36 
Q 684 19 347 128 
L 347 722 
Q 666 556 975 473 
Q 1284 391 1588 391 
Q 1994 391 2212 530 
Q 2431 669 2431 922 
Q 2431 1156 2273 1281 
Q 2116 1406 1581 1522 
L 1381 1569 
Q 847 1681 609 1914 
Q 372 2147 372 2553 
Q 372 3047 722 3315 
Q 1072 3584 1716 3584 
Q 2034 3584 2315 3537 
Q 2597 3491 2834 3397 
z
" transform="scale(0.015625)"/>
       <path id="DejaVuSans-50" d="M 1259 4147 
L 1259 2394 
L 2053 2394 
Q 2494 2394 2734 2622 
Q 2975 2850 2975 3272 
Q 2975 3691 2734 3919 
Q 2494 4147 2053 4147 
L 1259 4147 
z
M 628 4666 
L 2053 4666 
Q 2838 4666 3239 4311 
Q 3641 3956 3641 3272 
Q 3641 2581 3239 2228 
Q 2838 1875 2053 1875 
L 1259 1875 
L 1259 0 
L 628 0 
L 628 4666 
z
" transform="scale(0.015625)"/>
      </defs>
      <use xlink:href="#DejaVuSans-59"/>
      <use xlink:href="#DejaVuSans-6f" transform="translate(47.833984 0)"/>
      <use xlink:href="#DejaVuSans-75" transform="translate(109.015625 0)"/>
      <use xlink:href="#DejaVuSans-6e" transform="translate(172.394531 0)"/>
      <use xlink:href="#DejaVuSans-67" transform="translate(235.773438 0)"/>
      <use xlink:href="#DejaVuSans-27" transform="translate(299.25 0)"/>
      <use xlink:href="#DejaVuSans-73" transform="translate(326.740234 0)"/>
      <use xlink:href="#DejaVuSans-20" transform="translate(378.839844 0)"/>
      <use xlink:href="#DejaVuSans-4d" transform="translate(410.626953 0)"/>
      <use xlink:href="#DejaVuSans-6f" transform="translate(496.90625 0)"/>
      <use xlink:href="#DejaVuSans-64" transform="translate(558.087891 0)"/>
      <use xlink:href="#DejaVuSans-75" transform="translate(621.564453 0)"/>
      <use xlink:href="#DejaVuSans-6c" transform="translate(684.943359 0)"/>
      <use xlink:href="#DejaVuSans-75" transform="translate(712.726562 0)"/>
      <use xlink:href="#DejaVuSans-73" transform="translate(776.105469 0)"/>
      <use xlink:href="#DejaVuSans-20" transform="translate(828.205078 0)"/>
      <use xlink:href="#DejaVuSans-5b" transform="translate(859.992188 0)"/>
      <use xlink:href="#DejaVuSans-50" transform="translate(899.005859 0)"/>
      <use xlink:href="#DejaVuSans-61" transform="translate(954.808594 0)"/>
      <use xlink:href="#DejaVuSans-5d" transform="translate(1016.087891 0)"/>
     </g>
    </g>
   </g>
   <g id="patch_9">
    <path d="M 435.219876 360.555201 
L 490.673292 360.555201 
L 490.673292 360.555201 
L 476.809938 360.555201 
L 490.673292 360.555201 
L 490.673292 360.555201 
L 435.219876 360.555201 
L 435.219876 360.555201 
L 449.08323 360.555201 
L 435.219876 360.555201 
L 435.219876 360.555201 
z
" clip-path="url(#p12e9b2e9e7)" style="fill: #0000ff; opacity: 0.3; stroke: #0000ff; stroke-linejoin: miter"/>
   </g>
   <g id="line2d_60">
    <path d="M 462.946584 360.555201 
L 462.946584 360.555201 
" clip-path="url(#p12e9b2e9e7)" style="fill: none; stroke: #000000; stroke-opacity: 0; stroke-linecap: square"/>
   </g>
   <g id="line2d_61">
    <path d="M 462.946584 360.555201 
L 462.946584 360.555201 
" clip-path="url(#p12e9b2e9e7)" style="fill: none; stroke: #000000; stroke-opacity: 0; stroke-linecap: square"/>
   </g>
   <g id="line2d_62">
    <path d="M 449.08323 360.555201 
L 476.809938 360.555201 
" clip-path="url(#p12e9b2e9e7)" style="fill: none; stroke: #000000; stroke-opacity: 0; stroke-linecap: square"/>
   </g>
   <g id="line2d_63">
    <path d="M 449.08323 360.555201 
L 476.809938 360.555201 
" clip-path="url(#p12e9b2e9e7)" style="fill: none; stroke: #000000; stroke-opacity: 0; stroke-linecap: square"/>
   </g>
   <g id="line2d_64"/>
   <g id="patch_10">
    <path d="M 421.356522 360.555201 
L 504.536646 360.555201 
L 504.536646 360.555201 
L 483.741615 360.555201 
L 504.536646 360.555201 
L 504.536646 360.555201 
L 421.356522 360.555201 
L 421.356522 360.555201 
L 442.151553 360.555201 
L 421.356522 360.555201 
L 421.356522 360.555201 
z
" clip-path="url(#p12e9b2e9e7)" style="fill: #0000ff; opacity: 0.1; stroke: #0000ff; stroke-linejoin: miter"/>
   </g>
   <g id="line2d_65">
    <path d="M 462.946584 360.555201 
L 462.946584 360.555201 
" clip-path="url(#p12e9b2e9e7)" style="fill: none; stroke: #000000; stroke-linecap: square"/>
   </g>
   <g id="line2d_66">
    <path d="M 462.946584 360.555201 
L 462.946584 360.555201 
" clip-path="url(#p12e9b2e9e7)" style="fill: none; stroke: #000000; stroke-linecap: square"/>
   </g>
   <g id="line2d_67">
    <path d="M 442.151553 360.555201 
L 483.741615 360.555201 
" clip-path="url(#p12e9b2e9e7)" style="fill: none; stroke: #000000; stroke-linecap: square"/>
   </g>
   <g id="line2d_68">
    <path d="M 442.151553 360.555201 
L 483.741615 360.555201 
" clip-path="url(#p12e9b2e9e7)" style="fill: none; stroke: #000000; stroke-linecap: square"/>
   </g>
   <g id="line2d_69"/>
   <g id="LineCollection_1">
    <path d="M 435.219876 360.555201 
L 490.673292 360.555201 
" clip-path="url(#p12e9b2e9e7)" style="fill: none; stroke: #0000ff; stroke-width: 3"/>
   </g>
   <g id="LineCollection_2">
    <path clip-path="url(#p12e9b2e9e7)" style="fill: none; stroke: #00008b; stroke-width: 2"/>
    <path clip-path="url(#p12e9b2e9e7)" style="fill: none; stroke: #00008b; stroke-width: 2"/>
   </g>
   <g id="LineCollection_3">
    <path clip-path="url(#p12e9b2e9e7)" style="fill: none; stroke: #00008b; stroke-width: 2"/>
   </g>
   <g id="line2d_70">
    <path d="M 449.08323 360.555201 
L 476.809938 360.555201 
" clip-path="url(#p12e9b2e9e7)" style="fill: none; stroke: #ff7f0e; stroke-opacity: 0"/>
   </g>
   <g id="line2d_71">
    <path d="M 442.151553 360.555201 
L 483.741615 360.555201 
" clip-path="url(#p12e9b2e9e7)" style="fill: none; stroke: #000000"/>
   </g>
   <g id="patch_11">
    <path d="M 407.493168 384.48 
L 407.493168 51.84 
" style="fill: none; stroke: #000000; stroke-width: 0.8; stroke-linejoin: miter; stroke-linecap: square"/>
   </g>
   <g id="patch_12">
    <path d="M 518.4 384.48 
L 518.4 51.84 
" style="fill: none; stroke: #000000; stroke-width: 0.8; stroke-linejoin: miter; stroke-linecap: square"/>
   </g>
   <g id="patch_13">
    <path d="M 407.493168 384.48 
L 518.4 384.48 
" style="fill: none; stroke: #000000; stroke-width: 0.8; stroke-linejoin: miter; stroke-linecap: square"/>
   </g>
   <g id="patch_14">
    <path d="M 407.493168 51.84 
L 518.4 51.84 
" style="fill: none; stroke: #000000; stroke-width: 0.8; stroke-linejoin: miter; stroke-linecap: square"/>
   </g>
   <g id="text_36">
    <!-- Young's Modulus  -->
    <g transform="translate(411.348459 32.402625) scale(0.12 -0.12)">
     <use xlink:href="#DejaVuSans-59"/>
     <use xlink:href="#DejaVuSans-6f" transform="translate(47.833984 0)"/>
     <use xlink:href="#DejaVuSans-75" transform="translate(109.015625 0)"/>
     <use xlink:href="#DejaVuSans-6e" transform="translate(172.394531 0)"/>
     <use xlink:href="#DejaVuSans-67" transform="translate(235.773438 0)"/>
     <use xlink:href="#DejaVuSans-27" transform="translate(299.25 0)"/>
     <use xlink:href="#DejaVuSans-73" transform="translate(326.740234 0)"/>
     <use xlink:href="#DejaVuSans-20" transform="translate(378.839844 0)"/>
     <use xlink:href="#DejaVuSans-4d" transform="translate(410.626953 0)"/>
     <use xlink:href="#DejaVuSans-6f" transform="translate(496.90625 0)"/>
     <use xlink:href="#DejaVuSans-64" transform="translate(558.087891 0)"/>
     <use xlink:href="#DejaVuSans-75" transform="translate(621.564453 0)"/>
     <use xlink:href="#DejaVuSans-6c" transform="translate(684.943359 0)"/>
     <use xlink:href="#DejaVuSans-75" transform="translate(712.726562 0)"/>
     <use xlink:href="#DejaVuSans-73" transform="translate(776.105469 0)"/>
     <use xlink:href="#DejaVuSans-20" transform="translate(828.205078 0)"/>
    </g>
    <!-- Confidence -->
    <g transform="translate(429.209709 45.84) scale(0.12 -0.12)">
     <defs>
      <path id="DejaVuSans-66" d="M 2375 4863 
L 2375 4384 
L 1825 4384 
Q 1516 4384 1395 4259 
Q 1275 4134 1275 3809 
L 1275 3500 
L 2222 3500 
L 2222 3053 
L 1275 3053 
L 1275 0 
L 697 0 
L 697 3053 
L 147 3053 
L 147 3500 
L 697 3500 
L 697 3744 
Q 697 4328 969 4595 
Q 1241 4863 1831 4863 
L 2375 4863 
z
" transform="scale(0.015625)"/>
     </defs>
     <use xlink:href="#DejaVuSans-43"/>
     <use xlink:href="#DejaVuSans-6f" transform="translate(69.824219 0)"/>
     <use xlink:href="#DejaVuSans-6e" transform="translate(131.005859 0)"/>
     <use xlink:href="#DejaVuSans-66" transform="translate(194.384766 0)"/>
     <use xlink:href="#DejaVuSans-69" transform="translate(229.589844 0)"/>
     <use xlink:href="#DejaVuSans-64" transform="translate(257.373047 0)"/>
     <use xlink:href="#DejaVuSans-65" transform="translate(320.849609 0)"/>
     <use xlink:href="#DejaVuSans-6e" transform="translate(382.373047 0)"/>
     <use xlink:href="#DejaVuSans-63" transform="translate(445.751953 0)"/>
     <use xlink:href="#DejaVuSans-65" transform="translate(500.732422 0)"/>
    </g>
   </g>
   <g id="legend_2">
    <g id="patch_15">
     <path d="M 408.635938 178.021875 
L 511.4 178.021875 
Q 513.4 178.021875 513.4 176.021875 
L 513.4 58.84 
Q 513.4 56.84 511.4 56.84 
L 408.635938 56.84 
Q 406.635938 56.84 406.635938 58.84 
L 406.635938 176.021875 
Q 406.635938 178.021875 408.635938 178.021875 
z
" style="fill: #ffffff; opacity: 0.8; stroke: #cccccc; stroke-linejoin: miter"/>
    </g>
    <g id="line2d_72">
     <path d="M 410.635938 64.938437 
L 420.635938 64.938437 
L 430.635938 64.938437 
" style="fill: none; stroke: #0000ff; stroke-width: 3; stroke-linecap: square"/>
    </g>
    <g id="text_37">
     <!-- Mean -->
     <g transform="translate(438.635938 68.438437) scale(0.1 -0.1)">
      <use xlink:href="#DejaVuSans-4d"/>
      <use xlink:href="#DejaVuSans-65" transform="translate(86.279297 0)"/>
      <use xlink:href="#DejaVuSans-61" transform="translate(147.802734 0)"/>
      <use xlink:href="#DejaVuSans-6e" transform="translate(209.082031 0)"/>
     </g>
    </g>
    <g id="line2d_73">
     <path d="M 410.635938 91.854219 
L 420.635938 91.854219 
L 430.635938 91.854219 
" style="fill: none; stroke: #00008b; stroke-width: 2; stroke-linecap: square"/>
    </g>
    <g id="text_38">
     <!-- Mean 95%  -->
     <g transform="translate(438.635938 83.116562) scale(0.1 -0.1)">
      <defs>
       <path id="DejaVuSans-25" d="M 4653 2053 
Q 4381 2053 4226 1822 
Q 4072 1591 4072 1178 
Q 4072 772 4226 539 
Q 4381 306 4653 306 
Q 4919 306 5073 539 
Q 5228 772 5228 1178 
Q 5228 1588 5073 1820 
Q 4919 2053 4653 2053 
z
M 4653 2450 
Q 5147 2450 5437 2106 
Q 5728 1763 5728 1178 
Q 5728 594 5436 251 
Q 5144 -91 4653 -91 
Q 4153 -91 3862 251 
Q 3572 594 3572 1178 
Q 3572 1766 3864 2108 
Q 4156 2450 4653 2450 
z
M 1428 4353 
Q 1159 4353 1004 4120 
Q 850 3888 850 3481 
Q 850 3069 1003 2837 
Q 1156 2606 1428 2606 
Q 1700 2606 1854 2837 
Q 2009 3069 2009 3481 
Q 2009 3884 1853 4118 
Q 1697 4353 1428 4353 
z
M 4250 4750 
L 4750 4750 
L 1831 -91 
L 1331 -91 
L 4250 4750 
z
M 1428 4750 
Q 1922 4750 2215 4408 
Q 2509 4066 2509 3481 
Q 2509 2891 2217 2550 
Q 1925 2209 1428 2209 
Q 931 2209 642 2551 
Q 353 2894 353 3481 
Q 353 4063 643 4406 
Q 934 4750 1428 4750 
z
" transform="scale(0.015625)"/>
      </defs>
      <use xlink:href="#DejaVuSans-4d"/>
      <use xlink:href="#DejaVuSans-65" transform="translate(86.279297 0)"/>
      <use xlink:href="#DejaVuSans-61" transform="translate(147.802734 0)"/>
      <use xlink:href="#DejaVuSans-6e" transform="translate(209.082031 0)"/>
      <use xlink:href="#DejaVuSans-20" transform="translate(272.460938 0)"/>
      <use xlink:href="#DejaVuSans-39" transform="translate(304.248047 0)"/>
      <use xlink:href="#DejaVuSans-35" transform="translate(367.871094 0)"/>
      <use xlink:href="#DejaVuSans-25" transform="translate(431.494141 0)"/>
      <use xlink:href="#DejaVuSans-20" transform="translate(526.513672 0)"/>
     </g>
     <!-- Confidence  -->
     <g transform="translate(438.635938 94.314375) scale(0.1 -0.1)">
      <use xlink:href="#DejaVuSans-43"/>
      <use xlink:href="#DejaVuSans-6f" transform="translate(69.824219 0)"/>
      <use xlink:href="#DejaVuSans-6e" transform="translate(131.005859 0)"/>
      <use xlink:href="#DejaVuSans-66" transform="translate(194.384766 0)"/>
      <use xlink:href="#DejaVuSans-69" transform="translate(229.589844 0)"/>
      <use xlink:href="#DejaVuSans-64" transform="translate(257.373047 0)"/>
      <use xlink:href="#DejaVuSans-65" transform="translate(320.849609 0)"/>
      <use xlink:href="#DejaVuSans-6e" transform="translate(382.373047 0)"/>
      <use xlink:href="#DejaVuSans-63" transform="translate(445.751953 0)"/>
      <use xlink:href="#DejaVuSans-65" transform="translate(500.732422 0)"/>
      <use xlink:href="#DejaVuSans-20" transform="translate(562.255859 0)"/>
     </g>
     <!-- Interval -->
     <g transform="translate(438.635938 105.512187) scale(0.1 -0.1)">
      <defs>
       <path id="DejaVuSans-49" d="M 628 4666 
L 1259 4666 
L 1259 0 
L 628 0 
L 628 4666 
z
" transform="scale(0.015625)"/>
       <path id="DejaVuSans-76" d="M 191 3500 
L 800 3500 
L 1894 563 
L 2988 3500 
L 3597 3500 
L 2284 0 
L 1503 0 
L 191 3500 
z
" transform="scale(0.015625)"/>
      </defs>
      <use xlink:href="#DejaVuSans-49"/>
      <use xlink:href="#DejaVuSans-6e" transform="translate(29.492188 0)"/>
      <use xlink:href="#DejaVuSans-74" transform="translate(92.871094 0)"/>
      <use xlink:href="#DejaVuSans-65" transform="translate(132.080078 0)"/>
      <use xlink:href="#DejaVuSans-72" transform="translate(193.603516 0)"/>
      <use xlink:href="#DejaVuSans-76" transform="translate(234.716797 0)"/>
      <use xlink:href="#DejaVuSans-61" transform="translate(293.896484 0)"/>
      <use xlink:href="#DejaVuSans-6c" transform="translate(355.175781 0)"/>
     </g>
    </g>
    <g id="line2d_74">
     <path d="M 410.635938 116.690312 
L 420.635938 116.690312 
L 430.635938 116.690312 
" style="fill: none; stroke: #000000; stroke-linecap: square"/>
    </g>
    <g id="text_39">
     <!-- Median -->
     <g transform="translate(438.635938 120.190312) scale(0.1 -0.1)">
      <use xlink:href="#DejaVuSans-4d"/>
      <use xlink:href="#DejaVuSans-65" transform="translate(86.279297 0)"/>
      <use xlink:href="#DejaVuSans-64" transform="translate(147.802734 0)"/>
      <use xlink:href="#DejaVuSans-69" transform="translate(211.279297 0)"/>
      <use xlink:href="#DejaVuSans-61" transform="translate(239.0625 0)"/>
      <use xlink:href="#DejaVuSans-6e" transform="translate(300.341797 0)"/>
     </g>
    </g>
    <g id="patch_16">
     <path d="M 410.635938 141.507187 
L 430.635938 141.507187 
L 430.635938 134.507187 
L 410.635938 134.507187 
z
" style="fill: #0000ff; opacity: 0.3; stroke: #0000ff; stroke-linejoin: miter"/>
    </g>
    <g id="text_40">
     <!-- Notched  -->
     <g transform="translate(438.635938 134.868437) scale(0.1 -0.1)">
      <defs>
       <path id="DejaVuSans-68" d="M 3513 2113 
L 3513 0 
L 2938 0 
L 2938 2094 
Q 2938 2591 2744 2837 
Q 2550 3084 2163 3084 
Q 1697 3084 1428 2787 
Q 1159 2491 1159 1978 
L 1159 0 
L 581 0 
L 581 4863 
L 1159 4863 
L 1159 2956 
Q 1366 3272 1645 3428 
Q 1925 3584 2291 3584 
Q 2894 3584 3203 3211 
Q 3513 2838 3513 2113 
z
" transform="scale(0.015625)"/>
      </defs>
      <use xlink:href="#DejaVuSans-4e"/>
      <use xlink:href="#DejaVuSans-6f" transform="translate(74.804688 0)"/>
      <use xlink:href="#DejaVuSans-74" transform="translate(135.986328 0)"/>
      <use xlink:href="#DejaVuSans-63" transform="translate(175.195312 0)"/>
      <use xlink:href="#DejaVuSans-68" transform="translate(230.175781 0)"/>
      <use xlink:href="#DejaVuSans-65" transform="translate(293.554688 0)"/>
      <use xlink:href="#DejaVuSans-64" transform="translate(355.078125 0)"/>
      <use xlink:href="#DejaVuSans-20" transform="translate(418.554688 0)"/>
     </g>
     <!-- Box Plot -->
     <g transform="translate(438.635938 146.06625) scale(0.1 -0.1)">
      <defs>
       <path id="DejaVuSans-42" d="M 1259 2228 
L 1259 519 
L 2272 519 
Q 2781 519 3026 730 
Q 3272 941 3272 1375 
Q 3272 1813 3026 2020 
Q 2781 2228 2272 2228 
L 1259 2228 
z
M 1259 4147 
L 1259 2741 
L 2194 2741 
Q 2656 2741 2882 2914 
Q 3109 3088 3109 3444 
Q 3109 3797 2882 3972 
Q 2656 4147 2194 4147 
L 1259 4147 
z
M 628 4666 
L 2241 4666 
Q 2963 4666 3353 4366 
Q 3744 4066 3744 3513 
Q 3744 3084 3544 2831 
Q 3344 2578 2956 2516 
Q 3422 2416 3680 2098 
Q 3938 1781 3938 1306 
Q 3938 681 3513 340 
Q 3088 0 2303 0 
L 628 0 
L 628 4666 
z
" transform="scale(0.015625)"/>
      </defs>
      <use xlink:href="#DejaVuSans-42"/>
      <use xlink:href="#DejaVuSans-6f" transform="translate(68.603516 0)"/>
      <use xlink:href="#DejaVuSans-78" transform="translate(126.660156 0)"/>
      <use xlink:href="#DejaVuSans-20" transform="translate(185.839844 0)"/>
      <use xlink:href="#DejaVuSans-50" transform="translate(217.626953 0)"/>
      <use xlink:href="#DejaVuSans-6c" transform="translate(277.929688 0)"/>
      <use xlink:href="#DejaVuSans-6f" transform="translate(305.712891 0)"/>
      <use xlink:href="#DejaVuSans-74" transform="translate(366.894531 0)"/>
     </g>
    </g>
    <g id="patch_17">
     <path d="M 410.635938 167.383125 
L 430.635938 167.383125 
L 430.635938 160.383125 
L 410.635938 160.383125 
z
" style="fill: #0000ff; opacity: 0.1; stroke: #0000ff; stroke-linejoin: miter"/>
    </g>
    <g id="text_41">
     <!-- Bootstrapped  -->
     <g transform="translate(438.635938 160.744375) scale(0.1 -0.1)">
      <use xlink:href="#DejaVuSans-42"/>
      <use xlink:href="#DejaVuSans-6f" transform="translate(68.603516 0)"/>
      <use xlink:href="#DejaVuSans-6f" transform="translate(129.785156 0)"/>
      <use xlink:href="#DejaVuSans-74" transform="translate(190.966797 0)"/>
      <use xlink:href="#DejaVuSans-73" transform="translate(230.175781 0)"/>
      <use xlink:href="#DejaVuSans-74" transform="translate(282.275391 0)"/>
      <use xlink:href="#DejaVuSans-72" transform="translate(321.484375 0)"/>
      <use xlink:href="#DejaVuSans-61" transform="translate(362.597656 0)"/>
      <use xlink:href="#DejaVuSans-70" transform="translate(423.876953 0)"/>
      <use xlink:href="#DejaVuSans-70" transform="translate(487.353516 0)"/>
      <use xlink:href="#DejaVuSans-65" transform="translate(550.830078 0)"/>
      <use xlink:href="#DejaVuSans-64" transform="translate(612.353516 0)"/>
      <use xlink:href="#DejaVuSans-20" transform="translate(675.830078 0)"/>
     </g>
     <!-- Box Plot -->
     <g transform="translate(438.635938 171.942187) scale(0.1 -0.1)">
      <use xlink:href="#DejaVuSans-42"/>
      <use xlink:href="#DejaVuSans-6f" transform="translate(68.603516 0)"/>
      <use xlink:href="#DejaVuSans-78" transform="translate(126.660156 0)"/>
      <use xlink:href="#DejaVuSans-20" transform="translate(185.839844 0)"/>
      <use xlink:href="#DejaVuSans-50" transform="translate(217.626953 0)"/>
      <use xlink:href="#DejaVuSans-6c" transform="translate(277.929688 0)"/>
      <use xlink:href="#DejaVuSans-6f" transform="translate(305.712891 0)"/>
      <use xlink:href="#DejaVuSans-74" transform="translate(366.894531 0)"/>
     </g>
    </g>
   </g>
  </g>
 </g>
 <defs>
  <clipPath id="p6ef0447fe8">
   <rect x="72" y="51.84" width="277.267081" height="332.64"/>
  </clipPath>
  <clipPath id="p12e9b2e9e7">
   <rect x="407.493168" y="51.84" width="110.906832" height="332.64"/>
  </clipPath>
 </defs>
</svg>
