<?xml version="1.0" encoding="utf-8" standalone="no"?>
<!DOCTYPE svg PUBLIC "-//W3C//DTD SVG 1.1//EN"
  "http://www.w3.org/Graphics/SVG/1.1/DTD/svg11.dtd">
<svg xmlns:xlink="http://www.w3.org/1999/xlink" width="576pt" height="360pt" viewBox="0 0 576 360" xmlns="http://www.w3.org/2000/svg" version="1.1">
 <metadata>
  <rdf:RDF xmlns:dc="http://purl.org/dc/elements/1.1/" xmlns:cc="http://creativecommons.org/ns#" xmlns:rdf="http://www.w3.org/1999/02/22-rdf-syntax-ns#">
   <cc:Work>
    <dc:type rdf:resource="http://purl.org/dc/dcmitype/StillImage"/>
    <dc:date>2025-05-03T06:17:36.288968</dc:date>
    <dc:format>image/svg+xml</dc:format>
    <dc:creator>
     <cc:Agent>
      <dc:title>Matplotlib v3.10.0, https://matplotlib.org/</dc:title>
     </cc:Agent>
    </dc:creator>
   </cc:Work>
  </rdf:RDF>
 </metadata>
 <defs>
  <style type="text/css">*{stroke-linejoin: round; stroke-linecap: butt}</style>
 </defs>
 <g id="figure_1">
  <g id="patch_1">
   <path d="M 0 360 
L 576 360 
L 576 0 
L 0 0 
z
" style="fill: #ffffff"/>
  </g>
  <g id="axes_1">
   <g id="patch_2">
    <path d="M 72 320.4 
L 349.267081 320.4 
L 349.267081 43.2 
L 72 43.2 
z
" style="fill: #ffffff"/>
   </g>
   <g id="matplotlib.axis_1">
    <g id="xtick_1">
     <g id="line2d_1">
      <path d="M 85.106239 320.4 
L 85.106239 43.2 
" clip-path="url(#p67c9d8937d)" style="fill: none; stroke: #b0b0b0; stroke-width: 0.8; stroke-linecap: square"/>
     </g>
     <g id="line2d_2">
      <defs>
       <path id="m48a4deda54" d="M 0 0 
L 0 3.5 
" style="stroke: #000000; stroke-width: 0.8"/>
      </defs>
      <g>
       <use xlink:href="#m48a4deda54" x="85.106239" y="320.4" style="stroke: #000000; stroke-width: 0.8"/>
      </g>
     </g>
     <g id="text_1">
      <!-- 0.00 -->
      <g transform="translate(73.973427 334.998438) scale(0.1 -0.1)">
       <defs>
        <path id="DejaVuSans-30" d="M 2034 4250 
Q 1547 4250 1301 3770 
Q 1056 3291 1056 2328 
Q 1056 1369 1301 889 
Q 1547 409 2034 409 
Q 2525 409 2770 889 
Q 3016 1369 3016 2328 
Q 3016 3291 2770 3770 
Q 2525 4250 2034 4250 
z
M 2034 4750 
Q 2819 4750 3233 4129 
Q 3647 3509 3647 2328 
Q 3647 1150 3233 529 
Q 2819 -91 2034 -91 
Q 1250 -91 836 529 
Q 422 1150 422 2328 
Q 422 3509 836 4129 
Q 1250 4750 2034 4750 
z
" transform="scale(0.015625)"/>
        <path id="DejaVuSans-2e" d="M 684 794 
L 1344 794 
L 1344 0 
L 684 0 
L 684 794 
z
" transform="scale(0.015625)"/>
       </defs>
       <use xlink:href="#DejaVuSans-30"/>
       <use xlink:href="#DejaVuSans-2e" transform="translate(63.623047 0)"/>
       <use xlink:href="#DejaVuSans-30" transform="translate(95.410156 0)"/>
       <use xlink:href="#DejaVuSans-30" transform="translate(159.033203 0)"/>
      </g>
     </g>
    </g>
    <g id="xtick_2">
     <g id="line2d_3">
      <path d="M 117.871838 320.4 
L 117.871838 43.2 
" clip-path="url(#p67c9d8937d)" style="fill: none; stroke: #b0b0b0; stroke-width: 0.8; stroke-linecap: square"/>
     </g>
     <g id="line2d_4">
      <g>
       <use xlink:href="#m48a4deda54" x="117.871838" y="320.4" style="stroke: #000000; stroke-width: 0.8"/>
      </g>
     </g>
     <g id="text_2">
      <!-- 0.25 -->
      <g transform="translate(106.739025 334.998438) scale(0.1 -0.1)">
       <defs>
        <path id="DejaVuSans-32" d="M 1228 531 
L 3431 531 
L 3431 0 
L 469 0 
L 469 531 
Q 828 903 1448 1529 
Q 2069 2156 2228 2338 
Q 2531 2678 2651 2914 
Q 2772 3150 2772 3378 
Q 2772 3750 2511 3984 
Q 2250 4219 1831 4219 
Q 1534 4219 1204 4116 
Q 875 4013 500 3803 
L 500 4441 
Q 881 4594 1212 4672 
Q 1544 4750 1819 4750 
Q 2544 4750 2975 4387 
Q 3406 4025 3406 3419 
Q 3406 3131 3298 2873 
Q 3191 2616 2906 2266 
Q 2828 2175 2409 1742 
Q 1991 1309 1228 531 
z
" transform="scale(0.015625)"/>
        <path id="DejaVuSans-35" d="M 691 4666 
L 3169 4666 
L 3169 4134 
L 1269 4134 
L 1269 2991 
Q 1406 3038 1543 3061 
Q 1681 3084 1819 3084 
Q 2600 3084 3056 2656 
Q 3513 2228 3513 1497 
Q 3513 744 3044 326 
Q 2575 -91 1722 -91 
Q 1428 -91 1123 -41 
Q 819 9 494 109 
L 494 744 
Q 775 591 1075 516 
Q 1375 441 1709 441 
Q 2250 441 2565 725 
Q 2881 1009 2881 1497 
Q 2881 1984 2565 2268 
Q 2250 2553 1709 2553 
Q 1456 2553 1204 2497 
Q 953 2441 691 2322 
L 691 4666 
z
" transform="scale(0.015625)"/>
       </defs>
       <use xlink:href="#DejaVuSans-30"/>
       <use xlink:href="#DejaVuSans-2e" transform="translate(63.623047 0)"/>
       <use xlink:href="#DejaVuSans-32" transform="translate(95.410156 0)"/>
       <use xlink:href="#DejaVuSans-35" transform="translate(159.033203 0)"/>
      </g>
     </g>
    </g>
    <g id="xtick_3">
     <g id="line2d_5">
      <path d="M 150.637436 320.4 
L 150.637436 43.2 
" clip-path="url(#p67c9d8937d)" style="fill: none; stroke: #b0b0b0; stroke-width: 0.8; stroke-linecap: square"/>
     </g>
     <g id="line2d_6">
      <g>
       <use xlink:href="#m48a4deda54" x="150.637436" y="320.4" style="stroke: #000000; stroke-width: 0.8"/>
      </g>
     </g>
     <g id="text_3">
      <!-- 0.50 -->
      <g transform="translate(139.504624 334.998438) scale(0.1 -0.1)">
       <use xlink:href="#DejaVuSans-30"/>
       <use xlink:href="#DejaVuSans-2e" transform="translate(63.623047 0)"/>
       <use xlink:href="#DejaVuSans-35" transform="translate(95.410156 0)"/>
       <use xlink:href="#DejaVuSans-30" transform="translate(159.033203 0)"/>
      </g>
     </g>
    </g>
    <g id="xtick_4">
     <g id="line2d_7">
      <path d="M 183.403035 320.4 
L 183.403035 43.2 
" clip-path="url(#p67c9d8937d)" style="fill: none; stroke: #b0b0b0; stroke-width: 0.8; stroke-linecap: square"/>
     </g>
     <g id="line2d_8">
      <g>
       <use xlink:href="#m48a4deda54" x="183.403035" y="320.4" style="stroke: #000000; stroke-width: 0.8"/>
      </g>
     </g>
     <g id="text_4">
      <!-- 0.75 -->
      <g transform="translate(172.270222 334.998438) scale(0.1 -0.1)">
       <defs>
        <path id="DejaVuSans-37" d="M 525 4666 
L 3525 4666 
L 3525 4397 
L 1831 0 
L 1172 0 
L 2766 4134 
L 525 4134 
L 525 4666 
z
" transform="scale(0.015625)"/>
       </defs>
       <use xlink:href="#DejaVuSans-30"/>
       <use xlink:href="#DejaVuSans-2e" transform="translate(63.623047 0)"/>
       <use xlink:href="#DejaVuSans-37" transform="translate(95.410156 0)"/>
       <use xlink:href="#DejaVuSans-35" transform="translate(159.033203 0)"/>
      </g>
     </g>
    </g>
    <g id="xtick_5">
     <g id="line2d_9">
      <path d="M 216.168633 320.4 
L 216.168633 43.2 
" clip-path="url(#p67c9d8937d)" style="fill: none; stroke: #b0b0b0; stroke-width: 0.8; stroke-linecap: square"/>
     </g>
     <g id="line2d_10">
      <g>
       <use xlink:href="#m48a4deda54" x="216.168633" y="320.4" style="stroke: #000000; stroke-width: 0.8"/>
      </g>
     </g>
     <g id="text_5">
      <!-- 1.00 -->
      <g transform="translate(205.03582 334.998438) scale(0.1 -0.1)">
       <defs>
        <path id="DejaVuSans-31" d="M 794 531 
L 1825 531 
L 1825 4091 
L 703 3866 
L 703 4441 
L 1819 4666 
L 2450 4666 
L 2450 531 
L 3481 531 
L 3481 0 
L 794 0 
L 794 531 
z
" transform="scale(0.015625)"/>
       </defs>
       <use xlink:href="#DejaVuSans-31"/>
       <use xlink:href="#DejaVuSans-2e" transform="translate(63.623047 0)"/>
       <use xlink:href="#DejaVuSans-30" transform="translate(95.410156 0)"/>
       <use xlink:href="#DejaVuSans-30" transform="translate(159.033203 0)"/>
      </g>
     </g>
    </g>
    <g id="xtick_6">
     <g id="line2d_11">
      <path d="M 248.934231 320.4 
L 248.934231 43.2 
" clip-path="url(#p67c9d8937d)" style="fill: none; stroke: #b0b0b0; stroke-width: 0.8; stroke-linecap: square"/>
     </g>
     <g id="line2d_12">
      <g>
       <use xlink:href="#m48a4deda54" x="248.934231" y="320.4" style="stroke: #000000; stroke-width: 0.8"/>
      </g>
     </g>
     <g id="text_6">
      <!-- 1.25 -->
      <g transform="translate(237.801419 334.998438) scale(0.1 -0.1)">
       <use xlink:href="#DejaVuSans-31"/>
       <use xlink:href="#DejaVuSans-2e" transform="translate(63.623047 0)"/>
       <use xlink:href="#DejaVuSans-32" transform="translate(95.410156 0)"/>
       <use xlink:href="#DejaVuSans-35" transform="translate(159.033203 0)"/>
      </g>
     </g>
    </g>
    <g id="xtick_7">
     <g id="line2d_13">
      <path d="M 281.69983 320.4 
L 281.69983 43.2 
" clip-path="url(#p67c9d8937d)" style="fill: none; stroke: #b0b0b0; stroke-width: 0.8; stroke-linecap: square"/>
     </g>
     <g id="line2d_14">
      <g>
       <use xlink:href="#m48a4deda54" x="281.69983" y="320.4" style="stroke: #000000; stroke-width: 0.8"/>
      </g>
     </g>
     <g id="text_7">
      <!-- 1.50 -->
      <g transform="translate(270.567017 334.998438) scale(0.1 -0.1)">
       <use xlink:href="#DejaVuSans-31"/>
       <use xlink:href="#DejaVuSans-2e" transform="translate(63.623047 0)"/>
       <use xlink:href="#DejaVuSans-35" transform="translate(95.410156 0)"/>
       <use xlink:href="#DejaVuSans-30" transform="translate(159.033203 0)"/>
      </g>
     </g>
    </g>
    <g id="xtick_8">
     <g id="line2d_15">
      <path d="M 314.465428 320.4 
L 314.465428 43.2 
" clip-path="url(#p67c9d8937d)" style="fill: none; stroke: #b0b0b0; stroke-width: 0.8; stroke-linecap: square"/>
     </g>
     <g id="line2d_16">
      <g>
       <use xlink:href="#m48a4deda54" x="314.465428" y="320.4" style="stroke: #000000; stroke-width: 0.8"/>
      </g>
     </g>
     <g id="text_8">
      <!-- 1.75 -->
      <g transform="translate(303.332616 334.998438) scale(0.1 -0.1)">
       <use xlink:href="#DejaVuSans-31"/>
       <use xlink:href="#DejaVuSans-2e" transform="translate(63.623047 0)"/>
       <use xlink:href="#DejaVuSans-37" transform="translate(95.410156 0)"/>
       <use xlink:href="#DejaVuSans-35" transform="translate(159.033203 0)"/>
      </g>
     </g>
    </g>
    <g id="xtick_9">
     <g id="line2d_17">
      <path d="M 347.231026 320.4 
L 347.231026 43.2 
" clip-path="url(#p67c9d8937d)" style="fill: none; stroke: #b0b0b0; stroke-width: 0.8; stroke-linecap: square"/>
     </g>
     <g id="line2d_18">
      <g>
       <use xlink:href="#m48a4deda54" x="347.231026" y="320.4" style="stroke: #000000; stroke-width: 0.8"/>
      </g>
     </g>
     <g id="text_9">
      <!-- 2.00 -->
      <g transform="translate(336.098214 334.998438) scale(0.1 -0.1)">
       <use xlink:href="#DejaVuSans-32"/>
       <use xlink:href="#DejaVuSans-2e" transform="translate(63.623047 0)"/>
       <use xlink:href="#DejaVuSans-30" transform="translate(95.410156 0)"/>
       <use xlink:href="#DejaVuSans-30" transform="translate(159.033203 0)"/>
      </g>
     </g>
    </g>
    <g id="text_10">
     <!-- Indentation [m] -->
     <g transform="translate(155.997447 351.715937) scale(0.14 -0.14)">
      <defs>
       <path id="DejaVuSans-49" d="M 628 4666 
L 1259 4666 
L 1259 0 
L 628 0 
L 628 4666 
z
" transform="scale(0.015625)"/>
       <path id="DejaVuSans-6e" d="M 3513 2113 
L 3513 0 
L 2938 0 
L 2938 2094 
Q 2938 2591 2744 2837 
Q 2550 3084 2163 3084 
Q 1697 3084 1428 2787 
Q 1159 2491 1159 1978 
L 1159 0 
L 581 0 
L 581 3500 
L 1159 3500 
L 1159 2956 
Q 1366 3272 1645 3428 
Q 1925 3584 2291 3584 
Q 2894 3584 3203 3211 
Q 3513 2838 3513 2113 
z
" transform="scale(0.015625)"/>
       <path id="DejaVuSans-64" d="M 2906 2969 
L 2906 4863 
L 3481 4863 
L 3481 0 
L 2906 0 
L 2906 525 
Q 2725 213 2448 61 
Q 2172 -91 1784 -91 
Q 1150 -91 751 415 
Q 353 922 353 1747 
Q 353 2572 751 3078 
Q 1150 3584 1784 3584 
Q 2172 3584 2448 3432 
Q 2725 3281 2906 2969 
z
M 947 1747 
Q 947 1113 1208 752 
Q 1469 391 1925 391 
Q 2381 391 2643 752 
Q 2906 1113 2906 1747 
Q 2906 2381 2643 2742 
Q 2381 3103 1925 3103 
Q 1469 3103 1208 2742 
Q 947 2381 947 1747 
z
" transform="scale(0.015625)"/>
       <path id="DejaVuSans-65" d="M 3597 1894 
L 3597 1613 
L 953 1613 
Q 991 1019 1311 708 
Q 1631 397 2203 397 
Q 2534 397 2845 478 
Q 3156 559 3463 722 
L 3463 178 
Q 3153 47 2828 -22 
Q 2503 -91 2169 -91 
Q 1331 -91 842 396 
Q 353 884 353 1716 
Q 353 2575 817 3079 
Q 1281 3584 2069 3584 
Q 2775 3584 3186 3129 
Q 3597 2675 3597 1894 
z
M 3022 2063 
Q 3016 2534 2758 2815 
Q 2500 3097 2075 3097 
Q 1594 3097 1305 2825 
Q 1016 2553 972 2059 
L 3022 2063 
z
" transform="scale(0.015625)"/>
       <path id="DejaVuSans-74" d="M 1172 4494 
L 1172 3500 
L 2356 3500 
L 2356 3053 
L 1172 3053 
L 1172 1153 
Q 1172 725 1289 603 
Q 1406 481 1766 481 
L 2356 481 
L 2356 0 
L 1766 0 
Q 1100 0 847 248 
Q 594 497 594 1153 
L 594 3053 
L 172 3053 
L 172 3500 
L 594 3500 
L 594 4494 
L 1172 4494 
z
" transform="scale(0.015625)"/>
       <path id="DejaVuSans-61" d="M 2194 1759 
Q 1497 1759 1228 1600 
Q 959 1441 959 1056 
Q 959 750 1161 570 
Q 1363 391 1709 391 
Q 2188 391 2477 730 
Q 2766 1069 2766 1631 
L 2766 1759 
L 2194 1759 
z
M 3341 1997 
L 3341 0 
L 2766 0 
L 2766 531 
Q 2569 213 2275 61 
Q 1981 -91 1556 -91 
Q 1019 -91 701 211 
Q 384 513 384 1019 
Q 384 1609 779 1909 
Q 1175 2209 1959 2209 
L 2766 2209 
L 2766 2266 
Q 2766 2663 2505 2880 
Q 2244 3097 1772 3097 
Q 1472 3097 1187 3025 
Q 903 2953 641 2809 
L 641 3341 
Q 956 3463 1253 3523 
Q 1550 3584 1831 3584 
Q 2591 3584 2966 3190 
Q 3341 2797 3341 1997 
z
" transform="scale(0.015625)"/>
       <path id="DejaVuSans-69" d="M 603 3500 
L 1178 3500 
L 1178 0 
L 603 0 
L 603 3500 
z
M 603 4863 
L 1178 4863 
L 1178 4134 
L 603 4134 
L 603 4863 
z
" transform="scale(0.015625)"/>
       <path id="DejaVuSans-6f" d="M 1959 3097 
Q 1497 3097 1228 2736 
Q 959 2375 959 1747 
Q 959 1119 1226 758 
Q 1494 397 1959 397 
Q 2419 397 2687 759 
Q 2956 1122 2956 1747 
Q 2956 2369 2687 2733 
Q 2419 3097 1959 3097 
z
M 1959 3584 
Q 2709 3584 3137 3096 
Q 3566 2609 3566 1747 
Q 3566 888 3137 398 
Q 2709 -91 1959 -91 
Q 1206 -91 779 398 
Q 353 888 353 1747 
Q 353 2609 779 3096 
Q 1206 3584 1959 3584 
z
" transform="scale(0.015625)"/>
       <path id="DejaVuSans-20" transform="scale(0.015625)"/>
       <path id="DejaVuSans-5b" d="M 550 4863 
L 1875 4863 
L 1875 4416 
L 1125 4416 
L 1125 -397 
L 1875 -397 
L 1875 -844 
L 550 -844 
L 550 4863 
z
" transform="scale(0.015625)"/>
       <path id="DejaVuSans-6d" d="M 3328 2828 
Q 3544 3216 3844 3400 
Q 4144 3584 4550 3584 
Q 5097 3584 5394 3201 
Q 5691 2819 5691 2113 
L 5691 0 
L 5113 0 
L 5113 2094 
Q 5113 2597 4934 2840 
Q 4756 3084 4391 3084 
Q 3944 3084 3684 2787 
Q 3425 2491 3425 1978 
L 3425 0 
L 2847 0 
L 2847 2094 
Q 2847 2600 2669 2842 
Q 2491 3084 2119 3084 
Q 1678 3084 1418 2786 
Q 1159 2488 1159 1978 
L 1159 0 
L 581 0 
L 581 3500 
L 1159 3500 
L 1159 2956 
Q 1356 3278 1631 3431 
Q 1906 3584 2284 3584 
Q 2666 3584 2933 3390 
Q 3200 3197 3328 2828 
z
" transform="scale(0.015625)"/>
       <path id="DejaVuSans-5d" d="M 1947 4863 
L 1947 -844 
L 622 -844 
L 622 -397 
L 1369 -397 
L 1369 4416 
L 622 4416 
L 622 4863 
L 1947 4863 
z
" transform="scale(0.015625)"/>
      </defs>
      <use xlink:href="#DejaVuSans-49"/>
      <use xlink:href="#DejaVuSans-6e" transform="translate(29.492188 0)"/>
      <use xlink:href="#DejaVuSans-64" transform="translate(92.871094 0)"/>
      <use xlink:href="#DejaVuSans-65" transform="translate(156.347656 0)"/>
      <use xlink:href="#DejaVuSans-6e" transform="translate(217.871094 0)"/>
      <use xlink:href="#DejaVuSans-74" transform="translate(281.25 0)"/>
      <use xlink:href="#DejaVuSans-61" transform="translate(320.458984 0)"/>
      <use xlink:href="#DejaVuSans-74" transform="translate(381.738281 0)"/>
      <use xlink:href="#DejaVuSans-69" transform="translate(420.947266 0)"/>
      <use xlink:href="#DejaVuSans-6f" transform="translate(448.730469 0)"/>
      <use xlink:href="#DejaVuSans-6e" transform="translate(509.912109 0)"/>
      <use xlink:href="#DejaVuSans-20" transform="translate(573.291016 0)"/>
      <use xlink:href="#DejaVuSans-5b" transform="translate(605.078125 0)"/>
      <use xlink:href="#DejaVuSans-6d" transform="translate(644.091797 0)"/>
      <use xlink:href="#DejaVuSans-5d" transform="translate(741.503906 0)"/>
     </g>
    </g>
    <g id="text_11">
     <!-- 1e−6 -->
     <g transform="translate(322.009268 347.676562) scale(0.1 -0.1)">
      <defs>
       <path id="DejaVuSans-2212" d="M 678 2272 
L 4684 2272 
L 4684 1741 
L 678 1741 
L 678 2272 
z
" transform="scale(0.015625)"/>
       <path id="DejaVuSans-36" d="M 2113 2584 
Q 1688 2584 1439 2293 
Q 1191 2003 1191 1497 
Q 1191 994 1439 701 
Q 1688 409 2113 409 
Q 2538 409 2786 701 
Q 3034 994 3034 1497 
Q 3034 2003 2786 2293 
Q 2538 2584 2113 2584 
z
M 3366 4563 
L 3366 3988 
Q 3128 4100 2886 4159 
Q 2644 4219 2406 4219 
Q 1781 4219 1451 3797 
Q 1122 3375 1075 2522 
Q 1259 2794 1537 2939 
Q 1816 3084 2150 3084 
Q 2853 3084 3261 2657 
Q 3669 2231 3669 1497 
Q 3669 778 3244 343 
Q 2819 -91 2113 -91 
Q 1303 -91 875 529 
Q 447 1150 447 2328 
Q 447 3434 972 4092 
Q 1497 4750 2381 4750 
Q 2619 4750 2861 4703 
Q 3103 4656 3366 4563 
z
" transform="scale(0.015625)"/>
      </defs>
      <use xlink:href="#DejaVuSans-31"/>
      <use xlink:href="#DejaVuSans-65" transform="translate(63.623047 0)"/>
      <use xlink:href="#DejaVuSans-2212" transform="translate(125.146484 0)"/>
      <use xlink:href="#DejaVuSans-36" transform="translate(208.935547 0)"/>
     </g>
    </g>
   </g>
   <g id="matplotlib.axis_2">
    <g id="ytick_1">
     <g id="line2d_19">
      <path d="M 72 305.179345 
L 349.267081 305.179345 
" clip-path="url(#p67c9d8937d)" style="fill: none; stroke: #b0b0b0; stroke-width: 0.8; stroke-linecap: square"/>
     </g>
     <g id="line2d_20">
      <defs>
       <path id="m37acdbed8d" d="M 0 0 
L -3.5 0 
" style="stroke: #000000; stroke-width: 0.8"/>
      </defs>
      <g>
       <use xlink:href="#m37acdbed8d" x="72" y="305.179345" style="stroke: #000000; stroke-width: 0.8"/>
      </g>
     </g>
     <g id="text_12">
      <!-- 0.0 -->
      <g transform="translate(49.096875 308.978564) scale(0.1 -0.1)">
       <use xlink:href="#DejaVuSans-30"/>
       <use xlink:href="#DejaVuSans-2e" transform="translate(63.623047 0)"/>
       <use xlink:href="#DejaVuSans-30" transform="translate(95.410156 0)"/>
      </g>
     </g>
    </g>
    <g id="ytick_2">
     <g id="line2d_21">
      <path d="M 72 272.279865 
L 349.267081 272.279865 
" clip-path="url(#p67c9d8937d)" style="fill: none; stroke: #b0b0b0; stroke-width: 0.8; stroke-linecap: square"/>
     </g>
     <g id="line2d_22">
      <g>
       <use xlink:href="#m37acdbed8d" x="72" y="272.279865" style="stroke: #000000; stroke-width: 0.8"/>
      </g>
     </g>
     <g id="text_13">
      <!-- 0.2 -->
      <g transform="translate(49.096875 276.079083) scale(0.1 -0.1)">
       <use xlink:href="#DejaVuSans-30"/>
       <use xlink:href="#DejaVuSans-2e" transform="translate(63.623047 0)"/>
       <use xlink:href="#DejaVuSans-32" transform="translate(95.410156 0)"/>
      </g>
     </g>
    </g>
    <g id="ytick_3">
     <g id="line2d_23">
      <path d="M 72 239.380385 
L 349.267081 239.380385 
" clip-path="url(#p67c9d8937d)" style="fill: none; stroke: #b0b0b0; stroke-width: 0.8; stroke-linecap: square"/>
     </g>
     <g id="line2d_24">
      <g>
       <use xlink:href="#m37acdbed8d" x="72" y="239.380385" style="stroke: #000000; stroke-width: 0.8"/>
      </g>
     </g>
     <g id="text_14">
      <!-- 0.4 -->
      <g transform="translate(49.096875 243.179603) scale(0.1 -0.1)">
       <defs>
        <path id="DejaVuSans-34" d="M 2419 4116 
L 825 1625 
L 2419 1625 
L 2419 4116 
z
M 2253 4666 
L 3047 4666 
L 3047 1625 
L 3713 1625 
L 3713 1100 
L 3047 1100 
L 3047 0 
L 2419 0 
L 2419 1100 
L 313 1100 
L 313 1709 
L 2253 4666 
z
" transform="scale(0.015625)"/>
       </defs>
       <use xlink:href="#DejaVuSans-30"/>
       <use xlink:href="#DejaVuSans-2e" transform="translate(63.623047 0)"/>
       <use xlink:href="#DejaVuSans-34" transform="translate(95.410156 0)"/>
      </g>
     </g>
    </g>
    <g id="ytick_4">
     <g id="line2d_25">
      <path d="M 72 206.480905 
L 349.267081 206.480905 
" clip-path="url(#p67c9d8937d)" style="fill: none; stroke: #b0b0b0; stroke-width: 0.8; stroke-linecap: square"/>
     </g>
     <g id="line2d_26">
      <g>
       <use xlink:href="#m37acdbed8d" x="72" y="206.480905" style="stroke: #000000; stroke-width: 0.8"/>
      </g>
     </g>
     <g id="text_15">
      <!-- 0.6 -->
      <g transform="translate(49.096875 210.280123) scale(0.1 -0.1)">
       <use xlink:href="#DejaVuSans-30"/>
       <use xlink:href="#DejaVuSans-2e" transform="translate(63.623047 0)"/>
       <use xlink:href="#DejaVuSans-36" transform="translate(95.410156 0)"/>
      </g>
     </g>
    </g>
    <g id="ytick_5">
     <g id="line2d_27">
      <path d="M 72 173.581425 
L 349.267081 173.581425 
" clip-path="url(#p67c9d8937d)" style="fill: none; stroke: #b0b0b0; stroke-width: 0.8; stroke-linecap: square"/>
     </g>
     <g id="line2d_28">
      <g>
       <use xlink:href="#m37acdbed8d" x="72" y="173.581425" style="stroke: #000000; stroke-width: 0.8"/>
      </g>
     </g>
     <g id="text_16">
      <!-- 0.8 -->
      <g transform="translate(49.096875 177.380643) scale(0.1 -0.1)">
       <defs>
        <path id="DejaVuSans-38" d="M 2034 2216 
Q 1584 2216 1326 1975 
Q 1069 1734 1069 1313 
Q 1069 891 1326 650 
Q 1584 409 2034 409 
Q 2484 409 2743 651 
Q 3003 894 3003 1313 
Q 3003 1734 2745 1975 
Q 2488 2216 2034 2216 
z
M 1403 2484 
Q 997 2584 770 2862 
Q 544 3141 544 3541 
Q 544 4100 942 4425 
Q 1341 4750 2034 4750 
Q 2731 4750 3128 4425 
Q 3525 4100 3525 3541 
Q 3525 3141 3298 2862 
Q 3072 2584 2669 2484 
Q 3125 2378 3379 2068 
Q 3634 1759 3634 1313 
Q 3634 634 3220 271 
Q 2806 -91 2034 -91 
Q 1263 -91 848 271 
Q 434 634 434 1313 
Q 434 1759 690 2068 
Q 947 2378 1403 2484 
z
M 1172 3481 
Q 1172 3119 1398 2916 
Q 1625 2713 2034 2713 
Q 2441 2713 2670 2916 
Q 2900 3119 2900 3481 
Q 2900 3844 2670 4047 
Q 2441 4250 2034 4250 
Q 1625 4250 1398 4047 
Q 1172 3844 1172 3481 
z
" transform="scale(0.015625)"/>
       </defs>
       <use xlink:href="#DejaVuSans-30"/>
       <use xlink:href="#DejaVuSans-2e" transform="translate(63.623047 0)"/>
       <use xlink:href="#DejaVuSans-38" transform="translate(95.410156 0)"/>
      </g>
     </g>
    </g>
    <g id="ytick_6">
     <g id="line2d_29">
      <path d="M 72 140.681945 
L 349.267081 140.681945 
" clip-path="url(#p67c9d8937d)" style="fill: none; stroke: #b0b0b0; stroke-width: 0.8; stroke-linecap: square"/>
     </g>
     <g id="line2d_30">
      <g>
       <use xlink:href="#m37acdbed8d" x="72" y="140.681945" style="stroke: #000000; stroke-width: 0.8"/>
      </g>
     </g>
     <g id="text_17">
      <!-- 1.0 -->
      <g transform="translate(49.096875 144.481163) scale(0.1 -0.1)">
       <use xlink:href="#DejaVuSans-31"/>
       <use xlink:href="#DejaVuSans-2e" transform="translate(63.623047 0)"/>
       <use xlink:href="#DejaVuSans-30" transform="translate(95.410156 0)"/>
      </g>
     </g>
    </g>
    <g id="ytick_7">
     <g id="line2d_31">
      <path d="M 72 107.782464 
L 349.267081 107.782464 
" clip-path="url(#p67c9d8937d)" style="fill: none; stroke: #b0b0b0; stroke-width: 0.8; stroke-linecap: square"/>
     </g>
     <g id="line2d_32">
      <g>
       <use xlink:href="#m37acdbed8d" x="72" y="107.782464" style="stroke: #000000; stroke-width: 0.8"/>
      </g>
     </g>
     <g id="text_18">
      <!-- 1.2 -->
      <g transform="translate(49.096875 111.581683) scale(0.1 -0.1)">
       <use xlink:href="#DejaVuSans-31"/>
       <use xlink:href="#DejaVuSans-2e" transform="translate(63.623047 0)"/>
       <use xlink:href="#DejaVuSans-32" transform="translate(95.410156 0)"/>
      </g>
     </g>
    </g>
    <g id="ytick_8">
     <g id="line2d_33">
      <path d="M 72 74.882984 
L 349.267081 74.882984 
" clip-path="url(#p67c9d8937d)" style="fill: none; stroke: #b0b0b0; stroke-width: 0.8; stroke-linecap: square"/>
     </g>
     <g id="line2d_34">
      <g>
       <use xlink:href="#m37acdbed8d" x="72" y="74.882984" style="stroke: #000000; stroke-width: 0.8"/>
      </g>
     </g>
     <g id="text_19">
      <!-- 1.4 -->
      <g transform="translate(49.096875 78.682203) scale(0.1 -0.1)">
       <use xlink:href="#DejaVuSans-31"/>
       <use xlink:href="#DejaVuSans-2e" transform="translate(63.623047 0)"/>
       <use xlink:href="#DejaVuSans-34" transform="translate(95.410156 0)"/>
      </g>
     </g>
    </g>
    <g id="text_20">
     <!-- Force [N] -->
     <g transform="translate(42.185312 213.655469) rotate(-90) scale(0.14 -0.14)">
      <defs>
       <path id="DejaVuSans-46" d="M 628 4666 
L 3309 4666 
L 3309 4134 
L 1259 4134 
L 1259 2759 
L 3109 2759 
L 3109 2228 
L 1259 2228 
L 1259 0 
L 628 0 
L 628 4666 
z
" transform="scale(0.015625)"/>
       <path id="DejaVuSans-72" d="M 2631 2963 
Q 2534 3019 2420 3045 
Q 2306 3072 2169 3072 
Q 1681 3072 1420 2755 
Q 1159 2438 1159 1844 
L 1159 0 
L 581 0 
L 581 3500 
L 1159 3500 
L 1159 2956 
Q 1341 3275 1631 3429 
Q 1922 3584 2338 3584 
Q 2397 3584 2469 3576 
Q 2541 3569 2628 3553 
L 2631 2963 
z
" transform="scale(0.015625)"/>
       <path id="DejaVuSans-63" d="M 3122 3366 
L 3122 2828 
Q 2878 2963 2633 3030 
Q 2388 3097 2138 3097 
Q 1578 3097 1268 2742 
Q 959 2388 959 1747 
Q 959 1106 1268 751 
Q 1578 397 2138 397 
Q 2388 397 2633 464 
Q 2878 531 3122 666 
L 3122 134 
Q 2881 22 2623 -34 
Q 2366 -91 2075 -91 
Q 1284 -91 818 406 
Q 353 903 353 1747 
Q 353 2603 823 3093 
Q 1294 3584 2113 3584 
Q 2378 3584 2631 3529 
Q 2884 3475 3122 3366 
z
" transform="scale(0.015625)"/>
       <path id="DejaVuSans-4e" d="M 628 4666 
L 1478 4666 
L 3547 763 
L 3547 4666 
L 4159 4666 
L 4159 0 
L 3309 0 
L 1241 3903 
L 1241 0 
L 628 0 
L 628 4666 
z
" transform="scale(0.015625)"/>
      </defs>
      <use xlink:href="#DejaVuSans-46"/>
      <use xlink:href="#DejaVuSans-6f" transform="translate(53.894531 0)"/>
      <use xlink:href="#DejaVuSans-72" transform="translate(115.076172 0)"/>
      <use xlink:href="#DejaVuSans-63" transform="translate(153.939453 0)"/>
      <use xlink:href="#DejaVuSans-65" transform="translate(208.919922 0)"/>
      <use xlink:href="#DejaVuSans-20" transform="translate(270.443359 0)"/>
      <use xlink:href="#DejaVuSans-5b" transform="translate(302.230469 0)"/>
      <use xlink:href="#DejaVuSans-4e" transform="translate(341.244141 0)"/>
      <use xlink:href="#DejaVuSans-5d" transform="translate(416.048828 0)"/>
     </g>
    </g>
    <g id="text_21">
     <!-- 1e−9 -->
     <g transform="translate(72 40.2) scale(0.1 -0.1)">
      <defs>
       <path id="DejaVuSans-39" d="M 703 97 
L 703 672 
Q 941 559 1184 500 
Q 1428 441 1663 441 
Q 2288 441 2617 861 
Q 2947 1281 2994 2138 
Q 2813 1869 2534 1725 
Q 2256 1581 1919 1581 
Q 1219 1581 811 2004 
Q 403 2428 403 3163 
Q 403 3881 828 4315 
Q 1253 4750 1959 4750 
Q 2769 4750 3195 4129 
Q 3622 3509 3622 2328 
Q 3622 1225 3098 567 
Q 2575 -91 1691 -91 
Q 1453 -91 1209 -44 
Q 966 3 703 97 
z
M 1959 2075 
Q 2384 2075 2632 2365 
Q 2881 2656 2881 3163 
Q 2881 3666 2632 3958 
Q 2384 4250 1959 4250 
Q 1534 4250 1286 3958 
Q 1038 3666 1038 3163 
Q 1038 2656 1286 2365 
Q 1534 2075 1959 2075 
z
" transform="scale(0.015625)"/>
      </defs>
      <use xlink:href="#DejaVuSans-31"/>
      <use xlink:href="#DejaVuSans-65" transform="translate(63.623047 0)"/>
      <use xlink:href="#DejaVuSans-2212" transform="translate(125.146484 0)"/>
      <use xlink:href="#DejaVuSans-39" transform="translate(208.935547 0)"/>
     </g>
    </g>
   </g>
   <g id="line2d_35">
    <path d="M 71.862699 304.405161 
L 72.191827 303.75283 
L 72.359543 303.601381 
L 72.494753 303.763758 
L 72.667042 303.792734 
L 73.184939 304.299225 
L 73.337375 304.648347 
L 73.816683 303.645601 
L 73.983591 303.653552 
L 74.322371 303.958696 
L 74.466142 304.030349 
L 74.658003 303.913697 
L 74.957188 304.074866 
L 75.122249 303.734627 
L 75.28755 303.684942 
L 75.464478 303.456313 
L 75.768902 303.909531 
L 75.943163 303.951227 
L 76.109978 303.640546 
L 76.440421 303.756296 
L 76.583842 303.800064 
L 76.746223 303.639164 
L 77.079735 303.620424 
L 77.25262 303.916225 
L 77.410882 303.955939 
L 77.739579 303.548903 
L 77.909044 303.67241 
L 78.046541 304.074069 
L 78.234982 304.269484 
L 78.404802 304.199905 
L 78.867328 304.396285 
L 79.040764 303.819906 
L 79.37015 303.416724 
L 79.530329 303.604692 
L 79.693197 304.002446 
L 80.021841 303.695429 
L 80.202605 303.59753 
L 80.33931 303.655758 
L 80.679087 303.241732 
L 80.831293 303.301853 
L 81.01071 302.958039 
L 81.153441 303.148958 
L 81.331357 303.097459 
L 81.483701 302.857122 
L 81.826722 303.262343 
L 81.980479 303.77014 
L 82.488953 304.039459 
L 82.793719 303.744005 
L 82.960699 303.544441 
L 83.118548 303.10534 
L 83.295047 303.141146 
L 83.448995 303.044461 
L 83.768653 303.056509 
L 83.940996 302.941987 
L 84.088582 302.549279 
L 84.421971 302.790213 
L 84.578629 302.899379 
L 85.231715 302.391912 
L 85.38958 302.312795 
L 85.722156 302.009922 
L 86.051082 302.488779 
L 86.219323 302.569775 
L 86.389952 302.514757 
L 86.879189 302.755229 
L 88.014544 302.183213 
L 88.168031 302.26275 
L 88.356982 302.127306 
L 88.495715 302.174305 
L 88.66127 302.423769 
L 89.173634 301.980312 
L 89.464358 302.207766 
L 89.808862 302.340767 
L 89.978369 302.186676 
L 90.304214 302.214012 
L 90.77683 301.620323 
L 91.113035 301.439545 
L 91.268763 301.696957 
L 91.764891 301.87353 
L 92.087126 301.570416 
L 93.068672 301.509386 
L 93.381182 301.012812 
L 93.546629 300.744498 
L 93.713758 300.699441 
L 94.048632 301.427055 
L 94.372872 301.369936 
L 95.024531 300.352611 
L 95.173454 300.416974 
L 95.515479 301.077728 
L 95.673607 300.902591 
L 95.833008 300.460258 
L 96.008102 300.425765 
L 96.141055 300.227153 
L 96.661084 300.553623 
L 96.983023 300.957486 
L 97.303338 300.887239 
L 97.619433 300.406282 
L 97.803762 300.36564 
L 98.097416 299.9075 
L 98.58595 298.966705 
L 98.752125 299.114162 
L 98.915077 299.415651 
L 99.088318 299.332508 
L 99.271979 299.536203 
L 99.412284 299.865127 
L 99.903612 299.154677 
L 100.066023 298.868417 
L 100.392939 298.913388 
L 100.882023 299.503184 
L 101.058908 299.496401 
L 101.511543 298.593173 
L 101.856117 298.740422 
L 102.008857 298.767563 
L 102.373551 298.99579 
L 102.840264 298.948546 
L 102.998358 298.636553 
L 103.179569 298.623966 
L 103.325776 299.138168 
L 103.654263 298.678336 
L 103.983463 298.462309 
L 104.30512 298.658038 
L 104.47207 298.534501 
L 104.642781 298.712023 
L 104.958453 298.761438 
L 105.604913 297.80121 
L 105.761468 297.831895 
L 106.092277 297.404391 
L 106.262378 297.818532 
L 106.424433 297.669279 
L 106.564591 297.694905 
L 107.231571 297.06914 
L 107.384736 296.980785 
L 107.722497 296.514048 
L 107.862962 296.604693 
L 108.037481 296.265979 
L 108.205341 296.499102 
L 108.524288 296.580616 
L 108.696753 296.929719 
L 109.506267 296.735911 
L 109.671172 296.577538 
L 109.835282 296.808272 
L 110.16229 296.441863 
L 110.318991 296.645789 
L 110.491397 296.586646 
L 110.820045 296.237435 
L 110.985565 296.541981 
L 111.474888 295.788169 
L 111.762227 295.203053 
L 111.946199 295.213288 
L 112.104425 295.021885 
L 112.271843 295.064129 
L 112.596635 295.44161 
L 112.928681 294.545191 
L 113.579413 294.255419 
L 113.893377 294.683705 
L 114.535249 293.853039 
L 115.207782 294.223656 
L 115.348099 294.386516 
L 115.531816 294.152382 
L 115.987323 292.761861 
L 116.157808 292.66825 
L 116.489651 292.370398 
L 116.821036 292.578607 
L 117.293604 291.748391 
L 117.787995 291.76377 
L 118.268695 292.185705 
L 118.44185 292.1228 
L 118.611842 291.88457 
L 118.77372 292.053422 
L 118.925891 292.002232 
L 119.088297 292.187 
L 119.435041 291.485205 
L 119.741662 290.893996 
L 120.209401 289.618269 
L 120.370114 290.019519 
L 120.543618 289.877375 
L 120.704899 290.265426 
L 120.88238 290.375471 
L 121.046696 290.779974 
L 121.377973 290.312728 
L 121.830813 289.390403 
L 122.167781 288.848321 
L 122.490301 289.305417 
L 122.650729 289.329739 
L 122.827517 289.207944 
L 123.613993 288.10437 
L 124.432345 288.485858 
L 125.248384 287.441143 
L 125.411236 287.598085 
L 125.577579 287.526464 
L 125.902885 286.845744 
L 126.720266 286.717 
L 127.042208 287.067704 
L 127.198398 286.988848 
L 127.67153 285.880442 
L 128.339036 284.774204 
L 128.653431 284.407795 
L 128.81411 284.53813 
L 129.30548 284.323095 
L 129.462498 284.335296 
L 129.785139 284.689326 
L 129.959827 284.552764 
L 130.28284 284.53732 
L 131.090903 283.867083 
L 131.735945 283.824725 
L 132.542949 282.582413 
L 132.705709 282.389711 
L 132.877452 282.485904 
L 133.033221 282.874691 
L 133.221442 282.833868 
L 133.821218 281.555776 
L 134.008329 281.54842 
L 134.506882 282.08612 
L 134.677033 282.054866 
L 134.812647 281.492497 
L 134.991856 281.295941 
L 135.290839 280.068137 
L 135.463583 279.773446 
L 135.627825 279.766409 
L 135.762254 279.956495 
L 135.96279 280.465215 
L 136.116369 280.466073 
L 136.602344 280.800998 
L 136.944284 280.43674 
L 137.092003 280.294906 
L 137.254768 280.643356 
L 137.435482 280.736043 
L 137.578192 280.544224 
L 137.760625 280.055365 
L 137.924626 280.018811 
L 138.227995 279.463957 
L 138.714948 279.11411 
L 138.87699 279.253986 
L 139.205875 278.287592 
L 139.34606 277.976427 
L 139.851831 277.726087 
L 140.169896 278.255808 
L 140.335133 278.130017 
L 140.66907 277.68092 
L 140.814011 277.641055 
L 141.321034 277.076029 
L 141.469114 277.13589 
L 141.629452 277.403998 
L 142.127112 276.982038 
L 142.436292 277.216194 
L 142.61826 277.117378 
L 143.391253 274.932377 
L 143.579425 275.018797 
L 144.090752 276.365598 
L 144.242452 276.318415 
L 144.396393 275.721304 
L 144.7159 275.645897 
L 145.039381 274.956692 
L 145.511678 274.290504 
L 145.849111 273.556527 
L 146.00423 273.444714 
L 146.332266 274.251645 
L 146.516226 274.088234 
L 146.8228 273.695122 
L 147.316852 272.800898 
L 147.627436 273.276932 
L 147.794942 273.222588 
L 147.96589 272.971593 
L 148.122707 272.529422 
L 148.272769 272.552387 
L 148.760151 272.173001 
L 149.091301 272.623643 
L 149.426865 272.624103 
L 149.730908 271.860199 
L 149.908231 271.698974 
L 150.398273 270.421047 
L 150.536577 270.217192 
L 150.864711 269.200837 
L 151.334588 269.068447 
L 151.504991 269.528203 
L 151.994207 269.972189 
L 152.187747 269.868508 
L 152.481943 269.105885 
L 152.809039 269.066236 
L 152.973119 268.544855 
L 153.146712 268.566591 
L 153.604047 267.770191 
L 153.942807 267.265373 
L 154.255419 267.719982 
L 154.431396 267.671753 
L 154.600606 267.337464 
L 154.764709 267.334556 
L 154.906053 267.135021 
L 155.073321 267.245493 
L 155.744867 267.023948 
L 156.041597 266.518228 
L 156.212214 266.392483 
L 156.541752 265.837142 
L 156.862566 265.92866 
L 157.347844 265.248662 
L 157.836725 265.422467 
L 158.317168 264.982244 
L 158.646646 264.877883 
L 158.801535 264.680412 
L 159.143818 264.675248 
L 159.295929 264.653075 
L 160.433537 263.08107 
L 160.583722 263.199182 
L 160.74863 263.109639 
L 160.905834 263.275019 
L 161.704699 261.768433 
L 162.034551 260.850367 
L 162.202036 260.682558 
L 162.856999 261.253534 
L 163.176023 261.792488 
L 164.145071 259.542261 
L 164.316139 259.505285 
L 164.613478 259.886356 
L 164.807789 259.713317 
L 165.119521 259.156988 
L 165.275331 259.216786 
L 165.603438 259.07648 
L 166.096547 259.256637 
L 166.274385 259.177338 
L 166.57579 258.366759 
L 167.058132 258.107021 
L 167.236836 258.186099 
L 167.550553 257.652841 
L 167.868018 257.534963 
L 168.035703 257.2527 
L 168.205262 257.426869 
L 168.526562 257.333107 
L 168.856682 257.016615 
L 169.337314 256.067763 
L 169.806006 255.507259 
L 170.136296 255.215176 
L 170.630565 255.630721 
L 170.964951 254.974851 
L 171.259684 254.289057 
L 171.420537 254.362093 
L 171.601888 254.197917 
L 171.75974 253.834088 
L 172.089446 254.30702 
L 172.577549 252.949794 
L 172.863259 252.393232 
L 173.202579 252.096445 
L 173.375949 252.330968 
L 173.699227 253.002299 
L 173.880972 252.88551 
L 174.034895 252.991152 
L 174.35315 252.596633 
L 174.675983 252.017119 
L 174.99917 252.646823 
L 175.168299 252.575787 
L 175.498229 251.963381 
L 175.645288 251.594449 
L 176.124301 249.553337 
L 176.434336 249.704551 
L 176.61378 249.774595 
L 176.940357 249.342405 
L 177.25782 249.535789 
L 177.601182 249.386049 
L 177.754526 249.408944 
L 177.90654 249.549001 
L 178.226778 248.886036 
L 178.396766 248.453827 
L 178.872745 248.198684 
L 179.047975 248.111247 
L 179.841466 246.844772 
L 180.16561 246.687 
L 180.498426 246.529207 
L 180.655036 246.84229 
L 181.431319 245.396735 
L 181.626929 245.311933 
L 182.114652 244.501835 
L 182.269008 244.428232 
L 182.587728 243.857346 
L 182.745013 243.896948 
L 183.093871 244.379371 
L 183.241199 244.363283 
L 183.579313 243.809158 
L 183.878857 242.905653 
L 184.048504 242.938543 
L 184.206814 242.749466 
L 184.86542 243.800952 
L 185.045259 243.809859 
L 185.364396 243.459768 
L 185.684831 243.654367 
L 186.174283 242.820592 
L 186.322795 242.540437 
L 186.812963 240.672574 
L 186.954354 240.721953 
L 187.288969 241.102024 
L 187.628473 240.782372 
L 187.78141 240.977831 
L 188.095233 240.624896 
L 188.43929 240.656823 
L 188.91949 239.685395 
L 189.210795 239.302341 
L 189.410522 239.357409 
L 189.556394 239.186934 
L 189.73971 239.345439 
L 190.042747 239.856961 
L 190.700549 238.5706 
L 190.843997 238.460569 
L 191.178665 237.377925 
L 191.343869 237.240774 
L 191.644985 237.456461 
L 192.152187 237.307757 
L 192.310703 237.459613 
L 192.477158 237.412988 
L 192.969769 236.721913 
L 194.068368 234.222376 
L 194.392122 234.103869 
L 194.578782 234.358955 
L 195.069776 234.350121 
L 195.223028 234.132969 
L 195.35911 233.701802 
L 195.539919 233.627351 
L 195.704131 232.999686 
L 195.855868 232.967246 
L 196.026335 233.161155 
L 196.188817 233.522106 
L 196.534045 233.234782 
L 196.843779 233.298633 
L 196.994293 233.272381 
L 197.978807 231.824482 
L 198.112788 231.577929 
L 198.293564 231.628855 
L 198.468683 231.529489 
L 198.790887 231.858917 
L 198.943404 232.047192 
L 199.718554 229.054908 
L 200.063843 228.463984 
L 200.383157 228.776399 
L 200.55649 228.891256 
L 200.865355 228.930772 
L 201.035452 229.123075 
L 201.21788 229.497781 
L 201.374972 229.525808 
L 201.535137 229.340688 
L 201.707527 229.712218 
L 201.873461 229.668229 
L 202.004702 229.02876 
L 202.17691 228.836757 
L 202.368208 228.368386 
L 202.641337 227.542121 
L 202.832899 227.471488 
L 203.142702 226.73906 
L 203.315147 227.001975 
L 203.464886 226.957979 
L 203.631558 226.772496 
L 203.788397 227.037123 
L 203.95901 226.885292 
L 205.078959 224.214022 
L 205.396824 224.169833 
L 205.563352 224.172812 
L 205.710955 224.053704 
L 206.220381 224.445761 
L 207.190969 222.850395 
L 207.346364 222.648445 
L 207.499721 222.657071 
L 207.833497 222.193484 
L 208.147444 221.16802 
L 208.4605 220.953092 
L 208.799565 221.318827 
L 209.13472 221.830079 
L 209.450768 221.878453 
L 210.101991 220.174688 
L 210.235963 219.963287 
L 210.419162 219.902253 
L 210.57371 220.143498 
L 211.069231 219.410655 
L 211.220792 219.238323 
L 211.372916 219.558202 
L 211.544319 219.559293 
L 212.202711 220.415841 
L 212.385373 220.165191 
L 212.860264 218.439726 
L 213.005521 218.24839 
L 213.320306 217.059717 
L 213.637137 216.365734 
L 213.784254 216.519192 
L 213.97862 216.527112 
L 214.289329 216.168094 
L 214.465897 216.493371 
L 214.612333 216.520531 
L 214.948363 215.898448 
L 215.267605 216.352746 
L 215.432429 216.237224 
L 215.909785 214.844209 
L 216.228659 214.62538 
L 216.555713 214.53316 
L 216.739239 214.930063 
L 216.892884 214.904408 
L 217.361563 213.91098 
L 217.526859 213.642026 
L 217.861015 213.636791 
L 218.190388 214.001779 
L 219.15042 211.701144 
L 219.793412 212.151709 
L 219.976703 211.828917 
L 220.113545 211.960468 
L 220.448371 210.741948 
L 220.774231 210.498338 
L 220.9022 210.702385 
L 221.414733 209.980838 
L 221.720252 210.076122 
L 222.068354 209.044534 
L 222.22749 209.042237 
L 222.53415 209.378555 
L 222.870967 208.901656 
L 223.193617 209.218669 
L 223.343696 209.146027 
L 223.684118 208.472572 
L 223.840868 208.41764 
L 224.005587 208.502566 
L 224.158419 208.427863 
L 224.333558 207.903632 
L 224.503847 207.74684 
L 224.646115 207.85774 
L 224.808738 207.811758 
L 225.309055 206.418679 
L 225.591783 206.159041 
L 225.938299 205.587764 
L 226.415576 205.976623 
L 226.590282 205.700535 
L 226.762983 205.860334 
L 227.074741 205.494554 
L 227.247953 205.579919 
L 227.548243 204.682046 
L 227.728559 204.522957 
L 227.877773 204.212314 
L 228.199977 203.357674 
L 228.365024 203.227188 
L 228.66631 202.602637 
L 229.002341 201.806837 
L 229.151411 201.417148 
L 229.31849 201.313941 
L 229.473392 201.365287 
L 229.639973 200.925738 
L 229.803696 200.977521 
L 230.130212 200.631912 
L 230.272572 200.045109 
L 230.768433 199.266028 
L 230.912366 199.380276 
L 231.114189 199.481203 
L 231.249288 199.400136 
L 231.424309 199.861795 
L 232.058218 197.752087 
L 232.378548 196.947306 
L 232.698288 196.274451 
L 232.849402 196.379439 
L 233.007516 196.351992 
L 233.34221 195.242414 
L 233.506169 195.253002 
L 233.821165 195.677277 
L 234.155413 195.184115 
L 234.474406 195.713041 
L 235.285367 195.159426 
L 235.449785 194.673097 
L 235.762749 193.306393 
L 235.911466 193.210608 
L 236.24612 192.614428 
L 236.419961 192.155112 
L 236.723672 192.285717 
L 237.046571 191.985418 
L 237.235641 191.820365 
L 237.381737 192.03324 
L 237.53719 192.005349 
L 237.710231 192.216435 
L 237.863168 192.121967 
L 238.038687 191.802222 
L 238.195437 191.993007 
L 238.510603 191.872839 
L 238.678704 191.625873 
L 238.998915 190.722102 
L 239.306532 189.899093 
L 239.475301 189.444381 
L 239.9463 189.286242 
L 240.144361 189.540281 
L 240.301505 189.556537 
L 240.781416 188.756408 
L 241.079387 187.470784 
L 241.731239 186.024738 
L 241.880479 185.992472 
L 242.051293 185.759191 
L 242.37621 185.765039 
L 242.872412 185.583477 
L 243.025323 185.925098 
L 243.182309 185.921191 
L 243.687279 185.32431 
L 244.169851 185.243176 
L 244.653314 184.654455 
L 244.951743 183.757266 
L 245.110119 183.709349 
L 245.453109 183.109514 
L 245.771106 183.717778 
L 245.917241 183.464198 
L 246.1166 182.622791 
L 246.406496 182.459175 
L 246.568974 182.62604 
L 246.735555 182.366853 
L 247.07675 181.434176 
L 247.213002 181.575072 
L 247.704355 180.402977 
L 248.026415 180.853662 
L 248.368251 180.086311 
L 248.663103 179.613449 
L 248.822016 179.476277 
L 249.025136 179.067988 
L 249.330747 179.582801 
L 249.47717 179.439838 
L 249.650959 179.081357 
L 249.829794 178.247991 
L 249.961171 178.191841 
L 250.6255 177.208493 
L 250.930954 177.680866 
L 251.109435 177.527687 
L 251.264468 177.132637 
L 251.428191 177.047143 
L 251.585348 177.16519 
L 252.230005 176.576047 
L 252.389102 176.523103 
L 253.03786 175.41413 
L 253.501231 173.353109 
L 253.996346 172.878886 
L 254.157985 173.081001 
L 254.477948 173.960268 
L 254.66171 174.037789 
L 254.975696 173.279222 
L 255.142329 173.071741 
L 255.449435 172.305543 
L 255.785059 172.416276 
L 256.131706 172.918599 
L 256.278745 172.667625 
L 256.606886 171.786392 
L 256.745183 171.942384 
L 257.070899 171.379514 
L 257.252211 171.346278 
L 257.549854 170.752629 
L 257.891704 169.456369 
L 258.027052 168.707471 
L 258.36016 168.893452 
L 258.694173 168.542926 
L 258.982654 168.633885 
L 259.16812 168.387236 
L 259.339078 168.358061 
L 259.668818 168.007025 
L 259.810182 168.010445 
L 260.449268 165.99345 
L 260.767881 165.664752 
L 260.942102 165.604911 
L 261.726616 164.248603 
L 262.059409 164.181739 
L 262.38831 164.520396 
L 262.548036 164.281002 
L 263.006846 163.106563 
L 263.189167 162.897784 
L 263.341868 162.304107 
L 263.509431 162.21039 
L 263.696667 161.937315 
L 263.820809 162.119243 
L 263.981282 161.758197 
L 264.176263 161.604755 
L 264.48426 160.814564 
L 264.799911 160.751554 
L 264.955705 160.385641 
L 265.120568 160.49691 
L 265.286231 160.291595 
L 265.460518 160.317331 
L 265.600269 160.008745 
L 265.771974 160.081401 
L 266.246971 159.318732 
L 266.432345 159.233453 
L 266.5654 158.96269 
L 266.907643 158.695575 
L 267.226937 158.131788 
L 267.384985 158.123043 
L 268.012565 156.049876 
L 268.33064 155.416545 
L 268.50203 155.358633 
L 268.666199 155.440428 
L 268.818991 155.990894 
L 268.99721 156.051297 
L 269.165651 155.95457 
L 269.488183 155.016354 
L 270.279695 152.721932 
L 270.425502 153.173481 
L 270.769986 153.177395 
L 270.916029 152.893583 
L 271.232636 152.898467 
L 271.563543 152.075651 
L 271.744068 151.951693 
L 271.875419 151.45699 
L 272.037569 151.552757 
L 272.363705 150.507638 
L 272.519695 150.597492 
L 272.694441 150.857312 
L 272.838151 150.851902 
L 273.326332 150.00892 
L 273.641642 149.408251 
L 273.82011 148.775104 
L 274.294398 149.074049 
L 274.470769 148.887696 
L 275.256567 146.509959 
L 275.416882 146.320412 
L 275.576044 146.571973 
L 276.550257 144.394457 
L 276.716733 144.449155 
L 276.873981 144.722285 
L 277.198767 144.838865 
L 277.532557 144.053636 
L 277.840986 143.997667 
L 278.172338 143.138196 
L 278.328787 142.929214 
L 278.484974 142.985101 
L 278.625853 142.802064 
L 278.814806 142.747985 
L 279.297849 142.097895 
L 279.759962 140.27982 
L 280.063555 139.911032 
L 280.414606 139.31287 
L 280.873757 139.351087 
L 281.075881 138.813802 
L 281.231098 138.764317 
L 281.378845 139.003007 
L 281.532306 138.835919 
L 282.034196 137.482356 
L 282.165193 137.558298 
L 282.339244 137.408861 
L 282.833782 136.340212 
L 282.97356 136.275038 
L 283.309735 135.650366 
L 283.624324 135.982646 
L 283.800078 136.110957 
L 284.132413 136.014157 
L 284.284577 136.046418 
L 284.621997 136.392204 
L 284.944305 136.067706 
L 285.110204 136.122646 
L 285.581007 134.145557 
L 285.867837 133.442562 
L 286.224602 132.948759 
L 286.536294 131.9391 
L 286.679663 131.611465 
L 286.849704 130.933562 
L 287.339313 131.195631 
L 287.507925 130.891527 
L 287.958308 128.6519 
L 288.274929 128.060978 
L 288.618954 128.144604 
L 289.237333 127.238927 
L 289.598488 127.502971 
L 289.756602 127.833003 
L 290.071571 127.556734 
L 290.542426 126.681343 
L 290.731798 126.574534 
L 290.88847 126.788989 
L 291.190228 126.300304 
L 291.372116 125.699835 
L 291.525826 124.806029 
L 291.65951 124.743972 
L 292.163366 123.530223 
L 292.457785 124.057204 
L 292.648546 123.964645 
L 292.986464 123.201481 
L 293.118287 122.782192 
L 293.286702 122.770992 
L 293.433322 122.530421 
L 293.77702 122.711234 
L 293.953928 123.174176 
L 294.123837 123.197032 
L 295.238142 120.790483 
L 295.881737 119.958727 
L 296.032433 119.874585 
L 296.195842 119.996042 
L 296.526604 119.205575 
L 296.669055 118.503965 
L 296.835688 118.267989 
L 296.978638 118.297453 
L 297.316858 117.924753 
L 297.656217 118.201132 
L 297.789547 118.17246 
L 298.133258 117.567354 
L 298.7549 115.40106 
L 299.076921 115.173319 
L 299.424197 114.761426 
L 299.573804 114.971638 
L 299.721748 114.853859 
L 299.886663 114.947711 
L 300.066927 114.708669 
L 300.232799 114.811095 
L 300.384242 115.309035 
L 300.564754 115.305966 
L 301.677133 112.160663 
L 301.850345 112.035011 
L 302.322786 110.685354 
L 302.456915 110.308489 
L 302.79676 110.676061 
L 302.945896 110.526164 
L 303.127155 110.020432 
L 303.284692 110.521087 
L 303.945718 109.640615 
L 304.065693 109.346012 
L 304.243675 109.405204 
L 304.896314 107.488612 
L 305.194507 106.850263 
L 305.350733 106.847298 
L 305.529529 106.983444 
L 305.845507 106.749167 
L 306.020462 106.77677 
L 306.178248 106.558086 
L 306.492903 105.671486 
L 306.671881 105.54632 
L 306.972067 104.595506 
L 307.440589 104.084506 
L 307.785165 104.370776 
L 308.109924 103.990132 
L 308.560635 102.044277 
L 308.736088 101.764289 
L 309.395122 102.336905 
L 310.034851 100.909785 
L 310.185612 100.684125 
L 310.370515 100.611432 
L 310.846979 100.948502 
L 311.01909 100.808141 
L 311.176548 100.363984 
L 311.340363 100.265787 
L 311.975059 98.67953 
L 312.445311 98.412576 
L 313.096783 97.280671 
L 313.255381 97.33342 
L 313.59229 96.916225 
L 313.899304 96.679473 
L 314.063486 96.389086 
L 314.850267 93.582237 
L 315.171068 92.237279 
L 315.314227 91.81271 
L 315.471411 91.708616 
L 315.647191 91.915536 
L 315.981322 91.831339 
L 316.314155 92.387845 
L 316.445401 91.901043 
L 317.096008 91.342217 
L 317.289141 91.395045 
L 317.593481 90.380889 
L 317.904925 89.364112 
L 318.237902 88.349547 
L 318.861313 87.039329 
L 319.030646 86.561688 
L 319.168851 86.598708 
L 319.336323 86.268285 
L 319.67141 86.213246 
L 319.840598 85.747398 
L 320.144768 85.491324 
L 320.64599 83.941684 
L 320.797996 83.621977 
L 320.931037 83.706375 
L 321.105246 83.65296 
L 321.439114 83.004221 
L 321.612758 83.126283 
L 321.749391 83.026705 
L 322.080861 82.177015 
L 322.383418 81.202006 
L 322.559553 81.103079 
L 323.667188 78.85855 
L 323.995682 78.588428 
L 324.168016 78.724683 
L 324.636093 78.3276 
L 324.953539 77.358345 
L 325.126384 77.3141 
L 325.292702 77.123949 
L 325.612193 76.062362 
L 325.77239 75.875763 
L 326.243652 74.591059 
L 327.520265 71.284395 
L 327.674014 71.179974 
L 327.82623 71.30221 
L 327.998656 71.673182 
L 328.149771 71.007156 
L 328.638384 70.128676 
L 328.972082 69.251639 
L 329.115347 69.017235 
L 329.288323 69.091614 
L 329.612545 69.984748 
L 329.930017 69.320867 
L 330.39715 68.357324 
L 330.739957 67.584638 
L 331.060915 67.359496 
L 332.172193 65.170099 
L 332.497477 65.211209 
L 333.446513 62.450416 
L 333.629961 62.295791 
L 333.784733 62.572297 
L 334.100488 61.919527 
L 334.72601 59.57161 
L 334.877649 59.528825 
L 335.059367 59.358722 
L 335.552319 59.684498 
L 335.867458 58.807064 
L 336.160841 56.368845 
L 336.160841 56.368845 
" clip-path="url(#p67c9d8937d)" style="fill: none; stroke: #a6cee3; stroke-opacity: 0.5; stroke-width: 1.5; stroke-linecap: square"/>
   </g>
   <g id="line2d_36">
    <path d="M 71.862699 305.179345 
L 86.545463 305.071125 
L 89.173634 304.665404 
L 92.559712 303.905103 
L 96.312374 302.831613 
L 100.56302 301.378668 
L 105.118397 299.584084 
L 110.011012 297.417273 
L 115.207782 294.87333 
L 120.704899 291.936188 
L 126.558872 288.553701 
L 132.705709 284.741143 
L 139.205875 280.439548 
L 145.849111 275.775605 
L 152.809039 270.617038 
L 160.094614 264.935969 
L 167.550553 258.84072 
L 175.350863 252.175327 
L 183.4165 244.988407 
L 191.83766 237.180349 
L 200.383157 228.953973 
L 209.289435 220.070075 
L 218.505711 210.558162 
L 228.02839 200.403965 
L 237.710231 189.754432 
L 247.704355 178.430993 
L 258.027052 166.396865 
L 268.666199 153.648023 
L 279.59755 140.197509 
L 290.731798 126.144956 
L 302.122339 111.414662 
L 313.899304 95.821776 
L 326.079732 79.320832 
L 336.160841 65.386173 
L 336.160841 65.386173 
" clip-path="url(#p67c9d8937d)" style="fill: none; stroke-dasharray: 5.55,2.4; stroke-dashoffset: 0; stroke: #1f78b4; stroke-opacity: 0.7; stroke-width: 1.5"/>
   </g>
   <g id="line2d_37">
    <path d="M 71.862699 305.179345 
L 86.545463 305.071102 
L 89.173634 304.665085 
L 92.410016 303.94189 
L 96.141055 302.881314 
L 100.392939 301.432387 
L 104.958453 299.634089 
L 109.835282 297.46997 
L 115.034805 294.914862 
L 120.543618 291.954195 
L 126.368818 288.562722 
L 132.373873 284.806391 
L 138.714948 280.5722 
L 145.225571 275.956034 
L 151.994207 270.884393 
L 158.977172 265.376091 
L 166.274385 259.334908 
L 173.699227 252.902758 
L 181.431319 245.911755 
L 189.410522 238.397039 
L 197.646863 230.332728 
L 206.053952 221.791128 
L 214.779372 212.606587 
L 223.684118 202.909155 
L 232.849402 192.597259 
L 242.208345 181.732155 
L 251.90362 170.130137 
L 261.726616 158.026248 
L 271.875419 145.162385 
L 282.165193 131.758037 
L 292.648546 117.736806 
L 303.417642 102.95994 
L 314.378272 87.541298 
L 325.612193 71.351112 
L 336.160841 55.8 
L 336.160841 55.8 
" clip-path="url(#p67c9d8937d)" style="fill: none; stroke: #1f77b4; stroke-width: 2.5; stroke-linecap: square"/>
   </g>
   <g id="patch_3">
    <path d="M 72 320.4 
L 72 43.2 
" style="fill: none; stroke: #000000; stroke-width: 0.8; stroke-linejoin: miter; stroke-linecap: square"/>
   </g>
   <g id="patch_4">
    <path d="M 349.267081 320.4 
L 349.267081 43.2 
" style="fill: none; stroke: #000000; stroke-width: 0.8; stroke-linejoin: miter; stroke-linecap: square"/>
   </g>
   <g id="patch_5">
    <path d="M 72 320.4 
L 349.267081 320.4 
" style="fill: none; stroke: #000000; stroke-width: 0.8; stroke-linejoin: miter; stroke-linecap: square"/>
   </g>
   <g id="patch_6">
    <path d="M 72 43.2 
L 349.267081 43.2 
" style="fill: none; stroke: #000000; stroke-width: 0.8; stroke-linejoin: miter; stroke-linecap: square"/>
   </g>
   <g id="text_22">
    <!-- Control-Cell11 Sneddon Model Fit Quality -->
    <g transform="translate(46.34854 26.601562) scale(0.16 -0.16)">
     <defs>
      <path id="DejaVuSans-43" d="M 4122 4306 
L 4122 3641 
Q 3803 3938 3442 4084 
Q 3081 4231 2675 4231 
Q 1875 4231 1450 3742 
Q 1025 3253 1025 2328 
Q 1025 1406 1450 917 
Q 1875 428 2675 428 
Q 3081 428 3442 575 
Q 3803 722 4122 1019 
L 4122 359 
Q 3791 134 3420 21 
Q 3050 -91 2638 -91 
Q 1578 -91 968 557 
Q 359 1206 359 2328 
Q 359 3453 968 4101 
Q 1578 4750 2638 4750 
Q 3056 4750 3426 4639 
Q 3797 4528 4122 4306 
z
" transform="scale(0.015625)"/>
      <path id="DejaVuSans-6c" d="M 603 4863 
L 1178 4863 
L 1178 0 
L 603 0 
L 603 4863 
z
" transform="scale(0.015625)"/>
      <path id="DejaVuSans-2d" d="M 313 2009 
L 1997 2009 
L 1997 1497 
L 313 1497 
L 313 2009 
z
" transform="scale(0.015625)"/>
      <path id="DejaVuSans-53" d="M 3425 4513 
L 3425 3897 
Q 3066 4069 2747 4153 
Q 2428 4238 2131 4238 
Q 1616 4238 1336 4038 
Q 1056 3838 1056 3469 
Q 1056 3159 1242 3001 
Q 1428 2844 1947 2747 
L 2328 2669 
Q 3034 2534 3370 2195 
Q 3706 1856 3706 1288 
Q 3706 609 3251 259 
Q 2797 -91 1919 -91 
Q 1588 -91 1214 -16 
Q 841 59 441 206 
L 441 856 
Q 825 641 1194 531 
Q 1563 422 1919 422 
Q 2459 422 2753 634 
Q 3047 847 3047 1241 
Q 3047 1584 2836 1778 
Q 2625 1972 2144 2069 
L 1759 2144 
Q 1053 2284 737 2584 
Q 422 2884 422 3419 
Q 422 4038 858 4394 
Q 1294 4750 2059 4750 
Q 2388 4750 2728 4690 
Q 3069 4631 3425 4513 
z
" transform="scale(0.015625)"/>
      <path id="DejaVuSans-4d" d="M 628 4666 
L 1569 4666 
L 2759 1491 
L 3956 4666 
L 4897 4666 
L 4897 0 
L 4281 0 
L 4281 4097 
L 3078 897 
L 2444 897 
L 1241 4097 
L 1241 0 
L 628 0 
L 628 4666 
z
" transform="scale(0.015625)"/>
      <path id="DejaVuSans-51" d="M 2522 4238 
Q 1834 4238 1429 3725 
Q 1025 3213 1025 2328 
Q 1025 1447 1429 934 
Q 1834 422 2522 422 
Q 3209 422 3611 934 
Q 4013 1447 4013 2328 
Q 4013 3213 3611 3725 
Q 3209 4238 2522 4238 
z
M 3406 84 
L 4238 -825 
L 3475 -825 
L 2784 -78 
Q 2681 -84 2626 -87 
Q 2572 -91 2522 -91 
Q 1538 -91 948 567 
Q 359 1225 359 2328 
Q 359 3434 948 4092 
Q 1538 4750 2522 4750 
Q 3503 4750 4090 4092 
Q 4678 3434 4678 2328 
Q 4678 1516 4351 937 
Q 4025 359 3406 84 
z
" transform="scale(0.015625)"/>
      <path id="DejaVuSans-75" d="M 544 1381 
L 544 3500 
L 1119 3500 
L 1119 1403 
Q 1119 906 1312 657 
Q 1506 409 1894 409 
Q 2359 409 2629 706 
Q 2900 1003 2900 1516 
L 2900 3500 
L 3475 3500 
L 3475 0 
L 2900 0 
L 2900 538 
Q 2691 219 2414 64 
Q 2138 -91 1772 -91 
Q 1169 -91 856 284 
Q 544 659 544 1381 
z
M 1991 3584 
L 1991 3584 
z
" transform="scale(0.015625)"/>
      <path id="DejaVuSans-79" d="M 2059 -325 
Q 1816 -950 1584 -1140 
Q 1353 -1331 966 -1331 
L 506 -1331 
L 506 -850 
L 844 -850 
Q 1081 -850 1212 -737 
Q 1344 -625 1503 -206 
L 1606 56 
L 191 3500 
L 800 3500 
L 1894 763 
L 2988 3500 
L 3597 3500 
L 2059 -325 
z
" transform="scale(0.015625)"/>
     </defs>
     <use xlink:href="#DejaVuSans-43"/>
     <use xlink:href="#DejaVuSans-6f" transform="translate(69.824219 0)"/>
     <use xlink:href="#DejaVuSans-6e" transform="translate(131.005859 0)"/>
     <use xlink:href="#DejaVuSans-74" transform="translate(194.384766 0)"/>
     <use xlink:href="#DejaVuSans-72" transform="translate(233.59375 0)"/>
     <use xlink:href="#DejaVuSans-6f" transform="translate(272.457031 0)"/>
     <use xlink:href="#DejaVuSans-6c" transform="translate(333.638672 0)"/>
     <use xlink:href="#DejaVuSans-2d" transform="translate(361.421875 0)"/>
     <use xlink:href="#DejaVuSans-43" transform="translate(397.505859 0)"/>
     <use xlink:href="#DejaVuSans-65" transform="translate(467.330078 0)"/>
     <use xlink:href="#DejaVuSans-6c" transform="translate(528.853516 0)"/>
     <use xlink:href="#DejaVuSans-6c" transform="translate(556.636719 0)"/>
     <use xlink:href="#DejaVuSans-31" transform="translate(584.419922 0)"/>
     <use xlink:href="#DejaVuSans-31" transform="translate(648.042969 0)"/>
     <use xlink:href="#DejaVuSans-20" transform="translate(711.666016 0)"/>
     <use xlink:href="#DejaVuSans-53" transform="translate(743.453125 0)"/>
     <use xlink:href="#DejaVuSans-6e" transform="translate(806.929688 0)"/>
     <use xlink:href="#DejaVuSans-65" transform="translate(870.308594 0)"/>
     <use xlink:href="#DejaVuSans-64" transform="translate(931.832031 0)"/>
     <use xlink:href="#DejaVuSans-64" transform="translate(995.308594 0)"/>
     <use xlink:href="#DejaVuSans-6f" transform="translate(1058.785156 0)"/>
     <use xlink:href="#DejaVuSans-6e" transform="translate(1119.966797 0)"/>
     <use xlink:href="#DejaVuSans-20" transform="translate(1183.345703 0)"/>
     <use xlink:href="#DejaVuSans-4d" transform="translate(1215.132812 0)"/>
     <use xlink:href="#DejaVuSans-6f" transform="translate(1301.412109 0)"/>
     <use xlink:href="#DejaVuSans-64" transform="translate(1362.59375 0)"/>
     <use xlink:href="#DejaVuSans-65" transform="translate(1426.070312 0)"/>
     <use xlink:href="#DejaVuSans-6c" transform="translate(1487.59375 0)"/>
     <use xlink:href="#DejaVuSans-20" transform="translate(1515.376953 0)"/>
     <use xlink:href="#DejaVuSans-46" transform="translate(1547.164062 0)"/>
     <use xlink:href="#DejaVuSans-69" transform="translate(1597.433594 0)"/>
     <use xlink:href="#DejaVuSans-74" transform="translate(1625.216797 0)"/>
     <use xlink:href="#DejaVuSans-20" transform="translate(1664.425781 0)"/>
     <use xlink:href="#DejaVuSans-51" transform="translate(1696.212891 0)"/>
     <use xlink:href="#DejaVuSans-75" transform="translate(1774.923828 0)"/>
     <use xlink:href="#DejaVuSans-61" transform="translate(1838.302734 0)"/>
     <use xlink:href="#DejaVuSans-6c" transform="translate(1899.582031 0)"/>
     <use xlink:href="#DejaVuSans-69" transform="translate(1927.365234 0)"/>
     <use xlink:href="#DejaVuSans-74" transform="translate(1955.148438 0)"/>
     <use xlink:href="#DejaVuSans-79" transform="translate(1994.357422 0)"/>
    </g>
   </g>
   <g id="legend_1">
    <g id="patch_7">
     <path d="M 79 80.55625 
L 215.540625 80.55625 
Q 217.540625 80.55625 217.540625 78.55625 
L 217.540625 50.2 
Q 217.540625 48.2 215.540625 48.2 
L 79 48.2 
Q 77 48.2 77 50.2 
L 77 78.55625 
Q 77 80.55625 79 80.55625 
z
" style="fill: #ffffff; opacity: 0.8; stroke: #cccccc; stroke-linejoin: miter"/>
    </g>
    <g id="line2d_38">
     <path d="M 81 56.298437 
L 91 56.298437 
L 101 56.298437 
" style="fill: none; stroke-dasharray: 5.55,2.4; stroke-dashoffset: 0; stroke: #1f78b4; stroke-opacity: 0.7; stroke-width: 1.5"/>
    </g>
    <g id="text_23">
     <!-- Test 50 Fit: 144 Pa -->
     <g transform="translate(109 59.798437) scale(0.1 -0.1)">
      <defs>
       <path id="DejaVuSans-54" d="M -19 4666 
L 3928 4666 
L 3928 4134 
L 2272 4134 
L 2272 0 
L 1638 0 
L 1638 4134 
L -19 4134 
L -19 4666 
z
" transform="scale(0.015625)"/>
       <path id="DejaVuSans-73" d="M 2834 3397 
L 2834 2853 
Q 2591 2978 2328 3040 
Q 2066 3103 1784 3103 
Q 1356 3103 1142 2972 
Q 928 2841 928 2578 
Q 928 2378 1081 2264 
Q 1234 2150 1697 2047 
L 1894 2003 
Q 2506 1872 2764 1633 
Q 3022 1394 3022 966 
Q 3022 478 2636 193 
Q 2250 -91 1575 -91 
Q 1294 -91 989 -36 
Q 684 19 347 128 
L 347 722 
Q 666 556 975 473 
Q 1284 391 1588 391 
Q 1994 391 2212 530 
Q 2431 669 2431 922 
Q 2431 1156 2273 1281 
Q 2116 1406 1581 1522 
L 1381 1569 
Q 847 1681 609 1914 
Q 372 2147 372 2553 
Q 372 3047 722 3315 
Q 1072 3584 1716 3584 
Q 2034 3584 2315 3537 
Q 2597 3491 2834 3397 
z
" transform="scale(0.015625)"/>
       <path id="DejaVuSans-3a" d="M 750 794 
L 1409 794 
L 1409 0 
L 750 0 
L 750 794 
z
M 750 3309 
L 1409 3309 
L 1409 2516 
L 750 2516 
L 750 3309 
z
" transform="scale(0.015625)"/>
       <path id="DejaVuSans-50" d="M 1259 4147 
L 1259 2394 
L 2053 2394 
Q 2494 2394 2734 2622 
Q 2975 2850 2975 3272 
Q 2975 3691 2734 3919 
Q 2494 4147 2053 4147 
L 1259 4147 
z
M 628 4666 
L 2053 4666 
Q 2838 4666 3239 4311 
Q 3641 3956 3641 3272 
Q 3641 2581 3239 2228 
Q 2838 1875 2053 1875 
L 1259 1875 
L 1259 0 
L 628 0 
L 628 4666 
z
" transform="scale(0.015625)"/>
      </defs>
      <use xlink:href="#DejaVuSans-54"/>
      <use xlink:href="#DejaVuSans-65" transform="translate(44.083984 0)"/>
      <use xlink:href="#DejaVuSans-73" transform="translate(105.607422 0)"/>
      <use xlink:href="#DejaVuSans-74" transform="translate(157.707031 0)"/>
      <use xlink:href="#DejaVuSans-20" transform="translate(196.916016 0)"/>
      <use xlink:href="#DejaVuSans-35" transform="translate(228.703125 0)"/>
      <use xlink:href="#DejaVuSans-30" transform="translate(292.326172 0)"/>
      <use xlink:href="#DejaVuSans-20" transform="translate(355.949219 0)"/>
      <use xlink:href="#DejaVuSans-46" transform="translate(387.736328 0)"/>
      <use xlink:href="#DejaVuSans-69" transform="translate(438.005859 0)"/>
      <use xlink:href="#DejaVuSans-74" transform="translate(465.789062 0)"/>
      <use xlink:href="#DejaVuSans-3a" transform="translate(504.998047 0)"/>
      <use xlink:href="#DejaVuSans-20" transform="translate(538.689453 0)"/>
      <use xlink:href="#DejaVuSans-31" transform="translate(570.476562 0)"/>
      <use xlink:href="#DejaVuSans-34" transform="translate(634.099609 0)"/>
      <use xlink:href="#DejaVuSans-34" transform="translate(697.722656 0)"/>
      <use xlink:href="#DejaVuSans-20" transform="translate(761.345703 0)"/>
      <use xlink:href="#DejaVuSans-50" transform="translate(793.132812 0)"/>
      <use xlink:href="#DejaVuSans-61" transform="translate(848.935547 0)"/>
     </g>
    </g>
    <g id="line2d_39">
     <path d="M 81 70.976562 
L 91 70.976562 
L 101 70.976562 
" style="fill: none; stroke: #1f77b4; stroke-width: 2.5; stroke-linecap: square"/>
    </g>
    <g id="text_24">
     <!-- Mean Cell Fit: 144 Pa -->
     <g transform="translate(109 74.476562) scale(0.1 -0.1)">
      <use xlink:href="#DejaVuSans-4d"/>
      <use xlink:href="#DejaVuSans-65" transform="translate(86.279297 0)"/>
      <use xlink:href="#DejaVuSans-61" transform="translate(147.802734 0)"/>
      <use xlink:href="#DejaVuSans-6e" transform="translate(209.082031 0)"/>
      <use xlink:href="#DejaVuSans-20" transform="translate(272.460938 0)"/>
      <use xlink:href="#DejaVuSans-43" transform="translate(304.248047 0)"/>
      <use xlink:href="#DejaVuSans-65" transform="translate(374.072266 0)"/>
      <use xlink:href="#DejaVuSans-6c" transform="translate(435.595703 0)"/>
      <use xlink:href="#DejaVuSans-6c" transform="translate(463.378906 0)"/>
      <use xlink:href="#DejaVuSans-20" transform="translate(491.162109 0)"/>
      <use xlink:href="#DejaVuSans-46" transform="translate(522.949219 0)"/>
      <use xlink:href="#DejaVuSans-69" transform="translate(573.21875 0)"/>
      <use xlink:href="#DejaVuSans-74" transform="translate(601.001953 0)"/>
      <use xlink:href="#DejaVuSans-3a" transform="translate(640.210938 0)"/>
      <use xlink:href="#DejaVuSans-20" transform="translate(673.902344 0)"/>
      <use xlink:href="#DejaVuSans-31" transform="translate(705.689453 0)"/>
      <use xlink:href="#DejaVuSans-34" transform="translate(769.3125 0)"/>
      <use xlink:href="#DejaVuSans-34" transform="translate(832.935547 0)"/>
      <use xlink:href="#DejaVuSans-20" transform="translate(896.558594 0)"/>
      <use xlink:href="#DejaVuSans-50" transform="translate(928.345703 0)"/>
      <use xlink:href="#DejaVuSans-61" transform="translate(984.148438 0)"/>
     </g>
    </g>
   </g>
  </g>
  <g id="axes_2">
   <g id="patch_8">
    <path d="M 407.493168 320.4 
L 518.4 320.4 
L 518.4 43.2 
L 407.493168 43.2 
z
" style="fill: #ffffff"/>
   </g>
   <g id="PathCollection_1">
    <defs>
     <path id="m7a5f93e085" d="M 0 3 
C 0.795609 3 1.55874 2.683901 2.12132 2.12132 
C 2.683901 1.55874 3 0.795609 3 0 
C 3 -0.795609 2.683901 -1.55874 2.12132 -2.12132 
C 1.55874 -2.683901 0.795609 -3 0 -3 
C -0.795609 -3 -1.55874 -2.683901 -2.12132 -2.12132 
C -2.683901 -1.55874 -3 -0.795609 -3 0 
C -3 0.795609 -2.683901 1.55874 -2.12132 2.12132 
C -1.55874 2.683901 -0.795609 3 0 3 
z
" style="stroke: #a6cee3; stroke-opacity: 0.5"/>
    </defs>
    <g clip-path="url(#pb4fd676770)">
     <use xlink:href="#m7a5f93e085" x="462.774055" y="300.462667" style="fill: #a6cee3; fill-opacity: 0.5; stroke: #a6cee3; stroke-opacity: 0.5"/>
    </g>
   </g>
   <g id="matplotlib.axis_3">
    <g id="xtick_10">
     <g id="line2d_40">
      <g>
       <use xlink:href="#m48a4deda54" x="462.946584" y="320.4" style="stroke: #000000; stroke-width: 0.8"/>
      </g>
     </g>
     <g id="text_25">
      <!-- Certianty -->
      <g transform="translate(439.821584 334.998438) scale(0.1 -0.1)">
       <use xlink:href="#DejaVuSans-43"/>
       <use xlink:href="#DejaVuSans-65" transform="translate(69.824219 0)"/>
       <use xlink:href="#DejaVuSans-72" transform="translate(131.347656 0)"/>
       <use xlink:href="#DejaVuSans-74" transform="translate(172.460938 0)"/>
       <use xlink:href="#DejaVuSans-69" transform="translate(211.669922 0)"/>
       <use xlink:href="#DejaVuSans-61" transform="translate(239.453125 0)"/>
       <use xlink:href="#DejaVuSans-6e" transform="translate(300.732422 0)"/>
       <use xlink:href="#DejaVuSans-74" transform="translate(364.111328 0)"/>
       <use xlink:href="#DejaVuSans-79" transform="translate(403.320312 0)"/>
      </g>
     </g>
    </g>
   </g>
   <g id="matplotlib.axis_4">
    <g id="ytick_9">
     <g id="line2d_41">
      <path d="M 407.493168 320.4 
L 518.4 320.4 
" clip-path="url(#pb4fd676770)" style="fill: none; stroke-dasharray: 2.96,1.28; stroke-dashoffset: 0; stroke: #b0b0b0; stroke-opacity: 0.7; stroke-width: 0.8"/>
     </g>
     <g id="line2d_42">
      <g>
       <use xlink:href="#m37acdbed8d" x="407.493168" y="320.4" style="stroke: #000000; stroke-width: 0.8"/>
      </g>
     </g>
     <g id="text_26">
      <!-- 0 -->
      <g transform="translate(394.130668 324.199219) scale(0.1 -0.1)">
       <use xlink:href="#DejaVuSans-30"/>
      </g>
     </g>
    </g>
    <g id="ytick_10">
     <g id="line2d_43">
      <path d="M 407.493168 285.75 
L 518.4 285.75 
" clip-path="url(#pb4fd676770)" style="fill: none; stroke-dasharray: 2.96,1.28; stroke-dashoffset: 0; stroke: #b0b0b0; stroke-opacity: 0.7; stroke-width: 0.8"/>
     </g>
     <g id="line2d_44">
      <g>
       <use xlink:href="#m37acdbed8d" x="407.493168" y="285.75" style="stroke: #000000; stroke-width: 0.8"/>
      </g>
     </g>
     <g id="text_27">
      <!-- 250 -->
      <g transform="translate(381.405668 289.549219) scale(0.1 -0.1)">
       <use xlink:href="#DejaVuSans-32"/>
       <use xlink:href="#DejaVuSans-35" transform="translate(63.623047 0)"/>
       <use xlink:href="#DejaVuSans-30" transform="translate(127.246094 0)"/>
      </g>
     </g>
    </g>
    <g id="ytick_11">
     <g id="line2d_45">
      <path d="M 407.493168 251.1 
L 518.4 251.1 
" clip-path="url(#pb4fd676770)" style="fill: none; stroke-dasharray: 2.96,1.28; stroke-dashoffset: 0; stroke: #b0b0b0; stroke-opacity: 0.7; stroke-width: 0.8"/>
     </g>
     <g id="line2d_46">
      <g>
       <use xlink:href="#m37acdbed8d" x="407.493168" y="251.1" style="stroke: #000000; stroke-width: 0.8"/>
      </g>
     </g>
     <g id="text_28">
      <!-- 500 -->
      <g transform="translate(381.405668 254.899219) scale(0.1 -0.1)">
       <use xlink:href="#DejaVuSans-35"/>
       <use xlink:href="#DejaVuSans-30" transform="translate(63.623047 0)"/>
       <use xlink:href="#DejaVuSans-30" transform="translate(127.246094 0)"/>
      </g>
     </g>
    </g>
    <g id="ytick_12">
     <g id="line2d_47">
      <path d="M 407.493168 216.45 
L 518.4 216.45 
" clip-path="url(#pb4fd676770)" style="fill: none; stroke-dasharray: 2.96,1.28; stroke-dashoffset: 0; stroke: #b0b0b0; stroke-opacity: 0.7; stroke-width: 0.8"/>
     </g>
     <g id="line2d_48">
      <g>
       <use xlink:href="#m37acdbed8d" x="407.493168" y="216.45" style="stroke: #000000; stroke-width: 0.8"/>
      </g>
     </g>
     <g id="text_29">
      <!-- 750 -->
      <g transform="translate(381.405668 220.249219) scale(0.1 -0.1)">
       <use xlink:href="#DejaVuSans-37"/>
       <use xlink:href="#DejaVuSans-35" transform="translate(63.623047 0)"/>
       <use xlink:href="#DejaVuSans-30" transform="translate(127.246094 0)"/>
      </g>
     </g>
    </g>
    <g id="ytick_13">
     <g id="line2d_49">
      <path d="M 407.493168 181.8 
L 518.4 181.8 
" clip-path="url(#pb4fd676770)" style="fill: none; stroke-dasharray: 2.96,1.28; stroke-dashoffset: 0; stroke: #b0b0b0; stroke-opacity: 0.7; stroke-width: 0.8"/>
     </g>
     <g id="line2d_50">
      <g>
       <use xlink:href="#m37acdbed8d" x="407.493168" y="181.8" style="stroke: #000000; stroke-width: 0.8"/>
      </g>
     </g>
     <g id="text_30">
      <!-- 1000 -->
      <g transform="translate(375.043168 185.599219) scale(0.1 -0.1)">
       <use xlink:href="#DejaVuSans-31"/>
       <use xlink:href="#DejaVuSans-30" transform="translate(63.623047 0)"/>
       <use xlink:href="#DejaVuSans-30" transform="translate(127.246094 0)"/>
       <use xlink:href="#DejaVuSans-30" transform="translate(190.869141 0)"/>
      </g>
     </g>
    </g>
    <g id="ytick_14">
     <g id="line2d_51">
      <path d="M 407.493168 147.15 
L 518.4 147.15 
" clip-path="url(#pb4fd676770)" style="fill: none; stroke-dasharray: 2.96,1.28; stroke-dashoffset: 0; stroke: #b0b0b0; stroke-opacity: 0.7; stroke-width: 0.8"/>
     </g>
     <g id="line2d_52">
      <g>
       <use xlink:href="#m37acdbed8d" x="407.493168" y="147.15" style="stroke: #000000; stroke-width: 0.8"/>
      </g>
     </g>
     <g id="text_31">
      <!-- 1250 -->
      <g transform="translate(375.043168 150.949219) scale(0.1 -0.1)">
       <use xlink:href="#DejaVuSans-31"/>
       <use xlink:href="#DejaVuSans-32" transform="translate(63.623047 0)"/>
       <use xlink:href="#DejaVuSans-35" transform="translate(127.246094 0)"/>
       <use xlink:href="#DejaVuSans-30" transform="translate(190.869141 0)"/>
      </g>
     </g>
    </g>
    <g id="ytick_15">
     <g id="line2d_53">
      <path d="M 407.493168 112.5 
L 518.4 112.5 
" clip-path="url(#pb4fd676770)" style="fill: none; stroke-dasharray: 2.96,1.28; stroke-dashoffset: 0; stroke: #b0b0b0; stroke-opacity: 0.7; stroke-width: 0.8"/>
     </g>
     <g id="line2d_54">
      <g>
       <use xlink:href="#m37acdbed8d" x="407.493168" y="112.5" style="stroke: #000000; stroke-width: 0.8"/>
      </g>
     </g>
     <g id="text_32">
      <!-- 1500 -->
      <g transform="translate(375.043168 116.299219) scale(0.1 -0.1)">
       <use xlink:href="#DejaVuSans-31"/>
       <use xlink:href="#DejaVuSans-35" transform="translate(63.623047 0)"/>
       <use xlink:href="#DejaVuSans-30" transform="translate(127.246094 0)"/>
       <use xlink:href="#DejaVuSans-30" transform="translate(190.869141 0)"/>
      </g>
     </g>
    </g>
    <g id="ytick_16">
     <g id="line2d_55">
      <path d="M 407.493168 77.85 
L 518.4 77.85 
" clip-path="url(#pb4fd676770)" style="fill: none; stroke-dasharray: 2.96,1.28; stroke-dashoffset: 0; stroke: #b0b0b0; stroke-opacity: 0.7; stroke-width: 0.8"/>
     </g>
     <g id="line2d_56">
      <g>
       <use xlink:href="#m37acdbed8d" x="407.493168" y="77.85" style="stroke: #000000; stroke-width: 0.8"/>
      </g>
     </g>
     <g id="text_33">
      <!-- 1750 -->
      <g transform="translate(375.043168 81.649219) scale(0.1 -0.1)">
       <use xlink:href="#DejaVuSans-31"/>
       <use xlink:href="#DejaVuSans-37" transform="translate(63.623047 0)"/>
       <use xlink:href="#DejaVuSans-35" transform="translate(127.246094 0)"/>
       <use xlink:href="#DejaVuSans-30" transform="translate(190.869141 0)"/>
      </g>
     </g>
    </g>
    <g id="ytick_17">
     <g id="line2d_57">
      <path d="M 407.493168 43.2 
L 518.4 43.2 
" clip-path="url(#pb4fd676770)" style="fill: none; stroke-dasharray: 2.96,1.28; stroke-dashoffset: 0; stroke: #b0b0b0; stroke-opacity: 0.7; stroke-width: 0.8"/>
     </g>
     <g id="line2d_58">
      <g>
       <use xlink:href="#m37acdbed8d" x="407.493168" y="43.2" style="stroke: #000000; stroke-width: 0.8"/>
      </g>
     </g>
     <g id="text_34">
      <!-- 2000 -->
      <g transform="translate(375.043168 46.999219) scale(0.1 -0.1)">
       <use xlink:href="#DejaVuSans-32"/>
       <use xlink:href="#DejaVuSans-30" transform="translate(63.623047 0)"/>
       <use xlink:href="#DejaVuSans-30" transform="translate(127.246094 0)"/>
       <use xlink:href="#DejaVuSans-30" transform="translate(190.869141 0)"/>
      </g>
     </g>
    </g>
    <g id="text_35">
     <!-- Young's Modulus [Pa] -->
     <g transform="translate(368.96348 234.553906) rotate(-90) scale(0.1 -0.1)">
      <defs>
       <path id="DejaVuSans-59" d="M -13 4666 
L 666 4666 
L 1959 2747 
L 3244 4666 
L 3922 4666 
L 2272 2222 
L 2272 0 
L 1638 0 
L 1638 2222 
L -13 4666 
z
" transform="scale(0.015625)"/>
       <path id="DejaVuSans-67" d="M 2906 1791 
Q 2906 2416 2648 2759 
Q 2391 3103 1925 3103 
Q 1463 3103 1205 2759 
Q 947 2416 947 1791 
Q 947 1169 1205 825 
Q 1463 481 1925 481 
Q 2391 481 2648 825 
Q 2906 1169 2906 1791 
z
M 3481 434 
Q 3481 -459 3084 -895 
Q 2688 -1331 1869 -1331 
Q 1566 -1331 1297 -1286 
Q 1028 -1241 775 -1147 
L 775 -588 
Q 1028 -725 1275 -790 
Q 1522 -856 1778 -856 
Q 2344 -856 2625 -561 
Q 2906 -266 2906 331 
L 2906 616 
Q 2728 306 2450 153 
Q 2172 0 1784 0 
Q 1141 0 747 490 
Q 353 981 353 1791 
Q 353 2603 747 3093 
Q 1141 3584 1784 3584 
Q 2172 3584 2450 3431 
Q 2728 3278 2906 2969 
L 2906 3500 
L 3481 3500 
L 3481 434 
z
" transform="scale(0.015625)"/>
       <path id="DejaVuSans-27" d="M 1147 4666 
L 1147 2931 
L 616 2931 
L 616 4666 
L 1147 4666 
z
" transform="scale(0.015625)"/>
      </defs>
      <use xlink:href="#DejaVuSans-59"/>
      <use xlink:href="#DejaVuSans-6f" transform="translate(47.833984 0)"/>
      <use xlink:href="#DejaVuSans-75" transform="translate(109.015625 0)"/>
      <use xlink:href="#DejaVuSans-6e" transform="translate(172.394531 0)"/>
      <use xlink:href="#DejaVuSans-67" transform="translate(235.773438 0)"/>
      <use xlink:href="#DejaVuSans-27" transform="translate(299.25 0)"/>
      <use xlink:href="#DejaVuSans-73" transform="translate(326.740234 0)"/>
      <use xlink:href="#DejaVuSans-20" transform="translate(378.839844 0)"/>
      <use xlink:href="#DejaVuSans-4d" transform="translate(410.626953 0)"/>
      <use xlink:href="#DejaVuSans-6f" transform="translate(496.90625 0)"/>
      <use xlink:href="#DejaVuSans-64" transform="translate(558.087891 0)"/>
      <use xlink:href="#DejaVuSans-75" transform="translate(621.564453 0)"/>
      <use xlink:href="#DejaVuSans-6c" transform="translate(684.943359 0)"/>
      <use xlink:href="#DejaVuSans-75" transform="translate(712.726562 0)"/>
      <use xlink:href="#DejaVuSans-73" transform="translate(776.105469 0)"/>
      <use xlink:href="#DejaVuSans-20" transform="translate(828.205078 0)"/>
      <use xlink:href="#DejaVuSans-5b" transform="translate(859.992188 0)"/>
      <use xlink:href="#DejaVuSans-50" transform="translate(899.005859 0)"/>
      <use xlink:href="#DejaVuSans-61" transform="translate(954.808594 0)"/>
      <use xlink:href="#DejaVuSans-5d" transform="translate(1016.087891 0)"/>
     </g>
    </g>
   </g>
   <g id="patch_9">
    <path d="M 435.219876 300.462667 
L 490.673292 300.462667 
L 490.673292 300.462667 
L 476.809938 300.462667 
L 490.673292 300.462667 
L 490.673292 300.462667 
L 435.219876 300.462667 
L 435.219876 300.462667 
L 449.08323 300.462667 
L 435.219876 300.462667 
L 435.219876 300.462667 
z
" clip-path="url(#pb4fd676770)" style="fill: #0000ff; opacity: 0.3; stroke: #0000ff; stroke-linejoin: miter"/>
   </g>
   <g id="line2d_59">
    <path d="M 462.946584 300.462667 
L 462.946584 300.462667 
" clip-path="url(#pb4fd676770)" style="fill: none; stroke: #000000; stroke-opacity: 0; stroke-linecap: square"/>
   </g>
   <g id="line2d_60">
    <path d="M 462.946584 300.462667 
L 462.946584 300.462667 
" clip-path="url(#pb4fd676770)" style="fill: none; stroke: #000000; stroke-opacity: 0; stroke-linecap: square"/>
   </g>
   <g id="line2d_61">
    <path d="M 449.08323 300.462667 
L 476.809938 300.462667 
" clip-path="url(#pb4fd676770)" style="fill: none; stroke: #000000; stroke-opacity: 0; stroke-linecap: square"/>
   </g>
   <g id="line2d_62">
    <path d="M 449.08323 300.462667 
L 476.809938 300.462667 
" clip-path="url(#pb4fd676770)" style="fill: none; stroke: #000000; stroke-opacity: 0; stroke-linecap: square"/>
   </g>
   <g id="line2d_63"/>
   <g id="patch_10">
    <path d="M 421.356522 300.462667 
L 504.536646 300.462667 
L 504.536646 300.462667 
L 483.741615 300.462667 
L 504.536646 300.462667 
L 504.536646 300.462667 
L 421.356522 300.462667 
L 421.356522 300.462667 
L 442.151553 300.462667 
L 421.356522 300.462667 
L 421.356522 300.462667 
z
" clip-path="url(#pb4fd676770)" style="fill: #0000ff; opacity: 0.1; stroke: #0000ff; stroke-linejoin: miter"/>
   </g>
   <g id="line2d_64">
    <path d="M 462.946584 300.462667 
L 462.946584 300.462667 
" clip-path="url(#pb4fd676770)" style="fill: none; stroke: #000000; stroke-linecap: square"/>
   </g>
   <g id="line2d_65">
    <path d="M 462.946584 300.462667 
L 462.946584 300.462667 
" clip-path="url(#pb4fd676770)" style="fill: none; stroke: #000000; stroke-linecap: square"/>
   </g>
   <g id="line2d_66">
    <path d="M 442.151553 300.462667 
L 483.741615 300.462667 
" clip-path="url(#pb4fd676770)" style="fill: none; stroke: #000000; stroke-linecap: square"/>
   </g>
   <g id="line2d_67">
    <path d="M 442.151553 300.462667 
L 483.741615 300.462667 
" clip-path="url(#pb4fd676770)" style="fill: none; stroke: #000000; stroke-linecap: square"/>
   </g>
   <g id="line2d_68"/>
   <g id="LineCollection_1">
    <path d="M 435.219876 300.462667 
L 490.673292 300.462667 
" clip-path="url(#pb4fd676770)" style="fill: none; stroke: #0000ff; stroke-width: 3"/>
   </g>
   <g id="LineCollection_2">
    <path clip-path="url(#pb4fd676770)" style="fill: none; stroke: #00008b; stroke-width: 2"/>
    <path clip-path="url(#pb4fd676770)" style="fill: none; stroke: #00008b; stroke-width: 2"/>
   </g>
   <g id="LineCollection_3">
    <path clip-path="url(#pb4fd676770)" style="fill: none; stroke: #00008b; stroke-width: 2"/>
   </g>
   <g id="line2d_69">
    <path d="M 449.08323 300.462667 
L 476.809938 300.462667 
" clip-path="url(#pb4fd676770)" style="fill: none; stroke: #ff7f0e; stroke-opacity: 0"/>
   </g>
   <g id="line2d_70">
    <path d="M 442.151553 300.462667 
L 483.741615 300.462667 
" clip-path="url(#pb4fd676770)" style="fill: none; stroke: #000000"/>
   </g>
   <g id="patch_11">
    <path d="M 407.493168 320.4 
L 407.493168 43.2 
" style="fill: none; stroke: #000000; stroke-width: 0.8; stroke-linejoin: miter; stroke-linecap: square"/>
   </g>
   <g id="patch_12">
    <path d="M 518.4 320.4 
L 518.4 43.2 
" style="fill: none; stroke: #000000; stroke-width: 0.8; stroke-linejoin: miter; stroke-linecap: square"/>
   </g>
   <g id="patch_13">
    <path d="M 407.493168 320.4 
L 518.4 320.4 
" style="fill: none; stroke: #000000; stroke-width: 0.8; stroke-linejoin: miter; stroke-linecap: square"/>
   </g>
   <g id="patch_14">
    <path d="M 407.493168 43.2 
L 518.4 43.2 
" style="fill: none; stroke: #000000; stroke-width: 0.8; stroke-linejoin: miter; stroke-linecap: square"/>
   </g>
   <g id="text_36">
    <!-- Young's Modulus  -->
    <g transform="translate(411.348459 23.762625) scale(0.12 -0.12)">
     <use xlink:href="#DejaVuSans-59"/>
     <use xlink:href="#DejaVuSans-6f" transform="translate(47.833984 0)"/>
     <use xlink:href="#DejaVuSans-75" transform="translate(109.015625 0)"/>
     <use xlink:href="#DejaVuSans-6e" transform="translate(172.394531 0)"/>
     <use xlink:href="#DejaVuSans-67" transform="translate(235.773438 0)"/>
     <use xlink:href="#DejaVuSans-27" transform="translate(299.25 0)"/>
     <use xlink:href="#DejaVuSans-73" transform="translate(326.740234 0)"/>
     <use xlink:href="#DejaVuSans-20" transform="translate(378.839844 0)"/>
     <use xlink:href="#DejaVuSans-4d" transform="translate(410.626953 0)"/>
     <use xlink:href="#DejaVuSans-6f" transform="translate(496.90625 0)"/>
     <use xlink:href="#DejaVuSans-64" transform="translate(558.087891 0)"/>
     <use xlink:href="#DejaVuSans-75" transform="translate(621.564453 0)"/>
     <use xlink:href="#DejaVuSans-6c" transform="translate(684.943359 0)"/>
     <use xlink:href="#DejaVuSans-75" transform="translate(712.726562 0)"/>
     <use xlink:href="#DejaVuSans-73" transform="translate(776.105469 0)"/>
     <use xlink:href="#DejaVuSans-20" transform="translate(828.205078 0)"/>
    </g>
    <!-- Confidence -->
    <g transform="translate(429.209709 37.2) scale(0.12 -0.12)">
     <defs>
      <path id="DejaVuSans-66" d="M 2375 4863 
L 2375 4384 
L 1825 4384 
Q 1516 4384 1395 4259 
Q 1275 4134 1275 3809 
L 1275 3500 
L 2222 3500 
L 2222 3053 
L 1275 3053 
L 1275 0 
L 697 0 
L 697 3053 
L 147 3053 
L 147 3500 
L 697 3500 
L 697 3744 
Q 697 4328 969 4595 
Q 1241 4863 1831 4863 
L 2375 4863 
z
" transform="scale(0.015625)"/>
     </defs>
     <use xlink:href="#DejaVuSans-43"/>
     <use xlink:href="#DejaVuSans-6f" transform="translate(69.824219 0)"/>
     <use xlink:href="#DejaVuSans-6e" transform="translate(131.005859 0)"/>
     <use xlink:href="#DejaVuSans-66" transform="translate(194.384766 0)"/>
     <use xlink:href="#DejaVuSans-69" transform="translate(229.589844 0)"/>
     <use xlink:href="#DejaVuSans-64" transform="translate(257.373047 0)"/>
     <use xlink:href="#DejaVuSans-65" transform="translate(320.849609 0)"/>
     <use xlink:href="#DejaVuSans-6e" transform="translate(382.373047 0)"/>
     <use xlink:href="#DejaVuSans-63" transform="translate(445.751953 0)"/>
     <use xlink:href="#DejaVuSans-65" transform="translate(500.732422 0)"/>
    </g>
   </g>
   <g id="legend_2">
    <g id="patch_15">
     <path d="M 414.124141 163.072781 
L 511.75 163.072781 
Q 513.65 163.072781 513.65 161.172781 
L 513.65 49.85 
Q 513.65 47.95 511.75 47.95 
L 414.124141 47.95 
Q 412.224141 47.95 412.224141 49.85 
L 412.224141 161.172781 
Q 412.224141 163.072781 414.124141 163.072781 
z
" style="fill: #ffffff; opacity: 0.8; stroke: #cccccc; stroke-linejoin: miter"/>
    </g>
    <g id="patch_16">
     <path d="M 416.024141 65.275328 
L 435.024141 65.275328 
L 435.024141 58.625328 
L 416.024141 58.625328 
z
" style="fill: #0000ff; opacity: 0.3; stroke: #0000ff; stroke-linejoin: miter"/>
    </g>
    <g id="text_37">
     <!-- Notched  -->
     <g transform="translate(442.624141 58.968516) scale(0.095 -0.095)">
      <defs>
       <path id="DejaVuSans-68" d="M 3513 2113 
L 3513 0 
L 2938 0 
L 2938 2094 
Q 2938 2591 2744 2837 
Q 2550 3084 2163 3084 
Q 1697 3084 1428 2787 
Q 1159 2491 1159 1978 
L 1159 0 
L 581 0 
L 581 4863 
L 1159 4863 
L 1159 2956 
Q 1366 3272 1645 3428 
Q 1925 3584 2291 3584 
Q 2894 3584 3203 3211 
Q 3513 2838 3513 2113 
z
" transform="scale(0.015625)"/>
      </defs>
      <use xlink:href="#DejaVuSans-4e"/>
      <use xlink:href="#DejaVuSans-6f" transform="translate(74.804688 0)"/>
      <use xlink:href="#DejaVuSans-74" transform="translate(135.986328 0)"/>
      <use xlink:href="#DejaVuSans-63" transform="translate(175.195312 0)"/>
      <use xlink:href="#DejaVuSans-68" transform="translate(230.175781 0)"/>
      <use xlink:href="#DejaVuSans-65" transform="translate(293.554688 0)"/>
      <use xlink:href="#DejaVuSans-64" transform="translate(355.078125 0)"/>
      <use xlink:href="#DejaVuSans-20" transform="translate(418.554688 0)"/>
     </g>
     <!-- Box Plot -->
     <g transform="translate(442.624141 69.606437) scale(0.095 -0.095)">
      <defs>
       <path id="DejaVuSans-42" d="M 1259 2228 
L 1259 519 
L 2272 519 
Q 2781 519 3026 730 
Q 3272 941 3272 1375 
Q 3272 1813 3026 2020 
Q 2781 2228 2272 2228 
L 1259 2228 
z
M 1259 4147 
L 1259 2741 
L 2194 2741 
Q 2656 2741 2882 2914 
Q 3109 3088 3109 3444 
Q 3109 3797 2882 3972 
Q 2656 4147 2194 4147 
L 1259 4147 
z
M 628 4666 
L 2241 4666 
Q 2963 4666 3353 4366 
Q 3744 4066 3744 3513 
Q 3744 3084 3544 2831 
Q 3344 2578 2956 2516 
Q 3422 2416 3680 2098 
Q 3938 1781 3938 1306 
Q 3938 681 3513 340 
Q 3088 0 2303 0 
L 628 0 
L 628 4666 
z
" transform="scale(0.015625)"/>
       <path id="DejaVuSans-78" d="M 3513 3500 
L 2247 1797 
L 3578 0 
L 2900 0 
L 1881 1375 
L 863 0 
L 184 0 
L 1544 1831 
L 300 3500 
L 978 3500 
L 1906 2253 
L 2834 3500 
L 3513 3500 
z
" transform="scale(0.015625)"/>
      </defs>
      <use xlink:href="#DejaVuSans-42"/>
      <use xlink:href="#DejaVuSans-6f" transform="translate(68.603516 0)"/>
      <use xlink:href="#DejaVuSans-78" transform="translate(126.660156 0)"/>
      <use xlink:href="#DejaVuSans-20" transform="translate(185.839844 0)"/>
      <use xlink:href="#DejaVuSans-50" transform="translate(217.626953 0)"/>
      <use xlink:href="#DejaVuSans-6c" transform="translate(277.929688 0)"/>
      <use xlink:href="#DejaVuSans-6f" transform="translate(305.712891 0)"/>
      <use xlink:href="#DejaVuSans-74" transform="translate(366.894531 0)"/>
     </g>
    </g>
    <g id="patch_17">
     <path d="M 416.024141 89.857469 
L 435.024141 89.857469 
L 435.024141 83.207469 
L 416.024141 83.207469 
z
" style="fill: #0000ff; opacity: 0.1; stroke: #0000ff; stroke-linejoin: miter"/>
    </g>
    <g id="text_38">
     <!-- Bootstrapped  -->
     <g transform="translate(442.624141 83.550656) scale(0.095 -0.095)">
      <defs>
       <path id="DejaVuSans-70" d="M 1159 525 
L 1159 -1331 
L 581 -1331 
L 581 3500 
L 1159 3500 
L 1159 2969 
Q 1341 3281 1617 3432 
Q 1894 3584 2278 3584 
Q 2916 3584 3314 3078 
Q 3713 2572 3713 1747 
Q 3713 922 3314 415 
Q 2916 -91 2278 -91 
Q 1894 -91 1617 61 
Q 1341 213 1159 525 
z
M 3116 1747 
Q 3116 2381 2855 2742 
Q 2594 3103 2138 3103 
Q 1681 3103 1420 2742 
Q 1159 2381 1159 1747 
Q 1159 1113 1420 752 
Q 1681 391 2138 391 
Q 2594 391 2855 752 
Q 3116 1113 3116 1747 
z
" transform="scale(0.015625)"/>
      </defs>
      <use xlink:href="#DejaVuSans-42"/>
      <use xlink:href="#DejaVuSans-6f" transform="translate(68.603516 0)"/>
      <use xlink:href="#DejaVuSans-6f" transform="translate(129.785156 0)"/>
      <use xlink:href="#DejaVuSans-74" transform="translate(190.966797 0)"/>
      <use xlink:href="#DejaVuSans-73" transform="translate(230.175781 0)"/>
      <use xlink:href="#DejaVuSans-74" transform="translate(282.275391 0)"/>
      <use xlink:href="#DejaVuSans-72" transform="translate(321.484375 0)"/>
      <use xlink:href="#DejaVuSans-61" transform="translate(362.597656 0)"/>
      <use xlink:href="#DejaVuSans-70" transform="translate(423.876953 0)"/>
      <use xlink:href="#DejaVuSans-70" transform="translate(487.353516 0)"/>
      <use xlink:href="#DejaVuSans-65" transform="translate(550.830078 0)"/>
      <use xlink:href="#DejaVuSans-64" transform="translate(612.353516 0)"/>
      <use xlink:href="#DejaVuSans-20" transform="translate(675.830078 0)"/>
     </g>
     <!-- Box Plot -->
     <g transform="translate(442.624141 94.188578) scale(0.095 -0.095)">
      <use xlink:href="#DejaVuSans-42"/>
      <use xlink:href="#DejaVuSans-6f" transform="translate(68.603516 0)"/>
      <use xlink:href="#DejaVuSans-78" transform="translate(126.660156 0)"/>
      <use xlink:href="#DejaVuSans-20" transform="translate(185.839844 0)"/>
      <use xlink:href="#DejaVuSans-50" transform="translate(217.626953 0)"/>
      <use xlink:href="#DejaVuSans-6c" transform="translate(277.929688 0)"/>
      <use xlink:href="#DejaVuSans-6f" transform="translate(305.712891 0)"/>
      <use xlink:href="#DejaVuSans-74" transform="translate(366.894531 0)"/>
     </g>
    </g>
    <g id="line2d_71">
     <path d="M 416.024141 104.807797 
L 425.524141 104.807797 
L 435.024141 104.807797 
" style="fill: none; stroke: #000000; stroke-linecap: square"/>
    </g>
    <g id="text_39">
     <!-- Median -->
     <g transform="translate(442.624141 108.132797) scale(0.095 -0.095)">
      <use xlink:href="#DejaVuSans-4d"/>
      <use xlink:href="#DejaVuSans-65" transform="translate(86.279297 0)"/>
      <use xlink:href="#DejaVuSans-64" transform="translate(147.802734 0)"/>
      <use xlink:href="#DejaVuSans-69" transform="translate(211.279297 0)"/>
      <use xlink:href="#DejaVuSans-61" transform="translate(239.0625 0)"/>
      <use xlink:href="#DejaVuSans-6e" transform="translate(300.341797 0)"/>
     </g>
    </g>
    <g id="line2d_72">
     <path d="M 416.024141 118.752016 
L 425.524141 118.752016 
L 435.024141 118.752016 
" style="fill: none; stroke: #0000ff; stroke-width: 3; stroke-linecap: square"/>
    </g>
    <g id="text_40">
     <!-- Mean -->
     <g transform="translate(442.624141 122.077016) scale(0.095 -0.095)">
      <use xlink:href="#DejaVuSans-4d"/>
      <use xlink:href="#DejaVuSans-65" transform="translate(86.279297 0)"/>
      <use xlink:href="#DejaVuSans-61" transform="translate(147.802734 0)"/>
      <use xlink:href="#DejaVuSans-6e" transform="translate(209.082031 0)"/>
     </g>
    </g>
    <g id="line2d_73">
     <path d="M 416.024141 144.322008 
L 425.524141 144.322008 
L 435.024141 144.322008 
" style="fill: none; stroke: #00008b; stroke-width: 2; stroke-linecap: square"/>
    </g>
    <g id="text_41">
     <!-- Mean 95%  -->
     <g transform="translate(442.624141 136.021234) scale(0.095 -0.095)">
      <defs>
       <path id="DejaVuSans-25" d="M 4653 2053 
Q 4381 2053 4226 1822 
Q 4072 1591 4072 1178 
Q 4072 772 4226 539 
Q 4381 306 4653 306 
Q 4919 306 5073 539 
Q 5228 772 5228 1178 
Q 5228 1588 5073 1820 
Q 4919 2053 4653 2053 
z
M 4653 2450 
Q 5147 2450 5437 2106 
Q 5728 1763 5728 1178 
Q 5728 594 5436 251 
Q 5144 -91 4653 -91 
Q 4153 -91 3862 251 
Q 3572 594 3572 1178 
Q 3572 1766 3864 2108 
Q 4156 2450 4653 2450 
z
M 1428 4353 
Q 1159 4353 1004 4120 
Q 850 3888 850 3481 
Q 850 3069 1003 2837 
Q 1156 2606 1428 2606 
Q 1700 2606 1854 2837 
Q 2009 3069 2009 3481 
Q 2009 3884 1853 4118 
Q 1697 4353 1428 4353 
z
M 4250 4750 
L 4750 4750 
L 1831 -91 
L 1331 -91 
L 4250 4750 
z
M 1428 4750 
Q 1922 4750 2215 4408 
Q 2509 4066 2509 3481 
Q 2509 2891 2217 2550 
Q 1925 2209 1428 2209 
Q 931 2209 642 2551 
Q 353 2894 353 3481 
Q 353 4063 643 4406 
Q 934 4750 1428 4750 
z
" transform="scale(0.015625)"/>
      </defs>
      <use xlink:href="#DejaVuSans-4d"/>
      <use xlink:href="#DejaVuSans-65" transform="translate(86.279297 0)"/>
      <use xlink:href="#DejaVuSans-61" transform="translate(147.802734 0)"/>
      <use xlink:href="#DejaVuSans-6e" transform="translate(209.082031 0)"/>
      <use xlink:href="#DejaVuSans-20" transform="translate(272.460938 0)"/>
      <use xlink:href="#DejaVuSans-39" transform="translate(304.248047 0)"/>
      <use xlink:href="#DejaVuSans-35" transform="translate(367.871094 0)"/>
      <use xlink:href="#DejaVuSans-25" transform="translate(431.494141 0)"/>
      <use xlink:href="#DejaVuSans-20" transform="translate(526.513672 0)"/>
     </g>
     <!-- Confidence  -->
     <g transform="translate(442.624141 146.659156) scale(0.095 -0.095)">
      <use xlink:href="#DejaVuSans-43"/>
      <use xlink:href="#DejaVuSans-6f" transform="translate(69.824219 0)"/>
      <use xlink:href="#DejaVuSans-6e" transform="translate(131.005859 0)"/>
      <use xlink:href="#DejaVuSans-66" transform="translate(194.384766 0)"/>
      <use xlink:href="#DejaVuSans-69" transform="translate(229.589844 0)"/>
      <use xlink:href="#DejaVuSans-64" transform="translate(257.373047 0)"/>
      <use xlink:href="#DejaVuSans-65" transform="translate(320.849609 0)"/>
      <use xlink:href="#DejaVuSans-6e" transform="translate(382.373047 0)"/>
      <use xlink:href="#DejaVuSans-63" transform="translate(445.751953 0)"/>
      <use xlink:href="#DejaVuSans-65" transform="translate(500.732422 0)"/>
      <use xlink:href="#DejaVuSans-20" transform="translate(562.255859 0)"/>
     </g>
     <!-- Interval -->
     <g transform="translate(442.624141 157.297078) scale(0.095 -0.095)">
      <defs>
       <path id="DejaVuSans-76" d="M 191 3500 
L 800 3500 
L 1894 563 
L 2988 3500 
L 3597 3500 
L 2284 0 
L 1503 0 
L 191 3500 
z
" transform="scale(0.015625)"/>
      </defs>
      <use xlink:href="#DejaVuSans-49"/>
      <use xlink:href="#DejaVuSans-6e" transform="translate(29.492188 0)"/>
      <use xlink:href="#DejaVuSans-74" transform="translate(92.871094 0)"/>
      <use xlink:href="#DejaVuSans-65" transform="translate(132.080078 0)"/>
      <use xlink:href="#DejaVuSans-72" transform="translate(193.603516 0)"/>
      <use xlink:href="#DejaVuSans-76" transform="translate(234.716797 0)"/>
      <use xlink:href="#DejaVuSans-61" transform="translate(293.896484 0)"/>
      <use xlink:href="#DejaVuSans-6c" transform="translate(355.175781 0)"/>
     </g>
    </g>
   </g>
  </g>
 </g>
 <defs>
  <clipPath id="p67c9d8937d">
   <rect x="72" y="43.2" width="277.267081" height="277.2"/>
  </clipPath>
  <clipPath id="pb4fd676770">
   <rect x="407.493168" y="43.2" width="110.906832" height="277.2"/>
  </clipPath>
 </defs>
</svg>
