<?xml version="1.0" encoding="utf-8" standalone="no"?>
<!DOCTYPE svg PUBLIC "-//W3C//DTD SVG 1.1//EN"
  "http://www.w3.org/Graphics/SVG/1.1/DTD/svg11.dtd">
<svg xmlns:xlink="http://www.w3.org/1999/xlink" width="576pt" height="360pt" viewBox="0 0 576 360" xmlns="http://www.w3.org/2000/svg" version="1.1">
 <metadata>
  <rdf:RDF xmlns:dc="http://purl.org/dc/elements/1.1/" xmlns:cc="http://creativecommons.org/ns#" xmlns:rdf="http://www.w3.org/1999/02/22-rdf-syntax-ns#">
   <cc:Work>
    <dc:type rdf:resource="http://purl.org/dc/dcmitype/StillImage"/>
    <dc:date>2025-05-03T06:17:37.465750</dc:date>
    <dc:format>image/svg+xml</dc:format>
    <dc:creator>
     <cc:Agent>
      <dc:title>Matplotlib v3.10.0, https://matplotlib.org/</dc:title>
     </cc:Agent>
    </dc:creator>
   </cc:Work>
  </rdf:RDF>
 </metadata>
 <defs>
  <style type="text/css">*{stroke-linejoin: round; stroke-linecap: butt}</style>
 </defs>
 <g id="figure_1">
  <g id="patch_1">
   <path d="M 0 360 
L 576 360 
L 576 0 
L 0 0 
z
" style="fill: #ffffff"/>
  </g>
  <g id="axes_1">
   <g id="patch_2">
    <path d="M 72 320.4 
L 349.267081 320.4 
L 349.267081 43.2 
L 72 43.2 
z
" style="fill: #ffffff"/>
   </g>
   <g id="matplotlib.axis_1">
    <g id="xtick_1">
     <g id="line2d_1">
      <path d="M 72 320.4 
L 72 43.2 
" clip-path="url(#p833a6ef338)" style="fill: none; stroke: #b0b0b0; stroke-width: 0.8; stroke-linecap: square"/>
     </g>
     <g id="line2d_2">
      <defs>
       <path id="mc7096e4075" d="M 0 0 
L 0 3.5 
" style="stroke: #000000; stroke-width: 0.8"/>
      </defs>
      <g>
       <use xlink:href="#mc7096e4075" x="72" y="320.4" style="stroke: #000000; stroke-width: 0.8"/>
      </g>
     </g>
     <g id="text_1">
      <!-- −1 -->
      <g transform="translate(64.628906 334.998438) scale(0.1 -0.1)">
       <defs>
        <path id="DejaVuSans-2212" d="M 678 2272 
L 4684 2272 
L 4684 1741 
L 678 1741 
L 678 2272 
z
" transform="scale(0.015625)"/>
        <path id="DejaVuSans-31" d="M 794 531 
L 1825 531 
L 1825 4091 
L 703 3866 
L 703 4441 
L 1819 4666 
L 2450 4666 
L 2450 531 
L 3481 531 
L 3481 0 
L 794 0 
L 794 531 
z
" transform="scale(0.015625)"/>
       </defs>
       <use xlink:href="#DejaVuSans-2212"/>
       <use xlink:href="#DejaVuSans-31" transform="translate(83.789062 0)"/>
      </g>
     </g>
    </g>
    <g id="xtick_2">
     <g id="line2d_3">
      <path d="M 108.023269 320.4 
L 108.023269 43.2 
" clip-path="url(#p833a6ef338)" style="fill: none; stroke: #b0b0b0; stroke-width: 0.8; stroke-linecap: square"/>
     </g>
     <g id="line2d_4">
      <g>
       <use xlink:href="#mc7096e4075" x="108.023269" y="320.4" style="stroke: #000000; stroke-width: 0.8"/>
      </g>
     </g>
     <g id="text_2">
      <!-- 0 -->
      <g transform="translate(104.842019 334.998438) scale(0.1 -0.1)">
       <defs>
        <path id="DejaVuSans-30" d="M 2034 4250 
Q 1547 4250 1301 3770 
Q 1056 3291 1056 2328 
Q 1056 1369 1301 889 
Q 1547 409 2034 409 
Q 2525 409 2770 889 
Q 3016 1369 3016 2328 
Q 3016 3291 2770 3770 
Q 2525 4250 2034 4250 
z
M 2034 4750 
Q 2819 4750 3233 4129 
Q 3647 3509 3647 2328 
Q 3647 1150 3233 529 
Q 2819 -91 2034 -91 
Q 1250 -91 836 529 
Q 422 1150 422 2328 
Q 422 3509 836 4129 
Q 1250 4750 2034 4750 
z
" transform="scale(0.015625)"/>
       </defs>
       <use xlink:href="#DejaVuSans-30"/>
      </g>
     </g>
    </g>
    <g id="xtick_3">
     <g id="line2d_5">
      <path d="M 144.046538 320.4 
L 144.046538 43.2 
" clip-path="url(#p833a6ef338)" style="fill: none; stroke: #b0b0b0; stroke-width: 0.8; stroke-linecap: square"/>
     </g>
     <g id="line2d_6">
      <g>
       <use xlink:href="#mc7096e4075" x="144.046538" y="320.4" style="stroke: #000000; stroke-width: 0.8"/>
      </g>
     </g>
     <g id="text_3">
      <!-- 1 -->
      <g transform="translate(140.865288 334.998438) scale(0.1 -0.1)">
       <use xlink:href="#DejaVuSans-31"/>
      </g>
     </g>
    </g>
    <g id="xtick_4">
     <g id="line2d_7">
      <path d="M 180.069807 320.4 
L 180.069807 43.2 
" clip-path="url(#p833a6ef338)" style="fill: none; stroke: #b0b0b0; stroke-width: 0.8; stroke-linecap: square"/>
     </g>
     <g id="line2d_8">
      <g>
       <use xlink:href="#mc7096e4075" x="180.069807" y="320.4" style="stroke: #000000; stroke-width: 0.8"/>
      </g>
     </g>
     <g id="text_4">
      <!-- 2 -->
      <g transform="translate(176.888557 334.998438) scale(0.1 -0.1)">
       <defs>
        <path id="DejaVuSans-32" d="M 1228 531 
L 3431 531 
L 3431 0 
L 469 0 
L 469 531 
Q 828 903 1448 1529 
Q 2069 2156 2228 2338 
Q 2531 2678 2651 2914 
Q 2772 3150 2772 3378 
Q 2772 3750 2511 3984 
Q 2250 4219 1831 4219 
Q 1534 4219 1204 4116 
Q 875 4013 500 3803 
L 500 4441 
Q 881 4594 1212 4672 
Q 1544 4750 1819 4750 
Q 2544 4750 2975 4387 
Q 3406 4025 3406 3419 
Q 3406 3131 3298 2873 
Q 3191 2616 2906 2266 
Q 2828 2175 2409 1742 
Q 1991 1309 1228 531 
z
" transform="scale(0.015625)"/>
       </defs>
       <use xlink:href="#DejaVuSans-32"/>
      </g>
     </g>
    </g>
    <g id="xtick_5">
     <g id="line2d_9">
      <path d="M 216.093076 320.4 
L 216.093076 43.2 
" clip-path="url(#p833a6ef338)" style="fill: none; stroke: #b0b0b0; stroke-width: 0.8; stroke-linecap: square"/>
     </g>
     <g id="line2d_10">
      <g>
       <use xlink:href="#mc7096e4075" x="216.093076" y="320.4" style="stroke: #000000; stroke-width: 0.8"/>
      </g>
     </g>
     <g id="text_5">
      <!-- 3 -->
      <g transform="translate(212.911826 334.998438) scale(0.1 -0.1)">
       <defs>
        <path id="DejaVuSans-33" d="M 2597 2516 
Q 3050 2419 3304 2112 
Q 3559 1806 3559 1356 
Q 3559 666 3084 287 
Q 2609 -91 1734 -91 
Q 1441 -91 1130 -33 
Q 819 25 488 141 
L 488 750 
Q 750 597 1062 519 
Q 1375 441 1716 441 
Q 2309 441 2620 675 
Q 2931 909 2931 1356 
Q 2931 1769 2642 2001 
Q 2353 2234 1838 2234 
L 1294 2234 
L 1294 2753 
L 1863 2753 
Q 2328 2753 2575 2939 
Q 2822 3125 2822 3475 
Q 2822 3834 2567 4026 
Q 2313 4219 1838 4219 
Q 1578 4219 1281 4162 
Q 984 4106 628 3988 
L 628 4550 
Q 988 4650 1302 4700 
Q 1616 4750 1894 4750 
Q 2613 4750 3031 4423 
Q 3450 4097 3450 3541 
Q 3450 3153 3228 2886 
Q 3006 2619 2597 2516 
z
" transform="scale(0.015625)"/>
       </defs>
       <use xlink:href="#DejaVuSans-33"/>
      </g>
     </g>
    </g>
    <g id="xtick_6">
     <g id="line2d_11">
      <path d="M 252.116345 320.4 
L 252.116345 43.2 
" clip-path="url(#p833a6ef338)" style="fill: none; stroke: #b0b0b0; stroke-width: 0.8; stroke-linecap: square"/>
     </g>
     <g id="line2d_12">
      <g>
       <use xlink:href="#mc7096e4075" x="252.116345" y="320.4" style="stroke: #000000; stroke-width: 0.8"/>
      </g>
     </g>
     <g id="text_6">
      <!-- 4 -->
      <g transform="translate(248.935095 334.998438) scale(0.1 -0.1)">
       <defs>
        <path id="DejaVuSans-34" d="M 2419 4116 
L 825 1625 
L 2419 1625 
L 2419 4116 
z
M 2253 4666 
L 3047 4666 
L 3047 1625 
L 3713 1625 
L 3713 1100 
L 3047 1100 
L 3047 0 
L 2419 0 
L 2419 1100 
L 313 1100 
L 313 1709 
L 2253 4666 
z
" transform="scale(0.015625)"/>
       </defs>
       <use xlink:href="#DejaVuSans-34"/>
      </g>
     </g>
    </g>
    <g id="xtick_7">
     <g id="line2d_13">
      <path d="M 288.139614 320.4 
L 288.139614 43.2 
" clip-path="url(#p833a6ef338)" style="fill: none; stroke: #b0b0b0; stroke-width: 0.8; stroke-linecap: square"/>
     </g>
     <g id="line2d_14">
      <g>
       <use xlink:href="#mc7096e4075" x="288.139614" y="320.4" style="stroke: #000000; stroke-width: 0.8"/>
      </g>
     </g>
     <g id="text_7">
      <!-- 5 -->
      <g transform="translate(284.958364 334.998438) scale(0.1 -0.1)">
       <defs>
        <path id="DejaVuSans-35" d="M 691 4666 
L 3169 4666 
L 3169 4134 
L 1269 4134 
L 1269 2991 
Q 1406 3038 1543 3061 
Q 1681 3084 1819 3084 
Q 2600 3084 3056 2656 
Q 3513 2228 3513 1497 
Q 3513 744 3044 326 
Q 2575 -91 1722 -91 
Q 1428 -91 1123 -41 
Q 819 9 494 109 
L 494 744 
Q 775 591 1075 516 
Q 1375 441 1709 441 
Q 2250 441 2565 725 
Q 2881 1009 2881 1497 
Q 2881 1984 2565 2268 
Q 2250 2553 1709 2553 
Q 1456 2553 1204 2497 
Q 953 2441 691 2322 
L 691 4666 
z
" transform="scale(0.015625)"/>
       </defs>
       <use xlink:href="#DejaVuSans-35"/>
      </g>
     </g>
    </g>
    <g id="xtick_8">
     <g id="line2d_15">
      <path d="M 324.162882 320.4 
L 324.162882 43.2 
" clip-path="url(#p833a6ef338)" style="fill: none; stroke: #b0b0b0; stroke-width: 0.8; stroke-linecap: square"/>
     </g>
     <g id="line2d_16">
      <g>
       <use xlink:href="#mc7096e4075" x="324.162882" y="320.4" style="stroke: #000000; stroke-width: 0.8"/>
      </g>
     </g>
     <g id="text_8">
      <!-- 6 -->
      <g transform="translate(320.981632 334.998438) scale(0.1 -0.1)">
       <defs>
        <path id="DejaVuSans-36" d="M 2113 2584 
Q 1688 2584 1439 2293 
Q 1191 2003 1191 1497 
Q 1191 994 1439 701 
Q 1688 409 2113 409 
Q 2538 409 2786 701 
Q 3034 994 3034 1497 
Q 3034 2003 2786 2293 
Q 2538 2584 2113 2584 
z
M 3366 4563 
L 3366 3988 
Q 3128 4100 2886 4159 
Q 2644 4219 2406 4219 
Q 1781 4219 1451 3797 
Q 1122 3375 1075 2522 
Q 1259 2794 1537 2939 
Q 1816 3084 2150 3084 
Q 2853 3084 3261 2657 
Q 3669 2231 3669 1497 
Q 3669 778 3244 343 
Q 2819 -91 2113 -91 
Q 1303 -91 875 529 
Q 447 1150 447 2328 
Q 447 3434 972 4092 
Q 1497 4750 2381 4750 
Q 2619 4750 2861 4703 
Q 3103 4656 3366 4563 
z
" transform="scale(0.015625)"/>
       </defs>
       <use xlink:href="#DejaVuSans-36"/>
      </g>
     </g>
    </g>
    <g id="text_9">
     <!-- Indentation [m] -->
     <g transform="translate(155.997447 351.715937) scale(0.14 -0.14)">
      <defs>
       <path id="DejaVuSans-49" d="M 628 4666 
L 1259 4666 
L 1259 0 
L 628 0 
L 628 4666 
z
" transform="scale(0.015625)"/>
       <path id="DejaVuSans-6e" d="M 3513 2113 
L 3513 0 
L 2938 0 
L 2938 2094 
Q 2938 2591 2744 2837 
Q 2550 3084 2163 3084 
Q 1697 3084 1428 2787 
Q 1159 2491 1159 1978 
L 1159 0 
L 581 0 
L 581 3500 
L 1159 3500 
L 1159 2956 
Q 1366 3272 1645 3428 
Q 1925 3584 2291 3584 
Q 2894 3584 3203 3211 
Q 3513 2838 3513 2113 
z
" transform="scale(0.015625)"/>
       <path id="DejaVuSans-64" d="M 2906 2969 
L 2906 4863 
L 3481 4863 
L 3481 0 
L 2906 0 
L 2906 525 
Q 2725 213 2448 61 
Q 2172 -91 1784 -91 
Q 1150 -91 751 415 
Q 353 922 353 1747 
Q 353 2572 751 3078 
Q 1150 3584 1784 3584 
Q 2172 3584 2448 3432 
Q 2725 3281 2906 2969 
z
M 947 1747 
Q 947 1113 1208 752 
Q 1469 391 1925 391 
Q 2381 391 2643 752 
Q 2906 1113 2906 1747 
Q 2906 2381 2643 2742 
Q 2381 3103 1925 3103 
Q 1469 3103 1208 2742 
Q 947 2381 947 1747 
z
" transform="scale(0.015625)"/>
       <path id="DejaVuSans-65" d="M 3597 1894 
L 3597 1613 
L 953 1613 
Q 991 1019 1311 708 
Q 1631 397 2203 397 
Q 2534 397 2845 478 
Q 3156 559 3463 722 
L 3463 178 
Q 3153 47 2828 -22 
Q 2503 -91 2169 -91 
Q 1331 -91 842 396 
Q 353 884 353 1716 
Q 353 2575 817 3079 
Q 1281 3584 2069 3584 
Q 2775 3584 3186 3129 
Q 3597 2675 3597 1894 
z
M 3022 2063 
Q 3016 2534 2758 2815 
Q 2500 3097 2075 3097 
Q 1594 3097 1305 2825 
Q 1016 2553 972 2059 
L 3022 2063 
z
" transform="scale(0.015625)"/>
       <path id="DejaVuSans-74" d="M 1172 4494 
L 1172 3500 
L 2356 3500 
L 2356 3053 
L 1172 3053 
L 1172 1153 
Q 1172 725 1289 603 
Q 1406 481 1766 481 
L 2356 481 
L 2356 0 
L 1766 0 
Q 1100 0 847 248 
Q 594 497 594 1153 
L 594 3053 
L 172 3053 
L 172 3500 
L 594 3500 
L 594 4494 
L 1172 4494 
z
" transform="scale(0.015625)"/>
       <path id="DejaVuSans-61" d="M 2194 1759 
Q 1497 1759 1228 1600 
Q 959 1441 959 1056 
Q 959 750 1161 570 
Q 1363 391 1709 391 
Q 2188 391 2477 730 
Q 2766 1069 2766 1631 
L 2766 1759 
L 2194 1759 
z
M 3341 1997 
L 3341 0 
L 2766 0 
L 2766 531 
Q 2569 213 2275 61 
Q 1981 -91 1556 -91 
Q 1019 -91 701 211 
Q 384 513 384 1019 
Q 384 1609 779 1909 
Q 1175 2209 1959 2209 
L 2766 2209 
L 2766 2266 
Q 2766 2663 2505 2880 
Q 2244 3097 1772 3097 
Q 1472 3097 1187 3025 
Q 903 2953 641 2809 
L 641 3341 
Q 956 3463 1253 3523 
Q 1550 3584 1831 3584 
Q 2591 3584 2966 3190 
Q 3341 2797 3341 1997 
z
" transform="scale(0.015625)"/>
       <path id="DejaVuSans-69" d="M 603 3500 
L 1178 3500 
L 1178 0 
L 603 0 
L 603 3500 
z
M 603 4863 
L 1178 4863 
L 1178 4134 
L 603 4134 
L 603 4863 
z
" transform="scale(0.015625)"/>
       <path id="DejaVuSans-6f" d="M 1959 3097 
Q 1497 3097 1228 2736 
Q 959 2375 959 1747 
Q 959 1119 1226 758 
Q 1494 397 1959 397 
Q 2419 397 2687 759 
Q 2956 1122 2956 1747 
Q 2956 2369 2687 2733 
Q 2419 3097 1959 3097 
z
M 1959 3584 
Q 2709 3584 3137 3096 
Q 3566 2609 3566 1747 
Q 3566 888 3137 398 
Q 2709 -91 1959 -91 
Q 1206 -91 779 398 
Q 353 888 353 1747 
Q 353 2609 779 3096 
Q 1206 3584 1959 3584 
z
" transform="scale(0.015625)"/>
       <path id="DejaVuSans-20" transform="scale(0.015625)"/>
       <path id="DejaVuSans-5b" d="M 550 4863 
L 1875 4863 
L 1875 4416 
L 1125 4416 
L 1125 -397 
L 1875 -397 
L 1875 -844 
L 550 -844 
L 550 4863 
z
" transform="scale(0.015625)"/>
       <path id="DejaVuSans-6d" d="M 3328 2828 
Q 3544 3216 3844 3400 
Q 4144 3584 4550 3584 
Q 5097 3584 5394 3201 
Q 5691 2819 5691 2113 
L 5691 0 
L 5113 0 
L 5113 2094 
Q 5113 2597 4934 2840 
Q 4756 3084 4391 3084 
Q 3944 3084 3684 2787 
Q 3425 2491 3425 1978 
L 3425 0 
L 2847 0 
L 2847 2094 
Q 2847 2600 2669 2842 
Q 2491 3084 2119 3084 
Q 1678 3084 1418 2786 
Q 1159 2488 1159 1978 
L 1159 0 
L 581 0 
L 581 3500 
L 1159 3500 
L 1159 2956 
Q 1356 3278 1631 3431 
Q 1906 3584 2284 3584 
Q 2666 3584 2933 3390 
Q 3200 3197 3328 2828 
z
" transform="scale(0.015625)"/>
       <path id="DejaVuSans-5d" d="M 1947 4863 
L 1947 -844 
L 622 -844 
L 622 -397 
L 1369 -397 
L 1369 4416 
L 622 4416 
L 622 4863 
L 1947 4863 
z
" transform="scale(0.015625)"/>
      </defs>
      <use xlink:href="#DejaVuSans-49"/>
      <use xlink:href="#DejaVuSans-6e" transform="translate(29.492188 0)"/>
      <use xlink:href="#DejaVuSans-64" transform="translate(92.871094 0)"/>
      <use xlink:href="#DejaVuSans-65" transform="translate(156.347656 0)"/>
      <use xlink:href="#DejaVuSans-6e" transform="translate(217.871094 0)"/>
      <use xlink:href="#DejaVuSans-74" transform="translate(281.25 0)"/>
      <use xlink:href="#DejaVuSans-61" transform="translate(320.458984 0)"/>
      <use xlink:href="#DejaVuSans-74" transform="translate(381.738281 0)"/>
      <use xlink:href="#DejaVuSans-69" transform="translate(420.947266 0)"/>
      <use xlink:href="#DejaVuSans-6f" transform="translate(448.730469 0)"/>
      <use xlink:href="#DejaVuSans-6e" transform="translate(509.912109 0)"/>
      <use xlink:href="#DejaVuSans-20" transform="translate(573.291016 0)"/>
      <use xlink:href="#DejaVuSans-5b" transform="translate(605.078125 0)"/>
      <use xlink:href="#DejaVuSans-6d" transform="translate(644.091797 0)"/>
      <use xlink:href="#DejaVuSans-5d" transform="translate(741.503906 0)"/>
     </g>
    </g>
    <g id="text_10">
     <!-- 1e−7 -->
     <g transform="translate(322.009268 347.676562) scale(0.1 -0.1)">
      <defs>
       <path id="DejaVuSans-37" d="M 525 4666 
L 3525 4666 
L 3525 4397 
L 1831 0 
L 1172 0 
L 2766 4134 
L 525 4134 
L 525 4666 
z
" transform="scale(0.015625)"/>
      </defs>
      <use xlink:href="#DejaVuSans-31"/>
      <use xlink:href="#DejaVuSans-65" transform="translate(63.623047 0)"/>
      <use xlink:href="#DejaVuSans-2212" transform="translate(125.146484 0)"/>
      <use xlink:href="#DejaVuSans-37" transform="translate(208.935547 0)"/>
     </g>
    </g>
   </g>
   <g id="matplotlib.axis_2">
    <g id="ytick_1">
     <g id="line2d_17">
      <path d="M 72 292.299971 
L 349.267081 292.299971 
" clip-path="url(#p833a6ef338)" style="fill: none; stroke: #b0b0b0; stroke-width: 0.8; stroke-linecap: square"/>
     </g>
     <g id="line2d_18">
      <defs>
       <path id="me6af8707e3" d="M 0 0 
L -3.5 0 
" style="stroke: #000000; stroke-width: 0.8"/>
      </defs>
      <g>
       <use xlink:href="#me6af8707e3" x="72" y="292.299971" style="stroke: #000000; stroke-width: 0.8"/>
      </g>
     </g>
     <g id="text_11">
      <!-- 0.0 -->
      <g transform="translate(49.096875 296.09919) scale(0.1 -0.1)">
       <defs>
        <path id="DejaVuSans-2e" d="M 684 794 
L 1344 794 
L 1344 0 
L 684 0 
L 684 794 
z
" transform="scale(0.015625)"/>
       </defs>
       <use xlink:href="#DejaVuSans-30"/>
       <use xlink:href="#DejaVuSans-2e" transform="translate(63.623047 0)"/>
       <use xlink:href="#DejaVuSans-30" transform="translate(95.410156 0)"/>
      </g>
     </g>
    </g>
    <g id="ytick_2">
     <g id="line2d_19">
      <path d="M 72 259.915656 
L 349.267081 259.915656 
" clip-path="url(#p833a6ef338)" style="fill: none; stroke: #b0b0b0; stroke-width: 0.8; stroke-linecap: square"/>
     </g>
     <g id="line2d_20">
      <g>
       <use xlink:href="#me6af8707e3" x="72" y="259.915656" style="stroke: #000000; stroke-width: 0.8"/>
      </g>
     </g>
     <g id="text_12">
      <!-- 0.2 -->
      <g transform="translate(49.096875 263.714875) scale(0.1 -0.1)">
       <use xlink:href="#DejaVuSans-30"/>
       <use xlink:href="#DejaVuSans-2e" transform="translate(63.623047 0)"/>
       <use xlink:href="#DejaVuSans-32" transform="translate(95.410156 0)"/>
      </g>
     </g>
    </g>
    <g id="ytick_3">
     <g id="line2d_21">
      <path d="M 72 227.531341 
L 349.267081 227.531341 
" clip-path="url(#p833a6ef338)" style="fill: none; stroke: #b0b0b0; stroke-width: 0.8; stroke-linecap: square"/>
     </g>
     <g id="line2d_22">
      <g>
       <use xlink:href="#me6af8707e3" x="72" y="227.531341" style="stroke: #000000; stroke-width: 0.8"/>
      </g>
     </g>
     <g id="text_13">
      <!-- 0.4 -->
      <g transform="translate(49.096875 231.33056) scale(0.1 -0.1)">
       <use xlink:href="#DejaVuSans-30"/>
       <use xlink:href="#DejaVuSans-2e" transform="translate(63.623047 0)"/>
       <use xlink:href="#DejaVuSans-34" transform="translate(95.410156 0)"/>
      </g>
     </g>
    </g>
    <g id="ytick_4">
     <g id="line2d_23">
      <path d="M 72 195.147026 
L 349.267081 195.147026 
" clip-path="url(#p833a6ef338)" style="fill: none; stroke: #b0b0b0; stroke-width: 0.8; stroke-linecap: square"/>
     </g>
     <g id="line2d_24">
      <g>
       <use xlink:href="#me6af8707e3" x="72" y="195.147026" style="stroke: #000000; stroke-width: 0.8"/>
      </g>
     </g>
     <g id="text_14">
      <!-- 0.6 -->
      <g transform="translate(49.096875 198.946245) scale(0.1 -0.1)">
       <use xlink:href="#DejaVuSans-30"/>
       <use xlink:href="#DejaVuSans-2e" transform="translate(63.623047 0)"/>
       <use xlink:href="#DejaVuSans-36" transform="translate(95.410156 0)"/>
      </g>
     </g>
    </g>
    <g id="ytick_5">
     <g id="line2d_25">
      <path d="M 72 162.762711 
L 349.267081 162.762711 
" clip-path="url(#p833a6ef338)" style="fill: none; stroke: #b0b0b0; stroke-width: 0.8; stroke-linecap: square"/>
     </g>
     <g id="line2d_26">
      <g>
       <use xlink:href="#me6af8707e3" x="72" y="162.762711" style="stroke: #000000; stroke-width: 0.8"/>
      </g>
     </g>
     <g id="text_15">
      <!-- 0.8 -->
      <g transform="translate(49.096875 166.56193) scale(0.1 -0.1)">
       <defs>
        <path id="DejaVuSans-38" d="M 2034 2216 
Q 1584 2216 1326 1975 
Q 1069 1734 1069 1313 
Q 1069 891 1326 650 
Q 1584 409 2034 409 
Q 2484 409 2743 651 
Q 3003 894 3003 1313 
Q 3003 1734 2745 1975 
Q 2488 2216 2034 2216 
z
M 1403 2484 
Q 997 2584 770 2862 
Q 544 3141 544 3541 
Q 544 4100 942 4425 
Q 1341 4750 2034 4750 
Q 2731 4750 3128 4425 
Q 3525 4100 3525 3541 
Q 3525 3141 3298 2862 
Q 3072 2584 2669 2484 
Q 3125 2378 3379 2068 
Q 3634 1759 3634 1313 
Q 3634 634 3220 271 
Q 2806 -91 2034 -91 
Q 1263 -91 848 271 
Q 434 634 434 1313 
Q 434 1759 690 2068 
Q 947 2378 1403 2484 
z
M 1172 3481 
Q 1172 3119 1398 2916 
Q 1625 2713 2034 2713 
Q 2441 2713 2670 2916 
Q 2900 3119 2900 3481 
Q 2900 3844 2670 4047 
Q 2441 4250 2034 4250 
Q 1625 4250 1398 4047 
Q 1172 3844 1172 3481 
z
" transform="scale(0.015625)"/>
       </defs>
       <use xlink:href="#DejaVuSans-30"/>
       <use xlink:href="#DejaVuSans-2e" transform="translate(63.623047 0)"/>
       <use xlink:href="#DejaVuSans-38" transform="translate(95.410156 0)"/>
      </g>
     </g>
    </g>
    <g id="ytick_6">
     <g id="line2d_27">
      <path d="M 72 130.378396 
L 349.267081 130.378396 
" clip-path="url(#p833a6ef338)" style="fill: none; stroke: #b0b0b0; stroke-width: 0.8; stroke-linecap: square"/>
     </g>
     <g id="line2d_28">
      <g>
       <use xlink:href="#me6af8707e3" x="72" y="130.378396" style="stroke: #000000; stroke-width: 0.8"/>
      </g>
     </g>
     <g id="text_16">
      <!-- 1.0 -->
      <g transform="translate(49.096875 134.177615) scale(0.1 -0.1)">
       <use xlink:href="#DejaVuSans-31"/>
       <use xlink:href="#DejaVuSans-2e" transform="translate(63.623047 0)"/>
       <use xlink:href="#DejaVuSans-30" transform="translate(95.410156 0)"/>
      </g>
     </g>
    </g>
    <g id="ytick_7">
     <g id="line2d_29">
      <path d="M 72 97.994081 
L 349.267081 97.994081 
" clip-path="url(#p833a6ef338)" style="fill: none; stroke: #b0b0b0; stroke-width: 0.8; stroke-linecap: square"/>
     </g>
     <g id="line2d_30">
      <g>
       <use xlink:href="#me6af8707e3" x="72" y="97.994081" style="stroke: #000000; stroke-width: 0.8"/>
      </g>
     </g>
     <g id="text_17">
      <!-- 1.2 -->
      <g transform="translate(49.096875 101.7933) scale(0.1 -0.1)">
       <use xlink:href="#DejaVuSans-31"/>
       <use xlink:href="#DejaVuSans-2e" transform="translate(63.623047 0)"/>
       <use xlink:href="#DejaVuSans-32" transform="translate(95.410156 0)"/>
      </g>
     </g>
    </g>
    <g id="ytick_8">
     <g id="line2d_31">
      <path d="M 72 65.609766 
L 349.267081 65.609766 
" clip-path="url(#p833a6ef338)" style="fill: none; stroke: #b0b0b0; stroke-width: 0.8; stroke-linecap: square"/>
     </g>
     <g id="line2d_32">
      <g>
       <use xlink:href="#me6af8707e3" x="72" y="65.609766" style="stroke: #000000; stroke-width: 0.8"/>
      </g>
     </g>
     <g id="text_18">
      <!-- 1.4 -->
      <g transform="translate(49.096875 69.408985) scale(0.1 -0.1)">
       <use xlink:href="#DejaVuSans-31"/>
       <use xlink:href="#DejaVuSans-2e" transform="translate(63.623047 0)"/>
       <use xlink:href="#DejaVuSans-34" transform="translate(95.410156 0)"/>
      </g>
     </g>
    </g>
    <g id="text_19">
     <!-- Force [N] -->
     <g transform="translate(42.185312 213.655469) rotate(-90) scale(0.14 -0.14)">
      <defs>
       <path id="DejaVuSans-46" d="M 628 4666 
L 3309 4666 
L 3309 4134 
L 1259 4134 
L 1259 2759 
L 3109 2759 
L 3109 2228 
L 1259 2228 
L 1259 0 
L 628 0 
L 628 4666 
z
" transform="scale(0.015625)"/>
       <path id="DejaVuSans-72" d="M 2631 2963 
Q 2534 3019 2420 3045 
Q 2306 3072 2169 3072 
Q 1681 3072 1420 2755 
Q 1159 2438 1159 1844 
L 1159 0 
L 581 0 
L 581 3500 
L 1159 3500 
L 1159 2956 
Q 1341 3275 1631 3429 
Q 1922 3584 2338 3584 
Q 2397 3584 2469 3576 
Q 2541 3569 2628 3553 
L 2631 2963 
z
" transform="scale(0.015625)"/>
       <path id="DejaVuSans-63" d="M 3122 3366 
L 3122 2828 
Q 2878 2963 2633 3030 
Q 2388 3097 2138 3097 
Q 1578 3097 1268 2742 
Q 959 2388 959 1747 
Q 959 1106 1268 751 
Q 1578 397 2138 397 
Q 2388 397 2633 464 
Q 2878 531 3122 666 
L 3122 134 
Q 2881 22 2623 -34 
Q 2366 -91 2075 -91 
Q 1284 -91 818 406 
Q 353 903 353 1747 
Q 353 2603 823 3093 
Q 1294 3584 2113 3584 
Q 2378 3584 2631 3529 
Q 2884 3475 3122 3366 
z
" transform="scale(0.015625)"/>
       <path id="DejaVuSans-4e" d="M 628 4666 
L 1478 4666 
L 3547 763 
L 3547 4666 
L 4159 4666 
L 4159 0 
L 3309 0 
L 1241 3903 
L 1241 0 
L 628 0 
L 628 4666 
z
" transform="scale(0.015625)"/>
      </defs>
      <use xlink:href="#DejaVuSans-46"/>
      <use xlink:href="#DejaVuSans-6f" transform="translate(53.894531 0)"/>
      <use xlink:href="#DejaVuSans-72" transform="translate(115.076172 0)"/>
      <use xlink:href="#DejaVuSans-63" transform="translate(153.939453 0)"/>
      <use xlink:href="#DejaVuSans-65" transform="translate(208.919922 0)"/>
      <use xlink:href="#DejaVuSans-20" transform="translate(270.443359 0)"/>
      <use xlink:href="#DejaVuSans-5b" transform="translate(302.230469 0)"/>
      <use xlink:href="#DejaVuSans-4e" transform="translate(341.244141 0)"/>
      <use xlink:href="#DejaVuSans-5d" transform="translate(416.048828 0)"/>
     </g>
    </g>
    <g id="text_20">
     <!-- 1e−9 -->
     <g transform="translate(72 40.2) scale(0.1 -0.1)">
      <defs>
       <path id="DejaVuSans-39" d="M 703 97 
L 703 672 
Q 941 559 1184 500 
Q 1428 441 1663 441 
Q 2288 441 2617 861 
Q 2947 1281 2994 2138 
Q 2813 1869 2534 1725 
Q 2256 1581 1919 1581 
Q 1219 1581 811 2004 
Q 403 2428 403 3163 
Q 403 3881 828 4315 
Q 1253 4750 1959 4750 
Q 2769 4750 3195 4129 
Q 3622 3509 3622 2328 
Q 3622 1225 3098 567 
Q 2575 -91 1691 -91 
Q 1453 -91 1209 -44 
Q 966 3 703 97 
z
M 1959 2075 
Q 2384 2075 2632 2365 
Q 2881 2656 2881 3163 
Q 2881 3666 2632 3958 
Q 2384 4250 1959 4250 
Q 1534 4250 1286 3958 
Q 1038 3666 1038 3163 
Q 1038 2656 1286 2365 
Q 1534 2075 1959 2075 
z
" transform="scale(0.015625)"/>
      </defs>
      <use xlink:href="#DejaVuSans-31"/>
      <use xlink:href="#DejaVuSans-65" transform="translate(63.623047 0)"/>
      <use xlink:href="#DejaVuSans-2212" transform="translate(125.146484 0)"/>
      <use xlink:href="#DejaVuSans-39" transform="translate(208.935547 0)"/>
     </g>
    </g>
   </g>
   <g id="line2d_33">
    <path d="M 71.987207 289.760335 
L 74.726072 287.523831 
L 75.448407 287.558726 
L 77.375981 288.7693 
L 78.498616 289.346403 
L 79.602186 290.229788 
L 81.377268 292.138678 
L 82.131373 292.318944 
L 84.249563 291.781962 
L 85.08627 291.927333 
L 85.770485 292.179789 
L 86.670731 292.266673 
L 90.163703 290.605294 
L 90.962288 289.860781 
L 92.769135 287.531176 
L 93.542304 287.082066 
L 96.15409 286.393781 
L 97.187769 286.458485 
L 98.854831 287.550107 
L 99.748724 287.698162 
L 100.833236 287.452346 
L 101.714421 287.445423 
L 102.53842 287.561832 
L 103.27982 287.29087 
L 105.226454 286.093293 
L 105.955145 286.387707 
L 106.747376 286.453117 
L 107.717516 286.043989 
L 108.821088 285.182502 
L 110.899145 283.912592 
L 112.979212 281.425467 
L 113.701549 281.097712 
L 114.296808 281.532834 
L 115.127162 281.333497 
L 117.359723 280.442484 
L 118.120183 280.773489 
L 118.804397 281.331661 
L 119.73006 281.230792 
L 120.744677 280.531063 
L 123.153138 279.378552 
L 124.034323 278.526531 
L 126.588924 276.967859 
L 127.520941 276.588821 
L 128.491082 275.861827 
L 129.776907 274.204969 
L 130.785173 272.732897 
L 131.513862 271.166313 
L 132.299739 269.911379 
L 132.894998 269.350945 
L 133.725353 268.971483 
L 134.797154 268.729905 
L 135.786359 269.157681 
L 137.644036 270.753509 
L 138.601468 270.465452 
L 139.520776 269.823787 
L 140.35113 269.395727 
L 141.713206 268.99352 
L 142.950209 268.444106 
L 143.926703 267.86672 
L 144.731643 267.813178 
L 145.371378 268.064362 
L 146.182671 268.248302 
L 147.222704 267.902747 
L 148.358045 267.836913 
L 149.194753 268.06493 
L 150.07594 268.096999 
L 150.741091 267.365342 
L 152.446274 264.81733 
L 153.890948 263.627381 
L 155.869357 262.08566 
L 156.648875 261.255394 
L 157.934704 258.503521 
L 159.531871 256.310249 
L 160.235143 255.669855 
L 161.351425 255.491709 
L 162.378754 255.55048 
L 163.113798 255.426161 
L 163.817073 255.47829 
L 164.901586 255.130474 
L 166.47969 253.911985 
L 167.424415 254.077134 
L 168.223 254.375786 
L 169.256681 254.258669 
L 170.296712 254.484283 
L 171.222377 255.085262 
L 172.033664 255.188394 
L 172.80048 254.747197 
L 173.776978 253.113508 
L 175.683477 248.733459 
L 176.393106 247.601998 
L 177.57928 246.576492 
L 178.593897 246.339293 
L 180.057635 246.906787 
L 181.040483 246.772153 
L 182.029685 246.066772 
L 182.815558 245.792843 
L 184.457203 245.676153 
L 185.382868 245.392334 
L 186.378425 245.222946 
L 187.157947 244.720294 
L 188.064545 243.584735 
L 188.799592 242.234582 
L 189.509225 240.471062 
L 189.983756 238.812933 
L 190.775991 237.65025 
L 191.720708 236.501131 
L 192.570126 235.699543 
L 193.521205 235.44412 
L 194.345201 235.865962 
L 195.042122 235.420385 
L 197.736518 231.998452 
L 198.071265 231.055169 
L 200.024255 229.390824 
L 200.994391 228.990596 
L 202.642394 229.852363 
L 203.529932 229.263816 
L 204.493716 227.863229 
L 205.228757 226.480301 
L 207.122561 221.28666 
L 208.776912 218.060534 
L 209.397586 217.240158 
L 210.247 216.377259 
L 211.134538 215.766107 
L 211.971243 215.345534 
L 212.909613 215.072875 
L 213.714549 214.580818 
L 214.659278 213.512082 
L 215.957808 211.322479 
L 216.756397 210.632215 
L 218.569603 208.505201 
L 220.192178 206.697602 
L 220.641302 205.911695 
L 221.624146 204.989743 
L 222.42909 203.888799 
L 223.513595 203.057824 
L 224.286763 203.081134 
L 224.990038 202.805228 
L 227.563702 199.104424 
L 228.000117 197.857262 
L 229.711655 194.356781 
L 231.624508 188.902058 
L 233.202615 185.468822 
L 235.528472 181.540286 
L 236.225393 179.974124 
L 236.973146 178.68401 
L 240.326336 174.700517 
L 241.080447 173.784214 
L 241.586743 172.916655 
L 244.236658 169.672579 
L 245.77028 168.579959 
L 246.556164 167.563778 
L 247.424638 166.215184 
L 248.824834 163.480835 
L 249.617065 162.384978 
L 251.207881 159.691175 
L 252.817761 157.345607 
L 254.186188 154.979271 
L 255.85324 152.157607 
L 257.285208 150.437598 
L 259.085705 147.674567 
L 260.4033 144.851637 
L 261.905164 142.415372 
L 262.786347 141.305384 
L 263.673885 141.131191 
L 264.529653 141.25989 
L 265.315533 141.093469 
L 266.342859 140.453639 
L 267.28758 139.545956 
L 268.522581 137.868049 
L 269.340222 136.918692 
L 270.259529 135.333604 
L 272.413836 130.929255 
L 272.970972 128.988717 
L 273.788613 126.805895 
L 276.747856 120.841749 
L 278.370442 117.569853 
L 279.751574 115.793052 
L 282.318884 111.989959 
L 283.674612 109.636057 
L 284.428713 108.306814 
L 285.19554 106.708305 
L 287.553155 103.1718 
L 289.859955 98.148381 
L 291.139433 94.768682 
L 292.603149 91.186267 
L 293.465276 89.614315 
L 294.111382 88.880257 
L 294.916311 88.189431 
L 295.733967 87.261547 
L 296.685035 86.43185 
L 298.180541 85.585761 
L 299.949266 82.552903 
L 300.747848 80.606715 
L 301.665151 77.592636 
L 304.276932 71.569984 
L 304.675231 70.001631 
L 305.397551 68.484281 
L 307.09005 65.448035 
L 307.09005 65.448035 
" clip-path="url(#p833a6ef338)" style="fill: none; stroke: #a6cee3; stroke-opacity: 0.5; stroke-width: 1.5; stroke-linecap: square"/>
   </g>
   <g id="line2d_34">
    <path d="M 71.987207 292.299971 
L 108.821088 292.244087 
L 110.899145 291.917554 
L 113.701549 291.239155 
L 116.306981 290.431055 
L 119.73006 289.160717 
L 124.034323 287.280063 
L 128.491082 285.046174 
L 132.894998 282.585686 
L 137.644036 279.677871 
L 142.950209 276.143379 
L 148.358045 272.255357 
L 153.890948 268.000067 
L 159.531871 263.391336 
L 165.827247 257.944795 
L 172.033664 252.279604 
L 178.593897 245.989161 
L 185.382868 239.168335 
L 192.570126 231.618819 
L 200.024255 223.448135 
L 207.122561 215.358523 
L 215.368904 205.597622 
L 223.513595 195.589207 
L 231.624508 185.272942 
L 240.326336 173.831592 
L 248.824834 162.29739 
L 258.102857 149.312738 
L 267.28758 136.068428 
L 276.747856 122.033976 
L 286.830816 106.650752 
L 296.685035 91.205736 
L 307.09005 74.469933 
L 307.09005 74.469933 
" clip-path="url(#p833a6ef338)" style="fill: none; stroke-dasharray: 5.55,2.4; stroke-dashoffset: 0; stroke: #1f78b4; stroke-opacity: 0.7; stroke-width: 1.5"/>
   </g>
   <g id="line2d_35">
    <path d="M 71.510035 290.194306 
L 73.253617 289.272636 
L 73.836303 289.218528 
L 75.891223 288.100911 
L 76.740774 287.851139 
L 77.62845 288.279058 
L 78.344569 288.85503 
L 79.333905 288.541826 
L 80.38043 288.054574 
L 82.041411 288.721527 
L 82.763882 288.684937 
L 84.996715 287.694042 
L 85.496802 287.800563 
L 86.333646 288.263658 
L 87.367463 288.520775 
L 88.477526 288.072654 
L 89.447803 287.948333 
L 90.227462 288.249953 
L 90.905458 288.017134 
L 92.680812 285.567025 
L 93.562133 284.965906 
L 94.265547 285.152953 
L 94.943543 284.930447 
L 96.072668 284.208538 
L 97.201795 283.312298 
L 99.242141 282.212764 
L 100.301374 280.75157 
L 101.271652 279.685942 
L 101.898818 279.366381 
L 102.519631 279.182018 
L 103.407308 278.789842 
L 104.580912 278.962479 
L 105.487651 279.928085 
L 106.451576 281.515719 
L 107.650595 282.51297 
L 108.665351 282.614404 
L 109.514906 282.203722 
L 110.807364 281.98277 
L 112.913124 281.011937 
L 113.959649 280.999788 
L 114.771081 281.501451 
L 115.385541 281.728619 
L 116.222388 281.08102 
L 118.194716 278.704089 
L 119.455406 277.187092 
L 120.260485 275.838917 
L 121.351489 274.627354 
L 122.067612 274.231363 
L 122.771027 274.44398 
L 123.690477 274.295077 
L 124.800542 273.699891 
L 125.656452 272.975298 
L 126.448823 273.013584 
L 127.082345 273.193849 
L 129.124569 272.759998 
L 130.190159 273.028417 
L 130.963467 273.442348 
L 131.743131 274.066777 
L 132.77695 274.042337 
L 134.545957 273.029546 
L 135.465406 273.119679 
L 136.130702 272.810714 
L 137.005673 272.105193 
L 138.920819 271.111614 
L 139.503512 270.441412 
L 140.43567 270.105321 
L 142.914449 268.624773 
L 143.967333 268.220448 
L 144.727936 267.137303 
L 145.583849 266.215633 
L 146.293619 265.631325 
L 147.016098 265.389747 
L 147.916489 264.932727 
L 149.039266 264.547473 
L 149.952362 264.441235 
L 150.789211 264.733107 
L 151.505339 265.14153 
L 152.373958 265.052527 
L 155.22762 263.88292 
L 155.873856 263.499645 
L 156.729769 262.697352 
L 157.572973 261.358077 
L 159.221261 259.263413 
L 159.950091 258.595331 
L 161.579319 256.618345 
L 162.467 255.672658 
L 164.856834 254.431709 
L 166.771983 252.987751 
L 168.229657 252.526351 
L 169.136399 251.812777 
L 171.007076 250.023547 
L 171.589774 249.674742 
L 174.144808 247.005798 
L 175.653314 246.295047 
L 176.579116 245.848905 
L 178.386256 244.410739 
L 179.076969 243.696603 
L 179.945595 243.163294 
L 180.750679 242.157002 
L 181.625655 241.275737 
L 183.254887 239.984211 
L 184.941298 237.788533 
L 185.644717 236.969004 
L 187.235826 236.533176 
L 188.250594 236.214462 
L 189.290773 235.567712 
L 190.153044 235.356226 
L 190.754802 234.938903 
L 191.45187 234.161191 
L 192.339556 232.995117 
L 193.417858 232.068644 
L 194.095863 231.894876 
L 194.939074 232.122468 
L 195.788632 231.92751 
L 196.847875 231.290367 
L 198.40087 229.963666 
L 201.640266 226.10209 
L 203.218676 223.65099 
L 204.504797 221.507301 
L 206.400893 218.964938 
L 208.453981 215.96485 
L 209.246356 214.701583 
L 210.261125 213.61095 
L 211.161515 212.951486 
L 212.676384 212.486979 
L 213.627614 211.615743 
L 215.212372 209.621095 
L 216.657344 207.857009 
L 217.64034 206.605042 
L 218.381886 205.479657 
L 219.180619 204.641481 
L 219.985714 204.097859 
L 221.640364 202.343804 
L 222.585236 201.67459 
L 223.320439 200.940673 
L 223.928547 199.754117 
L 224.822591 198.446628 
L 226.318403 195.591347 
L 226.951937 194.861383 
L 227.934933 194.304622 
L 228.809913 193.535528 
L 229.837394 193.087406 
L 230.559876 193.251847 
L 231.358606 193.219073 
L 232.214533 192.629678 
L 233.191174 191.613497 
L 234.07252 190.404762 
L 237.735784 183.483053 
L 239.12358 181.442216 
L 240.043038 180.704203 
L 240.810009 179.822656 
L 241.697702 179.048619 
L 243.415897 178.26808 
L 244.132032 177.586293 
L 244.962541 176.542279 
L 245.913772 175.085181 
L 247.212605 172.002873 
L 250.051736 163.864376 
L 251.375994 160.994821 
L 252.250982 159.345167 
L 253.094189 158.006601 
L 254.539169 156.872454 
L 255.382384 156.422214 
L 256.378092 155.531343 
L 258.799727 153.990186 
L 260.556045 152.030296 
L 262.767997 148.663603 
L 263.465079 147.110015 
L 264.251107 144.838903 
L 267.033062 138.598278 
L 268.08595 136.71326 
L 268.776674 134.908067 
L 269.200538 133.483745 
L 270.747183 129.997672 
L 271.545927 127.838168 
L 274.474024 122.830581 
L 276.946481 120.142562 
L 277.77064 118.917289 
L 279.842821 114.143789 
L 281.313222 110.533545 
L 282.156437 108.497508 
L 282.796318 106.644561 
L 284.050684 104.40085 
L 286.859923 100.687177 
L 287.436274 99.112258 
L 287.898272 97.160987 
L 289.292419 92.743649 
L 290.059402 91.062633 
L 290.845429 89.805157 
L 291.739491 88.646149 
L 294.578629 82.971611 
L 297.519446 76.475552 
L 298.210171 74.729404 
L 301.549438 64.564914 
L 303.254941 61.578807 
L 305.587617 58.739626 
L 306.392726 57.468585 
L 307.096138 55.8 
L 307.096138 55.8 
" clip-path="url(#p833a6ef338)" style="fill: none; stroke: #b2df8a; stroke-opacity: 0.5; stroke-width: 1.5; stroke-linecap: square"/>
   </g>
   <g id="line2d_36">
    <path d="M 71.510035 292.299971 
L 108.665351 292.258948 
L 110.807364 291.929612 
L 113.959649 291.147038 
L 117.383285 290.017771 
L 121.351489 288.422922 
L 125.656452 286.401557 
L 130.190159 283.988328 
L 134.545957 281.424431 
L 139.503512 278.24073 
L 144.727936 274.604569 
L 149.952362 270.701381 
L 155.873856 265.976698 
L 161.579319 261.140955 
L 167.424577 255.914881 
L 174.144808 249.5849 
L 180.750679 243.044571 
L 187.235826 236.331875 
L 194.095863 228.930442 
L 201.640266 220.449077 
L 209.246356 211.551397 
L 216.657344 202.560268 
L 224.822591 192.300523 
L 233.191174 181.414883 
L 241.697702 169.979465 
L 250.672568 157.523909 
L 259.509508 144.881175 
L 269.200538 130.599006 
L 278.442304 116.58502 
L 287.898272 101.860461 
L 298.210171 85.371637 
L 307.096138 70.812038 
L 307.096138 70.812038 
" clip-path="url(#p833a6ef338)" style="fill: none; stroke-dasharray: 5.55,2.4; stroke-dashoffset: 0; stroke: #33a02c; stroke-opacity: 0.7; stroke-width: 1.5"/>
   </g>
   <g id="line2d_37">
    <path d="M 71.470691 287.665546 
L 72.358311 288.046844 
L 73.385718 288.088237 
L 74.368647 288.276413 
L 74.963989 288.715351 
L 76.948911 288.941954 
L 78.116104 289.065428 
L 79.010081 289.765863 
L 79.605422 290.721862 
L 80.651892 291.084936 
L 81.742837 290.775829 
L 82.74483 290.641761 
L 83.429128 290.750965 
L 84.227792 290.709571 
L 85.089999 289.979328 
L 86.814411 288.100811 
L 87.555893 287.531337 
L 90.180636 284.880477 
L 90.890349 284.627032 
L 91.733493 284.555123 
L 92.652886 284.283594 
L 94.599687 284.283029 
L 96.235145 285.20922 
L 97.345155 285.575543 
L 98.239132 285.682063 
L 104.560508 284.47615 
L 106.10066 284.99519 
L 106.975575 284.270174 
L 107.939445 282.940788 
L 109.447827 281.214423 
L 109.935154 280.456914 
L 110.994333 279.516173 
L 112.148821 279.035559 
L 113.004675 279.477604 
L 113.688974 280.742004 
L 114.79263 281.864424 
L 116.987237 281.996797 
L 117.690598 282.440679 
L 118.470204 282.575171 
L 120.334408 280.571064 
L 121.215678 279.798155 
L 121.817375 279.599665 
L 122.577921 279.22204 
L 124.550141 277.804357 
L 125.431413 277.751944 
L 126.096649 278.04 
L 126.977919 277.919918 
L 128.087931 277.490588 
L 129.736102 277.306792 
L 130.522066 277.086264 
L 132.475225 275.813953 
L 133.115046 275.907477 
L 133.977256 276.449403 
L 134.99196 276.492632 
L 136.121033 275.955793 
L 137.661189 274.733068 
L 139.02979 272.708192 
L 139.980952 271.448878 
L 140.925763 270.965863 
L 142.46592 270.630762 
L 145.927468 269.014308 
L 146.923111 268.453593 
L 147.721781 267.483325 
L 148.450559 266.370512 
L 149.236523 265.632216 
L 150.003425 265.191583 
L 150.878344 265.085627 
L 151.8168 265.392756 
L 152.907754 265.452232 
L 153.909752 264.937007 
L 154.644883 264.217923 
L 156.729553 261.570454 
L 157.826861 260.699643 
L 158.790732 260.355782 
L 159.627531 260.665313 
L 160.311833 261.274344 
L 161.199457 261.099165 
L 162.264996 260.390818 
L 164.002125 259.545437 
L 165.466035 258.13157 
L 167.234939 255.837565 
L 168.705204 254.480349 
L 169.535648 253.034555 
L 170.442336 251.865656 
L 171.893541 250.633326 
L 174.569136 248.189998 
L 176.07117 247.766457 
L 176.876196 247.00584 
L 179.962872 243.325942 
L 180.869563 242.691623 
L 181.852501 241.772071 
L 182.930746 241.01668 
L 183.66588 240.702204 
L 184.312058 240.075655 
L 185.852222 236.746682 
L 186.720787 235.323492 
L 187.360614 235.022014 
L 189.186705 235.145206 
L 190.334846 235.09124 
L 191.875007 234.454659 
L 192.60379 233.624391 
L 194.143954 230.879868 
L 196.673411 228.372684 
L 197.561042 227.70008 
L 199.98883 226.559574 
L 201.009888 225.736654 
L 201.814929 224.440046 
L 204.488597 218.381946 
L 205.420707 217.438377 
L 207.943813 215.625695 
L 208.729775 214.882737 
L 210.30807 212.752613 
L 211.246534 211.817241 
L 211.962612 211.358949 
L 213.623501 211.031476 
L 214.619148 210.40182 
L 216.31816 208.658784 
L 216.957994 208.355044 
L 217.66771 208.311814 
L 219.881391 207.18643 
L 220.800791 206.844972 
L 221.453327 206.322542 
L 221.927959 205.525755 
L 224.514596 201.814635 
L 226.999589 200.407124 
L 228.698601 199.349127 
L 230.511991 197.723633 
L 233.261921 191.352048 
L 233.939879 189.666084 
L 234.814801 188.434318 
L 236.96303 183.09657 
L 237.679108 181.59794 
L 238.185509 180.021608 
L 240.011604 177.146124 
L 240.861108 176.518868 
L 241.532708 176.50474 
L 242.337745 176.661696 
L 243.377867 176.113128 
L 244.51331 175.768137 
L 245.305631 175.672917 
L 245.913692 175.750056 
L 246.655188 174.940418 
L 249.614802 169.819387 
L 251.599746 165.632879 
L 252.334887 163.718056 
L 253.144366 160.856421 
L 254.044706 158.743248 
L 255.148376 156.744086 
L 255.813618 155.857876 
L 256.402609 155.686511 
L 257.239419 155.124945 
L 258.235066 153.796404 
L 259.129056 152.263723 
L 259.775245 151.409862 
L 261.137508 148.82215 
L 262.025139 147.197502 
L 263.520843 145.673303 
L 264.332224 145.378325 
L 265.321524 144.729314 
L 266.253641 143.504613 
L 267.673087 140.044959 
L 268.724008 135.636655 
L 269.478213 133.984035 
L 270.245127 132.67358 
L 272.793665 129.333584 
L 278.446054 114.760778 
L 279.136714 113.867784 
L 279.865501 113.487615 
L 280.861148 113.388864 
L 282.960476 113.441557 
L 283.581229 112.927746 
L 284.379919 111.477575 
L 285.096008 109.304788 
L 286.22953 105.22523 
L 286.932906 103.792149 
L 287.896799 102.132181 
L 288.78443 100.308899 
L 289.443332 98.607114 
L 289.987859 96.801632 
L 291.197629 92.046217 
L 292.066186 90.13634 
L 293.479307 87.667585 
L 295.222797 85.028026 
L 297.301159 81.242606 
L 298.220581 79.206711 
L 298.993821 77.158669 
L 299.430351 75.560442 
L 300.830741 72.380079 
L 302.586962 69.392273 
L 303.27126 67.769886 
L 303.796731 65.962012 
L 304.544585 63.893778 
L 304.544585 63.893778 
" clip-path="url(#p833a6ef338)" style="fill: none; stroke: #fb9a99; stroke-opacity: 0.5; stroke-width: 1.5; stroke-linecap: square"/>
   </g>
   <g id="line2d_38">
    <path d="M 71.470691 292.299971 
L 108.947793 292.230279 
L 110.994333 291.898528 
L 113.688974 291.242978 
L 116.987237 290.19686 
L 120.334408 288.915597 
L 124.550141 287.037191 
L 129.000973 284.775798 
L 133.115046 282.459416 
L 138.167579 279.345836 
L 143.404376 275.832345 
L 149.236523 271.603884 
L 154.644883 267.406639 
L 160.311833 262.741971 
L 166.436264 257.411579 
L 172.685865 251.679484 
L 179.405649 245.203412 
L 185.852222 238.700786 
L 192.60379 231.600035 
L 199.98883 223.507423 
L 207.943813 214.425937 
L 215.614795 205.325597 
L 223.709569 195.371706 
L 231.817063 185.054548 
L 240.011604 174.285717 
L 249.178298 161.847418 
L 258.235066 149.165722 
L 267.673087 135.549027 
L 276.950354 121.778035 
L 286.932906 106.545887 
L 297.301159 90.284579 
L 304.544585 78.665084 
L 304.544585 78.665084 
" clip-path="url(#p833a6ef338)" style="fill: none; stroke-dasharray: 5.55,2.4; stroke-dashoffset: 0; stroke: #e31a1c; stroke-opacity: 0.7; stroke-width: 1.5"/>
   </g>
   <g id="line2d_39">
    <path d="M 71.888512 288.702139 
L 72.725303 288.719374 
L 73.555739 289.292663 
L 74.449716 289.398901 
L 76.460055 289.443403 
L 77.423926 290.115442 
L 78.044687 290.894002 
L 79.167404 291.239558 
L 81.209514 290.726593 
L 82.590817 291.73444 
L 84.785422 290.083798 
L 85.698462 289.266529 
L 86.084126 289.127798 
L 88.829596 286.71569 
L 89.761698 286.519743 
L 90.331625 287.105182 
L 91.378097 287.459073 
L 93.261362 287.206335 
L 94.225233 287.462323 
L 95.068379 288.041404 
L 96.938936 288.356867 
L 98.784077 288.448129 
L 100.514848 288.556205 
L 102.328221 287.961867 
L 104.052638 287.005869 
L 104.794123 286.738154 
L 105.694455 286.226884 
L 106.480417 285.432926 
L 107.463351 284.954856 
L 108.338267 284.771341 
L 108.971736 284.382838 
L 109.872068 283.628154 
L 111.74898 282.546703 
L 112.312556 282.5508 
L 113.289136 282.738976 
L 114.361025 282.133336 
L 115.261358 281.297843 
L 116.117213 280.740095 
L 116.737975 280.492725 
L 118.411563 278.697701 
L 119.356373 278.24944 
L 120.301184 277.995853 
L 121.796863 277.351362 
L 122.887814 276.92415 
L 123.553052 277.164739 
L 124.402555 277.610034 
L 125.601524 278.011534 
L 126.628934 278.200558 
L 127.586454 278.127237 
L 128.200861 278.270348 
L 129.969761 276.937006 
L 130.844678 276.776943 
L 132.550039 277.288919 
L 133.698174 277.082095 
L 136.918279 275.626127 
L 138.744363 273.989754 
L 140.309938 273.247644 
L 141.038716 272.448883 
L 141.970819 271.724008 
L 142.92834 271.426768 
L 146.38354 269.724699 
L 147.074196 269.998629 
L 148.082547 270.619951 
L 152.039709 273.565084 
L 152.908276 273.02782 
L 153.853088 272.056562 
L 154.48656 270.950954 
L 156.001303 269.362049 
L 156.996946 267.91696 
L 157.890929 266.225631 
L 158.935484 262.787594 
L 159.651555 261.363979 
L 160.507417 260.327454 
L 161.363276 259.876084 
L 163.379981 259.979638 
L 164.2549 259.485321 
L 164.932847 258.852839 
L 165.66163 257.730277 
L 166.371346 255.941612 
L 167.309807 254.725105 
L 168.197438 253.983277 
L 168.805493 254.066063 
L 169.68677 254.612793 
L 170.892094 254.849426 
L 171.887741 254.854651 
L 173.580399 254.711965 
L 175.944653 252.074242 
L 176.883113 251.584446 
L 177.669076 251.407995 
L 178.493166 251.062722 
L 180.287488 249.798886 
L 182.778818 248.336985 
L 185.14943 245.738963 
L 185.871859 244.429216 
L 186.632411 242.653405 
L 188.774279 238.384255 
L 190.486 234.965288 
L 191.74024 232.533969 
L 194.485735 230.066621 
L 195.233586 230.06521 
L 196.146624 230.824557 
L 197.027898 231.065006 
L 198.06803 231.096932 
L 200.040257 231.418753 
L 200.622904 231.1379 
L 201.535947 230.563621 
L 202.385451 229.439507 
L 204.711596 225.615796 
L 206.150102 222.344888 
L 206.904296 220.832694 
L 207.658497 219.60361 
L 208.501654 218.831123 
L 209.262203 218.560865 
L 210.213376 218.54928 
L 211.107354 218.384414 
L 212.134781 217.985741 
L 212.946166 217.493543 
L 213.681296 216.522854 
L 214.283007 215.017582 
L 215.113459 213.471623 
L 216.571018 211.618817 
L 218.467009 209.758523 
L 219.899165 208.723553 
L 220.608881 208.339711 
L 221.617244 207.077007 
L 222.708201 205.493469 
L 223.392507 204.231896 
L 223.848075 203.772334 
L 225.508964 201.328582 
L 226.561798 200.339383 
L 227.449433 200.449858 
L 227.993953 200.918039 
L 228.862532 200.773372 
L 230.074211 199.636684 
L 230.898308 198.221969 
L 232.665307 193.706299 
L 233.597412 191.979368 
L 234.389737 191.188943 
L 235.271018 190.81824 
L 236.076048 190.126282 
L 236.963686 188.599254 
L 238.230642 185.287231 
L 238.794227 183.554793 
L 239.535711 181.892567 
L 240.626669 180.193468 
L 241.99529 178.483066 
L 242.819384 178.024209 
L 244.626423 175.619307 
L 245.348858 175.001373 
L 246.819137 174.573596 
L 247.85927 174.133246 
L 249.666301 172.779419 
L 250.490398 171.910023 
L 251.878076 169.707853 
L 253.513565 167.04724 
L 254.356718 166.268115 
L 255.085512 165.89162 
L 255.877833 165.117579 
L 256.778181 164.066924 
L 258.426371 162.469401 
L 259.059844 161.528236 
L 260.841472 158.412447 
L 262.089365 155.847908 
L 264.644265 152.105144 
L 265.366697 151.499928 
L 266.057361 150.741568 
L 266.881454 149.59852 
L 267.877108 147.798126 
L 269.055109 144.623286 
L 270.506331 142.523816 
L 271.565524 141.417361 
L 273.32173 140.226995 
L 274.671299 138.656736 
L 276.351262 135.853723 
L 277.213479 135.186064 
L 277.923206 134.844036 
L 279.749312 133.290165 
L 280.643301 132.363409 
L 281.86579 129.704361 
L 282.613644 127.625945 
L 283.374203 124.763178 
L 284.501371 119.756718 
L 285.742913 115.162633 
L 286.59879 113.342884 
L 288.056364 111.010736 
L 288.96941 110.143881 
L 289.717274 109.233233 
L 290.522301 108.076203 
L 291.365476 107.404726 
L 292.151439 106.979632 
L 294.820705 104.577693 
L 296.892713 101.027624 
L 297.685045 99.369495 
L 299.155313 94.990857 
L 299.788818 92.524647 
L 300.801612 87.064841 
L 301.524045 84.702037 
L 302.265562 82.86816 
L 303.03882 81.541316 
L 303.793021 80.644369 
L 307.133905 78.082804 
L 308.034256 77.274715 
L 309.536319 75.557668 
L 310.373118 74.546991 
L 311.152733 73.300953 
L 311.957781 71.749061 
L 312.623034 69.82082 
L 313.243812 67.445736 
L 313.243812 67.445736 
" clip-path="url(#p833a6ef338)" style="fill: none; stroke: #fdbf6f; stroke-opacity: 0.5; stroke-width: 1.5; stroke-linecap: square"/>
   </g>
   <g id="line2d_40">
    <path d="M 71.888512 292.299971 
L 108.971736 292.231574 
L 111.74898 291.767556 
L 114.361025 291.118898 
L 117.371443 290.184577 
L 120.991837 288.844146 
L 124.402555 287.395707 
L 128.96141 285.213524 
L 133.698174 282.680078 
L 138.744363 279.712454 
L 143.790553 276.491421 
L 149.046421 272.887555 
L 155.228045 268.346666 
L 161.363276 263.538063 
L 168.197438 257.850083 
L 174.137621 252.638169 
L 181.009917 246.313779 
L 188.236116 239.33935 
L 195.233586 232.283662 
L 202.385451 224.77865 
L 210.213376 216.23806 
L 218.467009 206.878873 
L 226.561798 197.360659 
L 235.271018 186.75922 
L 243.624421 176.252184 
L 252.721247 164.446051 
L 262.089365 151.904602 
L 271.565524 138.836092 
L 281.213254 125.148554 
L 291.365476 110.341694 
L 301.524045 95.123945 
L 311.957781 79.088213 
L 313.243812 77.083817 
L 313.243812 77.083817 
" clip-path="url(#p833a6ef338)" style="fill: none; stroke-dasharray: 5.55,2.4; stroke-dashoffset: 0; stroke: #ff7f00; stroke-opacity: 0.7; stroke-width: 1.5"/>
   </g>
   <g id="line2d_41">
    <path d="M 71.888512 292.299971 
L 108.971736 292.228242 
L 111.74898 291.741532 
L 114.361025 291.060988 
L 117.371443 290.080485 
L 120.991837 288.673366 
L 124.402555 287.152373 
L 128.96141 284.860032 
L 133.698174 282.197549 
L 138.744363 279.07736 
L 143.790553 275.689148 
L 149.046421 271.89642 
L 155.228045 267.115018 
L 161.363276 262.048825 
L 167.309807 256.851594 
L 173.580399 251.081477 
L 180.287488 244.596806 
L 186.632411 238.178224 
L 193.648933 230.772629 
L 200.622904 223.104743 
L 208.501654 214.088366 
L 216.571018 204.479966 
L 224.513317 194.667235 
L 232.665307 184.241445 
L 241.431706 172.643229 
L 249.666301 161.395328 
L 258.426371 149.065543 
L 266.881454 136.819223 
L 276.351262 122.711336 
L 285.742913 108.322188 
L 295.473256 93.007749 
L 305.555589 76.714508 
L 313.243812 64.006508 
L 313.243812 64.006508 
" clip-path="url(#p833a6ef338)" style="fill: none; stroke: #1f77b4; stroke-width: 2.5; stroke-linecap: square"/>
   </g>
   <g id="patch_3">
    <path d="M 72 320.4 
L 72 43.2 
" style="fill: none; stroke: #000000; stroke-width: 0.8; stroke-linejoin: miter; stroke-linecap: square"/>
   </g>
   <g id="patch_4">
    <path d="M 349.267081 320.4 
L 349.267081 43.2 
" style="fill: none; stroke: #000000; stroke-width: 0.8; stroke-linejoin: miter; stroke-linecap: square"/>
   </g>
   <g id="patch_5">
    <path d="M 72 320.4 
L 349.267081 320.4 
" style="fill: none; stroke: #000000; stroke-width: 0.8; stroke-linejoin: miter; stroke-linecap: square"/>
   </g>
   <g id="patch_6">
    <path d="M 72 43.2 
L 349.267081 43.2 
" style="fill: none; stroke: #000000; stroke-width: 0.8; stroke-linejoin: miter; stroke-linecap: square"/>
   </g>
   <g id="text_21">
    <!-- Treated-Cell12 Sneddon Model Fit Quality -->
    <g transform="translate(45.48479 26.601562) scale(0.16 -0.16)">
     <defs>
      <path id="DejaVuSans-54" d="M -19 4666 
L 3928 4666 
L 3928 4134 
L 2272 4134 
L 2272 0 
L 1638 0 
L 1638 4134 
L -19 4134 
L -19 4666 
z
" transform="scale(0.015625)"/>
      <path id="DejaVuSans-2d" d="M 313 2009 
L 1997 2009 
L 1997 1497 
L 313 1497 
L 313 2009 
z
" transform="scale(0.015625)"/>
      <path id="DejaVuSans-43" d="M 4122 4306 
L 4122 3641 
Q 3803 3938 3442 4084 
Q 3081 4231 2675 4231 
Q 1875 4231 1450 3742 
Q 1025 3253 1025 2328 
Q 1025 1406 1450 917 
Q 1875 428 2675 428 
Q 3081 428 3442 575 
Q 3803 722 4122 1019 
L 4122 359 
Q 3791 134 3420 21 
Q 3050 -91 2638 -91 
Q 1578 -91 968 557 
Q 359 1206 359 2328 
Q 359 3453 968 4101 
Q 1578 4750 2638 4750 
Q 3056 4750 3426 4639 
Q 3797 4528 4122 4306 
z
" transform="scale(0.015625)"/>
      <path id="DejaVuSans-6c" d="M 603 4863 
L 1178 4863 
L 1178 0 
L 603 0 
L 603 4863 
z
" transform="scale(0.015625)"/>
      <path id="DejaVuSans-53" d="M 3425 4513 
L 3425 3897 
Q 3066 4069 2747 4153 
Q 2428 4238 2131 4238 
Q 1616 4238 1336 4038 
Q 1056 3838 1056 3469 
Q 1056 3159 1242 3001 
Q 1428 2844 1947 2747 
L 2328 2669 
Q 3034 2534 3370 2195 
Q 3706 1856 3706 1288 
Q 3706 609 3251 259 
Q 2797 -91 1919 -91 
Q 1588 -91 1214 -16 
Q 841 59 441 206 
L 441 856 
Q 825 641 1194 531 
Q 1563 422 1919 422 
Q 2459 422 2753 634 
Q 3047 847 3047 1241 
Q 3047 1584 2836 1778 
Q 2625 1972 2144 2069 
L 1759 2144 
Q 1053 2284 737 2584 
Q 422 2884 422 3419 
Q 422 4038 858 4394 
Q 1294 4750 2059 4750 
Q 2388 4750 2728 4690 
Q 3069 4631 3425 4513 
z
" transform="scale(0.015625)"/>
      <path id="DejaVuSans-4d" d="M 628 4666 
L 1569 4666 
L 2759 1491 
L 3956 4666 
L 4897 4666 
L 4897 0 
L 4281 0 
L 4281 4097 
L 3078 897 
L 2444 897 
L 1241 4097 
L 1241 0 
L 628 0 
L 628 4666 
z
" transform="scale(0.015625)"/>
      <path id="DejaVuSans-51" d="M 2522 4238 
Q 1834 4238 1429 3725 
Q 1025 3213 1025 2328 
Q 1025 1447 1429 934 
Q 1834 422 2522 422 
Q 3209 422 3611 934 
Q 4013 1447 4013 2328 
Q 4013 3213 3611 3725 
Q 3209 4238 2522 4238 
z
M 3406 84 
L 4238 -825 
L 3475 -825 
L 2784 -78 
Q 2681 -84 2626 -87 
Q 2572 -91 2522 -91 
Q 1538 -91 948 567 
Q 359 1225 359 2328 
Q 359 3434 948 4092 
Q 1538 4750 2522 4750 
Q 3503 4750 4090 4092 
Q 4678 3434 4678 2328 
Q 4678 1516 4351 937 
Q 4025 359 3406 84 
z
" transform="scale(0.015625)"/>
      <path id="DejaVuSans-75" d="M 544 1381 
L 544 3500 
L 1119 3500 
L 1119 1403 
Q 1119 906 1312 657 
Q 1506 409 1894 409 
Q 2359 409 2629 706 
Q 2900 1003 2900 1516 
L 2900 3500 
L 3475 3500 
L 3475 0 
L 2900 0 
L 2900 538 
Q 2691 219 2414 64 
Q 2138 -91 1772 -91 
Q 1169 -91 856 284 
Q 544 659 544 1381 
z
M 1991 3584 
L 1991 3584 
z
" transform="scale(0.015625)"/>
      <path id="DejaVuSans-79" d="M 2059 -325 
Q 1816 -950 1584 -1140 
Q 1353 -1331 966 -1331 
L 506 -1331 
L 506 -850 
L 844 -850 
Q 1081 -850 1212 -737 
Q 1344 -625 1503 -206 
L 1606 56 
L 191 3500 
L 800 3500 
L 1894 763 
L 2988 3500 
L 3597 3500 
L 2059 -325 
z
" transform="scale(0.015625)"/>
     </defs>
     <use xlink:href="#DejaVuSans-54"/>
     <use xlink:href="#DejaVuSans-72" transform="translate(46.333984 0)"/>
     <use xlink:href="#DejaVuSans-65" transform="translate(85.197266 0)"/>
     <use xlink:href="#DejaVuSans-61" transform="translate(146.720703 0)"/>
     <use xlink:href="#DejaVuSans-74" transform="translate(208 0)"/>
     <use xlink:href="#DejaVuSans-65" transform="translate(247.208984 0)"/>
     <use xlink:href="#DejaVuSans-64" transform="translate(308.732422 0)"/>
     <use xlink:href="#DejaVuSans-2d" transform="translate(372.208984 0)"/>
     <use xlink:href="#DejaVuSans-43" transform="translate(408.292969 0)"/>
     <use xlink:href="#DejaVuSans-65" transform="translate(478.117188 0)"/>
     <use xlink:href="#DejaVuSans-6c" transform="translate(539.640625 0)"/>
     <use xlink:href="#DejaVuSans-6c" transform="translate(567.423828 0)"/>
     <use xlink:href="#DejaVuSans-31" transform="translate(595.207031 0)"/>
     <use xlink:href="#DejaVuSans-32" transform="translate(658.830078 0)"/>
     <use xlink:href="#DejaVuSans-20" transform="translate(722.453125 0)"/>
     <use xlink:href="#DejaVuSans-53" transform="translate(754.240234 0)"/>
     <use xlink:href="#DejaVuSans-6e" transform="translate(817.716797 0)"/>
     <use xlink:href="#DejaVuSans-65" transform="translate(881.095703 0)"/>
     <use xlink:href="#DejaVuSans-64" transform="translate(942.619141 0)"/>
     <use xlink:href="#DejaVuSans-64" transform="translate(1006.095703 0)"/>
     <use xlink:href="#DejaVuSans-6f" transform="translate(1069.572266 0)"/>
     <use xlink:href="#DejaVuSans-6e" transform="translate(1130.753906 0)"/>
     <use xlink:href="#DejaVuSans-20" transform="translate(1194.132812 0)"/>
     <use xlink:href="#DejaVuSans-4d" transform="translate(1225.919922 0)"/>
     <use xlink:href="#DejaVuSans-6f" transform="translate(1312.199219 0)"/>
     <use xlink:href="#DejaVuSans-64" transform="translate(1373.380859 0)"/>
     <use xlink:href="#DejaVuSans-65" transform="translate(1436.857422 0)"/>
     <use xlink:href="#DejaVuSans-6c" transform="translate(1498.380859 0)"/>
     <use xlink:href="#DejaVuSans-20" transform="translate(1526.164062 0)"/>
     <use xlink:href="#DejaVuSans-46" transform="translate(1557.951172 0)"/>
     <use xlink:href="#DejaVuSans-69" transform="translate(1608.220703 0)"/>
     <use xlink:href="#DejaVuSans-74" transform="translate(1636.003906 0)"/>
     <use xlink:href="#DejaVuSans-20" transform="translate(1675.212891 0)"/>
     <use xlink:href="#DejaVuSans-51" transform="translate(1707 0)"/>
     <use xlink:href="#DejaVuSans-75" transform="translate(1785.710938 0)"/>
     <use xlink:href="#DejaVuSans-61" transform="translate(1849.089844 0)"/>
     <use xlink:href="#DejaVuSans-6c" transform="translate(1910.369141 0)"/>
     <use xlink:href="#DejaVuSans-69" transform="translate(1938.152344 0)"/>
     <use xlink:href="#DejaVuSans-74" transform="translate(1965.935547 0)"/>
     <use xlink:href="#DejaVuSans-79" transform="translate(2005.144531 0)"/>
    </g>
   </g>
   <g id="legend_1">
    <g id="patch_7">
     <path d="M 79 124.590625 
L 215.540625 124.590625 
Q 217.540625 124.590625 217.540625 122.590625 
L 217.540625 50.2 
Q 217.540625 48.2 215.540625 48.2 
L 79 48.2 
Q 77 48.2 77 50.2 
L 77 122.590625 
Q 77 124.590625 79 124.590625 
z
" style="fill: #ffffff; opacity: 0.8; stroke: #cccccc; stroke-linejoin: miter"/>
    </g>
    <g id="line2d_42">
     <path d="M 81 56.298437 
L 91 56.298437 
L 101 56.298437 
" style="fill: none; stroke-dasharray: 5.55,2.4; stroke-dashoffset: 0; stroke: #1f78b4; stroke-opacity: 0.7; stroke-width: 1.5"/>
    </g>
    <g id="text_22">
     <!-- Test 66 Fit: 833 Pa -->
     <g transform="translate(109 59.798437) scale(0.1 -0.1)">
      <defs>
       <path id="DejaVuSans-73" d="M 2834 3397 
L 2834 2853 
Q 2591 2978 2328 3040 
Q 2066 3103 1784 3103 
Q 1356 3103 1142 2972 
Q 928 2841 928 2578 
Q 928 2378 1081 2264 
Q 1234 2150 1697 2047 
L 1894 2003 
Q 2506 1872 2764 1633 
Q 3022 1394 3022 966 
Q 3022 478 2636 193 
Q 2250 -91 1575 -91 
Q 1294 -91 989 -36 
Q 684 19 347 128 
L 347 722 
Q 666 556 975 473 
Q 1284 391 1588 391 
Q 1994 391 2212 530 
Q 2431 669 2431 922 
Q 2431 1156 2273 1281 
Q 2116 1406 1581 1522 
L 1381 1569 
Q 847 1681 609 1914 
Q 372 2147 372 2553 
Q 372 3047 722 3315 
Q 1072 3584 1716 3584 
Q 2034 3584 2315 3537 
Q 2597 3491 2834 3397 
z
" transform="scale(0.015625)"/>
       <path id="DejaVuSans-3a" d="M 750 794 
L 1409 794 
L 1409 0 
L 750 0 
L 750 794 
z
M 750 3309 
L 1409 3309 
L 1409 2516 
L 750 2516 
L 750 3309 
z
" transform="scale(0.015625)"/>
       <path id="DejaVuSans-50" d="M 1259 4147 
L 1259 2394 
L 2053 2394 
Q 2494 2394 2734 2622 
Q 2975 2850 2975 3272 
Q 2975 3691 2734 3919 
Q 2494 4147 2053 4147 
L 1259 4147 
z
M 628 4666 
L 2053 4666 
Q 2838 4666 3239 4311 
Q 3641 3956 3641 3272 
Q 3641 2581 3239 2228 
Q 2838 1875 2053 1875 
L 1259 1875 
L 1259 0 
L 628 0 
L 628 4666 
z
" transform="scale(0.015625)"/>
      </defs>
      <use xlink:href="#DejaVuSans-54"/>
      <use xlink:href="#DejaVuSans-65" transform="translate(44.083984 0)"/>
      <use xlink:href="#DejaVuSans-73" transform="translate(105.607422 0)"/>
      <use xlink:href="#DejaVuSans-74" transform="translate(157.707031 0)"/>
      <use xlink:href="#DejaVuSans-20" transform="translate(196.916016 0)"/>
      <use xlink:href="#DejaVuSans-36" transform="translate(228.703125 0)"/>
      <use xlink:href="#DejaVuSans-36" transform="translate(292.326172 0)"/>
      <use xlink:href="#DejaVuSans-20" transform="translate(355.949219 0)"/>
      <use xlink:href="#DejaVuSans-46" transform="translate(387.736328 0)"/>
      <use xlink:href="#DejaVuSans-69" transform="translate(438.005859 0)"/>
      <use xlink:href="#DejaVuSans-74" transform="translate(465.789062 0)"/>
      <use xlink:href="#DejaVuSans-3a" transform="translate(504.998047 0)"/>
      <use xlink:href="#DejaVuSans-20" transform="translate(538.689453 0)"/>
      <use xlink:href="#DejaVuSans-38" transform="translate(570.476562 0)"/>
      <use xlink:href="#DejaVuSans-33" transform="translate(634.099609 0)"/>
      <use xlink:href="#DejaVuSans-33" transform="translate(697.722656 0)"/>
      <use xlink:href="#DejaVuSans-20" transform="translate(761.345703 0)"/>
      <use xlink:href="#DejaVuSans-50" transform="translate(793.132812 0)"/>
      <use xlink:href="#DejaVuSans-61" transform="translate(848.935547 0)"/>
     </g>
    </g>
    <g id="line2d_43">
     <path d="M 81 70.976562 
L 91 70.976562 
L 101 70.976562 
" style="fill: none; stroke-dasharray: 5.55,2.4; stroke-dashoffset: 0; stroke: #33a02c; stroke-opacity: 0.7; stroke-width: 1.5"/>
    </g>
    <g id="text_23">
     <!-- Test 67 Fit: 847 Pa -->
     <g transform="translate(109 74.476562) scale(0.1 -0.1)">
      <use xlink:href="#DejaVuSans-54"/>
      <use xlink:href="#DejaVuSans-65" transform="translate(44.083984 0)"/>
      <use xlink:href="#DejaVuSans-73" transform="translate(105.607422 0)"/>
      <use xlink:href="#DejaVuSans-74" transform="translate(157.707031 0)"/>
      <use xlink:href="#DejaVuSans-20" transform="translate(196.916016 0)"/>
      <use xlink:href="#DejaVuSans-36" transform="translate(228.703125 0)"/>
      <use xlink:href="#DejaVuSans-37" transform="translate(292.326172 0)"/>
      <use xlink:href="#DejaVuSans-20" transform="translate(355.949219 0)"/>
      <use xlink:href="#DejaVuSans-46" transform="translate(387.736328 0)"/>
      <use xlink:href="#DejaVuSans-69" transform="translate(438.005859 0)"/>
      <use xlink:href="#DejaVuSans-74" transform="translate(465.789062 0)"/>
      <use xlink:href="#DejaVuSans-3a" transform="translate(504.998047 0)"/>
      <use xlink:href="#DejaVuSans-20" transform="translate(538.689453 0)"/>
      <use xlink:href="#DejaVuSans-38" transform="translate(570.476562 0)"/>
      <use xlink:href="#DejaVuSans-34" transform="translate(634.099609 0)"/>
      <use xlink:href="#DejaVuSans-37" transform="translate(697.722656 0)"/>
      <use xlink:href="#DejaVuSans-20" transform="translate(761.345703 0)"/>
      <use xlink:href="#DejaVuSans-50" transform="translate(793.132812 0)"/>
      <use xlink:href="#DejaVuSans-61" transform="translate(848.935547 0)"/>
     </g>
    </g>
    <g id="line2d_44">
     <path d="M 81 85.654687 
L 91 85.654687 
L 101 85.654687 
" style="fill: none; stroke-dasharray: 5.55,2.4; stroke-dashoffset: 0; stroke: #e31a1c; stroke-opacity: 0.7; stroke-width: 1.5"/>
    </g>
    <g id="text_24">
     <!-- Test 68 Fit: 833 Pa -->
     <g transform="translate(109 89.154687) scale(0.1 -0.1)">
      <use xlink:href="#DejaVuSans-54"/>
      <use xlink:href="#DejaVuSans-65" transform="translate(44.083984 0)"/>
      <use xlink:href="#DejaVuSans-73" transform="translate(105.607422 0)"/>
      <use xlink:href="#DejaVuSans-74" transform="translate(157.707031 0)"/>
      <use xlink:href="#DejaVuSans-20" transform="translate(196.916016 0)"/>
      <use xlink:href="#DejaVuSans-36" transform="translate(228.703125 0)"/>
      <use xlink:href="#DejaVuSans-38" transform="translate(292.326172 0)"/>
      <use xlink:href="#DejaVuSans-20" transform="translate(355.949219 0)"/>
      <use xlink:href="#DejaVuSans-46" transform="translate(387.736328 0)"/>
      <use xlink:href="#DejaVuSans-69" transform="translate(438.005859 0)"/>
      <use xlink:href="#DejaVuSans-74" transform="translate(465.789062 0)"/>
      <use xlink:href="#DejaVuSans-3a" transform="translate(504.998047 0)"/>
      <use xlink:href="#DejaVuSans-20" transform="translate(538.689453 0)"/>
      <use xlink:href="#DejaVuSans-38" transform="translate(570.476562 0)"/>
      <use xlink:href="#DejaVuSans-33" transform="translate(634.099609 0)"/>
      <use xlink:href="#DejaVuSans-33" transform="translate(697.722656 0)"/>
      <use xlink:href="#DejaVuSans-20" transform="translate(761.345703 0)"/>
      <use xlink:href="#DejaVuSans-50" transform="translate(793.132812 0)"/>
      <use xlink:href="#DejaVuSans-61" transform="translate(848.935547 0)"/>
     </g>
    </g>
    <g id="line2d_45">
     <path d="M 81 100.332812 
L 91 100.332812 
L 101 100.332812 
" style="fill: none; stroke-dasharray: 5.55,2.4; stroke-dashoffset: 0; stroke: #ff7f00; stroke-opacity: 0.7; stroke-width: 1.5"/>
    </g>
    <g id="text_25">
     <!-- Test 69 Fit: 787 Pa -->
     <g transform="translate(109 103.832812) scale(0.1 -0.1)">
      <use xlink:href="#DejaVuSans-54"/>
      <use xlink:href="#DejaVuSans-65" transform="translate(44.083984 0)"/>
      <use xlink:href="#DejaVuSans-73" transform="translate(105.607422 0)"/>
      <use xlink:href="#DejaVuSans-74" transform="translate(157.707031 0)"/>
      <use xlink:href="#DejaVuSans-20" transform="translate(196.916016 0)"/>
      <use xlink:href="#DejaVuSans-36" transform="translate(228.703125 0)"/>
      <use xlink:href="#DejaVuSans-39" transform="translate(292.326172 0)"/>
      <use xlink:href="#DejaVuSans-20" transform="translate(355.949219 0)"/>
      <use xlink:href="#DejaVuSans-46" transform="translate(387.736328 0)"/>
      <use xlink:href="#DejaVuSans-69" transform="translate(438.005859 0)"/>
      <use xlink:href="#DejaVuSans-74" transform="translate(465.789062 0)"/>
      <use xlink:href="#DejaVuSans-3a" transform="translate(504.998047 0)"/>
      <use xlink:href="#DejaVuSans-20" transform="translate(538.689453 0)"/>
      <use xlink:href="#DejaVuSans-37" transform="translate(570.476562 0)"/>
      <use xlink:href="#DejaVuSans-38" transform="translate(634.099609 0)"/>
      <use xlink:href="#DejaVuSans-37" transform="translate(697.722656 0)"/>
      <use xlink:href="#DejaVuSans-20" transform="translate(761.345703 0)"/>
      <use xlink:href="#DejaVuSans-50" transform="translate(793.132812 0)"/>
      <use xlink:href="#DejaVuSans-61" transform="translate(848.935547 0)"/>
     </g>
    </g>
    <g id="line2d_46">
     <path d="M 81 115.010937 
L 91 115.010937 
L 101 115.010937 
" style="fill: none; stroke: #1f77b4; stroke-width: 2.5; stroke-linecap: square"/>
    </g>
    <g id="text_26">
     <!-- Mean Cell Fit: 825 Pa -->
     <g transform="translate(109 118.510937) scale(0.1 -0.1)">
      <use xlink:href="#DejaVuSans-4d"/>
      <use xlink:href="#DejaVuSans-65" transform="translate(86.279297 0)"/>
      <use xlink:href="#DejaVuSans-61" transform="translate(147.802734 0)"/>
      <use xlink:href="#DejaVuSans-6e" transform="translate(209.082031 0)"/>
      <use xlink:href="#DejaVuSans-20" transform="translate(272.460938 0)"/>
      <use xlink:href="#DejaVuSans-43" transform="translate(304.248047 0)"/>
      <use xlink:href="#DejaVuSans-65" transform="translate(374.072266 0)"/>
      <use xlink:href="#DejaVuSans-6c" transform="translate(435.595703 0)"/>
      <use xlink:href="#DejaVuSans-6c" transform="translate(463.378906 0)"/>
      <use xlink:href="#DejaVuSans-20" transform="translate(491.162109 0)"/>
      <use xlink:href="#DejaVuSans-46" transform="translate(522.949219 0)"/>
      <use xlink:href="#DejaVuSans-69" transform="translate(573.21875 0)"/>
      <use xlink:href="#DejaVuSans-74" transform="translate(601.001953 0)"/>
      <use xlink:href="#DejaVuSans-3a" transform="translate(640.210938 0)"/>
      <use xlink:href="#DejaVuSans-20" transform="translate(673.902344 0)"/>
      <use xlink:href="#DejaVuSans-38" transform="translate(705.689453 0)"/>
      <use xlink:href="#DejaVuSans-32" transform="translate(769.3125 0)"/>
      <use xlink:href="#DejaVuSans-35" transform="translate(832.935547 0)"/>
      <use xlink:href="#DejaVuSans-20" transform="translate(896.558594 0)"/>
      <use xlink:href="#DejaVuSans-50" transform="translate(928.345703 0)"/>
      <use xlink:href="#DejaVuSans-61" transform="translate(984.148438 0)"/>
     </g>
    </g>
   </g>
  </g>
  <g id="axes_2">
   <g id="patch_8">
    <path d="M 407.493168 320.4 
L 518.4 320.4 
L 518.4 43.2 
L 407.493168 43.2 
z
" style="fill: #ffffff"/>
   </g>
   <g id="PathCollection_1">
    <defs>
     <path id="C0_0_870d2571ab" d="M 0 3 
C 0.795609 3 1.55874 2.683901 2.12132 2.12132 
C 2.683901 1.55874 3 0.795609 3 -0 
C 3 -0.795609 2.683901 -1.55874 2.12132 -2.12132 
C 1.55874 -2.683901 0.795609 -3 0 -3 
C -0.795609 -3 -1.55874 -2.683901 -2.12132 -2.12132 
C -2.683901 -1.55874 -3 -0.795609 -3 0 
C -3 0.795609 -2.683901 1.55874 -2.12132 2.12132 
C -1.55874 2.683901 -0.795609 3 0 3 
z
"/>
    </defs>
    <g clip-path="url(#p852e0940d3)">
     <use xlink:href="#C0_0_870d2571ab" x="462.320673" y="204.942319" style="fill: #a6cee3; fill-opacity: 0.5; stroke: #a6cee3; stroke-opacity: 0.5"/>
    </g>
    <g clip-path="url(#p852e0940d3)">
     <use xlink:href="#C0_0_870d2571ab" x="465.923324" y="203.008849" style="fill: #b2df8a; fill-opacity: 0.5; stroke: #b2df8a; stroke-opacity: 0.5"/>
    </g>
    <g clip-path="url(#p852e0940d3)">
     <use xlink:href="#C0_0_870d2571ab" x="464.58514" y="204.975306" style="fill: #fb9a99; fill-opacity: 0.5; stroke: #fb9a99; stroke-opacity: 0.5"/>
    </g>
    <g clip-path="url(#p852e0940d3)">
     <use xlink:href="#C0_0_870d2571ab" x="464.206586" y="211.38223" style="fill: #fdbf6f; fill-opacity: 0.5; stroke: #fdbf6f; stroke-opacity: 0.5"/>
    </g>
   </g>
   <g id="matplotlib.axis_3">
    <g id="xtick_9">
     <g id="line2d_47">
      <g>
       <use xlink:href="#mc7096e4075" x="462.946584" y="320.4" style="stroke: #000000; stroke-width: 0.8"/>
      </g>
     </g>
     <g id="text_27">
      <!-- Certianty -->
      <g transform="translate(439.821584 334.998438) scale(0.1 -0.1)">
       <use xlink:href="#DejaVuSans-43"/>
       <use xlink:href="#DejaVuSans-65" transform="translate(69.824219 0)"/>
       <use xlink:href="#DejaVuSans-72" transform="translate(131.347656 0)"/>
       <use xlink:href="#DejaVuSans-74" transform="translate(172.460938 0)"/>
       <use xlink:href="#DejaVuSans-69" transform="translate(211.669922 0)"/>
       <use xlink:href="#DejaVuSans-61" transform="translate(239.453125 0)"/>
       <use xlink:href="#DejaVuSans-6e" transform="translate(300.732422 0)"/>
       <use xlink:href="#DejaVuSans-74" transform="translate(364.111328 0)"/>
       <use xlink:href="#DejaVuSans-79" transform="translate(403.320312 0)"/>
      </g>
     </g>
    </g>
   </g>
   <g id="matplotlib.axis_4">
    <g id="ytick_9">
     <g id="line2d_48">
      <path d="M 407.493168 320.4 
L 518.4 320.4 
" clip-path="url(#p852e0940d3)" style="fill: none; stroke-dasharray: 2.96,1.28; stroke-dashoffset: 0; stroke: #b0b0b0; stroke-opacity: 0.7; stroke-width: 0.8"/>
     </g>
     <g id="line2d_49">
      <g>
       <use xlink:href="#me6af8707e3" x="407.493168" y="320.4" style="stroke: #000000; stroke-width: 0.8"/>
      </g>
     </g>
     <g id="text_28">
      <!-- 0 -->
      <g transform="translate(394.130668 324.199219) scale(0.1 -0.1)">
       <use xlink:href="#DejaVuSans-30"/>
      </g>
     </g>
    </g>
    <g id="ytick_10">
     <g id="line2d_50">
      <path d="M 407.493168 285.75 
L 518.4 285.75 
" clip-path="url(#p852e0940d3)" style="fill: none; stroke-dasharray: 2.96,1.28; stroke-dashoffset: 0; stroke: #b0b0b0; stroke-opacity: 0.7; stroke-width: 0.8"/>
     </g>
     <g id="line2d_51">
      <g>
       <use xlink:href="#me6af8707e3" x="407.493168" y="285.75" style="stroke: #000000; stroke-width: 0.8"/>
      </g>
     </g>
     <g id="text_29">
      <!-- 250 -->
      <g transform="translate(381.405668 289.549219) scale(0.1 -0.1)">
       <use xlink:href="#DejaVuSans-32"/>
       <use xlink:href="#DejaVuSans-35" transform="translate(63.623047 0)"/>
       <use xlink:href="#DejaVuSans-30" transform="translate(127.246094 0)"/>
      </g>
     </g>
    </g>
    <g id="ytick_11">
     <g id="line2d_52">
      <path d="M 407.493168 251.1 
L 518.4 251.1 
" clip-path="url(#p852e0940d3)" style="fill: none; stroke-dasharray: 2.96,1.28; stroke-dashoffset: 0; stroke: #b0b0b0; stroke-opacity: 0.7; stroke-width: 0.8"/>
     </g>
     <g id="line2d_53">
      <g>
       <use xlink:href="#me6af8707e3" x="407.493168" y="251.1" style="stroke: #000000; stroke-width: 0.8"/>
      </g>
     </g>
     <g id="text_30">
      <!-- 500 -->
      <g transform="translate(381.405668 254.899219) scale(0.1 -0.1)">
       <use xlink:href="#DejaVuSans-35"/>
       <use xlink:href="#DejaVuSans-30" transform="translate(63.623047 0)"/>
       <use xlink:href="#DejaVuSans-30" transform="translate(127.246094 0)"/>
      </g>
     </g>
    </g>
    <g id="ytick_12">
     <g id="line2d_54">
      <path d="M 407.493168 216.45 
L 518.4 216.45 
" clip-path="url(#p852e0940d3)" style="fill: none; stroke-dasharray: 2.96,1.28; stroke-dashoffset: 0; stroke: #b0b0b0; stroke-opacity: 0.7; stroke-width: 0.8"/>
     </g>
     <g id="line2d_55">
      <g>
       <use xlink:href="#me6af8707e3" x="407.493168" y="216.45" style="stroke: #000000; stroke-width: 0.8"/>
      </g>
     </g>
     <g id="text_31">
      <!-- 750 -->
      <g transform="translate(381.405668 220.249219) scale(0.1 -0.1)">
       <use xlink:href="#DejaVuSans-37"/>
       <use xlink:href="#DejaVuSans-35" transform="translate(63.623047 0)"/>
       <use xlink:href="#DejaVuSans-30" transform="translate(127.246094 0)"/>
      </g>
     </g>
    </g>
    <g id="ytick_13">
     <g id="line2d_56">
      <path d="M 407.493168 181.8 
L 518.4 181.8 
" clip-path="url(#p852e0940d3)" style="fill: none; stroke-dasharray: 2.96,1.28; stroke-dashoffset: 0; stroke: #b0b0b0; stroke-opacity: 0.7; stroke-width: 0.8"/>
     </g>
     <g id="line2d_57">
      <g>
       <use xlink:href="#me6af8707e3" x="407.493168" y="181.8" style="stroke: #000000; stroke-width: 0.8"/>
      </g>
     </g>
     <g id="text_32">
      <!-- 1000 -->
      <g transform="translate(375.043168 185.599219) scale(0.1 -0.1)">
       <use xlink:href="#DejaVuSans-31"/>
       <use xlink:href="#DejaVuSans-30" transform="translate(63.623047 0)"/>
       <use xlink:href="#DejaVuSans-30" transform="translate(127.246094 0)"/>
       <use xlink:href="#DejaVuSans-30" transform="translate(190.869141 0)"/>
      </g>
     </g>
    </g>
    <g id="ytick_14">
     <g id="line2d_58">
      <path d="M 407.493168 147.15 
L 518.4 147.15 
" clip-path="url(#p852e0940d3)" style="fill: none; stroke-dasharray: 2.96,1.28; stroke-dashoffset: 0; stroke: #b0b0b0; stroke-opacity: 0.7; stroke-width: 0.8"/>
     </g>
     <g id="line2d_59">
      <g>
       <use xlink:href="#me6af8707e3" x="407.493168" y="147.15" style="stroke: #000000; stroke-width: 0.8"/>
      </g>
     </g>
     <g id="text_33">
      <!-- 1250 -->
      <g transform="translate(375.043168 150.949219) scale(0.1 -0.1)">
       <use xlink:href="#DejaVuSans-31"/>
       <use xlink:href="#DejaVuSans-32" transform="translate(63.623047 0)"/>
       <use xlink:href="#DejaVuSans-35" transform="translate(127.246094 0)"/>
       <use xlink:href="#DejaVuSans-30" transform="translate(190.869141 0)"/>
      </g>
     </g>
    </g>
    <g id="ytick_15">
     <g id="line2d_60">
      <path d="M 407.493168 112.5 
L 518.4 112.5 
" clip-path="url(#p852e0940d3)" style="fill: none; stroke-dasharray: 2.96,1.28; stroke-dashoffset: 0; stroke: #b0b0b0; stroke-opacity: 0.7; stroke-width: 0.8"/>
     </g>
     <g id="line2d_61">
      <g>
       <use xlink:href="#me6af8707e3" x="407.493168" y="112.5" style="stroke: #000000; stroke-width: 0.8"/>
      </g>
     </g>
     <g id="text_34">
      <!-- 1500 -->
      <g transform="translate(375.043168 116.299219) scale(0.1 -0.1)">
       <use xlink:href="#DejaVuSans-31"/>
       <use xlink:href="#DejaVuSans-35" transform="translate(63.623047 0)"/>
       <use xlink:href="#DejaVuSans-30" transform="translate(127.246094 0)"/>
       <use xlink:href="#DejaVuSans-30" transform="translate(190.869141 0)"/>
      </g>
     </g>
    </g>
    <g id="ytick_16">
     <g id="line2d_62">
      <path d="M 407.493168 77.85 
L 518.4 77.85 
" clip-path="url(#p852e0940d3)" style="fill: none; stroke-dasharray: 2.96,1.28; stroke-dashoffset: 0; stroke: #b0b0b0; stroke-opacity: 0.7; stroke-width: 0.8"/>
     </g>
     <g id="line2d_63">
      <g>
       <use xlink:href="#me6af8707e3" x="407.493168" y="77.85" style="stroke: #000000; stroke-width: 0.8"/>
      </g>
     </g>
     <g id="text_35">
      <!-- 1750 -->
      <g transform="translate(375.043168 81.649219) scale(0.1 -0.1)">
       <use xlink:href="#DejaVuSans-31"/>
       <use xlink:href="#DejaVuSans-37" transform="translate(63.623047 0)"/>
       <use xlink:href="#DejaVuSans-35" transform="translate(127.246094 0)"/>
       <use xlink:href="#DejaVuSans-30" transform="translate(190.869141 0)"/>
      </g>
     </g>
    </g>
    <g id="ytick_17">
     <g id="line2d_64">
      <path d="M 407.493168 43.2 
L 518.4 43.2 
" clip-path="url(#p852e0940d3)" style="fill: none; stroke-dasharray: 2.96,1.28; stroke-dashoffset: 0; stroke: #b0b0b0; stroke-opacity: 0.7; stroke-width: 0.8"/>
     </g>
     <g id="line2d_65">
      <g>
       <use xlink:href="#me6af8707e3" x="407.493168" y="43.2" style="stroke: #000000; stroke-width: 0.8"/>
      </g>
     </g>
     <g id="text_36">
      <!-- 2000 -->
      <g transform="translate(375.043168 46.999219) scale(0.1 -0.1)">
       <use xlink:href="#DejaVuSans-32"/>
       <use xlink:href="#DejaVuSans-30" transform="translate(63.623047 0)"/>
       <use xlink:href="#DejaVuSans-30" transform="translate(127.246094 0)"/>
       <use xlink:href="#DejaVuSans-30" transform="translate(190.869141 0)"/>
      </g>
     </g>
    </g>
    <g id="text_37">
     <!-- Young's Modulus [Pa] -->
     <g transform="translate(368.96348 234.553906) rotate(-90) scale(0.1 -0.1)">
      <defs>
       <path id="DejaVuSans-59" d="M -13 4666 
L 666 4666 
L 1959 2747 
L 3244 4666 
L 3922 4666 
L 2272 2222 
L 2272 0 
L 1638 0 
L 1638 2222 
L -13 4666 
z
" transform="scale(0.015625)"/>
       <path id="DejaVuSans-67" d="M 2906 1791 
Q 2906 2416 2648 2759 
Q 2391 3103 1925 3103 
Q 1463 3103 1205 2759 
Q 947 2416 947 1791 
Q 947 1169 1205 825 
Q 1463 481 1925 481 
Q 2391 481 2648 825 
Q 2906 1169 2906 1791 
z
M 3481 434 
Q 3481 -459 3084 -895 
Q 2688 -1331 1869 -1331 
Q 1566 -1331 1297 -1286 
Q 1028 -1241 775 -1147 
L 775 -588 
Q 1028 -725 1275 -790 
Q 1522 -856 1778 -856 
Q 2344 -856 2625 -561 
Q 2906 -266 2906 331 
L 2906 616 
Q 2728 306 2450 153 
Q 2172 0 1784 0 
Q 1141 0 747 490 
Q 353 981 353 1791 
Q 353 2603 747 3093 
Q 1141 3584 1784 3584 
Q 2172 3584 2450 3431 
Q 2728 3278 2906 2969 
L 2906 3500 
L 3481 3500 
L 3481 434 
z
" transform="scale(0.015625)"/>
       <path id="DejaVuSans-27" d="M 1147 4666 
L 1147 2931 
L 616 2931 
L 616 4666 
L 1147 4666 
z
" transform="scale(0.015625)"/>
      </defs>
      <use xlink:href="#DejaVuSans-59"/>
      <use xlink:href="#DejaVuSans-6f" transform="translate(47.833984 0)"/>
      <use xlink:href="#DejaVuSans-75" transform="translate(109.015625 0)"/>
      <use xlink:href="#DejaVuSans-6e" transform="translate(172.394531 0)"/>
      <use xlink:href="#DejaVuSans-67" transform="translate(235.773438 0)"/>
      <use xlink:href="#DejaVuSans-27" transform="translate(299.25 0)"/>
      <use xlink:href="#DejaVuSans-73" transform="translate(326.740234 0)"/>
      <use xlink:href="#DejaVuSans-20" transform="translate(378.839844 0)"/>
      <use xlink:href="#DejaVuSans-4d" transform="translate(410.626953 0)"/>
      <use xlink:href="#DejaVuSans-6f" transform="translate(496.90625 0)"/>
      <use xlink:href="#DejaVuSans-64" transform="translate(558.087891 0)"/>
      <use xlink:href="#DejaVuSans-75" transform="translate(621.564453 0)"/>
      <use xlink:href="#DejaVuSans-6c" transform="translate(684.943359 0)"/>
      <use xlink:href="#DejaVuSans-75" transform="translate(712.726562 0)"/>
      <use xlink:href="#DejaVuSans-73" transform="translate(776.105469 0)"/>
      <use xlink:href="#DejaVuSans-20" transform="translate(828.205078 0)"/>
      <use xlink:href="#DejaVuSans-5b" transform="translate(859.992188 0)"/>
      <use xlink:href="#DejaVuSans-50" transform="translate(899.005859 0)"/>
      <use xlink:href="#DejaVuSans-61" transform="translate(954.808594 0)"/>
      <use xlink:href="#DejaVuSans-5d" transform="translate(1016.087891 0)"/>
     </g>
    </g>
   </g>
   <g id="patch_9">
    <path d="M 435.219876 206.577037 
L 490.673292 206.577037 
L 490.673292 206.621509 
L 476.809938 204.958813 
L 490.673292 203.296116 
L 490.673292 204.458952 
L 435.219876 204.458952 
L 435.219876 203.296116 
L 449.08323 204.958813 
L 435.219876 206.621509 
L 435.219876 206.577037 
z
" clip-path="url(#p852e0940d3)" style="fill: #0000ff; opacity: 0.3; stroke: #0000ff; stroke-linejoin: miter"/>
   </g>
   <g id="line2d_66">
    <path d="M 462.946584 206.577037 
L 462.946584 206.577037 
" clip-path="url(#p852e0940d3)" style="fill: none; stroke: #000000; stroke-opacity: 0; stroke-linecap: square"/>
   </g>
   <g id="line2d_67">
    <path d="M 462.946584 204.458952 
L 462.946584 203.008849 
" clip-path="url(#p852e0940d3)" style="fill: none; stroke: #000000; stroke-opacity: 0; stroke-linecap: square"/>
   </g>
   <g id="line2d_68">
    <path d="M 449.08323 206.577037 
L 476.809938 206.577037 
" clip-path="url(#p852e0940d3)" style="fill: none; stroke: #000000; stroke-opacity: 0; stroke-linecap: square"/>
   </g>
   <g id="line2d_69">
    <path d="M 449.08323 203.008849 
L 476.809938 203.008849 
" clip-path="url(#p852e0940d3)" style="fill: none; stroke: #000000; stroke-opacity: 0; stroke-linecap: square"/>
   </g>
   <g id="line2d_70"/>
   <g id="patch_10">
    <path d="M 421.356522 206.577037 
L 504.536646 206.577037 
L 504.536646 211.38223 
L 483.741615 204.958813 
L 504.536646 203.008849 
L 504.536646 204.458952 
L 421.356522 204.458952 
L 421.356522 203.008849 
L 442.151553 204.958813 
L 421.356522 211.38223 
L 421.356522 206.577037 
z
" clip-path="url(#p852e0940d3)" style="fill: #0000ff; opacity: 0.1; stroke: #0000ff; stroke-linejoin: miter"/>
   </g>
   <g id="line2d_71">
    <path d="M 462.946584 206.577037 
L 462.946584 206.577037 
" clip-path="url(#p852e0940d3)" style="fill: none; stroke: #000000; stroke-linecap: square"/>
   </g>
   <g id="line2d_72">
    <path d="M 462.946584 204.458952 
L 462.946584 203.008849 
" clip-path="url(#p852e0940d3)" style="fill: none; stroke: #000000; stroke-linecap: square"/>
   </g>
   <g id="line2d_73">
    <path d="M 442.151553 206.577037 
L 483.741615 206.577037 
" clip-path="url(#p852e0940d3)" style="fill: none; stroke: #000000; stroke-linecap: square"/>
   </g>
   <g id="line2d_74">
    <path d="M 442.151553 203.008849 
L 483.741615 203.008849 
" clip-path="url(#p852e0940d3)" style="fill: none; stroke: #000000; stroke-linecap: square"/>
   </g>
   <g id="line2d_75"/>
   <g id="LineCollection_1">
    <path d="M 435.219876 206.077176 
L 490.673292 206.077176 
" clip-path="url(#p852e0940d3)" style="fill: none; stroke: #0000ff; stroke-width: 3"/>
   </g>
   <g id="LineCollection_2">
    <path d="M 440.765217 211.891875 
L 462.946584 211.891875 
" clip-path="url(#p852e0940d3)" style="fill: none; stroke: #00008b; stroke-width: 2"/>
    <path d="M 440.765217 200.262477 
L 462.946584 200.262477 
" clip-path="url(#p852e0940d3)" style="fill: none; stroke: #00008b; stroke-width: 2"/>
   </g>
   <g id="LineCollection_3">
    <path d="M 451.855901 211.891875 
L 451.855901 200.262477 
" clip-path="url(#p852e0940d3)" style="fill: none; stroke: #00008b; stroke-width: 2"/>
   </g>
   <g id="line2d_76">
    <path d="M 449.08323 204.958813 
L 476.809938 204.958813 
" clip-path="url(#p852e0940d3)" style="fill: none; stroke: #ff7f0e; stroke-opacity: 0"/>
   </g>
   <g id="line2d_77">
    <path d="M 442.151553 204.958813 
L 483.741615 204.958813 
" clip-path="url(#p852e0940d3)" style="fill: none; stroke: #000000"/>
   </g>
   <g id="patch_11">
    <path d="M 407.493168 320.4 
L 407.493168 43.2 
" style="fill: none; stroke: #000000; stroke-width: 0.8; stroke-linejoin: miter; stroke-linecap: square"/>
   </g>
   <g id="patch_12">
    <path d="M 518.4 320.4 
L 518.4 43.2 
" style="fill: none; stroke: #000000; stroke-width: 0.8; stroke-linejoin: miter; stroke-linecap: square"/>
   </g>
   <g id="patch_13">
    <path d="M 407.493168 320.4 
L 518.4 320.4 
" style="fill: none; stroke: #000000; stroke-width: 0.8; stroke-linejoin: miter; stroke-linecap: square"/>
   </g>
   <g id="patch_14">
    <path d="M 407.493168 43.2 
L 518.4 43.2 
" style="fill: none; stroke: #000000; stroke-width: 0.8; stroke-linejoin: miter; stroke-linecap: square"/>
   </g>
   <g id="text_38">
    <!-- Young's Modulus  -->
    <g transform="translate(411.348459 23.762625) scale(0.12 -0.12)">
     <use xlink:href="#DejaVuSans-59"/>
     <use xlink:href="#DejaVuSans-6f" transform="translate(47.833984 0)"/>
     <use xlink:href="#DejaVuSans-75" transform="translate(109.015625 0)"/>
     <use xlink:href="#DejaVuSans-6e" transform="translate(172.394531 0)"/>
     <use xlink:href="#DejaVuSans-67" transform="translate(235.773438 0)"/>
     <use xlink:href="#DejaVuSans-27" transform="translate(299.25 0)"/>
     <use xlink:href="#DejaVuSans-73" transform="translate(326.740234 0)"/>
     <use xlink:href="#DejaVuSans-20" transform="translate(378.839844 0)"/>
     <use xlink:href="#DejaVuSans-4d" transform="translate(410.626953 0)"/>
     <use xlink:href="#DejaVuSans-6f" transform="translate(496.90625 0)"/>
     <use xlink:href="#DejaVuSans-64" transform="translate(558.087891 0)"/>
     <use xlink:href="#DejaVuSans-75" transform="translate(621.564453 0)"/>
     <use xlink:href="#DejaVuSans-6c" transform="translate(684.943359 0)"/>
     <use xlink:href="#DejaVuSans-75" transform="translate(712.726562 0)"/>
     <use xlink:href="#DejaVuSans-73" transform="translate(776.105469 0)"/>
     <use xlink:href="#DejaVuSans-20" transform="translate(828.205078 0)"/>
    </g>
    <!-- Confidence -->
    <g transform="translate(429.209709 37.2) scale(0.12 -0.12)">
     <defs>
      <path id="DejaVuSans-66" d="M 2375 4863 
L 2375 4384 
L 1825 4384 
Q 1516 4384 1395 4259 
Q 1275 4134 1275 3809 
L 1275 3500 
L 2222 3500 
L 2222 3053 
L 1275 3053 
L 1275 0 
L 697 0 
L 697 3053 
L 147 3053 
L 147 3500 
L 697 3500 
L 697 3744 
Q 697 4328 969 4595 
Q 1241 4863 1831 4863 
L 2375 4863 
z
" transform="scale(0.015625)"/>
     </defs>
     <use xlink:href="#DejaVuSans-43"/>
     <use xlink:href="#DejaVuSans-6f" transform="translate(69.824219 0)"/>
     <use xlink:href="#DejaVuSans-6e" transform="translate(131.005859 0)"/>
     <use xlink:href="#DejaVuSans-66" transform="translate(194.384766 0)"/>
     <use xlink:href="#DejaVuSans-69" transform="translate(229.589844 0)"/>
     <use xlink:href="#DejaVuSans-64" transform="translate(257.373047 0)"/>
     <use xlink:href="#DejaVuSans-65" transform="translate(320.849609 0)"/>
     <use xlink:href="#DejaVuSans-6e" transform="translate(382.373047 0)"/>
     <use xlink:href="#DejaVuSans-63" transform="translate(445.751953 0)"/>
     <use xlink:href="#DejaVuSans-65" transform="translate(500.732422 0)"/>
    </g>
   </g>
   <g id="legend_2">
    <g id="patch_15">
     <path d="M 414.124141 163.072781 
L 511.75 163.072781 
Q 513.65 163.072781 513.65 161.172781 
L 513.65 49.85 
Q 513.65 47.95 511.75 47.95 
L 414.124141 47.95 
Q 412.224141 47.95 412.224141 49.85 
L 412.224141 161.172781 
Q 412.224141 163.072781 414.124141 163.072781 
z
" style="fill: #ffffff; opacity: 0.8; stroke: #cccccc; stroke-linejoin: miter"/>
    </g>
    <g id="patch_16">
     <path d="M 416.024141 65.275328 
L 435.024141 65.275328 
L 435.024141 58.625328 
L 416.024141 58.625328 
z
" style="fill: #0000ff; opacity: 0.3; stroke: #0000ff; stroke-linejoin: miter"/>
    </g>
    <g id="text_39">
     <!-- Notched  -->
     <g transform="translate(442.624141 58.968516) scale(0.095 -0.095)">
      <defs>
       <path id="DejaVuSans-68" d="M 3513 2113 
L 3513 0 
L 2938 0 
L 2938 2094 
Q 2938 2591 2744 2837 
Q 2550 3084 2163 3084 
Q 1697 3084 1428 2787 
Q 1159 2491 1159 1978 
L 1159 0 
L 581 0 
L 581 4863 
L 1159 4863 
L 1159 2956 
Q 1366 3272 1645 3428 
Q 1925 3584 2291 3584 
Q 2894 3584 3203 3211 
Q 3513 2838 3513 2113 
z
" transform="scale(0.015625)"/>
      </defs>
      <use xlink:href="#DejaVuSans-4e"/>
      <use xlink:href="#DejaVuSans-6f" transform="translate(74.804688 0)"/>
      <use xlink:href="#DejaVuSans-74" transform="translate(135.986328 0)"/>
      <use xlink:href="#DejaVuSans-63" transform="translate(175.195312 0)"/>
      <use xlink:href="#DejaVuSans-68" transform="translate(230.175781 0)"/>
      <use xlink:href="#DejaVuSans-65" transform="translate(293.554688 0)"/>
      <use xlink:href="#DejaVuSans-64" transform="translate(355.078125 0)"/>
      <use xlink:href="#DejaVuSans-20" transform="translate(418.554688 0)"/>
     </g>
     <!-- Box Plot -->
     <g transform="translate(442.624141 69.606437) scale(0.095 -0.095)">
      <defs>
       <path id="DejaVuSans-42" d="M 1259 2228 
L 1259 519 
L 2272 519 
Q 2781 519 3026 730 
Q 3272 941 3272 1375 
Q 3272 1813 3026 2020 
Q 2781 2228 2272 2228 
L 1259 2228 
z
M 1259 4147 
L 1259 2741 
L 2194 2741 
Q 2656 2741 2882 2914 
Q 3109 3088 3109 3444 
Q 3109 3797 2882 3972 
Q 2656 4147 2194 4147 
L 1259 4147 
z
M 628 4666 
L 2241 4666 
Q 2963 4666 3353 4366 
Q 3744 4066 3744 3513 
Q 3744 3084 3544 2831 
Q 3344 2578 2956 2516 
Q 3422 2416 3680 2098 
Q 3938 1781 3938 1306 
Q 3938 681 3513 340 
Q 3088 0 2303 0 
L 628 0 
L 628 4666 
z
" transform="scale(0.015625)"/>
       <path id="DejaVuSans-78" d="M 3513 3500 
L 2247 1797 
L 3578 0 
L 2900 0 
L 1881 1375 
L 863 0 
L 184 0 
L 1544 1831 
L 300 3500 
L 978 3500 
L 1906 2253 
L 2834 3500 
L 3513 3500 
z
" transform="scale(0.015625)"/>
      </defs>
      <use xlink:href="#DejaVuSans-42"/>
      <use xlink:href="#DejaVuSans-6f" transform="translate(68.603516 0)"/>
      <use xlink:href="#DejaVuSans-78" transform="translate(126.660156 0)"/>
      <use xlink:href="#DejaVuSans-20" transform="translate(185.839844 0)"/>
      <use xlink:href="#DejaVuSans-50" transform="translate(217.626953 0)"/>
      <use xlink:href="#DejaVuSans-6c" transform="translate(277.929688 0)"/>
      <use xlink:href="#DejaVuSans-6f" transform="translate(305.712891 0)"/>
      <use xlink:href="#DejaVuSans-74" transform="translate(366.894531 0)"/>
     </g>
    </g>
    <g id="patch_17">
     <path d="M 416.024141 89.857469 
L 435.024141 89.857469 
L 435.024141 83.207469 
L 416.024141 83.207469 
z
" style="fill: #0000ff; opacity: 0.1; stroke: #0000ff; stroke-linejoin: miter"/>
    </g>
    <g id="text_40">
     <!-- Bootstrapped  -->
     <g transform="translate(442.624141 83.550656) scale(0.095 -0.095)">
      <defs>
       <path id="DejaVuSans-70" d="M 1159 525 
L 1159 -1331 
L 581 -1331 
L 581 3500 
L 1159 3500 
L 1159 2969 
Q 1341 3281 1617 3432 
Q 1894 3584 2278 3584 
Q 2916 3584 3314 3078 
Q 3713 2572 3713 1747 
Q 3713 922 3314 415 
Q 2916 -91 2278 -91 
Q 1894 -91 1617 61 
Q 1341 213 1159 525 
z
M 3116 1747 
Q 3116 2381 2855 2742 
Q 2594 3103 2138 3103 
Q 1681 3103 1420 2742 
Q 1159 2381 1159 1747 
Q 1159 1113 1420 752 
Q 1681 391 2138 391 
Q 2594 391 2855 752 
Q 3116 1113 3116 1747 
z
" transform="scale(0.015625)"/>
      </defs>
      <use xlink:href="#DejaVuSans-42"/>
      <use xlink:href="#DejaVuSans-6f" transform="translate(68.603516 0)"/>
      <use xlink:href="#DejaVuSans-6f" transform="translate(129.785156 0)"/>
      <use xlink:href="#DejaVuSans-74" transform="translate(190.966797 0)"/>
      <use xlink:href="#DejaVuSans-73" transform="translate(230.175781 0)"/>
      <use xlink:href="#DejaVuSans-74" transform="translate(282.275391 0)"/>
      <use xlink:href="#DejaVuSans-72" transform="translate(321.484375 0)"/>
      <use xlink:href="#DejaVuSans-61" transform="translate(362.597656 0)"/>
      <use xlink:href="#DejaVuSans-70" transform="translate(423.876953 0)"/>
      <use xlink:href="#DejaVuSans-70" transform="translate(487.353516 0)"/>
      <use xlink:href="#DejaVuSans-65" transform="translate(550.830078 0)"/>
      <use xlink:href="#DejaVuSans-64" transform="translate(612.353516 0)"/>
      <use xlink:href="#DejaVuSans-20" transform="translate(675.830078 0)"/>
     </g>
     <!-- Box Plot -->
     <g transform="translate(442.624141 94.188578) scale(0.095 -0.095)">
      <use xlink:href="#DejaVuSans-42"/>
      <use xlink:href="#DejaVuSans-6f" transform="translate(68.603516 0)"/>
      <use xlink:href="#DejaVuSans-78" transform="translate(126.660156 0)"/>
      <use xlink:href="#DejaVuSans-20" transform="translate(185.839844 0)"/>
      <use xlink:href="#DejaVuSans-50" transform="translate(217.626953 0)"/>
      <use xlink:href="#DejaVuSans-6c" transform="translate(277.929688 0)"/>
      <use xlink:href="#DejaVuSans-6f" transform="translate(305.712891 0)"/>
      <use xlink:href="#DejaVuSans-74" transform="translate(366.894531 0)"/>
     </g>
    </g>
    <g id="line2d_78">
     <path d="M 416.024141 104.807797 
L 425.524141 104.807797 
L 435.024141 104.807797 
" style="fill: none; stroke: #000000; stroke-linecap: square"/>
    </g>
    <g id="text_41">
     <!-- Median -->
     <g transform="translate(442.624141 108.132797) scale(0.095 -0.095)">
      <use xlink:href="#DejaVuSans-4d"/>
      <use xlink:href="#DejaVuSans-65" transform="translate(86.279297 0)"/>
      <use xlink:href="#DejaVuSans-64" transform="translate(147.802734 0)"/>
      <use xlink:href="#DejaVuSans-69" transform="translate(211.279297 0)"/>
      <use xlink:href="#DejaVuSans-61" transform="translate(239.0625 0)"/>
      <use xlink:href="#DejaVuSans-6e" transform="translate(300.341797 0)"/>
     </g>
    </g>
    <g id="line2d_79">
     <path d="M 416.024141 118.752016 
L 425.524141 118.752016 
L 435.024141 118.752016 
" style="fill: none; stroke: #0000ff; stroke-width: 3; stroke-linecap: square"/>
    </g>
    <g id="text_42">
     <!-- Mean -->
     <g transform="translate(442.624141 122.077016) scale(0.095 -0.095)">
      <use xlink:href="#DejaVuSans-4d"/>
      <use xlink:href="#DejaVuSans-65" transform="translate(86.279297 0)"/>
      <use xlink:href="#DejaVuSans-61" transform="translate(147.802734 0)"/>
      <use xlink:href="#DejaVuSans-6e" transform="translate(209.082031 0)"/>
     </g>
    </g>
    <g id="line2d_80">
     <path d="M 416.024141 144.322008 
L 425.524141 144.322008 
L 435.024141 144.322008 
" style="fill: none; stroke: #00008b; stroke-width: 2; stroke-linecap: square"/>
    </g>
    <g id="text_43">
     <!-- Mean 95%  -->
     <g transform="translate(442.624141 136.021234) scale(0.095 -0.095)">
      <defs>
       <path id="DejaVuSans-25" d="M 4653 2053 
Q 4381 2053 4226 1822 
Q 4072 1591 4072 1178 
Q 4072 772 4226 539 
Q 4381 306 4653 306 
Q 4919 306 5073 539 
Q 5228 772 5228 1178 
Q 5228 1588 5073 1820 
Q 4919 2053 4653 2053 
z
M 4653 2450 
Q 5147 2450 5437 2106 
Q 5728 1763 5728 1178 
Q 5728 594 5436 251 
Q 5144 -91 4653 -91 
Q 4153 -91 3862 251 
Q 3572 594 3572 1178 
Q 3572 1766 3864 2108 
Q 4156 2450 4653 2450 
z
M 1428 4353 
Q 1159 4353 1004 4120 
Q 850 3888 850 3481 
Q 850 3069 1003 2837 
Q 1156 2606 1428 2606 
Q 1700 2606 1854 2837 
Q 2009 3069 2009 3481 
Q 2009 3884 1853 4118 
Q 1697 4353 1428 4353 
z
M 4250 4750 
L 4750 4750 
L 1831 -91 
L 1331 -91 
L 4250 4750 
z
M 1428 4750 
Q 1922 4750 2215 4408 
Q 2509 4066 2509 3481 
Q 2509 2891 2217 2550 
Q 1925 2209 1428 2209 
Q 931 2209 642 2551 
Q 353 2894 353 3481 
Q 353 4063 643 4406 
Q 934 4750 1428 4750 
z
" transform="scale(0.015625)"/>
      </defs>
      <use xlink:href="#DejaVuSans-4d"/>
      <use xlink:href="#DejaVuSans-65" transform="translate(86.279297 0)"/>
      <use xlink:href="#DejaVuSans-61" transform="translate(147.802734 0)"/>
      <use xlink:href="#DejaVuSans-6e" transform="translate(209.082031 0)"/>
      <use xlink:href="#DejaVuSans-20" transform="translate(272.460938 0)"/>
      <use xlink:href="#DejaVuSans-39" transform="translate(304.248047 0)"/>
      <use xlink:href="#DejaVuSans-35" transform="translate(367.871094 0)"/>
      <use xlink:href="#DejaVuSans-25" transform="translate(431.494141 0)"/>
      <use xlink:href="#DejaVuSans-20" transform="translate(526.513672 0)"/>
     </g>
     <!-- Confidence  -->
     <g transform="translate(442.624141 146.659156) scale(0.095 -0.095)">
      <use xlink:href="#DejaVuSans-43"/>
      <use xlink:href="#DejaVuSans-6f" transform="translate(69.824219 0)"/>
      <use xlink:href="#DejaVuSans-6e" transform="translate(131.005859 0)"/>
      <use xlink:href="#DejaVuSans-66" transform="translate(194.384766 0)"/>
      <use xlink:href="#DejaVuSans-69" transform="translate(229.589844 0)"/>
      <use xlink:href="#DejaVuSans-64" transform="translate(257.373047 0)"/>
      <use xlink:href="#DejaVuSans-65" transform="translate(320.849609 0)"/>
      <use xlink:href="#DejaVuSans-6e" transform="translate(382.373047 0)"/>
      <use xlink:href="#DejaVuSans-63" transform="translate(445.751953 0)"/>
      <use xlink:href="#DejaVuSans-65" transform="translate(500.732422 0)"/>
      <use xlink:href="#DejaVuSans-20" transform="translate(562.255859 0)"/>
     </g>
     <!-- Interval -->
     <g transform="translate(442.624141 157.297078) scale(0.095 -0.095)">
      <defs>
       <path id="DejaVuSans-76" d="M 191 3500 
L 800 3500 
L 1894 563 
L 2988 3500 
L 3597 3500 
L 2284 0 
L 1503 0 
L 191 3500 
z
" transform="scale(0.015625)"/>
      </defs>
      <use xlink:href="#DejaVuSans-49"/>
      <use xlink:href="#DejaVuSans-6e" transform="translate(29.492188 0)"/>
      <use xlink:href="#DejaVuSans-74" transform="translate(92.871094 0)"/>
      <use xlink:href="#DejaVuSans-65" transform="translate(132.080078 0)"/>
      <use xlink:href="#DejaVuSans-72" transform="translate(193.603516 0)"/>
      <use xlink:href="#DejaVuSans-76" transform="translate(234.716797 0)"/>
      <use xlink:href="#DejaVuSans-61" transform="translate(293.896484 0)"/>
      <use xlink:href="#DejaVuSans-6c" transform="translate(355.175781 0)"/>
     </g>
    </g>
   </g>
  </g>
 </g>
 <defs>
  <clipPath id="p833a6ef338">
   <rect x="72" y="43.2" width="277.267081" height="277.2"/>
  </clipPath>
  <clipPath id="p852e0940d3">
   <rect x="407.493168" y="43.2" width="110.906832" height="277.2"/>
  </clipPath>
 </defs>
</svg>
