<?xml version="1.0" encoding="utf-8" standalone="no"?>
<!DOCTYPE svg PUBLIC "-//W3C//DTD SVG 1.1//EN"
  "http://www.w3.org/Graphics/SVG/1.1/DTD/svg11.dtd">
<svg xmlns:xlink="http://www.w3.org/1999/xlink" width="432pt" height="314.64pt" viewBox="0 0 432 314.64" xmlns="http://www.w3.org/2000/svg" version="1.1">
 <metadata>
  <rdf:RDF xmlns:dc="http://purl.org/dc/elements/1.1/" xmlns:cc="http://creativecommons.org/ns#" xmlns:rdf="http://www.w3.org/1999/02/22-rdf-syntax-ns#">
   <cc:Work>
    <dc:type rdf:resource="http://purl.org/dc/dcmitype/StillImage"/>
    <dc:date>2025-05-08T09:50:09.874352</dc:date>
    <dc:format>image/svg+xml</dc:format>
    <dc:creator>
     <cc:Agent>
      <dc:title>Matplotlib v3.10.0, https://matplotlib.org/</dc:title>
     </cc:Agent>
    </dc:creator>
   </cc:Work>
  </rdf:RDF>
 </metadata>
 <defs>
  <style type="text/css">*{stroke-linejoin: round; stroke-linecap: butt}</style>
 </defs>
 <g id="figure_1">
  <g id="patch_1">
   <path d="M 0 314.64 
L 432 314.64 
L 432 0 
L 0 0 
z
" style="fill: #ffffff"/>
  </g>
  <g id="axes_1">
   <g id="patch_2">
    <path d="M 73.37 268.7987 
L 408.42 268.7987 
L 408.42 27.7932 
L 73.37 27.7932 
z
" style="fill: #ffffff"/>
   </g>
   <g id="FillBetweenPolyCollection_1">
    <defs>
     <path id="m7fb55bc3a2" d="M 73.37 -56.796095 
L 73.37 -106.566375 
L 74.041443 -107.550458 
L 74.712886 -108.545093 
L 75.384329 -109.550141 
L 76.055772 -110.565453 
L 76.727214 -111.590875 
L 77.398657 -112.626243 
L 78.0701 -113.671386 
L 78.741543 -114.726124 
L 79.412986 -115.790268 
L 80.084429 -116.86362 
L 80.755872 -117.945977 
L 81.427315 -119.037125 
L 82.098758 -120.13684 
L 82.7702 -121.244894 
L 83.441643 -122.361046 
L 84.113086 -123.485051 
L 84.784529 -124.616652 
L 85.455972 -125.755585 
L 86.127415 -126.901578 
L 86.798858 -128.054352 
L 87.470301 -129.213617 
L 88.141743 -130.379076 
L 88.813186 -131.550426 
L 89.484629 -132.727353 
L 90.156072 -133.909538 
L 90.827515 -135.096651 
L 91.498958 -136.288358 
L 92.170401 -137.484314 
L 92.841844 -138.684169 
L 93.513287 -139.887565 
L 94.184729 -141.094136 
L 94.856172 -142.303511 
L 95.527615 -143.515311 
L 96.199058 -144.72915 
L 96.870501 -145.944635 
L 97.541944 -147.161369 
L 98.213387 -148.378946 
L 98.88483 -149.596956 
L 99.556273 -150.814984 
L 100.227715 -152.032606 
L 100.899158 -153.249397 
L 101.570601 -154.464924 
L 102.242044 -155.67875 
L 102.913487 -156.890434 
L 103.58493 -158.099529 
L 104.256373 -159.305587 
L 104.927816 -160.508153 
L 105.599259 -161.706769 
L 106.270701 -162.900976 
L 106.942144 -164.09031 
L 107.613587 -165.274305 
L 108.28503 -166.452491 
L 108.956473 -167.624399 
L 109.627916 -168.789555 
L 110.299359 -169.947485 
L 110.970802 -171.097715 
L 111.642244 -172.239768 
L 112.313687 -173.373166 
L 112.98513 -174.497435 
L 113.656573 -175.612095 
L 114.328016 -176.716672 
L 114.999459 -177.810689 
L 115.670902 -178.893672 
L 116.342345 -179.965147 
L 117.013788 -181.024644 
L 117.68523 -182.071692 
L 118.356673 -183.105826 
L 119.028116 -184.126581 
L 119.699559 -185.133496 
L 120.371002 -186.126114 
L 121.042445 -187.103982 
L 121.713888 -188.06665 
L 122.385331 -189.013673 
L 123.056774 -189.944611 
L 123.728216 -190.85903 
L 124.399659 -191.756499 
L 125.071102 -192.636597 
L 125.742545 -193.498906 
L 126.413988 -194.343014 
L 127.085431 -195.168519 
L 127.756874 -195.975023 
L 128.428317 -196.762138 
L 129.09976 -197.529482 
L 129.771202 -198.276682 
L 130.442645 -199.003373 
L 131.114088 -199.709199 
L 131.785531 -200.393813 
L 132.456974 -201.056877 
L 133.128417 -201.698064 
L 133.79986 -202.317053 
L 134.471303 -202.913538 
L 135.142745 -203.487221 
L 135.814188 -204.037813 
L 136.485631 -204.565038 
L 137.157074 -205.068632 
L 137.828517 -205.548339 
L 138.49996 -206.003917 
L 139.171403 -206.435136 
L 139.842846 -206.841775 
L 140.514289 -207.223629 
L 141.185731 -207.580502 
L 141.857174 -207.912213 
L 142.528617 -208.218592 
L 143.20006 -208.499481 
L 143.871503 -208.754737 
L 144.542946 -208.984228 
L 145.214389 -209.187838 
L 145.885832 -209.36546 
L 146.557275 -209.517004 
L 147.228717 -209.642391 
L 147.90016 -209.741557 
L 148.571603 -209.81445 
L 149.243046 -209.861034 
L 149.914489 -209.881283 
L 150.585932 -209.875188 
L 151.257375 -209.842752 
L 151.928818 -209.783991 
L 152.600261 -209.698936 
L 153.271703 -209.58763 
L 153.943146 -209.450131 
L 154.614589 -209.286511 
L 155.286032 -209.096852 
L 155.957475 -208.881253 
L 156.628918 -208.639825 
L 157.300361 -208.372691 
L 157.971804 -208.07999 
L 158.643246 -207.76187 
L 159.314689 -207.418494 
L 159.986132 -207.050039 
L 160.657575 -206.656692 
L 161.329018 -206.238653 
L 162.000461 -205.796135 
L 162.671904 -205.329363 
L 163.343347 -204.838573 
L 164.01479 -204.324013 
L 164.686232 -203.785942 
L 165.357675 -203.224631 
L 166.029118 -202.640362 
L 166.700561 -202.033426 
L 167.372004 -201.404127 
L 168.043447 -200.752778 
L 168.71489 -200.079701 
L 169.386333 -199.385229 
L 170.057776 -198.669705 
L 170.729218 -197.93348 
L 171.400661 -197.176914 
L 172.072104 -196.400375 
L 172.743547 -195.604241 
L 173.41499 -194.788896 
L 174.086433 -193.954734 
L 174.757876 -193.102153 
L 175.429319 -192.231562 
L 176.100762 -191.343374 
L 176.772204 -190.438009 
L 177.443647 -189.515893 
L 178.11509 -188.577458 
L 178.786533 -187.623142 
L 179.457976 -186.653385 
L 180.129419 -185.668636 
L 180.800862 -184.669346 
L 181.472305 -183.65597 
L 182.143747 -182.628968 
L 182.81519 -181.5888 
L 183.486633 -180.535934 
L 184.158076 -179.470836 
L 184.829519 -178.393978 
L 185.500962 -177.305831 
L 186.172405 -176.206869 
L 186.843848 -175.097567 
L 187.515291 -173.978402 
L 188.186733 -172.849849 
L 188.858176 -171.712387 
L 189.529619 -170.566492 
L 190.201062 -169.41264 
L 190.872505 -168.251307 
L 191.543948 -167.082968 
L 192.215391 -165.908096 
L 192.886834 -164.727164 
L 193.558277 -163.540641 
L 194.229719 -162.348995 
L 194.901162 -161.15269 
L 195.572605 -159.952189 
L 196.244048 -158.747951 
L 196.915491 -157.540431 
L 197.586934 -156.330083 
L 198.258377 -155.117352 
L 198.92982 -153.902685 
L 199.601263 -152.686519 
L 200.272705 -151.46929 
L 200.944148 -150.251427 
L 201.615591 -149.033356 
L 202.287034 -147.815494 
L 202.958477 -146.598257 
L 203.62992 -145.382051 
L 204.301363 -144.167278 
L 204.972806 -142.954335 
L 205.644248 -141.743609 
L 206.315691 -140.535485 
L 206.987134 -139.330337 
L 207.658577 -138.128534 
L 208.33002 -136.930439 
L 209.001463 -135.736406 
L 209.672906 -134.546783 
L 210.344349 -133.361909 
L 211.015792 -132.182117 
L 211.687234 -131.007731 
L 212.358677 -129.839068 
L 213.03012 -128.676437 
L 213.701563 -127.520139 
L 214.373006 -126.370468 
L 215.044449 -125.227707 
L 215.715892 -124.092133 
L 216.387335 -122.964014 
L 217.058778 -121.843612 
L 217.73022 -120.731176 
L 218.401663 -119.626952 
L 219.073106 -118.531172 
L 219.744549 -117.444065 
L 220.415992 -116.365849 
L 221.087435 -115.296732 
L 221.758878 -114.236916 
L 222.430321 -113.186595 
L 223.101764 -112.145953 
L 223.773206 -111.115166 
L 224.444649 -110.094402 
L 225.116092 -109.083821 
L 225.787535 -108.083573 
L 226.458978 -107.093804 
L 227.130421 -106.114646 
L 227.801864 -105.146229 
L 228.473307 -104.18867 
L 229.144749 -103.242082 
L 229.816192 -102.306567 
L 230.487635 -101.382221 
L 231.159078 -100.469132 
L 231.830521 -99.567381 
L 232.501964 -98.677041 
L 233.173407 -97.798178 
L 233.84485 -96.93085 
L 234.516293 -96.075107 
L 235.187735 -95.230996 
L 235.859178 -94.398553 
L 236.530621 -93.577808 
L 237.202064 -92.768786 
L 237.873507 -91.971505 
L 238.54495 -91.185976 
L 239.216393 -90.412202 
L 239.887836 -89.650184 
L 240.559279 -88.899914 
L 241.230721 -88.161379 
L 241.902164 -87.434561 
L 242.573607 -86.719435 
L 243.24505 -86.015971 
L 243.916493 -85.324134 
L 244.587936 -84.643885 
L 245.259379 -83.975179 
L 245.930822 -83.317965 
L 246.602265 -82.67219 
L 247.273707 -82.037794 
L 247.94515 -81.414714 
L 248.616593 -80.802883 
L 249.288036 -80.202229 
L 249.959479 -79.612676 
L 250.630922 -79.034145 
L 251.302365 -78.466553 
L 251.973808 -77.909815 
L 252.645251 -77.363839 
L 253.316693 -76.828534 
L 253.988136 -76.303804 
L 254.659579 -75.789549 
L 255.331022 -75.285669 
L 256.002465 -74.792058 
L 256.673908 -74.308612 
L 257.345351 -73.835219 
L 258.016794 -73.371771 
L 258.688236 -72.918153 
L 259.359679 -72.474251 
L 260.031122 -72.039947 
L 260.702565 -71.615124 
L 261.374008 -71.19966 
L 262.045451 -70.793435 
L 262.716894 -70.396327 
L 263.388337 -70.00821 
L 264.05978 -69.62896 
L 264.731222 -69.258452 
L 265.402665 -68.896559 
L 266.074108 -68.543152 
L 266.745551 -68.198105 
L 267.416994 -67.861288 
L 268.088437 -67.532573 
L 268.75988 -67.211831 
L 269.431323 -66.898931 
L 270.102766 -66.593745 
L 270.774208 -66.296143 
L 271.445651 -66.005995 
L 272.117094 -65.723173 
L 272.788537 -65.447547 
L 273.45998 -65.178987 
L 274.131423 -64.917367 
L 274.802866 -64.662558 
L 275.474309 -64.414432 
L 276.145752 -64.172863 
L 276.817194 -63.937724 
L 277.488637 -63.708891 
L 278.16008 -63.486239 
L 278.831523 -63.269644 
L 279.502966 -63.058983 
L 280.174409 -62.854135 
L 280.845852 -62.654979 
L 281.517295 -62.461395 
L 282.188737 -62.273264 
L 282.86018 -62.09047 
L 283.531623 -61.912895 
L 284.203066 -61.740426 
L 284.874509 -61.572947 
L 285.545952 -61.410347 
L 286.217395 -61.252515 
L 286.888838 -61.099342 
L 287.560281 -60.950717 
L 288.231723 -60.806536 
L 288.903166 -60.666692 
L 289.574609 -60.531082 
L 290.246052 -60.399603 
L 290.917495 -60.272153 
L 291.588938 -60.148635 
L 292.260381 -60.028949 
L 292.931824 -59.912999 
L 293.603267 -59.800691 
L 294.274709 -59.691931 
L 294.946152 -59.586628 
L 295.617595 -59.484691 
L 296.289038 -59.386032 
L 296.960481 -59.290565 
L 297.631924 -59.198202 
L 298.303367 -59.108862 
L 298.97481 -59.022461 
L 299.646253 -58.938919 
L 300.317695 -58.858157 
L 300.989138 -58.780098 
L 301.660581 -58.704665 
L 302.332024 -58.631784 
L 303.003467 -58.561382 
L 303.67491 -58.493388 
L 304.346353 -58.427732 
L 305.017796 -58.364346 
L 305.689238 -58.303163 
L 306.360681 -58.244118 
L 307.032124 -58.187147 
L 307.703567 -58.132187 
L 308.37501 -58.079178 
L 309.046453 -58.02806 
L 309.717896 -57.978774 
L 310.389339 -57.931266 
L 311.060782 -57.885478 
L 311.732224 -57.841357 
L 312.403667 -57.79885 
L 313.07511 -57.757907 
L 313.746553 -57.718476 
L 314.417996 -57.68051 
L 315.089439 -57.643961 
L 315.760882 -57.608782 
L 316.432325 -57.574929 
L 317.103768 -57.542357 
L 317.77521 -57.511025 
L 318.446653 -57.48089 
L 319.118096 -57.451912 
L 319.789539 -57.424053 
L 320.460982 -57.397274 
L 321.132425 -57.371537 
L 321.803868 -57.346808 
L 322.475311 -57.323051 
L 323.146754 -57.300232 
L 323.818196 -57.278317 
L 324.489639 -57.257277 
L 325.161082 -57.237078 
L 325.832525 -57.217691 
L 326.503968 -57.199088 
L 327.175411 -57.181239 
L 327.846854 -57.164117 
L 328.518297 -57.147696 
L 329.189739 -57.131949 
L 329.861182 -57.116853 
L 330.532625 -57.102383 
L 331.204068 -57.088515 
L 331.875511 -57.075227 
L 332.546954 -57.062496 
L 333.218397 -57.050303 
L 333.88984 -57.038626 
L 334.561283 -57.027446 
L 335.232725 -57.016743 
L 335.904168 -57.006499 
L 336.575611 -56.996696 
L 337.247054 -56.987317 
L 337.918497 -56.978345 
L 338.58994 -56.969764 
L 339.261383 -56.961558 
L 339.932826 -56.953714 
L 340.604269 -56.946215 
L 341.275711 -56.939048 
L 341.947154 -56.932201 
L 342.618597 -56.925658 
L 343.29004 -56.919409 
L 343.961483 -56.913442 
L 344.632926 -56.907744 
L 345.304369 -56.902304 
L 345.975812 -56.897112 
L 346.647255 -56.892157 
L 347.318697 -56.88743 
L 347.99014 -56.88292 
L 348.661583 -56.878619 
L 349.333026 -56.874517 
L 350.004469 -56.870606 
L 350.675912 -56.866878 
L 351.347355 -56.863326 
L 352.018798 -56.85994 
L 352.69024 -56.856714 
L 353.361683 -56.853642 
L 354.033126 -56.850716 
L 354.704569 -56.84793 
L 355.376012 -56.845277 
L 356.047455 -56.842752 
L 356.718898 -56.840349 
L 357.390341 -56.838063 
L 358.061784 -56.835888 
L 358.733226 -56.833819 
L 359.404669 -56.831852 
L 360.076112 -56.829981 
L 360.747555 -56.828203 
L 361.418998 -56.826512 
L 362.090441 -56.824906 
L 362.761884 -56.82338 
L 363.433327 -56.821931 
L 364.10477 -56.820554 
L 364.776212 -56.819246 
L 365.447655 -56.818005 
L 366.119098 -56.816826 
L 366.790541 -56.815708 
L 367.461984 -56.814647 
L 368.133427 -56.81364 
L 368.80487 -56.812685 
L 369.476313 -56.811779 
L 370.147756 -56.81092 
L 370.819198 -56.810106 
L 371.490641 -56.809334 
L 372.162084 -56.808603 
L 372.833527 -56.80791 
L 373.50497 -56.807253 
L 374.176413 -56.806631 
L 374.847856 -56.806043 
L 375.519299 -56.805485 
L 376.190741 -56.804957 
L 376.862184 -56.804457 
L 377.533627 -56.803984 
L 378.20507 -56.803537 
L 378.876513 -56.803114 
L 379.547956 -56.802714 
L 380.219399 -56.802335 
L 380.890842 -56.801977 
L 381.562285 -56.801639 
L 382.233727 -56.801319 
L 382.90517 -56.801017 
L 383.576613 -56.800731 
L 384.248056 -56.800462 
L 384.919499 -56.800207 
L 385.590942 -56.799967 
L 386.262385 -56.799739 
L 386.933828 -56.799525 
L 387.605271 -56.799323 
L 388.276713 -56.799132 
L 388.948156 -56.798952 
L 389.619599 -56.798782 
L 390.291042 -56.798622 
L 390.962485 -56.798471 
L 391.633928 -56.798328 
L 392.305371 -56.798194 
L 392.976814 -56.798068 
L 393.648257 -56.797948 
L 394.319699 -56.797836 
L 394.991142 -56.79773 
L 395.662585 -56.797631 
L 396.334028 -56.797537 
L 397.005471 -56.797449 
L 397.676914 -56.797366 
L 398.348357 -56.797287 
L 399.0198 -56.797214 
L 399.691242 -56.797145 
L 400.362685 -56.79708 
L 401.034128 -56.797018 
L 401.705571 -56.796961 
L 402.377014 -56.796907 
L 403.048457 -56.796856 
L 403.7199 -56.796808 
L 404.391343 -56.796763 
L 405.062786 -56.796721 
L 405.734228 -56.796681 
L 406.405671 -56.796644 
L 407.077114 -56.796609 
L 407.748557 -56.796576 
L 408.42 -56.796546 
L 408.42 -56.796095 
L 408.42 -56.796095 
L 407.748557 -56.796095 
L 407.077114 -56.796095 
L 406.405671 -56.796095 
L 405.734228 -56.796095 
L 405.062786 -56.796095 
L 404.391343 -56.796095 
L 403.7199 -56.796095 
L 403.048457 -56.796095 
L 402.377014 -56.796095 
L 401.705571 -56.796095 
L 401.034128 -56.796095 
L 400.362685 -56.796095 
L 399.691242 -56.796095 
L 399.0198 -56.796095 
L 398.348357 -56.796095 
L 397.676914 -56.796095 
L 397.005471 -56.796095 
L 396.334028 -56.796095 
L 395.662585 -56.796095 
L 394.991142 -56.796095 
L 394.319699 -56.796095 
L 393.648257 -56.796095 
L 392.976814 -56.796095 
L 392.305371 -56.796095 
L 391.633928 -56.796095 
L 390.962485 -56.796095 
L 390.291042 -56.796095 
L 389.619599 -56.796095 
L 388.948156 -56.796095 
L 388.276713 -56.796095 
L 387.605271 -56.796095 
L 386.933828 -56.796095 
L 386.262385 -56.796095 
L 385.590942 -56.796095 
L 384.919499 -56.796095 
L 384.248056 -56.796095 
L 383.576613 -56.796095 
L 382.90517 -56.796095 
L 382.233727 -56.796095 
L 381.562285 -56.796095 
L 380.890842 -56.796095 
L 380.219399 -56.796095 
L 379.547956 -56.796095 
L 378.876513 -56.796095 
L 378.20507 -56.796095 
L 377.533627 -56.796095 
L 376.862184 -56.796095 
L 376.190741 -56.796095 
L 375.519299 -56.796095 
L 374.847856 -56.796095 
L 374.176413 -56.796095 
L 373.50497 -56.796095 
L 372.833527 -56.796095 
L 372.162084 -56.796095 
L 371.490641 -56.796095 
L 370.819198 -56.796095 
L 370.147756 -56.796095 
L 369.476313 -56.796095 
L 368.80487 -56.796095 
L 368.133427 -56.796095 
L 367.461984 -56.796095 
L 366.790541 -56.796095 
L 366.119098 -56.796095 
L 365.447655 -56.796095 
L 364.776212 -56.796095 
L 364.10477 -56.796095 
L 363.433327 -56.796095 
L 362.761884 -56.796095 
L 362.090441 -56.796095 
L 361.418998 -56.796095 
L 360.747555 -56.796095 
L 360.076112 -56.796095 
L 359.404669 -56.796095 
L 358.733226 -56.796095 
L 358.061784 -56.796095 
L 357.390341 -56.796095 
L 356.718898 -56.796095 
L 356.047455 -56.796095 
L 355.376012 -56.796095 
L 354.704569 -56.796095 
L 354.033126 -56.796095 
L 353.361683 -56.796095 
L 352.69024 -56.796095 
L 352.018798 -56.796095 
L 351.347355 -56.796095 
L 350.675912 -56.796095 
L 350.004469 -56.796095 
L 349.333026 -56.796095 
L 348.661583 -56.796095 
L 347.99014 -56.796095 
L 347.318697 -56.796095 
L 346.647255 -56.796095 
L 345.975812 -56.796095 
L 345.304369 -56.796095 
L 344.632926 -56.796095 
L 343.961483 -56.796095 
L 343.29004 -56.796095 
L 342.618597 -56.796095 
L 341.947154 -56.796095 
L 341.275711 -56.796095 
L 340.604269 -56.796095 
L 339.932826 -56.796095 
L 339.261383 -56.796095 
L 338.58994 -56.796095 
L 337.918497 -56.796095 
L 337.247054 -56.796095 
L 336.575611 -56.796095 
L 335.904168 -56.796095 
L 335.232725 -56.796095 
L 334.561283 -56.796095 
L 333.88984 -56.796095 
L 333.218397 -56.796095 
L 332.546954 -56.796095 
L 331.875511 -56.796095 
L 331.204068 -56.796095 
L 330.532625 -56.796095 
L 329.861182 -56.796095 
L 329.189739 -56.796095 
L 328.518297 -56.796095 
L 327.846854 -56.796095 
L 327.175411 -56.796095 
L 326.503968 -56.796095 
L 325.832525 -56.796095 
L 325.161082 -56.796095 
L 324.489639 -56.796095 
L 323.818196 -56.796095 
L 323.146754 -56.796095 
L 322.475311 -56.796095 
L 321.803868 -56.796095 
L 321.132425 -56.796095 
L 320.460982 -56.796095 
L 319.789539 -56.796095 
L 319.118096 -56.796095 
L 318.446653 -56.796095 
L 317.77521 -56.796095 
L 317.103768 -56.796095 
L 316.432325 -56.796095 
L 315.760882 -56.796095 
L 315.089439 -56.796095 
L 314.417996 -56.796095 
L 313.746553 -56.796095 
L 313.07511 -56.796095 
L 312.403667 -56.796095 
L 311.732224 -56.796095 
L 311.060782 -56.796095 
L 310.389339 -56.796095 
L 309.717896 -56.796095 
L 309.046453 -56.796095 
L 308.37501 -56.796095 
L 307.703567 -56.796095 
L 307.032124 -56.796095 
L 306.360681 -56.796095 
L 305.689238 -56.796095 
L 305.017796 -56.796095 
L 304.346353 -56.796095 
L 303.67491 -56.796095 
L 303.003467 -56.796095 
L 302.332024 -56.796095 
L 301.660581 -56.796095 
L 300.989138 -56.796095 
L 300.317695 -56.796095 
L 299.646253 -56.796095 
L 298.97481 -56.796095 
L 298.303367 -56.796095 
L 297.631924 -56.796095 
L 296.960481 -56.796095 
L 296.289038 -56.796095 
L 295.617595 -56.796095 
L 294.946152 -56.796095 
L 294.274709 -56.796095 
L 293.603267 -56.796095 
L 292.931824 -56.796095 
L 292.260381 -56.796095 
L 291.588938 -56.796095 
L 290.917495 -56.796095 
L 290.246052 -56.796095 
L 289.574609 -56.796095 
L 288.903166 -56.796095 
L 288.231723 -56.796095 
L 287.560281 -56.796095 
L 286.888838 -56.796095 
L 286.217395 -56.796095 
L 285.545952 -56.796095 
L 284.874509 -56.796095 
L 284.203066 -56.796095 
L 283.531623 -56.796095 
L 282.86018 -56.796095 
L 282.188737 -56.796095 
L 281.517295 -56.796095 
L 280.845852 -56.796095 
L 280.174409 -56.796095 
L 279.502966 -56.796095 
L 278.831523 -56.796095 
L 278.16008 -56.796095 
L 277.488637 -56.796095 
L 276.817194 -56.796095 
L 276.145752 -56.796095 
L 275.474309 -56.796095 
L 274.802866 -56.796095 
L 274.131423 -56.796095 
L 273.45998 -56.796095 
L 272.788537 -56.796095 
L 272.117094 -56.796095 
L 271.445651 -56.796095 
L 270.774208 -56.796095 
L 270.102766 -56.796095 
L 269.431323 -56.796095 
L 268.75988 -56.796095 
L 268.088437 -56.796095 
L 267.416994 -56.796095 
L 266.745551 -56.796095 
L 266.074108 -56.796095 
L 265.402665 -56.796095 
L 264.731222 -56.796095 
L 264.05978 -56.796095 
L 263.388337 -56.796095 
L 262.716894 -56.796095 
L 262.045451 -56.796095 
L 261.374008 -56.796095 
L 260.702565 -56.796095 
L 260.031122 -56.796095 
L 259.359679 -56.796095 
L 258.688236 -56.796095 
L 258.016794 -56.796095 
L 257.345351 -56.796095 
L 256.673908 -56.796095 
L 256.002465 -56.796095 
L 255.331022 -56.796095 
L 254.659579 -56.796095 
L 253.988136 -56.796095 
L 253.316693 -56.796095 
L 252.645251 -56.796095 
L 251.973808 -56.796095 
L 251.302365 -56.796095 
L 250.630922 -56.796095 
L 249.959479 -56.796095 
L 249.288036 -56.796095 
L 248.616593 -56.796095 
L 247.94515 -56.796095 
L 247.273707 -56.796095 
L 246.602265 -56.796095 
L 245.930822 -56.796095 
L 245.259379 -56.796095 
L 244.587936 -56.796095 
L 243.916493 -56.796095 
L 243.24505 -56.796095 
L 242.573607 -56.796095 
L 241.902164 -56.796095 
L 241.230721 -56.796095 
L 240.559279 -56.796095 
L 239.887836 -56.796095 
L 239.216393 -56.796095 
L 238.54495 -56.796095 
L 237.873507 -56.796095 
L 237.202064 -56.796095 
L 236.530621 -56.796095 
L 235.859178 -56.796095 
L 235.187735 -56.796095 
L 234.516293 -56.796095 
L 233.84485 -56.796095 
L 233.173407 -56.796095 
L 232.501964 -56.796095 
L 231.830521 -56.796095 
L 231.159078 -56.796095 
L 230.487635 -56.796095 
L 229.816192 -56.796095 
L 229.144749 -56.796095 
L 228.473307 -56.796095 
L 227.801864 -56.796095 
L 227.130421 -56.796095 
L 226.458978 -56.796095 
L 225.787535 -56.796095 
L 225.116092 -56.796095 
L 224.444649 -56.796095 
L 223.773206 -56.796095 
L 223.101764 -56.796095 
L 222.430321 -56.796095 
L 221.758878 -56.796095 
L 221.087435 -56.796095 
L 220.415992 -56.796095 
L 219.744549 -56.796095 
L 219.073106 -56.796095 
L 218.401663 -56.796095 
L 217.73022 -56.796095 
L 217.058778 -56.796095 
L 216.387335 -56.796095 
L 215.715892 -56.796095 
L 215.044449 -56.796095 
L 214.373006 -56.796095 
L 213.701563 -56.796095 
L 213.03012 -56.796095 
L 212.358677 -56.796095 
L 211.687234 -56.796095 
L 211.015792 -56.796095 
L 210.344349 -56.796095 
L 209.672906 -56.796095 
L 209.001463 -56.796095 
L 208.33002 -56.796095 
L 207.658577 -56.796095 
L 206.987134 -56.796095 
L 206.315691 -56.796095 
L 205.644248 -56.796095 
L 204.972806 -56.796095 
L 204.301363 -56.796095 
L 203.62992 -56.796095 
L 202.958477 -56.796095 
L 202.287034 -56.796095 
L 201.615591 -56.796095 
L 200.944148 -56.796095 
L 200.272705 -56.796095 
L 199.601263 -56.796095 
L 198.92982 -56.796095 
L 198.258377 -56.796095 
L 197.586934 -56.796095 
L 196.915491 -56.796095 
L 196.244048 -56.796095 
L 195.572605 -56.796095 
L 194.901162 -56.796095 
L 194.229719 -56.796095 
L 193.558277 -56.796095 
L 192.886834 -56.796095 
L 192.215391 -56.796095 
L 191.543948 -56.796095 
L 190.872505 -56.796095 
L 190.201062 -56.796095 
L 189.529619 -56.796095 
L 188.858176 -56.796095 
L 188.186733 -56.796095 
L 187.515291 -56.796095 
L 186.843848 -56.796095 
L 186.172405 -56.796095 
L 185.500962 -56.796095 
L 184.829519 -56.796095 
L 184.158076 -56.796095 
L 183.486633 -56.796095 
L 182.81519 -56.796095 
L 182.143747 -56.796095 
L 181.472305 -56.796095 
L 180.800862 -56.796095 
L 180.129419 -56.796095 
L 179.457976 -56.796095 
L 178.786533 -56.796095 
L 178.11509 -56.796095 
L 177.443647 -56.796095 
L 176.772204 -56.796095 
L 176.100762 -56.796095 
L 175.429319 -56.796095 
L 174.757876 -56.796095 
L 174.086433 -56.796095 
L 173.41499 -56.796095 
L 172.743547 -56.796095 
L 172.072104 -56.796095 
L 171.400661 -56.796095 
L 170.729218 -56.796095 
L 170.057776 -56.796095 
L 169.386333 -56.796095 
L 168.71489 -56.796095 
L 168.043447 -56.796095 
L 167.372004 -56.796095 
L 166.700561 -56.796095 
L 166.029118 -56.796095 
L 165.357675 -56.796095 
L 164.686232 -56.796095 
L 164.01479 -56.796095 
L 163.343347 -56.796095 
L 162.671904 -56.796095 
L 162.000461 -56.796095 
L 161.329018 -56.796095 
L 160.657575 -56.796095 
L 159.986132 -56.796095 
L 159.314689 -56.796095 
L 158.643246 -56.796095 
L 157.971804 -56.796095 
L 157.300361 -56.796095 
L 156.628918 -56.796095 
L 155.957475 -56.796095 
L 155.286032 -56.796095 
L 154.614589 -56.796095 
L 153.943146 -56.796095 
L 153.271703 -56.796095 
L 152.600261 -56.796095 
L 151.928818 -56.796095 
L 151.257375 -56.796095 
L 150.585932 -56.796095 
L 149.914489 -56.796095 
L 149.243046 -56.796095 
L 148.571603 -56.796095 
L 147.90016 -56.796095 
L 147.228717 -56.796095 
L 146.557275 -56.796095 
L 145.885832 -56.796095 
L 145.214389 -56.796095 
L 144.542946 -56.796095 
L 143.871503 -56.796095 
L 143.20006 -56.796095 
L 142.528617 -56.796095 
L 141.857174 -56.796095 
L 141.185731 -56.796095 
L 140.514289 -56.796095 
L 139.842846 -56.796095 
L 139.171403 -56.796095 
L 138.49996 -56.796095 
L 137.828517 -56.796095 
L 137.157074 -56.796095 
L 136.485631 -56.796095 
L 135.814188 -56.796095 
L 135.142745 -56.796095 
L 134.471303 -56.796095 
L 133.79986 -56.796095 
L 133.128417 -56.796095 
L 132.456974 -56.796095 
L 131.785531 -56.796095 
L 131.114088 -56.796095 
L 130.442645 -56.796095 
L 129.771202 -56.796095 
L 129.09976 -56.796095 
L 128.428317 -56.796095 
L 127.756874 -56.796095 
L 127.085431 -56.796095 
L 126.413988 -56.796095 
L 125.742545 -56.796095 
L 125.071102 -56.796095 
L 124.399659 -56.796095 
L 123.728216 -56.796095 
L 123.056774 -56.796095 
L 122.385331 -56.796095 
L 121.713888 -56.796095 
L 121.042445 -56.796095 
L 120.371002 -56.796095 
L 119.699559 -56.796095 
L 119.028116 -56.796095 
L 118.356673 -56.796095 
L 117.68523 -56.796095 
L 117.013788 -56.796095 
L 116.342345 -56.796095 
L 115.670902 -56.796095 
L 114.999459 -56.796095 
L 114.328016 -56.796095 
L 113.656573 -56.796095 
L 112.98513 -56.796095 
L 112.313687 -56.796095 
L 111.642244 -56.796095 
L 110.970802 -56.796095 
L 110.299359 -56.796095 
L 109.627916 -56.796095 
L 108.956473 -56.796095 
L 108.28503 -56.796095 
L 107.613587 -56.796095 
L 106.942144 -56.796095 
L 106.270701 -56.796095 
L 105.599259 -56.796095 
L 104.927816 -56.796095 
L 104.256373 -56.796095 
L 103.58493 -56.796095 
L 102.913487 -56.796095 
L 102.242044 -56.796095 
L 101.570601 -56.796095 
L 100.899158 -56.796095 
L 100.227715 -56.796095 
L 99.556273 -56.796095 
L 98.88483 -56.796095 
L 98.213387 -56.796095 
L 97.541944 -56.796095 
L 96.870501 -56.796095 
L 96.199058 -56.796095 
L 95.527615 -56.796095 
L 94.856172 -56.796095 
L 94.184729 -56.796095 
L 93.513287 -56.796095 
L 92.841844 -56.796095 
L 92.170401 -56.796095 
L 91.498958 -56.796095 
L 90.827515 -56.796095 
L 90.156072 -56.796095 
L 89.484629 -56.796095 
L 88.813186 -56.796095 
L 88.141743 -56.796095 
L 87.470301 -56.796095 
L 86.798858 -56.796095 
L 86.127415 -56.796095 
L 85.455972 -56.796095 
L 84.784529 -56.796095 
L 84.113086 -56.796095 
L 83.441643 -56.796095 
L 82.7702 -56.796095 
L 82.098758 -56.796095 
L 81.427315 -56.796095 
L 80.755872 -56.796095 
L 80.084429 -56.796095 
L 79.412986 -56.796095 
L 78.741543 -56.796095 
L 78.0701 -56.796095 
L 77.398657 -56.796095 
L 76.727214 -56.796095 
L 76.055772 -56.796095 
L 75.384329 -56.796095 
L 74.712886 -56.796095 
L 74.041443 -56.796095 
L 73.37 -56.796095 
z
" style="stroke: #0000ff; stroke-opacity: 0.3"/>
    </defs>
    <g clip-path="url(#p0437be4489)">
     <use xlink:href="#m7fb55bc3a2" x="0" y="314.64" style="fill: #0000ff; fill-opacity: 0.3; stroke: #0000ff; stroke-opacity: 0.3"/>
    </g>
   </g>
   <g id="FillBetweenPolyCollection_2">
    <defs>
     <path id="mfdda2c5fbd" d="M 73.37 -56.796095 
L 73.37 -73.803672 
L 74.041443 -74.031964 
L 74.712886 -74.262362 
L 75.384329 -74.494868 
L 76.055772 -74.729484 
L 76.727214 -74.966213 
L 77.398657 -75.205057 
L 78.0701 -75.446016 
L 78.741543 -75.689092 
L 79.412986 -75.934286 
L 80.084429 -76.181597 
L 80.755872 -76.431026 
L 81.427315 -76.682573 
L 82.098758 -76.936238 
L 82.7702 -77.192018 
L 83.441643 -77.449912 
L 84.113086 -77.70992 
L 84.784529 -77.972038 
L 85.455972 -78.236264 
L 86.127415 -78.502596 
L 86.798858 -78.77103 
L 87.470301 -79.041562 
L 88.141743 -79.314188 
L 88.813186 -79.588905 
L 89.484629 -79.865706 
L 90.156072 -80.144588 
L 90.827515 -80.425543 
L 91.498958 -80.708566 
L 92.170401 -80.993651 
L 92.841844 -81.280791 
L 93.513287 -81.569978 
L 94.184729 -81.861205 
L 94.856172 -82.154463 
L 95.527615 -82.449744 
L 96.199058 -82.747038 
L 96.870501 -83.046337 
L 97.541944 -83.34763 
L 98.213387 -83.650907 
L 98.88483 -83.956157 
L 99.556273 -84.263369 
L 100.227715 -84.572531 
L 100.899158 -84.883631 
L 101.570601 -85.196656 
L 102.242044 -85.511594 
L 102.913487 -85.82843 
L 103.58493 -86.14715 
L 104.256373 -86.467741 
L 104.927816 -86.790187 
L 105.599259 -87.114472 
L 106.270701 -87.440582 
L 106.942144 -87.768498 
L 107.613587 -88.098206 
L 108.28503 -88.429686 
L 108.956473 -88.762922 
L 109.627916 -89.097895 
L 110.299359 -89.434586 
L 110.970802 -89.772977 
L 111.642244 -90.113047 
L 112.313687 -90.454776 
L 112.98513 -90.798144 
L 113.656573 -91.143129 
L 114.328016 -91.489709 
L 114.999459 -91.837863 
L 115.670902 -92.187568 
L 116.342345 -92.538801 
L 117.013788 -92.891538 
L 117.68523 -93.245755 
L 118.356673 -93.601428 
L 119.028116 -93.958531 
L 119.699559 -94.31704 
L 120.371002 -94.676927 
L 121.042445 -95.038167 
L 121.713888 -95.400732 
L 122.385331 -95.764596 
L 123.056774 -96.12973 
L 123.728216 -96.496106 
L 124.399659 -96.863695 
L 125.071102 -97.232468 
L 125.742545 -97.602394 
L 126.413988 -97.973445 
L 127.085431 -98.345588 
L 127.756874 -98.718794 
L 128.428317 -99.093029 
L 129.09976 -99.468263 
L 129.771202 -99.844462 
L 130.442645 -100.221594 
L 131.114088 -100.599626 
L 131.785531 -100.978523 
L 132.456974 -101.35825 
L 133.128417 -101.738775 
L 133.79986 -102.12006 
L 134.471303 -102.502072 
L 135.142745 -102.884772 
L 135.814188 -103.268127 
L 136.485631 -103.652097 
L 137.157074 -104.036647 
L 137.828517 -104.421738 
L 138.49996 -104.807333 
L 139.171403 -105.193393 
L 139.842846 -105.579879 
L 140.514289 -105.966752 
L 141.185731 -106.353973 
L 141.857174 -106.741501 
L 142.528617 -107.129297 
L 143.20006 -107.517319 
L 143.871503 -107.905526 
L 144.542946 -108.293878 
L 145.214389 -108.682333 
L 145.885832 -109.070847 
L 146.557275 -109.45938 
L 147.228717 -109.847889 
L 147.90016 -110.236329 
L 148.571603 -110.624659 
L 149.243046 -111.012835 
L 149.914489 -111.400812 
L 150.585932 -111.788547 
L 151.257375 -112.175994 
L 151.928818 -112.56311 
L 152.600261 -112.94985 
L 153.271703 -113.336167 
L 153.943146 -113.722018 
L 154.614589 -114.107355 
L 155.286032 -114.492133 
L 155.957475 -114.876306 
L 156.628918 -115.259828 
L 157.300361 -115.642652 
L 157.971804 -116.024732 
L 158.643246 -116.406019 
L 159.314689 -116.786468 
L 159.986132 -117.166031 
L 160.657575 -117.544661 
L 161.329018 -117.92231 
L 162.000461 -118.29893 
L 162.671904 -118.674473 
L 163.343347 -119.048893 
L 164.01479 -119.42214 
L 164.686232 -119.794166 
L 165.357675 -120.164924 
L 166.029118 -120.534365 
L 166.700561 -120.902441 
L 167.372004 -121.269102 
L 168.043447 -121.634302 
L 168.71489 -121.99799 
L 169.386333 -122.36012 
L 170.057776 -122.720642 
L 170.729218 -123.079507 
L 171.400661 -123.436668 
L 172.072104 -123.792075 
L 172.743547 -124.145681 
L 173.41499 -124.497436 
L 174.086433 -124.847292 
L 174.757876 -125.195202 
L 175.429319 -125.541117 
L 176.100762 -125.884988 
L 176.772204 -126.226768 
L 177.443647 -126.566408 
L 178.11509 -126.903862 
L 178.786533 -127.23908 
L 179.457976 -127.572016 
L 180.129419 -127.902622 
L 180.800862 -128.23085 
L 181.472305 -128.556655 
L 182.143747 -128.879988 
L 182.81519 -129.200803 
L 183.486633 -129.519054 
L 184.158076 -129.834694 
L 184.829519 -130.147678 
L 185.500962 -130.457959 
L 186.172405 -130.765492 
L 186.843848 -131.070231 
L 187.515291 -131.372132 
L 188.186733 -131.671149 
L 188.858176 -131.967239 
L 189.529619 -132.260357 
L 190.201062 -132.550459 
L 190.872505 -132.837502 
L 191.543948 -133.121443 
L 192.215391 -133.402239 
L 192.886834 -133.679847 
L 193.558277 -133.954225 
L 194.229719 -134.225332 
L 194.901162 -134.493126 
L 195.572605 -134.757567 
L 196.244048 -135.018614 
L 196.915491 -135.276226 
L 197.586934 -135.530364 
L 198.258377 -135.78099 
L 198.92982 -136.028064 
L 199.601263 -136.271547 
L 200.272705 -136.511403 
L 200.944148 -136.747594 
L 201.615591 -136.980082 
L 202.287034 -137.208833 
L 202.958477 -137.433809 
L 203.62992 -137.654976 
L 204.301363 -137.872298 
L 204.972806 -138.085743 
L 205.644248 -138.295275 
L 206.315691 -138.500862 
L 206.987134 -138.702471 
L 207.658577 -138.90007 
L 208.33002 -139.093628 
L 209.001463 -139.283115 
L 209.672906 -139.468499 
L 210.344349 -139.649751 
L 211.015792 -139.826843 
L 211.687234 -139.999746 
L 212.358677 -140.168432 
L 213.03012 -140.332874 
L 213.701563 -140.493046 
L 214.373006 -140.648921 
L 215.044449 -140.800476 
L 215.715892 -140.947684 
L 216.387335 -141.090524 
L 217.058778 -141.22897 
L 217.73022 -141.363002 
L 218.401663 -141.492596 
L 219.073106 -141.617733 
L 219.744549 -141.738392 
L 220.415992 -141.854553 
L 221.087435 -141.966198 
L 221.758878 -142.073307 
L 222.430321 -142.175865 
L 223.101764 -142.273853 
L 223.773206 -142.367256 
L 224.444649 -142.456059 
L 225.116092 -142.540246 
L 225.787535 -142.619805 
L 226.458978 -142.694723 
L 227.130421 -142.764986 
L 227.801864 -142.830584 
L 228.473307 -142.891506 
L 229.144749 -142.947741 
L 229.816192 -142.999281 
L 230.487635 -143.046117 
L 231.159078 -143.088241 
L 231.830521 -143.125647 
L 232.501964 -143.158328 
L 233.173407 -143.186278 
L 233.84485 -143.209494 
L 234.516293 -143.227972 
L 235.187735 -143.241708 
L 235.859178 -143.2507 
L 236.530621 -143.254946 
L 237.202064 -143.254447 
L 237.873507 -143.249201 
L 238.54495 -143.239211 
L 239.216393 -143.224477 
L 239.887836 -143.205002 
L 240.559279 -143.180789 
L 241.230721 -143.151843 
L 241.902164 -143.118167 
L 242.573607 -143.079768 
L 243.24505 -143.036651 
L 243.916493 -142.988825 
L 244.587936 -142.936296 
L 245.259379 -142.879074 
L 245.930822 -142.817167 
L 246.602265 -142.750586 
L 247.273707 -142.679342 
L 247.94515 -142.603447 
L 248.616593 -142.522913 
L 249.288036 -142.437752 
L 249.959479 -142.34798 
L 250.630922 -142.253611 
L 251.302365 -142.15466 
L 251.973808 -142.051143 
L 252.645251 -141.943078 
L 253.316693 -141.830481 
L 253.988136 -141.713372 
L 254.659579 -141.591769 
L 255.331022 -141.465692 
L 256.002465 -141.335162 
L 256.673908 -141.200199 
L 257.345351 -141.060826 
L 258.016794 -140.917066 
L 258.688236 -140.76894 
L 259.359679 -140.616475 
L 260.031122 -140.459693 
L 260.702565 -140.29862 
L 261.374008 -140.133283 
L 262.045451 -139.963707 
L 262.716894 -139.78992 
L 263.388337 -139.611951 
L 264.05978 -139.429826 
L 264.731222 -139.243576 
L 265.402665 -139.05323 
L 266.074108 -138.858819 
L 266.745551 -138.660373 
L 267.416994 -138.457924 
L 268.088437 -138.251504 
L 268.75988 -138.041146 
L 269.431323 -137.826883 
L 270.102766 -137.608748 
L 270.774208 -137.386777 
L 271.445651 -137.161003 
L 272.117094 -136.931463 
L 272.788537 -136.698193 
L 273.45998 -136.461227 
L 274.131423 -136.220605 
L 274.802866 -135.976363 
L 275.474309 -135.728538 
L 276.145752 -135.47717 
L 276.817194 -135.222297 
L 277.488637 -134.963959 
L 278.16008 -134.702195 
L 278.831523 -134.437045 
L 279.502966 -134.16855 
L 280.174409 -133.896751 
L 280.845852 -133.62169 
L 281.517295 -133.343407 
L 282.188737 -133.061946 
L 282.86018 -132.777349 
L 283.531623 -132.489658 
L 284.203066 -132.198918 
L 284.874509 -131.905171 
L 285.545952 -131.608461 
L 286.217395 -131.308833 
L 286.888838 -131.006331 
L 287.560281 -130.701 
L 288.231723 -130.392885 
L 288.903166 -130.082032 
L 289.574609 -129.768486 
L 290.246052 -129.452292 
L 290.917495 -129.133498 
L 291.588938 -128.812149 
L 292.260381 -128.488291 
L 292.931824 -128.161973 
L 293.603267 -127.83324 
L 294.274709 -127.50214 
L 294.946152 -127.16872 
L 295.617595 -126.833027 
L 296.289038 -126.495109 
L 296.960481 -126.155015 
L 297.631924 -125.812791 
L 298.303367 -125.468485 
L 298.97481 -125.122147 
L 299.646253 -124.773823 
L 300.317695 -124.423563 
L 300.989138 -124.071415 
L 301.660581 -123.717426 
L 302.332024 -123.361645 
L 303.003467 -123.004122 
L 303.67491 -122.644904 
L 304.346353 -122.28404 
L 305.017796 -121.921578 
L 305.689238 -121.557567 
L 306.360681 -121.192056 
L 307.032124 -120.825093 
L 307.703567 -120.456726 
L 308.37501 -120.087004 
L 309.046453 -119.715975 
L 309.717896 -119.343688 
L 310.389339 -118.97019 
L 311.060782 -118.59553 
L 311.732224 -118.219756 
L 312.403667 -117.842915 
L 313.07511 -117.465056 
L 313.746553 -117.086226 
L 314.417996 -116.706473 
L 315.089439 -116.325843 
L 315.760882 -115.944385 
L 316.432325 -115.562145 
L 317.103768 -115.179171 
L 317.77521 -114.795508 
L 318.446653 -114.411203 
L 319.118096 -114.026303 
L 319.789539 -113.640854 
L 320.460982 -113.254902 
L 321.132425 -112.868492 
L 321.803868 -112.48167 
L 322.475311 -112.09448 
L 323.146754 -111.706968 
L 323.818196 -111.319179 
L 324.489639 -110.931156 
L 325.161082 -110.542945 
L 325.832525 -110.154588 
L 326.503968 -109.766129 
L 327.175411 -109.377612 
L 327.846854 -108.989079 
L 328.518297 -108.600574 
L 329.189739 -108.212138 
L 329.861182 -107.823813 
L 330.532625 -107.435641 
L 331.204068 -107.047663 
L 331.875511 -106.65992 
L 332.546954 -106.272453 
L 333.218397 -105.885302 
L 333.88984 -105.498507 
L 334.561283 -105.112108 
L 335.232725 -104.726143 
L 335.904168 -104.340651 
L 336.575611 -103.95567 
L 337.247054 -103.571239 
L 337.918497 -103.187395 
L 338.58994 -102.804176 
L 339.261383 -102.421617 
L 339.932826 -102.039755 
L 340.604269 -101.658627 
L 341.275711 -101.278267 
L 341.947154 -100.898712 
L 342.618597 -100.519994 
L 343.29004 -100.142149 
L 343.961483 -99.765211 
L 344.632926 -99.389212 
L 345.304369 -99.014185 
L 345.975812 -98.640164 
L 346.647255 -98.267179 
L 347.318697 -97.895263 
L 347.99014 -97.524447 
L 348.661583 -97.154761 
L 349.333026 -96.786235 
L 350.004469 -96.418899 
L 350.675912 -96.052782 
L 351.347355 -95.687913 
L 352.018798 -95.32432 
L 352.69024 -94.962031 
L 353.361683 -94.601074 
L 354.033126 -94.241474 
L 354.704569 -93.88326 
L 355.376012 -93.526455 
L 356.047455 -93.171087 
L 356.718898 -92.817179 
L 357.390341 -92.464757 
L 358.061784 -92.113843 
L 358.733226 -91.764463 
L 359.404669 -91.416638 
L 360.076112 -91.070391 
L 360.747555 -90.725745 
L 361.418998 -90.38272 
L 362.090441 -90.041339 
L 362.761884 -89.701621 
L 363.433327 -89.363586 
L 364.10477 -89.027255 
L 364.776212 -88.692646 
L 365.447655 -88.359778 
L 366.119098 -88.028669 
L 366.790541 -87.699337 
L 367.461984 -87.371799 
L 368.133427 -87.046073 
L 368.80487 -86.722173 
L 369.476313 -86.400116 
L 370.147756 -86.079918 
L 370.819198 -85.761593 
L 371.490641 -85.445155 
L 372.162084 -85.130619 
L 372.833527 -84.817998 
L 373.50497 -84.507305 
L 374.176413 -84.198552 
L 374.847856 -83.891752 
L 375.519299 -83.586917 
L 376.190741 -83.284056 
L 376.862184 -82.983182 
L 377.533627 -82.684304 
L 378.20507 -82.387433 
L 378.876513 -82.092577 
L 379.547956 -81.799746 
L 380.219399 -81.508948 
L 380.890842 -81.220191 
L 381.562285 -80.933483 
L 382.233727 -80.648831 
L 382.90517 -80.366242 
L 383.576613 -80.085723 
L 384.248056 -79.807279 
L 384.919499 -79.530916 
L 385.590942 -79.256639 
L 386.262385 -78.984453 
L 386.933828 -78.714362 
L 387.605271 -78.44637 
L 388.276713 -78.180481 
L 388.948156 -77.916699 
L 389.619599 -77.655024 
L 390.291042 -77.395461 
L 390.962485 -77.138012 
L 391.633928 -76.882677 
L 392.305371 -76.629458 
L 392.976814 -76.378357 
L 393.648257 -76.129373 
L 394.319699 -75.882507 
L 394.991142 -75.637759 
L 395.662585 -75.395129 
L 396.334028 -75.154615 
L 397.005471 -74.916217 
L 397.676914 -74.679933 
L 398.348357 -74.445761 
L 399.0198 -74.213699 
L 399.691242 -73.983744 
L 400.362685 -73.755895 
L 401.034128 -73.530147 
L 401.705571 -73.306498 
L 402.377014 -73.084944 
L 403.048457 -72.865481 
L 403.7199 -72.648104 
L 404.391343 -72.43281 
L 405.062786 -72.219593 
L 405.734228 -72.008448 
L 406.405671 -71.79937 
L 407.077114 -71.592353 
L 407.748557 -71.387392 
L 408.42 -71.18448 
L 408.42 -56.796095 
L 408.42 -56.796095 
L 407.748557 -56.796095 
L 407.077114 -56.796095 
L 406.405671 -56.796095 
L 405.734228 -56.796095 
L 405.062786 -56.796095 
L 404.391343 -56.796095 
L 403.7199 -56.796095 
L 403.048457 -56.796095 
L 402.377014 -56.796095 
L 401.705571 -56.796095 
L 401.034128 -56.796095 
L 400.362685 -56.796095 
L 399.691242 -56.796095 
L 399.0198 -56.796095 
L 398.348357 -56.796095 
L 397.676914 -56.796095 
L 397.005471 -56.796095 
L 396.334028 -56.796095 
L 395.662585 -56.796095 
L 394.991142 -56.796095 
L 394.319699 -56.796095 
L 393.648257 -56.796095 
L 392.976814 -56.796095 
L 392.305371 -56.796095 
L 391.633928 -56.796095 
L 390.962485 -56.796095 
L 390.291042 -56.796095 
L 389.619599 -56.796095 
L 388.948156 -56.796095 
L 388.276713 -56.796095 
L 387.605271 -56.796095 
L 386.933828 -56.796095 
L 386.262385 -56.796095 
L 385.590942 -56.796095 
L 384.919499 -56.796095 
L 384.248056 -56.796095 
L 383.576613 -56.796095 
L 382.90517 -56.796095 
L 382.233727 -56.796095 
L 381.562285 -56.796095 
L 380.890842 -56.796095 
L 380.219399 -56.796095 
L 379.547956 -56.796095 
L 378.876513 -56.796095 
L 378.20507 -56.796095 
L 377.533627 -56.796095 
L 376.862184 -56.796095 
L 376.190741 -56.796095 
L 375.519299 -56.796095 
L 374.847856 -56.796095 
L 374.176413 -56.796095 
L 373.50497 -56.796095 
L 372.833527 -56.796095 
L 372.162084 -56.796095 
L 371.490641 -56.796095 
L 370.819198 -56.796095 
L 370.147756 -56.796095 
L 369.476313 -56.796095 
L 368.80487 -56.796095 
L 368.133427 -56.796095 
L 367.461984 -56.796095 
L 366.790541 -56.796095 
L 366.119098 -56.796095 
L 365.447655 -56.796095 
L 364.776212 -56.796095 
L 364.10477 -56.796095 
L 363.433327 -56.796095 
L 362.761884 -56.796095 
L 362.090441 -56.796095 
L 361.418998 -56.796095 
L 360.747555 -56.796095 
L 360.076112 -56.796095 
L 359.404669 -56.796095 
L 358.733226 -56.796095 
L 358.061784 -56.796095 
L 357.390341 -56.796095 
L 356.718898 -56.796095 
L 356.047455 -56.796095 
L 355.376012 -56.796095 
L 354.704569 -56.796095 
L 354.033126 -56.796095 
L 353.361683 -56.796095 
L 352.69024 -56.796095 
L 352.018798 -56.796095 
L 351.347355 -56.796095 
L 350.675912 -56.796095 
L 350.004469 -56.796095 
L 349.333026 -56.796095 
L 348.661583 -56.796095 
L 347.99014 -56.796095 
L 347.318697 -56.796095 
L 346.647255 -56.796095 
L 345.975812 -56.796095 
L 345.304369 -56.796095 
L 344.632926 -56.796095 
L 343.961483 -56.796095 
L 343.29004 -56.796095 
L 342.618597 -56.796095 
L 341.947154 -56.796095 
L 341.275711 -56.796095 
L 340.604269 -56.796095 
L 339.932826 -56.796095 
L 339.261383 -56.796095 
L 338.58994 -56.796095 
L 337.918497 -56.796095 
L 337.247054 -56.796095 
L 336.575611 -56.796095 
L 335.904168 -56.796095 
L 335.232725 -56.796095 
L 334.561283 -56.796095 
L 333.88984 -56.796095 
L 333.218397 -56.796095 
L 332.546954 -56.796095 
L 331.875511 -56.796095 
L 331.204068 -56.796095 
L 330.532625 -56.796095 
L 329.861182 -56.796095 
L 329.189739 -56.796095 
L 328.518297 -56.796095 
L 327.846854 -56.796095 
L 327.175411 -56.796095 
L 326.503968 -56.796095 
L 325.832525 -56.796095 
L 325.161082 -56.796095 
L 324.489639 -56.796095 
L 323.818196 -56.796095 
L 323.146754 -56.796095 
L 322.475311 -56.796095 
L 321.803868 -56.796095 
L 321.132425 -56.796095 
L 320.460982 -56.796095 
L 319.789539 -56.796095 
L 319.118096 -56.796095 
L 318.446653 -56.796095 
L 317.77521 -56.796095 
L 317.103768 -56.796095 
L 316.432325 -56.796095 
L 315.760882 -56.796095 
L 315.089439 -56.796095 
L 314.417996 -56.796095 
L 313.746553 -56.796095 
L 313.07511 -56.796095 
L 312.403667 -56.796095 
L 311.732224 -56.796095 
L 311.060782 -56.796095 
L 310.389339 -56.796095 
L 309.717896 -56.796095 
L 309.046453 -56.796095 
L 308.37501 -56.796095 
L 307.703567 -56.796095 
L 307.032124 -56.796095 
L 306.360681 -56.796095 
L 305.689238 -56.796095 
L 305.017796 -56.796095 
L 304.346353 -56.796095 
L 303.67491 -56.796095 
L 303.003467 -56.796095 
L 302.332024 -56.796095 
L 301.660581 -56.796095 
L 300.989138 -56.796095 
L 300.317695 -56.796095 
L 299.646253 -56.796095 
L 298.97481 -56.796095 
L 298.303367 -56.796095 
L 297.631924 -56.796095 
L 296.960481 -56.796095 
L 296.289038 -56.796095 
L 295.617595 -56.796095 
L 294.946152 -56.796095 
L 294.274709 -56.796095 
L 293.603267 -56.796095 
L 292.931824 -56.796095 
L 292.260381 -56.796095 
L 291.588938 -56.796095 
L 290.917495 -56.796095 
L 290.246052 -56.796095 
L 289.574609 -56.796095 
L 288.903166 -56.796095 
L 288.231723 -56.796095 
L 287.560281 -56.796095 
L 286.888838 -56.796095 
L 286.217395 -56.796095 
L 285.545952 -56.796095 
L 284.874509 -56.796095 
L 284.203066 -56.796095 
L 283.531623 -56.796095 
L 282.86018 -56.796095 
L 282.188737 -56.796095 
L 281.517295 -56.796095 
L 280.845852 -56.796095 
L 280.174409 -56.796095 
L 279.502966 -56.796095 
L 278.831523 -56.796095 
L 278.16008 -56.796095 
L 277.488637 -56.796095 
L 276.817194 -56.796095 
L 276.145752 -56.796095 
L 275.474309 -56.796095 
L 274.802866 -56.796095 
L 274.131423 -56.796095 
L 273.45998 -56.796095 
L 272.788537 -56.796095 
L 272.117094 -56.796095 
L 271.445651 -56.796095 
L 270.774208 -56.796095 
L 270.102766 -56.796095 
L 269.431323 -56.796095 
L 268.75988 -56.796095 
L 268.088437 -56.796095 
L 267.416994 -56.796095 
L 266.745551 -56.796095 
L 266.074108 -56.796095 
L 265.402665 -56.796095 
L 264.731222 -56.796095 
L 264.05978 -56.796095 
L 263.388337 -56.796095 
L 262.716894 -56.796095 
L 262.045451 -56.796095 
L 261.374008 -56.796095 
L 260.702565 -56.796095 
L 260.031122 -56.796095 
L 259.359679 -56.796095 
L 258.688236 -56.796095 
L 258.016794 -56.796095 
L 257.345351 -56.796095 
L 256.673908 -56.796095 
L 256.002465 -56.796095 
L 255.331022 -56.796095 
L 254.659579 -56.796095 
L 253.988136 -56.796095 
L 253.316693 -56.796095 
L 252.645251 -56.796095 
L 251.973808 -56.796095 
L 251.302365 -56.796095 
L 250.630922 -56.796095 
L 249.959479 -56.796095 
L 249.288036 -56.796095 
L 248.616593 -56.796095 
L 247.94515 -56.796095 
L 247.273707 -56.796095 
L 246.602265 -56.796095 
L 245.930822 -56.796095 
L 245.259379 -56.796095 
L 244.587936 -56.796095 
L 243.916493 -56.796095 
L 243.24505 -56.796095 
L 242.573607 -56.796095 
L 241.902164 -56.796095 
L 241.230721 -56.796095 
L 240.559279 -56.796095 
L 239.887836 -56.796095 
L 239.216393 -56.796095 
L 238.54495 -56.796095 
L 237.873507 -56.796095 
L 237.202064 -56.796095 
L 236.530621 -56.796095 
L 235.859178 -56.796095 
L 235.187735 -56.796095 
L 234.516293 -56.796095 
L 233.84485 -56.796095 
L 233.173407 -56.796095 
L 232.501964 -56.796095 
L 231.830521 -56.796095 
L 231.159078 -56.796095 
L 230.487635 -56.796095 
L 229.816192 -56.796095 
L 229.144749 -56.796095 
L 228.473307 -56.796095 
L 227.801864 -56.796095 
L 227.130421 -56.796095 
L 226.458978 -56.796095 
L 225.787535 -56.796095 
L 225.116092 -56.796095 
L 224.444649 -56.796095 
L 223.773206 -56.796095 
L 223.101764 -56.796095 
L 222.430321 -56.796095 
L 221.758878 -56.796095 
L 221.087435 -56.796095 
L 220.415992 -56.796095 
L 219.744549 -56.796095 
L 219.073106 -56.796095 
L 218.401663 -56.796095 
L 217.73022 -56.796095 
L 217.058778 -56.796095 
L 216.387335 -56.796095 
L 215.715892 -56.796095 
L 215.044449 -56.796095 
L 214.373006 -56.796095 
L 213.701563 -56.796095 
L 213.03012 -56.796095 
L 212.358677 -56.796095 
L 211.687234 -56.796095 
L 211.015792 -56.796095 
L 210.344349 -56.796095 
L 209.672906 -56.796095 
L 209.001463 -56.796095 
L 208.33002 -56.796095 
L 207.658577 -56.796095 
L 206.987134 -56.796095 
L 206.315691 -56.796095 
L 205.644248 -56.796095 
L 204.972806 -56.796095 
L 204.301363 -56.796095 
L 203.62992 -56.796095 
L 202.958477 -56.796095 
L 202.287034 -56.796095 
L 201.615591 -56.796095 
L 200.944148 -56.796095 
L 200.272705 -56.796095 
L 199.601263 -56.796095 
L 198.92982 -56.796095 
L 198.258377 -56.796095 
L 197.586934 -56.796095 
L 196.915491 -56.796095 
L 196.244048 -56.796095 
L 195.572605 -56.796095 
L 194.901162 -56.796095 
L 194.229719 -56.796095 
L 193.558277 -56.796095 
L 192.886834 -56.796095 
L 192.215391 -56.796095 
L 191.543948 -56.796095 
L 190.872505 -56.796095 
L 190.201062 -56.796095 
L 189.529619 -56.796095 
L 188.858176 -56.796095 
L 188.186733 -56.796095 
L 187.515291 -56.796095 
L 186.843848 -56.796095 
L 186.172405 -56.796095 
L 185.500962 -56.796095 
L 184.829519 -56.796095 
L 184.158076 -56.796095 
L 183.486633 -56.796095 
L 182.81519 -56.796095 
L 182.143747 -56.796095 
L 181.472305 -56.796095 
L 180.800862 -56.796095 
L 180.129419 -56.796095 
L 179.457976 -56.796095 
L 178.786533 -56.796095 
L 178.11509 -56.796095 
L 177.443647 -56.796095 
L 176.772204 -56.796095 
L 176.100762 -56.796095 
L 175.429319 -56.796095 
L 174.757876 -56.796095 
L 174.086433 -56.796095 
L 173.41499 -56.796095 
L 172.743547 -56.796095 
L 172.072104 -56.796095 
L 171.400661 -56.796095 
L 170.729218 -56.796095 
L 170.057776 -56.796095 
L 169.386333 -56.796095 
L 168.71489 -56.796095 
L 168.043447 -56.796095 
L 167.372004 -56.796095 
L 166.700561 -56.796095 
L 166.029118 -56.796095 
L 165.357675 -56.796095 
L 164.686232 -56.796095 
L 164.01479 -56.796095 
L 163.343347 -56.796095 
L 162.671904 -56.796095 
L 162.000461 -56.796095 
L 161.329018 -56.796095 
L 160.657575 -56.796095 
L 159.986132 -56.796095 
L 159.314689 -56.796095 
L 158.643246 -56.796095 
L 157.971804 -56.796095 
L 157.300361 -56.796095 
L 156.628918 -56.796095 
L 155.957475 -56.796095 
L 155.286032 -56.796095 
L 154.614589 -56.796095 
L 153.943146 -56.796095 
L 153.271703 -56.796095 
L 152.600261 -56.796095 
L 151.928818 -56.796095 
L 151.257375 -56.796095 
L 150.585932 -56.796095 
L 149.914489 -56.796095 
L 149.243046 -56.796095 
L 148.571603 -56.796095 
L 147.90016 -56.796095 
L 147.228717 -56.796095 
L 146.557275 -56.796095 
L 145.885832 -56.796095 
L 145.214389 -56.796095 
L 144.542946 -56.796095 
L 143.871503 -56.796095 
L 143.20006 -56.796095 
L 142.528617 -56.796095 
L 141.857174 -56.796095 
L 141.185731 -56.796095 
L 140.514289 -56.796095 
L 139.842846 -56.796095 
L 139.171403 -56.796095 
L 138.49996 -56.796095 
L 137.828517 -56.796095 
L 137.157074 -56.796095 
L 136.485631 -56.796095 
L 135.814188 -56.796095 
L 135.142745 -56.796095 
L 134.471303 -56.796095 
L 133.79986 -56.796095 
L 133.128417 -56.796095 
L 132.456974 -56.796095 
L 131.785531 -56.796095 
L 131.114088 -56.796095 
L 130.442645 -56.796095 
L 129.771202 -56.796095 
L 129.09976 -56.796095 
L 128.428317 -56.796095 
L 127.756874 -56.796095 
L 127.085431 -56.796095 
L 126.413988 -56.796095 
L 125.742545 -56.796095 
L 125.071102 -56.796095 
L 124.399659 -56.796095 
L 123.728216 -56.796095 
L 123.056774 -56.796095 
L 122.385331 -56.796095 
L 121.713888 -56.796095 
L 121.042445 -56.796095 
L 120.371002 -56.796095 
L 119.699559 -56.796095 
L 119.028116 -56.796095 
L 118.356673 -56.796095 
L 117.68523 -56.796095 
L 117.013788 -56.796095 
L 116.342345 -56.796095 
L 115.670902 -56.796095 
L 114.999459 -56.796095 
L 114.328016 -56.796095 
L 113.656573 -56.796095 
L 112.98513 -56.796095 
L 112.313687 -56.796095 
L 111.642244 -56.796095 
L 110.970802 -56.796095 
L 110.299359 -56.796095 
L 109.627916 -56.796095 
L 108.956473 -56.796095 
L 108.28503 -56.796095 
L 107.613587 -56.796095 
L 106.942144 -56.796095 
L 106.270701 -56.796095 
L 105.599259 -56.796095 
L 104.927816 -56.796095 
L 104.256373 -56.796095 
L 103.58493 -56.796095 
L 102.913487 -56.796095 
L 102.242044 -56.796095 
L 101.570601 -56.796095 
L 100.899158 -56.796095 
L 100.227715 -56.796095 
L 99.556273 -56.796095 
L 98.88483 -56.796095 
L 98.213387 -56.796095 
L 97.541944 -56.796095 
L 96.870501 -56.796095 
L 96.199058 -56.796095 
L 95.527615 -56.796095 
L 94.856172 -56.796095 
L 94.184729 -56.796095 
L 93.513287 -56.796095 
L 92.841844 -56.796095 
L 92.170401 -56.796095 
L 91.498958 -56.796095 
L 90.827515 -56.796095 
L 90.156072 -56.796095 
L 89.484629 -56.796095 
L 88.813186 -56.796095 
L 88.141743 -56.796095 
L 87.470301 -56.796095 
L 86.798858 -56.796095 
L 86.127415 -56.796095 
L 85.455972 -56.796095 
L 84.784529 -56.796095 
L 84.113086 -56.796095 
L 83.441643 -56.796095 
L 82.7702 -56.796095 
L 82.098758 -56.796095 
L 81.427315 -56.796095 
L 80.755872 -56.796095 
L 80.084429 -56.796095 
L 79.412986 -56.796095 
L 78.741543 -56.796095 
L 78.0701 -56.796095 
L 77.398657 -56.796095 
L 76.727214 -56.796095 
L 76.055772 -56.796095 
L 75.384329 -56.796095 
L 74.712886 -56.796095 
L 74.041443 -56.796095 
L 73.37 -56.796095 
z
" style="stroke: #ff0000; stroke-opacity: 0.3"/>
    </defs>
    <g clip-path="url(#p0437be4489)">
     <use xlink:href="#mfdda2c5fbd" x="0" y="314.64" style="fill: #ff0000; fill-opacity: 0.3; stroke: #ff0000; stroke-opacity: 0.3"/>
    </g>
   </g>
   <g id="matplotlib.axis_1">
    <g id="xtick_1">
     <g id="line2d_1">
      <defs>
       <path id="m9a8cba04ab" d="M 0 0 
L 0 3.5 
" style="stroke: #000000; stroke-width: 0.8"/>
      </defs>
      <g>
       <use xlink:href="#m9a8cba04ab" x="73.37" y="268.7987" style="stroke: #000000; stroke-width: 0.8"/>
      </g>
     </g>
     <g id="text_1">
      <!-- 0 -->
      <g transform="translate(70.18875 283.397137) scale(0.1 -0.1)">
       <defs>
        <path id="DejaVuSans-30" d="M 2034 4250 
Q 1547 4250 1301 3770 
Q 1056 3291 1056 2328 
Q 1056 1369 1301 889 
Q 1547 409 2034 409 
Q 2525 409 2770 889 
Q 3016 1369 3016 2328 
Q 3016 3291 2770 3770 
Q 2525 4250 2034 4250 
z
M 2034 4750 
Q 2819 4750 3233 4129 
Q 3647 3509 3647 2328 
Q 3647 1150 3233 529 
Q 2819 -91 2034 -91 
Q 1250 -91 836 529 
Q 422 1150 422 2328 
Q 422 3509 836 4129 
Q 1250 4750 2034 4750 
z
" transform="scale(0.015625)"/>
       </defs>
       <use xlink:href="#DejaVuSans-30"/>
      </g>
     </g>
    </g>
    <g id="xtick_2">
     <g id="line2d_2">
      <g>
       <use xlink:href="#m9a8cba04ab" x="115.25125" y="268.7987" style="stroke: #000000; stroke-width: 0.8"/>
      </g>
     </g>
     <g id="text_2">
      <!-- 250 -->
      <g transform="translate(105.7075 283.397137) scale(0.1 -0.1)">
       <defs>
        <path id="DejaVuSans-32" d="M 1228 531 
L 3431 531 
L 3431 0 
L 469 0 
L 469 531 
Q 828 903 1448 1529 
Q 2069 2156 2228 2338 
Q 2531 2678 2651 2914 
Q 2772 3150 2772 3378 
Q 2772 3750 2511 3984 
Q 2250 4219 1831 4219 
Q 1534 4219 1204 4116 
Q 875 4013 500 3803 
L 500 4441 
Q 881 4594 1212 4672 
Q 1544 4750 1819 4750 
Q 2544 4750 2975 4387 
Q 3406 4025 3406 3419 
Q 3406 3131 3298 2873 
Q 3191 2616 2906 2266 
Q 2828 2175 2409 1742 
Q 1991 1309 1228 531 
z
" transform="scale(0.015625)"/>
        <path id="DejaVuSans-35" d="M 691 4666 
L 3169 4666 
L 3169 4134 
L 1269 4134 
L 1269 2991 
Q 1406 3038 1543 3061 
Q 1681 3084 1819 3084 
Q 2600 3084 3056 2656 
Q 3513 2228 3513 1497 
Q 3513 744 3044 326 
Q 2575 -91 1722 -91 
Q 1428 -91 1123 -41 
Q 819 9 494 109 
L 494 744 
Q 775 591 1075 516 
Q 1375 441 1709 441 
Q 2250 441 2565 725 
Q 2881 1009 2881 1497 
Q 2881 1984 2565 2268 
Q 2250 2553 1709 2553 
Q 1456 2553 1204 2497 
Q 953 2441 691 2322 
L 691 4666 
z
" transform="scale(0.015625)"/>
       </defs>
       <use xlink:href="#DejaVuSans-32"/>
       <use xlink:href="#DejaVuSans-35" transform="translate(63.623047 0)"/>
       <use xlink:href="#DejaVuSans-30" transform="translate(127.246094 0)"/>
      </g>
     </g>
    </g>
    <g id="xtick_3">
     <g id="line2d_3">
      <g>
       <use xlink:href="#m9a8cba04ab" x="157.1325" y="268.7987" style="stroke: #000000; stroke-width: 0.8"/>
      </g>
     </g>
     <g id="text_3">
      <!-- 500 -->
      <g transform="translate(147.58875 283.397137) scale(0.1 -0.1)">
       <use xlink:href="#DejaVuSans-35"/>
       <use xlink:href="#DejaVuSans-30" transform="translate(63.623047 0)"/>
       <use xlink:href="#DejaVuSans-30" transform="translate(127.246094 0)"/>
      </g>
     </g>
    </g>
    <g id="xtick_4">
     <g id="line2d_4">
      <g>
       <use xlink:href="#m9a8cba04ab" x="199.01375" y="268.7987" style="stroke: #000000; stroke-width: 0.8"/>
      </g>
     </g>
     <g id="text_4">
      <!-- 750 -->
      <g transform="translate(189.47 283.397137) scale(0.1 -0.1)">
       <defs>
        <path id="DejaVuSans-37" d="M 525 4666 
L 3525 4666 
L 3525 4397 
L 1831 0 
L 1172 0 
L 2766 4134 
L 525 4134 
L 525 4666 
z
" transform="scale(0.015625)"/>
       </defs>
       <use xlink:href="#DejaVuSans-37"/>
       <use xlink:href="#DejaVuSans-35" transform="translate(63.623047 0)"/>
       <use xlink:href="#DejaVuSans-30" transform="translate(127.246094 0)"/>
      </g>
     </g>
    </g>
    <g id="xtick_5">
     <g id="line2d_5">
      <g>
       <use xlink:href="#m9a8cba04ab" x="240.895" y="268.7987" style="stroke: #000000; stroke-width: 0.8"/>
      </g>
     </g>
     <g id="text_5">
      <!-- 1000 -->
      <g transform="translate(228.17 283.397137) scale(0.1 -0.1)">
       <defs>
        <path id="DejaVuSans-31" d="M 794 531 
L 1825 531 
L 1825 4091 
L 703 3866 
L 703 4441 
L 1819 4666 
L 2450 4666 
L 2450 531 
L 3481 531 
L 3481 0 
L 794 0 
L 794 531 
z
" transform="scale(0.015625)"/>
       </defs>
       <use xlink:href="#DejaVuSans-31"/>
       <use xlink:href="#DejaVuSans-30" transform="translate(63.623047 0)"/>
       <use xlink:href="#DejaVuSans-30" transform="translate(127.246094 0)"/>
       <use xlink:href="#DejaVuSans-30" transform="translate(190.869141 0)"/>
      </g>
     </g>
    </g>
    <g id="xtick_6">
     <g id="line2d_6">
      <g>
       <use xlink:href="#m9a8cba04ab" x="282.77625" y="268.7987" style="stroke: #000000; stroke-width: 0.8"/>
      </g>
     </g>
     <g id="text_6">
      <!-- 1250 -->
      <g transform="translate(270.05125 283.397137) scale(0.1 -0.1)">
       <use xlink:href="#DejaVuSans-31"/>
       <use xlink:href="#DejaVuSans-32" transform="translate(63.623047 0)"/>
       <use xlink:href="#DejaVuSans-35" transform="translate(127.246094 0)"/>
       <use xlink:href="#DejaVuSans-30" transform="translate(190.869141 0)"/>
      </g>
     </g>
    </g>
    <g id="xtick_7">
     <g id="line2d_7">
      <g>
       <use xlink:href="#m9a8cba04ab" x="324.6575" y="268.7987" style="stroke: #000000; stroke-width: 0.8"/>
      </g>
     </g>
     <g id="text_7">
      <!-- 1500 -->
      <g transform="translate(311.9325 283.397137) scale(0.1 -0.1)">
       <use xlink:href="#DejaVuSans-31"/>
       <use xlink:href="#DejaVuSans-35" transform="translate(63.623047 0)"/>
       <use xlink:href="#DejaVuSans-30" transform="translate(127.246094 0)"/>
       <use xlink:href="#DejaVuSans-30" transform="translate(190.869141 0)"/>
      </g>
     </g>
    </g>
    <g id="xtick_8">
     <g id="line2d_8">
      <g>
       <use xlink:href="#m9a8cba04ab" x="366.53875" y="268.7987" style="stroke: #000000; stroke-width: 0.8"/>
      </g>
     </g>
     <g id="text_8">
      <!-- 1750 -->
      <g transform="translate(353.81375 283.397137) scale(0.1 -0.1)">
       <use xlink:href="#DejaVuSans-31"/>
       <use xlink:href="#DejaVuSans-37" transform="translate(63.623047 0)"/>
       <use xlink:href="#DejaVuSans-35" transform="translate(127.246094 0)"/>
       <use xlink:href="#DejaVuSans-30" transform="translate(190.869141 0)"/>
      </g>
     </g>
    </g>
    <g id="xtick_9">
     <g id="line2d_9">
      <g>
       <use xlink:href="#m9a8cba04ab" x="408.42" y="268.7987" style="stroke: #000000; stroke-width: 0.8"/>
      </g>
     </g>
     <g id="text_9">
      <!-- 2000 -->
      <g transform="translate(395.695 283.397137) scale(0.1 -0.1)">
       <use xlink:href="#DejaVuSans-32"/>
       <use xlink:href="#DejaVuSans-30" transform="translate(63.623047 0)"/>
       <use xlink:href="#DejaVuSans-30" transform="translate(127.246094 0)"/>
       <use xlink:href="#DejaVuSans-30" transform="translate(190.869141 0)"/>
      </g>
     </g>
    </g>
    <g id="text_10">
     <!-- Young's Modulus [Pa] -->
     <g transform="translate(188.141094 297.075263) scale(0.1 -0.1)">
      <defs>
       <path id="DejaVuSans-59" d="M -13 4666 
L 666 4666 
L 1959 2747 
L 3244 4666 
L 3922 4666 
L 2272 2222 
L 2272 0 
L 1638 0 
L 1638 2222 
L -13 4666 
z
" transform="scale(0.015625)"/>
       <path id="DejaVuSans-6f" d="M 1959 3097 
Q 1497 3097 1228 2736 
Q 959 2375 959 1747 
Q 959 1119 1226 758 
Q 1494 397 1959 397 
Q 2419 397 2687 759 
Q 2956 1122 2956 1747 
Q 2956 2369 2687 2733 
Q 2419 3097 1959 3097 
z
M 1959 3584 
Q 2709 3584 3137 3096 
Q 3566 2609 3566 1747 
Q 3566 888 3137 398 
Q 2709 -91 1959 -91 
Q 1206 -91 779 398 
Q 353 888 353 1747 
Q 353 2609 779 3096 
Q 1206 3584 1959 3584 
z
" transform="scale(0.015625)"/>
       <path id="DejaVuSans-75" d="M 544 1381 
L 544 3500 
L 1119 3500 
L 1119 1403 
Q 1119 906 1312 657 
Q 1506 409 1894 409 
Q 2359 409 2629 706 
Q 2900 1003 2900 1516 
L 2900 3500 
L 3475 3500 
L 3475 0 
L 2900 0 
L 2900 538 
Q 2691 219 2414 64 
Q 2138 -91 1772 -91 
Q 1169 -91 856 284 
Q 544 659 544 1381 
z
M 1991 3584 
L 1991 3584 
z
" transform="scale(0.015625)"/>
       <path id="DejaVuSans-6e" d="M 3513 2113 
L 3513 0 
L 2938 0 
L 2938 2094 
Q 2938 2591 2744 2837 
Q 2550 3084 2163 3084 
Q 1697 3084 1428 2787 
Q 1159 2491 1159 1978 
L 1159 0 
L 581 0 
L 581 3500 
L 1159 3500 
L 1159 2956 
Q 1366 3272 1645 3428 
Q 1925 3584 2291 3584 
Q 2894 3584 3203 3211 
Q 3513 2838 3513 2113 
z
" transform="scale(0.015625)"/>
       <path id="DejaVuSans-67" d="M 2906 1791 
Q 2906 2416 2648 2759 
Q 2391 3103 1925 3103 
Q 1463 3103 1205 2759 
Q 947 2416 947 1791 
Q 947 1169 1205 825 
Q 1463 481 1925 481 
Q 2391 481 2648 825 
Q 2906 1169 2906 1791 
z
M 3481 434 
Q 3481 -459 3084 -895 
Q 2688 -1331 1869 -1331 
Q 1566 -1331 1297 -1286 
Q 1028 -1241 775 -1147 
L 775 -588 
Q 1028 -725 1275 -790 
Q 1522 -856 1778 -856 
Q 2344 -856 2625 -561 
Q 2906 -266 2906 331 
L 2906 616 
Q 2728 306 2450 153 
Q 2172 0 1784 0 
Q 1141 0 747 490 
Q 353 981 353 1791 
Q 353 2603 747 3093 
Q 1141 3584 1784 3584 
Q 2172 3584 2450 3431 
Q 2728 3278 2906 2969 
L 2906 3500 
L 3481 3500 
L 3481 434 
z
" transform="scale(0.015625)"/>
       <path id="DejaVuSans-27" d="M 1147 4666 
L 1147 2931 
L 616 2931 
L 616 4666 
L 1147 4666 
z
" transform="scale(0.015625)"/>
       <path id="DejaVuSans-73" d="M 2834 3397 
L 2834 2853 
Q 2591 2978 2328 3040 
Q 2066 3103 1784 3103 
Q 1356 3103 1142 2972 
Q 928 2841 928 2578 
Q 928 2378 1081 2264 
Q 1234 2150 1697 2047 
L 1894 2003 
Q 2506 1872 2764 1633 
Q 3022 1394 3022 966 
Q 3022 478 2636 193 
Q 2250 -91 1575 -91 
Q 1294 -91 989 -36 
Q 684 19 347 128 
L 347 722 
Q 666 556 975 473 
Q 1284 391 1588 391 
Q 1994 391 2212 530 
Q 2431 669 2431 922 
Q 2431 1156 2273 1281 
Q 2116 1406 1581 1522 
L 1381 1569 
Q 847 1681 609 1914 
Q 372 2147 372 2553 
Q 372 3047 722 3315 
Q 1072 3584 1716 3584 
Q 2034 3584 2315 3537 
Q 2597 3491 2834 3397 
z
" transform="scale(0.015625)"/>
       <path id="DejaVuSans-20" transform="scale(0.015625)"/>
       <path id="DejaVuSans-4d" d="M 628 4666 
L 1569 4666 
L 2759 1491 
L 3956 4666 
L 4897 4666 
L 4897 0 
L 4281 0 
L 4281 4097 
L 3078 897 
L 2444 897 
L 1241 4097 
L 1241 0 
L 628 0 
L 628 4666 
z
" transform="scale(0.015625)"/>
       <path id="DejaVuSans-64" d="M 2906 2969 
L 2906 4863 
L 3481 4863 
L 3481 0 
L 2906 0 
L 2906 525 
Q 2725 213 2448 61 
Q 2172 -91 1784 -91 
Q 1150 -91 751 415 
Q 353 922 353 1747 
Q 353 2572 751 3078 
Q 1150 3584 1784 3584 
Q 2172 3584 2448 3432 
Q 2725 3281 2906 2969 
z
M 947 1747 
Q 947 1113 1208 752 
Q 1469 391 1925 391 
Q 2381 391 2643 752 
Q 2906 1113 2906 1747 
Q 2906 2381 2643 2742 
Q 2381 3103 1925 3103 
Q 1469 3103 1208 2742 
Q 947 2381 947 1747 
z
" transform="scale(0.015625)"/>
       <path id="DejaVuSans-6c" d="M 603 4863 
L 1178 4863 
L 1178 0 
L 603 0 
L 603 4863 
z
" transform="scale(0.015625)"/>
       <path id="DejaVuSans-5b" d="M 550 4863 
L 1875 4863 
L 1875 4416 
L 1125 4416 
L 1125 -397 
L 1875 -397 
L 1875 -844 
L 550 -844 
L 550 4863 
z
" transform="scale(0.015625)"/>
       <path id="DejaVuSans-50" d="M 1259 4147 
L 1259 2394 
L 2053 2394 
Q 2494 2394 2734 2622 
Q 2975 2850 2975 3272 
Q 2975 3691 2734 3919 
Q 2494 4147 2053 4147 
L 1259 4147 
z
M 628 4666 
L 2053 4666 
Q 2838 4666 3239 4311 
Q 3641 3956 3641 3272 
Q 3641 2581 3239 2228 
Q 2838 1875 2053 1875 
L 1259 1875 
L 1259 0 
L 628 0 
L 628 4666 
z
" transform="scale(0.015625)"/>
       <path id="DejaVuSans-61" d="M 2194 1759 
Q 1497 1759 1228 1600 
Q 959 1441 959 1056 
Q 959 750 1161 570 
Q 1363 391 1709 391 
Q 2188 391 2477 730 
Q 2766 1069 2766 1631 
L 2766 1759 
L 2194 1759 
z
M 3341 1997 
L 3341 0 
L 2766 0 
L 2766 531 
Q 2569 213 2275 61 
Q 1981 -91 1556 -91 
Q 1019 -91 701 211 
Q 384 513 384 1019 
Q 384 1609 779 1909 
Q 1175 2209 1959 2209 
L 2766 2209 
L 2766 2266 
Q 2766 2663 2505 2880 
Q 2244 3097 1772 3097 
Q 1472 3097 1187 3025 
Q 903 2953 641 2809 
L 641 3341 
Q 956 3463 1253 3523 
Q 1550 3584 1831 3584 
Q 2591 3584 2966 3190 
Q 3341 2797 3341 1997 
z
" transform="scale(0.015625)"/>
       <path id="DejaVuSans-5d" d="M 1947 4863 
L 1947 -844 
L 622 -844 
L 622 -397 
L 1369 -397 
L 1369 4416 
L 622 4416 
L 622 4863 
L 1947 4863 
z
" transform="scale(0.015625)"/>
      </defs>
      <use xlink:href="#DejaVuSans-59"/>
      <use xlink:href="#DejaVuSans-6f" transform="translate(47.833984 0)"/>
      <use xlink:href="#DejaVuSans-75" transform="translate(109.015625 0)"/>
      <use xlink:href="#DejaVuSans-6e" transform="translate(172.394531 0)"/>
      <use xlink:href="#DejaVuSans-67" transform="translate(235.773438 0)"/>
      <use xlink:href="#DejaVuSans-27" transform="translate(299.25 0)"/>
      <use xlink:href="#DejaVuSans-73" transform="translate(326.740234 0)"/>
      <use xlink:href="#DejaVuSans-20" transform="translate(378.839844 0)"/>
      <use xlink:href="#DejaVuSans-4d" transform="translate(410.626953 0)"/>
      <use xlink:href="#DejaVuSans-6f" transform="translate(496.90625 0)"/>
      <use xlink:href="#DejaVuSans-64" transform="translate(558.087891 0)"/>
      <use xlink:href="#DejaVuSans-75" transform="translate(621.564453 0)"/>
      <use xlink:href="#DejaVuSans-6c" transform="translate(684.943359 0)"/>
      <use xlink:href="#DejaVuSans-75" transform="translate(712.726562 0)"/>
      <use xlink:href="#DejaVuSans-73" transform="translate(776.105469 0)"/>
      <use xlink:href="#DejaVuSans-20" transform="translate(828.205078 0)"/>
      <use xlink:href="#DejaVuSans-5b" transform="translate(859.992188 0)"/>
      <use xlink:href="#DejaVuSans-50" transform="translate(899.005859 0)"/>
      <use xlink:href="#DejaVuSans-61" transform="translate(954.808594 0)"/>
      <use xlink:href="#DejaVuSans-5d" transform="translate(1016.087891 0)"/>
     </g>
    </g>
   </g>
   <g id="matplotlib.axis_2">
    <g id="ytick_1">
     <g id="line2d_10">
      <defs>
       <path id="m32129fb4f8" d="M 0 0 
L -3.5 0 
" style="stroke: #000000; stroke-width: 0.8"/>
      </defs>
      <g>
       <use xlink:href="#m32129fb4f8" x="73.37" y="257.843905" style="stroke: #000000; stroke-width: 0.8"/>
      </g>
     </g>
     <g id="text_11">
      <!-- 0.00000 -->
      <g transform="translate(25.016875 261.643123) scale(0.1 -0.1)">
       <defs>
        <path id="DejaVuSans-2e" d="M 684 794 
L 1344 794 
L 1344 0 
L 684 0 
L 684 794 
z
" transform="scale(0.015625)"/>
       </defs>
       <use xlink:href="#DejaVuSans-30"/>
       <use xlink:href="#DejaVuSans-2e" transform="translate(63.623047 0)"/>
       <use xlink:href="#DejaVuSans-30" transform="translate(95.410156 0)"/>
       <use xlink:href="#DejaVuSans-30" transform="translate(159.033203 0)"/>
       <use xlink:href="#DejaVuSans-30" transform="translate(222.65625 0)"/>
       <use xlink:href="#DejaVuSans-30" transform="translate(286.279297 0)"/>
       <use xlink:href="#DejaVuSans-30" transform="translate(349.902344 0)"/>
      </g>
     </g>
    </g>
    <g id="ytick_2">
     <g id="line2d_11">
      <g>
       <use xlink:href="#m32129fb4f8" x="73.37" y="228.534646" style="stroke: #000000; stroke-width: 0.8"/>
      </g>
     </g>
     <g id="text_12">
      <!-- 0.00025 -->
      <g transform="translate(25.016875 232.333865) scale(0.1 -0.1)">
       <use xlink:href="#DejaVuSans-30"/>
       <use xlink:href="#DejaVuSans-2e" transform="translate(63.623047 0)"/>
       <use xlink:href="#DejaVuSans-30" transform="translate(95.410156 0)"/>
       <use xlink:href="#DejaVuSans-30" transform="translate(159.033203 0)"/>
       <use xlink:href="#DejaVuSans-30" transform="translate(222.65625 0)"/>
       <use xlink:href="#DejaVuSans-32" transform="translate(286.279297 0)"/>
       <use xlink:href="#DejaVuSans-35" transform="translate(349.902344 0)"/>
      </g>
     </g>
    </g>
    <g id="ytick_3">
     <g id="line2d_12">
      <g>
       <use xlink:href="#m32129fb4f8" x="73.37" y="199.225388" style="stroke: #000000; stroke-width: 0.8"/>
      </g>
     </g>
     <g id="text_13">
      <!-- 0.00050 -->
      <g transform="translate(25.016875 203.024607) scale(0.1 -0.1)">
       <use xlink:href="#DejaVuSans-30"/>
       <use xlink:href="#DejaVuSans-2e" transform="translate(63.623047 0)"/>
       <use xlink:href="#DejaVuSans-30" transform="translate(95.410156 0)"/>
       <use xlink:href="#DejaVuSans-30" transform="translate(159.033203 0)"/>
       <use xlink:href="#DejaVuSans-30" transform="translate(222.65625 0)"/>
       <use xlink:href="#DejaVuSans-35" transform="translate(286.279297 0)"/>
       <use xlink:href="#DejaVuSans-30" transform="translate(349.902344 0)"/>
      </g>
     </g>
    </g>
    <g id="ytick_4">
     <g id="line2d_13">
      <g>
       <use xlink:href="#m32129fb4f8" x="73.37" y="169.91613" style="stroke: #000000; stroke-width: 0.8"/>
      </g>
     </g>
     <g id="text_14">
      <!-- 0.00075 -->
      <g transform="translate(25.016875 173.715349) scale(0.1 -0.1)">
       <use xlink:href="#DejaVuSans-30"/>
       <use xlink:href="#DejaVuSans-2e" transform="translate(63.623047 0)"/>
       <use xlink:href="#DejaVuSans-30" transform="translate(95.410156 0)"/>
       <use xlink:href="#DejaVuSans-30" transform="translate(159.033203 0)"/>
       <use xlink:href="#DejaVuSans-30" transform="translate(222.65625 0)"/>
       <use xlink:href="#DejaVuSans-37" transform="translate(286.279297 0)"/>
       <use xlink:href="#DejaVuSans-35" transform="translate(349.902344 0)"/>
      </g>
     </g>
    </g>
    <g id="ytick_5">
     <g id="line2d_14">
      <g>
       <use xlink:href="#m32129fb4f8" x="73.37" y="140.606872" style="stroke: #000000; stroke-width: 0.8"/>
      </g>
     </g>
     <g id="text_15">
      <!-- 0.00100 -->
      <g transform="translate(25.016875 144.40609) scale(0.1 -0.1)">
       <use xlink:href="#DejaVuSans-30"/>
       <use xlink:href="#DejaVuSans-2e" transform="translate(63.623047 0)"/>
       <use xlink:href="#DejaVuSans-30" transform="translate(95.410156 0)"/>
       <use xlink:href="#DejaVuSans-30" transform="translate(159.033203 0)"/>
       <use xlink:href="#DejaVuSans-31" transform="translate(222.65625 0)"/>
       <use xlink:href="#DejaVuSans-30" transform="translate(286.279297 0)"/>
       <use xlink:href="#DejaVuSans-30" transform="translate(349.902344 0)"/>
      </g>
     </g>
    </g>
    <g id="ytick_6">
     <g id="line2d_15">
      <g>
       <use xlink:href="#m32129fb4f8" x="73.37" y="111.297613" style="stroke: #000000; stroke-width: 0.8"/>
      </g>
     </g>
     <g id="text_16">
      <!-- 0.00125 -->
      <g transform="translate(25.016875 115.096832) scale(0.1 -0.1)">
       <use xlink:href="#DejaVuSans-30"/>
       <use xlink:href="#DejaVuSans-2e" transform="translate(63.623047 0)"/>
       <use xlink:href="#DejaVuSans-30" transform="translate(95.410156 0)"/>
       <use xlink:href="#DejaVuSans-30" transform="translate(159.033203 0)"/>
       <use xlink:href="#DejaVuSans-31" transform="translate(222.65625 0)"/>
       <use xlink:href="#DejaVuSans-32" transform="translate(286.279297 0)"/>
       <use xlink:href="#DejaVuSans-35" transform="translate(349.902344 0)"/>
      </g>
     </g>
    </g>
    <g id="ytick_7">
     <g id="line2d_16">
      <g>
       <use xlink:href="#m32129fb4f8" x="73.37" y="81.988355" style="stroke: #000000; stroke-width: 0.8"/>
      </g>
     </g>
     <g id="text_17">
      <!-- 0.00150 -->
      <g transform="translate(25.016875 85.787574) scale(0.1 -0.1)">
       <use xlink:href="#DejaVuSans-30"/>
       <use xlink:href="#DejaVuSans-2e" transform="translate(63.623047 0)"/>
       <use xlink:href="#DejaVuSans-30" transform="translate(95.410156 0)"/>
       <use xlink:href="#DejaVuSans-30" transform="translate(159.033203 0)"/>
       <use xlink:href="#DejaVuSans-31" transform="translate(222.65625 0)"/>
       <use xlink:href="#DejaVuSans-35" transform="translate(286.279297 0)"/>
       <use xlink:href="#DejaVuSans-30" transform="translate(349.902344 0)"/>
      </g>
     </g>
    </g>
    <g id="ytick_8">
     <g id="line2d_17">
      <g>
       <use xlink:href="#m32129fb4f8" x="73.37" y="52.679097" style="stroke: #000000; stroke-width: 0.8"/>
      </g>
     </g>
     <g id="text_18">
      <!-- 0.00175 -->
      <g transform="translate(25.016875 56.478316) scale(0.1 -0.1)">
       <use xlink:href="#DejaVuSans-30"/>
       <use xlink:href="#DejaVuSans-2e" transform="translate(63.623047 0)"/>
       <use xlink:href="#DejaVuSans-30" transform="translate(95.410156 0)"/>
       <use xlink:href="#DejaVuSans-30" transform="translate(159.033203 0)"/>
       <use xlink:href="#DejaVuSans-31" transform="translate(222.65625 0)"/>
       <use xlink:href="#DejaVuSans-37" transform="translate(286.279297 0)"/>
       <use xlink:href="#DejaVuSans-35" transform="translate(349.902344 0)"/>
      </g>
     </g>
    </g>
    <g id="text_19">
     <!-- Probability Density -->
     <g transform="translate(18.937187 195.322512) rotate(-90) scale(0.1 -0.1)">
      <defs>
       <path id="DejaVuSans-72" d="M 2631 2963 
Q 2534 3019 2420 3045 
Q 2306 3072 2169 3072 
Q 1681 3072 1420 2755 
Q 1159 2438 1159 1844 
L 1159 0 
L 581 0 
L 581 3500 
L 1159 3500 
L 1159 2956 
Q 1341 3275 1631 3429 
Q 1922 3584 2338 3584 
Q 2397 3584 2469 3576 
Q 2541 3569 2628 3553 
L 2631 2963 
z
" transform="scale(0.015625)"/>
       <path id="DejaVuSans-62" d="M 3116 1747 
Q 3116 2381 2855 2742 
Q 2594 3103 2138 3103 
Q 1681 3103 1420 2742 
Q 1159 2381 1159 1747 
Q 1159 1113 1420 752 
Q 1681 391 2138 391 
Q 2594 391 2855 752 
Q 3116 1113 3116 1747 
z
M 1159 2969 
Q 1341 3281 1617 3432 
Q 1894 3584 2278 3584 
Q 2916 3584 3314 3078 
Q 3713 2572 3713 1747 
Q 3713 922 3314 415 
Q 2916 -91 2278 -91 
Q 1894 -91 1617 61 
Q 1341 213 1159 525 
L 1159 0 
L 581 0 
L 581 4863 
L 1159 4863 
L 1159 2969 
z
" transform="scale(0.015625)"/>
       <path id="DejaVuSans-69" d="M 603 3500 
L 1178 3500 
L 1178 0 
L 603 0 
L 603 3500 
z
M 603 4863 
L 1178 4863 
L 1178 4134 
L 603 4134 
L 603 4863 
z
" transform="scale(0.015625)"/>
       <path id="DejaVuSans-74" d="M 1172 4494 
L 1172 3500 
L 2356 3500 
L 2356 3053 
L 1172 3053 
L 1172 1153 
Q 1172 725 1289 603 
Q 1406 481 1766 481 
L 2356 481 
L 2356 0 
L 1766 0 
Q 1100 0 847 248 
Q 594 497 594 1153 
L 594 3053 
L 172 3053 
L 172 3500 
L 594 3500 
L 594 4494 
L 1172 4494 
z
" transform="scale(0.015625)"/>
       <path id="DejaVuSans-79" d="M 2059 -325 
Q 1816 -950 1584 -1140 
Q 1353 -1331 966 -1331 
L 506 -1331 
L 506 -850 
L 844 -850 
Q 1081 -850 1212 -737 
Q 1344 -625 1503 -206 
L 1606 56 
L 191 3500 
L 800 3500 
L 1894 763 
L 2988 3500 
L 3597 3500 
L 2059 -325 
z
" transform="scale(0.015625)"/>
       <path id="DejaVuSans-44" d="M 1259 4147 
L 1259 519 
L 2022 519 
Q 2988 519 3436 956 
Q 3884 1394 3884 2338 
Q 3884 3275 3436 3711 
Q 2988 4147 2022 4147 
L 1259 4147 
z
M 628 4666 
L 1925 4666 
Q 3281 4666 3915 4102 
Q 4550 3538 4550 2338 
Q 4550 1131 3912 565 
Q 3275 0 1925 0 
L 628 0 
L 628 4666 
z
" transform="scale(0.015625)"/>
       <path id="DejaVuSans-65" d="M 3597 1894 
L 3597 1613 
L 953 1613 
Q 991 1019 1311 708 
Q 1631 397 2203 397 
Q 2534 397 2845 478 
Q 3156 559 3463 722 
L 3463 178 
Q 3153 47 2828 -22 
Q 2503 -91 2169 -91 
Q 1331 -91 842 396 
Q 353 884 353 1716 
Q 353 2575 817 3079 
Q 1281 3584 2069 3584 
Q 2775 3584 3186 3129 
Q 3597 2675 3597 1894 
z
M 3022 2063 
Q 3016 2534 2758 2815 
Q 2500 3097 2075 3097 
Q 1594 3097 1305 2825 
Q 1016 2553 972 2059 
L 3022 2063 
z
" transform="scale(0.015625)"/>
      </defs>
      <use xlink:href="#DejaVuSans-50"/>
      <use xlink:href="#DejaVuSans-72" transform="translate(58.552734 0)"/>
      <use xlink:href="#DejaVuSans-6f" transform="translate(97.416016 0)"/>
      <use xlink:href="#DejaVuSans-62" transform="translate(158.597656 0)"/>
      <use xlink:href="#DejaVuSans-61" transform="translate(222.074219 0)"/>
      <use xlink:href="#DejaVuSans-62" transform="translate(283.353516 0)"/>
      <use xlink:href="#DejaVuSans-69" transform="translate(346.830078 0)"/>
      <use xlink:href="#DejaVuSans-6c" transform="translate(374.613281 0)"/>
      <use xlink:href="#DejaVuSans-69" transform="translate(402.396484 0)"/>
      <use xlink:href="#DejaVuSans-74" transform="translate(430.179688 0)"/>
      <use xlink:href="#DejaVuSans-79" transform="translate(469.388672 0)"/>
      <use xlink:href="#DejaVuSans-20" transform="translate(528.568359 0)"/>
      <use xlink:href="#DejaVuSans-44" transform="translate(560.355469 0)"/>
      <use xlink:href="#DejaVuSans-65" transform="translate(637.357422 0)"/>
      <use xlink:href="#DejaVuSans-6e" transform="translate(698.880859 0)"/>
      <use xlink:href="#DejaVuSans-73" transform="translate(762.259766 0)"/>
      <use xlink:href="#DejaVuSans-69" transform="translate(814.359375 0)"/>
      <use xlink:href="#DejaVuSans-74" transform="translate(842.142578 0)"/>
      <use xlink:href="#DejaVuSans-79" transform="translate(881.351562 0)"/>
     </g>
    </g>
   </g>
   <g id="line2d_18">
    <path d="M 73.37 149.138457 
L 79.412986 126.944762 
L 86.798858 99.823963 
L 90.827515 85.851756 
L 94.184729 75.049696 
L 96.870501 67.135532 
L 99.556273 59.997774 
L 101.570601 55.221059 
L 103.58493 50.986345 
L 105.599259 47.332066 
L 107.613587 44.291831 
L 108.956473 42.620336 
L 110.299359 41.241397 
L 111.642244 40.160786 
L 112.98513 39.383045 
L 114.328016 38.911451 
L 115.670902 38.747995 
L 117.013788 38.89337 
L 118.356673 39.346959 
L 119.699559 40.106848 
L 121.042445 41.169833 
L 122.385331 42.531448 
L 123.728216 44.185989 
L 125.071102 46.12656 
L 127.085431 49.555835 
L 129.09976 53.578653 
L 131.114088 58.158313 
L 133.128417 63.25364 
L 135.814188 70.771265 
L 138.49996 79.009978 
L 141.857174 90.135506 
L 145.885832 104.372122 
L 152.600261 129.146308 
L 159.314689 153.659483 
L 163.343347 167.605043 
L 166.700561 178.561679 
L 170.057776 188.799153 
L 173.41499 198.242277 
L 176.100762 205.193179 
L 178.786533 211.59504 
L 181.472305 217.446984 
L 184.158076 222.756931 
L 186.843848 227.540318 
L 189.529619 231.818791 
L 192.215391 235.618908 
L 194.901162 238.970891 
L 197.586934 241.907467 
L 200.272705 244.462807 
L 202.958477 246.671602 
L 205.644248 248.568259 
L 208.33002 250.186246 
L 211.015792 251.557557 
L 213.701563 252.712323 
L 217.058778 253.893672 
L 220.415992 254.829742 
L 224.444649 255.690293 
L 228.473307 256.324559 
L 233.173407 256.848664 
L 239.216393 257.280678 
L 246.602265 257.573724 
L 257.345351 257.757896 
L 277.488637 257.836019 
L 401.034128 257.843905 
L 408.42 257.843905 
L 408.42 257.843905 
" clip-path="url(#p0437be4489)" style="fill: none; stroke-dasharray: 1.5,2.475; stroke-dashoffset: 0; stroke: #0000ff; stroke-opacity: 0.5; stroke-width: 1.5"/>
   </g>
   <g id="line2d_19">
    <path d="M 73.37 217.255705 
L 84.113086 211.119016 
L 118.356673 191.317162 
L 125.742545 187.404236 
L 132.456974 184.081732 
L 138.49996 181.324164 
L 144.542946 178.821993 
L 149.914489 176.837634 
L 155.286032 175.099896 
L 159.986132 173.795759 
L 164.686232 172.704509 
L 169.386333 171.834919 
L 174.086433 171.194032 
L 178.786533 170.78707 
L 183.486633 170.617362 
L 188.186733 170.6863 
L 192.886834 170.993318 
L 197.586934 171.535902 
L 202.287034 172.309622 
L 206.987134 173.308194 
L 211.687234 174.523563 
L 216.387335 175.946015 
L 221.758878 177.810749 
L 227.130421 179.912235 
L 233.173407 182.533152 
L 239.216393 185.394598 
L 245.930822 188.814079 
L 253.988136 193.183803 
L 264.05978 198.929499 
L 299.646253 219.500529 
L 308.37501 224.15195 
L 316.432325 228.192716 
L 323.818196 231.655339 
L 331.204068 234.86947 
L 338.58994 237.824948 
L 345.304369 240.283823 
L 352.018798 242.526515 
L 359.404669 244.748895 
L 366.790541 246.724274 
L 374.176413 248.465296 
L 381.562285 249.987028 
L 389.619599 251.416693 
L 397.676914 252.628349 
L 406.405671 253.72222 
L 408.42 253.945367 
L 408.42 253.945367 
" clip-path="url(#p0437be4489)" style="fill: none; stroke-dasharray: 5.55,2.4; stroke-dashoffset: 0; stroke: #0000ff; stroke-opacity: 0.3; stroke-width: 1.5"/>
   </g>
   <g id="line2d_20">
    <path d="M 73.37 257.843902 
L 185.500962 257.735598 
L 202.287034 257.487288 
L 213.03012 257.12103 
L 221.758878 256.601154 
L 228.473307 255.995246 
L 234.516293 255.239368 
L 239.887836 254.352413 
L 244.587936 253.372117 
L 249.288036 252.164391 
L 253.316693 250.919045 
L 257.345351 249.452468 
L 261.374008 247.737721 
L 265.402665 245.747296 
L 268.75988 243.858201 
L 272.117094 241.743092 
L 275.474309 239.387208 
L 278.831523 236.776894 
L 282.188737 233.90002 
L 285.545952 230.746417 
L 288.903166 227.308324 
L 292.260381 223.580849 
L 295.617595 219.562423 
L 299.646253 214.359619 
L 303.67491 208.75295 
L 307.703567 202.76362 
L 312.403667 195.334825 
L 317.103768 187.49622 
L 323.146754 176.95915 
L 343.29004 141.30712 
L 347.318697 134.771993 
L 351.347355 128.668327 
L 354.704569 123.98252 
L 358.061784 119.718692 
L 360.747555 116.645481 
L 363.433327 113.898404 
L 366.119098 111.49897 
L 368.80487 109.4662 
L 370.819198 108.192149 
L 372.833527 107.139353 
L 374.847856 106.312618 
L 376.862184 105.715735 
L 378.876513 105.35145 
L 380.890842 105.221442 
L 382.90517 105.32631 
L 384.919499 105.665571 
L 386.933828 106.237661 
L 388.948156 107.039947 
L 390.962485 108.06875 
L 392.976814 109.319369 
L 394.991142 110.786122 
L 397.676914 113.066418 
L 400.362685 115.700928 
L 403.048457 118.668936 
L 405.734228 121.947423 
L 408.42 125.511364 
L 408.42 125.511364 
" clip-path="url(#p0437be4489)" style="fill: none; stroke-dasharray: 1.5,2.475; stroke-dashoffset: 0; stroke: #ff0000; stroke-opacity: 0.5; stroke-width: 1.5"/>
   </g>
   <g id="line2d_21">
    <path d="M 73.37 234.692951 
L 106.270701 234.674448 
L 139.171403 234.874733 
L 172.743547 235.298734 
L 207.658577 235.961746 
L 244.587936 236.886726 
L 284.874509 238.121771 
L 331.204068 239.772745 
L 390.962485 242.141884 
L 408.42 242.862151 
L 408.42 242.862151 
" clip-path="url(#p0437be4489)" style="fill: none; stroke-dasharray: 5.55,2.4; stroke-dashoffset: 0; stroke: #ff0000; stroke-opacity: 0.3; stroke-width: 1.5"/>
   </g>
   <g id="patch_3">
    <path d="M 73.37 268.7987 
L 73.37 27.7932 
" style="fill: none; stroke: #000000; stroke-width: 0.8; stroke-linejoin: miter; stroke-linecap: square"/>
   </g>
   <g id="patch_4">
    <path d="M 408.42 268.7987 
L 408.42 27.7932 
" style="fill: none; stroke: #000000; stroke-width: 0.8; stroke-linejoin: miter; stroke-linecap: square"/>
   </g>
   <g id="patch_5">
    <path d="M 73.37 268.7987 
L 408.42 268.7987 
" style="fill: none; stroke: #000000; stroke-width: 0.8; stroke-linejoin: miter; stroke-linecap: square"/>
   </g>
   <g id="patch_6">
    <path d="M 73.37 27.7932 
L 408.42 27.7932 
" style="fill: none; stroke: #000000; stroke-width: 0.8; stroke-linejoin: miter; stroke-linecap: square"/>
   </g>
   <g id="text_20">
    <!-- Probability Density Functions of Test Groups -->
    <g transform="translate(109.205312 21.7932) scale(0.12 -0.12)">
     <defs>
      <path id="DejaVuSans-46" d="M 628 4666 
L 3309 4666 
L 3309 4134 
L 1259 4134 
L 1259 2759 
L 3109 2759 
L 3109 2228 
L 1259 2228 
L 1259 0 
L 628 0 
L 628 4666 
z
" transform="scale(0.015625)"/>
      <path id="DejaVuSans-63" d="M 3122 3366 
L 3122 2828 
Q 2878 2963 2633 3030 
Q 2388 3097 2138 3097 
Q 1578 3097 1268 2742 
Q 959 2388 959 1747 
Q 959 1106 1268 751 
Q 1578 397 2138 397 
Q 2388 397 2633 464 
Q 2878 531 3122 666 
L 3122 134 
Q 2881 22 2623 -34 
Q 2366 -91 2075 -91 
Q 1284 -91 818 406 
Q 353 903 353 1747 
Q 353 2603 823 3093 
Q 1294 3584 2113 3584 
Q 2378 3584 2631 3529 
Q 2884 3475 3122 3366 
z
" transform="scale(0.015625)"/>
      <path id="DejaVuSans-66" d="M 2375 4863 
L 2375 4384 
L 1825 4384 
Q 1516 4384 1395 4259 
Q 1275 4134 1275 3809 
L 1275 3500 
L 2222 3500 
L 2222 3053 
L 1275 3053 
L 1275 0 
L 697 0 
L 697 3053 
L 147 3053 
L 147 3500 
L 697 3500 
L 697 3744 
Q 697 4328 969 4595 
Q 1241 4863 1831 4863 
L 2375 4863 
z
" transform="scale(0.015625)"/>
      <path id="DejaVuSans-54" d="M -19 4666 
L 3928 4666 
L 3928 4134 
L 2272 4134 
L 2272 0 
L 1638 0 
L 1638 4134 
L -19 4134 
L -19 4666 
z
" transform="scale(0.015625)"/>
      <path id="DejaVuSans-47" d="M 3809 666 
L 3809 1919 
L 2778 1919 
L 2778 2438 
L 4434 2438 
L 4434 434 
Q 4069 175 3628 42 
Q 3188 -91 2688 -91 
Q 1594 -91 976 548 
Q 359 1188 359 2328 
Q 359 3472 976 4111 
Q 1594 4750 2688 4750 
Q 3144 4750 3555 4637 
Q 3966 4525 4313 4306 
L 4313 3634 
Q 3963 3931 3569 4081 
Q 3175 4231 2741 4231 
Q 1884 4231 1454 3753 
Q 1025 3275 1025 2328 
Q 1025 1384 1454 906 
Q 1884 428 2741 428 
Q 3075 428 3337 486 
Q 3600 544 3809 666 
z
" transform="scale(0.015625)"/>
      <path id="DejaVuSans-70" d="M 1159 525 
L 1159 -1331 
L 581 -1331 
L 581 3500 
L 1159 3500 
L 1159 2969 
Q 1341 3281 1617 3432 
Q 1894 3584 2278 3584 
Q 2916 3584 3314 3078 
Q 3713 2572 3713 1747 
Q 3713 922 3314 415 
Q 2916 -91 2278 -91 
Q 1894 -91 1617 61 
Q 1341 213 1159 525 
z
M 3116 1747 
Q 3116 2381 2855 2742 
Q 2594 3103 2138 3103 
Q 1681 3103 1420 2742 
Q 1159 2381 1159 1747 
Q 1159 1113 1420 752 
Q 1681 391 2138 391 
Q 2594 391 2855 752 
Q 3116 1113 3116 1747 
z
" transform="scale(0.015625)"/>
     </defs>
     <use xlink:href="#DejaVuSans-50"/>
     <use xlink:href="#DejaVuSans-72" transform="translate(58.552734 0)"/>
     <use xlink:href="#DejaVuSans-6f" transform="translate(97.416016 0)"/>
     <use xlink:href="#DejaVuSans-62" transform="translate(158.597656 0)"/>
     <use xlink:href="#DejaVuSans-61" transform="translate(222.074219 0)"/>
     <use xlink:href="#DejaVuSans-62" transform="translate(283.353516 0)"/>
     <use xlink:href="#DejaVuSans-69" transform="translate(346.830078 0)"/>
     <use xlink:href="#DejaVuSans-6c" transform="translate(374.613281 0)"/>
     <use xlink:href="#DejaVuSans-69" transform="translate(402.396484 0)"/>
     <use xlink:href="#DejaVuSans-74" transform="translate(430.179688 0)"/>
     <use xlink:href="#DejaVuSans-79" transform="translate(469.388672 0)"/>
     <use xlink:href="#DejaVuSans-20" transform="translate(528.568359 0)"/>
     <use xlink:href="#DejaVuSans-44" transform="translate(560.355469 0)"/>
     <use xlink:href="#DejaVuSans-65" transform="translate(637.357422 0)"/>
     <use xlink:href="#DejaVuSans-6e" transform="translate(698.880859 0)"/>
     <use xlink:href="#DejaVuSans-73" transform="translate(762.259766 0)"/>
     <use xlink:href="#DejaVuSans-69" transform="translate(814.359375 0)"/>
     <use xlink:href="#DejaVuSans-74" transform="translate(842.142578 0)"/>
     <use xlink:href="#DejaVuSans-79" transform="translate(881.351562 0)"/>
     <use xlink:href="#DejaVuSans-20" transform="translate(940.53125 0)"/>
     <use xlink:href="#DejaVuSans-46" transform="translate(972.318359 0)"/>
     <use xlink:href="#DejaVuSans-75" transform="translate(1024.337891 0)"/>
     <use xlink:href="#DejaVuSans-6e" transform="translate(1087.716797 0)"/>
     <use xlink:href="#DejaVuSans-63" transform="translate(1151.095703 0)"/>
     <use xlink:href="#DejaVuSans-74" transform="translate(1206.076172 0)"/>
     <use xlink:href="#DejaVuSans-69" transform="translate(1245.285156 0)"/>
     <use xlink:href="#DejaVuSans-6f" transform="translate(1273.068359 0)"/>
     <use xlink:href="#DejaVuSans-6e" transform="translate(1334.25 0)"/>
     <use xlink:href="#DejaVuSans-73" transform="translate(1397.628906 0)"/>
     <use xlink:href="#DejaVuSans-20" transform="translate(1449.728516 0)"/>
     <use xlink:href="#DejaVuSans-6f" transform="translate(1481.515625 0)"/>
     <use xlink:href="#DejaVuSans-66" transform="translate(1542.697266 0)"/>
     <use xlink:href="#DejaVuSans-20" transform="translate(1577.902344 0)"/>
     <use xlink:href="#DejaVuSans-54" transform="translate(1609.689453 0)"/>
     <use xlink:href="#DejaVuSans-65" transform="translate(1653.773438 0)"/>
     <use xlink:href="#DejaVuSans-73" transform="translate(1715.296875 0)"/>
     <use xlink:href="#DejaVuSans-74" transform="translate(1767.396484 0)"/>
     <use xlink:href="#DejaVuSans-20" transform="translate(1806.605469 0)"/>
     <use xlink:href="#DejaVuSans-47" transform="translate(1838.392578 0)"/>
     <use xlink:href="#DejaVuSans-72" transform="translate(1915.882812 0)"/>
     <use xlink:href="#DejaVuSans-6f" transform="translate(1954.746094 0)"/>
     <use xlink:href="#DejaVuSans-75" transform="translate(2015.927734 0)"/>
     <use xlink:href="#DejaVuSans-70" transform="translate(2079.306641 0)"/>
     <use xlink:href="#DejaVuSans-73" transform="translate(2142.783203 0)"/>
    </g>
   </g>
   <g id="legend_1">
    <g id="patch_7">
     <path d="M 176.324687 123.86195 
L 305.465312 123.86195 
Q 307.465312 123.86195 307.465312 121.86195 
L 307.465312 34.7932 
Q 307.465312 32.7932 305.465312 32.7932 
L 176.324687 32.7932 
Q 174.324687 32.7932 174.324687 34.7932 
L 174.324687 121.86195 
Q 174.324687 123.86195 176.324687 123.86195 
z
" style="fill: #ffffff; opacity: 0.8; stroke: #cccccc; stroke-linejoin: miter"/>
    </g>
    <g id="patch_8">
     <path d="M 178.324687 44.391637 
L 198.324687 44.391637 
L 198.324687 37.391637 
L 178.324687 37.391637 
z
" style="fill: #0000ff; fill-opacity: 0.3; stroke: #0000ff; stroke-opacity: 0.3; stroke-linejoin: miter"/>
    </g>
    <g id="text_21">
     <!-- Control PDF -->
     <g transform="translate(206.324687 44.391637) scale(0.1 -0.1)">
      <defs>
       <path id="DejaVuSans-43" d="M 4122 4306 
L 4122 3641 
Q 3803 3938 3442 4084 
Q 3081 4231 2675 4231 
Q 1875 4231 1450 3742 
Q 1025 3253 1025 2328 
Q 1025 1406 1450 917 
Q 1875 428 2675 428 
Q 3081 428 3442 575 
Q 3803 722 4122 1019 
L 4122 359 
Q 3791 134 3420 21 
Q 3050 -91 2638 -91 
Q 1578 -91 968 557 
Q 359 1206 359 2328 
Q 359 3453 968 4101 
Q 1578 4750 2638 4750 
Q 3056 4750 3426 4639 
Q 3797 4528 4122 4306 
z
" transform="scale(0.015625)"/>
      </defs>
      <use xlink:href="#DejaVuSans-43"/>
      <use xlink:href="#DejaVuSans-6f" transform="translate(69.824219 0)"/>
      <use xlink:href="#DejaVuSans-6e" transform="translate(131.005859 0)"/>
      <use xlink:href="#DejaVuSans-74" transform="translate(194.384766 0)"/>
      <use xlink:href="#DejaVuSans-72" transform="translate(233.59375 0)"/>
      <use xlink:href="#DejaVuSans-6f" transform="translate(272.457031 0)"/>
      <use xlink:href="#DejaVuSans-6c" transform="translate(333.638672 0)"/>
      <use xlink:href="#DejaVuSans-20" transform="translate(361.421875 0)"/>
      <use xlink:href="#DejaVuSans-50" transform="translate(393.208984 0)"/>
      <use xlink:href="#DejaVuSans-44" transform="translate(453.511719 0)"/>
      <use xlink:href="#DejaVuSans-46" transform="translate(530.513672 0)"/>
     </g>
    </g>
    <g id="line2d_22">
     <path d="M 178.324687 55.569762 
L 188.324687 55.569762 
L 198.324687 55.569762 
" style="fill: none; stroke-dasharray: 1.5,2.475; stroke-dashoffset: 0; stroke: #0000ff; stroke-opacity: 0.5; stroke-width: 1.5"/>
    </g>
    <g id="text_22">
     <!-- Control Best-Case -->
     <g transform="translate(206.324687 59.069762) scale(0.1 -0.1)">
      <defs>
       <path id="DejaVuSans-42" d="M 1259 2228 
L 1259 519 
L 2272 519 
Q 2781 519 3026 730 
Q 3272 941 3272 1375 
Q 3272 1813 3026 2020 
Q 2781 2228 2272 2228 
L 1259 2228 
z
M 1259 4147 
L 1259 2741 
L 2194 2741 
Q 2656 2741 2882 2914 
Q 3109 3088 3109 3444 
Q 3109 3797 2882 3972 
Q 2656 4147 2194 4147 
L 1259 4147 
z
M 628 4666 
L 2241 4666 
Q 2963 4666 3353 4366 
Q 3744 4066 3744 3513 
Q 3744 3084 3544 2831 
Q 3344 2578 2956 2516 
Q 3422 2416 3680 2098 
Q 3938 1781 3938 1306 
Q 3938 681 3513 340 
Q 3088 0 2303 0 
L 628 0 
L 628 4666 
z
" transform="scale(0.015625)"/>
       <path id="DejaVuSans-2d" d="M 313 2009 
L 1997 2009 
L 1997 1497 
L 313 1497 
L 313 2009 
z
" transform="scale(0.015625)"/>
      </defs>
      <use xlink:href="#DejaVuSans-43"/>
      <use xlink:href="#DejaVuSans-6f" transform="translate(69.824219 0)"/>
      <use xlink:href="#DejaVuSans-6e" transform="translate(131.005859 0)"/>
      <use xlink:href="#DejaVuSans-74" transform="translate(194.384766 0)"/>
      <use xlink:href="#DejaVuSans-72" transform="translate(233.59375 0)"/>
      <use xlink:href="#DejaVuSans-6f" transform="translate(272.457031 0)"/>
      <use xlink:href="#DejaVuSans-6c" transform="translate(333.638672 0)"/>
      <use xlink:href="#DejaVuSans-20" transform="translate(361.421875 0)"/>
      <use xlink:href="#DejaVuSans-42" transform="translate(393.208984 0)"/>
      <use xlink:href="#DejaVuSans-65" transform="translate(461.8125 0)"/>
      <use xlink:href="#DejaVuSans-73" transform="translate(523.335938 0)"/>
      <use xlink:href="#DejaVuSans-74" transform="translate(575.435547 0)"/>
      <use xlink:href="#DejaVuSans-2d" transform="translate(614.644531 0)"/>
      <use xlink:href="#DejaVuSans-43" transform="translate(650.728516 0)"/>
      <use xlink:href="#DejaVuSans-61" transform="translate(720.552734 0)"/>
      <use xlink:href="#DejaVuSans-73" transform="translate(781.832031 0)"/>
      <use xlink:href="#DejaVuSans-65" transform="translate(833.931641 0)"/>
     </g>
    </g>
    <g id="line2d_23">
     <path d="M 178.324687 70.247887 
L 188.324687 70.247887 
L 198.324687 70.247887 
" style="fill: none; stroke-dasharray: 5.55,2.4; stroke-dashoffset: 0; stroke: #0000ff; stroke-opacity: 0.3; stroke-width: 1.5"/>
    </g>
    <g id="text_23">
     <!-- Control Worst-Case -->
     <g transform="translate(206.324687 73.747887) scale(0.1 -0.1)">
      <defs>
       <path id="DejaVuSans-57" d="M 213 4666 
L 850 4666 
L 1831 722 
L 2809 4666 
L 3519 4666 
L 4500 722 
L 5478 4666 
L 6119 4666 
L 4947 0 
L 4153 0 
L 3169 4050 
L 2175 0 
L 1381 0 
L 213 4666 
z
" transform="scale(0.015625)"/>
      </defs>
      <use xlink:href="#DejaVuSans-43"/>
      <use xlink:href="#DejaVuSans-6f" transform="translate(69.824219 0)"/>
      <use xlink:href="#DejaVuSans-6e" transform="translate(131.005859 0)"/>
      <use xlink:href="#DejaVuSans-74" transform="translate(194.384766 0)"/>
      <use xlink:href="#DejaVuSans-72" transform="translate(233.59375 0)"/>
      <use xlink:href="#DejaVuSans-6f" transform="translate(272.457031 0)"/>
      <use xlink:href="#DejaVuSans-6c" transform="translate(333.638672 0)"/>
      <use xlink:href="#DejaVuSans-20" transform="translate(361.421875 0)"/>
      <use xlink:href="#DejaVuSans-57" transform="translate(393.208984 0)"/>
      <use xlink:href="#DejaVuSans-6f" transform="translate(486.210938 0)"/>
      <use xlink:href="#DejaVuSans-72" transform="translate(547.392578 0)"/>
      <use xlink:href="#DejaVuSans-73" transform="translate(588.505859 0)"/>
      <use xlink:href="#DejaVuSans-74" transform="translate(640.605469 0)"/>
      <use xlink:href="#DejaVuSans-2d" transform="translate(679.814453 0)"/>
      <use xlink:href="#DejaVuSans-43" transform="translate(715.898438 0)"/>
      <use xlink:href="#DejaVuSans-61" transform="translate(785.722656 0)"/>
      <use xlink:href="#DejaVuSans-73" transform="translate(847.001953 0)"/>
      <use xlink:href="#DejaVuSans-65" transform="translate(899.101562 0)"/>
     </g>
    </g>
    <g id="patch_9">
     <path d="M 178.324687 88.426012 
L 198.324687 88.426012 
L 198.324687 81.426012 
L 178.324687 81.426012 
z
" style="fill: #ff0000; fill-opacity: 0.3; stroke: #ff0000; stroke-opacity: 0.3; stroke-linejoin: miter"/>
    </g>
    <g id="text_24">
     <!-- Treated PDF -->
     <g transform="translate(206.324687 88.426012) scale(0.1 -0.1)">
      <use xlink:href="#DejaVuSans-54"/>
      <use xlink:href="#DejaVuSans-72" transform="translate(46.333984 0)"/>
      <use xlink:href="#DejaVuSans-65" transform="translate(85.197266 0)"/>
      <use xlink:href="#DejaVuSans-61" transform="translate(146.720703 0)"/>
      <use xlink:href="#DejaVuSans-74" transform="translate(208 0)"/>
      <use xlink:href="#DejaVuSans-65" transform="translate(247.208984 0)"/>
      <use xlink:href="#DejaVuSans-64" transform="translate(308.732422 0)"/>
      <use xlink:href="#DejaVuSans-20" transform="translate(372.208984 0)"/>
      <use xlink:href="#DejaVuSans-50" transform="translate(403.996094 0)"/>
      <use xlink:href="#DejaVuSans-44" transform="translate(464.298828 0)"/>
      <use xlink:href="#DejaVuSans-46" transform="translate(541.300781 0)"/>
     </g>
    </g>
    <g id="line2d_24">
     <path d="M 178.324687 99.604137 
L 188.324687 99.604137 
L 198.324687 99.604137 
" style="fill: none; stroke-dasharray: 1.5,2.475; stroke-dashoffset: 0; stroke: #ff0000; stroke-opacity: 0.5; stroke-width: 1.5"/>
    </g>
    <g id="text_25">
     <!-- Treated Best-Case -->
     <g transform="translate(206.324687 103.104137) scale(0.1 -0.1)">
      <use xlink:href="#DejaVuSans-54"/>
      <use xlink:href="#DejaVuSans-72" transform="translate(46.333984 0)"/>
      <use xlink:href="#DejaVuSans-65" transform="translate(85.197266 0)"/>
      <use xlink:href="#DejaVuSans-61" transform="translate(146.720703 0)"/>
      <use xlink:href="#DejaVuSans-74" transform="translate(208 0)"/>
      <use xlink:href="#DejaVuSans-65" transform="translate(247.208984 0)"/>
      <use xlink:href="#DejaVuSans-64" transform="translate(308.732422 0)"/>
      <use xlink:href="#DejaVuSans-20" transform="translate(372.208984 0)"/>
      <use xlink:href="#DejaVuSans-42" transform="translate(403.996094 0)"/>
      <use xlink:href="#DejaVuSans-65" transform="translate(472.599609 0)"/>
      <use xlink:href="#DejaVuSans-73" transform="translate(534.123047 0)"/>
      <use xlink:href="#DejaVuSans-74" transform="translate(586.222656 0)"/>
      <use xlink:href="#DejaVuSans-2d" transform="translate(625.431641 0)"/>
      <use xlink:href="#DejaVuSans-43" transform="translate(661.515625 0)"/>
      <use xlink:href="#DejaVuSans-61" transform="translate(731.339844 0)"/>
      <use xlink:href="#DejaVuSans-73" transform="translate(792.619141 0)"/>
      <use xlink:href="#DejaVuSans-65" transform="translate(844.71875 0)"/>
     </g>
    </g>
    <g id="line2d_25">
     <path d="M 178.324687 114.282262 
L 188.324687 114.282262 
L 198.324687 114.282262 
" style="fill: none; stroke-dasharray: 5.55,2.4; stroke-dashoffset: 0; stroke: #ff0000; stroke-opacity: 0.3; stroke-width: 1.5"/>
    </g>
    <g id="text_26">
     <!-- Treated Worst-Case -->
     <g transform="translate(206.324687 117.782262) scale(0.1 -0.1)">
      <use xlink:href="#DejaVuSans-54"/>
      <use xlink:href="#DejaVuSans-72" transform="translate(46.333984 0)"/>
      <use xlink:href="#DejaVuSans-65" transform="translate(85.197266 0)"/>
      <use xlink:href="#DejaVuSans-61" transform="translate(146.720703 0)"/>
      <use xlink:href="#DejaVuSans-74" transform="translate(208 0)"/>
      <use xlink:href="#DejaVuSans-65" transform="translate(247.208984 0)"/>
      <use xlink:href="#DejaVuSans-64" transform="translate(308.732422 0)"/>
      <use xlink:href="#DejaVuSans-20" transform="translate(372.208984 0)"/>
      <use xlink:href="#DejaVuSans-57" transform="translate(403.996094 0)"/>
      <use xlink:href="#DejaVuSans-6f" transform="translate(496.998047 0)"/>
      <use xlink:href="#DejaVuSans-72" transform="translate(558.179688 0)"/>
      <use xlink:href="#DejaVuSans-73" transform="translate(599.292969 0)"/>
      <use xlink:href="#DejaVuSans-74" transform="translate(651.392578 0)"/>
      <use xlink:href="#DejaVuSans-2d" transform="translate(690.601562 0)"/>
      <use xlink:href="#DejaVuSans-43" transform="translate(726.685547 0)"/>
      <use xlink:href="#DejaVuSans-61" transform="translate(796.509766 0)"/>
      <use xlink:href="#DejaVuSans-73" transform="translate(857.789062 0)"/>
      <use xlink:href="#DejaVuSans-65" transform="translate(909.888672 0)"/>
     </g>
    </g>
   </g>
  </g>
 </g>
 <defs>
  <clipPath id="p0437be4489">
   <rect x="73.37" y="27.7932" width="335.05" height="241.0055"/>
  </clipPath>
 </defs>
</svg>
