<?xml version="1.0" standalone="no" ?>
<!-- Creator: FluidSIM 6.2.5.1 -->
<!-- Description: 1  Stamping Machine -->
<svg width="703" height="534" version="1.1" xmlns="http://www.w3.org/2000/svg" xmlns:xlink="http://www.w3.org/1999/xlink">
<polyline points="141 84 144 90 147 84" stroke="#000" fill="none" stroke-linecap="round" stroke-linejoin="round" />
<line x1="96" y1="84" x2="96" y2="96" stroke="#000" stroke-linecap="round" />
<line x1="147" y1="75" x2="147" y2="84" stroke="#000" stroke-linecap="round" />
<line x1="147" y1="60" x2="147" y2="69" stroke="#000" stroke-linecap="round" />
<line x1="93" y1="84" x2="147" y2="84" stroke="#000" stroke-linecap="round" />
<line x1="93" y1="60" x2="147" y2="60" stroke="#000" stroke-linecap="round" />
<line x1="93" y1="60" x2="93" y2="84" stroke="#000" stroke-linecap="round" />
<rect x="99" y="60" width="12" height="24" stroke="#000" fill="none" stroke-linecap="round" stroke-linejoin="round" />
<polyline points="108 64.5 102 64.5 102 79.5 108 79.5 108 76.5 105 76.5 105 67.5 108 67.5 108 64.5" stroke="#000" fill="#000" stroke-width="0" />
<polyline points="108 64.5 102 64.5 102 79.5 108 79.5 108 76.5 105 76.5 105 67.5 108 67.5 108 64.5" stroke="#000" fill="none" stroke-linecap="round" stroke-linejoin="round" />
<rect x="111" y="69" width="54" height="6" stroke="#000" fill="none" stroke-linecap="round" stroke-linejoin="round" />
<polyline points="111 84 117 60 123 84 129 60 135 84 141 60 147 84" stroke="#000" fill="none" stroke-linecap="round" stroke-linejoin="round" />
<polyline points="96 96 96 96" stroke="#000" fill="none" stroke-linecap="round" stroke-linejoin="round" />
<line x1="54" y1="132" x2="60" y2="120" stroke="#000" stroke-linecap="round" />
<rect x="48" y="120" width="18" height="12" stroke="#000" fill="none" stroke-linecap="round" stroke-linejoin="round" />
<line x1="84" y1="132" x2="84" y2="126" stroke="#000" stroke-linecap="round" />
<line x1="81.2" y1="126" x2="86.8" y2="126" stroke="#000" stroke-linecap="round" />
<line x1="72" y1="132" x2="72" y2="108" stroke="#000" stroke-linecap="round" />
<polyline points="70.9 113.6 71.8 108 72.2 108 73.1 113.6 70.9 113.6" stroke="#000" fill="#000" stroke-width="0" />
<polyline points="70.9 113.6 72 108 73.1 113.6 70.9 113.6" stroke="#000" fill="none" stroke-linecap="round" stroke-linejoin="round" />
<rect x="66" y="108" width="24" height="24" stroke="#000" fill="none" stroke-linecap="round" stroke-linejoin="round" />
<line x1="108" y1="132" x2="108" y2="144" stroke="#000" stroke-linecap="round" />
<line x1="96" y1="132" x2="96" y2="144" stroke="#000" stroke-linecap="round" />
<line x1="96" y1="108" x2="96" y2="96" stroke="#000" stroke-linecap="round" />
<line x1="96" y1="108" x2="108" y2="132" stroke="#000" stroke-linecap="round" />
<polyline points="106.5 126.5 108.2 131.9 107.8 132.1 104.5 127.5 106.5 126.5" stroke="#000" fill="#000" stroke-width="0" />
<polyline points="106.48 126.5 108 132 104.51 127.48 106.48 126.5" stroke="#000" fill="none" stroke-linecap="round" stroke-linejoin="round" />
<line x1="96" y1="132" x2="96" y2="126" stroke="#000" stroke-linecap="round" />
<line x1="93.2" y1="126" x2="98.8" y2="126" stroke="#000" stroke-linecap="round" />
<rect x="90" y="108" width="24" height="24" stroke="#000" fill="none" stroke-linecap="round" stroke-linejoin="round" />
<polyline points="129 126 127.75 132 125.25 120 122.75 132 120.25 120 117.75 132 115.25 120 114 126" stroke="#000" fill="none" stroke-linecap="round" stroke-linejoin="round" />
<polyline points="96 144 96 144" stroke="#000" fill="none" stroke-linecap="round" stroke-linejoin="round" />
<line x1="103" y1="144" x2="113" y2="144" stroke="#000" stroke-linecap="round" />
<line x1="113" y1="144" x2="108" y2="152" stroke="#000" stroke-linecap="round" />
<line x1="108" y1="152" x2="103" y2="144" stroke="#000" stroke-linecap="round" />
<line x1="96" y1="157.6" x2="96" y2="144" stroke="#000" stroke-linecap="round" />
<polyline points="90 168 96 157.61 102 168 90 168" stroke="#000" fill="none" stroke-linecap="round" stroke-linejoin="round" />
<line x1="114" y1="366.7" x2="96" y2="366.7" stroke="#000" stroke-linecap="round" />
<line x1="114" y1="342.7" x2="96" y2="342.7" stroke="#000" stroke-linecap="round" />
<line x1="300" y1="396.7" x2="300" y2="414.7" stroke="#000" stroke-linecap="round" />
<line x1="336" y1="396.8" x2="336" y2="414.8" stroke="#000" stroke-linecap="round" />
<line x1="372" y1="396.7" x2="372" y2="414.7" stroke="#000" stroke-linecap="round" />
<line x1="408" y1="396.8" x2="408" y2="414.8" stroke="#000" stroke-linecap="round" />
<line x1="408" y1="294.7" x2="408" y2="312.7" stroke="#000" stroke-linecap="round" />
<line x1="372" y1="294.7" x2="372" y2="312.7" stroke="#000" stroke-linecap="round" />
<line x1="300" y1="294.7" x2="300" y2="312.7" stroke="#000" stroke-linecap="round" />
<line x1="336" y1="294.7" x2="336" y2="312.7" stroke="#000" stroke-linecap="round" />
<line x1="214.5" y1="385.4" x2="217.5" y2="385.4" stroke="#000" stroke-linecap="round" />
<line x1="214.5" y1="385.4" x2="216" y2="383.2" stroke="#000" stroke-linecap="round" />
<line x1="213" y1="390.7" x2="201" y2="390.7" stroke="#000" stroke-linecap="round" />
<line x1="213" y1="396.7" x2="213" y2="384.7" stroke="#000" stroke-linecap="round" />
<line x1="222" y1="381.7" x2="213" y2="386.2" stroke="#000" stroke-linecap="round" />
<line x1="213" y1="395.2" x2="222" y2="399.7" stroke="#000" stroke-linecap="round" />
<line x1="228" y1="402.7" x2="228" y2="414.7" stroke="#000" stroke-linecap="round" />
<line x1="408" y1="384.7" x2="417" y2="384.7" stroke="#000" stroke-linecap="round" />
<line x1="408" y1="312.7" x2="417" y2="312.7" stroke="#000" stroke-linecap="round" />
<text x="250.5" y="393.7" font-size="8.4" font-family="Arial" fill="#000">K2</text>
<text x="250.5" y="321.7" font-size="8.4" font-family="Arial" fill="#000">K1</text>
<text x="138.2" y="357.7" font-size="8.4" font-family="Arial" fill="#000">PNOZ</text>
<text x="213" y="321.7" font-size="8.4" font-family="Arial" text-anchor="middle" fill="#000">Input</text>
<text x="147" y="321.7" font-size="8.4" font-family="Arial" text-anchor="middle" fill="#000">Input</text>
<text x="147" y="393.7" font-size="8.4" font-family="Arial" text-anchor="middle" fill="#000">Reset/Start</text>
<line x1="408" y1="324.7" x2="408" y2="384.7" stroke="#000" stroke-linecap="round" />
<line x1="372" y1="324.7" x2="372" y2="384.7" stroke="#000" stroke-linecap="round" />
<line x1="336" y1="324.7" x2="336" y2="384.7" stroke="#000" stroke-linecap="round" />
<line x1="300" y1="324.7" x2="300" y2="384.7" stroke="#000" stroke-linecap="round" />
<line x1="228" y1="306.7" x2="228" y2="294.7" stroke="#000" stroke-linecap="round" />
<line x1="198" y1="306.7" x2="198" y2="294.7" stroke="#000" stroke-linecap="round" />
<line x1="162" y1="306.7" x2="162" y2="294.7" stroke="#000" stroke-linecap="round" />
<line x1="132" y1="402.7" x2="132" y2="414.7" stroke="#000" stroke-linecap="round" />
<line x1="132" y1="306.7" x2="132" y2="294.7" stroke="#000" stroke-linecap="round" />
<line x1="180" y1="402.7" x2="180" y2="378.7" stroke="#000" stroke-linecap="round" />
<line x1="180" y1="306.7" x2="180" y2="330.7" stroke="#000" stroke-linecap="round" />
<rect x="114" y="378.7" width="132" height="24" stroke="#000" fill="none" stroke-linecap="round" stroke-linejoin="round" />
<rect x="114" y="306.7" width="132" height="24" stroke="#000" fill="none" stroke-linecap="round" stroke-linejoin="round" />
<rect x="114" y="306.7" width="150" height="96" stroke="#000" fill="none" stroke-linecap="round" stroke-linejoin="round" />
<line x1="296.4" y1="321.1" x2="411.6" y2="321.1" stroke="#000" stroke-linecap="round" />
<line x1="296.4" y1="316.3" x2="411.6" y2="316.3" stroke="#000" stroke-linecap="round" />
<circle cx="296.4" cy="318.7" r="2.4" stroke="#000" fill="#000" stroke-width="0" />
<circle cx="296.4" cy="318.7" r="2.4" stroke="#000" fill="none" stroke-linecap="round" />
<circle cx="332.4" cy="318.7" r="2.4" stroke="#000" fill="#000" stroke-width="0" />
<circle cx="332.4" cy="318.7" r="2.4" stroke="#000" fill="none" stroke-linecap="round" />
<circle cx="368.4" cy="318.7" r="2.4" stroke="#000" fill="#000" stroke-width="0" />
<circle cx="368.4" cy="318.7" r="2.4" stroke="#000" fill="none" stroke-linecap="round" />
<circle cx="411.6" cy="318.7" r="2.4" stroke="#000" fill="#000" stroke-width="0" />
<circle cx="411.6" cy="318.7" r="2.4" stroke="#000" fill="none" stroke-linecap="round" />
<line x1="408" y1="324.7" x2="417" y2="309.7" stroke="#000" stroke-linecap="round" />
<line x1="300" y1="324.7" x2="291" y2="309.7" stroke="#000" stroke-linecap="round" />
<line x1="264" y1="318.7" x2="294" y2="318.7" stroke="#000" stroke-linecap="round" stroke-dasharray="3,3" />
<line x1="372" y1="324.7" x2="363" y2="309.7" stroke="#000" stroke-linecap="round" />
<line x1="336" y1="324.7" x2="327" y2="309.7" stroke="#000" stroke-linecap="round" />
<line x1="408" y1="396.7" x2="417" y2="381.7" stroke="#000" stroke-linecap="round" />
<circle cx="296.4" cy="390.7" r="2.4" stroke="#000" fill="#000" stroke-width="0" />
<circle cx="296.4" cy="390.7" r="2.4" stroke="#000" fill="none" stroke-linecap="round" />
<line x1="296.4" y1="393.1" x2="411.6" y2="393.1" stroke="#000" stroke-linecap="round" />
<line x1="296.4" y1="388.3" x2="411.6" y2="388.3" stroke="#000" stroke-linecap="round" />
<circle cx="332.4" cy="390.7" r="2.4" stroke="#000" fill="#000" stroke-width="0" />
<circle cx="332.4" cy="390.7" r="2.4" stroke="#000" fill="none" stroke-linecap="round" />
<circle cx="368.4" cy="390.7" r="2.4" stroke="#000" fill="#000" stroke-width="0" />
<circle cx="368.4" cy="390.7" r="2.4" stroke="#000" fill="none" stroke-linecap="round" />
<circle cx="411.6" cy="390.7" r="2.4" stroke="#000" fill="#000" stroke-width="0" />
<circle cx="411.6" cy="390.7" r="2.4" stroke="#000" fill="none" stroke-linecap="round" />
<line x1="264" y1="390.7" x2="294" y2="390.7" stroke="#000" stroke-linecap="round" stroke-dasharray="3,3" />
<line x1="372" y1="396.7" x2="363" y2="381.7" stroke="#000" stroke-linecap="round" />
<line x1="336" y1="396.7" x2="327" y2="381.7" stroke="#000" stroke-linecap="round" />
<line x1="300" y1="396.7" x2="291" y2="381.7" stroke="#000" stroke-linecap="round" />
<polyline points="96 342.7 96 234.7" stroke="#000" fill="none" stroke-linecap="round" stroke-linejoin="round" />
<polyline points="300 414.7 300 438.7 240 438.7 240 462.7" stroke="#000" fill="none" stroke-linecap="round" stroke-linejoin="round" />
<circle cx="72" cy="198.7" r="3" stroke="#000" fill="none" stroke-linecap="round" />
<line x1="75" y1="198.7" x2="84" y2="198.7" stroke="#000" stroke-linecap="round" />
<text x="32.5" y="202" font-size="14.1" font-family="Arial" fill="#000"> 24 V</text>
<circle cx="72" cy="510.7" r="3" stroke="#000" fill="none" stroke-linecap="round" />
<line x1="75" y1="510.7" x2="84" y2="510.7" stroke="#000" stroke-linecap="round" />
<text x="39.1" y="514.3" font-size="14.1" font-family="Arial" fill="#000"> 0 V</text>
<line x1="240" y1="498.7" x2="240" y2="486.7" stroke="#000" stroke-linecap="round" />
<line x1="240" y1="462.7" x2="240" y2="474.7" stroke="#000" stroke-linecap="round" />
<line x1="252" y1="480.7" x2="264" y2="480.7" stroke="#000" stroke-linecap="round" stroke-dasharray="12,3" />
<line x1="261" y1="480.7" x2="264" y2="480.7" stroke="#000" stroke-linecap="round" stroke-dasharray="12,3" />
<line x1="264" y1="486.7" x2="264" y2="492.7" stroke="#000" stroke-linecap="round" />
<line x1="264" y1="474.7" x2="264" y2="468.7" stroke="#000" stroke-linecap="round" />
<polyline points="261 474.68 267 474.68 261 486.68 267 486.68 261 474.68" stroke="#000" fill="none" stroke-linecap="round" stroke-linejoin="round" />
<line x1="234" y1="486.7" x2="246" y2="474.7" stroke="#000" stroke-linecap="round" />
<rect x="228" y="474.7" width="24" height="12" stroke="#000" fill="none" stroke-linecap="round" stroke-linejoin="round" />
<line x1="306" y1="498.7" x2="306" y2="486.7" stroke="#000" stroke-linecap="round" />
<line x1="306" y1="462.7" x2="306" y2="474.7" stroke="#000" stroke-linecap="round" />
<line x1="318" y1="480.7" x2="330" y2="480.7" stroke="#000" stroke-linecap="round" stroke-dasharray="12,3" />
<line x1="327" y1="480.7" x2="330" y2="480.7" stroke="#000" stroke-linecap="round" stroke-dasharray="12,3" />
<line x1="330" y1="486.7" x2="330" y2="492.7" stroke="#000" stroke-linecap="round" />
<line x1="330" y1="474.7" x2="330" y2="468.7" stroke="#000" stroke-linecap="round" />
<polyline points="327 474.67 333 474.67 327 486.67 333 486.67 327 474.67" stroke="#000" fill="none" stroke-linecap="round" stroke-linejoin="round" />
<line x1="300" y1="486.7" x2="312" y2="474.7" stroke="#000" stroke-linecap="round" />
<rect x="294" y="474.7" width="24" height="12" stroke="#000" fill="none" stroke-linecap="round" stroke-linejoin="round" />
<polyline points="306 462.7 306 450.7 336 450.7 336 414.7" stroke="#000" fill="none" stroke-linecap="round" stroke-linejoin="round" />
<polyline points="306 498.7 306 510.7" stroke="#000" fill="none" stroke-linecap="round" stroke-linejoin="round" />
<line x1="372" y1="498.7" x2="372" y2="486.7" stroke="#000" stroke-linecap="round" />
<line x1="372" y1="462.7" x2="372" y2="474.7" stroke="#000" stroke-linecap="round" />
<line x1="384" y1="480.7" x2="396" y2="480.7" stroke="#000" stroke-linecap="round" stroke-dasharray="12,3" />
<line x1="393" y1="480.7" x2="396" y2="480.7" stroke="#000" stroke-linecap="round" stroke-dasharray="12,3" />
<line x1="396" y1="486.7" x2="396" y2="492.7" stroke="#000" stroke-linecap="round" />
<line x1="396" y1="474.7" x2="396" y2="468.7" stroke="#000" stroke-linecap="round" />
<polyline points="393 474.67 399 474.67 393 486.67 399 486.67 393 474.67" stroke="#000" fill="none" stroke-linecap="round" stroke-linejoin="round" />
<line x1="366" y1="486.7" x2="378" y2="474.7" stroke="#000" stroke-linecap="round" />
<rect x="360" y="474.7" width="24" height="12" stroke="#000" fill="none" stroke-linecap="round" stroke-linejoin="round" />
<polyline points="372 462.7 372 414.7" stroke="#000" fill="none" stroke-linecap="round" stroke-linejoin="round" />
<polyline points="372 498.7 372 510.7" stroke="#000" fill="none" stroke-linecap="round" stroke-linejoin="round" />
<text x="219.8" y="485.7" font-size="13.7" font-family="Segoe UI" text-anchor="end" fill="#000">Y1</text>
<line x1="624" y1="349.1" x2="624" y2="361.1" stroke="#000" stroke-linecap="round" />
<line x1="624" y1="325.1" x2="624" y2="337.1" stroke="#000" stroke-linecap="round" />
<line x1="624" y1="349.1" x2="615.6" y2="334.7" stroke="#000" stroke-linecap="round" />
<line x1="619.6" y1="341.6" x2="617.3" y2="342.9" stroke="#000" stroke-linecap="round" />
<line x1="617.3" y1="342.9" x2="622.5" y2="346.5" stroke="#000" stroke-linecap="round" />
<polyline points="624 325.1 624 198.7" stroke="#000" fill="none" stroke-linecap="round" stroke-linejoin="round" />
<polyline points="624 361.1 624 379.3" stroke="#000" fill="none" stroke-linecap="round" stroke-linejoin="round" />
<text x="86.8" y="55.5" font-size="13.7" font-family="Segoe UI" text-anchor="end" fill="#000">1A</text>
<text x="69.9" y="66.3" font-size="13.7" font-family="Segoe UI" text-anchor="middle" fill="#000">Clamp</text>
<rect x="105" y="29.5" width="30" height="30" stroke="#FFF" fill="none" stroke-linecap="round" stroke-linejoin="round" />
<text x="132" y="47.9" font-size="11.3" font-family="Segoe UI" text-anchor="middle" fill="#000">S1</text>
<rect x="129" y="50.5" width="6" height="7" stroke="#000" fill="#000" stroke-width="0" />
<rect x="129" y="50.5" width="6" height="7" stroke="#000" fill="none" stroke-linecap="round" stroke-linejoin="round" />
<text x="610.8" y="345.7" font-size="13.7" font-family="Segoe UI" text-anchor="end" fill="#000">S1</text>
<polyline points="276 84 279 90 282 84" stroke="#000" fill="none" stroke-linecap="round" stroke-linejoin="round" />
<line x1="231" y1="84" x2="231" y2="96" stroke="#000" stroke-linecap="round" />
<line x1="282" y1="75" x2="282" y2="84" stroke="#000" stroke-linecap="round" />
<line x1="282" y1="60" x2="282" y2="69" stroke="#000" stroke-linecap="round" />
<line x1="228" y1="84" x2="282" y2="84" stroke="#000" stroke-linecap="round" />
<line x1="228" y1="60" x2="282" y2="60" stroke="#000" stroke-linecap="round" />
<line x1="228" y1="60" x2="228" y2="84" stroke="#000" stroke-linecap="round" />
<rect x="234" y="60" width="12" height="24" stroke="#000" fill="none" stroke-linecap="round" stroke-linejoin="round" />
<polyline points="243 64.5 237 64.5 237 79.5 243 79.5 243 76.5 240 76.5 240 67.5 243 67.5 243 64.5" stroke="#000" fill="#000" stroke-width="0" />
<polyline points="243 64.5 237 64.5 237 79.5 243 79.5 243 76.5 240 76.5 240 67.5 243 67.5 243 64.5" stroke="#000" fill="none" stroke-linecap="round" stroke-linejoin="round" />
<rect x="246" y="69" width="54" height="6" stroke="#000" fill="none" stroke-linecap="round" stroke-linejoin="round" />
<polyline points="246 84 252 60 258 84 264 60 270 84 276 60 282 84" stroke="#000" fill="none" stroke-linecap="round" stroke-linejoin="round" />
<line x1="231" y1="169.6" x2="231" y2="156" stroke="#000" stroke-linecap="round" />
<polyline points="225.01 180 231.01 169.61 237.01 180 225.01 180" stroke="#000" fill="none" stroke-linecap="round" stroke-linejoin="round" />
<text x="221.8" y="55.5" font-size="13.7" font-family="Segoe UI" text-anchor="end" fill="#000">2A</text>
<text x="204.9" y="66.3" font-size="13.7" font-family="Segoe UI" text-anchor="middle" fill="#000">Stamp</text>
<rect x="240" y="29.5" width="30" height="30" stroke="#FFF" fill="none" stroke-linecap="round" stroke-linejoin="round" />
<text x="267" y="47.9" font-size="11.3" font-family="Segoe UI" text-anchor="middle" fill="#000">S2</text>
<rect x="264" y="50.5" width="6" height="7" stroke="#000" fill="#000" stroke-width="0" />
<rect x="264" y="50.5" width="6" height="7" stroke="#000" fill="none" stroke-linecap="round" stroke-linejoin="round" />
<line x1="189" y1="144" x2="195" y2="132" stroke="#000" stroke-linecap="round" />
<rect x="183" y="132" width="18" height="12" stroke="#000" fill="none" stroke-linecap="round" stroke-linejoin="round" />
<line x1="219" y1="144" x2="219" y2="138" stroke="#000" stroke-linecap="round" />
<line x1="216.2" y1="138" x2="221.8" y2="138" stroke="#000" stroke-linecap="round" />
<line x1="207" y1="144" x2="207" y2="120" stroke="#000" stroke-linecap="round" />
<polyline points="205.9 125.6 206.8 120 207.2 120 208.1 125.6 205.9 125.6" stroke="#000" fill="#000" stroke-width="0" />
<polyline points="205.91 125.6 207.01 120 208.11 125.6 205.91 125.6" stroke="#000" fill="none" stroke-linecap="round" stroke-linejoin="round" />
<rect x="201" y="120" width="24" height="24" stroke="#000" fill="none" stroke-linecap="round" stroke-linejoin="round" />
<line x1="243" y1="144" x2="243" y2="156" stroke="#000" stroke-linecap="round" />
<line x1="231" y1="144" x2="231" y2="156" stroke="#000" stroke-linecap="round" />
<line x1="231" y1="120" x2="231" y2="108" stroke="#000" stroke-linecap="round" />
<line x1="231" y1="120" x2="243" y2="144" stroke="#000" stroke-linecap="round" />
<polyline points="241.5 138.5 243.2 143.9 242.8 144.1 239.5 139.5 241.5 138.5" stroke="#000" fill="#000" stroke-width="0" />
<polyline points="241.49 138.5 243.01 144 239.52 139.48 241.49 138.5" stroke="#000" fill="none" stroke-linecap="round" stroke-linejoin="round" />
<line x1="231" y1="144" x2="231" y2="138" stroke="#000" stroke-linecap="round" />
<line x1="228.2" y1="138" x2="233.8" y2="138" stroke="#000" stroke-linecap="round" />
<rect x="225" y="120" width="24" height="24" stroke="#000" fill="none" stroke-linecap="round" stroke-linejoin="round" />
<polyline points="264.01 138 262.76 144 260.26 132 257.76 144 255.26 132 252.76 144 250.26 132 249.01 138" stroke="#000" fill="none" stroke-linecap="round" stroke-linejoin="round" />
<polyline points="231 108 231 102" stroke="#000" fill="none" stroke-linecap="round" stroke-linejoin="round" />
<polyline points="231 156 231 156" stroke="#000" fill="none" stroke-linecap="round" stroke-linejoin="round" />
<line x1="238" y1="156" x2="248" y2="156" stroke="#000" stroke-linecap="round" />
<line x1="248" y1="156" x2="243" y2="164" stroke="#000" stroke-linecap="round" />
<line x1="243" y1="164" x2="238" y2="156" stroke="#000" stroke-linecap="round" />
<polyline points="444 84 447 90 450 84" stroke="#000" fill="none" stroke-linecap="round" stroke-linejoin="round" />
<line x1="399" y1="84" x2="399" y2="96" stroke="#000" stroke-linecap="round" />
<line x1="450" y1="75" x2="450" y2="84" stroke="#000" stroke-linecap="round" />
<line x1="450" y1="60" x2="450" y2="69" stroke="#000" stroke-linecap="round" />
<line x1="396" y1="84" x2="450" y2="84" stroke="#000" stroke-linecap="round" />
<line x1="396" y1="60" x2="450" y2="60" stroke="#000" stroke-linecap="round" />
<line x1="396" y1="60" x2="396" y2="84" stroke="#000" stroke-linecap="round" />
<rect x="402" y="60" width="12" height="24" stroke="#000" fill="none" stroke-linecap="round" stroke-linejoin="round" />
<polyline points="411 64.5 405 64.5 405 79.5 411 79.5 411 76.5 408 76.5 408 67.5 411 67.5 411 64.5" stroke="#000" fill="#000" stroke-width="0" />
<polyline points="411 64.5 405 64.5 405 79.5 411 79.5 411 76.5 408 76.5 408 67.5 411 67.5 411 64.5" stroke="#000" fill="none" stroke-linecap="round" stroke-linejoin="round" />
<rect x="414" y="69" width="54" height="6" stroke="#000" fill="none" stroke-linecap="round" stroke-linejoin="round" />
<polyline points="414 84 420 60 426 84 432 60 438 84 444 60 450 84" stroke="#000" fill="none" stroke-linecap="round" stroke-linejoin="round" />
<polyline points="399 96 399 96" stroke="#000" fill="none" stroke-linecap="round" stroke-linejoin="round" />
<line x1="399" y1="157.6" x2="399" y2="144" stroke="#000" stroke-linecap="round" />
<polyline points="393 168 399 157.61 405 168 393 168" stroke="#000" fill="none" stroke-linecap="round" stroke-linejoin="round" />
<text x="389.8" y="55.5" font-size="13.7" font-family="Segoe UI" text-anchor="end" fill="#000">3A</text>
<text x="372.9" y="66.3" font-size="13.7" font-family="Segoe UI" text-anchor="middle" fill="#000">Eject</text>
<rect x="408" y="29.5" width="30" height="30" stroke="#FFF" fill="none" stroke-linecap="round" stroke-linejoin="round" />
<text x="435" y="47.9" font-size="11.3" font-family="Segoe UI" text-anchor="middle" fill="#000">S3</text>
<rect x="432" y="50.5" width="6" height="7" stroke="#000" fill="#000" stroke-width="0" />
<rect x="432" y="50.5" width="6" height="7" stroke="#000" fill="none" stroke-linecap="round" stroke-linejoin="round" />
<line x1="357" y1="132" x2="363" y2="120" stroke="#000" stroke-linecap="round" />
<rect x="351" y="120" width="18" height="12" stroke="#000" fill="none" stroke-linecap="round" stroke-linejoin="round" />
<line x1="387" y1="132" x2="387" y2="126" stroke="#000" stroke-linecap="round" />
<line x1="384.2" y1="126" x2="389.8" y2="126" stroke="#000" stroke-linecap="round" />
<line x1="375" y1="132" x2="375" y2="108" stroke="#000" stroke-linecap="round" />
<polyline points="373.9 113.6 374.8 108 375.2 108 376.1 113.6 373.9 113.6" stroke="#000" fill="#000" stroke-width="0" />
<polyline points="373.9 113.6 375 108 376.1 113.6 373.9 113.6" stroke="#000" fill="none" stroke-linecap="round" stroke-linejoin="round" />
<rect x="369" y="108" width="24" height="24" stroke="#000" fill="none" stroke-linecap="round" stroke-linejoin="round" />
<line x1="411" y1="132" x2="411" y2="144" stroke="#000" stroke-linecap="round" />
<line x1="399" y1="132" x2="399" y2="144" stroke="#000" stroke-linecap="round" />
<line x1="399" y1="108" x2="399" y2="96" stroke="#000" stroke-linecap="round" />
<line x1="399" y1="108" x2="411" y2="132" stroke="#000" stroke-linecap="round" />
<polyline points="409.5 126.5 411.2 131.9 410.8 132.1 407.5 127.5 409.5 126.5" stroke="#000" fill="#000" stroke-width="0" />
<polyline points="409.48 126.5 411 132 407.51 127.48 409.48 126.5" stroke="#000" fill="none" stroke-linecap="round" stroke-linejoin="round" />
<line x1="399" y1="132" x2="399" y2="126" stroke="#000" stroke-linecap="round" />
<line x1="396.2" y1="126" x2="401.8" y2="126" stroke="#000" stroke-linecap="round" />
<rect x="393" y="108" width="24" height="24" stroke="#000" fill="none" stroke-linecap="round" stroke-linejoin="round" />
<polyline points="432 126 430.75 132 428.25 120 425.75 132 423.25 120 420.75 132 418.25 120 417 126" stroke="#000" fill="none" stroke-linecap="round" stroke-linejoin="round" />
<polyline points="399 144 399 144" stroke="#000" fill="none" stroke-linecap="round" stroke-linejoin="round" />
<line x1="406" y1="144" x2="416" y2="144" stroke="#000" stroke-linecap="round" />
<line x1="416" y1="144" x2="411" y2="152" stroke="#000" stroke-linecap="round" />
<line x1="411" y1="152" x2="406" y2="144" stroke="#000" stroke-linecap="round" />
<line x1="624" y1="456.6" x2="624" y2="468.6" stroke="#000" stroke-linecap="round" />
<line x1="624" y1="444.6" x2="624" y2="432.6" stroke="#000" stroke-linecap="round" />
<rect x="612" y="444.6" width="24" height="12" stroke="#000" fill="none" stroke-linecap="round" stroke-linejoin="round" />
<line x1="466.5" y1="354.5" x2="472.5" y2="350" stroke="#000" stroke-linecap="round" />
<line x1="471.7" y1="354.5" x2="477" y2="354.5" stroke="#000" stroke-linecap="round" />
<line x1="461.2" y1="354.5" x2="466.5" y2="354.5" stroke="#000" stroke-linecap="round" />
<text x="425.2" y="350" font-size="8.4" font-family="Arial" fill="#000">p</text>
<line x1="444" y1="347" x2="432" y2="347" stroke="#000" stroke-linecap="round" />
<polyline points="444 343.95 450 346.95 444 349.95 444 343.95" stroke="#000" fill="none" stroke-linecap="round" stroke-linejoin="round" />
<line x1="444" y1="360.5" x2="468" y2="336.5" stroke="#000" stroke-linecap="round" />
<line x1="462" y1="372.5" x2="462" y2="384.5" stroke="#000" stroke-linecap="round" />
<line x1="480" y1="354.5" x2="492" y2="354.5" stroke="#000" stroke-linecap="round" />
<line x1="462" y1="336.5" x2="462" y2="324.5" stroke="#000" stroke-linecap="round" />
<rect x="444" y="336.5" width="36" height="36" stroke="#000" fill="none" stroke-linecap="round" stroke-linejoin="round" />
<polyline points="462 324.5 462 258.8" stroke="#000" fill="none" stroke-linecap="round" stroke-linejoin="round" />
<polyline points="462 384.5 462 510.7" stroke="#000" fill="none" stroke-linecap="round" stroke-linejoin="round" />
<polyline points="492 354.5 496.5 354.5 496.5 354.8 501 354.8" stroke="#000" fill="none" stroke-linecap="round" stroke-linejoin="round" />
<text x="434.8" y="367.6" font-size="13.7" font-family="Segoe UI" text-anchor="end" fill="#000">P1</text>
<line x1="306.5" y1="120" x2="308.6" y2="120" stroke="#000" stroke-linecap="round" />
<line x1="302.1" y1="120" x2="307.5" y2="117.9" stroke="#000" stroke-linecap="round" />
<line x1="300" y1="120" x2="302.1" y2="120" stroke="#000" stroke-linecap="round" />
<text x="291.2" y="135" font-size="8.4" font-family="Arial" fill="#000">P</text>
<line x1="276" y1="126" x2="288" y2="126" stroke="#000" stroke-linecap="round" />
<line x1="312" y1="138" x2="288" y2="114" stroke="#000" stroke-linecap="round" />
<rect x="288" y="114" width="24" height="24" stroke="#000" fill="none" stroke-linecap="round" stroke-linejoin="round" />
<line x1="277.5" y1="112.5" x2="298.5" y2="103.5" stroke="#000" stroke-linecap="round" />
<polyline points="291.7 104.4 298.4 103.3 298.6 103.7 293.1 107.8 291.7 104.4" stroke="#000" fill="#000" stroke-width="0" />
<polyline points="291.73 104.45 298.5 103.5 293.14 107.75 291.73 104.45" stroke="#000" fill="none" stroke-linecap="round" stroke-linejoin="round" />
<line x1="288" y1="114" x2="288" y2="102" stroke="#000" stroke-linecap="round" />
<polyline points="276 126 272 126 272 114 272 114 272 102 231 102" stroke="#000" fill="none" stroke-linecap="round" stroke-linejoin="round" />
<text x="304.6" y="158.5" font-size="13.7" font-family="Segoe UI" text-anchor="end" fill="#000">P1</text>
<circle cx="96" cy="198.7" r="3" stroke="#000" fill="#000" stroke-width="0" />
<polyline points="96 198.7 84 198.7" stroke="#000" fill="none" stroke-linecap="round" stroke-linejoin="round" />
<line x1="276" y1="247" x2="276" y2="259" stroke="#000" stroke-linecap="round" />
<line x1="276" y1="223" x2="276" y2="235" stroke="#000" stroke-linecap="round" />
<line x1="276" y1="247" x2="267.6" y2="232.6" stroke="#000" stroke-linecap="round" />
<polyline points="276 223 276 198.7" stroke="#000" fill="none" stroke-linecap="round" stroke-linejoin="round" />
<polyline points="276 259 276 276.8 300 276.8 300 294.7" stroke="#000" fill="none" stroke-linecap="round" stroke-linejoin="round" />
<line x1="396" y1="247" x2="396" y2="259" stroke="#000" stroke-linecap="round" />
<line x1="396" y1="223" x2="396" y2="235" stroke="#000" stroke-linecap="round" />
<line x1="396" y1="247" x2="387.6" y2="232.6" stroke="#000" stroke-linecap="round" />
<polyline points="396 223 396 198.7" stroke="#000" fill="none" stroke-linecap="round" stroke-linejoin="round" />
<polyline points="396 259 396 276.8 372 276.8 372 294.7" stroke="#000" fill="none" stroke-linecap="round" stroke-linejoin="round" />
<text x="603.8" y="455.6" font-size="13.7" font-family="Segoe UI" text-anchor="end" fill="#000">K2</text>
<text x="285.8" y="485.7" font-size="13.7" font-family="Segoe UI" text-anchor="end" fill="#000">Y2</text>
<text x="351.8" y="485.7" font-size="13.7" font-family="Segoe UI" text-anchor="end" fill="#000">Y3</text>
<circle cx="276" cy="198.7" r="3" stroke="#000" fill="#000" stroke-width="0" />
<polyline points="276 198.7 96 198.7" stroke="#000" fill="none" stroke-linecap="round" stroke-linejoin="round" />
<text x="259.4" y="246" font-size="13.7" font-family="Segoe UI" text-anchor="end" fill="#000">K1</text>
<text x="379.4" y="246" font-size="13.7" font-family="Segoe UI" text-anchor="end" fill="#000">K3</text>
<circle cx="336" cy="198.7" r="3" stroke="#000" fill="#000" stroke-width="0" />
<polyline points="336 198.7 336 222.8" stroke="#000" fill="none" stroke-linecap="round" stroke-linejoin="round" />
<polyline points="336 198.7 276 198.7" stroke="#000" fill="none" stroke-linecap="round" stroke-linejoin="round" />
<circle cx="396" cy="198.7" r="3" stroke="#000" fill="#000" stroke-width="0" />
<polyline points="396 198.7 336 198.7" stroke="#000" fill="none" stroke-linecap="round" stroke-linejoin="round" />
<polyline points="396 198.7 462 198.7" stroke="#000" fill="none" stroke-linecap="round" stroke-linejoin="round" />
<line x1="501" y1="294.8" x2="501" y2="306.8" stroke="#000" stroke-linecap="round" />
<line x1="501" y1="270.8" x2="501" y2="282.8" stroke="#000" stroke-linecap="round" />
<line x1="501" y1="294.8" x2="492.6" y2="280.4" stroke="#000" stroke-linecap="round" />
<polyline points="501 306.8 501 354.8" stroke="#000" fill="none" stroke-linecap="round" stroke-linejoin="round" />
<line x1="501" y1="444.6" x2="501" y2="456.6" stroke="#000" stroke-linecap="round" />
<line x1="501" y1="432.6" x2="501" y2="420.6" stroke="#000" stroke-linecap="round" />
<rect x="489" y="432.6" width="24" height="12" stroke="#000" fill="none" stroke-linecap="round" stroke-linejoin="round" />
<polyline points="501 420.6 501 354.8" stroke="#000" fill="none" stroke-linecap="round" stroke-linejoin="round" />
<polyline points="501 456.6 501 510.7" stroke="#000" fill="none" stroke-linecap="round" stroke-linejoin="round" />
<text x="480.8" y="443.6" font-size="13.7" font-family="Segoe UI" text-anchor="end" fill="#000">K4</text>
<text x="484.4" y="293.8" font-size="13.7" font-family="Segoe UI" text-anchor="end" fill="#000">K4</text>
<circle cx="501" cy="354.8" r="3" stroke="#000" fill="#000" stroke-width="0" />
<line x1="501" y1="258.8" x2="501" y2="246.8" stroke="#000" stroke-linecap="round" />
<line x1="501" y1="222.8" x2="501" y2="234.8" stroke="#000" stroke-linecap="round" />
<line x1="501" y1="234.8" x2="510" y2="234.8" stroke="#000" stroke-linecap="round" />
<line x1="501" y1="246.8" x2="508.5" y2="232.5" stroke="#000" stroke-linecap="round" />
<line x1="505.1" y1="239.1" x2="502.7" y2="237.8" stroke="#000" stroke-linecap="round" />
<line x1="502.7" y1="237.8" x2="502.4" y2="244.2" stroke="#000" stroke-linecap="round" />
<polyline points="501 222.8 501 198.7" stroke="#000" fill="none" stroke-linecap="round" stroke-linejoin="round" />
<polyline points="501 258.8 501 270.8" stroke="#000" fill="none" stroke-linecap="round" stroke-linejoin="round" />
<line x1="624" y1="415.3" x2="624" y2="403.3" stroke="#000" stroke-linecap="round" />
<line x1="624" y1="379.3" x2="624" y2="391.3" stroke="#000" stroke-linecap="round" />
<line x1="624" y1="391.3" x2="633" y2="391.3" stroke="#000" stroke-linecap="round" />
<line x1="624" y1="403.3" x2="631.5" y2="389.1" stroke="#000" stroke-linecap="round" />
<polyline points="624 415.3 624 432.6" stroke="#000" fill="none" stroke-linecap="round" stroke-linejoin="round" />
<text x="615.8" y="402.4" font-size="13.7" font-family="Segoe UI" text-anchor="end" fill="#000">K4</text>
<line x1="462" y1="246.8" x2="462" y2="258.8" stroke="#000" stroke-linecap="round" />
<line x1="462" y1="222.8" x2="462" y2="234.8" stroke="#000" stroke-linecap="round" />
<line x1="462" y1="246.8" x2="453.6" y2="232.4" stroke="#000" stroke-linecap="round" />
<line x1="457.6" y1="239.3" x2="455.3" y2="240.6" stroke="#000" stroke-linecap="round" />
<line x1="455.3" y1="240.6" x2="460.5" y2="244.2" stroke="#000" stroke-linecap="round" />
<text x="445.4" y="245.8" font-size="13.7" font-family="Segoe UI" text-anchor="end" fill="#000">S2</text>
<circle cx="96" cy="234.7" r="3" stroke="#000" fill="#000" stroke-width="0" />
<polyline points="96 234.7 72 234.7 72 246.9" stroke="#000" fill="none" stroke-linecap="round" stroke-linejoin="round" />
<polyline points="96 234.7 96 198.7" stroke="#000" fill="none" stroke-linecap="round" stroke-linejoin="round" />
<line x1="72" y1="270.9" x2="72" y2="282.9" stroke="#000" stroke-linecap="round" />
<line x1="72" y1="246.9" x2="72" y2="258.9" stroke="#000" stroke-linecap="round" />
<line x1="55.7" y1="264.9" x2="68.5" y2="264.9" stroke="#000" stroke-linecap="round" stroke-dasharray="3,3" />
<polyline points="59.49 261.87 55.74 261.87 55.74 267.87 59.49 267.87" stroke="#000" fill="none" stroke-linecap="round" stroke-linejoin="round" />
<line x1="72" y1="270.9" x2="63.6" y2="256.5" stroke="#000" stroke-linecap="round" />
<polyline points="72 282.9 72 415.3 132 415.3 132 414.7" stroke="#000" fill="none" stroke-linecap="round" stroke-linejoin="round" />
<text x="63.9" y="250.1" font-size="13.7" font-family="Segoe UI" text-anchor="end" fill="#000">E0</text>
<circle cx="132" cy="253.4" r="6" stroke="#000" fill="none" stroke-linecap="round" />
<line x1="136.5" y1="253.4" x2="133.5" y2="256.4" stroke="#000" stroke-linecap="round" />
<line x1="136.5" y1="253.4" x2="133.5" y2="250.4" stroke="#000" stroke-linecap="round" />
<line x1="127.5" y1="253.4" x2="136.5" y2="253.4" stroke="#000" stroke-linecap="round" />
<line x1="168" y1="270.6" x2="154.5" y2="270.6" stroke="#000" stroke-linecap="round" />
<line x1="120" y1="270.6" x2="133.5" y2="270.6" stroke="#000" stroke-linecap="round" />
<circle cx="152.25" cy="270.65" r="2.25" stroke="#000" fill="none" stroke-linecap="round" />
<circle cx="135.75" cy="270.65" r="2.25" stroke="#000" fill="none" stroke-linecap="round" />
<polyline points="144 272.86 144 269.86 139.5 267.61 144 265.36 144 256.36" stroke="#000" fill="none" stroke-linecap="round" stroke-linejoin="round" />
<path d="M 149.196184380345 259.400055352934 A 6 6 0 0 0 138.803814021789 259.40005812059" stroke="#000" fill="none" stroke-linecap="round" />
<line x1="133.5" y1="272.9" x2="154.5" y2="272.9" stroke="#000" stroke-linecap="round" />
<polyline points="120 270.6 120 282.7 132 282.7 132 294.7" stroke="#000" fill="none" stroke-linecap="round" stroke-linejoin="round" />
<polyline points="168 270.6 168 282.7 162 282.7 162 294.7" stroke="#000" fill="none" stroke-linecap="round" stroke-linejoin="round" />
<circle cx="204" cy="253.4" r="6" stroke="#000" fill="none" stroke-linecap="round" />
<line x1="208.5" y1="253.4" x2="205.5" y2="256.4" stroke="#000" stroke-linecap="round" />
<line x1="208.5" y1="253.4" x2="205.5" y2="250.4" stroke="#000" stroke-linecap="round" />
<line x1="199.5" y1="253.4" x2="208.5" y2="253.4" stroke="#000" stroke-linecap="round" />
<line x1="240" y1="270.7" x2="226.5" y2="270.7" stroke="#000" stroke-linecap="round" />
<line x1="192" y1="270.7" x2="205.5" y2="270.7" stroke="#000" stroke-linecap="round" />
<circle cx="224.25" cy="270.65" r="2.25" stroke="#000" fill="none" stroke-linecap="round" />
<circle cx="207.75" cy="270.65" r="2.25" stroke="#000" fill="none" stroke-linecap="round" />
<polyline points="216 272.95 216 269.95 211.5 267.7 216 265.45 216 256.45" stroke="#000" fill="none" stroke-linecap="round" stroke-linejoin="round" />
<path d="M 221.196184380345 259.400055352934 A 6 6 0 0 0 210.803814021789 259.40005812059" stroke="#000" fill="none" stroke-linecap="round" />
<line x1="205.5" y1="273" x2="226.5" y2="273" stroke="#000" stroke-linecap="round" />
<polyline points="192 270.7 192 282.7 198 282.7 198 294.7" stroke="#000" fill="none" stroke-linecap="round" stroke-linejoin="round" />
<polyline points="240 270.7 240 282.7 228 282.7 228 294.7" stroke="#000" fill="none" stroke-linecap="round" stroke-linejoin="round" />
<text x="146.5" y="250.9" font-size="13.7" font-family="Segoe UI" text-anchor="middle" fill="#000">E1</text>
<text x="218.5" y="250.9" font-size="13.7" font-family="Segoe UI" text-anchor="middle" fill="#000">E2</text>
<line x1="336" y1="246.8" x2="336" y2="258.8" stroke="#000" stroke-linecap="round" />
<line x1="336" y1="222.8" x2="336" y2="234.8" stroke="#000" stroke-linecap="round" />
<line x1="336" y1="246.8" x2="327.6" y2="232.4" stroke="#000" stroke-linecap="round" />
<polyline points="336 258.8 336 294.7" stroke="#000" fill="none" stroke-linecap="round" stroke-linejoin="round" />
<text x="319.4" y="245.8" font-size="13.7" font-family="Segoe UI" text-anchor="end" fill="#000">K2</text>
<text x="497.8" y="243.6" font-size="13.7" font-family="Segoe UI" text-anchor="end" fill="#000">S3</text>
<line x1="537" y1="336.5" x2="537" y2="348.5" stroke="#000" stroke-linecap="round" />
<line x1="537" y1="312.5" x2="537" y2="324.5" stroke="#000" stroke-linecap="round" />
<line x1="537" y1="336.5" x2="528.6" y2="322.1" stroke="#000" stroke-linecap="round" />
<polyline points="537 312.5 537 255.6 537 255.6 537 198.7" stroke="#000" fill="none" stroke-linecap="round" stroke-linejoin="round" />
<polyline points="537 348.5 537 354.8 501 354.8" stroke="#000" fill="none" stroke-linecap="round" stroke-linejoin="round" />
<text x="521.8" y="331.7" font-size="13.7" font-family="Segoe UI" text-anchor="end" fill="#000">E0</text>
<line x1="675" y1="492.6" x2="675" y2="504.6" stroke="#000" stroke-linecap="round" />
<line x1="675" y1="480.6" x2="675" y2="468.6" stroke="#000" stroke-linecap="round" />
<rect x="663" y="480.6" width="24" height="12" stroke="#000" fill="none" stroke-linecap="round" stroke-linejoin="round" />
<polyline points="675 504.6 675 510.7 624 510.7" stroke="#000" fill="none" stroke-linecap="round" stroke-linejoin="round" />
<text x="654.8" y="491.6" font-size="13.7" font-family="Segoe UI" text-anchor="end" fill="#000">K3</text>
<line x1="675" y1="403.3" x2="675" y2="415.3" stroke="#000" stroke-linecap="round" />
<line x1="675" y1="379.3" x2="675" y2="391.3" stroke="#000" stroke-linecap="round" />
<line x1="675" y1="403.3" x2="666.6" y2="388.9" stroke="#000" stroke-linecap="round" />
<polyline points="675 415.3 675 468.6" stroke="#000" fill="none" stroke-linecap="round" stroke-linejoin="round" />
<text x="658.4" y="402.3" font-size="13.7" font-family="Segoe UI" text-anchor="end" fill="#000">K4</text>
<line x1="573" y1="420.6" x2="573" y2="432.6" stroke="#000" stroke-linecap="round" />
<line x1="573" y1="408.6" x2="573" y2="396.6" stroke="#000" stroke-linecap="round" />
<rect x="561" y="408.6" width="24" height="12" stroke="#000" fill="none" stroke-linecap="round" stroke-linejoin="round" />
<text x="552.8" y="419.6" font-size="13.7" font-family="Segoe UI" text-anchor="end" fill="#000">K1</text>
<line x1="609" y1="258.8" x2="609" y2="246.8" stroke="#000" stroke-linecap="round" />
<line x1="609" y1="222.8" x2="609" y2="234.8" stroke="#000" stroke-linecap="round" />
<line x1="609" y1="234.8" x2="618" y2="234.8" stroke="#000" stroke-linecap="round" />
<line x1="609" y1="246.8" x2="616.5" y2="232.5" stroke="#000" stroke-linecap="round" />
<polyline points="609 222.8 609 198.7" stroke="#000" fill="none" stroke-linecap="round" stroke-linejoin="round" />
<polyline points="609 258.8 609 270.8" stroke="#000" fill="none" stroke-linecap="round" stroke-linejoin="round" />
<text x="600.8" y="245.8" font-size="13.7" font-family="Segoe UI" text-anchor="end" fill="#000">K4</text>
<line x1="609" y1="294.8" x2="609" y2="306.8" stroke="#000" stroke-linecap="round" />
<line x1="609" y1="270.8" x2="609" y2="282.8" stroke="#000" stroke-linecap="round" />
<line x1="609" y1="294.8" x2="600.6" y2="280.4" stroke="#000" stroke-linecap="round" />
<polyline points="609 306.8 573 306.8" stroke="#000" fill="none" stroke-linecap="round" stroke-linejoin="round" />
<text x="592.4" y="293.8" font-size="13.7" font-family="Segoe UI" text-anchor="end" fill="#000">K1</text>
<circle cx="573" cy="306.8" r="3" stroke="#000" fill="#000" stroke-width="0" />
<polyline points="573 306.8 573 396.6" stroke="#000" fill="none" stroke-linecap="round" stroke-linejoin="round" />
<line x1="573" y1="247.2" x2="573" y2="259.2" stroke="#000" stroke-linecap="round" />
<line x1="573" y1="223.2" x2="573" y2="235.2" stroke="#000" stroke-linecap="round" />
<line x1="573" y1="247.2" x2="564.6" y2="232.8" stroke="#000" stroke-linecap="round" />
<line x1="568.6" y1="239.7" x2="566.3" y2="241.1" stroke="#000" stroke-linecap="round" />
<line x1="566.3" y1="241.1" x2="571.5" y2="244.6" stroke="#000" stroke-linecap="round" />
<polyline points="573 223.2 573 198.7" stroke="#000" fill="none" stroke-linecap="round" stroke-linejoin="round" />
<polyline points="573 259.2 573 306.8" stroke="#000" fill="none" stroke-linecap="round" stroke-linejoin="round" />
<text x="556.4" y="246.2" font-size="13.7" font-family="Segoe UI" text-anchor="end" fill="#000">S3</text>
<line x1="675" y1="247.5" x2="675" y2="235.5" stroke="#000" stroke-linecap="round" />
<line x1="675" y1="211.5" x2="675" y2="223.5" stroke="#000" stroke-linecap="round" />
<line x1="675" y1="223.5" x2="684" y2="223.5" stroke="#000" stroke-linecap="round" />
<line x1="675" y1="235.5" x2="682.5" y2="221.3" stroke="#000" stroke-linecap="round" />
<line x1="679.1" y1="227.8" x2="676.7" y2="226.5" stroke="#000" stroke-linecap="round" />
<line x1="676.7" y1="226.5" x2="676.4" y2="232.9" stroke="#000" stroke-linecap="round" />
<polyline points="675 211.5 675 198.7 624 198.7" stroke="#000" fill="none" stroke-linecap="round" stroke-linejoin="round" />
<polyline points="675 247.5 675 265.2" stroke="#000" fill="none" stroke-linecap="round" stroke-linejoin="round" />
<text x="666.8" y="234.5" font-size="13.7" font-family="Segoe UI" text-anchor="end" fill="#000">S1</text>
<line x1="675" y1="301.2" x2="675" y2="289.2" stroke="#000" stroke-linecap="round" />
<line x1="675" y1="265.2" x2="675" y2="277.2" stroke="#000" stroke-linecap="round" />
<line x1="675" y1="277.2" x2="684" y2="277.2" stroke="#000" stroke-linecap="round" />
<line x1="675" y1="289.2" x2="682.5" y2="275" stroke="#000" stroke-linecap="round" />
<line x1="679.1" y1="281.5" x2="676.7" y2="280.2" stroke="#000" stroke-linecap="round" />
<line x1="676.7" y1="280.2" x2="676.4" y2="286.6" stroke="#000" stroke-linecap="round" />
<polyline points="675 301.2 675 379.3" stroke="#000" fill="none" stroke-linecap="round" stroke-linejoin="round" />
<text x="666.8" y="288.2" font-size="13.7" font-family="Segoe UI" text-anchor="end" fill="#000">S2</text>
<circle cx="231" cy="102" r="3" stroke="#000" fill="#000" stroke-width="0" />
<polyline points="231 102 231 96" stroke="#000" fill="none" stroke-linecap="round" stroke-linejoin="round" />
<circle cx="462" cy="198.7" r="3" stroke="#000" fill="#000" stroke-width="0" />
<polyline points="462 198.7 462 222.8" stroke="#000" fill="none" stroke-linecap="round" stroke-linejoin="round" />
<circle cx="501" cy="198.7" r="3" stroke="#000" fill="#000" stroke-width="0" />
<polyline points="501 198.7 462 198.7" stroke="#000" fill="none" stroke-linecap="round" stroke-linejoin="round" />
<circle cx="573" cy="198.7" r="3" stroke="#000" fill="#000" stroke-width="0" />
<polyline points="573 198.7 537 198.7" stroke="#000" fill="none" stroke-linecap="round" stroke-linejoin="round" />
<circle cx="609" cy="198.7" r="3" stroke="#000" fill="#000" stroke-width="0" />
<polyline points="609 198.7 573 198.7" stroke="#000" fill="none" stroke-linecap="round" stroke-linejoin="round" />
<circle cx="624" cy="198.7" r="3" stroke="#000" fill="#000" stroke-width="0" />
<polyline points="624 198.7 609 198.7" stroke="#000" fill="none" stroke-linecap="round" stroke-linejoin="round" />
<circle cx="132" cy="510.7" r="3" stroke="#000" fill="#000" stroke-width="0" />
<polyline points="132 510.7 96 510.7" stroke="#000" fill="none" stroke-linecap="round" stroke-linejoin="round" />
<polyline points="132 510.7 240 510.7" stroke="#000" fill="none" stroke-linecap="round" stroke-linejoin="round" />
<circle cx="537" cy="198.7" r="3" stroke="#000" fill="#000" stroke-width="0" />
<polyline points="537 198.7 501 198.7" stroke="#000" fill="none" stroke-linecap="round" stroke-linejoin="round" />
<circle cx="240" cy="510.7" r="3" stroke="#000" fill="#000" stroke-width="0" />
<polyline points="240 510.7 240 498.7" stroke="#000" fill="none" stroke-linecap="round" stroke-linejoin="round" />
<circle cx="306" cy="510.7" r="3" stroke="#000" fill="#000" stroke-width="0" />
<polyline points="306 510.7 240 510.7" stroke="#000" fill="none" stroke-linecap="round" stroke-linejoin="round" />
<circle cx="372" cy="510.7" r="3" stroke="#000" fill="#000" stroke-width="0" />
<polyline points="372 510.7 306 510.7" stroke="#000" fill="none" stroke-linecap="round" stroke-linejoin="round" />
<circle cx="462" cy="510.7" r="3" stroke="#000" fill="#000" stroke-width="0" />
<polyline points="462 510.7 372 510.7" stroke="#000" fill="none" stroke-linecap="round" stroke-linejoin="round" />
<circle cx="501" cy="510.7" r="3" stroke="#000" fill="#000" stroke-width="0" />
<polyline points="501 510.7 462 510.7" stroke="#000" fill="none" stroke-linecap="round" stroke-linejoin="round" />
<polyline points="501 510.7 573 510.7" stroke="#000" fill="none" stroke-linecap="round" stroke-linejoin="round" />
<circle cx="573" cy="510.7" r="3" stroke="#000" fill="#000" stroke-width="0" />
<polyline points="573 510.7 573 432.6" stroke="#000" fill="none" stroke-linecap="round" stroke-linejoin="round" />
<polyline points="573 510.7 624 510.7" stroke="#000" fill="none" stroke-linecap="round" stroke-linejoin="round" />
<circle cx="624" cy="510.7" r="3" stroke="#000" fill="#000" stroke-width="0" />
<polyline points="624 510.7 624 468.6" stroke="#000" fill="none" stroke-linecap="round" stroke-linejoin="round" />
<circle cx="96" cy="510.7" r="3" stroke="#000" fill="#000" stroke-width="0" />
<polyline points="96 510.7 84 510.7" stroke="#000" fill="none" stroke-linecap="round" stroke-linejoin="round" />
<polyline points="96 510.7 96 366.7" stroke="#000" fill="none" stroke-linecap="round" stroke-linejoin="round" />
</svg>
