<?xml version="1.0" encoding="utf-8" standalone="no"?>
<!DOCTYPE svg PUBLIC "-//W3C//DTD SVG 1.1//EN"
  "http://www.w3.org/Graphics/SVG/1.1/DTD/svg11.dtd">
<svg xmlns:xlink="http://www.w3.org/1999/xlink" width="360pt" height="242.64pt" viewBox="0 0 360 242.64" xmlns="http://www.w3.org/2000/svg" version="1.1">
 <metadata>
  <rdf:RDF xmlns:dc="http://purl.org/dc/elements/1.1/" xmlns:cc="http://creativecommons.org/ns#" xmlns:rdf="http://www.w3.org/1999/02/22-rdf-syntax-ns#">
   <cc:Work>
    <dc:type rdf:resource="http://purl.org/dc/dcmitype/StillImage"/>
    <dc:date>2025-05-04T00:03:12.378384</dc:date>
    <dc:format>image/svg+xml</dc:format>
    <dc:creator>
     <cc:Agent>
      <dc:title>Matplotlib v3.10.0, https://matplotlib.org/</dc:title>
     </cc:Agent>
    </dc:creator>
   </cc:Work>
  </rdf:RDF>
 </metadata>
 <defs>
  <style type="text/css">*{stroke-linejoin: round; stroke-linecap: butt}</style>
 </defs>
 <g id="figure_1">
  <g id="patch_1">
   <path d="M 0 242.64 
L 360 242.64 
L 360 0 
L 0 0 
z
" style="fill: #ffffff"/>
  </g>
  <g id="axes_1">
   <g id="patch_2">
    <path d="M 66.98 195.504933 
L 336.42 195.504933 
L 336.42 28.5776 
L 66.98 28.5776 
z
" style="fill: #ffffff"/>
   </g>
   <g id="FillBetweenPolyCollection_1">
    <defs>
     <path id="ma40d731864" d="M 66.98 -54.722673 
L 66.98 -104.059552 
L 67.51996 -105.035067 
L 68.05992 -106.02104 
L 68.59988 -107.017335 
L 69.13984 -108.023806 
L 69.6798 -109.040299 
L 70.21976 -110.066651 
L 70.759719 -111.102693 
L 71.299679 -112.148246 
L 71.839639 -113.203123 
L 72.379599 -114.267129 
L 72.919559 -115.340061 
L 73.459519 -116.421707 
L 73.999479 -117.511846 
L 74.539439 -118.610251 
L 75.079399 -119.716684 
L 75.619359 -120.8309 
L 76.159319 -121.952647 
L 76.699279 -123.081663 
L 77.239238 -124.217677 
L 77.779198 -125.360412 
L 78.319158 -126.509582 
L 78.859118 -127.664893 
L 79.399078 -128.826042 
L 79.939038 -129.992721 
L 80.478998 -131.164611 
L 81.018958 -132.341387 
L 81.558918 -133.522716 
L 82.098878 -134.708258 
L 82.638838 -135.897664 
L 83.178798 -137.090581 
L 83.718758 -138.286646 
L 84.258717 -139.48549 
L 84.798677 -140.686737 
L 85.338637 -141.890005 
L 85.878597 -143.094906 
L 86.418557 -144.301045 
L 86.958517 -145.508019 
L 87.498477 -146.715423 
L 88.038437 -147.922844 
L 88.578397 -149.129863 
L 89.118357 -150.336058 
L 89.658317 -151.541 
L 90.198277 -152.744257 
L 90.738236 -153.945389 
L 91.278196 -155.143956 
L 91.818156 -156.339511 
L 92.358116 -157.531605 
L 92.898076 -158.719784 
L 93.438036 -159.903592 
L 93.977996 -161.082569 
L 94.517956 -162.256253 
L 95.057916 -163.42418 
L 95.597876 -164.585882 
L 96.137836 -165.740892 
L 96.677796 -166.88874 
L 97.217756 -168.028953 
L 97.757715 -169.161061 
L 98.297675 -170.28459 
L 98.837635 -171.399068 
L 99.377595 -172.504022 
L 99.917555 -173.59898 
L 100.457515 -174.683471 
L 100.997475 -175.757023 
L 101.537435 -176.819168 
L 102.077395 -177.869438 
L 102.617355 -178.907369 
L 103.157315 -179.932498 
L 103.697275 -180.944364 
L 104.237234 -181.942511 
L 104.777194 -182.926485 
L 105.317154 -183.895838 
L 105.857114 -184.850122 
L 106.397074 -185.788899 
L 106.937034 -186.71173 
L 107.476994 -187.618186 
L 108.016954 -188.507841 
L 108.556914 -189.380275 
L 109.096874 -190.235074 
L 109.636834 -191.071832 
L 110.176794 -191.890148 
L 110.716754 -192.68963 
L 111.256713 -193.46989 
L 111.796673 -194.230552 
L 112.336633 -194.971245 
L 112.876593 -195.691609 
L 113.416553 -196.391288 
L 113.956513 -197.069941 
L 114.496473 -197.727231 
L 115.036433 -198.362834 
L 115.576393 -198.976433 
L 116.116353 -199.567724 
L 116.656313 -200.136411 
L 117.196273 -200.682208 
L 117.736232 -201.204843 
L 118.276192 -201.704051 
L 118.816152 -202.179581 
L 119.356112 -202.631192 
L 119.896072 -203.058655 
L 120.436032 -203.461754 
L 120.975992 -203.840283 
L 121.515952 -204.194048 
L 122.055912 -204.522871 
L 122.595872 -204.826581 
L 123.135832 -205.105024 
L 123.675792 -205.358057 
L 124.215752 -205.585551 
L 124.755711 -205.787387 
L 125.295671 -205.963462 
L 125.835631 -206.113686 
L 126.375591 -206.237982 
L 126.915551 -206.336284 
L 127.455511 -206.408543 
L 127.995471 -206.454721 
L 128.535431 -206.474794 
L 129.075391 -206.468752 
L 129.615351 -206.436598 
L 130.155311 -206.378349 
L 130.695271 -206.294034 
L 131.23523 -206.183698 
L 131.77519 -206.047396 
L 132.31515 -205.885201 
L 132.85511 -205.697193 
L 133.39507 -205.483472 
L 133.93503 -205.244146 
L 134.47499 -204.979339 
L 135.01495 -204.689186 
L 135.55491 -204.373836 
L 136.09487 -204.033451 
L 136.63483 -203.668204 
L 137.17479 -203.278282 
L 137.714749 -202.863884 
L 138.254709 -202.42522 
L 138.794669 -201.962512 
L 139.334629 -201.475996 
L 139.874589 -200.965916 
L 140.414549 -200.432531 
L 140.954509 -199.876108 
L 141.494469 -199.296926 
L 142.034429 -198.695276 
L 142.574389 -198.071457 
L 143.114349 -197.425779 
L 143.654309 -196.758564 
L 144.194269 -196.07014 
L 144.734228 -195.360847 
L 145.274188 -194.631032 
L 145.814148 -193.881054 
L 146.354108 -193.111277 
L 146.894068 -192.322076 
L 147.434028 -191.513831 
L 147.973988 -190.686933 
L 148.513948 -189.841777 
L 149.053908 -188.978767 
L 149.593868 -188.098313 
L 150.133828 -187.200832 
L 150.673788 -186.286746 
L 151.213747 -185.356483 
L 151.753707 -184.410476 
L 152.293667 -183.449165 
L 152.833627 -182.472991 
L 153.373587 -181.482403 
L 153.913547 -180.477851 
L 154.453507 -179.459792 
L 154.993467 -178.428682 
L 155.533427 -177.384984 
L 156.073387 -176.329161 
L 156.613347 -175.26168 
L 157.153307 -174.183009 
L 157.693267 -173.093616 
L 158.233226 -171.993974 
L 158.773186 -170.884555 
L 159.313146 -169.76583 
L 159.853106 -168.638273 
L 160.393066 -167.502356 
L 160.933026 -166.358551 
L 161.472986 -165.207331 
L 162.012946 -164.049167 
L 162.552906 -162.884526 
L 163.092866 -161.713877 
L 163.632826 -160.537686 
L 164.172786 -159.356417 
L 164.712745 -158.170529 
L 165.252705 -156.980482 
L 165.792665 -155.786731 
L 166.332625 -154.589726 
L 166.872585 -153.389917 
L 167.412545 -152.187748 
L 167.952505 -150.983657 
L 168.492465 -149.778082 
L 169.032425 -148.571453 
L 169.572385 -147.364195 
L 170.112345 -146.156731 
L 170.652305 -144.949474 
L 171.192265 -143.742836 
L 171.732224 -142.537221 
L 172.272184 -141.333027 
L 172.812144 -140.130646 
L 173.352104 -138.930463 
L 173.892064 -137.732859 
L 174.432024 -136.538205 
L 174.971984 -135.346868 
L 175.511944 -134.159206 
L 176.051904 -132.975571 
L 176.591864 -131.796307 
L 177.131824 -130.621751 
L 177.671784 -129.452232 
L 178.211743 -128.288073 
L 178.751703 -127.129586 
L 179.291663 -125.97708 
L 179.831623 -124.830851 
L 180.371583 -123.691191 
L 180.911543 -122.558381 
L 181.451503 -121.432696 
L 181.991463 -120.314401 
L 182.531423 -119.203755 
L 183.071383 -118.101007 
L 183.611343 -117.006397 
L 184.151303 -115.92016 
L 184.691263 -114.84252 
L 185.231222 -113.773692 
L 185.771182 -112.713885 
L 186.311142 -111.663299 
L 186.851102 -110.622124 
L 187.391062 -109.590544 
L 187.931022 -108.568732 
L 188.470982 -107.556857 
L 189.010942 -106.555076 
L 189.550902 -105.563539 
L 190.090862 -104.582388 
L 190.630822 -103.611757 
L 191.170782 -102.651773 
L 191.710741 -101.702553 
L 192.250701 -100.764207 
L 192.790661 -99.836838 
L 193.330621 -98.920542 
L 193.870581 -98.015404 
L 194.410541 -97.121506 
L 194.950501 -96.238919 
L 195.490461 -95.367709 
L 196.030421 -94.507933 
L 196.570381 -93.659643 
L 197.110341 -92.822882 
L 197.650301 -91.997687 
L 198.190261 -91.18409 
L 198.73022 -90.382113 
L 199.27018 -89.591775 
L 199.81014 -88.813086 
L 200.3501 -88.04605 
L 200.89006 -87.290668 
L 201.43002 -86.546931 
L 201.96998 -85.814828 
L 202.50994 -85.094338 
L 203.0499 -84.385439 
L 203.58986 -83.688101 
L 204.12982 -83.002289 
L 204.66978 -82.327964 
L 205.209739 -81.665081 
L 205.749699 -81.01359 
L 206.289659 -80.373438 
L 206.829619 -79.744567 
L 207.369579 -79.126913 
L 207.909539 -78.520409 
L 208.449499 -77.924985 
L 208.989459 -77.340566 
L 209.529419 -76.767073 
L 210.069379 -76.204424 
L 210.609339 -75.652534 
L 211.149299 -75.111313 
L 211.689259 -74.580669 
L 212.229218 -74.060508 
L 212.769178 -73.550731 
L 213.309138 -73.051239 
L 213.849098 -72.561927 
L 214.389058 -72.08269 
L 214.929018 -71.61342 
L 215.468978 -71.154007 
L 216.008938 -70.70434 
L 216.548898 -70.264303 
L 217.088858 -69.833781 
L 217.628818 -69.412657 
L 218.168778 -69.000811 
L 218.708737 -68.598124 
L 219.248697 -68.204473 
L 219.788657 -67.819736 
L 220.328617 -67.443789 
L 220.868577 -67.076507 
L 221.408537 -66.717765 
L 221.948497 -66.367436 
L 222.488457 -66.025393 
L 223.028417 -65.69151 
L 223.568377 -65.365657 
L 224.108337 -65.047708 
L 224.648297 -64.737533 
L 225.188257 -64.435004 
L 225.728216 -64.139994 
L 226.268176 -63.852373 
L 226.808136 -63.572013 
L 227.348096 -63.298787 
L 227.888056 -63.032566 
L 228.428016 -62.773224 
L 228.967976 -62.520634 
L 229.507936 -62.274668 
L 230.047896 -62.035203 
L 230.587856 -61.802112 
L 231.127816 -61.575272 
L 231.667776 -61.354559 
L 232.207735 -61.13985 
L 232.747695 -60.931023 
L 233.287655 -60.727959 
L 233.827615 -60.530537 
L 234.367575 -60.338639 
L 234.907535 -60.152146 
L 235.447495 -59.970944 
L 235.987455 -59.794916 
L 236.527415 -59.623948 
L 237.067375 -59.457928 
L 237.607335 -59.296744 
L 238.147295 -59.140286 
L 238.687255 -58.988446 
L 239.227214 -58.841116 
L 239.767174 -58.69819 
L 240.307134 -58.559564 
L 240.847094 -58.425135 
L 241.387054 -58.2948 
L 241.927014 -58.168461 
L 242.466974 -58.046018 
L 243.006934 -57.927374 
L 243.546894 -57.812434 
L 244.086854 -57.701104 
L 244.626814 -57.593292 
L 245.166774 -57.488905 
L 245.706733 -57.387856 
L 246.246693 -57.290057 
L 246.786653 -57.19542 
L 247.326613 -57.103862 
L 247.866573 -57.0153 
L 248.406533 -56.929651 
L 248.946493 -56.846837 
L 249.486453 -56.766778 
L 250.026413 -56.689398 
L 250.566373 -56.614622 
L 251.106333 -56.542376 
L 251.646293 -56.472587 
L 252.186253 -56.405185 
L 252.726212 -56.340101 
L 253.266172 -56.277267 
L 253.806132 -56.216617 
L 254.346092 -56.158086 
L 254.886052 -56.101611 
L 255.426012 -56.047129 
L 255.965972 -55.994582 
L 256.505932 -55.943909 
L 257.045892 -55.895053 
L 257.585852 -55.847958 
L 258.125812 -55.802569 
L 258.665772 -55.758832 
L 259.205731 -55.716696 
L 259.745691 -55.676109 
L 260.285651 -55.637022 
L 260.825611 -55.599386 
L 261.365571 -55.563155 
L 261.905531 -55.528282 
L 262.445491 -55.494724 
L 262.985451 -55.462436 
L 263.525411 -55.431376 
L 264.065371 -55.401504 
L 264.605331 -55.372779 
L 265.145291 -55.345162 
L 265.685251 -55.318616 
L 266.22521 -55.293104 
L 266.76517 -55.26859 
L 267.30513 -55.245039 
L 267.84509 -55.222419 
L 268.38505 -55.200696 
L 268.92501 -55.179838 
L 269.46497 -55.159815 
L 270.00493 -55.140597 
L 270.54489 -55.122156 
L 271.08485 -55.104462 
L 271.62481 -55.087489 
L 272.16477 -55.071211 
L 272.704729 -55.055602 
L 273.244689 -55.040637 
L 273.784649 -55.026293 
L 274.324609 -55.012545 
L 274.864569 -54.999373 
L 275.404529 -54.986754 
L 275.944489 -54.974667 
L 276.484449 -54.963091 
L 277.024409 -54.952008 
L 277.564369 -54.941399 
L 278.104329 -54.931244 
L 278.644289 -54.921526 
L 279.184248 -54.912229 
L 279.724208 -54.903335 
L 280.264168 -54.894829 
L 280.804128 -54.886695 
L 281.344088 -54.878918 
L 281.884048 -54.871485 
L 282.424008 -54.864381 
L 282.963968 -54.857593 
L 283.503928 -54.851107 
L 284.043888 -54.844913 
L 284.583848 -54.838997 
L 285.123808 -54.833349 
L 285.663768 -54.827956 
L 286.203727 -54.82281 
L 286.743687 -54.817898 
L 287.283647 -54.813212 
L 287.823607 -54.808741 
L 288.363567 -54.804477 
L 288.903527 -54.800411 
L 289.443487 -54.796535 
L 289.983447 -54.792839 
L 290.523407 -54.789317 
L 291.063367 -54.785961 
L 291.603327 -54.782764 
L 292.143287 -54.779718 
L 292.683246 -54.776818 
L 293.223206 -54.774056 
L 293.763166 -54.771426 
L 294.303126 -54.768923 
L 294.843086 -54.766541 
L 295.383046 -54.764275 
L 295.923006 -54.762119 
L 296.462966 -54.760068 
L 297.002926 -54.758118 
L 297.542886 -54.756263 
L 298.082846 -54.7545 
L 298.622806 -54.752825 
L 299.162766 -54.751233 
L 299.702725 -54.74972 
L 300.242685 -54.748283 
L 300.782645 -54.746918 
L 301.322605 -54.745622 
L 301.862565 -54.744391 
L 302.402525 -54.743223 
L 302.942485 -54.742115 
L 303.482445 -54.741063 
L 304.022405 -54.740065 
L 304.562365 -54.739118 
L 305.102325 -54.73822 
L 305.642285 -54.737369 
L 306.182244 -54.736561 
L 306.722204 -54.735796 
L 307.262164 -54.735071 
L 307.802124 -54.734384 
L 308.342084 -54.733733 
L 308.882044 -54.733117 
L 309.422004 -54.732533 
L 309.961964 -54.73198 
L 310.501924 -54.731457 
L 311.041884 -54.730962 
L 311.581844 -54.730493 
L 312.121804 -54.73005 
L 312.661764 -54.72963 
L 313.201723 -54.729233 
L 313.741683 -54.728858 
L 314.281643 -54.728503 
L 314.821603 -54.728168 
L 315.361563 -54.727851 
L 315.901523 -54.727551 
L 316.441483 -54.727268 
L 316.981443 -54.727001 
L 317.521403 -54.726749 
L 318.061363 -54.72651 
L 318.601323 -54.726285 
L 319.141283 -54.726073 
L 319.681242 -54.725872 
L 320.221202 -54.725683 
L 320.761162 -54.725504 
L 321.301122 -54.725336 
L 321.841082 -54.725177 
L 322.381042 -54.725027 
L 322.921002 -54.724886 
L 323.460962 -54.724753 
L 324.000922 -54.724628 
L 324.540882 -54.72451 
L 325.080842 -54.724398 
L 325.620802 -54.724293 
L 326.160762 -54.724195 
L 326.700721 -54.724102 
L 327.240681 -54.724014 
L 327.780641 -54.723932 
L 328.320601 -54.723854 
L 328.860561 -54.723781 
L 329.400521 -54.723713 
L 329.940481 -54.723648 
L 330.480441 -54.723588 
L 331.020401 -54.72353 
L 331.560361 -54.723477 
L 332.100321 -54.723426 
L 332.640281 -54.723379 
L 333.18024 -54.723335 
L 333.7202 -54.723293 
L 334.26016 -54.723253 
L 334.80012 -54.723217 
L 335.34008 -54.723182 
L 335.88004 -54.723149 
L 336.42 -54.723119 
L 336.42 -54.722673 
L 336.42 -54.722673 
L 335.88004 -54.722673 
L 335.34008 -54.722673 
L 334.80012 -54.722673 
L 334.26016 -54.722673 
L 333.7202 -54.722673 
L 333.18024 -54.722673 
L 332.640281 -54.722673 
L 332.100321 -54.722673 
L 331.560361 -54.722673 
L 331.020401 -54.722673 
L 330.480441 -54.722673 
L 329.940481 -54.722673 
L 329.400521 -54.722673 
L 328.860561 -54.722673 
L 328.320601 -54.722673 
L 327.780641 -54.722673 
L 327.240681 -54.722673 
L 326.700721 -54.722673 
L 326.160762 -54.722673 
L 325.620802 -54.722673 
L 325.080842 -54.722673 
L 324.540882 -54.722673 
L 324.000922 -54.722673 
L 323.460962 -54.722673 
L 322.921002 -54.722673 
L 322.381042 -54.722673 
L 321.841082 -54.722673 
L 321.301122 -54.722673 
L 320.761162 -54.722673 
L 320.221202 -54.722673 
L 319.681242 -54.722673 
L 319.141283 -54.722673 
L 318.601323 -54.722673 
L 318.061363 -54.722673 
L 317.521403 -54.722673 
L 316.981443 -54.722673 
L 316.441483 -54.722673 
L 315.901523 -54.722673 
L 315.361563 -54.722673 
L 314.821603 -54.722673 
L 314.281643 -54.722673 
L 313.741683 -54.722673 
L 313.201723 -54.722673 
L 312.661764 -54.722673 
L 312.121804 -54.722673 
L 311.581844 -54.722673 
L 311.041884 -54.722673 
L 310.501924 -54.722673 
L 309.961964 -54.722673 
L 309.422004 -54.722673 
L 308.882044 -54.722673 
L 308.342084 -54.722673 
L 307.802124 -54.722673 
L 307.262164 -54.722673 
L 306.722204 -54.722673 
L 306.182244 -54.722673 
L 305.642285 -54.722673 
L 305.102325 -54.722673 
L 304.562365 -54.722673 
L 304.022405 -54.722673 
L 303.482445 -54.722673 
L 302.942485 -54.722673 
L 302.402525 -54.722673 
L 301.862565 -54.722673 
L 301.322605 -54.722673 
L 300.782645 -54.722673 
L 300.242685 -54.722673 
L 299.702725 -54.722673 
L 299.162766 -54.722673 
L 298.622806 -54.722673 
L 298.082846 -54.722673 
L 297.542886 -54.722673 
L 297.002926 -54.722673 
L 296.462966 -54.722673 
L 295.923006 -54.722673 
L 295.383046 -54.722673 
L 294.843086 -54.722673 
L 294.303126 -54.722673 
L 293.763166 -54.722673 
L 293.223206 -54.722673 
L 292.683246 -54.722673 
L 292.143287 -54.722673 
L 291.603327 -54.722673 
L 291.063367 -54.722673 
L 290.523407 -54.722673 
L 289.983447 -54.722673 
L 289.443487 -54.722673 
L 288.903527 -54.722673 
L 288.363567 -54.722673 
L 287.823607 -54.722673 
L 287.283647 -54.722673 
L 286.743687 -54.722673 
L 286.203727 -54.722673 
L 285.663768 -54.722673 
L 285.123808 -54.722673 
L 284.583848 -54.722673 
L 284.043888 -54.722673 
L 283.503928 -54.722673 
L 282.963968 -54.722673 
L 282.424008 -54.722673 
L 281.884048 -54.722673 
L 281.344088 -54.722673 
L 280.804128 -54.722673 
L 280.264168 -54.722673 
L 279.724208 -54.722673 
L 279.184248 -54.722673 
L 278.644289 -54.722673 
L 278.104329 -54.722673 
L 277.564369 -54.722673 
L 277.024409 -54.722673 
L 276.484449 -54.722673 
L 275.944489 -54.722673 
L 275.404529 -54.722673 
L 274.864569 -54.722673 
L 274.324609 -54.722673 
L 273.784649 -54.722673 
L 273.244689 -54.722673 
L 272.704729 -54.722673 
L 272.16477 -54.722673 
L 271.62481 -54.722673 
L 271.08485 -54.722673 
L 270.54489 -54.722673 
L 270.00493 -54.722673 
L 269.46497 -54.722673 
L 268.92501 -54.722673 
L 268.38505 -54.722673 
L 267.84509 -54.722673 
L 267.30513 -54.722673 
L 266.76517 -54.722673 
L 266.22521 -54.722673 
L 265.685251 -54.722673 
L 265.145291 -54.722673 
L 264.605331 -54.722673 
L 264.065371 -54.722673 
L 263.525411 -54.722673 
L 262.985451 -54.722673 
L 262.445491 -54.722673 
L 261.905531 -54.722673 
L 261.365571 -54.722673 
L 260.825611 -54.722673 
L 260.285651 -54.722673 
L 259.745691 -54.722673 
L 259.205731 -54.722673 
L 258.665772 -54.722673 
L 258.125812 -54.722673 
L 257.585852 -54.722673 
L 257.045892 -54.722673 
L 256.505932 -54.722673 
L 255.965972 -54.722673 
L 255.426012 -54.722673 
L 254.886052 -54.722673 
L 254.346092 -54.722673 
L 253.806132 -54.722673 
L 253.266172 -54.722673 
L 252.726212 -54.722673 
L 252.186253 -54.722673 
L 251.646293 -54.722673 
L 251.106333 -54.722673 
L 250.566373 -54.722673 
L 250.026413 -54.722673 
L 249.486453 -54.722673 
L 248.946493 -54.722673 
L 248.406533 -54.722673 
L 247.866573 -54.722673 
L 247.326613 -54.722673 
L 246.786653 -54.722673 
L 246.246693 -54.722673 
L 245.706733 -54.722673 
L 245.166774 -54.722673 
L 244.626814 -54.722673 
L 244.086854 -54.722673 
L 243.546894 -54.722673 
L 243.006934 -54.722673 
L 242.466974 -54.722673 
L 241.927014 -54.722673 
L 241.387054 -54.722673 
L 240.847094 -54.722673 
L 240.307134 -54.722673 
L 239.767174 -54.722673 
L 239.227214 -54.722673 
L 238.687255 -54.722673 
L 238.147295 -54.722673 
L 237.607335 -54.722673 
L 237.067375 -54.722673 
L 236.527415 -54.722673 
L 235.987455 -54.722673 
L 235.447495 -54.722673 
L 234.907535 -54.722673 
L 234.367575 -54.722673 
L 233.827615 -54.722673 
L 233.287655 -54.722673 
L 232.747695 -54.722673 
L 232.207735 -54.722673 
L 231.667776 -54.722673 
L 231.127816 -54.722673 
L 230.587856 -54.722673 
L 230.047896 -54.722673 
L 229.507936 -54.722673 
L 228.967976 -54.722673 
L 228.428016 -54.722673 
L 227.888056 -54.722673 
L 227.348096 -54.722673 
L 226.808136 -54.722673 
L 226.268176 -54.722673 
L 225.728216 -54.722673 
L 225.188257 -54.722673 
L 224.648297 -54.722673 
L 224.108337 -54.722673 
L 223.568377 -54.722673 
L 223.028417 -54.722673 
L 222.488457 -54.722673 
L 221.948497 -54.722673 
L 221.408537 -54.722673 
L 220.868577 -54.722673 
L 220.328617 -54.722673 
L 219.788657 -54.722673 
L 219.248697 -54.722673 
L 218.708737 -54.722673 
L 218.168778 -54.722673 
L 217.628818 -54.722673 
L 217.088858 -54.722673 
L 216.548898 -54.722673 
L 216.008938 -54.722673 
L 215.468978 -54.722673 
L 214.929018 -54.722673 
L 214.389058 -54.722673 
L 213.849098 -54.722673 
L 213.309138 -54.722673 
L 212.769178 -54.722673 
L 212.229218 -54.722673 
L 211.689259 -54.722673 
L 211.149299 -54.722673 
L 210.609339 -54.722673 
L 210.069379 -54.722673 
L 209.529419 -54.722673 
L 208.989459 -54.722673 
L 208.449499 -54.722673 
L 207.909539 -54.722673 
L 207.369579 -54.722673 
L 206.829619 -54.722673 
L 206.289659 -54.722673 
L 205.749699 -54.722673 
L 205.209739 -54.722673 
L 204.66978 -54.722673 
L 204.12982 -54.722673 
L 203.58986 -54.722673 
L 203.0499 -54.722673 
L 202.50994 -54.722673 
L 201.96998 -54.722673 
L 201.43002 -54.722673 
L 200.89006 -54.722673 
L 200.3501 -54.722673 
L 199.81014 -54.722673 
L 199.27018 -54.722673 
L 198.73022 -54.722673 
L 198.190261 -54.722673 
L 197.650301 -54.722673 
L 197.110341 -54.722673 
L 196.570381 -54.722673 
L 196.030421 -54.722673 
L 195.490461 -54.722673 
L 194.950501 -54.722673 
L 194.410541 -54.722673 
L 193.870581 -54.722673 
L 193.330621 -54.722673 
L 192.790661 -54.722673 
L 192.250701 -54.722673 
L 191.710741 -54.722673 
L 191.170782 -54.722673 
L 190.630822 -54.722673 
L 190.090862 -54.722673 
L 189.550902 -54.722673 
L 189.010942 -54.722673 
L 188.470982 -54.722673 
L 187.931022 -54.722673 
L 187.391062 -54.722673 
L 186.851102 -54.722673 
L 186.311142 -54.722673 
L 185.771182 -54.722673 
L 185.231222 -54.722673 
L 184.691263 -54.722673 
L 184.151303 -54.722673 
L 183.611343 -54.722673 
L 183.071383 -54.722673 
L 182.531423 -54.722673 
L 181.991463 -54.722673 
L 181.451503 -54.722673 
L 180.911543 -54.722673 
L 180.371583 -54.722673 
L 179.831623 -54.722673 
L 179.291663 -54.722673 
L 178.751703 -54.722673 
L 178.211743 -54.722673 
L 177.671784 -54.722673 
L 177.131824 -54.722673 
L 176.591864 -54.722673 
L 176.051904 -54.722673 
L 175.511944 -54.722673 
L 174.971984 -54.722673 
L 174.432024 -54.722673 
L 173.892064 -54.722673 
L 173.352104 -54.722673 
L 172.812144 -54.722673 
L 172.272184 -54.722673 
L 171.732224 -54.722673 
L 171.192265 -54.722673 
L 170.652305 -54.722673 
L 170.112345 -54.722673 
L 169.572385 -54.722673 
L 169.032425 -54.722673 
L 168.492465 -54.722673 
L 167.952505 -54.722673 
L 167.412545 -54.722673 
L 166.872585 -54.722673 
L 166.332625 -54.722673 
L 165.792665 -54.722673 
L 165.252705 -54.722673 
L 164.712745 -54.722673 
L 164.172786 -54.722673 
L 163.632826 -54.722673 
L 163.092866 -54.722673 
L 162.552906 -54.722673 
L 162.012946 -54.722673 
L 161.472986 -54.722673 
L 160.933026 -54.722673 
L 160.393066 -54.722673 
L 159.853106 -54.722673 
L 159.313146 -54.722673 
L 158.773186 -54.722673 
L 158.233226 -54.722673 
L 157.693267 -54.722673 
L 157.153307 -54.722673 
L 156.613347 -54.722673 
L 156.073387 -54.722673 
L 155.533427 -54.722673 
L 154.993467 -54.722673 
L 154.453507 -54.722673 
L 153.913547 -54.722673 
L 153.373587 -54.722673 
L 152.833627 -54.722673 
L 152.293667 -54.722673 
L 151.753707 -54.722673 
L 151.213747 -54.722673 
L 150.673788 -54.722673 
L 150.133828 -54.722673 
L 149.593868 -54.722673 
L 149.053908 -54.722673 
L 148.513948 -54.722673 
L 147.973988 -54.722673 
L 147.434028 -54.722673 
L 146.894068 -54.722673 
L 146.354108 -54.722673 
L 145.814148 -54.722673 
L 145.274188 -54.722673 
L 144.734228 -54.722673 
L 144.194269 -54.722673 
L 143.654309 -54.722673 
L 143.114349 -54.722673 
L 142.574389 -54.722673 
L 142.034429 -54.722673 
L 141.494469 -54.722673 
L 140.954509 -54.722673 
L 140.414549 -54.722673 
L 139.874589 -54.722673 
L 139.334629 -54.722673 
L 138.794669 -54.722673 
L 138.254709 -54.722673 
L 137.714749 -54.722673 
L 137.17479 -54.722673 
L 136.63483 -54.722673 
L 136.09487 -54.722673 
L 135.55491 -54.722673 
L 135.01495 -54.722673 
L 134.47499 -54.722673 
L 133.93503 -54.722673 
L 133.39507 -54.722673 
L 132.85511 -54.722673 
L 132.31515 -54.722673 
L 131.77519 -54.722673 
L 131.23523 -54.722673 
L 130.695271 -54.722673 
L 130.155311 -54.722673 
L 129.615351 -54.722673 
L 129.075391 -54.722673 
L 128.535431 -54.722673 
L 127.995471 -54.722673 
L 127.455511 -54.722673 
L 126.915551 -54.722673 
L 126.375591 -54.722673 
L 125.835631 -54.722673 
L 125.295671 -54.722673 
L 124.755711 -54.722673 
L 124.215752 -54.722673 
L 123.675792 -54.722673 
L 123.135832 -54.722673 
L 122.595872 -54.722673 
L 122.055912 -54.722673 
L 121.515952 -54.722673 
L 120.975992 -54.722673 
L 120.436032 -54.722673 
L 119.896072 -54.722673 
L 119.356112 -54.722673 
L 118.816152 -54.722673 
L 118.276192 -54.722673 
L 117.736232 -54.722673 
L 117.196273 -54.722673 
L 116.656313 -54.722673 
L 116.116353 -54.722673 
L 115.576393 -54.722673 
L 115.036433 -54.722673 
L 114.496473 -54.722673 
L 113.956513 -54.722673 
L 113.416553 -54.722673 
L 112.876593 -54.722673 
L 112.336633 -54.722673 
L 111.796673 -54.722673 
L 111.256713 -54.722673 
L 110.716754 -54.722673 
L 110.176794 -54.722673 
L 109.636834 -54.722673 
L 109.096874 -54.722673 
L 108.556914 -54.722673 
L 108.016954 -54.722673 
L 107.476994 -54.722673 
L 106.937034 -54.722673 
L 106.397074 -54.722673 
L 105.857114 -54.722673 
L 105.317154 -54.722673 
L 104.777194 -54.722673 
L 104.237234 -54.722673 
L 103.697275 -54.722673 
L 103.157315 -54.722673 
L 102.617355 -54.722673 
L 102.077395 -54.722673 
L 101.537435 -54.722673 
L 100.997475 -54.722673 
L 100.457515 -54.722673 
L 99.917555 -54.722673 
L 99.377595 -54.722673 
L 98.837635 -54.722673 
L 98.297675 -54.722673 
L 97.757715 -54.722673 
L 97.217756 -54.722673 
L 96.677796 -54.722673 
L 96.137836 -54.722673 
L 95.597876 -54.722673 
L 95.057916 -54.722673 
L 94.517956 -54.722673 
L 93.977996 -54.722673 
L 93.438036 -54.722673 
L 92.898076 -54.722673 
L 92.358116 -54.722673 
L 91.818156 -54.722673 
L 91.278196 -54.722673 
L 90.738236 -54.722673 
L 90.198277 -54.722673 
L 89.658317 -54.722673 
L 89.118357 -54.722673 
L 88.578397 -54.722673 
L 88.038437 -54.722673 
L 87.498477 -54.722673 
L 86.958517 -54.722673 
L 86.418557 -54.722673 
L 85.878597 -54.722673 
L 85.338637 -54.722673 
L 84.798677 -54.722673 
L 84.258717 -54.722673 
L 83.718758 -54.722673 
L 83.178798 -54.722673 
L 82.638838 -54.722673 
L 82.098878 -54.722673 
L 81.558918 -54.722673 
L 81.018958 -54.722673 
L 80.478998 -54.722673 
L 79.939038 -54.722673 
L 79.399078 -54.722673 
L 78.859118 -54.722673 
L 78.319158 -54.722673 
L 77.779198 -54.722673 
L 77.239238 -54.722673 
L 76.699279 -54.722673 
L 76.159319 -54.722673 
L 75.619359 -54.722673 
L 75.079399 -54.722673 
L 74.539439 -54.722673 
L 73.999479 -54.722673 
L 73.459519 -54.722673 
L 72.919559 -54.722673 
L 72.379599 -54.722673 
L 71.839639 -54.722673 
L 71.299679 -54.722673 
L 70.759719 -54.722673 
L 70.21976 -54.722673 
L 69.6798 -54.722673 
L 69.13984 -54.722673 
L 68.59988 -54.722673 
L 68.05992 -54.722673 
L 67.51996 -54.722673 
L 66.98 -54.722673 
z
" style="stroke: #0000ff; stroke-opacity: 0.3"/>
    </defs>
    <g clip-path="url(#p0d83100bf4)">
     <use xlink:href="#ma40d731864" x="0" y="242.64" style="fill: #0000ff; fill-opacity: 0.3; stroke: #0000ff; stroke-opacity: 0.3"/>
    </g>
   </g>
   <g id="FillBetweenPolyCollection_2">
    <defs>
     <path id="m4f5f887630" d="M 66.98 -54.722673 
L 66.98 -71.582147 
L 67.51996 -71.808452 
L 68.05992 -72.036843 
L 68.59988 -72.267324 
L 69.13984 -72.499898 
L 69.6798 -72.734565 
L 70.21976 -72.971329 
L 70.759719 -73.21019 
L 71.299679 -73.451149 
L 71.839639 -73.694207 
L 72.379599 -73.939365 
L 72.919559 -74.186623 
L 73.459519 -74.435979 
L 73.999479 -74.687434 
L 74.539439 -74.940987 
L 75.079399 -75.196636 
L 75.619359 -75.454379 
L 76.159319 -75.714215 
L 76.699279 -75.97614 
L 77.239238 -76.240153 
L 77.779198 -76.506249 
L 78.319158 -76.774426 
L 78.859118 -77.044678 
L 79.399078 -77.317002 
L 79.939038 -77.591393 
L 80.478998 -77.867846 
L 81.018958 -78.146355 
L 81.558918 -78.426914 
L 82.098878 -78.709516 
L 82.638838 -78.994156 
L 83.178798 -79.280824 
L 83.718758 -79.569515 
L 84.258717 -79.860219 
L 84.798677 -80.152929 
L 85.338637 -80.447634 
L 85.878597 -80.744327 
L 86.418557 -81.042996 
L 86.958517 -81.343632 
L 87.498477 -81.646224 
L 88.038437 -81.950761 
L 88.578397 -82.257231 
L 89.118357 -82.565622 
L 89.658317 -82.875921 
L 90.198277 -83.188116 
L 90.738236 -83.502193 
L 91.278196 -83.818138 
L 91.818156 -84.135937 
L 92.358116 -84.455575 
L 92.898076 -84.777037 
L 93.438036 -85.100306 
L 93.977996 -85.425368 
L 94.517956 -85.752204 
L 95.057916 -86.080798 
L 95.597876 -86.411132 
L 96.137836 -86.743188 
L 96.677796 -87.076947 
L 97.217756 -87.412391 
L 97.757715 -87.7495 
L 98.297675 -88.088253 
L 98.837635 -88.428631 
L 99.377595 -88.770612 
L 99.917555 -89.114174 
L 100.457515 -89.459297 
L 100.997475 -89.805956 
L 101.537435 -90.154131 
L 102.077395 -90.503796 
L 102.617355 -90.854929 
L 103.157315 -91.207504 
L 103.697275 -91.561498 
L 104.237234 -91.916884 
L 104.777194 -92.273638 
L 105.317154 -92.631732 
L 105.857114 -92.99114 
L 106.397074 -93.351835 
L 106.937034 -93.71379 
L 107.476994 -94.076975 
L 108.016954 -94.441363 
L 108.556914 -94.806925 
L 109.096874 -95.17363 
L 109.636834 -95.541449 
L 110.176794 -95.910352 
L 110.716754 -96.280308 
L 111.256713 -96.651284 
L 111.796673 -97.023251 
L 112.336633 -97.396174 
L 112.876593 -97.770022 
L 113.416553 -98.144762 
L 113.956513 -98.520359 
L 114.496473 -98.89678 
L 115.036433 -99.273991 
L 115.576393 -99.651956 
L 116.116353 -100.030641 
L 116.656313 -100.410009 
L 117.196273 -100.790025 
L 117.736232 -101.170652 
L 118.276192 -101.551853 
L 118.816152 -101.933591 
L 119.356112 -102.315828 
L 119.896072 -102.698526 
L 120.436032 -103.081647 
L 120.975992 -103.465151 
L 121.515952 -103.849 
L 122.055912 -104.233153 
L 122.595872 -104.617572 
L 123.135832 -105.002215 
L 123.675792 -105.387042 
L 124.215752 -105.772012 
L 124.755711 -106.157084 
L 125.295671 -106.542216 
L 125.835631 -106.927365 
L 126.375591 -107.312491 
L 126.915551 -107.697549 
L 127.455511 -108.082497 
L 127.995471 -108.467292 
L 128.535431 -108.851891 
L 129.075391 -109.236249 
L 129.615351 -109.620323 
L 130.155311 -110.004068 
L 130.695271 -110.38744 
L 131.23523 -110.770393 
L 131.77519 -111.152884 
L 132.31515 -111.534865 
L 132.85511 -111.916293 
L 133.39507 -112.297121 
L 133.93503 -112.677303 
L 134.47499 -113.056793 
L 135.01495 -113.435546 
L 135.55491 -113.813513 
L 136.09487 -114.190649 
L 136.63483 -114.566907 
L 137.17479 -114.942239 
L 137.714749 -115.316599 
L 138.254709 -115.68994 
L 138.794669 -116.062214 
L 139.334629 -116.433373 
L 139.874589 -116.803369 
L 140.414549 -117.172156 
L 140.954509 -117.539685 
L 141.494469 -117.905909 
L 142.034429 -118.270779 
L 142.574389 -118.634248 
L 143.114349 -118.996268 
L 143.654309 -119.356789 
L 144.194269 -119.715765 
L 144.734228 -120.073148 
L 145.274188 -120.428888 
L 145.814148 -120.782939 
L 146.354108 -121.135251 
L 146.894068 -121.485777 
L 147.434028 -121.834469 
L 147.973988 -122.18128 
L 148.513948 -122.52616 
L 149.053908 -122.869062 
L 149.593868 -123.209939 
L 150.133828 -123.548743 
L 150.673788 -123.885425 
L 151.213747 -124.21994 
L 151.753707 -124.552239 
L 152.293667 -124.882276 
L 152.833627 -125.210003 
L 153.373587 -125.535373 
L 153.913547 -125.858341 
L 154.453507 -126.178858 
L 154.993467 -126.49688 
L 155.533427 -126.81236 
L 156.073387 -127.125251 
L 156.613347 -127.435509 
L 157.153307 -127.743088 
L 157.693267 -128.047943 
L 158.233226 -128.350029 
L 158.773186 -128.6493 
L 159.313146 -128.945714 
L 159.853106 -129.239226 
L 160.393066 -129.529791 
L 160.933026 -129.817367 
L 161.472986 -130.101911 
L 162.012946 -130.383379 
L 162.552906 -130.661729 
L 163.092866 -130.93692 
L 163.632826 -131.208909 
L 164.172786 -131.477655 
L 164.712745 -131.743118 
L 165.252705 -132.005255 
L 165.792665 -132.264029 
L 166.332625 -132.519398 
L 166.872585 -132.771323 
L 167.412545 -133.019766 
L 167.952505 -133.264689 
L 168.492465 -133.506052 
L 169.032425 -133.743819 
L 169.572385 -133.977953 
L 170.112345 -134.208417 
L 170.652305 -134.435176 
L 171.192265 -134.658193 
L 171.732224 -134.877434 
L 172.272184 -135.092864 
L 172.812144 -135.304449 
L 173.352104 -135.512157 
L 173.892064 -135.715953 
L 174.432024 -135.915807 
L 174.971984 -136.111686 
L 175.511944 -136.303558 
L 176.051904 -136.491395 
L 176.591864 -136.675164 
L 177.131824 -136.854839 
L 177.671784 -137.030388 
L 178.211743 -137.201785 
L 178.751703 -137.369002 
L 179.291663 -137.532012 
L 179.831623 -137.690789 
L 180.371583 -137.845308 
L 180.911543 -137.995542 
L 181.451503 -138.141469 
L 181.991463 -138.283064 
L 182.531423 -138.420305 
L 183.071383 -138.55317 
L 183.611343 -138.681636 
L 184.151303 -138.805684 
L 184.691263 -138.925292 
L 185.231222 -139.040441 
L 185.771182 -139.151113 
L 186.311142 -139.25729 
L 186.851102 -139.358954 
L 187.391062 -139.456089 
L 187.931022 -139.548679 
L 188.470982 -139.636708 
L 189.010942 -139.720163 
L 189.550902 -139.799029 
L 190.090862 -139.873294 
L 190.630822 -139.942946 
L 191.170782 -140.007973 
L 191.710741 -140.068364 
L 192.250701 -140.12411 
L 192.790661 -140.175201 
L 193.330621 -140.221629 
L 193.870581 -140.263386 
L 194.410541 -140.300466 
L 194.950501 -140.332862 
L 195.490461 -140.36057 
L 196.030421 -140.383583 
L 196.570381 -140.4019 
L 197.110341 -140.415516 
L 197.650301 -140.42443 
L 198.190261 -140.428639 
L 198.73022 -140.428144 
L 199.27018 -140.422945 
L 199.81014 -140.413041 
L 200.3501 -140.398436 
L 200.89006 -140.37913 
L 201.43002 -140.355128 
L 201.96998 -140.326434 
L 202.50994 -140.293051 
L 203.0499 -140.254986 
L 203.58986 -140.212245 
L 204.12982 -140.164835 
L 204.66978 -140.112764 
L 205.209739 -140.05604 
L 205.749699 -139.994672 
L 206.289659 -139.928671 
L 206.829619 -139.858048 
L 207.369579 -139.782813 
L 207.909539 -139.70298 
L 208.449499 -139.618562 
L 208.989459 -139.529571 
L 209.529419 -139.436024 
L 210.069379 -139.337934 
L 210.609339 -139.235319 
L 211.149299 -139.128195 
L 211.689259 -139.016579 
L 212.229218 -138.900489 
L 212.769178 -138.779945 
L 213.309138 -138.654966 
L 213.849098 -138.525573 
L 214.389058 -138.391785 
L 214.929018 -138.253626 
L 215.468978 -138.111117 
L 216.008938 -137.964282 
L 216.548898 -137.813144 
L 217.088858 -137.657727 
L 217.628818 -137.498057 
L 218.168778 -137.334159 
L 218.708737 -137.16606 
L 219.248697 -136.993787 
L 219.788657 -136.817367 
L 220.328617 -136.636828 
L 220.868577 -136.4522 
L 221.408537 -136.263512 
L 221.948497 -136.070794 
L 222.488457 -135.874076 
L 223.028417 -135.67339 
L 223.568377 -135.468767 
L 224.108337 -135.260241 
L 224.648297 -135.047844 
L 225.188257 -134.831609 
L 225.728216 -134.61157 
L 226.268176 -134.387763 
L 226.808136 -134.160221 
L 227.348096 -133.928982 
L 227.888056 -133.69408 
L 228.428016 -133.455553 
L 228.967976 -133.213438 
L 229.507936 -132.967771 
L 230.047896 -132.718592 
L 230.587856 -132.465939 
L 231.127816 -132.20985 
L 231.667776 -131.950365 
L 232.207735 -131.687525 
L 232.747695 -131.421368 
L 233.287655 -131.151936 
L 233.827615 -130.879269 
L 234.367575 -130.60341 
L 234.907535 -130.3244 
L 235.447495 -130.042281 
L 235.987455 -129.757096 
L 236.527415 -129.468887 
L 237.067375 -129.177698 
L 237.607335 -128.883572 
L 238.147295 -128.586553 
L 238.687255 -128.286685 
L 239.227214 -127.984013 
L 239.767174 -127.678581 
L 240.307134 -127.370435 
L 240.847094 -127.059619 
L 241.387054 -126.746179 
L 241.927014 -126.43016 
L 242.466974 -126.11161 
L 243.006934 -125.790573 
L 243.546894 -125.467096 
L 244.086854 -125.141225 
L 244.626814 -124.813008 
L 245.166774 -124.482492 
L 245.706733 -124.149722 
L 246.246693 -123.814747 
L 246.786653 -123.477614 
L 247.326613 -123.13837 
L 247.866573 -122.797063 
L 248.406533 -122.453741 
L 248.946493 -122.10845 
L 249.486453 -121.76124 
L 250.026413 -121.412158 
L 250.566373 -121.061252 
L 251.106333 -120.70857 
L 251.646293 -120.354159 
L 252.186253 -119.998069 
L 252.726212 -119.640348 
L 253.266172 -119.281042 
L 253.806132 -118.920202 
L 254.346092 -118.557873 
L 254.886052 -118.194105 
L 255.426012 -117.828946 
L 255.965972 -117.462444 
L 256.505932 -117.094646 
L 257.045892 -116.7256 
L 257.585852 -116.355355 
L 258.125812 -115.983958 
L 258.665772 -115.611456 
L 259.205731 -115.237897 
L 259.745691 -114.863328 
L 260.285651 -114.487797 
L 260.825611 -114.11135 
L 261.365571 -113.734035 
L 261.905531 -113.355899 
L 262.445491 -112.976988 
L 262.985451 -112.597348 
L 263.525411 -112.217026 
L 264.065371 -111.836068 
L 264.605331 -111.45452 
L 265.145291 -111.072427 
L 265.685251 -110.689836 
L 266.22521 -110.306791 
L 266.76517 -109.923337 
L 267.30513 -109.539519 
L 267.84509 -109.155381 
L 268.38505 -108.770969 
L 268.92501 -108.386325 
L 269.46497 -108.001494 
L 270.00493 -107.616519 
L 270.54489 -107.231443 
L 271.08485 -106.846309 
L 271.62481 -106.46116 
L 272.16477 -106.076037 
L 272.704729 -105.690984 
L 273.244689 -105.30604 
L 273.784649 -104.921248 
L 274.324609 -104.536649 
L 274.864569 -104.152283 
L 275.404529 -103.76819 
L 275.944489 -103.384411 
L 276.484449 -103.000984 
L 277.024409 -102.617949 
L 277.564369 -102.235345 
L 278.104329 -101.85321 
L 278.644289 -101.471582 
L 279.184248 -101.090498 
L 279.724208 -100.709997 
L 280.264168 -100.330114 
L 280.804128 -99.950887 
L 281.344088 -99.572351 
L 281.884048 -99.194541 
L 282.424008 -98.817494 
L 282.963968 -98.441243 
L 283.503928 -98.065823 
L 284.043888 -97.691269 
L 284.583848 -97.317613 
L 285.123808 -96.944888 
L 285.663768 -96.573127 
L 286.203727 -96.202363 
L 286.743687 -95.832626 
L 287.283647 -95.463949 
L 287.823607 -95.096362 
L 288.363567 -94.729894 
L 288.903527 -94.364578 
L 289.443487 -94.00044 
L 289.983447 -93.637511 
L 290.523407 -93.27582 
L 291.063367 -92.915393 
L 291.603327 -92.556259 
L 292.143287 -92.198445 
L 292.683246 -91.841977 
L 293.223206 -91.486882 
L 293.763166 -91.133184 
L 294.303126 -90.78091 
L 294.843086 -90.430085 
L 295.383046 -90.080731 
L 295.923006 -89.732874 
L 296.462966 -89.386535 
L 297.002926 -89.041739 
L 297.542886 -88.698508 
L 298.082846 -88.356863 
L 298.622806 -88.016825 
L 299.162766 -87.678416 
L 299.702725 -87.341656 
L 300.242685 -87.006565 
L 300.782645 -86.673163 
L 301.322605 -86.341468 
L 301.862565 -86.011498 
L 302.402525 -85.683273 
L 302.942485 -85.356809 
L 303.482445 -85.032123 
L 304.022405 -84.709233 
L 304.562365 -84.388154 
L 305.102325 -84.068902 
L 305.642285 -83.751492 
L 306.182244 -83.435938 
L 306.722204 -83.122256 
L 307.262164 -82.810459 
L 307.802124 -82.50056 
L 308.342084 -82.192573 
L 308.882044 -81.886509 
L 309.422004 -81.58238 
L 309.961964 -81.280199 
L 310.501924 -80.979976 
L 311.041884 -80.681722 
L 311.581844 -80.385447 
L 312.121804 -80.09116 
L 312.661764 -79.798872 
L 313.201723 -79.508591 
L 313.741683 -79.220325 
L 314.281643 -78.934083 
L 314.821603 -78.649872 
L 315.361563 -78.367699 
L 315.901523 -78.087571 
L 316.441483 -77.809494 
L 316.981443 -77.533475 
L 317.521403 -77.259518 
L 318.061363 -76.98763 
L 318.601323 -76.717814 
L 319.141283 -76.450075 
L 319.681242 -76.184417 
L 320.221202 -75.920843 
L 320.761162 -75.659357 
L 321.301122 -75.399962 
L 321.841082 -75.142659 
L 322.381042 -74.887451 
L 322.921002 -74.63434 
L 323.460962 -74.383326 
L 324.000922 -74.134412 
L 324.540882 -73.887596 
L 325.080842 -73.64288 
L 325.620802 -73.400263 
L 326.160762 -73.159746 
L 326.700721 -72.921326 
L 327.240681 -72.685004 
L 327.780641 -72.450777 
L 328.320601 -72.218645 
L 328.860561 -71.988603 
L 329.400521 -71.760651 
L 329.940481 -71.534786 
L 330.480441 -71.311004 
L 331.020401 -71.089303 
L 331.560361 -70.869678 
L 332.100321 -70.652126 
L 332.640281 -70.436642 
L 333.18024 -70.223223 
L 333.7202 -70.011862 
L 334.26016 -69.802556 
L 334.80012 -69.595299 
L 335.34008 -69.390085 
L 335.88004 -69.186908 
L 336.42 -68.985763 
L 336.42 -54.722673 
L 336.42 -54.722673 
L 335.88004 -54.722673 
L 335.34008 -54.722673 
L 334.80012 -54.722673 
L 334.26016 -54.722673 
L 333.7202 -54.722673 
L 333.18024 -54.722673 
L 332.640281 -54.722673 
L 332.100321 -54.722673 
L 331.560361 -54.722673 
L 331.020401 -54.722673 
L 330.480441 -54.722673 
L 329.940481 -54.722673 
L 329.400521 -54.722673 
L 328.860561 -54.722673 
L 328.320601 -54.722673 
L 327.780641 -54.722673 
L 327.240681 -54.722673 
L 326.700721 -54.722673 
L 326.160762 -54.722673 
L 325.620802 -54.722673 
L 325.080842 -54.722673 
L 324.540882 -54.722673 
L 324.000922 -54.722673 
L 323.460962 -54.722673 
L 322.921002 -54.722673 
L 322.381042 -54.722673 
L 321.841082 -54.722673 
L 321.301122 -54.722673 
L 320.761162 -54.722673 
L 320.221202 -54.722673 
L 319.681242 -54.722673 
L 319.141283 -54.722673 
L 318.601323 -54.722673 
L 318.061363 -54.722673 
L 317.521403 -54.722673 
L 316.981443 -54.722673 
L 316.441483 -54.722673 
L 315.901523 -54.722673 
L 315.361563 -54.722673 
L 314.821603 -54.722673 
L 314.281643 -54.722673 
L 313.741683 -54.722673 
L 313.201723 -54.722673 
L 312.661764 -54.722673 
L 312.121804 -54.722673 
L 311.581844 -54.722673 
L 311.041884 -54.722673 
L 310.501924 -54.722673 
L 309.961964 -54.722673 
L 309.422004 -54.722673 
L 308.882044 -54.722673 
L 308.342084 -54.722673 
L 307.802124 -54.722673 
L 307.262164 -54.722673 
L 306.722204 -54.722673 
L 306.182244 -54.722673 
L 305.642285 -54.722673 
L 305.102325 -54.722673 
L 304.562365 -54.722673 
L 304.022405 -54.722673 
L 303.482445 -54.722673 
L 302.942485 -54.722673 
L 302.402525 -54.722673 
L 301.862565 -54.722673 
L 301.322605 -54.722673 
L 300.782645 -54.722673 
L 300.242685 -54.722673 
L 299.702725 -54.722673 
L 299.162766 -54.722673 
L 298.622806 -54.722673 
L 298.082846 -54.722673 
L 297.542886 -54.722673 
L 297.002926 -54.722673 
L 296.462966 -54.722673 
L 295.923006 -54.722673 
L 295.383046 -54.722673 
L 294.843086 -54.722673 
L 294.303126 -54.722673 
L 293.763166 -54.722673 
L 293.223206 -54.722673 
L 292.683246 -54.722673 
L 292.143287 -54.722673 
L 291.603327 -54.722673 
L 291.063367 -54.722673 
L 290.523407 -54.722673 
L 289.983447 -54.722673 
L 289.443487 -54.722673 
L 288.903527 -54.722673 
L 288.363567 -54.722673 
L 287.823607 -54.722673 
L 287.283647 -54.722673 
L 286.743687 -54.722673 
L 286.203727 -54.722673 
L 285.663768 -54.722673 
L 285.123808 -54.722673 
L 284.583848 -54.722673 
L 284.043888 -54.722673 
L 283.503928 -54.722673 
L 282.963968 -54.722673 
L 282.424008 -54.722673 
L 281.884048 -54.722673 
L 281.344088 -54.722673 
L 280.804128 -54.722673 
L 280.264168 -54.722673 
L 279.724208 -54.722673 
L 279.184248 -54.722673 
L 278.644289 -54.722673 
L 278.104329 -54.722673 
L 277.564369 -54.722673 
L 277.024409 -54.722673 
L 276.484449 -54.722673 
L 275.944489 -54.722673 
L 275.404529 -54.722673 
L 274.864569 -54.722673 
L 274.324609 -54.722673 
L 273.784649 -54.722673 
L 273.244689 -54.722673 
L 272.704729 -54.722673 
L 272.16477 -54.722673 
L 271.62481 -54.722673 
L 271.08485 -54.722673 
L 270.54489 -54.722673 
L 270.00493 -54.722673 
L 269.46497 -54.722673 
L 268.92501 -54.722673 
L 268.38505 -54.722673 
L 267.84509 -54.722673 
L 267.30513 -54.722673 
L 266.76517 -54.722673 
L 266.22521 -54.722673 
L 265.685251 -54.722673 
L 265.145291 -54.722673 
L 264.605331 -54.722673 
L 264.065371 -54.722673 
L 263.525411 -54.722673 
L 262.985451 -54.722673 
L 262.445491 -54.722673 
L 261.905531 -54.722673 
L 261.365571 -54.722673 
L 260.825611 -54.722673 
L 260.285651 -54.722673 
L 259.745691 -54.722673 
L 259.205731 -54.722673 
L 258.665772 -54.722673 
L 258.125812 -54.722673 
L 257.585852 -54.722673 
L 257.045892 -54.722673 
L 256.505932 -54.722673 
L 255.965972 -54.722673 
L 255.426012 -54.722673 
L 254.886052 -54.722673 
L 254.346092 -54.722673 
L 253.806132 -54.722673 
L 253.266172 -54.722673 
L 252.726212 -54.722673 
L 252.186253 -54.722673 
L 251.646293 -54.722673 
L 251.106333 -54.722673 
L 250.566373 -54.722673 
L 250.026413 -54.722673 
L 249.486453 -54.722673 
L 248.946493 -54.722673 
L 248.406533 -54.722673 
L 247.866573 -54.722673 
L 247.326613 -54.722673 
L 246.786653 -54.722673 
L 246.246693 -54.722673 
L 245.706733 -54.722673 
L 245.166774 -54.722673 
L 244.626814 -54.722673 
L 244.086854 -54.722673 
L 243.546894 -54.722673 
L 243.006934 -54.722673 
L 242.466974 -54.722673 
L 241.927014 -54.722673 
L 241.387054 -54.722673 
L 240.847094 -54.722673 
L 240.307134 -54.722673 
L 239.767174 -54.722673 
L 239.227214 -54.722673 
L 238.687255 -54.722673 
L 238.147295 -54.722673 
L 237.607335 -54.722673 
L 237.067375 -54.722673 
L 236.527415 -54.722673 
L 235.987455 -54.722673 
L 235.447495 -54.722673 
L 234.907535 -54.722673 
L 234.367575 -54.722673 
L 233.827615 -54.722673 
L 233.287655 -54.722673 
L 232.747695 -54.722673 
L 232.207735 -54.722673 
L 231.667776 -54.722673 
L 231.127816 -54.722673 
L 230.587856 -54.722673 
L 230.047896 -54.722673 
L 229.507936 -54.722673 
L 228.967976 -54.722673 
L 228.428016 -54.722673 
L 227.888056 -54.722673 
L 227.348096 -54.722673 
L 226.808136 -54.722673 
L 226.268176 -54.722673 
L 225.728216 -54.722673 
L 225.188257 -54.722673 
L 224.648297 -54.722673 
L 224.108337 -54.722673 
L 223.568377 -54.722673 
L 223.028417 -54.722673 
L 222.488457 -54.722673 
L 221.948497 -54.722673 
L 221.408537 -54.722673 
L 220.868577 -54.722673 
L 220.328617 -54.722673 
L 219.788657 -54.722673 
L 219.248697 -54.722673 
L 218.708737 -54.722673 
L 218.168778 -54.722673 
L 217.628818 -54.722673 
L 217.088858 -54.722673 
L 216.548898 -54.722673 
L 216.008938 -54.722673 
L 215.468978 -54.722673 
L 214.929018 -54.722673 
L 214.389058 -54.722673 
L 213.849098 -54.722673 
L 213.309138 -54.722673 
L 212.769178 -54.722673 
L 212.229218 -54.722673 
L 211.689259 -54.722673 
L 211.149299 -54.722673 
L 210.609339 -54.722673 
L 210.069379 -54.722673 
L 209.529419 -54.722673 
L 208.989459 -54.722673 
L 208.449499 -54.722673 
L 207.909539 -54.722673 
L 207.369579 -54.722673 
L 206.829619 -54.722673 
L 206.289659 -54.722673 
L 205.749699 -54.722673 
L 205.209739 -54.722673 
L 204.66978 -54.722673 
L 204.12982 -54.722673 
L 203.58986 -54.722673 
L 203.0499 -54.722673 
L 202.50994 -54.722673 
L 201.96998 -54.722673 
L 201.43002 -54.722673 
L 200.89006 -54.722673 
L 200.3501 -54.722673 
L 199.81014 -54.722673 
L 199.27018 -54.722673 
L 198.73022 -54.722673 
L 198.190261 -54.722673 
L 197.650301 -54.722673 
L 197.110341 -54.722673 
L 196.570381 -54.722673 
L 196.030421 -54.722673 
L 195.490461 -54.722673 
L 194.950501 -54.722673 
L 194.410541 -54.722673 
L 193.870581 -54.722673 
L 193.330621 -54.722673 
L 192.790661 -54.722673 
L 192.250701 -54.722673 
L 191.710741 -54.722673 
L 191.170782 -54.722673 
L 190.630822 -54.722673 
L 190.090862 -54.722673 
L 189.550902 -54.722673 
L 189.010942 -54.722673 
L 188.470982 -54.722673 
L 187.931022 -54.722673 
L 187.391062 -54.722673 
L 186.851102 -54.722673 
L 186.311142 -54.722673 
L 185.771182 -54.722673 
L 185.231222 -54.722673 
L 184.691263 -54.722673 
L 184.151303 -54.722673 
L 183.611343 -54.722673 
L 183.071383 -54.722673 
L 182.531423 -54.722673 
L 181.991463 -54.722673 
L 181.451503 -54.722673 
L 180.911543 -54.722673 
L 180.371583 -54.722673 
L 179.831623 -54.722673 
L 179.291663 -54.722673 
L 178.751703 -54.722673 
L 178.211743 -54.722673 
L 177.671784 -54.722673 
L 177.131824 -54.722673 
L 176.591864 -54.722673 
L 176.051904 -54.722673 
L 175.511944 -54.722673 
L 174.971984 -54.722673 
L 174.432024 -54.722673 
L 173.892064 -54.722673 
L 173.352104 -54.722673 
L 172.812144 -54.722673 
L 172.272184 -54.722673 
L 171.732224 -54.722673 
L 171.192265 -54.722673 
L 170.652305 -54.722673 
L 170.112345 -54.722673 
L 169.572385 -54.722673 
L 169.032425 -54.722673 
L 168.492465 -54.722673 
L 167.952505 -54.722673 
L 167.412545 -54.722673 
L 166.872585 -54.722673 
L 166.332625 -54.722673 
L 165.792665 -54.722673 
L 165.252705 -54.722673 
L 164.712745 -54.722673 
L 164.172786 -54.722673 
L 163.632826 -54.722673 
L 163.092866 -54.722673 
L 162.552906 -54.722673 
L 162.012946 -54.722673 
L 161.472986 -54.722673 
L 160.933026 -54.722673 
L 160.393066 -54.722673 
L 159.853106 -54.722673 
L 159.313146 -54.722673 
L 158.773186 -54.722673 
L 158.233226 -54.722673 
L 157.693267 -54.722673 
L 157.153307 -54.722673 
L 156.613347 -54.722673 
L 156.073387 -54.722673 
L 155.533427 -54.722673 
L 154.993467 -54.722673 
L 154.453507 -54.722673 
L 153.913547 -54.722673 
L 153.373587 -54.722673 
L 152.833627 -54.722673 
L 152.293667 -54.722673 
L 151.753707 -54.722673 
L 151.213747 -54.722673 
L 150.673788 -54.722673 
L 150.133828 -54.722673 
L 149.593868 -54.722673 
L 149.053908 -54.722673 
L 148.513948 -54.722673 
L 147.973988 -54.722673 
L 147.434028 -54.722673 
L 146.894068 -54.722673 
L 146.354108 -54.722673 
L 145.814148 -54.722673 
L 145.274188 -54.722673 
L 144.734228 -54.722673 
L 144.194269 -54.722673 
L 143.654309 -54.722673 
L 143.114349 -54.722673 
L 142.574389 -54.722673 
L 142.034429 -54.722673 
L 141.494469 -54.722673 
L 140.954509 -54.722673 
L 140.414549 -54.722673 
L 139.874589 -54.722673 
L 139.334629 -54.722673 
L 138.794669 -54.722673 
L 138.254709 -54.722673 
L 137.714749 -54.722673 
L 137.17479 -54.722673 
L 136.63483 -54.722673 
L 136.09487 -54.722673 
L 135.55491 -54.722673 
L 135.01495 -54.722673 
L 134.47499 -54.722673 
L 133.93503 -54.722673 
L 133.39507 -54.722673 
L 132.85511 -54.722673 
L 132.31515 -54.722673 
L 131.77519 -54.722673 
L 131.23523 -54.722673 
L 130.695271 -54.722673 
L 130.155311 -54.722673 
L 129.615351 -54.722673 
L 129.075391 -54.722673 
L 128.535431 -54.722673 
L 127.995471 -54.722673 
L 127.455511 -54.722673 
L 126.915551 -54.722673 
L 126.375591 -54.722673 
L 125.835631 -54.722673 
L 125.295671 -54.722673 
L 124.755711 -54.722673 
L 124.215752 -54.722673 
L 123.675792 -54.722673 
L 123.135832 -54.722673 
L 122.595872 -54.722673 
L 122.055912 -54.722673 
L 121.515952 -54.722673 
L 120.975992 -54.722673 
L 120.436032 -54.722673 
L 119.896072 -54.722673 
L 119.356112 -54.722673 
L 118.816152 -54.722673 
L 118.276192 -54.722673 
L 117.736232 -54.722673 
L 117.196273 -54.722673 
L 116.656313 -54.722673 
L 116.116353 -54.722673 
L 115.576393 -54.722673 
L 115.036433 -54.722673 
L 114.496473 -54.722673 
L 113.956513 -54.722673 
L 113.416553 -54.722673 
L 112.876593 -54.722673 
L 112.336633 -54.722673 
L 111.796673 -54.722673 
L 111.256713 -54.722673 
L 110.716754 -54.722673 
L 110.176794 -54.722673 
L 109.636834 -54.722673 
L 109.096874 -54.722673 
L 108.556914 -54.722673 
L 108.016954 -54.722673 
L 107.476994 -54.722673 
L 106.937034 -54.722673 
L 106.397074 -54.722673 
L 105.857114 -54.722673 
L 105.317154 -54.722673 
L 104.777194 -54.722673 
L 104.237234 -54.722673 
L 103.697275 -54.722673 
L 103.157315 -54.722673 
L 102.617355 -54.722673 
L 102.077395 -54.722673 
L 101.537435 -54.722673 
L 100.997475 -54.722673 
L 100.457515 -54.722673 
L 99.917555 -54.722673 
L 99.377595 -54.722673 
L 98.837635 -54.722673 
L 98.297675 -54.722673 
L 97.757715 -54.722673 
L 97.217756 -54.722673 
L 96.677796 -54.722673 
L 96.137836 -54.722673 
L 95.597876 -54.722673 
L 95.057916 -54.722673 
L 94.517956 -54.722673 
L 93.977996 -54.722673 
L 93.438036 -54.722673 
L 92.898076 -54.722673 
L 92.358116 -54.722673 
L 91.818156 -54.722673 
L 91.278196 -54.722673 
L 90.738236 -54.722673 
L 90.198277 -54.722673 
L 89.658317 -54.722673 
L 89.118357 -54.722673 
L 88.578397 -54.722673 
L 88.038437 -54.722673 
L 87.498477 -54.722673 
L 86.958517 -54.722673 
L 86.418557 -54.722673 
L 85.878597 -54.722673 
L 85.338637 -54.722673 
L 84.798677 -54.722673 
L 84.258717 -54.722673 
L 83.718758 -54.722673 
L 83.178798 -54.722673 
L 82.638838 -54.722673 
L 82.098878 -54.722673 
L 81.558918 -54.722673 
L 81.018958 -54.722673 
L 80.478998 -54.722673 
L 79.939038 -54.722673 
L 79.399078 -54.722673 
L 78.859118 -54.722673 
L 78.319158 -54.722673 
L 77.779198 -54.722673 
L 77.239238 -54.722673 
L 76.699279 -54.722673 
L 76.159319 -54.722673 
L 75.619359 -54.722673 
L 75.079399 -54.722673 
L 74.539439 -54.722673 
L 73.999479 -54.722673 
L 73.459519 -54.722673 
L 72.919559 -54.722673 
L 72.379599 -54.722673 
L 71.839639 -54.722673 
L 71.299679 -54.722673 
L 70.759719 -54.722673 
L 70.21976 -54.722673 
L 69.6798 -54.722673 
L 69.13984 -54.722673 
L 68.59988 -54.722673 
L 68.05992 -54.722673 
L 67.51996 -54.722673 
L 66.98 -54.722673 
z
" style="stroke: #ff0000; stroke-opacity: 0.3"/>
    </defs>
    <g clip-path="url(#p0d83100bf4)">
     <use xlink:href="#m4f5f887630" x="0" y="242.64" style="fill: #ff0000; fill-opacity: 0.3; stroke: #ff0000; stroke-opacity: 0.3"/>
    </g>
   </g>
   <g id="matplotlib.axis_1">
    <g id="xtick_1">
     <g id="line2d_1">
      <defs>
       <path id="m772a0833e8" d="M 0 0 
L 0 3.5 
" style="stroke: #000000; stroke-width: 0.8"/>
      </defs>
      <g>
       <use xlink:href="#m772a0833e8" x="66.98" y="195.504933" style="stroke: #000000; stroke-width: 0.8"/>
      </g>
     </g>
     <g id="text_1">
      <!-- 0 -->
      <g transform="translate(63.79875 210.103371) scale(0.1 -0.1)">
       <defs>
        <path id="DejaVuSans-30" d="M 2034 4250 
Q 1547 4250 1301 3770 
Q 1056 3291 1056 2328 
Q 1056 1369 1301 889 
Q 1547 409 2034 409 
Q 2525 409 2770 889 
Q 3016 1369 3016 2328 
Q 3016 3291 2770 3770 
Q 2525 4250 2034 4250 
z
M 2034 4750 
Q 2819 4750 3233 4129 
Q 3647 3509 3647 2328 
Q 3647 1150 3233 529 
Q 2819 -91 2034 -91 
Q 1250 -91 836 529 
Q 422 1150 422 2328 
Q 422 3509 836 4129 
Q 1250 4750 2034 4750 
z
" transform="scale(0.015625)"/>
       </defs>
       <use xlink:href="#DejaVuSans-30"/>
      </g>
     </g>
    </g>
    <g id="xtick_2">
     <g id="line2d_2">
      <g>
       <use xlink:href="#m772a0833e8" x="100.66" y="195.504933" style="stroke: #000000; stroke-width: 0.8"/>
      </g>
     </g>
     <g id="text_2">
      <!-- 250 -->
      <g transform="translate(91.11625 210.103371) scale(0.1 -0.1)">
       <defs>
        <path id="DejaVuSans-32" d="M 1228 531 
L 3431 531 
L 3431 0 
L 469 0 
L 469 531 
Q 828 903 1448 1529 
Q 2069 2156 2228 2338 
Q 2531 2678 2651 2914 
Q 2772 3150 2772 3378 
Q 2772 3750 2511 3984 
Q 2250 4219 1831 4219 
Q 1534 4219 1204 4116 
Q 875 4013 500 3803 
L 500 4441 
Q 881 4594 1212 4672 
Q 1544 4750 1819 4750 
Q 2544 4750 2975 4387 
Q 3406 4025 3406 3419 
Q 3406 3131 3298 2873 
Q 3191 2616 2906 2266 
Q 2828 2175 2409 1742 
Q 1991 1309 1228 531 
z
" transform="scale(0.015625)"/>
        <path id="DejaVuSans-35" d="M 691 4666 
L 3169 4666 
L 3169 4134 
L 1269 4134 
L 1269 2991 
Q 1406 3038 1543 3061 
Q 1681 3084 1819 3084 
Q 2600 3084 3056 2656 
Q 3513 2228 3513 1497 
Q 3513 744 3044 326 
Q 2575 -91 1722 -91 
Q 1428 -91 1123 -41 
Q 819 9 494 109 
L 494 744 
Q 775 591 1075 516 
Q 1375 441 1709 441 
Q 2250 441 2565 725 
Q 2881 1009 2881 1497 
Q 2881 1984 2565 2268 
Q 2250 2553 1709 2553 
Q 1456 2553 1204 2497 
Q 953 2441 691 2322 
L 691 4666 
z
" transform="scale(0.015625)"/>
       </defs>
       <use xlink:href="#DejaVuSans-32"/>
       <use xlink:href="#DejaVuSans-35" transform="translate(63.623047 0)"/>
       <use xlink:href="#DejaVuSans-30" transform="translate(127.246094 0)"/>
      </g>
     </g>
    </g>
    <g id="xtick_3">
     <g id="line2d_3">
      <g>
       <use xlink:href="#m772a0833e8" x="134.34" y="195.504933" style="stroke: #000000; stroke-width: 0.8"/>
      </g>
     </g>
     <g id="text_3">
      <!-- 500 -->
      <g transform="translate(124.79625 210.103371) scale(0.1 -0.1)">
       <use xlink:href="#DejaVuSans-35"/>
       <use xlink:href="#DejaVuSans-30" transform="translate(63.623047 0)"/>
       <use xlink:href="#DejaVuSans-30" transform="translate(127.246094 0)"/>
      </g>
     </g>
    </g>
    <g id="xtick_4">
     <g id="line2d_4">
      <g>
       <use xlink:href="#m772a0833e8" x="168.02" y="195.504933" style="stroke: #000000; stroke-width: 0.8"/>
      </g>
     </g>
     <g id="text_4">
      <!-- 750 -->
      <g transform="translate(158.47625 210.103371) scale(0.1 -0.1)">
       <defs>
        <path id="DejaVuSans-37" d="M 525 4666 
L 3525 4666 
L 3525 4397 
L 1831 0 
L 1172 0 
L 2766 4134 
L 525 4134 
L 525 4666 
z
" transform="scale(0.015625)"/>
       </defs>
       <use xlink:href="#DejaVuSans-37"/>
       <use xlink:href="#DejaVuSans-35" transform="translate(63.623047 0)"/>
       <use xlink:href="#DejaVuSans-30" transform="translate(127.246094 0)"/>
      </g>
     </g>
    </g>
    <g id="xtick_5">
     <g id="line2d_5">
      <g>
       <use xlink:href="#m772a0833e8" x="201.7" y="195.504933" style="stroke: #000000; stroke-width: 0.8"/>
      </g>
     </g>
     <g id="text_5">
      <!-- 1000 -->
      <g transform="translate(188.975 210.103371) scale(0.1 -0.1)">
       <defs>
        <path id="DejaVuSans-31" d="M 794 531 
L 1825 531 
L 1825 4091 
L 703 3866 
L 703 4441 
L 1819 4666 
L 2450 4666 
L 2450 531 
L 3481 531 
L 3481 0 
L 794 0 
L 794 531 
z
" transform="scale(0.015625)"/>
       </defs>
       <use xlink:href="#DejaVuSans-31"/>
       <use xlink:href="#DejaVuSans-30" transform="translate(63.623047 0)"/>
       <use xlink:href="#DejaVuSans-30" transform="translate(127.246094 0)"/>
       <use xlink:href="#DejaVuSans-30" transform="translate(190.869141 0)"/>
      </g>
     </g>
    </g>
    <g id="xtick_6">
     <g id="line2d_6">
      <g>
       <use xlink:href="#m772a0833e8" x="235.38" y="195.504933" style="stroke: #000000; stroke-width: 0.8"/>
      </g>
     </g>
     <g id="text_6">
      <!-- 1250 -->
      <g transform="translate(222.655 210.103371) scale(0.1 -0.1)">
       <use xlink:href="#DejaVuSans-31"/>
       <use xlink:href="#DejaVuSans-32" transform="translate(63.623047 0)"/>
       <use xlink:href="#DejaVuSans-35" transform="translate(127.246094 0)"/>
       <use xlink:href="#DejaVuSans-30" transform="translate(190.869141 0)"/>
      </g>
     </g>
    </g>
    <g id="xtick_7">
     <g id="line2d_7">
      <g>
       <use xlink:href="#m772a0833e8" x="269.06" y="195.504933" style="stroke: #000000; stroke-width: 0.8"/>
      </g>
     </g>
     <g id="text_7">
      <!-- 1500 -->
      <g transform="translate(256.335 210.103371) scale(0.1 -0.1)">
       <use xlink:href="#DejaVuSans-31"/>
       <use xlink:href="#DejaVuSans-35" transform="translate(63.623047 0)"/>
       <use xlink:href="#DejaVuSans-30" transform="translate(127.246094 0)"/>
       <use xlink:href="#DejaVuSans-30" transform="translate(190.869141 0)"/>
      </g>
     </g>
    </g>
    <g id="xtick_8">
     <g id="line2d_8">
      <g>
       <use xlink:href="#m772a0833e8" x="302.74" y="195.504933" style="stroke: #000000; stroke-width: 0.8"/>
      </g>
     </g>
     <g id="text_8">
      <!-- 1750 -->
      <g transform="translate(290.015 210.103371) scale(0.1 -0.1)">
       <use xlink:href="#DejaVuSans-31"/>
       <use xlink:href="#DejaVuSans-37" transform="translate(63.623047 0)"/>
       <use xlink:href="#DejaVuSans-35" transform="translate(127.246094 0)"/>
       <use xlink:href="#DejaVuSans-30" transform="translate(190.869141 0)"/>
      </g>
     </g>
    </g>
    <g id="xtick_9">
     <g id="line2d_9">
      <g>
       <use xlink:href="#m772a0833e8" x="336.42" y="195.504933" style="stroke: #000000; stroke-width: 0.8"/>
      </g>
     </g>
     <g id="text_9">
      <!-- 2000 -->
      <g transform="translate(323.695 210.103371) scale(0.1 -0.1)">
       <use xlink:href="#DejaVuSans-32"/>
       <use xlink:href="#DejaVuSans-30" transform="translate(63.623047 0)"/>
       <use xlink:href="#DejaVuSans-30" transform="translate(127.246094 0)"/>
       <use xlink:href="#DejaVuSans-30" transform="translate(190.869141 0)"/>
      </g>
     </g>
    </g>
    <g id="text_10">
     <!-- Young's Modulus [Pa] -->
     <g transform="translate(148.946094 223.781496) scale(0.1 -0.1)">
      <defs>
       <path id="DejaVuSans-59" d="M -13 4666 
L 666 4666 
L 1959 2747 
L 3244 4666 
L 3922 4666 
L 2272 2222 
L 2272 0 
L 1638 0 
L 1638 2222 
L -13 4666 
z
" transform="scale(0.015625)"/>
       <path id="DejaVuSans-6f" d="M 1959 3097 
Q 1497 3097 1228 2736 
Q 959 2375 959 1747 
Q 959 1119 1226 758 
Q 1494 397 1959 397 
Q 2419 397 2687 759 
Q 2956 1122 2956 1747 
Q 2956 2369 2687 2733 
Q 2419 3097 1959 3097 
z
M 1959 3584 
Q 2709 3584 3137 3096 
Q 3566 2609 3566 1747 
Q 3566 888 3137 398 
Q 2709 -91 1959 -91 
Q 1206 -91 779 398 
Q 353 888 353 1747 
Q 353 2609 779 3096 
Q 1206 3584 1959 3584 
z
" transform="scale(0.015625)"/>
       <path id="DejaVuSans-75" d="M 544 1381 
L 544 3500 
L 1119 3500 
L 1119 1403 
Q 1119 906 1312 657 
Q 1506 409 1894 409 
Q 2359 409 2629 706 
Q 2900 1003 2900 1516 
L 2900 3500 
L 3475 3500 
L 3475 0 
L 2900 0 
L 2900 538 
Q 2691 219 2414 64 
Q 2138 -91 1772 -91 
Q 1169 -91 856 284 
Q 544 659 544 1381 
z
M 1991 3584 
L 1991 3584 
z
" transform="scale(0.015625)"/>
       <path id="DejaVuSans-6e" d="M 3513 2113 
L 3513 0 
L 2938 0 
L 2938 2094 
Q 2938 2591 2744 2837 
Q 2550 3084 2163 3084 
Q 1697 3084 1428 2787 
Q 1159 2491 1159 1978 
L 1159 0 
L 581 0 
L 581 3500 
L 1159 3500 
L 1159 2956 
Q 1366 3272 1645 3428 
Q 1925 3584 2291 3584 
Q 2894 3584 3203 3211 
Q 3513 2838 3513 2113 
z
" transform="scale(0.015625)"/>
       <path id="DejaVuSans-67" d="M 2906 1791 
Q 2906 2416 2648 2759 
Q 2391 3103 1925 3103 
Q 1463 3103 1205 2759 
Q 947 2416 947 1791 
Q 947 1169 1205 825 
Q 1463 481 1925 481 
Q 2391 481 2648 825 
Q 2906 1169 2906 1791 
z
M 3481 434 
Q 3481 -459 3084 -895 
Q 2688 -1331 1869 -1331 
Q 1566 -1331 1297 -1286 
Q 1028 -1241 775 -1147 
L 775 -588 
Q 1028 -725 1275 -790 
Q 1522 -856 1778 -856 
Q 2344 -856 2625 -561 
Q 2906 -266 2906 331 
L 2906 616 
Q 2728 306 2450 153 
Q 2172 0 1784 0 
Q 1141 0 747 490 
Q 353 981 353 1791 
Q 353 2603 747 3093 
Q 1141 3584 1784 3584 
Q 2172 3584 2450 3431 
Q 2728 3278 2906 2969 
L 2906 3500 
L 3481 3500 
L 3481 434 
z
" transform="scale(0.015625)"/>
       <path id="DejaVuSans-27" d="M 1147 4666 
L 1147 2931 
L 616 2931 
L 616 4666 
L 1147 4666 
z
" transform="scale(0.015625)"/>
       <path id="DejaVuSans-73" d="M 2834 3397 
L 2834 2853 
Q 2591 2978 2328 3040 
Q 2066 3103 1784 3103 
Q 1356 3103 1142 2972 
Q 928 2841 928 2578 
Q 928 2378 1081 2264 
Q 1234 2150 1697 2047 
L 1894 2003 
Q 2506 1872 2764 1633 
Q 3022 1394 3022 966 
Q 3022 478 2636 193 
Q 2250 -91 1575 -91 
Q 1294 -91 989 -36 
Q 684 19 347 128 
L 347 722 
Q 666 556 975 473 
Q 1284 391 1588 391 
Q 1994 391 2212 530 
Q 2431 669 2431 922 
Q 2431 1156 2273 1281 
Q 2116 1406 1581 1522 
L 1381 1569 
Q 847 1681 609 1914 
Q 372 2147 372 2553 
Q 372 3047 722 3315 
Q 1072 3584 1716 3584 
Q 2034 3584 2315 3537 
Q 2597 3491 2834 3397 
z
" transform="scale(0.015625)"/>
       <path id="DejaVuSans-20" transform="scale(0.015625)"/>
       <path id="DejaVuSans-4d" d="M 628 4666 
L 1569 4666 
L 2759 1491 
L 3956 4666 
L 4897 4666 
L 4897 0 
L 4281 0 
L 4281 4097 
L 3078 897 
L 2444 897 
L 1241 4097 
L 1241 0 
L 628 0 
L 628 4666 
z
" transform="scale(0.015625)"/>
       <path id="DejaVuSans-64" d="M 2906 2969 
L 2906 4863 
L 3481 4863 
L 3481 0 
L 2906 0 
L 2906 525 
Q 2725 213 2448 61 
Q 2172 -91 1784 -91 
Q 1150 -91 751 415 
Q 353 922 353 1747 
Q 353 2572 751 3078 
Q 1150 3584 1784 3584 
Q 2172 3584 2448 3432 
Q 2725 3281 2906 2969 
z
M 947 1747 
Q 947 1113 1208 752 
Q 1469 391 1925 391 
Q 2381 391 2643 752 
Q 2906 1113 2906 1747 
Q 2906 2381 2643 2742 
Q 2381 3103 1925 3103 
Q 1469 3103 1208 2742 
Q 947 2381 947 1747 
z
" transform="scale(0.015625)"/>
       <path id="DejaVuSans-6c" d="M 603 4863 
L 1178 4863 
L 1178 0 
L 603 0 
L 603 4863 
z
" transform="scale(0.015625)"/>
       <path id="DejaVuSans-5b" d="M 550 4863 
L 1875 4863 
L 1875 4416 
L 1125 4416 
L 1125 -397 
L 1875 -397 
L 1875 -844 
L 550 -844 
L 550 4863 
z
" transform="scale(0.015625)"/>
       <path id="DejaVuSans-50" d="M 1259 4147 
L 1259 2394 
L 2053 2394 
Q 2494 2394 2734 2622 
Q 2975 2850 2975 3272 
Q 2975 3691 2734 3919 
Q 2494 4147 2053 4147 
L 1259 4147 
z
M 628 4666 
L 2053 4666 
Q 2838 4666 3239 4311 
Q 3641 3956 3641 3272 
Q 3641 2581 3239 2228 
Q 2838 1875 2053 1875 
L 1259 1875 
L 1259 0 
L 628 0 
L 628 4666 
z
" transform="scale(0.015625)"/>
       <path id="DejaVuSans-61" d="M 2194 1759 
Q 1497 1759 1228 1600 
Q 959 1441 959 1056 
Q 959 750 1161 570 
Q 1363 391 1709 391 
Q 2188 391 2477 730 
Q 2766 1069 2766 1631 
L 2766 1759 
L 2194 1759 
z
M 3341 1997 
L 3341 0 
L 2766 0 
L 2766 531 
Q 2569 213 2275 61 
Q 1981 -91 1556 -91 
Q 1019 -91 701 211 
Q 384 513 384 1019 
Q 384 1609 779 1909 
Q 1175 2209 1959 2209 
L 2766 2209 
L 2766 2266 
Q 2766 2663 2505 2880 
Q 2244 3097 1772 3097 
Q 1472 3097 1187 3025 
Q 903 2953 641 2809 
L 641 3341 
Q 956 3463 1253 3523 
Q 1550 3584 1831 3584 
Q 2591 3584 2966 3190 
Q 3341 2797 3341 1997 
z
" transform="scale(0.015625)"/>
       <path id="DejaVuSans-5d" d="M 1947 4863 
L 1947 -844 
L 622 -844 
L 622 -397 
L 1369 -397 
L 1369 4416 
L 622 4416 
L 622 4863 
L 1947 4863 
z
" transform="scale(0.015625)"/>
      </defs>
      <use xlink:href="#DejaVuSans-59"/>
      <use xlink:href="#DejaVuSans-6f" transform="translate(47.833984 0)"/>
      <use xlink:href="#DejaVuSans-75" transform="translate(109.015625 0)"/>
      <use xlink:href="#DejaVuSans-6e" transform="translate(172.394531 0)"/>
      <use xlink:href="#DejaVuSans-67" transform="translate(235.773438 0)"/>
      <use xlink:href="#DejaVuSans-27" transform="translate(299.25 0)"/>
      <use xlink:href="#DejaVuSans-73" transform="translate(326.740234 0)"/>
      <use xlink:href="#DejaVuSans-20" transform="translate(378.839844 0)"/>
      <use xlink:href="#DejaVuSans-4d" transform="translate(410.626953 0)"/>
      <use xlink:href="#DejaVuSans-6f" transform="translate(496.90625 0)"/>
      <use xlink:href="#DejaVuSans-64" transform="translate(558.087891 0)"/>
      <use xlink:href="#DejaVuSans-75" transform="translate(621.564453 0)"/>
      <use xlink:href="#DejaVuSans-6c" transform="translate(684.943359 0)"/>
      <use xlink:href="#DejaVuSans-75" transform="translate(712.726562 0)"/>
      <use xlink:href="#DejaVuSans-73" transform="translate(776.105469 0)"/>
      <use xlink:href="#DejaVuSans-20" transform="translate(828.205078 0)"/>
      <use xlink:href="#DejaVuSans-5b" transform="translate(859.992188 0)"/>
      <use xlink:href="#DejaVuSans-50" transform="translate(899.005859 0)"/>
      <use xlink:href="#DejaVuSans-61" transform="translate(954.808594 0)"/>
      <use xlink:href="#DejaVuSans-5d" transform="translate(1016.087891 0)"/>
     </g>
    </g>
   </g>
   <g id="matplotlib.axis_2">
    <g id="ytick_1">
     <g id="line2d_10">
      <defs>
       <path id="m1bc2d51dee" d="M 0 0 
L -3.5 0 
" style="stroke: #000000; stroke-width: 0.8"/>
      </defs>
      <g>
       <use xlink:href="#m1bc2d51dee" x="66.98" y="187.917327" style="stroke: #000000; stroke-width: 0.8"/>
      </g>
     </g>
     <g id="text_11">
      <!-- 0.0000 -->
      <g transform="translate(24.989375 191.716546) scale(0.1 -0.1)">
       <defs>
        <path id="DejaVuSans-2e" d="M 684 794 
L 1344 794 
L 1344 0 
L 684 0 
L 684 794 
z
" transform="scale(0.015625)"/>
       </defs>
       <use xlink:href="#DejaVuSans-30"/>
       <use xlink:href="#DejaVuSans-2e" transform="translate(63.623047 0)"/>
       <use xlink:href="#DejaVuSans-30" transform="translate(95.410156 0)"/>
       <use xlink:href="#DejaVuSans-30" transform="translate(159.033203 0)"/>
       <use xlink:href="#DejaVuSans-30" transform="translate(222.65625 0)"/>
       <use xlink:href="#DejaVuSans-30" transform="translate(286.279297 0)"/>
      </g>
     </g>
    </g>
    <g id="ytick_2">
     <g id="line2d_11">
      <g>
       <use xlink:href="#m1bc2d51dee" x="66.98" y="164.674101" style="stroke: #000000; stroke-width: 0.8"/>
      </g>
     </g>
     <g id="text_12">
      <!-- 0.0002 -->
      <g transform="translate(24.989375 168.47332) scale(0.1 -0.1)">
       <use xlink:href="#DejaVuSans-30"/>
       <use xlink:href="#DejaVuSans-2e" transform="translate(63.623047 0)"/>
       <use xlink:href="#DejaVuSans-30" transform="translate(95.410156 0)"/>
       <use xlink:href="#DejaVuSans-30" transform="translate(159.033203 0)"/>
       <use xlink:href="#DejaVuSans-30" transform="translate(222.65625 0)"/>
       <use xlink:href="#DejaVuSans-32" transform="translate(286.279297 0)"/>
      </g>
     </g>
    </g>
    <g id="ytick_3">
     <g id="line2d_12">
      <g>
       <use xlink:href="#m1bc2d51dee" x="66.98" y="141.430874" style="stroke: #000000; stroke-width: 0.8"/>
      </g>
     </g>
     <g id="text_13">
      <!-- 0.0004 -->
      <g transform="translate(24.989375 145.230093) scale(0.1 -0.1)">
       <defs>
        <path id="DejaVuSans-34" d="M 2419 4116 
L 825 1625 
L 2419 1625 
L 2419 4116 
z
M 2253 4666 
L 3047 4666 
L 3047 1625 
L 3713 1625 
L 3713 1100 
L 3047 1100 
L 3047 0 
L 2419 0 
L 2419 1100 
L 313 1100 
L 313 1709 
L 2253 4666 
z
" transform="scale(0.015625)"/>
       </defs>
       <use xlink:href="#DejaVuSans-30"/>
       <use xlink:href="#DejaVuSans-2e" transform="translate(63.623047 0)"/>
       <use xlink:href="#DejaVuSans-30" transform="translate(95.410156 0)"/>
       <use xlink:href="#DejaVuSans-30" transform="translate(159.033203 0)"/>
       <use xlink:href="#DejaVuSans-30" transform="translate(222.65625 0)"/>
       <use xlink:href="#DejaVuSans-34" transform="translate(286.279297 0)"/>
      </g>
     </g>
    </g>
    <g id="ytick_4">
     <g id="line2d_13">
      <g>
       <use xlink:href="#m1bc2d51dee" x="66.98" y="118.187648" style="stroke: #000000; stroke-width: 0.8"/>
      </g>
     </g>
     <g id="text_14">
      <!-- 0.0006 -->
      <g transform="translate(24.989375 121.986867) scale(0.1 -0.1)">
       <defs>
        <path id="DejaVuSans-36" d="M 2113 2584 
Q 1688 2584 1439 2293 
Q 1191 2003 1191 1497 
Q 1191 994 1439 701 
Q 1688 409 2113 409 
Q 2538 409 2786 701 
Q 3034 994 3034 1497 
Q 3034 2003 2786 2293 
Q 2538 2584 2113 2584 
z
M 3366 4563 
L 3366 3988 
Q 3128 4100 2886 4159 
Q 2644 4219 2406 4219 
Q 1781 4219 1451 3797 
Q 1122 3375 1075 2522 
Q 1259 2794 1537 2939 
Q 1816 3084 2150 3084 
Q 2853 3084 3261 2657 
Q 3669 2231 3669 1497 
Q 3669 778 3244 343 
Q 2819 -91 2113 -91 
Q 1303 -91 875 529 
Q 447 1150 447 2328 
Q 447 3434 972 4092 
Q 1497 4750 2381 4750 
Q 2619 4750 2861 4703 
Q 3103 4656 3366 4563 
z
" transform="scale(0.015625)"/>
       </defs>
       <use xlink:href="#DejaVuSans-30"/>
       <use xlink:href="#DejaVuSans-2e" transform="translate(63.623047 0)"/>
       <use xlink:href="#DejaVuSans-30" transform="translate(95.410156 0)"/>
       <use xlink:href="#DejaVuSans-30" transform="translate(159.033203 0)"/>
       <use xlink:href="#DejaVuSans-30" transform="translate(222.65625 0)"/>
       <use xlink:href="#DejaVuSans-36" transform="translate(286.279297 0)"/>
      </g>
     </g>
    </g>
    <g id="ytick_5">
     <g id="line2d_14">
      <g>
       <use xlink:href="#m1bc2d51dee" x="66.98" y="94.944421" style="stroke: #000000; stroke-width: 0.8"/>
      </g>
     </g>
     <g id="text_15">
      <!-- 0.0008 -->
      <g transform="translate(24.989375 98.74364) scale(0.1 -0.1)">
       <defs>
        <path id="DejaVuSans-38" d="M 2034 2216 
Q 1584 2216 1326 1975 
Q 1069 1734 1069 1313 
Q 1069 891 1326 650 
Q 1584 409 2034 409 
Q 2484 409 2743 651 
Q 3003 894 3003 1313 
Q 3003 1734 2745 1975 
Q 2488 2216 2034 2216 
z
M 1403 2484 
Q 997 2584 770 2862 
Q 544 3141 544 3541 
Q 544 4100 942 4425 
Q 1341 4750 2034 4750 
Q 2731 4750 3128 4425 
Q 3525 4100 3525 3541 
Q 3525 3141 3298 2862 
Q 3072 2584 2669 2484 
Q 3125 2378 3379 2068 
Q 3634 1759 3634 1313 
Q 3634 634 3220 271 
Q 2806 -91 2034 -91 
Q 1263 -91 848 271 
Q 434 634 434 1313 
Q 434 1759 690 2068 
Q 947 2378 1403 2484 
z
M 1172 3481 
Q 1172 3119 1398 2916 
Q 1625 2713 2034 2713 
Q 2441 2713 2670 2916 
Q 2900 3119 2900 3481 
Q 2900 3844 2670 4047 
Q 2441 4250 2034 4250 
Q 1625 4250 1398 4047 
Q 1172 3844 1172 3481 
z
" transform="scale(0.015625)"/>
       </defs>
       <use xlink:href="#DejaVuSans-30"/>
       <use xlink:href="#DejaVuSans-2e" transform="translate(63.623047 0)"/>
       <use xlink:href="#DejaVuSans-30" transform="translate(95.410156 0)"/>
       <use xlink:href="#DejaVuSans-30" transform="translate(159.033203 0)"/>
       <use xlink:href="#DejaVuSans-30" transform="translate(222.65625 0)"/>
       <use xlink:href="#DejaVuSans-38" transform="translate(286.279297 0)"/>
      </g>
     </g>
    </g>
    <g id="ytick_6">
     <g id="line2d_15">
      <g>
       <use xlink:href="#m1bc2d51dee" x="66.98" y="71.701195" style="stroke: #000000; stroke-width: 0.8"/>
      </g>
     </g>
     <g id="text_16">
      <!-- 0.0010 -->
      <g transform="translate(24.989375 75.500414) scale(0.1 -0.1)">
       <use xlink:href="#DejaVuSans-30"/>
       <use xlink:href="#DejaVuSans-2e" transform="translate(63.623047 0)"/>
       <use xlink:href="#DejaVuSans-30" transform="translate(95.410156 0)"/>
       <use xlink:href="#DejaVuSans-30" transform="translate(159.033203 0)"/>
       <use xlink:href="#DejaVuSans-31" transform="translate(222.65625 0)"/>
       <use xlink:href="#DejaVuSans-30" transform="translate(286.279297 0)"/>
      </g>
     </g>
    </g>
    <g id="ytick_7">
     <g id="line2d_16">
      <g>
       <use xlink:href="#m1bc2d51dee" x="66.98" y="48.457969" style="stroke: #000000; stroke-width: 0.8"/>
      </g>
     </g>
     <g id="text_17">
      <!-- 0.0012 -->
      <g transform="translate(24.989375 52.257187) scale(0.1 -0.1)">
       <use xlink:href="#DejaVuSans-30"/>
       <use xlink:href="#DejaVuSans-2e" transform="translate(63.623047 0)"/>
       <use xlink:href="#DejaVuSans-30" transform="translate(95.410156 0)"/>
       <use xlink:href="#DejaVuSans-30" transform="translate(159.033203 0)"/>
       <use xlink:href="#DejaVuSans-31" transform="translate(222.65625 0)"/>
       <use xlink:href="#DejaVuSans-32" transform="translate(286.279297 0)"/>
      </g>
     </g>
    </g>
    <g id="text_18">
     <!-- Probability Density -->
     <g transform="translate(18.909687 159.067829) rotate(-90) scale(0.1 -0.1)">
      <defs>
       <path id="DejaVuSans-72" d="M 2631 2963 
Q 2534 3019 2420 3045 
Q 2306 3072 2169 3072 
Q 1681 3072 1420 2755 
Q 1159 2438 1159 1844 
L 1159 0 
L 581 0 
L 581 3500 
L 1159 3500 
L 1159 2956 
Q 1341 3275 1631 3429 
Q 1922 3584 2338 3584 
Q 2397 3584 2469 3576 
Q 2541 3569 2628 3553 
L 2631 2963 
z
" transform="scale(0.015625)"/>
       <path id="DejaVuSans-62" d="M 3116 1747 
Q 3116 2381 2855 2742 
Q 2594 3103 2138 3103 
Q 1681 3103 1420 2742 
Q 1159 2381 1159 1747 
Q 1159 1113 1420 752 
Q 1681 391 2138 391 
Q 2594 391 2855 752 
Q 3116 1113 3116 1747 
z
M 1159 2969 
Q 1341 3281 1617 3432 
Q 1894 3584 2278 3584 
Q 2916 3584 3314 3078 
Q 3713 2572 3713 1747 
Q 3713 922 3314 415 
Q 2916 -91 2278 -91 
Q 1894 -91 1617 61 
Q 1341 213 1159 525 
L 1159 0 
L 581 0 
L 581 4863 
L 1159 4863 
L 1159 2969 
z
" transform="scale(0.015625)"/>
       <path id="DejaVuSans-69" d="M 603 3500 
L 1178 3500 
L 1178 0 
L 603 0 
L 603 3500 
z
M 603 4863 
L 1178 4863 
L 1178 4134 
L 603 4134 
L 603 4863 
z
" transform="scale(0.015625)"/>
       <path id="DejaVuSans-74" d="M 1172 4494 
L 1172 3500 
L 2356 3500 
L 2356 3053 
L 1172 3053 
L 1172 1153 
Q 1172 725 1289 603 
Q 1406 481 1766 481 
L 2356 481 
L 2356 0 
L 1766 0 
Q 1100 0 847 248 
Q 594 497 594 1153 
L 594 3053 
L 172 3053 
L 172 3500 
L 594 3500 
L 594 4494 
L 1172 4494 
z
" transform="scale(0.015625)"/>
       <path id="DejaVuSans-79" d="M 2059 -325 
Q 1816 -950 1584 -1140 
Q 1353 -1331 966 -1331 
L 506 -1331 
L 506 -850 
L 844 -850 
Q 1081 -850 1212 -737 
Q 1344 -625 1503 -206 
L 1606 56 
L 191 3500 
L 800 3500 
L 1894 763 
L 2988 3500 
L 3597 3500 
L 2059 -325 
z
" transform="scale(0.015625)"/>
       <path id="DejaVuSans-44" d="M 1259 4147 
L 1259 519 
L 2022 519 
Q 2988 519 3436 956 
Q 3884 1394 3884 2338 
Q 3884 3275 3436 3711 
Q 2988 4147 2022 4147 
L 1259 4147 
z
M 628 4666 
L 1925 4666 
Q 3281 4666 3915 4102 
Q 4550 3538 4550 2338 
Q 4550 1131 3912 565 
Q 3275 0 1925 0 
L 628 0 
L 628 4666 
z
" transform="scale(0.015625)"/>
       <path id="DejaVuSans-65" d="M 3597 1894 
L 3597 1613 
L 953 1613 
Q 991 1019 1311 708 
Q 1631 397 2203 397 
Q 2534 397 2845 478 
Q 3156 559 3463 722 
L 3463 178 
Q 3153 47 2828 -22 
Q 2503 -91 2169 -91 
Q 1331 -91 842 396 
Q 353 884 353 1716 
Q 353 2575 817 3079 
Q 1281 3584 2069 3584 
Q 2775 3584 3186 3129 
Q 3597 2675 3597 1894 
z
M 3022 2063 
Q 3016 2534 2758 2815 
Q 2500 3097 2075 3097 
Q 1594 3097 1305 2825 
Q 1016 2553 972 2059 
L 3022 2063 
z
" transform="scale(0.015625)"/>
      </defs>
      <use xlink:href="#DejaVuSans-50"/>
      <use xlink:href="#DejaVuSans-72" transform="translate(58.552734 0)"/>
      <use xlink:href="#DejaVuSans-6f" transform="translate(97.416016 0)"/>
      <use xlink:href="#DejaVuSans-62" transform="translate(158.597656 0)"/>
      <use xlink:href="#DejaVuSans-61" transform="translate(222.074219 0)"/>
      <use xlink:href="#DejaVuSans-62" transform="translate(283.353516 0)"/>
      <use xlink:href="#DejaVuSans-69" transform="translate(346.830078 0)"/>
      <use xlink:href="#DejaVuSans-6c" transform="translate(374.613281 0)"/>
      <use xlink:href="#DejaVuSans-69" transform="translate(402.396484 0)"/>
      <use xlink:href="#DejaVuSans-74" transform="translate(430.179688 0)"/>
      <use xlink:href="#DejaVuSans-79" transform="translate(469.388672 0)"/>
      <use xlink:href="#DejaVuSans-20" transform="translate(528.568359 0)"/>
      <use xlink:href="#DejaVuSans-44" transform="translate(560.355469 0)"/>
      <use xlink:href="#DejaVuSans-65" transform="translate(637.357422 0)"/>
      <use xlink:href="#DejaVuSans-6e" transform="translate(698.880859 0)"/>
      <use xlink:href="#DejaVuSans-73" transform="translate(762.259766 0)"/>
      <use xlink:href="#DejaVuSans-69" transform="translate(814.359375 0)"/>
      <use xlink:href="#DejaVuSans-74" transform="translate(842.142578 0)"/>
      <use xlink:href="#DejaVuSans-79" transform="translate(881.351562 0)"/>
     </g>
    </g>
   </g>
   <g id="patch_3">
    <path d="M 66.98 195.504933 
L 66.98 28.5776 
" style="fill: none; stroke: #000000; stroke-width: 0.8; stroke-linejoin: miter; stroke-linecap: square"/>
   </g>
   <g id="patch_4">
    <path d="M 336.42 195.504933 
L 336.42 28.5776 
" style="fill: none; stroke: #000000; stroke-width: 0.8; stroke-linejoin: miter; stroke-linecap: square"/>
   </g>
   <g id="patch_5">
    <path d="M 66.98 195.504933 
L 336.42 195.504933 
" style="fill: none; stroke: #000000; stroke-width: 0.8; stroke-linejoin: miter; stroke-linecap: square"/>
   </g>
   <g id="patch_6">
    <path d="M 66.98 28.5776 
L 336.42 28.5776 
" style="fill: none; stroke: #000000; stroke-width: 0.8; stroke-linejoin: miter; stroke-linecap: square"/>
   </g>
   <g id="text_19">
    <!-- Probability Density Functions of Test Groups -->
    <g transform="translate(70.010312 22.5776) scale(0.12 -0.12)">
     <defs>
      <path id="DejaVuSans-46" d="M 628 4666 
L 3309 4666 
L 3309 4134 
L 1259 4134 
L 1259 2759 
L 3109 2759 
L 3109 2228 
L 1259 2228 
L 1259 0 
L 628 0 
L 628 4666 
z
" transform="scale(0.015625)"/>
      <path id="DejaVuSans-63" d="M 3122 3366 
L 3122 2828 
Q 2878 2963 2633 3030 
Q 2388 3097 2138 3097 
Q 1578 3097 1268 2742 
Q 959 2388 959 1747 
Q 959 1106 1268 751 
Q 1578 397 2138 397 
Q 2388 397 2633 464 
Q 2878 531 3122 666 
L 3122 134 
Q 2881 22 2623 -34 
Q 2366 -91 2075 -91 
Q 1284 -91 818 406 
Q 353 903 353 1747 
Q 353 2603 823 3093 
Q 1294 3584 2113 3584 
Q 2378 3584 2631 3529 
Q 2884 3475 3122 3366 
z
" transform="scale(0.015625)"/>
      <path id="DejaVuSans-66" d="M 2375 4863 
L 2375 4384 
L 1825 4384 
Q 1516 4384 1395 4259 
Q 1275 4134 1275 3809 
L 1275 3500 
L 2222 3500 
L 2222 3053 
L 1275 3053 
L 1275 0 
L 697 0 
L 697 3053 
L 147 3053 
L 147 3500 
L 697 3500 
L 697 3744 
Q 697 4328 969 4595 
Q 1241 4863 1831 4863 
L 2375 4863 
z
" transform="scale(0.015625)"/>
      <path id="DejaVuSans-54" d="M -19 4666 
L 3928 4666 
L 3928 4134 
L 2272 4134 
L 2272 0 
L 1638 0 
L 1638 4134 
L -19 4134 
L -19 4666 
z
" transform="scale(0.015625)"/>
      <path id="DejaVuSans-47" d="M 3809 666 
L 3809 1919 
L 2778 1919 
L 2778 2438 
L 4434 2438 
L 4434 434 
Q 4069 175 3628 42 
Q 3188 -91 2688 -91 
Q 1594 -91 976 548 
Q 359 1188 359 2328 
Q 359 3472 976 4111 
Q 1594 4750 2688 4750 
Q 3144 4750 3555 4637 
Q 3966 4525 4313 4306 
L 4313 3634 
Q 3963 3931 3569 4081 
Q 3175 4231 2741 4231 
Q 1884 4231 1454 3753 
Q 1025 3275 1025 2328 
Q 1025 1384 1454 906 
Q 1884 428 2741 428 
Q 3075 428 3337 486 
Q 3600 544 3809 666 
z
" transform="scale(0.015625)"/>
      <path id="DejaVuSans-70" d="M 1159 525 
L 1159 -1331 
L 581 -1331 
L 581 3500 
L 1159 3500 
L 1159 2969 
Q 1341 3281 1617 3432 
Q 1894 3584 2278 3584 
Q 2916 3584 3314 3078 
Q 3713 2572 3713 1747 
Q 3713 922 3314 415 
Q 2916 -91 2278 -91 
Q 1894 -91 1617 61 
Q 1341 213 1159 525 
z
M 3116 1747 
Q 3116 2381 2855 2742 
Q 2594 3103 2138 3103 
Q 1681 3103 1420 2742 
Q 1159 2381 1159 1747 
Q 1159 1113 1420 752 
Q 1681 391 2138 391 
Q 2594 391 2855 752 
Q 3116 1113 3116 1747 
z
" transform="scale(0.015625)"/>
     </defs>
     <use xlink:href="#DejaVuSans-50"/>
     <use xlink:href="#DejaVuSans-72" transform="translate(58.552734 0)"/>
     <use xlink:href="#DejaVuSans-6f" transform="translate(97.416016 0)"/>
     <use xlink:href="#DejaVuSans-62" transform="translate(158.597656 0)"/>
     <use xlink:href="#DejaVuSans-61" transform="translate(222.074219 0)"/>
     <use xlink:href="#DejaVuSans-62" transform="translate(283.353516 0)"/>
     <use xlink:href="#DejaVuSans-69" transform="translate(346.830078 0)"/>
     <use xlink:href="#DejaVuSans-6c" transform="translate(374.613281 0)"/>
     <use xlink:href="#DejaVuSans-69" transform="translate(402.396484 0)"/>
     <use xlink:href="#DejaVuSans-74" transform="translate(430.179688 0)"/>
     <use xlink:href="#DejaVuSans-79" transform="translate(469.388672 0)"/>
     <use xlink:href="#DejaVuSans-20" transform="translate(528.568359 0)"/>
     <use xlink:href="#DejaVuSans-44" transform="translate(560.355469 0)"/>
     <use xlink:href="#DejaVuSans-65" transform="translate(637.357422 0)"/>
     <use xlink:href="#DejaVuSans-6e" transform="translate(698.880859 0)"/>
     <use xlink:href="#DejaVuSans-73" transform="translate(762.259766 0)"/>
     <use xlink:href="#DejaVuSans-69" transform="translate(814.359375 0)"/>
     <use xlink:href="#DejaVuSans-74" transform="translate(842.142578 0)"/>
     <use xlink:href="#DejaVuSans-79" transform="translate(881.351562 0)"/>
     <use xlink:href="#DejaVuSans-20" transform="translate(940.53125 0)"/>
     <use xlink:href="#DejaVuSans-46" transform="translate(972.318359 0)"/>
     <use xlink:href="#DejaVuSans-75" transform="translate(1024.337891 0)"/>
     <use xlink:href="#DejaVuSans-6e" transform="translate(1087.716797 0)"/>
     <use xlink:href="#DejaVuSans-63" transform="translate(1151.095703 0)"/>
     <use xlink:href="#DejaVuSans-74" transform="translate(1206.076172 0)"/>
     <use xlink:href="#DejaVuSans-69" transform="translate(1245.285156 0)"/>
     <use xlink:href="#DejaVuSans-6f" transform="translate(1273.068359 0)"/>
     <use xlink:href="#DejaVuSans-6e" transform="translate(1334.25 0)"/>
     <use xlink:href="#DejaVuSans-73" transform="translate(1397.628906 0)"/>
     <use xlink:href="#DejaVuSans-20" transform="translate(1449.728516 0)"/>
     <use xlink:href="#DejaVuSans-6f" transform="translate(1481.515625 0)"/>
     <use xlink:href="#DejaVuSans-66" transform="translate(1542.697266 0)"/>
     <use xlink:href="#DejaVuSans-20" transform="translate(1577.902344 0)"/>
     <use xlink:href="#DejaVuSans-54" transform="translate(1609.689453 0)"/>
     <use xlink:href="#DejaVuSans-65" transform="translate(1653.773438 0)"/>
     <use xlink:href="#DejaVuSans-73" transform="translate(1715.296875 0)"/>
     <use xlink:href="#DejaVuSans-74" transform="translate(1767.396484 0)"/>
     <use xlink:href="#DejaVuSans-20" transform="translate(1806.605469 0)"/>
     <use xlink:href="#DejaVuSans-47" transform="translate(1838.392578 0)"/>
     <use xlink:href="#DejaVuSans-72" transform="translate(1915.882812 0)"/>
     <use xlink:href="#DejaVuSans-6f" transform="translate(1954.746094 0)"/>
     <use xlink:href="#DejaVuSans-75" transform="translate(2015.927734 0)"/>
     <use xlink:href="#DejaVuSans-70" transform="translate(2079.306641 0)"/>
     <use xlink:href="#DejaVuSans-73" transform="translate(2142.783203 0)"/>
    </g>
   </g>
   <g id="legend_1">
    <g id="patch_7">
     <path d="M 237.53875 65.93385 
L 329.42 65.93385 
Q 331.42 65.93385 331.42 63.93385 
L 331.42 35.5776 
Q 331.42 33.5776 329.42 33.5776 
L 237.53875 33.5776 
Q 235.53875 33.5776 235.53875 35.5776 
L 235.53875 63.93385 
Q 235.53875 65.93385 237.53875 65.93385 
z
" style="fill: #ffffff; opacity: 0.8; stroke: #cccccc; stroke-linejoin: miter"/>
    </g>
    <g id="patch_8">
     <path d="M 239.53875 45.176038 
L 259.53875 45.176038 
L 259.53875 38.176038 
L 239.53875 38.176038 
z
" style="fill: #0000ff; fill-opacity: 0.3; stroke: #0000ff; stroke-opacity: 0.3; stroke-linejoin: miter"/>
    </g>
    <g id="text_20">
     <!-- Control PDF -->
     <g transform="translate(267.53875 45.176038) scale(0.1 -0.1)">
      <defs>
       <path id="DejaVuSans-43" d="M 4122 4306 
L 4122 3641 
Q 3803 3938 3442 4084 
Q 3081 4231 2675 4231 
Q 1875 4231 1450 3742 
Q 1025 3253 1025 2328 
Q 1025 1406 1450 917 
Q 1875 428 2675 428 
Q 3081 428 3442 575 
Q 3803 722 4122 1019 
L 4122 359 
Q 3791 134 3420 21 
Q 3050 -91 2638 -91 
Q 1578 -91 968 557 
Q 359 1206 359 2328 
Q 359 3453 968 4101 
Q 1578 4750 2638 4750 
Q 3056 4750 3426 4639 
Q 3797 4528 4122 4306 
z
" transform="scale(0.015625)"/>
      </defs>
      <use xlink:href="#DejaVuSans-43"/>
      <use xlink:href="#DejaVuSans-6f" transform="translate(69.824219 0)"/>
      <use xlink:href="#DejaVuSans-6e" transform="translate(131.005859 0)"/>
      <use xlink:href="#DejaVuSans-74" transform="translate(194.384766 0)"/>
      <use xlink:href="#DejaVuSans-72" transform="translate(233.59375 0)"/>
      <use xlink:href="#DejaVuSans-6f" transform="translate(272.457031 0)"/>
      <use xlink:href="#DejaVuSans-6c" transform="translate(333.638672 0)"/>
      <use xlink:href="#DejaVuSans-20" transform="translate(361.421875 0)"/>
      <use xlink:href="#DejaVuSans-50" transform="translate(393.208984 0)"/>
      <use xlink:href="#DejaVuSans-44" transform="translate(453.511719 0)"/>
      <use xlink:href="#DejaVuSans-46" transform="translate(530.513672 0)"/>
     </g>
    </g>
    <g id="patch_9">
     <path d="M 239.53875 59.854163 
L 259.53875 59.854163 
L 259.53875 52.854163 
L 239.53875 52.854163 
z
" style="fill: #ff0000; fill-opacity: 0.3; stroke: #ff0000; stroke-opacity: 0.3; stroke-linejoin: miter"/>
    </g>
    <g id="text_21">
     <!-- Treated PDF -->
     <g transform="translate(267.53875 59.854163) scale(0.1 -0.1)">
      <use xlink:href="#DejaVuSans-54"/>
      <use xlink:href="#DejaVuSans-72" transform="translate(46.333984 0)"/>
      <use xlink:href="#DejaVuSans-65" transform="translate(85.197266 0)"/>
      <use xlink:href="#DejaVuSans-61" transform="translate(146.720703 0)"/>
      <use xlink:href="#DejaVuSans-74" transform="translate(208 0)"/>
      <use xlink:href="#DejaVuSans-65" transform="translate(247.208984 0)"/>
      <use xlink:href="#DejaVuSans-64" transform="translate(308.732422 0)"/>
      <use xlink:href="#DejaVuSans-20" transform="translate(372.208984 0)"/>
      <use xlink:href="#DejaVuSans-50" transform="translate(403.996094 0)"/>
      <use xlink:href="#DejaVuSans-44" transform="translate(464.298828 0)"/>
      <use xlink:href="#DejaVuSans-46" transform="translate(541.300781 0)"/>
     </g>
    </g>
   </g>
  </g>
 </g>
 <defs>
  <clipPath id="p0d83100bf4">
   <rect x="66.98" y="28.5776" width="269.44" height="166.927333"/>
  </clipPath>
 </defs>
</svg>
