<?xml version="1.0" encoding="utf-8" standalone="no"?>
<!DOCTYPE svg PUBLIC "-//W3C//DTD SVG 1.1//EN"
  "http://www.w3.org/Graphics/SVG/1.1/DTD/svg11.dtd">
<svg xmlns:xlink="http://www.w3.org/1999/xlink" width="576pt" height="458.64pt" viewBox="0 0 576 458.64" xmlns="http://www.w3.org/2000/svg" version="1.1">
 <metadata>
  <rdf:RDF xmlns:dc="http://purl.org/dc/elements/1.1/" xmlns:cc="http://creativecommons.org/ns#" xmlns:rdf="http://www.w3.org/1999/02/22-rdf-syntax-ns#">
   <cc:Work>
    <dc:type rdf:resource="http://purl.org/dc/dcmitype/StillImage"/>
    <dc:date>2025-05-03T05:38:23.040289</dc:date>
    <dc:format>image/svg+xml</dc:format>
    <dc:creator>
     <cc:Agent>
      <dc:title>Matplotlib v3.10.0, https://matplotlib.org/</dc:title>
     </cc:Agent>
    </dc:creator>
   </cc:Work>
  </rdf:RDF>
 </metadata>
 <defs>
  <style type="text/css">*{stroke-linejoin: round; stroke-linecap: butt}</style>
 </defs>
 <g id="figure_1">
  <g id="patch_1">
   <path d="M 0 458.64 
L 576 458.64 
L 576 0 
L 0 0 
z
" style="fill: #ffffff"/>
  </g>
  <g id="axes_1">
   <g id="patch_2">
    <path d="M 57.44 429.040733 
L 565.2 429.040733 
L 565.2 27.0088 
L 57.44 27.0088 
z
" style="fill: #ffffff"/>
   </g>
   <g id="PathCollection_1">
    <defs>
     <path id="C0_0_370f8e42c2" d="M 0 3 
C 0.795609 3 1.55874 2.683901 2.12132 2.12132 
C 2.683901 1.55874 3 0.795609 3 -0 
C 3 -0.795609 2.683901 -1.55874 2.12132 -2.12132 
C 1.55874 -2.683901 0.795609 -3 0 -3 
C -0.795609 -3 -1.55874 -2.683901 -2.12132 -2.12132 
C -2.683901 -1.55874 -3 -0.795609 -3 0 
C -3 0.795609 -2.683901 1.55874 -2.12132 2.12132 
C -1.55874 2.683901 -0.795609 3 0 3 
z
"/>
    </defs>
    <g clip-path="url(#p6203753409)">
     <use xlink:href="#C0_0_370f8e42c2" x="185.365776" y="397.890978" style="fill: #0000ff; fill-opacity: 0.5; stroke: #0000ff; stroke-opacity: 0.5"/>
    </g>
    <g clip-path="url(#p6203753409)">
     <use xlink:href="#C0_0_370f8e42c2" x="180.838475" y="384.707024" style="fill: #0000ff; fill-opacity: 0.5; stroke: #0000ff; stroke-opacity: 0.5"/>
    </g>
    <g clip-path="url(#p6203753409)">
     <use xlink:href="#C0_0_370f8e42c2" x="189.168532" y="391.547115" style="fill: #0000ff; fill-opacity: 0.5; stroke: #0000ff; stroke-opacity: 0.5"/>
    </g>
    <g clip-path="url(#p6203753409)">
     <use xlink:href="#C0_0_370f8e42c2" x="180.668674" y="350.233871" style="fill: #0000ff; fill-opacity: 0.5; stroke: #0000ff; stroke-opacity: 0.5"/>
    </g>
    <g clip-path="url(#p6203753409)">
     <use xlink:href="#C0_0_370f8e42c2" x="180.348514" y="260.578498" style="fill: #0000ff; fill-opacity: 0.5; stroke: #0000ff; stroke-opacity: 0.5"/>
    </g>
    <g clip-path="url(#p6203753409)">
     <use xlink:href="#C0_0_370f8e42c2" x="173.232828" y="329.495456" style="fill: #0000ff; fill-opacity: 0.5; stroke: #0000ff; stroke-opacity: 0.5"/>
    </g>
    <g clip-path="url(#p6203753409)">
     <use xlink:href="#C0_0_370f8e42c2" x="189.379487" y="346.151036" style="fill: #0000ff; fill-opacity: 0.5; stroke: #0000ff; stroke-opacity: 0.5"/>
    </g>
    <g clip-path="url(#p6203753409)">
     <use xlink:href="#C0_0_370f8e42c2" x="193.121115" y="360.760072" style="fill: #0000ff; fill-opacity: 0.5; stroke: #0000ff; stroke-opacity: 0.5"/>
    </g>
    <g clip-path="url(#p6203753409)">
     <use xlink:href="#C0_0_370f8e42c2" x="186.664479" y="253.636332" style="fill: #0000ff; fill-opacity: 0.5; stroke: #0000ff; stroke-opacity: 0.5"/>
    </g>
    <g clip-path="url(#p6203753409)">
     <use xlink:href="#C0_0_370f8e42c2" x="185.413405" y="231.625083" style="fill: #0000ff; fill-opacity: 0.5; stroke: #0000ff; stroke-opacity: 0.5"/>
    </g>
    <g clip-path="url(#p6203753409)">
     <use xlink:href="#C0_0_370f8e42c2" x="198.338525" y="400.124989" style="fill: #0000ff; fill-opacity: 0.5; stroke: #0000ff; stroke-opacity: 0.5"/>
    </g>
   </g>
   <g id="PathCollection_2">
    <defs>
     <path id="C1_0_76ea36c39a" d="M 0 3 
C 0.795609 3 1.55874 2.683901 2.12132 2.12132 
C 2.683901 1.55874 3 0.795609 3 -0 
C 3 -0.795609 2.683901 -1.55874 2.12132 -2.12132 
C 1.55874 -2.683901 0.795609 -3 0 -3 
C -0.795609 -3 -1.55874 -2.683901 -2.12132 -2.12132 
C -2.683901 -1.55874 -3 -0.795609 -3 0 
C -3 0.795609 -2.683901 1.55874 -2.12132 2.12132 
C -1.55874 2.683901 -0.795609 3 0 3 
z
"/>
    </defs>
    <g clip-path="url(#p6203753409)">
     <use xlink:href="#C1_0_76ea36c39a" x="445.225404" y="323.577425" style="fill: #ff0000; fill-opacity: 0.5; stroke: #ff0000; stroke-opacity: 0.5"/>
    </g>
    <g clip-path="url(#p6203753409)">
     <use xlink:href="#C1_0_76ea36c39a" x="441.912352" y="270.027214" style="fill: #ff0000; fill-opacity: 0.5; stroke: #ff0000; stroke-opacity: 0.5"/>
    </g>
    <g clip-path="url(#p6203753409)">
     <use xlink:href="#C1_0_76ea36c39a" x="434.697221" y="74.935027" style="fill: #ff0000; fill-opacity: 0.5; stroke: #ff0000; stroke-opacity: 0.5"/>
    </g>
    <g clip-path="url(#p6203753409)">
     <use xlink:href="#C1_0_76ea36c39a" x="434.648976" y="263.234723" style="fill: #ff0000; fill-opacity: 0.5; stroke: #ff0000; stroke-opacity: 0.5"/>
    </g>
   </g>
   <g id="matplotlib.axis_1">
    <g id="xtick_1">
     <g id="line2d_1">
      <defs>
       <path id="mc6f6a0de96" d="M 0 0 
L 0 3.5 
" style="stroke: #000000; stroke-width: 0.8"/>
      </defs>
      <g>
       <use xlink:href="#mc6f6a0de96" x="184.38" y="429.040733" style="stroke: #000000; stroke-width: 0.8"/>
      </g>
     </g>
     <g id="text_1">
      <!-- Control -->
      <g transform="translate(166.308906 443.639171) scale(0.1 -0.1)">
       <defs>
        <path id="DejaVuSans-43" d="M 4122 4306 
L 4122 3641 
Q 3803 3938 3442 4084 
Q 3081 4231 2675 4231 
Q 1875 4231 1450 3742 
Q 1025 3253 1025 2328 
Q 1025 1406 1450 917 
Q 1875 428 2675 428 
Q 3081 428 3442 575 
Q 3803 722 4122 1019 
L 4122 359 
Q 3791 134 3420 21 
Q 3050 -91 2638 -91 
Q 1578 -91 968 557 
Q 359 1206 359 2328 
Q 359 3453 968 4101 
Q 1578 4750 2638 4750 
Q 3056 4750 3426 4639 
Q 3797 4528 4122 4306 
z
" transform="scale(0.015625)"/>
        <path id="DejaVuSans-6f" d="M 1959 3097 
Q 1497 3097 1228 2736 
Q 959 2375 959 1747 
Q 959 1119 1226 758 
Q 1494 397 1959 397 
Q 2419 397 2687 759 
Q 2956 1122 2956 1747 
Q 2956 2369 2687 2733 
Q 2419 3097 1959 3097 
z
M 1959 3584 
Q 2709 3584 3137 3096 
Q 3566 2609 3566 1747 
Q 3566 888 3137 398 
Q 2709 -91 1959 -91 
Q 1206 -91 779 398 
Q 353 888 353 1747 
Q 353 2609 779 3096 
Q 1206 3584 1959 3584 
z
" transform="scale(0.015625)"/>
        <path id="DejaVuSans-6e" d="M 3513 2113 
L 3513 0 
L 2938 0 
L 2938 2094 
Q 2938 2591 2744 2837 
Q 2550 3084 2163 3084 
Q 1697 3084 1428 2787 
Q 1159 2491 1159 1978 
L 1159 0 
L 581 0 
L 581 3500 
L 1159 3500 
L 1159 2956 
Q 1366 3272 1645 3428 
Q 1925 3584 2291 3584 
Q 2894 3584 3203 3211 
Q 3513 2838 3513 2113 
z
" transform="scale(0.015625)"/>
        <path id="DejaVuSans-74" d="M 1172 4494 
L 1172 3500 
L 2356 3500 
L 2356 3053 
L 1172 3053 
L 1172 1153 
Q 1172 725 1289 603 
Q 1406 481 1766 481 
L 2356 481 
L 2356 0 
L 1766 0 
Q 1100 0 847 248 
Q 594 497 594 1153 
L 594 3053 
L 172 3053 
L 172 3500 
L 594 3500 
L 594 4494 
L 1172 4494 
z
" transform="scale(0.015625)"/>
        <path id="DejaVuSans-72" d="M 2631 2963 
Q 2534 3019 2420 3045 
Q 2306 3072 2169 3072 
Q 1681 3072 1420 2755 
Q 1159 2438 1159 1844 
L 1159 0 
L 581 0 
L 581 3500 
L 1159 3500 
L 1159 2956 
Q 1341 3275 1631 3429 
Q 1922 3584 2338 3584 
Q 2397 3584 2469 3576 
Q 2541 3569 2628 3553 
L 2631 2963 
z
" transform="scale(0.015625)"/>
        <path id="DejaVuSans-6c" d="M 603 4863 
L 1178 4863 
L 1178 0 
L 603 0 
L 603 4863 
z
" transform="scale(0.015625)"/>
       </defs>
       <use xlink:href="#DejaVuSans-43"/>
       <use xlink:href="#DejaVuSans-6f" transform="translate(69.824219 0)"/>
       <use xlink:href="#DejaVuSans-6e" transform="translate(131.005859 0)"/>
       <use xlink:href="#DejaVuSans-74" transform="translate(194.384766 0)"/>
       <use xlink:href="#DejaVuSans-72" transform="translate(233.59375 0)"/>
       <use xlink:href="#DejaVuSans-6f" transform="translate(272.457031 0)"/>
       <use xlink:href="#DejaVuSans-6c" transform="translate(333.638672 0)"/>
      </g>
     </g>
    </g>
    <g id="xtick_2">
     <g id="line2d_2">
      <g>
       <use xlink:href="#mc6f6a0de96" x="438.26" y="429.040733" style="stroke: #000000; stroke-width: 0.8"/>
      </g>
     </g>
     <g id="text_2">
      <!-- Treated -->
      <g transform="translate(419.649063 443.639171) scale(0.1 -0.1)">
       <defs>
        <path id="DejaVuSans-54" d="M -19 4666 
L 3928 4666 
L 3928 4134 
L 2272 4134 
L 2272 0 
L 1638 0 
L 1638 4134 
L -19 4134 
L -19 4666 
z
" transform="scale(0.015625)"/>
        <path id="DejaVuSans-65" d="M 3597 1894 
L 3597 1613 
L 953 1613 
Q 991 1019 1311 708 
Q 1631 397 2203 397 
Q 2534 397 2845 478 
Q 3156 559 3463 722 
L 3463 178 
Q 3153 47 2828 -22 
Q 2503 -91 2169 -91 
Q 1331 -91 842 396 
Q 353 884 353 1716 
Q 353 2575 817 3079 
Q 1281 3584 2069 3584 
Q 2775 3584 3186 3129 
Q 3597 2675 3597 1894 
z
M 3022 2063 
Q 3016 2534 2758 2815 
Q 2500 3097 2075 3097 
Q 1594 3097 1305 2825 
Q 1016 2553 972 2059 
L 3022 2063 
z
" transform="scale(0.015625)"/>
        <path id="DejaVuSans-61" d="M 2194 1759 
Q 1497 1759 1228 1600 
Q 959 1441 959 1056 
Q 959 750 1161 570 
Q 1363 391 1709 391 
Q 2188 391 2477 730 
Q 2766 1069 2766 1631 
L 2766 1759 
L 2194 1759 
z
M 3341 1997 
L 3341 0 
L 2766 0 
L 2766 531 
Q 2569 213 2275 61 
Q 1981 -91 1556 -91 
Q 1019 -91 701 211 
Q 384 513 384 1019 
Q 384 1609 779 1909 
Q 1175 2209 1959 2209 
L 2766 2209 
L 2766 2266 
Q 2766 2663 2505 2880 
Q 2244 3097 1772 3097 
Q 1472 3097 1187 3025 
Q 903 2953 641 2809 
L 641 3341 
Q 956 3463 1253 3523 
Q 1550 3584 1831 3584 
Q 2591 3584 2966 3190 
Q 3341 2797 3341 1997 
z
" transform="scale(0.015625)"/>
        <path id="DejaVuSans-64" d="M 2906 2969 
L 2906 4863 
L 3481 4863 
L 3481 0 
L 2906 0 
L 2906 525 
Q 2725 213 2448 61 
Q 2172 -91 1784 -91 
Q 1150 -91 751 415 
Q 353 922 353 1747 
Q 353 2572 751 3078 
Q 1150 3584 1784 3584 
Q 2172 3584 2448 3432 
Q 2725 3281 2906 2969 
z
M 947 1747 
Q 947 1113 1208 752 
Q 1469 391 1925 391 
Q 2381 391 2643 752 
Q 2906 1113 2906 1747 
Q 2906 2381 2643 2742 
Q 2381 3103 1925 3103 
Q 1469 3103 1208 2742 
Q 947 2381 947 1747 
z
" transform="scale(0.015625)"/>
       </defs>
       <use xlink:href="#DejaVuSans-54"/>
       <use xlink:href="#DejaVuSans-72" transform="translate(46.333984 0)"/>
       <use xlink:href="#DejaVuSans-65" transform="translate(85.197266 0)"/>
       <use xlink:href="#DejaVuSans-61" transform="translate(146.720703 0)"/>
       <use xlink:href="#DejaVuSans-74" transform="translate(208 0)"/>
       <use xlink:href="#DejaVuSans-65" transform="translate(247.208984 0)"/>
       <use xlink:href="#DejaVuSans-64" transform="translate(308.732422 0)"/>
      </g>
     </g>
    </g>
   </g>
   <g id="matplotlib.axis_2">
    <g id="ytick_1">
     <g id="line2d_3">
      <path d="M 57.44 429.040733 
L 565.2 429.040733 
" clip-path="url(#p6203753409)" style="fill: none; stroke-dasharray: 2.96,1.28; stroke-dashoffset: 0; stroke: #b0b0b0; stroke-opacity: 0.7; stroke-width: 0.8"/>
     </g>
     <g id="line2d_4">
      <defs>
       <path id="m224628475f" d="M 0 0 
L -3.5 0 
" style="stroke: #000000; stroke-width: 0.8"/>
      </defs>
      <g>
       <use xlink:href="#m224628475f" x="57.44" y="429.040733" style="stroke: #000000; stroke-width: 0.8"/>
      </g>
     </g>
     <g id="text_3">
      <!-- 0 -->
      <g transform="translate(44.0775 432.839952) scale(0.1 -0.1)">
       <defs>
        <path id="DejaVuSans-30" d="M 2034 4250 
Q 1547 4250 1301 3770 
Q 1056 3291 1056 2328 
Q 1056 1369 1301 889 
Q 1547 409 2034 409 
Q 2525 409 2770 889 
Q 3016 1369 3016 2328 
Q 3016 3291 2770 3770 
Q 2525 4250 2034 4250 
z
M 2034 4750 
Q 2819 4750 3233 4129 
Q 3647 3509 3647 2328 
Q 3647 1150 3233 529 
Q 2819 -91 2034 -91 
Q 1250 -91 836 529 
Q 422 1150 422 2328 
Q 422 3509 836 4129 
Q 1250 4750 2034 4750 
z
" transform="scale(0.015625)"/>
       </defs>
       <use xlink:href="#DejaVuSans-30"/>
      </g>
     </g>
    </g>
    <g id="ytick_2">
     <g id="line2d_5">
      <path d="M 57.44 378.786742 
L 565.2 378.786742 
" clip-path="url(#p6203753409)" style="fill: none; stroke-dasharray: 2.96,1.28; stroke-dashoffset: 0; stroke: #b0b0b0; stroke-opacity: 0.7; stroke-width: 0.8"/>
     </g>
     <g id="line2d_6">
      <g>
       <use xlink:href="#m224628475f" x="57.44" y="378.786742" style="stroke: #000000; stroke-width: 0.8"/>
      </g>
     </g>
     <g id="text_4">
      <!-- 250 -->
      <g transform="translate(31.3525 382.58596) scale(0.1 -0.1)">
       <defs>
        <path id="DejaVuSans-32" d="M 1228 531 
L 3431 531 
L 3431 0 
L 469 0 
L 469 531 
Q 828 903 1448 1529 
Q 2069 2156 2228 2338 
Q 2531 2678 2651 2914 
Q 2772 3150 2772 3378 
Q 2772 3750 2511 3984 
Q 2250 4219 1831 4219 
Q 1534 4219 1204 4116 
Q 875 4013 500 3803 
L 500 4441 
Q 881 4594 1212 4672 
Q 1544 4750 1819 4750 
Q 2544 4750 2975 4387 
Q 3406 4025 3406 3419 
Q 3406 3131 3298 2873 
Q 3191 2616 2906 2266 
Q 2828 2175 2409 1742 
Q 1991 1309 1228 531 
z
" transform="scale(0.015625)"/>
        <path id="DejaVuSans-35" d="M 691 4666 
L 3169 4666 
L 3169 4134 
L 1269 4134 
L 1269 2991 
Q 1406 3038 1543 3061 
Q 1681 3084 1819 3084 
Q 2600 3084 3056 2656 
Q 3513 2228 3513 1497 
Q 3513 744 3044 326 
Q 2575 -91 1722 -91 
Q 1428 -91 1123 -41 
Q 819 9 494 109 
L 494 744 
Q 775 591 1075 516 
Q 1375 441 1709 441 
Q 2250 441 2565 725 
Q 2881 1009 2881 1497 
Q 2881 1984 2565 2268 
Q 2250 2553 1709 2553 
Q 1456 2553 1204 2497 
Q 953 2441 691 2322 
L 691 4666 
z
" transform="scale(0.015625)"/>
       </defs>
       <use xlink:href="#DejaVuSans-32"/>
       <use xlink:href="#DejaVuSans-35" transform="translate(63.623047 0)"/>
       <use xlink:href="#DejaVuSans-30" transform="translate(127.246094 0)"/>
      </g>
     </g>
    </g>
    <g id="ytick_3">
     <g id="line2d_7">
      <path d="M 57.44 328.53275 
L 565.2 328.53275 
" clip-path="url(#p6203753409)" style="fill: none; stroke-dasharray: 2.96,1.28; stroke-dashoffset: 0; stroke: #b0b0b0; stroke-opacity: 0.7; stroke-width: 0.8"/>
     </g>
     <g id="line2d_8">
      <g>
       <use xlink:href="#m224628475f" x="57.44" y="328.53275" style="stroke: #000000; stroke-width: 0.8"/>
      </g>
     </g>
     <g id="text_5">
      <!-- 500 -->
      <g transform="translate(31.3525 332.331969) scale(0.1 -0.1)">
       <use xlink:href="#DejaVuSans-35"/>
       <use xlink:href="#DejaVuSans-30" transform="translate(63.623047 0)"/>
       <use xlink:href="#DejaVuSans-30" transform="translate(127.246094 0)"/>
      </g>
     </g>
    </g>
    <g id="ytick_4">
     <g id="line2d_9">
      <path d="M 57.44 278.278758 
L 565.2 278.278758 
" clip-path="url(#p6203753409)" style="fill: none; stroke-dasharray: 2.96,1.28; stroke-dashoffset: 0; stroke: #b0b0b0; stroke-opacity: 0.7; stroke-width: 0.8"/>
     </g>
     <g id="line2d_10">
      <g>
       <use xlink:href="#m224628475f" x="57.44" y="278.278758" style="stroke: #000000; stroke-width: 0.8"/>
      </g>
     </g>
     <g id="text_6">
      <!-- 750 -->
      <g transform="translate(31.3525 282.077977) scale(0.1 -0.1)">
       <defs>
        <path id="DejaVuSans-37" d="M 525 4666 
L 3525 4666 
L 3525 4397 
L 1831 0 
L 1172 0 
L 2766 4134 
L 525 4134 
L 525 4666 
z
" transform="scale(0.015625)"/>
       </defs>
       <use xlink:href="#DejaVuSans-37"/>
       <use xlink:href="#DejaVuSans-35" transform="translate(63.623047 0)"/>
       <use xlink:href="#DejaVuSans-30" transform="translate(127.246094 0)"/>
      </g>
     </g>
    </g>
    <g id="ytick_5">
     <g id="line2d_11">
      <path d="M 57.44 228.024767 
L 565.2 228.024767 
" clip-path="url(#p6203753409)" style="fill: none; stroke-dasharray: 2.96,1.28; stroke-dashoffset: 0; stroke: #b0b0b0; stroke-opacity: 0.7; stroke-width: 0.8"/>
     </g>
     <g id="line2d_12">
      <g>
       <use xlink:href="#m224628475f" x="57.44" y="228.024767" style="stroke: #000000; stroke-width: 0.8"/>
      </g>
     </g>
     <g id="text_7">
      <!-- 1000 -->
      <g transform="translate(24.99 231.823985) scale(0.1 -0.1)">
       <defs>
        <path id="DejaVuSans-31" d="M 794 531 
L 1825 531 
L 1825 4091 
L 703 3866 
L 703 4441 
L 1819 4666 
L 2450 4666 
L 2450 531 
L 3481 531 
L 3481 0 
L 794 0 
L 794 531 
z
" transform="scale(0.015625)"/>
       </defs>
       <use xlink:href="#DejaVuSans-31"/>
       <use xlink:href="#DejaVuSans-30" transform="translate(63.623047 0)"/>
       <use xlink:href="#DejaVuSans-30" transform="translate(127.246094 0)"/>
       <use xlink:href="#DejaVuSans-30" transform="translate(190.869141 0)"/>
      </g>
     </g>
    </g>
    <g id="ytick_6">
     <g id="line2d_13">
      <path d="M 57.44 177.770775 
L 565.2 177.770775 
" clip-path="url(#p6203753409)" style="fill: none; stroke-dasharray: 2.96,1.28; stroke-dashoffset: 0; stroke: #b0b0b0; stroke-opacity: 0.7; stroke-width: 0.8"/>
     </g>
     <g id="line2d_14">
      <g>
       <use xlink:href="#m224628475f" x="57.44" y="177.770775" style="stroke: #000000; stroke-width: 0.8"/>
      </g>
     </g>
     <g id="text_8">
      <!-- 1250 -->
      <g transform="translate(24.99 181.569994) scale(0.1 -0.1)">
       <use xlink:href="#DejaVuSans-31"/>
       <use xlink:href="#DejaVuSans-32" transform="translate(63.623047 0)"/>
       <use xlink:href="#DejaVuSans-35" transform="translate(127.246094 0)"/>
       <use xlink:href="#DejaVuSans-30" transform="translate(190.869141 0)"/>
      </g>
     </g>
    </g>
    <g id="ytick_7">
     <g id="line2d_15">
      <path d="M 57.44 127.516783 
L 565.2 127.516783 
" clip-path="url(#p6203753409)" style="fill: none; stroke-dasharray: 2.96,1.28; stroke-dashoffset: 0; stroke: #b0b0b0; stroke-opacity: 0.7; stroke-width: 0.8"/>
     </g>
     <g id="line2d_16">
      <g>
       <use xlink:href="#m224628475f" x="57.44" y="127.516783" style="stroke: #000000; stroke-width: 0.8"/>
      </g>
     </g>
     <g id="text_9">
      <!-- 1500 -->
      <g transform="translate(24.99 131.316002) scale(0.1 -0.1)">
       <use xlink:href="#DejaVuSans-31"/>
       <use xlink:href="#DejaVuSans-35" transform="translate(63.623047 0)"/>
       <use xlink:href="#DejaVuSans-30" transform="translate(127.246094 0)"/>
       <use xlink:href="#DejaVuSans-30" transform="translate(190.869141 0)"/>
      </g>
     </g>
    </g>
    <g id="ytick_8">
     <g id="line2d_17">
      <path d="M 57.44 77.262792 
L 565.2 77.262792 
" clip-path="url(#p6203753409)" style="fill: none; stroke-dasharray: 2.96,1.28; stroke-dashoffset: 0; stroke: #b0b0b0; stroke-opacity: 0.7; stroke-width: 0.8"/>
     </g>
     <g id="line2d_18">
      <g>
       <use xlink:href="#m224628475f" x="57.44" y="77.262792" style="stroke: #000000; stroke-width: 0.8"/>
      </g>
     </g>
     <g id="text_10">
      <!-- 1750 -->
      <g transform="translate(24.99 81.06201) scale(0.1 -0.1)">
       <use xlink:href="#DejaVuSans-31"/>
       <use xlink:href="#DejaVuSans-37" transform="translate(63.623047 0)"/>
       <use xlink:href="#DejaVuSans-35" transform="translate(127.246094 0)"/>
       <use xlink:href="#DejaVuSans-30" transform="translate(190.869141 0)"/>
      </g>
     </g>
    </g>
    <g id="ytick_9">
     <g id="line2d_19">
      <path d="M 57.44 27.0088 
L 565.2 27.0088 
" clip-path="url(#p6203753409)" style="fill: none; stroke-dasharray: 2.96,1.28; stroke-dashoffset: 0; stroke: #b0b0b0; stroke-opacity: 0.7; stroke-width: 0.8"/>
     </g>
     <g id="line2d_20">
      <g>
       <use xlink:href="#m224628475f" x="57.44" y="27.0088" style="stroke: #000000; stroke-width: 0.8"/>
      </g>
     </g>
     <g id="text_11">
      <!-- 2000 -->
      <g transform="translate(24.99 30.808019) scale(0.1 -0.1)">
       <use xlink:href="#DejaVuSans-32"/>
       <use xlink:href="#DejaVuSans-30" transform="translate(63.623047 0)"/>
       <use xlink:href="#DejaVuSans-30" transform="translate(127.246094 0)"/>
       <use xlink:href="#DejaVuSans-30" transform="translate(190.869141 0)"/>
      </g>
     </g>
    </g>
    <g id="text_12">
     <!-- Young's Modulus [Pa] -->
     <g transform="translate(18.910313 280.778673) rotate(-90) scale(0.1 -0.1)">
      <defs>
       <path id="DejaVuSans-59" d="M -13 4666 
L 666 4666 
L 1959 2747 
L 3244 4666 
L 3922 4666 
L 2272 2222 
L 2272 0 
L 1638 0 
L 1638 2222 
L -13 4666 
z
" transform="scale(0.015625)"/>
       <path id="DejaVuSans-75" d="M 544 1381 
L 544 3500 
L 1119 3500 
L 1119 1403 
Q 1119 906 1312 657 
Q 1506 409 1894 409 
Q 2359 409 2629 706 
Q 2900 1003 2900 1516 
L 2900 3500 
L 3475 3500 
L 3475 0 
L 2900 0 
L 2900 538 
Q 2691 219 2414 64 
Q 2138 -91 1772 -91 
Q 1169 -91 856 284 
Q 544 659 544 1381 
z
M 1991 3584 
L 1991 3584 
z
" transform="scale(0.015625)"/>
       <path id="DejaVuSans-67" d="M 2906 1791 
Q 2906 2416 2648 2759 
Q 2391 3103 1925 3103 
Q 1463 3103 1205 2759 
Q 947 2416 947 1791 
Q 947 1169 1205 825 
Q 1463 481 1925 481 
Q 2391 481 2648 825 
Q 2906 1169 2906 1791 
z
M 3481 434 
Q 3481 -459 3084 -895 
Q 2688 -1331 1869 -1331 
Q 1566 -1331 1297 -1286 
Q 1028 -1241 775 -1147 
L 775 -588 
Q 1028 -725 1275 -790 
Q 1522 -856 1778 -856 
Q 2344 -856 2625 -561 
Q 2906 -266 2906 331 
L 2906 616 
Q 2728 306 2450 153 
Q 2172 0 1784 0 
Q 1141 0 747 490 
Q 353 981 353 1791 
Q 353 2603 747 3093 
Q 1141 3584 1784 3584 
Q 2172 3584 2450 3431 
Q 2728 3278 2906 2969 
L 2906 3500 
L 3481 3500 
L 3481 434 
z
" transform="scale(0.015625)"/>
       <path id="DejaVuSans-27" d="M 1147 4666 
L 1147 2931 
L 616 2931 
L 616 4666 
L 1147 4666 
z
" transform="scale(0.015625)"/>
       <path id="DejaVuSans-73" d="M 2834 3397 
L 2834 2853 
Q 2591 2978 2328 3040 
Q 2066 3103 1784 3103 
Q 1356 3103 1142 2972 
Q 928 2841 928 2578 
Q 928 2378 1081 2264 
Q 1234 2150 1697 2047 
L 1894 2003 
Q 2506 1872 2764 1633 
Q 3022 1394 3022 966 
Q 3022 478 2636 193 
Q 2250 -91 1575 -91 
Q 1294 -91 989 -36 
Q 684 19 347 128 
L 347 722 
Q 666 556 975 473 
Q 1284 391 1588 391 
Q 1994 391 2212 530 
Q 2431 669 2431 922 
Q 2431 1156 2273 1281 
Q 2116 1406 1581 1522 
L 1381 1569 
Q 847 1681 609 1914 
Q 372 2147 372 2553 
Q 372 3047 722 3315 
Q 1072 3584 1716 3584 
Q 2034 3584 2315 3537 
Q 2597 3491 2834 3397 
z
" transform="scale(0.015625)"/>
       <path id="DejaVuSans-20" transform="scale(0.015625)"/>
       <path id="DejaVuSans-4d" d="M 628 4666 
L 1569 4666 
L 2759 1491 
L 3956 4666 
L 4897 4666 
L 4897 0 
L 4281 0 
L 4281 4097 
L 3078 897 
L 2444 897 
L 1241 4097 
L 1241 0 
L 628 0 
L 628 4666 
z
" transform="scale(0.015625)"/>
       <path id="DejaVuSans-5b" d="M 550 4863 
L 1875 4863 
L 1875 4416 
L 1125 4416 
L 1125 -397 
L 1875 -397 
L 1875 -844 
L 550 -844 
L 550 4863 
z
" transform="scale(0.015625)"/>
       <path id="DejaVuSans-50" d="M 1259 4147 
L 1259 2394 
L 2053 2394 
Q 2494 2394 2734 2622 
Q 2975 2850 2975 3272 
Q 2975 3691 2734 3919 
Q 2494 4147 2053 4147 
L 1259 4147 
z
M 628 4666 
L 2053 4666 
Q 2838 4666 3239 4311 
Q 3641 3956 3641 3272 
Q 3641 2581 3239 2228 
Q 2838 1875 2053 1875 
L 1259 1875 
L 1259 0 
L 628 0 
L 628 4666 
z
" transform="scale(0.015625)"/>
       <path id="DejaVuSans-5d" d="M 1947 4863 
L 1947 -844 
L 622 -844 
L 622 -397 
L 1369 -397 
L 1369 4416 
L 622 4416 
L 622 4863 
L 1947 4863 
z
" transform="scale(0.015625)"/>
      </defs>
      <use xlink:href="#DejaVuSans-59"/>
      <use xlink:href="#DejaVuSans-6f" transform="translate(47.833984 0)"/>
      <use xlink:href="#DejaVuSans-75" transform="translate(109.015625 0)"/>
      <use xlink:href="#DejaVuSans-6e" transform="translate(172.394531 0)"/>
      <use xlink:href="#DejaVuSans-67" transform="translate(235.773438 0)"/>
      <use xlink:href="#DejaVuSans-27" transform="translate(299.25 0)"/>
      <use xlink:href="#DejaVuSans-73" transform="translate(326.740234 0)"/>
      <use xlink:href="#DejaVuSans-20" transform="translate(378.839844 0)"/>
      <use xlink:href="#DejaVuSans-4d" transform="translate(410.626953 0)"/>
      <use xlink:href="#DejaVuSans-6f" transform="translate(496.90625 0)"/>
      <use xlink:href="#DejaVuSans-64" transform="translate(558.087891 0)"/>
      <use xlink:href="#DejaVuSans-75" transform="translate(621.564453 0)"/>
      <use xlink:href="#DejaVuSans-6c" transform="translate(684.943359 0)"/>
      <use xlink:href="#DejaVuSans-75" transform="translate(712.726562 0)"/>
      <use xlink:href="#DejaVuSans-73" transform="translate(776.105469 0)"/>
      <use xlink:href="#DejaVuSans-20" transform="translate(828.205078 0)"/>
      <use xlink:href="#DejaVuSans-5b" transform="translate(859.992188 0)"/>
      <use xlink:href="#DejaVuSans-50" transform="translate(899.005859 0)"/>
      <use xlink:href="#DejaVuSans-61" transform="translate(954.808594 0)"/>
      <use xlink:href="#DejaVuSans-5d" transform="translate(1016.087891 0)"/>
     </g>
    </g>
   </g>
   <g id="patch_3">
    <path d="M 120.91 388.127069 
L 247.85 388.127069 
L 247.85 394.30019 
L 216.115 350.233871 
L 247.85 306.167552 
L 247.85 295.036977 
L 120.91 295.036977 
L 120.91 306.167552 
L 152.645 350.233871 
L 120.91 394.30019 
L 120.91 388.127069 
z
" clip-path="url(#p6203753409)" style="fill: #0000ff; opacity: 0.3; stroke: #0000ff; stroke-linejoin: miter"/>
   </g>
   <g id="line2d_21">
    <path d="M 184.38 388.127069 
L 184.38 400.124989 
" clip-path="url(#p6203753409)" style="fill: none; stroke: #000000; stroke-opacity: 0; stroke-linecap: square"/>
   </g>
   <g id="line2d_22">
    <path d="M 184.38 295.036977 
L 184.38 231.625083 
" clip-path="url(#p6203753409)" style="fill: none; stroke: #000000; stroke-opacity: 0; stroke-linecap: square"/>
   </g>
   <g id="line2d_23">
    <path d="M 152.645 400.124989 
L 216.115 400.124989 
" clip-path="url(#p6203753409)" style="fill: none; stroke: #000000; stroke-opacity: 0; stroke-linecap: square"/>
   </g>
   <g id="line2d_24">
    <path d="M 152.645 231.625083 
L 216.115 231.625083 
" clip-path="url(#p6203753409)" style="fill: none; stroke: #000000; stroke-opacity: 0; stroke-linecap: square"/>
   </g>
   <g id="line2d_25"/>
   <g id="patch_4">
    <path d="M 89.175 388.127069 
L 279.585 388.127069 
L 279.585 384.707024 
L 231.9825 350.233871 
L 279.585 260.578498 
L 279.585 295.036977 
L 89.175 295.036977 
L 89.175 260.578498 
L 136.7775 350.233871 
L 89.175 384.707024 
L 89.175 388.127069 
z
" clip-path="url(#p6203753409)" style="fill: #0000ff; opacity: 0.1; stroke: #0000ff; stroke-linejoin: miter"/>
   </g>
   <g id="line2d_26">
    <path d="M 184.38 388.127069 
L 184.38 400.124989 
" clip-path="url(#p6203753409)" style="fill: none; stroke: #000000; stroke-linecap: square"/>
   </g>
   <g id="line2d_27">
    <path d="M 184.38 295.036977 
L 184.38 231.625083 
" clip-path="url(#p6203753409)" style="fill: none; stroke: #000000; stroke-linecap: square"/>
   </g>
   <g id="line2d_28">
    <path d="M 136.7775 400.124989 
L 231.9825 400.124989 
" clip-path="url(#p6203753409)" style="fill: none; stroke: #000000; stroke-linecap: square"/>
   </g>
   <g id="line2d_29">
    <path d="M 136.7775 231.625083 
L 231.9825 231.625083 
" clip-path="url(#p6203753409)" style="fill: none; stroke: #000000; stroke-linecap: square"/>
   </g>
   <g id="line2d_30"/>
   <g id="LineCollection_1">
    <path d="M 120.91 336.977314 
L 247.85 336.977314 
" clip-path="url(#p6203753409)" style="fill: none; stroke: #0000ff; stroke-width: 3"/>
   </g>
   <g id="LineCollection_2">
    <path d="M 133.604 378.236008 
L 184.38 378.236008 
" clip-path="url(#p6203753409)" style="fill: none; stroke: #00008b; stroke-width: 2"/>
    <path d="M 133.604 295.71862 
L 184.38 295.71862 
" clip-path="url(#p6203753409)" style="fill: none; stroke: #00008b; stroke-width: 2"/>
   </g>
   <g id="LineCollection_3">
    <path d="M 158.992 378.236008 
L 158.992 295.71862 
" clip-path="url(#p6203753409)" style="fill: none; stroke: #00008b; stroke-width: 2"/>
   </g>
   <g id="LineCollection_4">
    <path d="M 209.768 398.391623 
L 209.768 275.563005 
" clip-path="url(#p6203753409)" style="fill: none; stroke: #3d7afd; stroke-width: 3"/>
   </g>
   <g id="LineCollection_5">
    <path d="M 184.38 398.391623 
L 235.156 398.391623 
" clip-path="url(#p6203753409)" style="fill: none; stroke: #3d7afd; stroke-width: 3"/>
   </g>
   <g id="LineCollection_6">
    <path d="M 184.38 275.563005 
L 235.156 275.563005 
" clip-path="url(#p6203753409)" style="fill: none; stroke: #3d7afd; stroke-width: 3"/>
   </g>
   <g id="LineCollection_7">
    <path d="M 209.768 294.066089 
L 209.768 229.199282 
" clip-path="url(#p6203753409)" style="fill: none; stroke: #49759c"/>
   </g>
   <g id="LineCollection_8">
    <path d="M 209.768 379.888538 
L 209.768 444.755345 
" clip-path="url(#p6203753409)" style="fill: none; stroke: #49759c"/>
   </g>
   <g id="LineCollection_9">
    <path d="M 184.38 379.888538 
L 235.156 379.888538 
" clip-path="url(#p6203753409)" style="fill: none; stroke: #49759c; stroke-width: 2"/>
   </g>
   <g id="LineCollection_10">
    <path d="M 184.38 294.066089 
L 235.156 294.066089 
" clip-path="url(#p6203753409)" style="fill: none; stroke: #49759c; stroke-width: 2"/>
   </g>
   <g id="LineCollection_11">
    <path d="M 184.38 444.755345 
L 235.156 444.755345 
" clip-path="url(#p6203753409)" style="fill: none; stroke: #49759c; stroke-width: 2"/>
   </g>
   <g id="LineCollection_12">
    <path d="M 184.38 229.199282 
L 235.156 229.199282 
" clip-path="url(#p6203753409)" style="fill: none; stroke: #49759c; stroke-width: 2"/>
   </g>
   <g id="patch_5">
    <path d="M 374.79 283.414767 
L 501.73 283.414767 
L 501.73 319.426118 
L 469.995 266.630969 
L 501.73 213.835819 
L 501.73 216.159799 
L 374.79 216.159799 
L 374.79 213.835819 
L 406.525 266.630969 
L 374.79 319.426118 
L 374.79 283.414767 
z
" clip-path="url(#p6203753409)" style="fill: #ff0000; opacity: 0.3; stroke: #ff0000; stroke-linejoin: miter"/>
   </g>
   <g id="line2d_31">
    <path d="M 438.26 283.414767 
L 438.26 323.577425 
" clip-path="url(#p6203753409)" style="fill: none; stroke: #000000; stroke-opacity: 0; stroke-linecap: square"/>
   </g>
   <g id="line2d_32">
    <path d="M 438.26 216.159799 
L 438.26 216.159799 
" clip-path="url(#p6203753409)" style="fill: none; stroke: #000000; stroke-opacity: 0; stroke-linecap: square"/>
   </g>
   <g id="line2d_33">
    <path d="M 406.525 323.577425 
L 469.995 323.577425 
" clip-path="url(#p6203753409)" style="fill: none; stroke: #000000; stroke-opacity: 0; stroke-linecap: square"/>
   </g>
   <g id="line2d_34">
    <path d="M 406.525 216.159799 
L 469.995 216.159799 
" clip-path="url(#p6203753409)" style="fill: none; stroke: #000000; stroke-opacity: 0; stroke-linecap: square"/>
   </g>
   <g id="line2d_35"/>
   <g id="patch_6">
    <path d="M 343.055 283.414767 
L 533.465 283.414767 
L 533.465 323.577425 
L 485.8625 266.630969 
L 533.465 169.084875 
L 533.465 216.159799 
L 343.055 216.159799 
L 343.055 169.084875 
L 390.6575 266.630969 
L 343.055 323.577425 
L 343.055 283.414767 
z
" clip-path="url(#p6203753409)" style="fill: #ff0000; opacity: 0.1; stroke: #ff0000; stroke-linejoin: miter"/>
   </g>
   <g id="line2d_36">
    <path d="M 438.26 283.414767 
L 438.26 323.577425 
" clip-path="url(#p6203753409)" style="fill: none; stroke: #000000; stroke-linecap: square"/>
   </g>
   <g id="line2d_37">
    <path d="M 438.26 216.159799 
L 438.26 216.159799 
" clip-path="url(#p6203753409)" style="fill: none; stroke: #000000; stroke-linecap: square"/>
   </g>
   <g id="line2d_38">
    <path d="M 390.6575 323.577425 
L 485.8625 323.577425 
" clip-path="url(#p6203753409)" style="fill: none; stroke: #000000; stroke-linecap: square"/>
   </g>
   <g id="line2d_39">
    <path d="M 390.6575 216.159799 
L 485.8625 216.159799 
" clip-path="url(#p6203753409)" style="fill: none; stroke: #000000; stroke-linecap: square"/>
   </g>
   <g id="line2d_40"/>
   <g id="LineCollection_13">
    <path d="M 374.79 232.943597 
L 501.73 232.943597 
" clip-path="url(#p6203753409)" style="fill: none; stroke: #ff0000; stroke-width: 3"/>
   </g>
   <g id="LineCollection_14">
    <path d="M 387.484 405.975113 
L 438.26 405.975113 
" clip-path="url(#p6203753409)" style="fill: none; stroke: #8b0000; stroke-width: 2"/>
    <path d="M 387.484 59.912081 
L 438.26 59.912081 
" clip-path="url(#p6203753409)" style="fill: none; stroke: #8b0000; stroke-width: 2"/>
   </g>
   <g id="LineCollection_15">
    <path d="M 412.872 405.975113 
L 412.872 59.912081 
" clip-path="url(#p6203753409)" style="fill: none; stroke: #8b0000; stroke-width: 2"/>
   </g>
   <g id="LineCollection_16">
    <path d="M 463.648 341.684798 
L 463.648 124.202397 
" clip-path="url(#p6203753409)" style="fill: none; stroke: #fe2f4a; stroke-width: 3"/>
   </g>
   <g id="LineCollection_17">
    <path d="M 438.26 341.684798 
L 489.036 341.684798 
" clip-path="url(#p6203753409)" style="fill: none; stroke: #fe2f4a; stroke-width: 3"/>
   </g>
   <g id="LineCollection_18">
    <path d="M 438.26 124.202397 
L 489.036 124.202397 
" clip-path="url(#p6203753409)" style="fill: none; stroke: #fe2f4a; stroke-width: 3"/>
   </g>
   <g id="LineCollection_19">
    <path d="M 463.648 171.342844 
L 463.648 -1 
" clip-path="url(#p6203753409)" style="fill: none; stroke: #bb3f3f"/>
   </g>
   <g id="LineCollection_20">
    <path d="M 463.648 294.544351 
L 463.648 459.64 
" clip-path="url(#p6203753409)" style="fill: none; stroke: #bb3f3f"/>
   </g>
   <g id="LineCollection_21">
    <path d="M 438.26 294.544351 
L 489.036 294.544351 
" clip-path="url(#p6203753409)" style="fill: none; stroke: #bb3f3f; stroke-width: 2"/>
   </g>
   <g id="LineCollection_22">
    <path d="M 438.26 171.342844 
L 489.036 171.342844 
" clip-path="url(#p6203753409)" style="fill: none; stroke: #bb3f3f; stroke-width: 2"/>
   </g>
   <g id="LineCollection_23">
    <path clip-path="url(#p6203753409)" style="fill: none; stroke: #bb3f3f; stroke-width: 2"/>
   </g>
   <g id="LineCollection_24">
    <path clip-path="url(#p6203753409)" style="fill: none; stroke: #bb3f3f; stroke-width: 2"/>
   </g>
   <g id="line2d_41">
    <path d="M 152.645 350.233871 
L 216.115 350.233871 
" clip-path="url(#p6203753409)" style="fill: none; stroke: #ff7f0e; stroke-opacity: 0"/>
   </g>
   <g id="line2d_42">
    <path d="M 136.7775 350.233871 
L 231.9825 350.233871 
" clip-path="url(#p6203753409)" style="fill: none; stroke: #000000"/>
   </g>
   <g id="line2d_43">
    <path d="M 406.525 266.630969 
L 469.995 266.630969 
" clip-path="url(#p6203753409)" style="fill: none; stroke: #ff7f0e; stroke-opacity: 0"/>
   </g>
   <g id="line2d_44">
    <path d="M 390.6575 266.630969 
L 485.8625 266.630969 
" clip-path="url(#p6203753409)" style="fill: none; stroke: #000000"/>
   </g>
   <g id="patch_7">
    <path d="M 57.44 429.040733 
L 57.44 27.0088 
" style="fill: none; stroke: #000000; stroke-width: 0.8; stroke-linejoin: miter; stroke-linecap: square"/>
   </g>
   <g id="patch_8">
    <path d="M 565.2 429.040733 
L 565.2 27.0088 
" style="fill: none; stroke: #000000; stroke-width: 0.8; stroke-linejoin: miter; stroke-linecap: square"/>
   </g>
   <g id="patch_9">
    <path d="M 57.44 429.040733 
L 565.2 429.040733 
" style="fill: none; stroke: #000000; stroke-width: 0.8; stroke-linejoin: miter; stroke-linecap: square"/>
   </g>
   <g id="patch_10">
    <path d="M 57.44 27.0088 
L 565.2 27.0088 
" style="fill: none; stroke: #000000; stroke-width: 0.8; stroke-linejoin: miter; stroke-linecap: square"/>
   </g>
   <g id="text_13">
    <!-- Young's Modulus by Group with Confidence Intervals -->
    <g transform="translate(153.901563 21.0088) scale(0.12 -0.12)">
     <defs>
      <path id="DejaVuSans-62" d="M 3116 1747 
Q 3116 2381 2855 2742 
Q 2594 3103 2138 3103 
Q 1681 3103 1420 2742 
Q 1159 2381 1159 1747 
Q 1159 1113 1420 752 
Q 1681 391 2138 391 
Q 2594 391 2855 752 
Q 3116 1113 3116 1747 
z
M 1159 2969 
Q 1341 3281 1617 3432 
Q 1894 3584 2278 3584 
Q 2916 3584 3314 3078 
Q 3713 2572 3713 1747 
Q 3713 922 3314 415 
Q 2916 -91 2278 -91 
Q 1894 -91 1617 61 
Q 1341 213 1159 525 
L 1159 0 
L 581 0 
L 581 4863 
L 1159 4863 
L 1159 2969 
z
" transform="scale(0.015625)"/>
      <path id="DejaVuSans-79" d="M 2059 -325 
Q 1816 -950 1584 -1140 
Q 1353 -1331 966 -1331 
L 506 -1331 
L 506 -850 
L 844 -850 
Q 1081 -850 1212 -737 
Q 1344 -625 1503 -206 
L 1606 56 
L 191 3500 
L 800 3500 
L 1894 763 
L 2988 3500 
L 3597 3500 
L 2059 -325 
z
" transform="scale(0.015625)"/>
      <path id="DejaVuSans-47" d="M 3809 666 
L 3809 1919 
L 2778 1919 
L 2778 2438 
L 4434 2438 
L 4434 434 
Q 4069 175 3628 42 
Q 3188 -91 2688 -91 
Q 1594 -91 976 548 
Q 359 1188 359 2328 
Q 359 3472 976 4111 
Q 1594 4750 2688 4750 
Q 3144 4750 3555 4637 
Q 3966 4525 4313 4306 
L 4313 3634 
Q 3963 3931 3569 4081 
Q 3175 4231 2741 4231 
Q 1884 4231 1454 3753 
Q 1025 3275 1025 2328 
Q 1025 1384 1454 906 
Q 1884 428 2741 428 
Q 3075 428 3337 486 
Q 3600 544 3809 666 
z
" transform="scale(0.015625)"/>
      <path id="DejaVuSans-70" d="M 1159 525 
L 1159 -1331 
L 581 -1331 
L 581 3500 
L 1159 3500 
L 1159 2969 
Q 1341 3281 1617 3432 
Q 1894 3584 2278 3584 
Q 2916 3584 3314 3078 
Q 3713 2572 3713 1747 
Q 3713 922 3314 415 
Q 2916 -91 2278 -91 
Q 1894 -91 1617 61 
Q 1341 213 1159 525 
z
M 3116 1747 
Q 3116 2381 2855 2742 
Q 2594 3103 2138 3103 
Q 1681 3103 1420 2742 
Q 1159 2381 1159 1747 
Q 1159 1113 1420 752 
Q 1681 391 2138 391 
Q 2594 391 2855 752 
Q 3116 1113 3116 1747 
z
" transform="scale(0.015625)"/>
      <path id="DejaVuSans-77" d="M 269 3500 
L 844 3500 
L 1563 769 
L 2278 3500 
L 2956 3500 
L 3675 769 
L 4391 3500 
L 4966 3500 
L 4050 0 
L 3372 0 
L 2619 2869 
L 1863 0 
L 1184 0 
L 269 3500 
z
" transform="scale(0.015625)"/>
      <path id="DejaVuSans-69" d="M 603 3500 
L 1178 3500 
L 1178 0 
L 603 0 
L 603 3500 
z
M 603 4863 
L 1178 4863 
L 1178 4134 
L 603 4134 
L 603 4863 
z
" transform="scale(0.015625)"/>
      <path id="DejaVuSans-68" d="M 3513 2113 
L 3513 0 
L 2938 0 
L 2938 2094 
Q 2938 2591 2744 2837 
Q 2550 3084 2163 3084 
Q 1697 3084 1428 2787 
Q 1159 2491 1159 1978 
L 1159 0 
L 581 0 
L 581 4863 
L 1159 4863 
L 1159 2956 
Q 1366 3272 1645 3428 
Q 1925 3584 2291 3584 
Q 2894 3584 3203 3211 
Q 3513 2838 3513 2113 
z
" transform="scale(0.015625)"/>
      <path id="DejaVuSans-66" d="M 2375 4863 
L 2375 4384 
L 1825 4384 
Q 1516 4384 1395 4259 
Q 1275 4134 1275 3809 
L 1275 3500 
L 2222 3500 
L 2222 3053 
L 1275 3053 
L 1275 0 
L 697 0 
L 697 3053 
L 147 3053 
L 147 3500 
L 697 3500 
L 697 3744 
Q 697 4328 969 4595 
Q 1241 4863 1831 4863 
L 2375 4863 
z
" transform="scale(0.015625)"/>
      <path id="DejaVuSans-63" d="M 3122 3366 
L 3122 2828 
Q 2878 2963 2633 3030 
Q 2388 3097 2138 3097 
Q 1578 3097 1268 2742 
Q 959 2388 959 1747 
Q 959 1106 1268 751 
Q 1578 397 2138 397 
Q 2388 397 2633 464 
Q 2878 531 3122 666 
L 3122 134 
Q 2881 22 2623 -34 
Q 2366 -91 2075 -91 
Q 1284 -91 818 406 
Q 353 903 353 1747 
Q 353 2603 823 3093 
Q 1294 3584 2113 3584 
Q 2378 3584 2631 3529 
Q 2884 3475 3122 3366 
z
" transform="scale(0.015625)"/>
      <path id="DejaVuSans-49" d="M 628 4666 
L 1259 4666 
L 1259 0 
L 628 0 
L 628 4666 
z
" transform="scale(0.015625)"/>
      <path id="DejaVuSans-76" d="M 191 3500 
L 800 3500 
L 1894 563 
L 2988 3500 
L 3597 3500 
L 2284 0 
L 1503 0 
L 191 3500 
z
" transform="scale(0.015625)"/>
     </defs>
     <use xlink:href="#DejaVuSans-59"/>
     <use xlink:href="#DejaVuSans-6f" transform="translate(47.833984 0)"/>
     <use xlink:href="#DejaVuSans-75" transform="translate(109.015625 0)"/>
     <use xlink:href="#DejaVuSans-6e" transform="translate(172.394531 0)"/>
     <use xlink:href="#DejaVuSans-67" transform="translate(235.773438 0)"/>
     <use xlink:href="#DejaVuSans-27" transform="translate(299.25 0)"/>
     <use xlink:href="#DejaVuSans-73" transform="translate(326.740234 0)"/>
     <use xlink:href="#DejaVuSans-20" transform="translate(378.839844 0)"/>
     <use xlink:href="#DejaVuSans-4d" transform="translate(410.626953 0)"/>
     <use xlink:href="#DejaVuSans-6f" transform="translate(496.90625 0)"/>
     <use xlink:href="#DejaVuSans-64" transform="translate(558.087891 0)"/>
     <use xlink:href="#DejaVuSans-75" transform="translate(621.564453 0)"/>
     <use xlink:href="#DejaVuSans-6c" transform="translate(684.943359 0)"/>
     <use xlink:href="#DejaVuSans-75" transform="translate(712.726562 0)"/>
     <use xlink:href="#DejaVuSans-73" transform="translate(776.105469 0)"/>
     <use xlink:href="#DejaVuSans-20" transform="translate(828.205078 0)"/>
     <use xlink:href="#DejaVuSans-62" transform="translate(859.992188 0)"/>
     <use xlink:href="#DejaVuSans-79" transform="translate(923.46875 0)"/>
     <use xlink:href="#DejaVuSans-20" transform="translate(982.648438 0)"/>
     <use xlink:href="#DejaVuSans-47" transform="translate(1014.435547 0)"/>
     <use xlink:href="#DejaVuSans-72" transform="translate(1091.925781 0)"/>
     <use xlink:href="#DejaVuSans-6f" transform="translate(1130.789062 0)"/>
     <use xlink:href="#DejaVuSans-75" transform="translate(1191.970703 0)"/>
     <use xlink:href="#DejaVuSans-70" transform="translate(1255.349609 0)"/>
     <use xlink:href="#DejaVuSans-20" transform="translate(1318.826172 0)"/>
     <use xlink:href="#DejaVuSans-77" transform="translate(1350.613281 0)"/>
     <use xlink:href="#DejaVuSans-69" transform="translate(1432.400391 0)"/>
     <use xlink:href="#DejaVuSans-74" transform="translate(1460.183594 0)"/>
     <use xlink:href="#DejaVuSans-68" transform="translate(1499.392578 0)"/>
     <use xlink:href="#DejaVuSans-20" transform="translate(1562.771484 0)"/>
     <use xlink:href="#DejaVuSans-43" transform="translate(1594.558594 0)"/>
     <use xlink:href="#DejaVuSans-6f" transform="translate(1664.382812 0)"/>
     <use xlink:href="#DejaVuSans-6e" transform="translate(1725.564453 0)"/>
     <use xlink:href="#DejaVuSans-66" transform="translate(1788.943359 0)"/>
     <use xlink:href="#DejaVuSans-69" transform="translate(1824.148438 0)"/>
     <use xlink:href="#DejaVuSans-64" transform="translate(1851.931641 0)"/>
     <use xlink:href="#DejaVuSans-65" transform="translate(1915.408203 0)"/>
     <use xlink:href="#DejaVuSans-6e" transform="translate(1976.931641 0)"/>
     <use xlink:href="#DejaVuSans-63" transform="translate(2040.310547 0)"/>
     <use xlink:href="#DejaVuSans-65" transform="translate(2095.291016 0)"/>
     <use xlink:href="#DejaVuSans-20" transform="translate(2156.814453 0)"/>
     <use xlink:href="#DejaVuSans-49" transform="translate(2188.601562 0)"/>
     <use xlink:href="#DejaVuSans-6e" transform="translate(2218.09375 0)"/>
     <use xlink:href="#DejaVuSans-74" transform="translate(2281.472656 0)"/>
     <use xlink:href="#DejaVuSans-65" transform="translate(2320.681641 0)"/>
     <use xlink:href="#DejaVuSans-72" transform="translate(2382.205078 0)"/>
     <use xlink:href="#DejaVuSans-76" transform="translate(2423.318359 0)"/>
     <use xlink:href="#DejaVuSans-61" transform="translate(2482.498047 0)"/>
     <use xlink:href="#DejaVuSans-6c" transform="translate(2543.777344 0)"/>
     <use xlink:href="#DejaVuSans-73" transform="translate(2571.560547 0)"/>
    </g>
   </g>
   <g id="legend_1">
    <g id="patch_11">
     <path d="M 64.44 216.140362 
L 285.968125 216.140362 
Q 287.968125 216.140362 287.968125 214.140362 
L 287.968125 34.0088 
Q 287.968125 32.0088 285.968125 32.0088 
L 64.44 32.0088 
Q 62.44 32.0088 62.44 34.0088 
L 62.44 214.140362 
Q 62.44 216.140362 64.44 216.140362 
z
" style="fill: #ffffff; opacity: 0.8; stroke: #cccccc; stroke-linejoin: miter"/>
    </g>
    <g id="patch_12">
     <path d="M 66.44 50.245988 
L 86.44 50.245988 
L 86.44 43.245988 
L 66.44 43.245988 
z
" style="fill: #0000ff; opacity: 0.3; stroke: #0000ff; stroke-linejoin: miter"/>
    </g>
    <g id="text_14">
     <!-- Notched  -->
     <g transform="translate(94.44 43.607237) scale(0.1 -0.1)">
      <defs>
       <path id="DejaVuSans-4e" d="M 628 4666 
L 1478 4666 
L 3547 763 
L 3547 4666 
L 4159 4666 
L 4159 0 
L 3309 0 
L 1241 3903 
L 1241 0 
L 628 0 
L 628 4666 
z
" transform="scale(0.015625)"/>
      </defs>
      <use xlink:href="#DejaVuSans-4e"/>
      <use xlink:href="#DejaVuSans-6f" transform="translate(74.804688 0)"/>
      <use xlink:href="#DejaVuSans-74" transform="translate(135.986328 0)"/>
      <use xlink:href="#DejaVuSans-63" transform="translate(175.195312 0)"/>
      <use xlink:href="#DejaVuSans-68" transform="translate(230.175781 0)"/>
      <use xlink:href="#DejaVuSans-65" transform="translate(293.554688 0)"/>
      <use xlink:href="#DejaVuSans-64" transform="translate(355.078125 0)"/>
      <use xlink:href="#DejaVuSans-20" transform="translate(418.554688 0)"/>
     </g>
     <!-- Box Plot -->
     <g transform="translate(94.44 54.80505) scale(0.1 -0.1)">
      <defs>
       <path id="DejaVuSans-42" d="M 1259 2228 
L 1259 519 
L 2272 519 
Q 2781 519 3026 730 
Q 3272 941 3272 1375 
Q 3272 1813 3026 2020 
Q 2781 2228 2272 2228 
L 1259 2228 
z
M 1259 4147 
L 1259 2741 
L 2194 2741 
Q 2656 2741 2882 2914 
Q 3109 3088 3109 3444 
Q 3109 3797 2882 3972 
Q 2656 4147 2194 4147 
L 1259 4147 
z
M 628 4666 
L 2241 4666 
Q 2963 4666 3353 4366 
Q 3744 4066 3744 3513 
Q 3744 3084 3544 2831 
Q 3344 2578 2956 2516 
Q 3422 2416 3680 2098 
Q 3938 1781 3938 1306 
Q 3938 681 3513 340 
Q 3088 0 2303 0 
L 628 0 
L 628 4666 
z
" transform="scale(0.015625)"/>
       <path id="DejaVuSans-78" d="M 3513 3500 
L 2247 1797 
L 3578 0 
L 2900 0 
L 1881 1375 
L 863 0 
L 184 0 
L 1544 1831 
L 300 3500 
L 978 3500 
L 1906 2253 
L 2834 3500 
L 3513 3500 
z
" transform="scale(0.015625)"/>
      </defs>
      <use xlink:href="#DejaVuSans-42"/>
      <use xlink:href="#DejaVuSans-6f" transform="translate(68.603516 0)"/>
      <use xlink:href="#DejaVuSans-78" transform="translate(126.660156 0)"/>
      <use xlink:href="#DejaVuSans-20" transform="translate(185.839844 0)"/>
      <use xlink:href="#DejaVuSans-50" transform="translate(217.626953 0)"/>
      <use xlink:href="#DejaVuSans-6c" transform="translate(277.929688 0)"/>
      <use xlink:href="#DejaVuSans-6f" transform="translate(305.712891 0)"/>
      <use xlink:href="#DejaVuSans-74" transform="translate(366.894531 0)"/>
     </g>
    </g>
    <g id="patch_13">
     <path d="M 66.44 76.121925 
L 86.44 76.121925 
L 86.44 69.121925 
L 66.44 69.121925 
z
" style="fill: #0000ff; opacity: 0.1; stroke: #0000ff; stroke-linejoin: miter"/>
    </g>
    <g id="text_15">
     <!-- Bootstrapped  -->
     <g transform="translate(94.44 69.483175) scale(0.1 -0.1)">
      <use xlink:href="#DejaVuSans-42"/>
      <use xlink:href="#DejaVuSans-6f" transform="translate(68.603516 0)"/>
      <use xlink:href="#DejaVuSans-6f" transform="translate(129.785156 0)"/>
      <use xlink:href="#DejaVuSans-74" transform="translate(190.966797 0)"/>
      <use xlink:href="#DejaVuSans-73" transform="translate(230.175781 0)"/>
      <use xlink:href="#DejaVuSans-74" transform="translate(282.275391 0)"/>
      <use xlink:href="#DejaVuSans-72" transform="translate(321.484375 0)"/>
      <use xlink:href="#DejaVuSans-61" transform="translate(362.597656 0)"/>
      <use xlink:href="#DejaVuSans-70" transform="translate(423.876953 0)"/>
      <use xlink:href="#DejaVuSans-70" transform="translate(487.353516 0)"/>
      <use xlink:href="#DejaVuSans-65" transform="translate(550.830078 0)"/>
      <use xlink:href="#DejaVuSans-64" transform="translate(612.353516 0)"/>
      <use xlink:href="#DejaVuSans-20" transform="translate(675.830078 0)"/>
     </g>
     <!-- Box Plot -->
     <g transform="translate(94.44 80.680988) scale(0.1 -0.1)">
      <use xlink:href="#DejaVuSans-42"/>
      <use xlink:href="#DejaVuSans-6f" transform="translate(68.603516 0)"/>
      <use xlink:href="#DejaVuSans-78" transform="translate(126.660156 0)"/>
      <use xlink:href="#DejaVuSans-20" transform="translate(185.839844 0)"/>
      <use xlink:href="#DejaVuSans-50" transform="translate(217.626953 0)"/>
      <use xlink:href="#DejaVuSans-6c" transform="translate(277.929688 0)"/>
      <use xlink:href="#DejaVuSans-6f" transform="translate(305.712891 0)"/>
      <use xlink:href="#DejaVuSans-74" transform="translate(366.894531 0)"/>
     </g>
    </g>
    <g id="line2d_45">
     <path d="M 66.44 91.859113 
L 76.44 91.859113 
L 86.44 91.859113 
" style="fill: none; stroke: #000000; stroke-linecap: square"/>
    </g>
    <g id="text_16">
     <!-- Median -->
     <g transform="translate(94.44 95.359113) scale(0.1 -0.1)">
      <use xlink:href="#DejaVuSans-4d"/>
      <use xlink:href="#DejaVuSans-65" transform="translate(86.279297 0)"/>
      <use xlink:href="#DejaVuSans-64" transform="translate(147.802734 0)"/>
      <use xlink:href="#DejaVuSans-69" transform="translate(211.279297 0)"/>
      <use xlink:href="#DejaVuSans-61" transform="translate(239.0625 0)"/>
      <use xlink:href="#DejaVuSans-6e" transform="translate(300.341797 0)"/>
     </g>
    </g>
    <g id="line2d_46">
     <path d="M 66.44 106.537238 
L 76.44 106.537238 
L 86.44 106.537238 
" style="fill: none; stroke: #0000ff; stroke-width: 3; stroke-linecap: square"/>
    </g>
    <g id="text_17">
     <!-- Mean -->
     <g transform="translate(94.44 110.037238) scale(0.1 -0.1)">
      <use xlink:href="#DejaVuSans-4d"/>
      <use xlink:href="#DejaVuSans-65" transform="translate(86.279297 0)"/>
      <use xlink:href="#DejaVuSans-61" transform="translate(147.802734 0)"/>
      <use xlink:href="#DejaVuSans-6e" transform="translate(209.082031 0)"/>
     </g>
    </g>
    <g id="line2d_47">
     <path d="M 66.44 133.453019 
L 76.44 133.453019 
L 86.44 133.453019 
" style="fill: none; stroke: #00008b; stroke-width: 2; stroke-linecap: square"/>
    </g>
    <g id="text_18">
     <!-- Mean 95%  -->
     <g transform="translate(94.44 124.715363) scale(0.1 -0.1)">
      <defs>
       <path id="DejaVuSans-39" d="M 703 97 
L 703 672 
Q 941 559 1184 500 
Q 1428 441 1663 441 
Q 2288 441 2617 861 
Q 2947 1281 2994 2138 
Q 2813 1869 2534 1725 
Q 2256 1581 1919 1581 
Q 1219 1581 811 2004 
Q 403 2428 403 3163 
Q 403 3881 828 4315 
Q 1253 4750 1959 4750 
Q 2769 4750 3195 4129 
Q 3622 3509 3622 2328 
Q 3622 1225 3098 567 
Q 2575 -91 1691 -91 
Q 1453 -91 1209 -44 
Q 966 3 703 97 
z
M 1959 2075 
Q 2384 2075 2632 2365 
Q 2881 2656 2881 3163 
Q 2881 3666 2632 3958 
Q 2384 4250 1959 4250 
Q 1534 4250 1286 3958 
Q 1038 3666 1038 3163 
Q 1038 2656 1286 2365 
Q 1534 2075 1959 2075 
z
" transform="scale(0.015625)"/>
       <path id="DejaVuSans-25" d="M 4653 2053 
Q 4381 2053 4226 1822 
Q 4072 1591 4072 1178 
Q 4072 772 4226 539 
Q 4381 306 4653 306 
Q 4919 306 5073 539 
Q 5228 772 5228 1178 
Q 5228 1588 5073 1820 
Q 4919 2053 4653 2053 
z
M 4653 2450 
Q 5147 2450 5437 2106 
Q 5728 1763 5728 1178 
Q 5728 594 5436 251 
Q 5144 -91 4653 -91 
Q 4153 -91 3862 251 
Q 3572 594 3572 1178 
Q 3572 1766 3864 2108 
Q 4156 2450 4653 2450 
z
M 1428 4353 
Q 1159 4353 1004 4120 
Q 850 3888 850 3481 
Q 850 3069 1003 2837 
Q 1156 2606 1428 2606 
Q 1700 2606 1854 2837 
Q 2009 3069 2009 3481 
Q 2009 3884 1853 4118 
Q 1697 4353 1428 4353 
z
M 4250 4750 
L 4750 4750 
L 1831 -91 
L 1331 -91 
L 4250 4750 
z
M 1428 4750 
Q 1922 4750 2215 4408 
Q 2509 4066 2509 3481 
Q 2509 2891 2217 2550 
Q 1925 2209 1428 2209 
Q 931 2209 642 2551 
Q 353 2894 353 3481 
Q 353 4063 643 4406 
Q 934 4750 1428 4750 
z
" transform="scale(0.015625)"/>
      </defs>
      <use xlink:href="#DejaVuSans-4d"/>
      <use xlink:href="#DejaVuSans-65" transform="translate(86.279297 0)"/>
      <use xlink:href="#DejaVuSans-61" transform="translate(147.802734 0)"/>
      <use xlink:href="#DejaVuSans-6e" transform="translate(209.082031 0)"/>
      <use xlink:href="#DejaVuSans-20" transform="translate(272.460938 0)"/>
      <use xlink:href="#DejaVuSans-39" transform="translate(304.248047 0)"/>
      <use xlink:href="#DejaVuSans-35" transform="translate(367.871094 0)"/>
      <use xlink:href="#DejaVuSans-25" transform="translate(431.494141 0)"/>
      <use xlink:href="#DejaVuSans-20" transform="translate(526.513672 0)"/>
     </g>
     <!-- Confidence  -->
     <g transform="translate(94.44 135.913175) scale(0.1 -0.1)">
      <use xlink:href="#DejaVuSans-43"/>
      <use xlink:href="#DejaVuSans-6f" transform="translate(69.824219 0)"/>
      <use xlink:href="#DejaVuSans-6e" transform="translate(131.005859 0)"/>
      <use xlink:href="#DejaVuSans-66" transform="translate(194.384766 0)"/>
      <use xlink:href="#DejaVuSans-69" transform="translate(229.589844 0)"/>
      <use xlink:href="#DejaVuSans-64" transform="translate(257.373047 0)"/>
      <use xlink:href="#DejaVuSans-65" transform="translate(320.849609 0)"/>
      <use xlink:href="#DejaVuSans-6e" transform="translate(382.373047 0)"/>
      <use xlink:href="#DejaVuSans-63" transform="translate(445.751953 0)"/>
      <use xlink:href="#DejaVuSans-65" transform="translate(500.732422 0)"/>
      <use xlink:href="#DejaVuSans-20" transform="translate(562.255859 0)"/>
     </g>
     <!-- Interval -->
     <g transform="translate(94.44 147.110988) scale(0.1 -0.1)">
      <use xlink:href="#DejaVuSans-49"/>
      <use xlink:href="#DejaVuSans-6e" transform="translate(29.492188 0)"/>
      <use xlink:href="#DejaVuSans-74" transform="translate(92.871094 0)"/>
      <use xlink:href="#DejaVuSans-65" transform="translate(132.080078 0)"/>
      <use xlink:href="#DejaVuSans-72" transform="translate(193.603516 0)"/>
      <use xlink:href="#DejaVuSans-76" transform="translate(234.716797 0)"/>
      <use xlink:href="#DejaVuSans-61" transform="translate(293.896484 0)"/>
      <use xlink:href="#DejaVuSans-6c" transform="translate(355.175781 0)"/>
     </g>
    </g>
    <g id="line2d_48">
     <path d="M 66.44 164.927863 
L 76.44 164.927863 
L 86.44 164.927863 
" style="fill: none; stroke: #3d7afd; stroke-width: 3; stroke-linecap: square"/>
    </g>
    <g id="text_19">
     <!-- Standard  -->
     <g transform="translate(94.44 161.789112) scale(0.1 -0.1)">
      <defs>
       <path id="DejaVuSans-53" d="M 3425 4513 
L 3425 3897 
Q 3066 4069 2747 4153 
Q 2428 4238 2131 4238 
Q 1616 4238 1336 4038 
Q 1056 3838 1056 3469 
Q 1056 3159 1242 3001 
Q 1428 2844 1947 2747 
L 2328 2669 
Q 3034 2534 3370 2195 
Q 3706 1856 3706 1288 
Q 3706 609 3251 259 
Q 2797 -91 1919 -91 
Q 1588 -91 1214 -16 
Q 841 59 441 206 
L 441 856 
Q 825 641 1194 531 
Q 1563 422 1919 422 
Q 2459 422 2753 634 
Q 3047 847 3047 1241 
Q 3047 1584 2836 1778 
Q 2625 1972 2144 2069 
L 1759 2144 
Q 1053 2284 737 2584 
Q 422 2884 422 3419 
Q 422 4038 858 4394 
Q 1294 4750 2059 4750 
Q 2388 4750 2728 4690 
Q 3069 4631 3425 4513 
z
" transform="scale(0.015625)"/>
      </defs>
      <use xlink:href="#DejaVuSans-53"/>
      <use xlink:href="#DejaVuSans-74" transform="translate(63.476562 0)"/>
      <use xlink:href="#DejaVuSans-61" transform="translate(102.685547 0)"/>
      <use xlink:href="#DejaVuSans-6e" transform="translate(163.964844 0)"/>
      <use xlink:href="#DejaVuSans-64" transform="translate(227.34375 0)"/>
      <use xlink:href="#DejaVuSans-61" transform="translate(290.820312 0)"/>
      <use xlink:href="#DejaVuSans-72" transform="translate(352.099609 0)"/>
      <use xlink:href="#DejaVuSans-64" transform="translate(391.462891 0)"/>
      <use xlink:href="#DejaVuSans-20" transform="translate(454.939453 0)"/>
     </g>
     <!-- Deviation -->
     <g transform="translate(94.44 172.986925) scale(0.1 -0.1)">
      <defs>
       <path id="DejaVuSans-44" d="M 1259 4147 
L 1259 519 
L 2022 519 
Q 2988 519 3436 956 
Q 3884 1394 3884 2338 
Q 3884 3275 3436 3711 
Q 2988 4147 2022 4147 
L 1259 4147 
z
M 628 4666 
L 1925 4666 
Q 3281 4666 3915 4102 
Q 4550 3538 4550 2338 
Q 4550 1131 3912 565 
Q 3275 0 1925 0 
L 628 0 
L 628 4666 
z
" transform="scale(0.015625)"/>
      </defs>
      <use xlink:href="#DejaVuSans-44"/>
      <use xlink:href="#DejaVuSans-65" transform="translate(77.001953 0)"/>
      <use xlink:href="#DejaVuSans-76" transform="translate(138.525391 0)"/>
      <use xlink:href="#DejaVuSans-69" transform="translate(197.705078 0)"/>
      <use xlink:href="#DejaVuSans-61" transform="translate(225.488281 0)"/>
      <use xlink:href="#DejaVuSans-74" transform="translate(286.767578 0)"/>
      <use xlink:href="#DejaVuSans-69" transform="translate(325.976562 0)"/>
      <use xlink:href="#DejaVuSans-6f" transform="translate(353.759766 0)"/>
      <use xlink:href="#DejaVuSans-6e" transform="translate(414.941406 0)"/>
     </g>
    </g>
    <g id="line2d_49">
     <path d="M 66.44 196.402706 
L 76.44 196.402706 
L 86.44 196.402706 
" style="fill: none; stroke: #49759c; stroke-width: 2; stroke-linecap: square"/>
    </g>
    <g id="text_20">
     <!-- StdDv 95%  -->
     <g transform="translate(94.44 187.66505) scale(0.1 -0.1)">
      <use xlink:href="#DejaVuSans-53"/>
      <use xlink:href="#DejaVuSans-74" transform="translate(63.476562 0)"/>
      <use xlink:href="#DejaVuSans-64" transform="translate(102.685547 0)"/>
      <use xlink:href="#DejaVuSans-44" transform="translate(166.162109 0)"/>
      <use xlink:href="#DejaVuSans-76" transform="translate(243.164062 0)"/>
      <use xlink:href="#DejaVuSans-20" transform="translate(302.34375 0)"/>
      <use xlink:href="#DejaVuSans-39" transform="translate(334.130859 0)"/>
      <use xlink:href="#DejaVuSans-35" transform="translate(397.753906 0)"/>
      <use xlink:href="#DejaVuSans-25" transform="translate(461.376953 0)"/>
      <use xlink:href="#DejaVuSans-20" transform="translate(556.396484 0)"/>
     </g>
     <!-- Confidence  -->
     <g transform="translate(94.44 198.862863) scale(0.1 -0.1)">
      <use xlink:href="#DejaVuSans-43"/>
      <use xlink:href="#DejaVuSans-6f" transform="translate(69.824219 0)"/>
      <use xlink:href="#DejaVuSans-6e" transform="translate(131.005859 0)"/>
      <use xlink:href="#DejaVuSans-66" transform="translate(194.384766 0)"/>
      <use xlink:href="#DejaVuSans-69" transform="translate(229.589844 0)"/>
      <use xlink:href="#DejaVuSans-64" transform="translate(257.373047 0)"/>
      <use xlink:href="#DejaVuSans-65" transform="translate(320.849609 0)"/>
      <use xlink:href="#DejaVuSans-6e" transform="translate(382.373047 0)"/>
      <use xlink:href="#DejaVuSans-63" transform="translate(445.751953 0)"/>
      <use xlink:href="#DejaVuSans-65" transform="translate(500.732422 0)"/>
      <use xlink:href="#DejaVuSans-20" transform="translate(562.255859 0)"/>
     </g>
     <!-- Interval -->
     <g transform="translate(94.44 210.060675) scale(0.1 -0.1)">
      <use xlink:href="#DejaVuSans-49"/>
      <use xlink:href="#DejaVuSans-6e" transform="translate(29.492188 0)"/>
      <use xlink:href="#DejaVuSans-74" transform="translate(92.871094 0)"/>
      <use xlink:href="#DejaVuSans-65" transform="translate(132.080078 0)"/>
      <use xlink:href="#DejaVuSans-72" transform="translate(193.603516 0)"/>
      <use xlink:href="#DejaVuSans-76" transform="translate(234.716797 0)"/>
      <use xlink:href="#DejaVuSans-61" transform="translate(293.896484 0)"/>
      <use xlink:href="#DejaVuSans-6c" transform="translate(355.175781 0)"/>
     </g>
    </g>
    <g id="patch_14">
     <path d="M 185.204063 50.245988 
L 205.204063 50.245988 
L 205.204063 43.245988 
L 185.204063 43.245988 
z
" style="fill: #ff0000; opacity: 0.3; stroke: #ff0000; stroke-linejoin: miter"/>
    </g>
    <g id="text_21">
     <!-- Notched  -->
     <g transform="translate(213.204063 43.607237) scale(0.1 -0.1)">
      <use xlink:href="#DejaVuSans-4e"/>
      <use xlink:href="#DejaVuSans-6f" transform="translate(74.804688 0)"/>
      <use xlink:href="#DejaVuSans-74" transform="translate(135.986328 0)"/>
      <use xlink:href="#DejaVuSans-63" transform="translate(175.195312 0)"/>
      <use xlink:href="#DejaVuSans-68" transform="translate(230.175781 0)"/>
      <use xlink:href="#DejaVuSans-65" transform="translate(293.554688 0)"/>
      <use xlink:href="#DejaVuSans-64" transform="translate(355.078125 0)"/>
      <use xlink:href="#DejaVuSans-20" transform="translate(418.554688 0)"/>
     </g>
     <!-- Box Plot -->
     <g transform="translate(213.204063 54.80505) scale(0.1 -0.1)">
      <use xlink:href="#DejaVuSans-42"/>
      <use xlink:href="#DejaVuSans-6f" transform="translate(68.603516 0)"/>
      <use xlink:href="#DejaVuSans-78" transform="translate(126.660156 0)"/>
      <use xlink:href="#DejaVuSans-20" transform="translate(185.839844 0)"/>
      <use xlink:href="#DejaVuSans-50" transform="translate(217.626953 0)"/>
      <use xlink:href="#DejaVuSans-6c" transform="translate(277.929688 0)"/>
      <use xlink:href="#DejaVuSans-6f" transform="translate(305.712891 0)"/>
      <use xlink:href="#DejaVuSans-74" transform="translate(366.894531 0)"/>
     </g>
    </g>
    <g id="patch_15">
     <path d="M 185.204063 76.121925 
L 205.204063 76.121925 
L 205.204063 69.121925 
L 185.204063 69.121925 
z
" style="fill: #ff0000; opacity: 0.1; stroke: #ff0000; stroke-linejoin: miter"/>
    </g>
    <g id="text_22">
     <!-- Bootstrapped  -->
     <g transform="translate(213.204063 69.483175) scale(0.1 -0.1)">
      <use xlink:href="#DejaVuSans-42"/>
      <use xlink:href="#DejaVuSans-6f" transform="translate(68.603516 0)"/>
      <use xlink:href="#DejaVuSans-6f" transform="translate(129.785156 0)"/>
      <use xlink:href="#DejaVuSans-74" transform="translate(190.966797 0)"/>
      <use xlink:href="#DejaVuSans-73" transform="translate(230.175781 0)"/>
      <use xlink:href="#DejaVuSans-74" transform="translate(282.275391 0)"/>
      <use xlink:href="#DejaVuSans-72" transform="translate(321.484375 0)"/>
      <use xlink:href="#DejaVuSans-61" transform="translate(362.597656 0)"/>
      <use xlink:href="#DejaVuSans-70" transform="translate(423.876953 0)"/>
      <use xlink:href="#DejaVuSans-70" transform="translate(487.353516 0)"/>
      <use xlink:href="#DejaVuSans-65" transform="translate(550.830078 0)"/>
      <use xlink:href="#DejaVuSans-64" transform="translate(612.353516 0)"/>
      <use xlink:href="#DejaVuSans-20" transform="translate(675.830078 0)"/>
     </g>
     <!-- Box Plot -->
     <g transform="translate(213.204063 80.680988) scale(0.1 -0.1)">
      <use xlink:href="#DejaVuSans-42"/>
      <use xlink:href="#DejaVuSans-6f" transform="translate(68.603516 0)"/>
      <use xlink:href="#DejaVuSans-78" transform="translate(126.660156 0)"/>
      <use xlink:href="#DejaVuSans-20" transform="translate(185.839844 0)"/>
      <use xlink:href="#DejaVuSans-50" transform="translate(217.626953 0)"/>
      <use xlink:href="#DejaVuSans-6c" transform="translate(277.929688 0)"/>
      <use xlink:href="#DejaVuSans-6f" transform="translate(305.712891 0)"/>
      <use xlink:href="#DejaVuSans-74" transform="translate(366.894531 0)"/>
     </g>
    </g>
    <g id="line2d_50">
     <path d="M 185.204063 91.859113 
L 195.204063 91.859113 
L 205.204063 91.859113 
" style="fill: none; stroke: #000000; stroke-linecap: square"/>
    </g>
    <g id="text_23">
     <!-- Median -->
     <g transform="translate(213.204063 95.359113) scale(0.1 -0.1)">
      <use xlink:href="#DejaVuSans-4d"/>
      <use xlink:href="#DejaVuSans-65" transform="translate(86.279297 0)"/>
      <use xlink:href="#DejaVuSans-64" transform="translate(147.802734 0)"/>
      <use xlink:href="#DejaVuSans-69" transform="translate(211.279297 0)"/>
      <use xlink:href="#DejaVuSans-61" transform="translate(239.0625 0)"/>
      <use xlink:href="#DejaVuSans-6e" transform="translate(300.341797 0)"/>
     </g>
    </g>
    <g id="line2d_51">
     <path d="M 185.204063 106.537238 
L 195.204063 106.537238 
L 205.204063 106.537238 
" style="fill: none; stroke: #ff0000; stroke-width: 3; stroke-linecap: square"/>
    </g>
    <g id="text_24">
     <!-- Mean -->
     <g transform="translate(213.204063 110.037238) scale(0.1 -0.1)">
      <use xlink:href="#DejaVuSans-4d"/>
      <use xlink:href="#DejaVuSans-65" transform="translate(86.279297 0)"/>
      <use xlink:href="#DejaVuSans-61" transform="translate(147.802734 0)"/>
      <use xlink:href="#DejaVuSans-6e" transform="translate(209.082031 0)"/>
     </g>
    </g>
    <g id="line2d_52">
     <path d="M 185.204063 133.453019 
L 195.204063 133.453019 
L 205.204063 133.453019 
" style="fill: none; stroke: #8b0000; stroke-width: 2; stroke-linecap: square"/>
    </g>
    <g id="text_25">
     <!-- Mean 95%  -->
     <g transform="translate(213.204063 124.715363) scale(0.1 -0.1)">
      <use xlink:href="#DejaVuSans-4d"/>
      <use xlink:href="#DejaVuSans-65" transform="translate(86.279297 0)"/>
      <use xlink:href="#DejaVuSans-61" transform="translate(147.802734 0)"/>
      <use xlink:href="#DejaVuSans-6e" transform="translate(209.082031 0)"/>
      <use xlink:href="#DejaVuSans-20" transform="translate(272.460938 0)"/>
      <use xlink:href="#DejaVuSans-39" transform="translate(304.248047 0)"/>
      <use xlink:href="#DejaVuSans-35" transform="translate(367.871094 0)"/>
      <use xlink:href="#DejaVuSans-25" transform="translate(431.494141 0)"/>
      <use xlink:href="#DejaVuSans-20" transform="translate(526.513672 0)"/>
     </g>
     <!-- Confidence  -->
     <g transform="translate(213.204063 135.913175) scale(0.1 -0.1)">
      <use xlink:href="#DejaVuSans-43"/>
      <use xlink:href="#DejaVuSans-6f" transform="translate(69.824219 0)"/>
      <use xlink:href="#DejaVuSans-6e" transform="translate(131.005859 0)"/>
      <use xlink:href="#DejaVuSans-66" transform="translate(194.384766 0)"/>
      <use xlink:href="#DejaVuSans-69" transform="translate(229.589844 0)"/>
      <use xlink:href="#DejaVuSans-64" transform="translate(257.373047 0)"/>
      <use xlink:href="#DejaVuSans-65" transform="translate(320.849609 0)"/>
      <use xlink:href="#DejaVuSans-6e" transform="translate(382.373047 0)"/>
      <use xlink:href="#DejaVuSans-63" transform="translate(445.751953 0)"/>
      <use xlink:href="#DejaVuSans-65" transform="translate(500.732422 0)"/>
      <use xlink:href="#DejaVuSans-20" transform="translate(562.255859 0)"/>
     </g>
     <!-- Interval -->
     <g transform="translate(213.204063 147.110988) scale(0.1 -0.1)">
      <use xlink:href="#DejaVuSans-49"/>
      <use xlink:href="#DejaVuSans-6e" transform="translate(29.492188 0)"/>
      <use xlink:href="#DejaVuSans-74" transform="translate(92.871094 0)"/>
      <use xlink:href="#DejaVuSans-65" transform="translate(132.080078 0)"/>
      <use xlink:href="#DejaVuSans-72" transform="translate(193.603516 0)"/>
      <use xlink:href="#DejaVuSans-76" transform="translate(234.716797 0)"/>
      <use xlink:href="#DejaVuSans-61" transform="translate(293.896484 0)"/>
      <use xlink:href="#DejaVuSans-6c" transform="translate(355.175781 0)"/>
     </g>
    </g>
    <g id="line2d_53">
     <path d="M 185.204063 164.927863 
L 195.204063 164.927863 
L 205.204063 164.927863 
" style="fill: none; stroke: #fe2f4a; stroke-width: 3; stroke-linecap: square"/>
    </g>
    <g id="text_26">
     <!-- Standard  -->
     <g transform="translate(213.204063 161.789112) scale(0.1 -0.1)">
      <use xlink:href="#DejaVuSans-53"/>
      <use xlink:href="#DejaVuSans-74" transform="translate(63.476562 0)"/>
      <use xlink:href="#DejaVuSans-61" transform="translate(102.685547 0)"/>
      <use xlink:href="#DejaVuSans-6e" transform="translate(163.964844 0)"/>
      <use xlink:href="#DejaVuSans-64" transform="translate(227.34375 0)"/>
      <use xlink:href="#DejaVuSans-61" transform="translate(290.820312 0)"/>
      <use xlink:href="#DejaVuSans-72" transform="translate(352.099609 0)"/>
      <use xlink:href="#DejaVuSans-64" transform="translate(391.462891 0)"/>
      <use xlink:href="#DejaVuSans-20" transform="translate(454.939453 0)"/>
     </g>
     <!-- Deviation -->
     <g transform="translate(213.204063 172.986925) scale(0.1 -0.1)">
      <use xlink:href="#DejaVuSans-44"/>
      <use xlink:href="#DejaVuSans-65" transform="translate(77.001953 0)"/>
      <use xlink:href="#DejaVuSans-76" transform="translate(138.525391 0)"/>
      <use xlink:href="#DejaVuSans-69" transform="translate(197.705078 0)"/>
      <use xlink:href="#DejaVuSans-61" transform="translate(225.488281 0)"/>
      <use xlink:href="#DejaVuSans-74" transform="translate(286.767578 0)"/>
      <use xlink:href="#DejaVuSans-69" transform="translate(325.976562 0)"/>
      <use xlink:href="#DejaVuSans-6f" transform="translate(353.759766 0)"/>
      <use xlink:href="#DejaVuSans-6e" transform="translate(414.941406 0)"/>
     </g>
    </g>
    <g id="line2d_54">
     <path d="M 185.204063 196.402706 
L 195.204063 196.402706 
L 205.204063 196.402706 
" style="fill: none; stroke: #bb3f3f; stroke-width: 2; stroke-linecap: square"/>
    </g>
    <g id="text_27">
     <!-- StdDv 95%  -->
     <g transform="translate(213.204063 187.66505) scale(0.1 -0.1)">
      <use xlink:href="#DejaVuSans-53"/>
      <use xlink:href="#DejaVuSans-74" transform="translate(63.476562 0)"/>
      <use xlink:href="#DejaVuSans-64" transform="translate(102.685547 0)"/>
      <use xlink:href="#DejaVuSans-44" transform="translate(166.162109 0)"/>
      <use xlink:href="#DejaVuSans-76" transform="translate(243.164062 0)"/>
      <use xlink:href="#DejaVuSans-20" transform="translate(302.34375 0)"/>
      <use xlink:href="#DejaVuSans-39" transform="translate(334.130859 0)"/>
      <use xlink:href="#DejaVuSans-35" transform="translate(397.753906 0)"/>
      <use xlink:href="#DejaVuSans-25" transform="translate(461.376953 0)"/>
      <use xlink:href="#DejaVuSans-20" transform="translate(556.396484 0)"/>
     </g>
     <!-- Confidence  -->
     <g transform="translate(213.204063 198.862863) scale(0.1 -0.1)">
      <use xlink:href="#DejaVuSans-43"/>
      <use xlink:href="#DejaVuSans-6f" transform="translate(69.824219 0)"/>
      <use xlink:href="#DejaVuSans-6e" transform="translate(131.005859 0)"/>
      <use xlink:href="#DejaVuSans-66" transform="translate(194.384766 0)"/>
      <use xlink:href="#DejaVuSans-69" transform="translate(229.589844 0)"/>
      <use xlink:href="#DejaVuSans-64" transform="translate(257.373047 0)"/>
      <use xlink:href="#DejaVuSans-65" transform="translate(320.849609 0)"/>
      <use xlink:href="#DejaVuSans-6e" transform="translate(382.373047 0)"/>
      <use xlink:href="#DejaVuSans-63" transform="translate(445.751953 0)"/>
      <use xlink:href="#DejaVuSans-65" transform="translate(500.732422 0)"/>
      <use xlink:href="#DejaVuSans-20" transform="translate(562.255859 0)"/>
     </g>
     <!-- Interval -->
     <g transform="translate(213.204063 210.060675) scale(0.1 -0.1)">
      <use xlink:href="#DejaVuSans-49"/>
      <use xlink:href="#DejaVuSans-6e" transform="translate(29.492188 0)"/>
      <use xlink:href="#DejaVuSans-74" transform="translate(92.871094 0)"/>
      <use xlink:href="#DejaVuSans-65" transform="translate(132.080078 0)"/>
      <use xlink:href="#DejaVuSans-72" transform="translate(193.603516 0)"/>
      <use xlink:href="#DejaVuSans-76" transform="translate(234.716797 0)"/>
      <use xlink:href="#DejaVuSans-61" transform="translate(293.896484 0)"/>
      <use xlink:href="#DejaVuSans-6c" transform="translate(355.175781 0)"/>
     </g>
    </g>
   </g>
  </g>
 </g>
 <defs>
  <clipPath id="p6203753409">
   <rect x="57.44" y="27.0088" width="507.76" height="402.031933"/>
  </clipPath>
 </defs>
</svg>
