<?xml version="1.0" encoding="utf-8" standalone="no"?>
<!DOCTYPE svg PUBLIC "-//W3C//DTD SVG 1.1//EN"
  "http://www.w3.org/Graphics/SVG/1.1/DTD/svg11.dtd">
<svg xmlns:xlink="http://www.w3.org/1999/xlink" width="576pt" height="360pt" viewBox="0 0 576 360" xmlns="http://www.w3.org/2000/svg" version="1.1">
 <metadata>
  <rdf:RDF xmlns:dc="http://purl.org/dc/elements/1.1/" xmlns:cc="http://creativecommons.org/ns#" xmlns:rdf="http://www.w3.org/1999/02/22-rdf-syntax-ns#">
   <cc:Work>
    <dc:type rdf:resource="http://purl.org/dc/dcmitype/StillImage"/>
    <dc:date>2025-05-03T06:17:37.206009</dc:date>
    <dc:format>image/svg+xml</dc:format>
    <dc:creator>
     <cc:Agent>
      <dc:title>Matplotlib v3.10.0, https://matplotlib.org/</dc:title>
     </cc:Agent>
    </dc:creator>
   </cc:Work>
  </rdf:RDF>
 </metadata>
 <defs>
  <style type="text/css">*{stroke-linejoin: round; stroke-linecap: butt}</style>
 </defs>
 <g id="figure_1">
  <g id="patch_1">
   <path d="M 0 360 
L 576 360 
L 576 0 
L 0 0 
z
" style="fill: #ffffff"/>
  </g>
  <g id="axes_1">
   <g id="patch_2">
    <path d="M 72 320.4 
L 349.267081 320.4 
L 349.267081 43.2 
L 72 43.2 
z
" style="fill: #ffffff"/>
   </g>
   <g id="matplotlib.axis_1">
    <g id="xtick_1">
     <g id="line2d_1">
      <path d="M 72 320.4 
L 72 43.2 
" clip-path="url(#p61acb50f70)" style="fill: none; stroke: #b0b0b0; stroke-width: 0.8; stroke-linecap: square"/>
     </g>
     <g id="line2d_2">
      <defs>
       <path id="me643179480" d="M 0 0 
L 0 3.5 
" style="stroke: #000000; stroke-width: 0.8"/>
      </defs>
      <g>
       <use xlink:href="#me643179480" x="72" y="320.4" style="stroke: #000000; stroke-width: 0.8"/>
      </g>
     </g>
     <g id="text_1">
      <!-- −1 -->
      <g transform="translate(64.628906 334.998438) scale(0.1 -0.1)">
       <defs>
        <path id="DejaVuSans-2212" d="M 678 2272 
L 4684 2272 
L 4684 1741 
L 678 1741 
L 678 2272 
z
" transform="scale(0.015625)"/>
        <path id="DejaVuSans-31" d="M 794 531 
L 1825 531 
L 1825 4091 
L 703 3866 
L 703 4441 
L 1819 4666 
L 2450 4666 
L 2450 531 
L 3481 531 
L 3481 0 
L 794 0 
L 794 531 
z
" transform="scale(0.015625)"/>
       </defs>
       <use xlink:href="#DejaVuSans-2212"/>
       <use xlink:href="#DejaVuSans-31" transform="translate(83.789062 0)"/>
      </g>
     </g>
    </g>
    <g id="xtick_2">
     <g id="line2d_3">
      <path d="M 130.914151 320.4 
L 130.914151 43.2 
" clip-path="url(#p61acb50f70)" style="fill: none; stroke: #b0b0b0; stroke-width: 0.8; stroke-linecap: square"/>
     </g>
     <g id="line2d_4">
      <g>
       <use xlink:href="#me643179480" x="130.914151" y="320.4" style="stroke: #000000; stroke-width: 0.8"/>
      </g>
     </g>
     <g id="text_2">
      <!-- 0 -->
      <g transform="translate(127.732901 334.998438) scale(0.1 -0.1)">
       <defs>
        <path id="DejaVuSans-30" d="M 2034 4250 
Q 1547 4250 1301 3770 
Q 1056 3291 1056 2328 
Q 1056 1369 1301 889 
Q 1547 409 2034 409 
Q 2525 409 2770 889 
Q 3016 1369 3016 2328 
Q 3016 3291 2770 3770 
Q 2525 4250 2034 4250 
z
M 2034 4750 
Q 2819 4750 3233 4129 
Q 3647 3509 3647 2328 
Q 3647 1150 3233 529 
Q 2819 -91 2034 -91 
Q 1250 -91 836 529 
Q 422 1150 422 2328 
Q 422 3509 836 4129 
Q 1250 4750 2034 4750 
z
" transform="scale(0.015625)"/>
       </defs>
       <use xlink:href="#DejaVuSans-30"/>
      </g>
     </g>
    </g>
    <g id="xtick_3">
     <g id="line2d_5">
      <path d="M 189.828302 320.4 
L 189.828302 43.2 
" clip-path="url(#p61acb50f70)" style="fill: none; stroke: #b0b0b0; stroke-width: 0.8; stroke-linecap: square"/>
     </g>
     <g id="line2d_6">
      <g>
       <use xlink:href="#me643179480" x="189.828302" y="320.4" style="stroke: #000000; stroke-width: 0.8"/>
      </g>
     </g>
     <g id="text_3">
      <!-- 1 -->
      <g transform="translate(186.647052 334.998438) scale(0.1 -0.1)">
       <use xlink:href="#DejaVuSans-31"/>
      </g>
     </g>
    </g>
    <g id="xtick_4">
     <g id="line2d_7">
      <path d="M 248.742454 320.4 
L 248.742454 43.2 
" clip-path="url(#p61acb50f70)" style="fill: none; stroke: #b0b0b0; stroke-width: 0.8; stroke-linecap: square"/>
     </g>
     <g id="line2d_8">
      <g>
       <use xlink:href="#me643179480" x="248.742454" y="320.4" style="stroke: #000000; stroke-width: 0.8"/>
      </g>
     </g>
     <g id="text_4">
      <!-- 2 -->
      <g transform="translate(245.561204 334.998438) scale(0.1 -0.1)">
       <defs>
        <path id="DejaVuSans-32" d="M 1228 531 
L 3431 531 
L 3431 0 
L 469 0 
L 469 531 
Q 828 903 1448 1529 
Q 2069 2156 2228 2338 
Q 2531 2678 2651 2914 
Q 2772 3150 2772 3378 
Q 2772 3750 2511 3984 
Q 2250 4219 1831 4219 
Q 1534 4219 1204 4116 
Q 875 4013 500 3803 
L 500 4441 
Q 881 4594 1212 4672 
Q 1544 4750 1819 4750 
Q 2544 4750 2975 4387 
Q 3406 4025 3406 3419 
Q 3406 3131 3298 2873 
Q 3191 2616 2906 2266 
Q 2828 2175 2409 1742 
Q 1991 1309 1228 531 
z
" transform="scale(0.015625)"/>
       </defs>
       <use xlink:href="#DejaVuSans-32"/>
      </g>
     </g>
    </g>
    <g id="xtick_5">
     <g id="line2d_9">
      <path d="M 307.656605 320.4 
L 307.656605 43.2 
" clip-path="url(#p61acb50f70)" style="fill: none; stroke: #b0b0b0; stroke-width: 0.8; stroke-linecap: square"/>
     </g>
     <g id="line2d_10">
      <g>
       <use xlink:href="#me643179480" x="307.656605" y="320.4" style="stroke: #000000; stroke-width: 0.8"/>
      </g>
     </g>
     <g id="text_5">
      <!-- 3 -->
      <g transform="translate(304.475355 334.998438) scale(0.1 -0.1)">
       <defs>
        <path id="DejaVuSans-33" d="M 2597 2516 
Q 3050 2419 3304 2112 
Q 3559 1806 3559 1356 
Q 3559 666 3084 287 
Q 2609 -91 1734 -91 
Q 1441 -91 1130 -33 
Q 819 25 488 141 
L 488 750 
Q 750 597 1062 519 
Q 1375 441 1716 441 
Q 2309 441 2620 675 
Q 2931 909 2931 1356 
Q 2931 1769 2642 2001 
Q 2353 2234 1838 2234 
L 1294 2234 
L 1294 2753 
L 1863 2753 
Q 2328 2753 2575 2939 
Q 2822 3125 2822 3475 
Q 2822 3834 2567 4026 
Q 2313 4219 1838 4219 
Q 1578 4219 1281 4162 
Q 984 4106 628 3988 
L 628 4550 
Q 988 4650 1302 4700 
Q 1616 4750 1894 4750 
Q 2613 4750 3031 4423 
Q 3450 4097 3450 3541 
Q 3450 3153 3228 2886 
Q 3006 2619 2597 2516 
z
" transform="scale(0.015625)"/>
       </defs>
       <use xlink:href="#DejaVuSans-33"/>
      </g>
     </g>
    </g>
    <g id="text_6">
     <!-- Indentation [m] -->
     <g transform="translate(155.997447 351.715937) scale(0.14 -0.14)">
      <defs>
       <path id="DejaVuSans-49" d="M 628 4666 
L 1259 4666 
L 1259 0 
L 628 0 
L 628 4666 
z
" transform="scale(0.015625)"/>
       <path id="DejaVuSans-6e" d="M 3513 2113 
L 3513 0 
L 2938 0 
L 2938 2094 
Q 2938 2591 2744 2837 
Q 2550 3084 2163 3084 
Q 1697 3084 1428 2787 
Q 1159 2491 1159 1978 
L 1159 0 
L 581 0 
L 581 3500 
L 1159 3500 
L 1159 2956 
Q 1366 3272 1645 3428 
Q 1925 3584 2291 3584 
Q 2894 3584 3203 3211 
Q 3513 2838 3513 2113 
z
" transform="scale(0.015625)"/>
       <path id="DejaVuSans-64" d="M 2906 2969 
L 2906 4863 
L 3481 4863 
L 3481 0 
L 2906 0 
L 2906 525 
Q 2725 213 2448 61 
Q 2172 -91 1784 -91 
Q 1150 -91 751 415 
Q 353 922 353 1747 
Q 353 2572 751 3078 
Q 1150 3584 1784 3584 
Q 2172 3584 2448 3432 
Q 2725 3281 2906 2969 
z
M 947 1747 
Q 947 1113 1208 752 
Q 1469 391 1925 391 
Q 2381 391 2643 752 
Q 2906 1113 2906 1747 
Q 2906 2381 2643 2742 
Q 2381 3103 1925 3103 
Q 1469 3103 1208 2742 
Q 947 2381 947 1747 
z
" transform="scale(0.015625)"/>
       <path id="DejaVuSans-65" d="M 3597 1894 
L 3597 1613 
L 953 1613 
Q 991 1019 1311 708 
Q 1631 397 2203 397 
Q 2534 397 2845 478 
Q 3156 559 3463 722 
L 3463 178 
Q 3153 47 2828 -22 
Q 2503 -91 2169 -91 
Q 1331 -91 842 396 
Q 353 884 353 1716 
Q 353 2575 817 3079 
Q 1281 3584 2069 3584 
Q 2775 3584 3186 3129 
Q 3597 2675 3597 1894 
z
M 3022 2063 
Q 3016 2534 2758 2815 
Q 2500 3097 2075 3097 
Q 1594 3097 1305 2825 
Q 1016 2553 972 2059 
L 3022 2063 
z
" transform="scale(0.015625)"/>
       <path id="DejaVuSans-74" d="M 1172 4494 
L 1172 3500 
L 2356 3500 
L 2356 3053 
L 1172 3053 
L 1172 1153 
Q 1172 725 1289 603 
Q 1406 481 1766 481 
L 2356 481 
L 2356 0 
L 1766 0 
Q 1100 0 847 248 
Q 594 497 594 1153 
L 594 3053 
L 172 3053 
L 172 3500 
L 594 3500 
L 594 4494 
L 1172 4494 
z
" transform="scale(0.015625)"/>
       <path id="DejaVuSans-61" d="M 2194 1759 
Q 1497 1759 1228 1600 
Q 959 1441 959 1056 
Q 959 750 1161 570 
Q 1363 391 1709 391 
Q 2188 391 2477 730 
Q 2766 1069 2766 1631 
L 2766 1759 
L 2194 1759 
z
M 3341 1997 
L 3341 0 
L 2766 0 
L 2766 531 
Q 2569 213 2275 61 
Q 1981 -91 1556 -91 
Q 1019 -91 701 211 
Q 384 513 384 1019 
Q 384 1609 779 1909 
Q 1175 2209 1959 2209 
L 2766 2209 
L 2766 2266 
Q 2766 2663 2505 2880 
Q 2244 3097 1772 3097 
Q 1472 3097 1187 3025 
Q 903 2953 641 2809 
L 641 3341 
Q 956 3463 1253 3523 
Q 1550 3584 1831 3584 
Q 2591 3584 2966 3190 
Q 3341 2797 3341 1997 
z
" transform="scale(0.015625)"/>
       <path id="DejaVuSans-69" d="M 603 3500 
L 1178 3500 
L 1178 0 
L 603 0 
L 603 3500 
z
M 603 4863 
L 1178 4863 
L 1178 4134 
L 603 4134 
L 603 4863 
z
" transform="scale(0.015625)"/>
       <path id="DejaVuSans-6f" d="M 1959 3097 
Q 1497 3097 1228 2736 
Q 959 2375 959 1747 
Q 959 1119 1226 758 
Q 1494 397 1959 397 
Q 2419 397 2687 759 
Q 2956 1122 2956 1747 
Q 2956 2369 2687 2733 
Q 2419 3097 1959 3097 
z
M 1959 3584 
Q 2709 3584 3137 3096 
Q 3566 2609 3566 1747 
Q 3566 888 3137 398 
Q 2709 -91 1959 -91 
Q 1206 -91 779 398 
Q 353 888 353 1747 
Q 353 2609 779 3096 
Q 1206 3584 1959 3584 
z
" transform="scale(0.015625)"/>
       <path id="DejaVuSans-20" transform="scale(0.015625)"/>
       <path id="DejaVuSans-5b" d="M 550 4863 
L 1875 4863 
L 1875 4416 
L 1125 4416 
L 1125 -397 
L 1875 -397 
L 1875 -844 
L 550 -844 
L 550 4863 
z
" transform="scale(0.015625)"/>
       <path id="DejaVuSans-6d" d="M 3328 2828 
Q 3544 3216 3844 3400 
Q 4144 3584 4550 3584 
Q 5097 3584 5394 3201 
Q 5691 2819 5691 2113 
L 5691 0 
L 5113 0 
L 5113 2094 
Q 5113 2597 4934 2840 
Q 4756 3084 4391 3084 
Q 3944 3084 3684 2787 
Q 3425 2491 3425 1978 
L 3425 0 
L 2847 0 
L 2847 2094 
Q 2847 2600 2669 2842 
Q 2491 3084 2119 3084 
Q 1678 3084 1418 2786 
Q 1159 2488 1159 1978 
L 1159 0 
L 581 0 
L 581 3500 
L 1159 3500 
L 1159 2956 
Q 1356 3278 1631 3431 
Q 1906 3584 2284 3584 
Q 2666 3584 2933 3390 
Q 3200 3197 3328 2828 
z
" transform="scale(0.015625)"/>
       <path id="DejaVuSans-5d" d="M 1947 4863 
L 1947 -844 
L 622 -844 
L 622 -397 
L 1369 -397 
L 1369 4416 
L 622 4416 
L 622 4863 
L 1947 4863 
z
" transform="scale(0.015625)"/>
      </defs>
      <use xlink:href="#DejaVuSans-49"/>
      <use xlink:href="#DejaVuSans-6e" transform="translate(29.492188 0)"/>
      <use xlink:href="#DejaVuSans-64" transform="translate(92.871094 0)"/>
      <use xlink:href="#DejaVuSans-65" transform="translate(156.347656 0)"/>
      <use xlink:href="#DejaVuSans-6e" transform="translate(217.871094 0)"/>
      <use xlink:href="#DejaVuSans-74" transform="translate(281.25 0)"/>
      <use xlink:href="#DejaVuSans-61" transform="translate(320.458984 0)"/>
      <use xlink:href="#DejaVuSans-74" transform="translate(381.738281 0)"/>
      <use xlink:href="#DejaVuSans-69" transform="translate(420.947266 0)"/>
      <use xlink:href="#DejaVuSans-6f" transform="translate(448.730469 0)"/>
      <use xlink:href="#DejaVuSans-6e" transform="translate(509.912109 0)"/>
      <use xlink:href="#DejaVuSans-20" transform="translate(573.291016 0)"/>
      <use xlink:href="#DejaVuSans-5b" transform="translate(605.078125 0)"/>
      <use xlink:href="#DejaVuSans-6d" transform="translate(644.091797 0)"/>
      <use xlink:href="#DejaVuSans-5d" transform="translate(741.503906 0)"/>
     </g>
    </g>
    <g id="text_7">
     <!-- 1e−7 -->
     <g transform="translate(322.009268 347.676562) scale(0.1 -0.1)">
      <defs>
       <path id="DejaVuSans-37" d="M 525 4666 
L 3525 4666 
L 3525 4397 
L 1831 0 
L 1172 0 
L 2766 4134 
L 525 4134 
L 525 4666 
z
" transform="scale(0.015625)"/>
      </defs>
      <use xlink:href="#DejaVuSans-31"/>
      <use xlink:href="#DejaVuSans-65" transform="translate(63.623047 0)"/>
      <use xlink:href="#DejaVuSans-2212" transform="translate(125.146484 0)"/>
      <use xlink:href="#DejaVuSans-37" transform="translate(208.935547 0)"/>
     </g>
    </g>
   </g>
   <g id="matplotlib.axis_2">
    <g id="ytick_1">
     <g id="line2d_11">
      <path d="M 72 282.458737 
L 349.267081 282.458737 
" clip-path="url(#p61acb50f70)" style="fill: none; stroke: #b0b0b0; stroke-width: 0.8; stroke-linecap: square"/>
     </g>
     <g id="line2d_12">
      <defs>
       <path id="m9026777274" d="M 0 0 
L -3.5 0 
" style="stroke: #000000; stroke-width: 0.8"/>
      </defs>
      <g>
       <use xlink:href="#m9026777274" x="72" y="282.458737" style="stroke: #000000; stroke-width: 0.8"/>
      </g>
     </g>
     <g id="text_8">
      <!-- 0.0 -->
      <g transform="translate(49.096875 286.257955) scale(0.1 -0.1)">
       <defs>
        <path id="DejaVuSans-2e" d="M 684 794 
L 1344 794 
L 1344 0 
L 684 0 
L 684 794 
z
" transform="scale(0.015625)"/>
       </defs>
       <use xlink:href="#DejaVuSans-30"/>
       <use xlink:href="#DejaVuSans-2e" transform="translate(63.623047 0)"/>
       <use xlink:href="#DejaVuSans-30" transform="translate(95.410156 0)"/>
      </g>
     </g>
    </g>
    <g id="ytick_2">
     <g id="line2d_13">
      <path d="M 72 238.413735 
L 349.267081 238.413735 
" clip-path="url(#p61acb50f70)" style="fill: none; stroke: #b0b0b0; stroke-width: 0.8; stroke-linecap: square"/>
     </g>
     <g id="line2d_14">
      <g>
       <use xlink:href="#m9026777274" x="72" y="238.413735" style="stroke: #000000; stroke-width: 0.8"/>
      </g>
     </g>
     <g id="text_9">
      <!-- 0.2 -->
      <g transform="translate(49.096875 242.212954) scale(0.1 -0.1)">
       <use xlink:href="#DejaVuSans-30"/>
       <use xlink:href="#DejaVuSans-2e" transform="translate(63.623047 0)"/>
       <use xlink:href="#DejaVuSans-32" transform="translate(95.410156 0)"/>
      </g>
     </g>
    </g>
    <g id="ytick_3">
     <g id="line2d_15">
      <path d="M 72 194.368734 
L 349.267081 194.368734 
" clip-path="url(#p61acb50f70)" style="fill: none; stroke: #b0b0b0; stroke-width: 0.8; stroke-linecap: square"/>
     </g>
     <g id="line2d_16">
      <g>
       <use xlink:href="#m9026777274" x="72" y="194.368734" style="stroke: #000000; stroke-width: 0.8"/>
      </g>
     </g>
     <g id="text_10">
      <!-- 0.4 -->
      <g transform="translate(49.096875 198.167953) scale(0.1 -0.1)">
       <defs>
        <path id="DejaVuSans-34" d="M 2419 4116 
L 825 1625 
L 2419 1625 
L 2419 4116 
z
M 2253 4666 
L 3047 4666 
L 3047 1625 
L 3713 1625 
L 3713 1100 
L 3047 1100 
L 3047 0 
L 2419 0 
L 2419 1100 
L 313 1100 
L 313 1709 
L 2253 4666 
z
" transform="scale(0.015625)"/>
       </defs>
       <use xlink:href="#DejaVuSans-30"/>
       <use xlink:href="#DejaVuSans-2e" transform="translate(63.623047 0)"/>
       <use xlink:href="#DejaVuSans-34" transform="translate(95.410156 0)"/>
      </g>
     </g>
    </g>
    <g id="ytick_4">
     <g id="line2d_17">
      <path d="M 72 150.323733 
L 349.267081 150.323733 
" clip-path="url(#p61acb50f70)" style="fill: none; stroke: #b0b0b0; stroke-width: 0.8; stroke-linecap: square"/>
     </g>
     <g id="line2d_18">
      <g>
       <use xlink:href="#m9026777274" x="72" y="150.323733" style="stroke: #000000; stroke-width: 0.8"/>
      </g>
     </g>
     <g id="text_11">
      <!-- 0.6 -->
      <g transform="translate(49.096875 154.122952) scale(0.1 -0.1)">
       <defs>
        <path id="DejaVuSans-36" d="M 2113 2584 
Q 1688 2584 1439 2293 
Q 1191 2003 1191 1497 
Q 1191 994 1439 701 
Q 1688 409 2113 409 
Q 2538 409 2786 701 
Q 3034 994 3034 1497 
Q 3034 2003 2786 2293 
Q 2538 2584 2113 2584 
z
M 3366 4563 
L 3366 3988 
Q 3128 4100 2886 4159 
Q 2644 4219 2406 4219 
Q 1781 4219 1451 3797 
Q 1122 3375 1075 2522 
Q 1259 2794 1537 2939 
Q 1816 3084 2150 3084 
Q 2853 3084 3261 2657 
Q 3669 2231 3669 1497 
Q 3669 778 3244 343 
Q 2819 -91 2113 -91 
Q 1303 -91 875 529 
Q 447 1150 447 2328 
Q 447 3434 972 4092 
Q 1497 4750 2381 4750 
Q 2619 4750 2861 4703 
Q 3103 4656 3366 4563 
z
" transform="scale(0.015625)"/>
       </defs>
       <use xlink:href="#DejaVuSans-30"/>
       <use xlink:href="#DejaVuSans-2e" transform="translate(63.623047 0)"/>
       <use xlink:href="#DejaVuSans-36" transform="translate(95.410156 0)"/>
      </g>
     </g>
    </g>
    <g id="ytick_5">
     <g id="line2d_19">
      <path d="M 72 106.278732 
L 349.267081 106.278732 
" clip-path="url(#p61acb50f70)" style="fill: none; stroke: #b0b0b0; stroke-width: 0.8; stroke-linecap: square"/>
     </g>
     <g id="line2d_20">
      <g>
       <use xlink:href="#m9026777274" x="72" y="106.278732" style="stroke: #000000; stroke-width: 0.8"/>
      </g>
     </g>
     <g id="text_12">
      <!-- 0.8 -->
      <g transform="translate(49.096875 110.077951) scale(0.1 -0.1)">
       <defs>
        <path id="DejaVuSans-38" d="M 2034 2216 
Q 1584 2216 1326 1975 
Q 1069 1734 1069 1313 
Q 1069 891 1326 650 
Q 1584 409 2034 409 
Q 2484 409 2743 651 
Q 3003 894 3003 1313 
Q 3003 1734 2745 1975 
Q 2488 2216 2034 2216 
z
M 1403 2484 
Q 997 2584 770 2862 
Q 544 3141 544 3541 
Q 544 4100 942 4425 
Q 1341 4750 2034 4750 
Q 2731 4750 3128 4425 
Q 3525 4100 3525 3541 
Q 3525 3141 3298 2862 
Q 3072 2584 2669 2484 
Q 3125 2378 3379 2068 
Q 3634 1759 3634 1313 
Q 3634 634 3220 271 
Q 2806 -91 2034 -91 
Q 1263 -91 848 271 
Q 434 634 434 1313 
Q 434 1759 690 2068 
Q 947 2378 1403 2484 
z
M 1172 3481 
Q 1172 3119 1398 2916 
Q 1625 2713 2034 2713 
Q 2441 2713 2670 2916 
Q 2900 3119 2900 3481 
Q 2900 3844 2670 4047 
Q 2441 4250 2034 4250 
Q 1625 4250 1398 4047 
Q 1172 3844 1172 3481 
z
" transform="scale(0.015625)"/>
       </defs>
       <use xlink:href="#DejaVuSans-30"/>
       <use xlink:href="#DejaVuSans-2e" transform="translate(63.623047 0)"/>
       <use xlink:href="#DejaVuSans-38" transform="translate(95.410156 0)"/>
      </g>
     </g>
    </g>
    <g id="ytick_6">
     <g id="line2d_21">
      <path d="M 72 62.233731 
L 349.267081 62.233731 
" clip-path="url(#p61acb50f70)" style="fill: none; stroke: #b0b0b0; stroke-width: 0.8; stroke-linecap: square"/>
     </g>
     <g id="line2d_22">
      <g>
       <use xlink:href="#m9026777274" x="72" y="62.233731" style="stroke: #000000; stroke-width: 0.8"/>
      </g>
     </g>
     <g id="text_13">
      <!-- 1.0 -->
      <g transform="translate(49.096875 66.032949) scale(0.1 -0.1)">
       <use xlink:href="#DejaVuSans-31"/>
       <use xlink:href="#DejaVuSans-2e" transform="translate(63.623047 0)"/>
       <use xlink:href="#DejaVuSans-30" transform="translate(95.410156 0)"/>
      </g>
     </g>
    </g>
    <g id="text_14">
     <!-- Force [N] -->
     <g transform="translate(42.185312 213.655469) rotate(-90) scale(0.14 -0.14)">
      <defs>
       <path id="DejaVuSans-46" d="M 628 4666 
L 3309 4666 
L 3309 4134 
L 1259 4134 
L 1259 2759 
L 3109 2759 
L 3109 2228 
L 1259 2228 
L 1259 0 
L 628 0 
L 628 4666 
z
" transform="scale(0.015625)"/>
       <path id="DejaVuSans-72" d="M 2631 2963 
Q 2534 3019 2420 3045 
Q 2306 3072 2169 3072 
Q 1681 3072 1420 2755 
Q 1159 2438 1159 1844 
L 1159 0 
L 581 0 
L 581 3500 
L 1159 3500 
L 1159 2956 
Q 1341 3275 1631 3429 
Q 1922 3584 2338 3584 
Q 2397 3584 2469 3576 
Q 2541 3569 2628 3553 
L 2631 2963 
z
" transform="scale(0.015625)"/>
       <path id="DejaVuSans-63" d="M 3122 3366 
L 3122 2828 
Q 2878 2963 2633 3030 
Q 2388 3097 2138 3097 
Q 1578 3097 1268 2742 
Q 959 2388 959 1747 
Q 959 1106 1268 751 
Q 1578 397 2138 397 
Q 2388 397 2633 464 
Q 2878 531 3122 666 
L 3122 134 
Q 2881 22 2623 -34 
Q 2366 -91 2075 -91 
Q 1284 -91 818 406 
Q 353 903 353 1747 
Q 353 2603 823 3093 
Q 1294 3584 2113 3584 
Q 2378 3584 2631 3529 
Q 2884 3475 3122 3366 
z
" transform="scale(0.015625)"/>
       <path id="DejaVuSans-4e" d="M 628 4666 
L 1478 4666 
L 3547 763 
L 3547 4666 
L 4159 4666 
L 4159 0 
L 3309 0 
L 1241 3903 
L 1241 0 
L 628 0 
L 628 4666 
z
" transform="scale(0.015625)"/>
      </defs>
      <use xlink:href="#DejaVuSans-46"/>
      <use xlink:href="#DejaVuSans-6f" transform="translate(53.894531 0)"/>
      <use xlink:href="#DejaVuSans-72" transform="translate(115.076172 0)"/>
      <use xlink:href="#DejaVuSans-63" transform="translate(153.939453 0)"/>
      <use xlink:href="#DejaVuSans-65" transform="translate(208.919922 0)"/>
      <use xlink:href="#DejaVuSans-20" transform="translate(270.443359 0)"/>
      <use xlink:href="#DejaVuSans-5b" transform="translate(302.230469 0)"/>
      <use xlink:href="#DejaVuSans-4e" transform="translate(341.244141 0)"/>
      <use xlink:href="#DejaVuSans-5d" transform="translate(416.048828 0)"/>
     </g>
    </g>
    <g id="text_15">
     <!-- 1e−9 -->
     <g transform="translate(72 40.2) scale(0.1 -0.1)">
      <defs>
       <path id="DejaVuSans-39" d="M 703 97 
L 703 672 
Q 941 559 1184 500 
Q 1428 441 1663 441 
Q 2288 441 2617 861 
Q 2947 1281 2994 2138 
Q 2813 1869 2534 1725 
Q 2256 1581 1919 1581 
Q 1219 1581 811 2004 
Q 403 2428 403 3163 
Q 403 3881 828 4315 
Q 1253 4750 1959 4750 
Q 2769 4750 3195 4129 
Q 3622 3509 3622 2328 
Q 3622 1225 3098 567 
Q 2575 -91 1691 -91 
Q 1453 -91 1209 -44 
Q 966 3 703 97 
z
M 1959 2075 
Q 2384 2075 2632 2365 
Q 2881 2656 2881 3163 
Q 2881 3666 2632 3958 
Q 2384 4250 1959 4250 
Q 1534 4250 1286 3958 
Q 1038 3666 1038 3163 
Q 1038 2656 1286 2365 
Q 1534 2075 1959 2075 
z
" transform="scale(0.015625)"/>
      </defs>
      <use xlink:href="#DejaVuSans-31"/>
      <use xlink:href="#DejaVuSans-65" transform="translate(63.623047 0)"/>
      <use xlink:href="#DejaVuSans-2212" transform="translate(125.146484 0)"/>
      <use xlink:href="#DejaVuSans-39" transform="translate(208.935547 0)"/>
     </g>
    </g>
   </g>
   <g id="line2d_23">
    <path d="M 70.614534 277.738183 
L 74.109967 277.556224 
L 75.790136 277.659212 
L 78.20485 278.362645 
L 79.666799 277.933783 
L 81.367757 277.602914 
L 82.798528 278.064249 
L 84.354003 278.819561 
L 85.680862 279.020926 
L 87.506517 278.562282 
L 88.864549 277.691685 
L 91.300046 277.086628 
L 92.689254 276.46889 
L 94.369426 275.567549 
L 96.08077 275.549295 
L 97.179017 276.191051 
L 98.433138 276.322092 
L 100.134091 275.954523 
L 101.835045 274.80359 
L 103.182687 274.061729 
L 104.17702 273.779472 
L 107.007395 273.560429 
L 108.936962 273.856137 
L 113.572206 276.87162 
L 115.002982 277.316046 
L 117.978839 276.627791 
L 119.471963 276.160117 
L 120.757257 276.143016 
L 122.063334 275.82233 
L 123.598025 274.766316 
L 125.226239 273.863438 
L 127.568214 273.669375 
L 128.926249 273.116389 
L 132.473638 271.181705 
L 133.384839 271.691075 
L 134.638959 272.733256 
L 136.308739 273.208424 
L 138.311047 272.600294 
L 140.095132 272.418335 
L 141.099857 272.637378 
L 142.135755 272.363384 
L 143.317135 270.867554 
L 145.122004 268.986671 
L 146.542388 268.05651 
L 147.838075 268.406017 
L 148.915538 268.376235 
L 150.678843 267.637063 
L 152.390189 266.495545 
L 156.048635 265.909895 
L 157.83272 264.690558 
L 159.471326 264.21539 
L 160.46566 264.490538 
L 161.802911 264.571814 
L 163.25447 263.725235 
L 165.121689 262.268026 
L 166.230328 261.082122 
L 167.266227 260.34295 
L 169.961514 258.192683 
L 171.558553 257.47676 
L 172.958156 257.458123 
L 174.388932 257.647768 
L 175.954797 257.288654 
L 177.36479 256.570234 
L 178.525387 255.327457 
L 179.935379 254.168838 
L 181.054409 252.478561 
L 182.412448 250.693173 
L 183.697739 249.287074 
L 185.097343 248.478347 
L 186.195591 247.282068 
L 189.202622 245.019207 
L 190.519094 244.103456 
L 191.47186 243.023999 
L 195.743404 240.12476 
L 197.007917 238.728076 
L 198.417913 236.867753 
L 201.577563 231.342314 
L 204.709298 226.800451 
L 206.916187 224.009584 
L 207.81699 223.59667 
L 209.590695 222.448043 
L 211.218905 221.196044 
L 212.93025 220.574848 
L 214.038896 220.682063 
L 215.022833 220.149059 
L 219.273601 215.025771 
L 220.392628 214.330793 
L 223.28536 212.985796 
L 226.053389 211.974934 
L 227.432204 211.097609 
L 228.790246 209.259381 
L 229.961229 206.426433 
L 231.017913 203.551213 
L 232.985799 197.598258 
L 234.219132 194.451351 
L 235.597958 192.601982 
L 237.804847 190.121422 
L 239.381101 188.751254 
L 241.113236 186.957029 
L 242.852511 183.589153 
L 244.335245 181.316873 
L 245.454272 178.922202 
L 246.926613 177.118563 
L 249.289377 175.275534 
L 252.213281 172.187618 
L 254.399385 169.276083 
L 257.073893 164.504223 
L 258.307231 162.599516 
L 260.410213 158.568749 
L 261.861769 156.829093 
L 263.209413 155.008541 
L 264.162178 153.026207 
L 267.023733 148.139064 
L 267.779065 145.556479 
L 268.721438 143.418702 
L 272.951427 138.010086 
L 274.226329 137.169076 
L 275.418098 136.141305 
L 279.305159 129.429581 
L 281.262653 124.886761 
L 282.277779 121.905095 
L 283.635821 118.717835 
L 285.75957 114.594072 
L 286.826652 112.493189 
L 288.527592 109.574544 
L 290.682537 104.335206 
L 291.365122 102.555391 
L 292.619239 100.355165 
L 294.444906 98.103447 
L 295.906861 97.168672 
L 296.870013 97.319118 
L 298.176093 97.01342 
L 299.783524 95.294707 
L 301.297435 92.41507 
L 302.281396 89.661862 
L 302.870455 87.3648 
L 303.927127 84.064564 
L 305.222826 81.137181 
L 306.757516 78.981827 
L 308.136343 77.997679 
L 309.193009 78.583913 
L 309.193009 78.583913 
" clip-path="url(#p61acb50f70)" style="fill: none; stroke: #a6cee3; stroke-opacity: 0.5; stroke-width: 1.5; stroke-linecap: square"/>
   </g>
   <g id="line2d_24">
    <path d="M 70.614534 282.458737 
L 130.897382 282.458737 
L 133.384839 282.125822 
L 136.308739 281.384747 
L 140.095132 280.074547 
L 143.317135 278.715487 
L 147.838075 276.49327 
L 152.390189 273.932509 
L 156.048635 271.66488 
L 160.46566 268.700081 
L 165.121689 265.326246 
L 169.961514 261.567995 
L 175.954797 256.583477 
L 181.054409 252.072124 
L 186.195591 247.286863 
L 192.964986 240.642217 
L 199.796727 233.560915 
L 206.202424 226.596063 
L 212.93025 218.95784 
L 220.392628 210.11538 
L 227.432204 201.431801 
L 235.597958 190.96003 
L 242.852511 181.310885 
L 250.896809 170.244802 
L 259.353523 158.21028 
L 267.779065 145.825289 
L 276.402053 132.755472 
L 285.75957 118.135241 
L 294.444906 104.170626 
L 303.927127 88.503974 
L 309.193009 79.618554 
L 309.193009 79.618554 
" clip-path="url(#p61acb50f70)" style="fill: none; stroke-dasharray: 5.55,2.4; stroke-dashoffset: 0; stroke: #1f78b4; stroke-opacity: 0.7; stroke-width: 1.5"/>
   </g>
   <g id="line2d_25">
    <path d="M 70.462461 279.021084 
L 72.080489 279.678211 
L 75.306156 280.013499 
L 76.58127 279.960083 
L 77.877161 279.753338 
L 79.058752 279.681669 
L 80.915785 279.761024 
L 84.203807 281.050877 
L 87.055382 281.375982 
L 89.667953 280.500773 
L 91.192466 280.494432 
L 92.976758 280.269625 
L 94.32461 279.961813 
L 95.817949 280.020993 
L 98.440913 281.072781 
L 100.194036 281.502027 
L 101.967941 281.508944 
L 103.534016 281.04492 
L 104.74678 280.467147 
L 105.938762 280.066531 
L 106.933305 279.320633 
L 108.644861 278.536308 
L 110.314854 278.217928 
L 111.984846 278.25213 
L 113.218394 278.445041 
L 114.503899 278.423905 
L 115.997235 277.254142 
L 117.355482 276.561084 
L 118.869602 276.657923 
L 120.227849 277.445131 
L 121.721185 278.713079 
L 123.838012 279.716831 
L 125.383307 279.834807 
L 126.679205 279.496059 
L 128.110193 278.771682 
L 129.011215 277.105807 
L 130.036936 274.260754 
L 131.738103 272.082819 
L 132.961262 271.031992 
L 134.080506 271.070806 
L 135.438754 271.238739 
L 137.420493 270.718802 
L 139.152836 270.027666 
L 140.375996 270.216158 
L 141.089973 270.686907 
L 142.656052 270.577193 
L 144.648182 269.489474 
L 146.255827 269.04159 
L 147.510163 269.240649 
L 148.587841 269.172438 
L 151.647262 266.527214 
L 152.849639 265.266375 
L 155.483009 263.554194 
L 156.726953 262.144445 
L 158.085203 260.071035 
L 159.412279 258.563102 
L 160.500354 257.688085 
L 166.473717 254.214149 
L 168.639472 253.98108 
L 170.163988 253.535501 
L 177.079946 249.693038 
L 179.931544 246.544401 
L 181.487237 245.288942 
L 182.544133 244.230621 
L 189.758424 233.553649 
L 192.526889 229.730975 
L 193.864364 228.303549 
L 195.004394 226.845764 
L 196.269127 225.015224 
L 197.492294 222.786948 
L 199.741186 219.338567 
L 201.182573 218.11212 
L 202.571999 217.162358 
L 204.158875 216.262171 
L 206.59481 213.928218 
L 207.963463 212.242936 
L 208.999586 209.878431 
L 210.129229 206.974582 
L 212.533993 201.505633 
L 213.403849 199.227593 
L 214.689367 197.463342 
L 216.047621 195.945801 
L 217.717625 194.439019 
L 218.795312 192.78717 
L 220.049654 191.344949 
L 221.272823 189.615282 
L 223.438596 185.373353 
L 225.108594 183.768004 
L 227.388672 180.470459 
L 228.726147 179.023435 
L 229.959709 176.954638 
L 232.3437 172.076526 
L 233.462957 168.822784 
L 234.36399 164.888089 
L 235.576761 161.300597 
L 236.259576 158.509148 
L 237.285313 156.338515 
L 238.747485 154.146555 
L 240.448667 152.882834 
L 241.86927 152.078334 
L 242.915797 151.723256 
L 243.899958 150.849776 
L 245.767401 148.729678 
L 247.98513 144.114033 
L 249.05243 142.176082 
L 249.974248 139.765847 
L 255.93424 126.844071 
L 259.385537 118.466477 
L 262.888796 109.16832 
L 263.758657 106.050615 
L 265.778953 100.996687 
L 268.453915 96.996857 
L 269.905695 95.408607 
L 272.248128 92.192333 
L 273.408955 90.108932 
L 275.876091 84.50741 
L 277.13045 82.02282 
L 278.99487 77.546294 
L 280.384302 75.38796 
L 281.877658 72.78616 
L 282.893002 70.212794 
L 283.960308 68.033703 
L 285.131527 65.241101 
L 286.053357 62.490676 
L 287.338882 59.913181 
L 289.754061 55.8 
L 289.754061 55.8 
" clip-path="url(#p61acb50f70)" style="fill: none; stroke: #b2df8a; stroke-opacity: 0.5; stroke-width: 1.5; stroke-linecap: square"/>
   </g>
   <g id="line2d_26">
    <path d="M 70.462461 282.458737 
L 131.738103 282.374401 
L 134.080506 281.82346 
L 135.438754 281.373625 
L 139.152836 279.792886 
L 142.656052 277.923448 
L 146.255827 275.686168 
L 149.873351 273.155784 
L 153.98967 269.968886 
L 158.085203 266.502544 
L 163.144114 261.848421 
L 168.639472 256.363382 
L 173.503981 251.161874 
L 178.448592 245.562548 
L 183.465945 239.57663 
L 189.758424 231.659393 
L 196.269127 223.012611 
L 202.571999 214.223609 
L 208.999586 204.856836 
L 216.047621 194.137825 
L 223.438596 182.415347 
L 231.110137 169.747921 
L 238.747485 156.651227 
L 246.928222 142.105692 
L 254.752628 127.711357 
L 262.888796 112.2605 
L 271.170435 96.044104 
L 278.99487 80.283376 
L 287.338882 63.019252 
L 289.754061 57.936035 
L 289.754061 57.936035 
" clip-path="url(#p61acb50f70)" style="fill: none; stroke-dasharray: 5.55,2.4; stroke-dashoffset: 0; stroke: #33a02c; stroke-opacity: 0.7; stroke-width: 1.5"/>
   </g>
   <g id="line2d_27">
    <path d="M 71.823623 280.850676 
L 73.140281 279.675533 
L 74.529685 278.823382 
L 75.856738 278.374154 
L 77.443579 278.26617 
L 79.092769 278.432373 
L 81.881965 279.089499 
L 83.437632 279.186339 
L 84.87899 278.580513 
L 86.413877 277.564272 
L 87.657797 277.111008 
L 90.322295 277.297002 
L 91.981877 277.663034 
L 93.942815 278.353594 
L 95.436135 279.494728 
L 96.856712 281.068374 
L 98.381205 282.244094 
L 100.051179 282.417214 
L 103.141735 280.231017 
L 104.011563 279.253973 
L 106.301972 275.978328 
L 108.148604 275.249724 
L 109.631532 275.111574 
L 110.750758 275.604995 
L 115.386592 275.765243 
L 118.269319 276.992841 
L 120.115951 276.694059 
L 124.242604 276.676381 
L 125.580053 276.874671 
L 128.722569 276.681568 
L 130.610768 276.702128 
L 131.917044 276.014066 
L 135.368253 271.708347 
L 136.632962 270.398703 
L 138.2302 269.616491 
L 139.785872 269.243927 
L 141.331152 268.58315 
L 143.683919 267.940051 
L 145.208417 267.25122 
L 146.597825 266.304727 
L 148.340545 265.772108 
L 150.880357 266.25669 
L 154.074838 265.7796 
L 155.588944 265.490041 
L 156.791308 265.062524 
L 158.035235 264.173865 
L 159.445429 262.836361 
L 160.83484 260.680331 
L 161.777413 258.572337 
L 163.18761 257.10264 
L 164.462713 256.285651 
L 167.220751 255.188325 
L 168.984258 254.652056 
L 170.425622 253.662137 
L 171.451329 252.517737 
L 175.224692 247.497632 
L 176.541364 246.167239 
L 177.941167 245.806204 
L 179.195491 245.356782 
L 180.751164 243.94146 
L 181.932746 242.334574 
L 183.45725 241.036652 
L 188.432974 232.745128 
L 189.344382 230.859632 
L 190.338917 229.818604 
L 191.489328 228.326425 
L 195.823831 223.089969 
L 197.937606 219.237898 
L 199.295842 216.374977 
L 200.581343 214.110579 
L 207.175103 207.377717 
L 209.361625 203.940286 
L 210.636734 201.530243 
L 212.989511 196.206935 
L 213.932091 194.074154 
L 217.622338 187.080749 
L 220.047857 183.478652 
L 221.312579 181.386605 
L 223.738098 176.669318 
L 224.982041 173.729924 
L 225.862265 170.979405 
L 226.991903 168.562635 
L 228.287796 166.644284 
L 229.303117 164.91654 
L 232.3937 161.7287 
L 234.538658 158.645007 
L 235.668284 156.598503 
L 240.207596 146.575968 
L 241.482704 144.751573 
L 244.323898 139.694765 
L 245.609399 137.805236 
L 246.333766 135.693401 
L 247.20361 132.552836 
L 248.811248 128.954392 
L 249.909708 125.735044 
L 250.686032 123.036592 
L 251.732529 120.791026 
L 253.080385 118.447271 
L 254.49059 115.644295 
L 257.723621 107.352587 
L 258.666207 104.22201 
L 259.639975 101.459004 
L 261.029395 99.300479 
L 263.548446 95.056051 
L 264.844345 93.579622 
L 265.953198 92.124715 
L 267.041266 89.898167 
L 269.840896 85.805535 
L 270.897792 84.126594 
L 271.871549 82.270697 
L 273.375285 79.981519 
L 275.769645 74.616511 
L 276.608317 71.948606 
L 278.971511 66.469273 
L 280.236233 63.699927 
L 281.241167 60.93885 
L 281.241167 60.93885 
" clip-path="url(#p61acb50f70)" style="fill: none; stroke: #fb9a99; stroke-opacity: 0.5; stroke-width: 1.5; stroke-linecap: square"/>
   </g>
   <g id="line2d_28">
    <path d="M 71.823623 282.458737 
L 130.610768 282.458737 
L 131.917044 282.337945 
L 134.165892 281.753564 
L 136.632962 280.8142 
L 139.785872 279.281494 
L 143.683919 276.97274 
L 146.597825 274.992362 
L 150.880357 271.735689 
L 154.074838 269.063361 
L 158.035235 265.48686 
L 161.777413 261.858282 
L 165.633903 257.882123 
L 170.425622 252.627506 
L 175.224692 247.036493 
L 180.751164 240.215046 
L 185.404757 234.16981 
L 191.489328 225.871667 
L 197.937606 216.614152 
L 204.28197 207.063406 
L 210.636734 197.077177 
L 217.622338 185.635667 
L 224.982041 173.07774 
L 232.3937 159.93003 
L 240.207596 145.545475 
L 247.20361 132.227155 
L 255.526701 115.860631 
L 263.548446 99.567781 
L 271.871549 82.142167 
L 280.236233 64.111828 
L 281.241167 61.911491 
L 281.241167 61.911491 
" clip-path="url(#p61acb50f70)" style="fill: none; stroke-dasharray: 5.55,2.4; stroke-dashoffset: 0; stroke: #e31a1c; stroke-opacity: 0.7; stroke-width: 1.5"/>
   </g>
   <g id="line2d_29">
    <path d="M 71.390121 280.119243 
L 74.262303 279.515724 
L 75.641242 279.373538 
L 76.885091 278.571728 
L 78.139332 277.498997 
L 80.089805 277.137193 
L 81.312872 277.692293 
L 82.650241 278.991559 
L 84.382494 280.100221 
L 86.301787 280.258546 
L 87.878165 279.673473 
L 89.225932 279.956498 
L 90.074906 280.389011 
L 91.42267 280.189951 
L 93.352356 279.789526 
L 95.271655 279.810662 
L 96.619421 280.129042 
L 97.655441 280.089461 
L 99.065556 278.612847 
L 100.465279 276.510232 
L 101.71952 275.527039 
L 102.859456 276.143817 
L 104.394268 277.410996 
L 106.479831 278.054288 
L 108.534219 278.533684 
L 110.897224 280.465676 
L 112.03716 280.150947 
L 115.67832 277.710546 
L 116.807865 277.862723 
L 117.927018 278.45529 
L 119.503397 278.7387 
L 123.009469 278.580952 
L 124.190972 278.95294 
L 125.569914 278.691626 
L 127.042379 277.685952 
L 129.561259 275.544139 
L 130.825894 274.359773 
L 133.853958 271.936279 
L 136.061094 270.453325 
L 137.793347 269.68245 
L 139.24503 269.204208 
L 140.655147 269.370603 
L 142.034091 269.669 
L 143.537732 269.290096 
L 145.207636 268.129556 
L 146.493057 267.714336 
L 147.529081 267.602317 
L 148.87685 267.096406 
L 150.577929 266.618932 
L 152.466055 266.531891 
L 154.797893 267.65381 
L 156.571714 266.910412 
L 158.075355 265.242808 
L 159.298428 263.701634 
L 160.292886 263.106569 
L 161.318519 261.840158 
L 164.595984 257.370923 
L 165.798272 255.79228 
L 166.449812 254.602726 
L 169.301228 251.459468 
L 170.877609 250.494529 
L 172.2046 250.892457 
L 173.531585 251.777272 
L 175.097579 251.590511 
L 176.819442 250.130035 
L 179.068151 247.634873 
L 181.264901 244.05872 
L 184.500802 240.649152 
L 185.277043 239.427126 
L 186.635208 237.691504 
L 187.931019 235.515683 
L 189.206051 232.77208 
L 190.169336 231.033 
L 194.129524 226.61795 
L 196.752329 224.989157 
L 203.750983 221.097697 
L 205.109149 219.920442 
L 206.404959 218.640199 
L 208.882288 214.708003 
L 212.208598 208.297359 
L 213.61872 206.710068 
L 214.84179 204.430682 
L 216.501313 202.143804 
L 218.521415 198.884111 
L 219.339226 196.191042 
L 220.977964 192.841232 
L 222.398478 189.637832 
L 223.060408 187.810173 
L 223.919789 185.985588 
L 225.246777 183.654517 
L 229.030315 177.833561 
L 230.087134 176.383077 
L 231.725867 174.358281 
L 233.198344 172.122704 
L 235.384713 169.463837 
L 236.701314 167.413294 
L 237.965954 164.80381 
L 242.806311 156.350497 
L 246.205369 151.063311 
L 247.698625 149.423563 
L 249.036017 147.706194 
L 250.290264 145.56131 
L 251.430217 142.603851 
L 252.50781 139.435231 
L 253.47111 135.906533 
L 254.15383 132.67547 
L 255.189853 129.49609 
L 256.849388 126.542478 
L 258.020508 123.814632 
L 259.129278 122.224651 
L 260.113356 121.299485 
L 261.409173 119.493346 
L 262.819307 117.086568 
L 264.53078 115.129216 
L 267.649277 110.402134 
L 269.111367 107.663914 
L 270.521489 104.692236 
L 271.360085 102.623051 
L 273.380204 97.055337 
L 274.707199 94.239296 
L 276.065364 92.346308 
L 277.028658 91.236493 
L 278.199783 89.663229 
L 279.911262 87.028771 
L 281.051222 83.482209 
L 283.431925 72.758167 
L 284.561486 68.5514 
L 286.075526 65.683862 
L 287.018035 63.276409 
L 288.095634 61.315111 
L 289.308323 59.786039 
L 290.853547 58.675263 
L 290.853547 58.675263 
" clip-path="url(#p61acb50f70)" style="fill: none; stroke: #fdbf6f; stroke-opacity: 0.5; stroke-width: 1.5; stroke-linecap: square"/>
   </g>
   <g id="line2d_30">
    <path d="M 71.390121 282.458737 
L 130.825894 282.458737 
L 132.381492 282.265275 
L 134.931546 281.582388 
L 137.793347 280.495267 
L 140.655147 279.150622 
L 143.537732 277.578882 
L 147.529081 275.091207 
L 150.577929 272.973905 
L 154.797893 269.764095 
L 159.298428 266.014367 
L 162.936469 262.756029 
L 167.714452 258.189659 
L 172.2046 253.619463 
L 176.819442 248.657244 
L 181.264901 243.636102 
L 186.635208 237.270462 
L 192.906449 229.442286 
L 198.214408 222.50025 
L 205.109149 213.070546 
L 212.208598 202.895958 
L 219.339226 192.223478 
L 227.051783 180.190893 
L 234.359076 168.340628 
L 241.406581 156.512498 
L 249.036017 143.281299 
L 256.849388 129.287047 
L 265.431731 113.415052 
L 273.380204 98.262986 
L 282.468614 80.421792 
L 290.853547 63.487815 
L 290.853547 63.487815 
" clip-path="url(#p61acb50f70)" style="fill: none; stroke-dasharray: 5.55,2.4; stroke-dashoffset: 0; stroke: #ff7f00; stroke-opacity: 0.7; stroke-width: 1.5"/>
   </g>
   <g id="line2d_31">
    <path d="M 71.096339 281.491226 
L 75.752749 282.328774 
L 77.110909 282.484794 
L 78.427499 282.1643 
L 80.024669 281.48181 
L 84.047196 279.119802 
L 85.446925 278.628494 
L 86.846649 278.493225 
L 88.433423 278.823518 
L 90.165678 279.634359 
L 91.752454 280.874447 
L 94.822087 282.638892 
L 96.336124 282.646386 
L 97.839768 282.091863 
L 100.535311 280.327418 
L 103.21007 279.182249 
L 104.692929 279.243542 
L 106.321274 279.688545 
L 107.866483 279.992898 
L 109.255822 280.595072 
L 111.029644 280.275155 
L 117.726939 276.610807 
L 121.915738 275.270038 
L 123.263511 275.250054 
L 124.65285 274.514533 
L 127.660141 271.327274 
L 128.800084 270.526617 
L 129.867288 270.327749 
L 130.944882 269.981701 
L 133.144758 269.460226 
L 134.970541 269.624891 
L 136.245574 270.528344 
L 137.281604 271.437561 
L 138.847598 271.403168 
L 142.041939 269.169897 
L 143.213058 268.886872 
L 144.353002 268.437066 
L 147.422645 266.400741 
L 148.936684 266.458384 
L 150.159761 266.86976 
L 151.725758 267.268839 
L 154.992839 266.569634 
L 156.153569 266.485283 
L 157.501344 266.628045 
L 158.765987 265.382769 
L 161.908372 263.31378 
L 163.037927 263.001548 
L 165.951701 260.832836 
L 168.408248 256.242362 
L 169.319585 255.077402 
L 171.786521 252.536894 
L 175.261437 250.934236 
L 176.266294 250.108793 
L 177.489376 248.753036 
L 179.83162 244.988582 
L 181.127439 243.349224 
L 184.124346 241.015076 
L 186.445805 238.452086 
L 187.658494 236.691292 
L 190.239747 233.297094 
L 191.494 231.472702 
L 192.717081 229.064196 
L 196.033011 223.773942 
L 199.248145 220.601286 
L 201.486476 217.70762 
L 202.699165 216.553035 
L 205.332374 212.527842 
L 206.8672 211.171894 
L 207.975982 210.424459 
L 209.147101 209.188601 
L 210.484493 207.420505 
L 212.019319 205.625894 
L 213.180052 204.022849 
L 215.366426 199.993624 
L 216.890865 196.84729 
L 218.703147 191.841018 
L 219.72879 189.56605 
L 221.066182 186.287525 
L 224.413295 179.48492 
L 225.480502 177.804635 
L 228.809952 174.403902 
L 231.069068 172.79144 
L 232.406461 171.16188 
L 233.806202 168.488984 
L 234.852624 165.994399 
L 235.992583 164.084504 
L 241.217443 156.88281 
L 242.357403 154.374391 
L 244.252818 148.221224 
L 245.351202 145.205933 
L 246.397635 142.899073 
L 247.776597 141.287191 
L 249.238688 140.373941 
L 250.763121 139.642648 
L 252.017385 138.510163 
L 253.167725 136.611602 
L 254.442769 133.766742 
L 255.468417 130.947051 
L 256.358975 128.162331 
L 257.426187 125.685227 
L 258.80515 123.360877 
L 262.609496 119.092041 
L 263.86376 116.927555 
L 265.273894 113.76912 
L 268.919266 99.122877 
L 270.121568 95.841852 
L 272.484609 92.128125 
L 273.69731 90.648046 
L 275.232141 88.329849 
L 276.43445 85.521306 
L 278.288313 79.098181 
L 279.168479 76.244481 
L 280.422731 73.534504 
L 281.656211 71.678025 
L 283.201459 70.200642 
L 284.601182 68.419676 
L 286.818746 64.582203 
L 288.880453 59.465063 
L 290.35293 56.181158 
L 290.35293 56.181158 
" clip-path="url(#p61acb50f70)" style="fill: none; stroke: #cab2d6; stroke-opacity: 0.5; stroke-width: 1.5; stroke-linecap: square"/>
   </g>
   <g id="line2d_32">
    <path d="M 71.096339 282.458737 
L 130.944882 282.458135 
L 133.144758 282.086939 
L 136.245574 281.085038 
L 138.847598 279.965398 
L 142.041939 278.317267 
L 145.898215 275.988371 
L 150.159761 273.041596 
L 153.302146 270.644709 
L 157.501344 267.171749 
L 161.908372 263.220324 
L 165.951701 259.338672 
L 170.282873 254.925868 
L 175.261437 249.546945 
L 179.83162 244.336409 
L 185.181166 237.923034 
L 191.494 229.941316 
L 197.515883 221.931565 
L 203.932645 212.992061 
L 210.484493 203.45327 
L 216.890865 193.741748 
L 223.678612 183.0539 
L 231.069068 170.969205 
L 238.334833 158.650384 
L 246.397635 144.490702 
L 254.442769 129.867065 
L 262.609496 114.534245 
L 271.479746 97.342106 
L 280.422731 79.459964 
L 288.880453 62.056796 
L 290.35293 58.979169 
L 290.35293 58.979169 
" clip-path="url(#p61acb50f70)" style="fill: none; stroke-dasharray: 5.55,2.4; stroke-dashoffset: 0; stroke: #6a3d9a; stroke-opacity: 0.7; stroke-width: 1.5"/>
   </g>
   <g id="line2d_33">
    <path d="M 71.096339 282.458737 
L 130.944882 282.458156 
L 133.144758 282.099454 
L 136.245574 281.131138 
L 138.847598 280.048859 
L 142.041939 278.455463 
L 145.898215 276.203461 
L 150.159761 273.353326 
L 153.302146 271.034562 
L 157.501344 267.674096 
L 161.908372 263.849733 
L 165.951701 260.091999 
L 170.282873 255.819056 
L 175.261437 250.609238 
L 179.83162 245.561147 
L 185.181166 239.345966 
L 191.494 231.608343 
L 197.515883 223.840827 
L 203.932645 215.16861 
L 210.484493 205.911613 
L 216.890865 196.483515 
L 223.678612 186.103688 
L 231.069068 174.36253 
L 238.334833 162.388907 
L 246.397635 148.619992 
L 254.442769 134.393395 
L 262.609496 119.46997 
L 270.121568 105.327317 
L 279.168479 87.782426 
L 287.761272 70.614396 
L 290.35293 65.342163 
L 290.35293 65.342163 
" clip-path="url(#p61acb50f70)" style="fill: none; stroke: #1f77b4; stroke-width: 2.5; stroke-linecap: square"/>
   </g>
   <g id="patch_3">
    <path d="M 72 320.4 
L 72 43.2 
" style="fill: none; stroke: #000000; stroke-width: 0.8; stroke-linejoin: miter; stroke-linecap: square"/>
   </g>
   <g id="patch_4">
    <path d="M 349.267081 320.4 
L 349.267081 43.2 
" style="fill: none; stroke: #000000; stroke-width: 0.8; stroke-linejoin: miter; stroke-linecap: square"/>
   </g>
   <g id="patch_5">
    <path d="M 72 320.4 
L 349.267081 320.4 
" style="fill: none; stroke: #000000; stroke-width: 0.8; stroke-linejoin: miter; stroke-linecap: square"/>
   </g>
   <g id="patch_6">
    <path d="M 72 43.2 
L 349.267081 43.2 
" style="fill: none; stroke: #000000; stroke-width: 0.8; stroke-linejoin: miter; stroke-linecap: square"/>
   </g>
   <g id="text_16">
    <!-- Treated-Cell7 Sneddon Model Fit Quality -->
    <g transform="translate(50.57479 26.601562) scale(0.16 -0.16)">
     <defs>
      <path id="DejaVuSans-54" d="M -19 4666 
L 3928 4666 
L 3928 4134 
L 2272 4134 
L 2272 0 
L 1638 0 
L 1638 4134 
L -19 4134 
L -19 4666 
z
" transform="scale(0.015625)"/>
      <path id="DejaVuSans-2d" d="M 313 2009 
L 1997 2009 
L 1997 1497 
L 313 1497 
L 313 2009 
z
" transform="scale(0.015625)"/>
      <path id="DejaVuSans-43" d="M 4122 4306 
L 4122 3641 
Q 3803 3938 3442 4084 
Q 3081 4231 2675 4231 
Q 1875 4231 1450 3742 
Q 1025 3253 1025 2328 
Q 1025 1406 1450 917 
Q 1875 428 2675 428 
Q 3081 428 3442 575 
Q 3803 722 4122 1019 
L 4122 359 
Q 3791 134 3420 21 
Q 3050 -91 2638 -91 
Q 1578 -91 968 557 
Q 359 1206 359 2328 
Q 359 3453 968 4101 
Q 1578 4750 2638 4750 
Q 3056 4750 3426 4639 
Q 3797 4528 4122 4306 
z
" transform="scale(0.015625)"/>
      <path id="DejaVuSans-6c" d="M 603 4863 
L 1178 4863 
L 1178 0 
L 603 0 
L 603 4863 
z
" transform="scale(0.015625)"/>
      <path id="DejaVuSans-53" d="M 3425 4513 
L 3425 3897 
Q 3066 4069 2747 4153 
Q 2428 4238 2131 4238 
Q 1616 4238 1336 4038 
Q 1056 3838 1056 3469 
Q 1056 3159 1242 3001 
Q 1428 2844 1947 2747 
L 2328 2669 
Q 3034 2534 3370 2195 
Q 3706 1856 3706 1288 
Q 3706 609 3251 259 
Q 2797 -91 1919 -91 
Q 1588 -91 1214 -16 
Q 841 59 441 206 
L 441 856 
Q 825 641 1194 531 
Q 1563 422 1919 422 
Q 2459 422 2753 634 
Q 3047 847 3047 1241 
Q 3047 1584 2836 1778 
Q 2625 1972 2144 2069 
L 1759 2144 
Q 1053 2284 737 2584 
Q 422 2884 422 3419 
Q 422 4038 858 4394 
Q 1294 4750 2059 4750 
Q 2388 4750 2728 4690 
Q 3069 4631 3425 4513 
z
" transform="scale(0.015625)"/>
      <path id="DejaVuSans-4d" d="M 628 4666 
L 1569 4666 
L 2759 1491 
L 3956 4666 
L 4897 4666 
L 4897 0 
L 4281 0 
L 4281 4097 
L 3078 897 
L 2444 897 
L 1241 4097 
L 1241 0 
L 628 0 
L 628 4666 
z
" transform="scale(0.015625)"/>
      <path id="DejaVuSans-51" d="M 2522 4238 
Q 1834 4238 1429 3725 
Q 1025 3213 1025 2328 
Q 1025 1447 1429 934 
Q 1834 422 2522 422 
Q 3209 422 3611 934 
Q 4013 1447 4013 2328 
Q 4013 3213 3611 3725 
Q 3209 4238 2522 4238 
z
M 3406 84 
L 4238 -825 
L 3475 -825 
L 2784 -78 
Q 2681 -84 2626 -87 
Q 2572 -91 2522 -91 
Q 1538 -91 948 567 
Q 359 1225 359 2328 
Q 359 3434 948 4092 
Q 1538 4750 2522 4750 
Q 3503 4750 4090 4092 
Q 4678 3434 4678 2328 
Q 4678 1516 4351 937 
Q 4025 359 3406 84 
z
" transform="scale(0.015625)"/>
      <path id="DejaVuSans-75" d="M 544 1381 
L 544 3500 
L 1119 3500 
L 1119 1403 
Q 1119 906 1312 657 
Q 1506 409 1894 409 
Q 2359 409 2629 706 
Q 2900 1003 2900 1516 
L 2900 3500 
L 3475 3500 
L 3475 0 
L 2900 0 
L 2900 538 
Q 2691 219 2414 64 
Q 2138 -91 1772 -91 
Q 1169 -91 856 284 
Q 544 659 544 1381 
z
M 1991 3584 
L 1991 3584 
z
" transform="scale(0.015625)"/>
      <path id="DejaVuSans-79" d="M 2059 -325 
Q 1816 -950 1584 -1140 
Q 1353 -1331 966 -1331 
L 506 -1331 
L 506 -850 
L 844 -850 
Q 1081 -850 1212 -737 
Q 1344 -625 1503 -206 
L 1606 56 
L 191 3500 
L 800 3500 
L 1894 763 
L 2988 3500 
L 3597 3500 
L 2059 -325 
z
" transform="scale(0.015625)"/>
     </defs>
     <use xlink:href="#DejaVuSans-54"/>
     <use xlink:href="#DejaVuSans-72" transform="translate(46.333984 0)"/>
     <use xlink:href="#DejaVuSans-65" transform="translate(85.197266 0)"/>
     <use xlink:href="#DejaVuSans-61" transform="translate(146.720703 0)"/>
     <use xlink:href="#DejaVuSans-74" transform="translate(208 0)"/>
     <use xlink:href="#DejaVuSans-65" transform="translate(247.208984 0)"/>
     <use xlink:href="#DejaVuSans-64" transform="translate(308.732422 0)"/>
     <use xlink:href="#DejaVuSans-2d" transform="translate(372.208984 0)"/>
     <use xlink:href="#DejaVuSans-43" transform="translate(408.292969 0)"/>
     <use xlink:href="#DejaVuSans-65" transform="translate(478.117188 0)"/>
     <use xlink:href="#DejaVuSans-6c" transform="translate(539.640625 0)"/>
     <use xlink:href="#DejaVuSans-6c" transform="translate(567.423828 0)"/>
     <use xlink:href="#DejaVuSans-37" transform="translate(595.207031 0)"/>
     <use xlink:href="#DejaVuSans-20" transform="translate(658.830078 0)"/>
     <use xlink:href="#DejaVuSans-53" transform="translate(690.617188 0)"/>
     <use xlink:href="#DejaVuSans-6e" transform="translate(754.09375 0)"/>
     <use xlink:href="#DejaVuSans-65" transform="translate(817.472656 0)"/>
     <use xlink:href="#DejaVuSans-64" transform="translate(878.996094 0)"/>
     <use xlink:href="#DejaVuSans-64" transform="translate(942.472656 0)"/>
     <use xlink:href="#DejaVuSans-6f" transform="translate(1005.949219 0)"/>
     <use xlink:href="#DejaVuSans-6e" transform="translate(1067.130859 0)"/>
     <use xlink:href="#DejaVuSans-20" transform="translate(1130.509766 0)"/>
     <use xlink:href="#DejaVuSans-4d" transform="translate(1162.296875 0)"/>
     <use xlink:href="#DejaVuSans-6f" transform="translate(1248.576172 0)"/>
     <use xlink:href="#DejaVuSans-64" transform="translate(1309.757812 0)"/>
     <use xlink:href="#DejaVuSans-65" transform="translate(1373.234375 0)"/>
     <use xlink:href="#DejaVuSans-6c" transform="translate(1434.757812 0)"/>
     <use xlink:href="#DejaVuSans-20" transform="translate(1462.541016 0)"/>
     <use xlink:href="#DejaVuSans-46" transform="translate(1494.328125 0)"/>
     <use xlink:href="#DejaVuSans-69" transform="translate(1544.597656 0)"/>
     <use xlink:href="#DejaVuSans-74" transform="translate(1572.380859 0)"/>
     <use xlink:href="#DejaVuSans-20" transform="translate(1611.589844 0)"/>
     <use xlink:href="#DejaVuSans-51" transform="translate(1643.376953 0)"/>
     <use xlink:href="#DejaVuSans-75" transform="translate(1722.087891 0)"/>
     <use xlink:href="#DejaVuSans-61" transform="translate(1785.466797 0)"/>
     <use xlink:href="#DejaVuSans-6c" transform="translate(1846.746094 0)"/>
     <use xlink:href="#DejaVuSans-69" transform="translate(1874.529297 0)"/>
     <use xlink:href="#DejaVuSans-74" transform="translate(1902.3125 0)"/>
     <use xlink:href="#DejaVuSans-79" transform="translate(1941.521484 0)"/>
    </g>
   </g>
   <g id="legend_1">
    <g id="patch_7">
     <path d="M 79 139.26875 
L 221.903125 139.26875 
Q 223.903125 139.26875 223.903125 137.26875 
L 223.903125 50.2 
Q 223.903125 48.2 221.903125 48.2 
L 79 48.2 
Q 77 48.2 77 50.2 
L 77 137.26875 
Q 77 139.26875 79 139.26875 
z
" style="fill: #ffffff; opacity: 0.8; stroke: #cccccc; stroke-linejoin: miter"/>
    </g>
    <g id="line2d_34">
     <path d="M 81 56.298437 
L 91 56.298437 
L 101 56.298437 
" style="fill: none; stroke-dasharray: 5.55,2.4; stroke-dashoffset: 0; stroke: #1f78b4; stroke-opacity: 0.7; stroke-width: 1.5"/>
    </g>
    <g id="text_17">
     <!-- Test 61 Fit: 1400 Pa -->
     <g transform="translate(109 59.798437) scale(0.1 -0.1)">
      <defs>
       <path id="DejaVuSans-73" d="M 2834 3397 
L 2834 2853 
Q 2591 2978 2328 3040 
Q 2066 3103 1784 3103 
Q 1356 3103 1142 2972 
Q 928 2841 928 2578 
Q 928 2378 1081 2264 
Q 1234 2150 1697 2047 
L 1894 2003 
Q 2506 1872 2764 1633 
Q 3022 1394 3022 966 
Q 3022 478 2636 193 
Q 2250 -91 1575 -91 
Q 1294 -91 989 -36 
Q 684 19 347 128 
L 347 722 
Q 666 556 975 473 
Q 1284 391 1588 391 
Q 1994 391 2212 530 
Q 2431 669 2431 922 
Q 2431 1156 2273 1281 
Q 2116 1406 1581 1522 
L 1381 1569 
Q 847 1681 609 1914 
Q 372 2147 372 2553 
Q 372 3047 722 3315 
Q 1072 3584 1716 3584 
Q 2034 3584 2315 3537 
Q 2597 3491 2834 3397 
z
" transform="scale(0.015625)"/>
       <path id="DejaVuSans-3a" d="M 750 794 
L 1409 794 
L 1409 0 
L 750 0 
L 750 794 
z
M 750 3309 
L 1409 3309 
L 1409 2516 
L 750 2516 
L 750 3309 
z
" transform="scale(0.015625)"/>
       <path id="DejaVuSans-50" d="M 1259 4147 
L 1259 2394 
L 2053 2394 
Q 2494 2394 2734 2622 
Q 2975 2850 2975 3272 
Q 2975 3691 2734 3919 
Q 2494 4147 2053 4147 
L 1259 4147 
z
M 628 4666 
L 2053 4666 
Q 2838 4666 3239 4311 
Q 3641 3956 3641 3272 
Q 3641 2581 3239 2228 
Q 2838 1875 2053 1875 
L 1259 1875 
L 1259 0 
L 628 0 
L 628 4666 
z
" transform="scale(0.015625)"/>
      </defs>
      <use xlink:href="#DejaVuSans-54"/>
      <use xlink:href="#DejaVuSans-65" transform="translate(44.083984 0)"/>
      <use xlink:href="#DejaVuSans-73" transform="translate(105.607422 0)"/>
      <use xlink:href="#DejaVuSans-74" transform="translate(157.707031 0)"/>
      <use xlink:href="#DejaVuSans-20" transform="translate(196.916016 0)"/>
      <use xlink:href="#DejaVuSans-36" transform="translate(228.703125 0)"/>
      <use xlink:href="#DejaVuSans-31" transform="translate(292.326172 0)"/>
      <use xlink:href="#DejaVuSans-20" transform="translate(355.949219 0)"/>
      <use xlink:href="#DejaVuSans-46" transform="translate(387.736328 0)"/>
      <use xlink:href="#DejaVuSans-69" transform="translate(438.005859 0)"/>
      <use xlink:href="#DejaVuSans-74" transform="translate(465.789062 0)"/>
      <use xlink:href="#DejaVuSans-3a" transform="translate(504.998047 0)"/>
      <use xlink:href="#DejaVuSans-20" transform="translate(538.689453 0)"/>
      <use xlink:href="#DejaVuSans-31" transform="translate(570.476562 0)"/>
      <use xlink:href="#DejaVuSans-34" transform="translate(634.099609 0)"/>
      <use xlink:href="#DejaVuSans-30" transform="translate(697.722656 0)"/>
      <use xlink:href="#DejaVuSans-30" transform="translate(761.345703 0)"/>
      <use xlink:href="#DejaVuSans-20" transform="translate(824.96875 0)"/>
      <use xlink:href="#DejaVuSans-50" transform="translate(856.755859 0)"/>
      <use xlink:href="#DejaVuSans-61" transform="translate(912.558594 0)"/>
     </g>
    </g>
    <g id="line2d_35">
     <path d="M 81 70.976562 
L 91 70.976562 
L 101 70.976562 
" style="fill: none; stroke-dasharray: 5.55,2.4; stroke-dashoffset: 0; stroke: #33a02c; stroke-opacity: 0.7; stroke-width: 1.5"/>
    </g>
    <g id="text_18">
     <!-- Test 62 Fit: 1842 Pa -->
     <g transform="translate(109 74.476562) scale(0.1 -0.1)">
      <use xlink:href="#DejaVuSans-54"/>
      <use xlink:href="#DejaVuSans-65" transform="translate(44.083984 0)"/>
      <use xlink:href="#DejaVuSans-73" transform="translate(105.607422 0)"/>
      <use xlink:href="#DejaVuSans-74" transform="translate(157.707031 0)"/>
      <use xlink:href="#DejaVuSans-20" transform="translate(196.916016 0)"/>
      <use xlink:href="#DejaVuSans-36" transform="translate(228.703125 0)"/>
      <use xlink:href="#DejaVuSans-32" transform="translate(292.326172 0)"/>
      <use xlink:href="#DejaVuSans-20" transform="translate(355.949219 0)"/>
      <use xlink:href="#DejaVuSans-46" transform="translate(387.736328 0)"/>
      <use xlink:href="#DejaVuSans-69" transform="translate(438.005859 0)"/>
      <use xlink:href="#DejaVuSans-74" transform="translate(465.789062 0)"/>
      <use xlink:href="#DejaVuSans-3a" transform="translate(504.998047 0)"/>
      <use xlink:href="#DejaVuSans-20" transform="translate(538.689453 0)"/>
      <use xlink:href="#DejaVuSans-31" transform="translate(570.476562 0)"/>
      <use xlink:href="#DejaVuSans-38" transform="translate(634.099609 0)"/>
      <use xlink:href="#DejaVuSans-34" transform="translate(697.722656 0)"/>
      <use xlink:href="#DejaVuSans-32" transform="translate(761.345703 0)"/>
      <use xlink:href="#DejaVuSans-20" transform="translate(824.96875 0)"/>
      <use xlink:href="#DejaVuSans-50" transform="translate(856.755859 0)"/>
      <use xlink:href="#DejaVuSans-61" transform="translate(912.558594 0)"/>
     </g>
    </g>
    <g id="line2d_36">
     <path d="M 81 85.654687 
L 91 85.654687 
L 101 85.654687 
" style="fill: none; stroke-dasharray: 5.55,2.4; stroke-dashoffset: 0; stroke: #e31a1c; stroke-opacity: 0.7; stroke-width: 1.5"/>
    </g>
    <g id="text_19">
     <!-- Test 63 Fit: 1965 Pa -->
     <g transform="translate(109 89.154687) scale(0.1 -0.1)">
      <defs>
       <path id="DejaVuSans-35" d="M 691 4666 
L 3169 4666 
L 3169 4134 
L 1269 4134 
L 1269 2991 
Q 1406 3038 1543 3061 
Q 1681 3084 1819 3084 
Q 2600 3084 3056 2656 
Q 3513 2228 3513 1497 
Q 3513 744 3044 326 
Q 2575 -91 1722 -91 
Q 1428 -91 1123 -41 
Q 819 9 494 109 
L 494 744 
Q 775 591 1075 516 
Q 1375 441 1709 441 
Q 2250 441 2565 725 
Q 2881 1009 2881 1497 
Q 2881 1984 2565 2268 
Q 2250 2553 1709 2553 
Q 1456 2553 1204 2497 
Q 953 2441 691 2322 
L 691 4666 
z
" transform="scale(0.015625)"/>
      </defs>
      <use xlink:href="#DejaVuSans-54"/>
      <use xlink:href="#DejaVuSans-65" transform="translate(44.083984 0)"/>
      <use xlink:href="#DejaVuSans-73" transform="translate(105.607422 0)"/>
      <use xlink:href="#DejaVuSans-74" transform="translate(157.707031 0)"/>
      <use xlink:href="#DejaVuSans-20" transform="translate(196.916016 0)"/>
      <use xlink:href="#DejaVuSans-36" transform="translate(228.703125 0)"/>
      <use xlink:href="#DejaVuSans-33" transform="translate(292.326172 0)"/>
      <use xlink:href="#DejaVuSans-20" transform="translate(355.949219 0)"/>
      <use xlink:href="#DejaVuSans-46" transform="translate(387.736328 0)"/>
      <use xlink:href="#DejaVuSans-69" transform="translate(438.005859 0)"/>
      <use xlink:href="#DejaVuSans-74" transform="translate(465.789062 0)"/>
      <use xlink:href="#DejaVuSans-3a" transform="translate(504.998047 0)"/>
      <use xlink:href="#DejaVuSans-20" transform="translate(538.689453 0)"/>
      <use xlink:href="#DejaVuSans-31" transform="translate(570.476562 0)"/>
      <use xlink:href="#DejaVuSans-39" transform="translate(634.099609 0)"/>
      <use xlink:href="#DejaVuSans-36" transform="translate(697.722656 0)"/>
      <use xlink:href="#DejaVuSans-35" transform="translate(761.345703 0)"/>
      <use xlink:href="#DejaVuSans-20" transform="translate(824.96875 0)"/>
      <use xlink:href="#DejaVuSans-50" transform="translate(856.755859 0)"/>
      <use xlink:href="#DejaVuSans-61" transform="translate(912.558594 0)"/>
     </g>
    </g>
    <g id="line2d_37">
     <path d="M 81 100.332812 
L 91 100.332812 
L 101 100.332812 
" style="fill: none; stroke-dasharray: 5.55,2.4; stroke-dashoffset: 0; stroke: #ff7f00; stroke-opacity: 0.7; stroke-width: 1.5"/>
    </g>
    <g id="text_20">
     <!-- Test 64 Fit: 1778 Pa -->
     <g transform="translate(109 103.832812) scale(0.1 -0.1)">
      <use xlink:href="#DejaVuSans-54"/>
      <use xlink:href="#DejaVuSans-65" transform="translate(44.083984 0)"/>
      <use xlink:href="#DejaVuSans-73" transform="translate(105.607422 0)"/>
      <use xlink:href="#DejaVuSans-74" transform="translate(157.707031 0)"/>
      <use xlink:href="#DejaVuSans-20" transform="translate(196.916016 0)"/>
      <use xlink:href="#DejaVuSans-36" transform="translate(228.703125 0)"/>
      <use xlink:href="#DejaVuSans-34" transform="translate(292.326172 0)"/>
      <use xlink:href="#DejaVuSans-20" transform="translate(355.949219 0)"/>
      <use xlink:href="#DejaVuSans-46" transform="translate(387.736328 0)"/>
      <use xlink:href="#DejaVuSans-69" transform="translate(438.005859 0)"/>
      <use xlink:href="#DejaVuSans-74" transform="translate(465.789062 0)"/>
      <use xlink:href="#DejaVuSans-3a" transform="translate(504.998047 0)"/>
      <use xlink:href="#DejaVuSans-20" transform="translate(538.689453 0)"/>
      <use xlink:href="#DejaVuSans-31" transform="translate(570.476562 0)"/>
      <use xlink:href="#DejaVuSans-37" transform="translate(634.099609 0)"/>
      <use xlink:href="#DejaVuSans-37" transform="translate(697.722656 0)"/>
      <use xlink:href="#DejaVuSans-38" transform="translate(761.345703 0)"/>
      <use xlink:href="#DejaVuSans-20" transform="translate(824.96875 0)"/>
      <use xlink:href="#DejaVuSans-50" transform="translate(856.755859 0)"/>
      <use xlink:href="#DejaVuSans-61" transform="translate(912.558594 0)"/>
     </g>
    </g>
    <g id="line2d_38">
     <path d="M 81 115.010937 
L 91 115.010937 
L 101 115.010937 
" style="fill: none; stroke-dasharray: 5.55,2.4; stroke-dashoffset: 0; stroke: #6a3d9a; stroke-opacity: 0.7; stroke-width: 1.5"/>
    </g>
    <g id="text_21">
     <!-- Test 65 Fit: 1823 Pa -->
     <g transform="translate(109 118.510937) scale(0.1 -0.1)">
      <use xlink:href="#DejaVuSans-54"/>
      <use xlink:href="#DejaVuSans-65" transform="translate(44.083984 0)"/>
      <use xlink:href="#DejaVuSans-73" transform="translate(105.607422 0)"/>
      <use xlink:href="#DejaVuSans-74" transform="translate(157.707031 0)"/>
      <use xlink:href="#DejaVuSans-20" transform="translate(196.916016 0)"/>
      <use xlink:href="#DejaVuSans-36" transform="translate(228.703125 0)"/>
      <use xlink:href="#DejaVuSans-35" transform="translate(292.326172 0)"/>
      <use xlink:href="#DejaVuSans-20" transform="translate(355.949219 0)"/>
      <use xlink:href="#DejaVuSans-46" transform="translate(387.736328 0)"/>
      <use xlink:href="#DejaVuSans-69" transform="translate(438.005859 0)"/>
      <use xlink:href="#DejaVuSans-74" transform="translate(465.789062 0)"/>
      <use xlink:href="#DejaVuSans-3a" transform="translate(504.998047 0)"/>
      <use xlink:href="#DejaVuSans-20" transform="translate(538.689453 0)"/>
      <use xlink:href="#DejaVuSans-31" transform="translate(570.476562 0)"/>
      <use xlink:href="#DejaVuSans-38" transform="translate(634.099609 0)"/>
      <use xlink:href="#DejaVuSans-32" transform="translate(697.722656 0)"/>
      <use xlink:href="#DejaVuSans-33" transform="translate(761.345703 0)"/>
      <use xlink:href="#DejaVuSans-20" transform="translate(824.96875 0)"/>
      <use xlink:href="#DejaVuSans-50" transform="translate(856.755859 0)"/>
      <use xlink:href="#DejaVuSans-61" transform="translate(912.558594 0)"/>
     </g>
    </g>
    <g id="line2d_39">
     <path d="M 81 129.689062 
L 91 129.689062 
L 101 129.689062 
" style="fill: none; stroke: #1f77b4; stroke-width: 2.5; stroke-linecap: square"/>
    </g>
    <g id="text_22">
     <!-- Mean Cell Fit: 1762 Pa -->
     <g transform="translate(109 133.189062) scale(0.1 -0.1)">
      <use xlink:href="#DejaVuSans-4d"/>
      <use xlink:href="#DejaVuSans-65" transform="translate(86.279297 0)"/>
      <use xlink:href="#DejaVuSans-61" transform="translate(147.802734 0)"/>
      <use xlink:href="#DejaVuSans-6e" transform="translate(209.082031 0)"/>
      <use xlink:href="#DejaVuSans-20" transform="translate(272.460938 0)"/>
      <use xlink:href="#DejaVuSans-43" transform="translate(304.248047 0)"/>
      <use xlink:href="#DejaVuSans-65" transform="translate(374.072266 0)"/>
      <use xlink:href="#DejaVuSans-6c" transform="translate(435.595703 0)"/>
      <use xlink:href="#DejaVuSans-6c" transform="translate(463.378906 0)"/>
      <use xlink:href="#DejaVuSans-20" transform="translate(491.162109 0)"/>
      <use xlink:href="#DejaVuSans-46" transform="translate(522.949219 0)"/>
      <use xlink:href="#DejaVuSans-69" transform="translate(573.21875 0)"/>
      <use xlink:href="#DejaVuSans-74" transform="translate(601.001953 0)"/>
      <use xlink:href="#DejaVuSans-3a" transform="translate(640.210938 0)"/>
      <use xlink:href="#DejaVuSans-20" transform="translate(673.902344 0)"/>
      <use xlink:href="#DejaVuSans-31" transform="translate(705.689453 0)"/>
      <use xlink:href="#DejaVuSans-37" transform="translate(769.3125 0)"/>
      <use xlink:href="#DejaVuSans-36" transform="translate(832.935547 0)"/>
      <use xlink:href="#DejaVuSans-32" transform="translate(896.558594 0)"/>
      <use xlink:href="#DejaVuSans-20" transform="translate(960.181641 0)"/>
      <use xlink:href="#DejaVuSans-50" transform="translate(991.96875 0)"/>
      <use xlink:href="#DejaVuSans-61" transform="translate(1047.771484 0)"/>
     </g>
    </g>
   </g>
  </g>
  <g id="axes_2">
   <g id="patch_8">
    <path d="M 407.493168 320.4 
L 518.4 320.4 
L 518.4 43.2 
L 407.493168 43.2 
z
" style="fill: #ffffff"/>
   </g>
   <g id="PathCollection_1">
    <defs>
     <path id="C0_0_66936aa028" d="M 0 3 
C 0.795609 3 1.55874 2.683901 2.12132 2.12132 
C 2.683901 1.55874 3 0.795609 3 -0 
C 3 -0.795609 2.683901 -1.55874 2.12132 -2.12132 
C 1.55874 -2.683901 0.795609 -3 0 -3 
C -0.795609 -3 -1.55874 -2.683901 -2.12132 -2.12132 
C -2.683901 -1.55874 -3 -0.795609 -3 0 
C -3 0.795609 -2.683901 1.55874 -2.12132 2.12132 
C -1.55874 2.683901 -0.795609 3 0 3 
z
"/>
    </defs>
    <g clip-path="url(#p4ddf146692)">
     <use xlink:href="#C0_0_66936aa028" x="461.775815" y="126.308718" style="fill: #a6cee3; fill-opacity: 0.5; stroke: #a6cee3; stroke-opacity: 0.5"/>
    </g>
    <g clip-path="url(#p4ddf146692)">
     <use xlink:href="#C0_0_66936aa028" x="459.386934" y="65.109888" style="fill: #b2df8a; fill-opacity: 0.5; stroke: #b2df8a; stroke-opacity: 0.5"/>
    </g>
    <g clip-path="url(#p4ddf146692)">
     <use xlink:href="#C0_0_66936aa028" x="465.44995" y="48.109212" style="fill: #fb9a99; fill-opacity: 0.5; stroke: #fb9a99; stroke-opacity: 0.5"/>
    </g>
    <g clip-path="url(#p4ddf146692)">
     <use xlink:href="#C0_0_66936aa028" x="460.423668" y="73.97613" style="fill: #fdbf6f; fill-opacity: 0.5; stroke: #fdbf6f; stroke-opacity: 0.5"/>
    </g>
    <g clip-path="url(#p4ddf146692)">
     <use xlink:href="#C0_0_66936aa028" x="462.964967" y="67.721112" style="fill: #cab2d6; fill-opacity: 0.5; stroke: #cab2d6; stroke-opacity: 0.5"/>
    </g>
   </g>
   <g id="matplotlib.axis_3">
    <g id="xtick_6">
     <g id="line2d_40">
      <g>
       <use xlink:href="#me643179480" x="462.946584" y="320.4" style="stroke: #000000; stroke-width: 0.8"/>
      </g>
     </g>
     <g id="text_23">
      <!-- Certianty -->
      <g transform="translate(439.821584 334.998438) scale(0.1 -0.1)">
       <use xlink:href="#DejaVuSans-43"/>
       <use xlink:href="#DejaVuSans-65" transform="translate(69.824219 0)"/>
       <use xlink:href="#DejaVuSans-72" transform="translate(131.347656 0)"/>
       <use xlink:href="#DejaVuSans-74" transform="translate(172.460938 0)"/>
       <use xlink:href="#DejaVuSans-69" transform="translate(211.669922 0)"/>
       <use xlink:href="#DejaVuSans-61" transform="translate(239.453125 0)"/>
       <use xlink:href="#DejaVuSans-6e" transform="translate(300.732422 0)"/>
       <use xlink:href="#DejaVuSans-74" transform="translate(364.111328 0)"/>
       <use xlink:href="#DejaVuSans-79" transform="translate(403.320312 0)"/>
      </g>
     </g>
    </g>
   </g>
   <g id="matplotlib.axis_4">
    <g id="ytick_7">
     <g id="line2d_41">
      <path d="M 407.493168 320.4 
L 518.4 320.4 
" clip-path="url(#p4ddf146692)" style="fill: none; stroke-dasharray: 2.96,1.28; stroke-dashoffset: 0; stroke: #b0b0b0; stroke-opacity: 0.7; stroke-width: 0.8"/>
     </g>
     <g id="line2d_42">
      <g>
       <use xlink:href="#m9026777274" x="407.493168" y="320.4" style="stroke: #000000; stroke-width: 0.8"/>
      </g>
     </g>
     <g id="text_24">
      <!-- 0 -->
      <g transform="translate(394.130668 324.199219) scale(0.1 -0.1)">
       <use xlink:href="#DejaVuSans-30"/>
      </g>
     </g>
    </g>
    <g id="ytick_8">
     <g id="line2d_43">
      <path d="M 407.493168 285.75 
L 518.4 285.75 
" clip-path="url(#p4ddf146692)" style="fill: none; stroke-dasharray: 2.96,1.28; stroke-dashoffset: 0; stroke: #b0b0b0; stroke-opacity: 0.7; stroke-width: 0.8"/>
     </g>
     <g id="line2d_44">
      <g>
       <use xlink:href="#m9026777274" x="407.493168" y="285.75" style="stroke: #000000; stroke-width: 0.8"/>
      </g>
     </g>
     <g id="text_25">
      <!-- 250 -->
      <g transform="translate(381.405668 289.549219) scale(0.1 -0.1)">
       <use xlink:href="#DejaVuSans-32"/>
       <use xlink:href="#DejaVuSans-35" transform="translate(63.623047 0)"/>
       <use xlink:href="#DejaVuSans-30" transform="translate(127.246094 0)"/>
      </g>
     </g>
    </g>
    <g id="ytick_9">
     <g id="line2d_45">
      <path d="M 407.493168 251.1 
L 518.4 251.1 
" clip-path="url(#p4ddf146692)" style="fill: none; stroke-dasharray: 2.96,1.28; stroke-dashoffset: 0; stroke: #b0b0b0; stroke-opacity: 0.7; stroke-width: 0.8"/>
     </g>
     <g id="line2d_46">
      <g>
       <use xlink:href="#m9026777274" x="407.493168" y="251.1" style="stroke: #000000; stroke-width: 0.8"/>
      </g>
     </g>
     <g id="text_26">
      <!-- 500 -->
      <g transform="translate(381.405668 254.899219) scale(0.1 -0.1)">
       <use xlink:href="#DejaVuSans-35"/>
       <use xlink:href="#DejaVuSans-30" transform="translate(63.623047 0)"/>
       <use xlink:href="#DejaVuSans-30" transform="translate(127.246094 0)"/>
      </g>
     </g>
    </g>
    <g id="ytick_10">
     <g id="line2d_47">
      <path d="M 407.493168 216.45 
L 518.4 216.45 
" clip-path="url(#p4ddf146692)" style="fill: none; stroke-dasharray: 2.96,1.28; stroke-dashoffset: 0; stroke: #b0b0b0; stroke-opacity: 0.7; stroke-width: 0.8"/>
     </g>
     <g id="line2d_48">
      <g>
       <use xlink:href="#m9026777274" x="407.493168" y="216.45" style="stroke: #000000; stroke-width: 0.8"/>
      </g>
     </g>
     <g id="text_27">
      <!-- 750 -->
      <g transform="translate(381.405668 220.249219) scale(0.1 -0.1)">
       <use xlink:href="#DejaVuSans-37"/>
       <use xlink:href="#DejaVuSans-35" transform="translate(63.623047 0)"/>
       <use xlink:href="#DejaVuSans-30" transform="translate(127.246094 0)"/>
      </g>
     </g>
    </g>
    <g id="ytick_11">
     <g id="line2d_49">
      <path d="M 407.493168 181.8 
L 518.4 181.8 
" clip-path="url(#p4ddf146692)" style="fill: none; stroke-dasharray: 2.96,1.28; stroke-dashoffset: 0; stroke: #b0b0b0; stroke-opacity: 0.7; stroke-width: 0.8"/>
     </g>
     <g id="line2d_50">
      <g>
       <use xlink:href="#m9026777274" x="407.493168" y="181.8" style="stroke: #000000; stroke-width: 0.8"/>
      </g>
     </g>
     <g id="text_28">
      <!-- 1000 -->
      <g transform="translate(375.043168 185.599219) scale(0.1 -0.1)">
       <use xlink:href="#DejaVuSans-31"/>
       <use xlink:href="#DejaVuSans-30" transform="translate(63.623047 0)"/>
       <use xlink:href="#DejaVuSans-30" transform="translate(127.246094 0)"/>
       <use xlink:href="#DejaVuSans-30" transform="translate(190.869141 0)"/>
      </g>
     </g>
    </g>
    <g id="ytick_12">
     <g id="line2d_51">
      <path d="M 407.493168 147.15 
L 518.4 147.15 
" clip-path="url(#p4ddf146692)" style="fill: none; stroke-dasharray: 2.96,1.28; stroke-dashoffset: 0; stroke: #b0b0b0; stroke-opacity: 0.7; stroke-width: 0.8"/>
     </g>
     <g id="line2d_52">
      <g>
       <use xlink:href="#m9026777274" x="407.493168" y="147.15" style="stroke: #000000; stroke-width: 0.8"/>
      </g>
     </g>
     <g id="text_29">
      <!-- 1250 -->
      <g transform="translate(375.043168 150.949219) scale(0.1 -0.1)">
       <use xlink:href="#DejaVuSans-31"/>
       <use xlink:href="#DejaVuSans-32" transform="translate(63.623047 0)"/>
       <use xlink:href="#DejaVuSans-35" transform="translate(127.246094 0)"/>
       <use xlink:href="#DejaVuSans-30" transform="translate(190.869141 0)"/>
      </g>
     </g>
    </g>
    <g id="ytick_13">
     <g id="line2d_53">
      <path d="M 407.493168 112.5 
L 518.4 112.5 
" clip-path="url(#p4ddf146692)" style="fill: none; stroke-dasharray: 2.96,1.28; stroke-dashoffset: 0; stroke: #b0b0b0; stroke-opacity: 0.7; stroke-width: 0.8"/>
     </g>
     <g id="line2d_54">
      <g>
       <use xlink:href="#m9026777274" x="407.493168" y="112.5" style="stroke: #000000; stroke-width: 0.8"/>
      </g>
     </g>
     <g id="text_30">
      <!-- 1500 -->
      <g transform="translate(375.043168 116.299219) scale(0.1 -0.1)">
       <use xlink:href="#DejaVuSans-31"/>
       <use xlink:href="#DejaVuSans-35" transform="translate(63.623047 0)"/>
       <use xlink:href="#DejaVuSans-30" transform="translate(127.246094 0)"/>
       <use xlink:href="#DejaVuSans-30" transform="translate(190.869141 0)"/>
      </g>
     </g>
    </g>
    <g id="ytick_14">
     <g id="line2d_55">
      <path d="M 407.493168 77.85 
L 518.4 77.85 
" clip-path="url(#p4ddf146692)" style="fill: none; stroke-dasharray: 2.96,1.28; stroke-dashoffset: 0; stroke: #b0b0b0; stroke-opacity: 0.7; stroke-width: 0.8"/>
     </g>
     <g id="line2d_56">
      <g>
       <use xlink:href="#m9026777274" x="407.493168" y="77.85" style="stroke: #000000; stroke-width: 0.8"/>
      </g>
     </g>
     <g id="text_31">
      <!-- 1750 -->
      <g transform="translate(375.043168 81.649219) scale(0.1 -0.1)">
       <use xlink:href="#DejaVuSans-31"/>
       <use xlink:href="#DejaVuSans-37" transform="translate(63.623047 0)"/>
       <use xlink:href="#DejaVuSans-35" transform="translate(127.246094 0)"/>
       <use xlink:href="#DejaVuSans-30" transform="translate(190.869141 0)"/>
      </g>
     </g>
    </g>
    <g id="ytick_15">
     <g id="line2d_57">
      <path d="M 407.493168 43.2 
L 518.4 43.2 
" clip-path="url(#p4ddf146692)" style="fill: none; stroke-dasharray: 2.96,1.28; stroke-dashoffset: 0; stroke: #b0b0b0; stroke-opacity: 0.7; stroke-width: 0.8"/>
     </g>
     <g id="line2d_58">
      <g>
       <use xlink:href="#m9026777274" x="407.493168" y="43.2" style="stroke: #000000; stroke-width: 0.8"/>
      </g>
     </g>
     <g id="text_32">
      <!-- 2000 -->
      <g transform="translate(375.043168 46.999219) scale(0.1 -0.1)">
       <use xlink:href="#DejaVuSans-32"/>
       <use xlink:href="#DejaVuSans-30" transform="translate(63.623047 0)"/>
       <use xlink:href="#DejaVuSans-30" transform="translate(127.246094 0)"/>
       <use xlink:href="#DejaVuSans-30" transform="translate(190.869141 0)"/>
      </g>
     </g>
    </g>
    <g id="text_33">
     <!-- Young's Modulus [Pa] -->
     <g transform="translate(368.96348 234.553906) rotate(-90) scale(0.1 -0.1)">
      <defs>
       <path id="DejaVuSans-59" d="M -13 4666 
L 666 4666 
L 1959 2747 
L 3244 4666 
L 3922 4666 
L 2272 2222 
L 2272 0 
L 1638 0 
L 1638 2222 
L -13 4666 
z
" transform="scale(0.015625)"/>
       <path id="DejaVuSans-67" d="M 2906 1791 
Q 2906 2416 2648 2759 
Q 2391 3103 1925 3103 
Q 1463 3103 1205 2759 
Q 947 2416 947 1791 
Q 947 1169 1205 825 
Q 1463 481 1925 481 
Q 2391 481 2648 825 
Q 2906 1169 2906 1791 
z
M 3481 434 
Q 3481 -459 3084 -895 
Q 2688 -1331 1869 -1331 
Q 1566 -1331 1297 -1286 
Q 1028 -1241 775 -1147 
L 775 -588 
Q 1028 -725 1275 -790 
Q 1522 -856 1778 -856 
Q 2344 -856 2625 -561 
Q 2906 -266 2906 331 
L 2906 616 
Q 2728 306 2450 153 
Q 2172 0 1784 0 
Q 1141 0 747 490 
Q 353 981 353 1791 
Q 353 2603 747 3093 
Q 1141 3584 1784 3584 
Q 2172 3584 2450 3431 
Q 2728 3278 2906 2969 
L 2906 3500 
L 3481 3500 
L 3481 434 
z
" transform="scale(0.015625)"/>
       <path id="DejaVuSans-27" d="M 1147 4666 
L 1147 2931 
L 616 2931 
L 616 4666 
L 1147 4666 
z
" transform="scale(0.015625)"/>
      </defs>
      <use xlink:href="#DejaVuSans-59"/>
      <use xlink:href="#DejaVuSans-6f" transform="translate(47.833984 0)"/>
      <use xlink:href="#DejaVuSans-75" transform="translate(109.015625 0)"/>
      <use xlink:href="#DejaVuSans-6e" transform="translate(172.394531 0)"/>
      <use xlink:href="#DejaVuSans-67" transform="translate(235.773438 0)"/>
      <use xlink:href="#DejaVuSans-27" transform="translate(299.25 0)"/>
      <use xlink:href="#DejaVuSans-73" transform="translate(326.740234 0)"/>
      <use xlink:href="#DejaVuSans-20" transform="translate(378.839844 0)"/>
      <use xlink:href="#DejaVuSans-4d" transform="translate(410.626953 0)"/>
      <use xlink:href="#DejaVuSans-6f" transform="translate(496.90625 0)"/>
      <use xlink:href="#DejaVuSans-64" transform="translate(558.087891 0)"/>
      <use xlink:href="#DejaVuSans-75" transform="translate(621.564453 0)"/>
      <use xlink:href="#DejaVuSans-6c" transform="translate(684.943359 0)"/>
      <use xlink:href="#DejaVuSans-75" transform="translate(712.726562 0)"/>
      <use xlink:href="#DejaVuSans-73" transform="translate(776.105469 0)"/>
      <use xlink:href="#DejaVuSans-20" transform="translate(828.205078 0)"/>
      <use xlink:href="#DejaVuSans-5b" transform="translate(859.992188 0)"/>
      <use xlink:href="#DejaVuSans-50" transform="translate(899.005859 0)"/>
      <use xlink:href="#DejaVuSans-61" transform="translate(954.808594 0)"/>
      <use xlink:href="#DejaVuSans-5d" transform="translate(1016.087891 0)"/>
     </g>
    </g>
   </g>
   <g id="patch_9">
    <path d="M 435.219876 73.97613 
L 490.673292 73.97613 
L 490.673292 73.946325 
L 476.809938 67.721112 
L 490.673292 61.495899 
L 490.673292 65.109888 
L 435.219876 65.109888 
L 435.219876 61.495899 
L 449.08323 67.721112 
L 435.219876 73.946325 
L 435.219876 73.97613 
z
" clip-path="url(#p4ddf146692)" style="fill: #0000ff; opacity: 0.3; stroke: #0000ff; stroke-linejoin: miter"/>
   </g>
   <g id="line2d_59">
    <path d="M 462.946584 73.97613 
L 462.946584 73.97613 
" clip-path="url(#p4ddf146692)" style="fill: none; stroke: #000000; stroke-opacity: 0; stroke-linecap: square"/>
   </g>
   <g id="line2d_60">
    <path d="M 462.946584 65.109888 
L 462.946584 65.109888 
" clip-path="url(#p4ddf146692)" style="fill: none; stroke: #000000; stroke-opacity: 0; stroke-linecap: square"/>
   </g>
   <g id="line2d_61">
    <path d="M 449.08323 73.97613 
L 476.809938 73.97613 
" clip-path="url(#p4ddf146692)" style="fill: none; stroke: #000000; stroke-opacity: 0; stroke-linecap: square"/>
   </g>
   <g id="line2d_62">
    <path d="M 449.08323 65.109888 
L 476.809938 65.109888 
" clip-path="url(#p4ddf146692)" style="fill: none; stroke: #000000; stroke-opacity: 0; stroke-linecap: square"/>
   </g>
   <g id="line2d_63"/>
   <g id="patch_10">
    <path d="M 421.356522 73.97613 
L 504.536646 73.97613 
L 504.536646 126.308718 
L 483.741615 67.721112 
L 504.536646 48.109212 
L 504.536646 65.109888 
L 421.356522 65.109888 
L 421.356522 48.109212 
L 442.151553 67.721112 
L 421.356522 126.308718 
L 421.356522 73.97613 
z
" clip-path="url(#p4ddf146692)" style="fill: #0000ff; opacity: 0.1; stroke: #0000ff; stroke-linejoin: miter"/>
   </g>
   <g id="line2d_64">
    <path d="M 462.946584 73.97613 
L 462.946584 73.97613 
" clip-path="url(#p4ddf146692)" style="fill: none; stroke: #000000; stroke-linecap: square"/>
   </g>
   <g id="line2d_65">
    <path d="M 462.946584 65.109888 
L 462.946584 65.109888 
" clip-path="url(#p4ddf146692)" style="fill: none; stroke: #000000; stroke-linecap: square"/>
   </g>
   <g id="line2d_66">
    <path d="M 442.151553 73.97613 
L 483.741615 73.97613 
" clip-path="url(#p4ddf146692)" style="fill: none; stroke: #000000; stroke-linecap: square"/>
   </g>
   <g id="line2d_67">
    <path d="M 442.151553 65.109888 
L 483.741615 65.109888 
" clip-path="url(#p4ddf146692)" style="fill: none; stroke: #000000; stroke-linecap: square"/>
   </g>
   <g id="line2d_68"/>
   <g id="LineCollection_1">
    <path d="M 435.219876 76.245012 
L 490.673292 76.245012 
" clip-path="url(#p4ddf146692)" style="fill: none; stroke: #0000ff; stroke-width: 3"/>
   </g>
   <g id="LineCollection_2">
    <path d="M 440.765217 112.972845 
L 462.946584 112.972845 
" clip-path="url(#p4ddf146692)" style="fill: none; stroke: #00008b; stroke-width: 2"/>
    <path d="M 440.765217 39.517179 
L 462.946584 39.517179 
" clip-path="url(#p4ddf146692)" style="fill: none; stroke: #00008b; stroke-width: 2"/>
   </g>
   <g id="LineCollection_3">
    <path d="M 451.855901 112.972845 
L 451.855901 39.517179 
" clip-path="url(#p4ddf146692)" style="fill: none; stroke: #00008b; stroke-width: 2"/>
   </g>
   <g id="line2d_69">
    <path d="M 449.08323 67.721112 
L 476.809938 67.721112 
" clip-path="url(#p4ddf146692)" style="fill: none; stroke: #ff7f0e; stroke-opacity: 0"/>
   </g>
   <g id="line2d_70">
    <path d="M 442.151553 67.721112 
L 483.741615 67.721112 
" clip-path="url(#p4ddf146692)" style="fill: none; stroke: #000000"/>
   </g>
   <g id="patch_11">
    <path d="M 407.493168 320.4 
L 407.493168 43.2 
" style="fill: none; stroke: #000000; stroke-width: 0.8; stroke-linejoin: miter; stroke-linecap: square"/>
   </g>
   <g id="patch_12">
    <path d="M 518.4 320.4 
L 518.4 43.2 
" style="fill: none; stroke: #000000; stroke-width: 0.8; stroke-linejoin: miter; stroke-linecap: square"/>
   </g>
   <g id="patch_13">
    <path d="M 407.493168 320.4 
L 518.4 320.4 
" style="fill: none; stroke: #000000; stroke-width: 0.8; stroke-linejoin: miter; stroke-linecap: square"/>
   </g>
   <g id="patch_14">
    <path d="M 407.493168 43.2 
L 518.4 43.2 
" style="fill: none; stroke: #000000; stroke-width: 0.8; stroke-linejoin: miter; stroke-linecap: square"/>
   </g>
   <g id="text_34">
    <!-- Young's Modulus  -->
    <g transform="translate(411.348459 23.762625) scale(0.12 -0.12)">
     <use xlink:href="#DejaVuSans-59"/>
     <use xlink:href="#DejaVuSans-6f" transform="translate(47.833984 0)"/>
     <use xlink:href="#DejaVuSans-75" transform="translate(109.015625 0)"/>
     <use xlink:href="#DejaVuSans-6e" transform="translate(172.394531 0)"/>
     <use xlink:href="#DejaVuSans-67" transform="translate(235.773438 0)"/>
     <use xlink:href="#DejaVuSans-27" transform="translate(299.25 0)"/>
     <use xlink:href="#DejaVuSans-73" transform="translate(326.740234 0)"/>
     <use xlink:href="#DejaVuSans-20" transform="translate(378.839844 0)"/>
     <use xlink:href="#DejaVuSans-4d" transform="translate(410.626953 0)"/>
     <use xlink:href="#DejaVuSans-6f" transform="translate(496.90625 0)"/>
     <use xlink:href="#DejaVuSans-64" transform="translate(558.087891 0)"/>
     <use xlink:href="#DejaVuSans-75" transform="translate(621.564453 0)"/>
     <use xlink:href="#DejaVuSans-6c" transform="translate(684.943359 0)"/>
     <use xlink:href="#DejaVuSans-75" transform="translate(712.726562 0)"/>
     <use xlink:href="#DejaVuSans-73" transform="translate(776.105469 0)"/>
     <use xlink:href="#DejaVuSans-20" transform="translate(828.205078 0)"/>
    </g>
    <!-- Confidence -->
    <g transform="translate(429.209709 37.2) scale(0.12 -0.12)">
     <defs>
      <path id="DejaVuSans-66" d="M 2375 4863 
L 2375 4384 
L 1825 4384 
Q 1516 4384 1395 4259 
Q 1275 4134 1275 3809 
L 1275 3500 
L 2222 3500 
L 2222 3053 
L 1275 3053 
L 1275 0 
L 697 0 
L 697 3053 
L 147 3053 
L 147 3500 
L 697 3500 
L 697 3744 
Q 697 4328 969 4595 
Q 1241 4863 1831 4863 
L 2375 4863 
z
" transform="scale(0.015625)"/>
     </defs>
     <use xlink:href="#DejaVuSans-43"/>
     <use xlink:href="#DejaVuSans-6f" transform="translate(69.824219 0)"/>
     <use xlink:href="#DejaVuSans-6e" transform="translate(131.005859 0)"/>
     <use xlink:href="#DejaVuSans-66" transform="translate(194.384766 0)"/>
     <use xlink:href="#DejaVuSans-69" transform="translate(229.589844 0)"/>
     <use xlink:href="#DejaVuSans-64" transform="translate(257.373047 0)"/>
     <use xlink:href="#DejaVuSans-65" transform="translate(320.849609 0)"/>
     <use xlink:href="#DejaVuSans-6e" transform="translate(382.373047 0)"/>
     <use xlink:href="#DejaVuSans-63" transform="translate(445.751953 0)"/>
     <use xlink:href="#DejaVuSans-65" transform="translate(500.732422 0)"/>
    </g>
   </g>
   <g id="legend_2">
    <g id="patch_15">
     <path d="M 414.143168 315.65 
L 511.769027 315.65 
Q 513.669027 315.65 513.669027 313.75 
L 513.669027 202.427219 
Q 513.669027 200.527219 511.769027 200.527219 
L 414.143168 200.527219 
Q 412.243168 200.527219 412.243168 202.427219 
L 412.243168 313.75 
Q 412.243168 315.65 414.143168 315.65 
z
" style="fill: #ffffff; opacity: 0.8; stroke: #cccccc; stroke-linejoin: miter"/>
    </g>
    <g id="patch_16">
     <path d="M 416.043168 217.852547 
L 435.043168 217.852547 
L 435.043168 211.202547 
L 416.043168 211.202547 
z
" style="fill: #0000ff; opacity: 0.3; stroke: #0000ff; stroke-linejoin: miter"/>
    </g>
    <g id="text_35">
     <!-- Notched  -->
     <g transform="translate(442.643168 211.545734) scale(0.095 -0.095)">
      <defs>
       <path id="DejaVuSans-68" d="M 3513 2113 
L 3513 0 
L 2938 0 
L 2938 2094 
Q 2938 2591 2744 2837 
Q 2550 3084 2163 3084 
Q 1697 3084 1428 2787 
Q 1159 2491 1159 1978 
L 1159 0 
L 581 0 
L 581 4863 
L 1159 4863 
L 1159 2956 
Q 1366 3272 1645 3428 
Q 1925 3584 2291 3584 
Q 2894 3584 3203 3211 
Q 3513 2838 3513 2113 
z
" transform="scale(0.015625)"/>
      </defs>
      <use xlink:href="#DejaVuSans-4e"/>
      <use xlink:href="#DejaVuSans-6f" transform="translate(74.804688 0)"/>
      <use xlink:href="#DejaVuSans-74" transform="translate(135.986328 0)"/>
      <use xlink:href="#DejaVuSans-63" transform="translate(175.195312 0)"/>
      <use xlink:href="#DejaVuSans-68" transform="translate(230.175781 0)"/>
      <use xlink:href="#DejaVuSans-65" transform="translate(293.554688 0)"/>
      <use xlink:href="#DejaVuSans-64" transform="translate(355.078125 0)"/>
      <use xlink:href="#DejaVuSans-20" transform="translate(418.554688 0)"/>
     </g>
     <!-- Box Plot -->
     <g transform="translate(442.643168 222.183656) scale(0.095 -0.095)">
      <defs>
       <path id="DejaVuSans-42" d="M 1259 2228 
L 1259 519 
L 2272 519 
Q 2781 519 3026 730 
Q 3272 941 3272 1375 
Q 3272 1813 3026 2020 
Q 2781 2228 2272 2228 
L 1259 2228 
z
M 1259 4147 
L 1259 2741 
L 2194 2741 
Q 2656 2741 2882 2914 
Q 3109 3088 3109 3444 
Q 3109 3797 2882 3972 
Q 2656 4147 2194 4147 
L 1259 4147 
z
M 628 4666 
L 2241 4666 
Q 2963 4666 3353 4366 
Q 3744 4066 3744 3513 
Q 3744 3084 3544 2831 
Q 3344 2578 2956 2516 
Q 3422 2416 3680 2098 
Q 3938 1781 3938 1306 
Q 3938 681 3513 340 
Q 3088 0 2303 0 
L 628 0 
L 628 4666 
z
" transform="scale(0.015625)"/>
       <path id="DejaVuSans-78" d="M 3513 3500 
L 2247 1797 
L 3578 0 
L 2900 0 
L 1881 1375 
L 863 0 
L 184 0 
L 1544 1831 
L 300 3500 
L 978 3500 
L 1906 2253 
L 2834 3500 
L 3513 3500 
z
" transform="scale(0.015625)"/>
      </defs>
      <use xlink:href="#DejaVuSans-42"/>
      <use xlink:href="#DejaVuSans-6f" transform="translate(68.603516 0)"/>
      <use xlink:href="#DejaVuSans-78" transform="translate(126.660156 0)"/>
      <use xlink:href="#DejaVuSans-20" transform="translate(185.839844 0)"/>
      <use xlink:href="#DejaVuSans-50" transform="translate(217.626953 0)"/>
      <use xlink:href="#DejaVuSans-6c" transform="translate(277.929688 0)"/>
      <use xlink:href="#DejaVuSans-6f" transform="translate(305.712891 0)"/>
      <use xlink:href="#DejaVuSans-74" transform="translate(366.894531 0)"/>
     </g>
    </g>
    <g id="patch_17">
     <path d="M 416.043168 242.434687 
L 435.043168 242.434687 
L 435.043168 235.784687 
L 416.043168 235.784687 
z
" style="fill: #0000ff; opacity: 0.1; stroke: #0000ff; stroke-linejoin: miter"/>
    </g>
    <g id="text_36">
     <!-- Bootstrapped  -->
     <g transform="translate(442.643168 236.127875) scale(0.095 -0.095)">
      <defs>
       <path id="DejaVuSans-70" d="M 1159 525 
L 1159 -1331 
L 581 -1331 
L 581 3500 
L 1159 3500 
L 1159 2969 
Q 1341 3281 1617 3432 
Q 1894 3584 2278 3584 
Q 2916 3584 3314 3078 
Q 3713 2572 3713 1747 
Q 3713 922 3314 415 
Q 2916 -91 2278 -91 
Q 1894 -91 1617 61 
Q 1341 213 1159 525 
z
M 3116 1747 
Q 3116 2381 2855 2742 
Q 2594 3103 2138 3103 
Q 1681 3103 1420 2742 
Q 1159 2381 1159 1747 
Q 1159 1113 1420 752 
Q 1681 391 2138 391 
Q 2594 391 2855 752 
Q 3116 1113 3116 1747 
z
" transform="scale(0.015625)"/>
      </defs>
      <use xlink:href="#DejaVuSans-42"/>
      <use xlink:href="#DejaVuSans-6f" transform="translate(68.603516 0)"/>
      <use xlink:href="#DejaVuSans-6f" transform="translate(129.785156 0)"/>
      <use xlink:href="#DejaVuSans-74" transform="translate(190.966797 0)"/>
      <use xlink:href="#DejaVuSans-73" transform="translate(230.175781 0)"/>
      <use xlink:href="#DejaVuSans-74" transform="translate(282.275391 0)"/>
      <use xlink:href="#DejaVuSans-72" transform="translate(321.484375 0)"/>
      <use xlink:href="#DejaVuSans-61" transform="translate(362.597656 0)"/>
      <use xlink:href="#DejaVuSans-70" transform="translate(423.876953 0)"/>
      <use xlink:href="#DejaVuSans-70" transform="translate(487.353516 0)"/>
      <use xlink:href="#DejaVuSans-65" transform="translate(550.830078 0)"/>
      <use xlink:href="#DejaVuSans-64" transform="translate(612.353516 0)"/>
      <use xlink:href="#DejaVuSans-20" transform="translate(675.830078 0)"/>
     </g>
     <!-- Box Plot -->
     <g transform="translate(442.643168 246.765797) scale(0.095 -0.095)">
      <use xlink:href="#DejaVuSans-42"/>
      <use xlink:href="#DejaVuSans-6f" transform="translate(68.603516 0)"/>
      <use xlink:href="#DejaVuSans-78" transform="translate(126.660156 0)"/>
      <use xlink:href="#DejaVuSans-20" transform="translate(185.839844 0)"/>
      <use xlink:href="#DejaVuSans-50" transform="translate(217.626953 0)"/>
      <use xlink:href="#DejaVuSans-6c" transform="translate(277.929688 0)"/>
      <use xlink:href="#DejaVuSans-6f" transform="translate(305.712891 0)"/>
      <use xlink:href="#DejaVuSans-74" transform="translate(366.894531 0)"/>
     </g>
    </g>
    <g id="line2d_71">
     <path d="M 416.043168 257.385016 
L 425.543168 257.385016 
L 435.043168 257.385016 
" style="fill: none; stroke: #000000; stroke-linecap: square"/>
    </g>
    <g id="text_37">
     <!-- Median -->
     <g transform="translate(442.643168 260.710016) scale(0.095 -0.095)">
      <use xlink:href="#DejaVuSans-4d"/>
      <use xlink:href="#DejaVuSans-65" transform="translate(86.279297 0)"/>
      <use xlink:href="#DejaVuSans-64" transform="translate(147.802734 0)"/>
      <use xlink:href="#DejaVuSans-69" transform="translate(211.279297 0)"/>
      <use xlink:href="#DejaVuSans-61" transform="translate(239.0625 0)"/>
      <use xlink:href="#DejaVuSans-6e" transform="translate(300.341797 0)"/>
     </g>
    </g>
    <g id="line2d_72">
     <path d="M 416.043168 271.329234 
L 425.543168 271.329234 
L 435.043168 271.329234 
" style="fill: none; stroke: #0000ff; stroke-width: 3; stroke-linecap: square"/>
    </g>
    <g id="text_38">
     <!-- Mean -->
     <g transform="translate(442.643168 274.654234) scale(0.095 -0.095)">
      <use xlink:href="#DejaVuSans-4d"/>
      <use xlink:href="#DejaVuSans-65" transform="translate(86.279297 0)"/>
      <use xlink:href="#DejaVuSans-61" transform="translate(147.802734 0)"/>
      <use xlink:href="#DejaVuSans-6e" transform="translate(209.082031 0)"/>
     </g>
    </g>
    <g id="line2d_73">
     <path d="M 416.043168 296.899227 
L 425.543168 296.899227 
L 435.043168 296.899227 
" style="fill: none; stroke: #00008b; stroke-width: 2; stroke-linecap: square"/>
    </g>
    <g id="text_39">
     <!-- Mean 95%  -->
     <g transform="translate(442.643168 288.598453) scale(0.095 -0.095)">
      <defs>
       <path id="DejaVuSans-25" d="M 4653 2053 
Q 4381 2053 4226 1822 
Q 4072 1591 4072 1178 
Q 4072 772 4226 539 
Q 4381 306 4653 306 
Q 4919 306 5073 539 
Q 5228 772 5228 1178 
Q 5228 1588 5073 1820 
Q 4919 2053 4653 2053 
z
M 4653 2450 
Q 5147 2450 5437 2106 
Q 5728 1763 5728 1178 
Q 5728 594 5436 251 
Q 5144 -91 4653 -91 
Q 4153 -91 3862 251 
Q 3572 594 3572 1178 
Q 3572 1766 3864 2108 
Q 4156 2450 4653 2450 
z
M 1428 4353 
Q 1159 4353 1004 4120 
Q 850 3888 850 3481 
Q 850 3069 1003 2837 
Q 1156 2606 1428 2606 
Q 1700 2606 1854 2837 
Q 2009 3069 2009 3481 
Q 2009 3884 1853 4118 
Q 1697 4353 1428 4353 
z
M 4250 4750 
L 4750 4750 
L 1831 -91 
L 1331 -91 
L 4250 4750 
z
M 1428 4750 
Q 1922 4750 2215 4408 
Q 2509 4066 2509 3481 
Q 2509 2891 2217 2550 
Q 1925 2209 1428 2209 
Q 931 2209 642 2551 
Q 353 2894 353 3481 
Q 353 4063 643 4406 
Q 934 4750 1428 4750 
z
" transform="scale(0.015625)"/>
      </defs>
      <use xlink:href="#DejaVuSans-4d"/>
      <use xlink:href="#DejaVuSans-65" transform="translate(86.279297 0)"/>
      <use xlink:href="#DejaVuSans-61" transform="translate(147.802734 0)"/>
      <use xlink:href="#DejaVuSans-6e" transform="translate(209.082031 0)"/>
      <use xlink:href="#DejaVuSans-20" transform="translate(272.460938 0)"/>
      <use xlink:href="#DejaVuSans-39" transform="translate(304.248047 0)"/>
      <use xlink:href="#DejaVuSans-35" transform="translate(367.871094 0)"/>
      <use xlink:href="#DejaVuSans-25" transform="translate(431.494141 0)"/>
      <use xlink:href="#DejaVuSans-20" transform="translate(526.513672 0)"/>
     </g>
     <!-- Confidence  -->
     <g transform="translate(442.643168 299.236375) scale(0.095 -0.095)">
      <use xlink:href="#DejaVuSans-43"/>
      <use xlink:href="#DejaVuSans-6f" transform="translate(69.824219 0)"/>
      <use xlink:href="#DejaVuSans-6e" transform="translate(131.005859 0)"/>
      <use xlink:href="#DejaVuSans-66" transform="translate(194.384766 0)"/>
      <use xlink:href="#DejaVuSans-69" transform="translate(229.589844 0)"/>
      <use xlink:href="#DejaVuSans-64" transform="translate(257.373047 0)"/>
      <use xlink:href="#DejaVuSans-65" transform="translate(320.849609 0)"/>
      <use xlink:href="#DejaVuSans-6e" transform="translate(382.373047 0)"/>
      <use xlink:href="#DejaVuSans-63" transform="translate(445.751953 0)"/>
      <use xlink:href="#DejaVuSans-65" transform="translate(500.732422 0)"/>
      <use xlink:href="#DejaVuSans-20" transform="translate(562.255859 0)"/>
     </g>
     <!-- Interval -->
     <g transform="translate(442.643168 309.874297) scale(0.095 -0.095)">
      <defs>
       <path id="DejaVuSans-76" d="M 191 3500 
L 800 3500 
L 1894 563 
L 2988 3500 
L 3597 3500 
L 2284 0 
L 1503 0 
L 191 3500 
z
" transform="scale(0.015625)"/>
      </defs>
      <use xlink:href="#DejaVuSans-49"/>
      <use xlink:href="#DejaVuSans-6e" transform="translate(29.492188 0)"/>
      <use xlink:href="#DejaVuSans-74" transform="translate(92.871094 0)"/>
      <use xlink:href="#DejaVuSans-65" transform="translate(132.080078 0)"/>
      <use xlink:href="#DejaVuSans-72" transform="translate(193.603516 0)"/>
      <use xlink:href="#DejaVuSans-76" transform="translate(234.716797 0)"/>
      <use xlink:href="#DejaVuSans-61" transform="translate(293.896484 0)"/>
      <use xlink:href="#DejaVuSans-6c" transform="translate(355.175781 0)"/>
     </g>
    </g>
   </g>
  </g>
 </g>
 <defs>
  <clipPath id="p61acb50f70">
   <rect x="72" y="43.2" width="277.267081" height="277.2"/>
  </clipPath>
  <clipPath id="p4ddf146692">
   <rect x="407.493168" y="43.2" width="110.906832" height="277.2"/>
  </clipPath>
 </defs>
</svg>
