<?xml version="1.0" encoding="utf-8" standalone="no"?>
<!DOCTYPE svg PUBLIC "-//W3C//DTD SVG 1.1//EN"
  "http://www.w3.org/Graphics/SVG/1.1/DTD/svg11.dtd">
<svg xmlns:xlink="http://www.w3.org/1999/xlink" width="368.64pt" height="211.68pt" viewBox="0 0 368.64 211.68" xmlns="http://www.w3.org/2000/svg" version="1.1">
 <metadata>
  <rdf:RDF xmlns:dc="http://purl.org/dc/elements/1.1/" xmlns:cc="http://creativecommons.org/ns#" xmlns:rdf="http://www.w3.org/1999/02/22-rdf-syntax-ns#">
   <cc:Work>
    <dc:type rdf:resource="http://purl.org/dc/dcmitype/StillImage"/>
    <dc:date>2025-05-13T10:54:49.907316</dc:date>
    <dc:format>image/svg+xml</dc:format>
    <dc:creator>
     <cc:Agent>
      <dc:title>Matplotlib v3.10.0, https://matplotlib.org/</dc:title>
     </cc:Agent>
    </dc:creator>
   </cc:Work>
  </rdf:RDF>
 </metadata>
 <defs>
  <style type="text/css">*{stroke-linejoin: round; stroke-linecap: butt}</style>
 </defs>
 <g id="figure_1">
  <g id="patch_1">
   <path d="M 0 211.68 
L 368.64 211.68 
L 368.64 0 
L 0 0 
z
" style="fill: #ffffff"/>
  </g>
  <g id="axes_1">
   <g id="patch_2">
    <path d="M 62.6688 180.77472 
L 348.3648 180.77472 
L 348.3648 18.62784 
L 62.6688 18.62784 
z
" style="fill: #ffffff"/>
   </g>
   <g id="FillBetweenPolyCollection_1">
    <defs>
     <path id="m88e674acef" d="M 62.6688 -38.275593 
L 62.6688 -71.760702 
L 63.241337 -72.422787 
L 63.813874 -73.091971 
L 64.386411 -73.76816 
L 64.958948 -74.451255 
L 65.531485 -75.141152 
L 66.104022 -75.837741 
L 66.67656 -76.540906 
L 67.249097 -77.250526 
L 67.821634 -77.966475 
L 68.394171 -78.68862 
L 68.966708 -79.416822 
L 69.539245 -80.150939 
L 70.111782 -80.89082 
L 70.684319 -81.636311 
L 71.256856 -82.387251 
L 71.829393 -83.143474 
L 72.40193 -83.904807 
L 72.974467 -84.671074 
L 73.547004 -85.44209 
L 74.119541 -86.217669 
L 74.692079 -86.997614 
L 75.264616 -87.781728 
L 75.837153 -88.569804 
L 76.40969 -89.361633 
L 76.982227 -90.156998 
L 77.554764 -90.95568 
L 78.127301 -91.757452 
L 78.699838 -92.562083 
L 79.272375 -93.369338 
L 79.844912 -94.178974 
L 80.417449 -94.990748 
L 80.989986 -95.804407 
L 81.562523 -96.619698 
L 82.135061 -97.43636 
L 82.707598 -98.254131 
L 83.280135 -99.072741 
L 83.852672 -99.891919 
L 84.425209 -100.711388 
L 84.997746 -101.530869 
L 85.570283 -102.350077 
L 86.14282 -103.168726 
L 86.715357 -103.986524 
L 87.287894 -104.803178 
L 87.860431 -105.61839 
L 88.432968 -106.431862 
L 89.005505 -107.243289 
L 89.578042 -108.052367 
L 90.15058 -108.858789 
L 90.723117 -109.662243 
L 91.295654 -110.462419 
L 91.868191 -111.259003 
L 92.440728 -112.051678 
L 93.013265 -112.84013 
L 93.585802 -113.624039 
L 94.158339 -114.403087 
L 94.730876 -115.176954 
L 95.303413 -115.945319 
L 95.87595 -116.707862 
L 96.448487 -117.464262 
L 97.021024 -118.214199 
L 97.593562 -118.95735 
L 98.166099 -119.693398 
L 98.738636 -120.422021 
L 99.311173 -121.142903 
L 99.88371 -121.855725 
L 100.456247 -122.560172 
L 101.028784 -123.25593 
L 101.601321 -123.942687 
L 102.173858 -124.620133 
L 102.746395 -125.28796 
L 103.318932 -125.945863 
L 103.891469 -126.593539 
L 104.464006 -127.23069 
L 105.036543 -127.857019 
L 105.609081 -128.472233 
L 106.181618 -129.076045 
L 106.754155 -129.668169 
L 107.326692 -130.248324 
L 107.899229 -130.816235 
L 108.471766 -131.371629 
L 109.044303 -131.91424 
L 109.61684 -132.443805 
L 110.189377 -132.960069 
L 110.761914 -133.46278 
L 111.334451 -133.951693 
L 111.906988 -134.426568 
L 112.479525 -134.887172 
L 113.052063 -135.333277 
L 113.6246 -135.764663 
L 114.197137 -136.181115 
L 114.769674 -136.582426 
L 115.342211 -136.968395 
L 115.914748 -137.33883 
L 116.487285 -137.693544 
L 117.059822 -138.032358 
L 117.632359 -138.355102 
L 118.204896 -138.661612 
L 118.777433 -138.951733 
L 119.34997 -139.225317 
L 119.922507 -139.482226 
L 120.495044 -139.722328 
L 121.067582 -139.945501 
L 121.640119 -140.15163 
L 122.212656 -140.34061 
L 122.785193 -140.512345 
L 123.35773 -140.666745 
L 123.930267 -140.803732 
L 124.502804 -140.923235 
L 125.075341 -141.025193 
L 125.647878 -141.109553 
L 126.220415 -141.176271 
L 126.792952 -141.225313 
L 127.365489 -141.256654 
L 127.938026 -141.270278 
L 128.510564 -141.266177 
L 129.083101 -141.244354 
L 129.655638 -141.20482 
L 130.228175 -141.147596 
L 130.800712 -141.07271 
L 131.373249 -140.980202 
L 131.945786 -140.870119 
L 132.518323 -140.742518 
L 133.09086 -140.597464 
L 133.663397 -140.435033 
L 134.235934 -140.255307 
L 134.808471 -140.05838 
L 135.381008 -139.844351 
L 135.953545 -139.61333 
L 136.526083 -139.365436 
L 137.09862 -139.100794 
L 137.671157 -138.819541 
L 138.243694 -138.521818 
L 138.816231 -138.207777 
L 139.388768 -137.877576 
L 139.961305 -137.531384 
L 140.533842 -137.169373 
L 141.106379 -136.791727 
L 141.678916 -136.398634 
L 142.251453 -135.990292 
L 142.82399 -135.566904 
L 143.396527 -135.128681 
L 143.969065 -134.675839 
L 144.541602 -134.208603 
L 145.114139 -133.727204 
L 145.686676 -133.231876 
L 146.259213 -132.722863 
L 146.83175 -132.200413 
L 147.404287 -131.66478 
L 147.976824 -131.116221 
L 148.549361 -130.555002 
L 149.121898 -129.981392 
L 149.694435 -129.395664 
L 150.266972 -128.798097 
L 150.839509 -128.188974 
L 151.412046 -127.56858 
L 151.984584 -126.937208 
L 152.557121 -126.29515 
L 153.129658 -125.642704 
L 153.702195 -124.980172 
L 154.274732 -124.307856 
L 154.847269 -123.626064 
L 155.419806 -122.935103 
L 155.992343 -122.235286 
L 156.56488 -121.526924 
L 157.137417 -120.810334 
L 157.709954 -120.08583 
L 158.282491 -119.353732 
L 158.855028 -118.614358 
L 159.427566 -117.868027 
L 160.000103 -117.11506 
L 160.57264 -116.355778 
L 161.145177 -115.590501 
L 161.717714 -114.81955 
L 162.290251 -114.043246 
L 162.862788 -113.26191 
L 163.435325 -112.475859 
L 164.007862 -111.685413 
L 164.580399 -110.89089 
L 165.152936 -110.092605 
L 165.725473 -109.290874 
L 166.29801 -108.486008 
L 166.870547 -107.678319 
L 167.443085 -106.868116 
L 168.015622 -106.055705 
L 168.588159 -105.24139 
L 169.160696 -104.425473 
L 169.733233 -103.608253 
L 170.30577 -102.790025 
L 170.878307 -101.971082 
L 171.450844 -101.151712 
L 172.023381 -100.332201 
L 172.595918 -99.512832 
L 173.168455 -98.693883 
L 173.740992 -97.875628 
L 174.313529 -97.058337 
L 174.886067 -96.242277 
L 175.458604 -95.427709 
L 176.031141 -94.614891 
L 176.603678 -93.804075 
L 177.176215 -92.995511 
L 177.748752 -92.18944 
L 178.321289 -91.386103 
L 178.893826 -90.585732 
L 179.466363 -89.788557 
L 180.0389 -88.994801 
L 180.611437 -88.204682 
L 181.183974 -87.418413 
L 181.756511 -86.636203 
L 182.329048 -85.858254 
L 182.901586 -85.084763 
L 183.474123 -84.315921 
L 184.04666 -83.551914 
L 184.619197 -82.792924 
L 185.191734 -82.039124 
L 185.764271 -81.290685 
L 186.336808 -80.54777 
L 186.909345 -79.810537 
L 187.481882 -79.079139 
L 188.054419 -78.353722 
L 188.626956 -77.634428 
L 189.199493 -76.921391 
L 189.77203 -76.214742 
L 190.344568 -75.514605 
L 190.917105 -74.821098 
L 191.489642 -74.134335 
L 192.062179 -73.454423 
L 192.634716 -72.781463 
L 193.207253 -72.115553 
L 193.77979 -71.456782 
L 194.352327 -70.805237 
L 194.924864 -70.160998 
L 195.497401 -69.52414 
L 196.069938 -68.894732 
L 196.642475 -68.272838 
L 197.215012 -67.658518 
L 197.787549 -67.051826 
L 198.360087 -66.452812 
L 198.932624 -65.861518 
L 199.505161 -65.277985 
L 200.077698 -64.702248 
L 200.650235 -64.134335 
L 201.222772 -63.574273 
L 201.795309 -63.022082 
L 202.367846 -62.477777 
L 202.940383 -61.941372 
L 203.51292 -61.412873 
L 204.085457 -60.892283 
L 204.657994 -60.379603 
L 205.230531 -59.874826 
L 205.803069 -59.377945 
L 206.375606 -58.888946 
L 206.948143 -58.407814 
L 207.52068 -57.934528 
L 208.093217 -57.469065 
L 208.665754 -57.011398 
L 209.238291 -56.561497 
L 209.810828 -56.119328 
L 210.383365 -55.684855 
L 210.955902 -55.258038 
L 211.528439 -54.838834 
L 212.100976 -54.427198 
L 212.673513 -54.023082 
L 213.246051 -53.626435 
L 213.818588 -53.237203 
L 214.391125 -52.855331 
L 214.963662 -52.480761 
L 215.536199 -52.113433 
L 216.108736 -51.753283 
L 216.681273 -51.400248 
L 217.25381 -51.054261 
L 217.826347 -50.715253 
L 218.398884 -50.383155 
L 218.971421 -50.057896 
L 219.543958 -49.739401 
L 220.116495 -49.427596 
L 220.689032 -49.122405 
L 221.26157 -48.82375 
L 221.834107 -48.531554 
L 222.406644 -48.245735 
L 222.979181 -47.966214 
L 223.551718 -47.692909 
L 224.124255 -47.425737 
L 224.696792 -47.164615 
L 225.269329 -46.909458 
L 225.841866 -46.660183 
L 226.414403 -46.416703 
L 226.98694 -46.178933 
L 227.559477 -45.946788 
L 228.132014 -45.72018 
L 228.704552 -45.499023 
L 229.277089 -45.283229 
L 229.849626 -45.072713 
L 230.422163 -44.867386 
L 230.9947 -44.667161 
L 231.567237 -44.471952 
L 232.139774 -44.28167 
L 232.712311 -44.096231 
L 233.284848 -43.915546 
L 233.857385 -43.73953 
L 234.429922 -43.568096 
L 235.002459 -43.401158 
L 235.574996 -43.238632 
L 236.147533 -43.080433 
L 236.720071 -42.926475 
L 237.292608 -42.776676 
L 237.865145 -42.630953 
L 238.437682 -42.489222 
L 239.010219 -42.351401 
L 239.582756 -42.21741 
L 240.155293 -42.087168 
L 240.72783 -41.960595 
L 241.300367 -41.837612 
L 241.872904 -41.718141 
L 242.445441 -41.602105 
L 243.017978 -41.489426 
L 243.590515 -41.38003 
L 244.163053 -41.273842 
L 244.73559 -41.170788 
L 245.308127 -41.070794 
L 245.880664 -40.97379 
L 246.453201 -40.879704 
L 247.025738 -40.788466 
L 247.598275 -40.700008 
L 248.170812 -40.614261 
L 248.743349 -40.531159 
L 249.315886 -40.450635 
L 249.888423 -40.372625 
L 250.46096 -40.297064 
L 251.033497 -40.223892 
L 251.606034 -40.153044 
L 252.178572 -40.084462 
L 252.751109 -40.018085 
L 253.323646 -39.953855 
L 253.896183 -39.891714 
L 254.46872 -39.831606 
L 255.041257 -39.773477 
L 255.613794 -39.71727 
L 256.186331 -39.662934 
L 256.758868 -39.610416 
L 257.331405 -39.559665 
L 257.903942 -39.510631 
L 258.476479 -39.463265 
L 259.049016 -39.41752 
L 259.621554 -39.373347 
L 260.194091 -39.330701 
L 260.766628 -39.289538 
L 261.339165 -39.249813 
L 261.911702 -39.211483 
L 262.484239 -39.174506 
L 263.056776 -39.138842 
L 263.629313 -39.10445 
L 264.20185 -39.071291 
L 264.774387 -39.039328 
L 265.346924 -39.008522 
L 265.919461 -38.978838 
L 266.491998 -38.95024 
L 267.064535 -38.922693 
L 267.637073 -38.896164 
L 268.20961 -38.870621 
L 268.782147 -38.846031 
L 269.354684 -38.822363 
L 269.927221 -38.799586 
L 270.499758 -38.777673 
L 271.072295 -38.756592 
L 271.644832 -38.736318 
L 272.217369 -38.716822 
L 272.789906 -38.698078 
L 273.362443 -38.680061 
L 273.93498 -38.662746 
L 274.507517 -38.646108 
L 275.080055 -38.630125 
L 275.652592 -38.614772 
L 276.225129 -38.600028 
L 276.797666 -38.585872 
L 277.370203 -38.572283 
L 277.94274 -38.55924 
L 278.515277 -38.546723 
L 279.087814 -38.534714 
L 279.660351 -38.523195 
L 280.232888 -38.512147 
L 280.805425 -38.501553 
L 281.377962 -38.491396 
L 281.950499 -38.481661 
L 282.523036 -38.47233 
L 283.095574 -38.46339 
L 283.668111 -38.454825 
L 284.240648 -38.446622 
L 284.813185 -38.438766 
L 285.385722 -38.431244 
L 285.958259 -38.424043 
L 286.530796 -38.417151 
L 287.103333 -38.410555 
L 287.67587 -38.404245 
L 288.248407 -38.398209 
L 288.820944 -38.392436 
L 289.393481 -38.386915 
L 289.966018 -38.381637 
L 290.538556 -38.376592 
L 291.111093 -38.371771 
L 291.68363 -38.367163 
L 292.256167 -38.362762 
L 292.828704 -38.358558 
L 293.401241 -38.354543 
L 293.973778 -38.350709 
L 294.546315 -38.347049 
L 295.118852 -38.343556 
L 295.691389 -38.340222 
L 296.263926 -38.337042 
L 296.836463 -38.334008 
L 297.409 -38.331114 
L 297.981537 -38.328354 
L 298.554075 -38.325723 
L 299.126612 -38.323215 
L 299.699149 -38.320825 
L 300.271686 -38.318547 
L 300.844223 -38.316377 
L 301.41676 -38.31431 
L 301.989297 -38.312341 
L 302.561834 -38.310466 
L 303.134371 -38.308682 
L 303.706908 -38.306983 
L 304.279445 -38.305366 
L 304.851982 -38.303828 
L 305.424519 -38.302365 
L 305.997057 -38.300973 
L 306.569594 -38.299649 
L 307.142131 -38.298391 
L 307.714668 -38.297194 
L 308.287205 -38.296057 
L 308.859742 -38.294976 
L 309.432279 -38.29395 
L 310.004816 -38.292974 
L 310.577353 -38.292048 
L 311.14989 -38.291168 
L 311.722427 -38.290333 
L 312.294964 -38.28954 
L 312.867501 -38.288788 
L 313.440038 -38.288074 
L 314.012576 -38.287397 
L 314.585113 -38.286754 
L 315.15765 -38.286145 
L 315.730187 -38.285567 
L 316.302724 -38.285019 
L 316.875261 -38.2845 
L 317.447798 -38.284008 
L 318.020335 -38.283541 
L 318.592872 -38.2831 
L 319.165409 -38.282681 
L 319.737946 -38.282285 
L 320.310483 -38.28191 
L 320.88302 -38.281555 
L 321.455558 -38.281219 
L 322.028095 -38.2809 
L 322.600632 -38.280599 
L 323.173169 -38.280315 
L 323.745706 -38.280045 
L 324.318243 -38.279791 
L 324.89078 -38.27955 
L 325.463317 -38.279322 
L 326.035854 -38.279107 
L 326.608391 -38.278904 
L 327.180928 -38.278712 
L 327.753465 -38.27853 
L 328.326002 -38.278359 
L 328.898539 -38.278197 
L 329.471077 -38.278044 
L 330.043614 -38.2779 
L 330.616151 -38.277764 
L 331.188688 -38.277636 
L 331.761225 -38.277515 
L 332.333762 -38.2774 
L 332.906299 -38.277292 
L 333.478836 -38.277191 
L 334.051373 -38.277095 
L 334.62391 -38.277005 
L 335.196447 -38.27692 
L 335.768984 -38.276839 
L 336.341521 -38.276764 
L 336.914059 -38.276693 
L 337.486596 -38.276626 
L 338.059133 -38.276563 
L 338.63167 -38.276503 
L 339.204207 -38.276447 
L 339.776744 -38.276395 
L 340.349281 -38.276345 
L 340.921818 -38.276299 
L 341.494355 -38.276255 
L 342.066892 -38.276214 
L 342.639429 -38.276175 
L 343.211966 -38.276138 
L 343.784503 -38.276104 
L 344.35704 -38.276072 
L 344.929578 -38.276042 
L 345.502115 -38.276014 
L 346.074652 -38.275987 
L 346.647189 -38.275962 
L 347.219726 -38.275938 
L 347.792263 -38.275916 
L 348.3648 -38.275896 
L 348.3648 -38.275593 
L 348.3648 -38.275593 
L 347.792263 -38.275593 
L 347.219726 -38.275593 
L 346.647189 -38.275593 
L 346.074652 -38.275593 
L 345.502115 -38.275593 
L 344.929578 -38.275593 
L 344.35704 -38.275593 
L 343.784503 -38.275593 
L 343.211966 -38.275593 
L 342.639429 -38.275593 
L 342.066892 -38.275593 
L 341.494355 -38.275593 
L 340.921818 -38.275593 
L 340.349281 -38.275593 
L 339.776744 -38.275593 
L 339.204207 -38.275593 
L 338.63167 -38.275593 
L 338.059133 -38.275593 
L 337.486596 -38.275593 
L 336.914059 -38.275593 
L 336.341521 -38.275593 
L 335.768984 -38.275593 
L 335.196447 -38.275593 
L 334.62391 -38.275593 
L 334.051373 -38.275593 
L 333.478836 -38.275593 
L 332.906299 -38.275593 
L 332.333762 -38.275593 
L 331.761225 -38.275593 
L 331.188688 -38.275593 
L 330.616151 -38.275593 
L 330.043614 -38.275593 
L 329.471077 -38.275593 
L 328.898539 -38.275593 
L 328.326002 -38.275593 
L 327.753465 -38.275593 
L 327.180928 -38.275593 
L 326.608391 -38.275593 
L 326.035854 -38.275593 
L 325.463317 -38.275593 
L 324.89078 -38.275593 
L 324.318243 -38.275593 
L 323.745706 -38.275593 
L 323.173169 -38.275593 
L 322.600632 -38.275593 
L 322.028095 -38.275593 
L 321.455558 -38.275593 
L 320.88302 -38.275593 
L 320.310483 -38.275593 
L 319.737946 -38.275593 
L 319.165409 -38.275593 
L 318.592872 -38.275593 
L 318.020335 -38.275593 
L 317.447798 -38.275593 
L 316.875261 -38.275593 
L 316.302724 -38.275593 
L 315.730187 -38.275593 
L 315.15765 -38.275593 
L 314.585113 -38.275593 
L 314.012576 -38.275593 
L 313.440038 -38.275593 
L 312.867501 -38.275593 
L 312.294964 -38.275593 
L 311.722427 -38.275593 
L 311.14989 -38.275593 
L 310.577353 -38.275593 
L 310.004816 -38.275593 
L 309.432279 -38.275593 
L 308.859742 -38.275593 
L 308.287205 -38.275593 
L 307.714668 -38.275593 
L 307.142131 -38.275593 
L 306.569594 -38.275593 
L 305.997057 -38.275593 
L 305.424519 -38.275593 
L 304.851982 -38.275593 
L 304.279445 -38.275593 
L 303.706908 -38.275593 
L 303.134371 -38.275593 
L 302.561834 -38.275593 
L 301.989297 -38.275593 
L 301.41676 -38.275593 
L 300.844223 -38.275593 
L 300.271686 -38.275593 
L 299.699149 -38.275593 
L 299.126612 -38.275593 
L 298.554075 -38.275593 
L 297.981537 -38.275593 
L 297.409 -38.275593 
L 296.836463 -38.275593 
L 296.263926 -38.275593 
L 295.691389 -38.275593 
L 295.118852 -38.275593 
L 294.546315 -38.275593 
L 293.973778 -38.275593 
L 293.401241 -38.275593 
L 292.828704 -38.275593 
L 292.256167 -38.275593 
L 291.68363 -38.275593 
L 291.111093 -38.275593 
L 290.538556 -38.275593 
L 289.966018 -38.275593 
L 289.393481 -38.275593 
L 288.820944 -38.275593 
L 288.248407 -38.275593 
L 287.67587 -38.275593 
L 287.103333 -38.275593 
L 286.530796 -38.275593 
L 285.958259 -38.275593 
L 285.385722 -38.275593 
L 284.813185 -38.275593 
L 284.240648 -38.275593 
L 283.668111 -38.275593 
L 283.095574 -38.275593 
L 282.523036 -38.275593 
L 281.950499 -38.275593 
L 281.377962 -38.275593 
L 280.805425 -38.275593 
L 280.232888 -38.275593 
L 279.660351 -38.275593 
L 279.087814 -38.275593 
L 278.515277 -38.275593 
L 277.94274 -38.275593 
L 277.370203 -38.275593 
L 276.797666 -38.275593 
L 276.225129 -38.275593 
L 275.652592 -38.275593 
L 275.080055 -38.275593 
L 274.507517 -38.275593 
L 273.93498 -38.275593 
L 273.362443 -38.275593 
L 272.789906 -38.275593 
L 272.217369 -38.275593 
L 271.644832 -38.275593 
L 271.072295 -38.275593 
L 270.499758 -38.275593 
L 269.927221 -38.275593 
L 269.354684 -38.275593 
L 268.782147 -38.275593 
L 268.20961 -38.275593 
L 267.637073 -38.275593 
L 267.064535 -38.275593 
L 266.491998 -38.275593 
L 265.919461 -38.275593 
L 265.346924 -38.275593 
L 264.774387 -38.275593 
L 264.20185 -38.275593 
L 263.629313 -38.275593 
L 263.056776 -38.275593 
L 262.484239 -38.275593 
L 261.911702 -38.275593 
L 261.339165 -38.275593 
L 260.766628 -38.275593 
L 260.194091 -38.275593 
L 259.621554 -38.275593 
L 259.049016 -38.275593 
L 258.476479 -38.275593 
L 257.903942 -38.275593 
L 257.331405 -38.275593 
L 256.758868 -38.275593 
L 256.186331 -38.275593 
L 255.613794 -38.275593 
L 255.041257 -38.275593 
L 254.46872 -38.275593 
L 253.896183 -38.275593 
L 253.323646 -38.275593 
L 252.751109 -38.275593 
L 252.178572 -38.275593 
L 251.606034 -38.275593 
L 251.033497 -38.275593 
L 250.46096 -38.275593 
L 249.888423 -38.275593 
L 249.315886 -38.275593 
L 248.743349 -38.275593 
L 248.170812 -38.275593 
L 247.598275 -38.275593 
L 247.025738 -38.275593 
L 246.453201 -38.275593 
L 245.880664 -38.275593 
L 245.308127 -38.275593 
L 244.73559 -38.275593 
L 244.163053 -38.275593 
L 243.590515 -38.275593 
L 243.017978 -38.275593 
L 242.445441 -38.275593 
L 241.872904 -38.275593 
L 241.300367 -38.275593 
L 240.72783 -38.275593 
L 240.155293 -38.275593 
L 239.582756 -38.275593 
L 239.010219 -38.275593 
L 238.437682 -38.275593 
L 237.865145 -38.275593 
L 237.292608 -38.275593 
L 236.720071 -38.275593 
L 236.147533 -38.275593 
L 235.574996 -38.275593 
L 235.002459 -38.275593 
L 234.429922 -38.275593 
L 233.857385 -38.275593 
L 233.284848 -38.275593 
L 232.712311 -38.275593 
L 232.139774 -38.275593 
L 231.567237 -38.275593 
L 230.9947 -38.275593 
L 230.422163 -38.275593 
L 229.849626 -38.275593 
L 229.277089 -38.275593 
L 228.704552 -38.275593 
L 228.132014 -38.275593 
L 227.559477 -38.275593 
L 226.98694 -38.275593 
L 226.414403 -38.275593 
L 225.841866 -38.275593 
L 225.269329 -38.275593 
L 224.696792 -38.275593 
L 224.124255 -38.275593 
L 223.551718 -38.275593 
L 222.979181 -38.275593 
L 222.406644 -38.275593 
L 221.834107 -38.275593 
L 221.26157 -38.275593 
L 220.689032 -38.275593 
L 220.116495 -38.275593 
L 219.543958 -38.275593 
L 218.971421 -38.275593 
L 218.398884 -38.275593 
L 217.826347 -38.275593 
L 217.25381 -38.275593 
L 216.681273 -38.275593 
L 216.108736 -38.275593 
L 215.536199 -38.275593 
L 214.963662 -38.275593 
L 214.391125 -38.275593 
L 213.818588 -38.275593 
L 213.246051 -38.275593 
L 212.673513 -38.275593 
L 212.100976 -38.275593 
L 211.528439 -38.275593 
L 210.955902 -38.275593 
L 210.383365 -38.275593 
L 209.810828 -38.275593 
L 209.238291 -38.275593 
L 208.665754 -38.275593 
L 208.093217 -38.275593 
L 207.52068 -38.275593 
L 206.948143 -38.275593 
L 206.375606 -38.275593 
L 205.803069 -38.275593 
L 205.230531 -38.275593 
L 204.657994 -38.275593 
L 204.085457 -38.275593 
L 203.51292 -38.275593 
L 202.940383 -38.275593 
L 202.367846 -38.275593 
L 201.795309 -38.275593 
L 201.222772 -38.275593 
L 200.650235 -38.275593 
L 200.077698 -38.275593 
L 199.505161 -38.275593 
L 198.932624 -38.275593 
L 198.360087 -38.275593 
L 197.787549 -38.275593 
L 197.215012 -38.275593 
L 196.642475 -38.275593 
L 196.069938 -38.275593 
L 195.497401 -38.275593 
L 194.924864 -38.275593 
L 194.352327 -38.275593 
L 193.77979 -38.275593 
L 193.207253 -38.275593 
L 192.634716 -38.275593 
L 192.062179 -38.275593 
L 191.489642 -38.275593 
L 190.917105 -38.275593 
L 190.344568 -38.275593 
L 189.77203 -38.275593 
L 189.199493 -38.275593 
L 188.626956 -38.275593 
L 188.054419 -38.275593 
L 187.481882 -38.275593 
L 186.909345 -38.275593 
L 186.336808 -38.275593 
L 185.764271 -38.275593 
L 185.191734 -38.275593 
L 184.619197 -38.275593 
L 184.04666 -38.275593 
L 183.474123 -38.275593 
L 182.901586 -38.275593 
L 182.329048 -38.275593 
L 181.756511 -38.275593 
L 181.183974 -38.275593 
L 180.611437 -38.275593 
L 180.0389 -38.275593 
L 179.466363 -38.275593 
L 178.893826 -38.275593 
L 178.321289 -38.275593 
L 177.748752 -38.275593 
L 177.176215 -38.275593 
L 176.603678 -38.275593 
L 176.031141 -38.275593 
L 175.458604 -38.275593 
L 174.886067 -38.275593 
L 174.313529 -38.275593 
L 173.740992 -38.275593 
L 173.168455 -38.275593 
L 172.595918 -38.275593 
L 172.023381 -38.275593 
L 171.450844 -38.275593 
L 170.878307 -38.275593 
L 170.30577 -38.275593 
L 169.733233 -38.275593 
L 169.160696 -38.275593 
L 168.588159 -38.275593 
L 168.015622 -38.275593 
L 167.443085 -38.275593 
L 166.870547 -38.275593 
L 166.29801 -38.275593 
L 165.725473 -38.275593 
L 165.152936 -38.275593 
L 164.580399 -38.275593 
L 164.007862 -38.275593 
L 163.435325 -38.275593 
L 162.862788 -38.275593 
L 162.290251 -38.275593 
L 161.717714 -38.275593 
L 161.145177 -38.275593 
L 160.57264 -38.275593 
L 160.000103 -38.275593 
L 159.427566 -38.275593 
L 158.855028 -38.275593 
L 158.282491 -38.275593 
L 157.709954 -38.275593 
L 157.137417 -38.275593 
L 156.56488 -38.275593 
L 155.992343 -38.275593 
L 155.419806 -38.275593 
L 154.847269 -38.275593 
L 154.274732 -38.275593 
L 153.702195 -38.275593 
L 153.129658 -38.275593 
L 152.557121 -38.275593 
L 151.984584 -38.275593 
L 151.412046 -38.275593 
L 150.839509 -38.275593 
L 150.266972 -38.275593 
L 149.694435 -38.275593 
L 149.121898 -38.275593 
L 148.549361 -38.275593 
L 147.976824 -38.275593 
L 147.404287 -38.275593 
L 146.83175 -38.275593 
L 146.259213 -38.275593 
L 145.686676 -38.275593 
L 145.114139 -38.275593 
L 144.541602 -38.275593 
L 143.969065 -38.275593 
L 143.396527 -38.275593 
L 142.82399 -38.275593 
L 142.251453 -38.275593 
L 141.678916 -38.275593 
L 141.106379 -38.275593 
L 140.533842 -38.275593 
L 139.961305 -38.275593 
L 139.388768 -38.275593 
L 138.816231 -38.275593 
L 138.243694 -38.275593 
L 137.671157 -38.275593 
L 137.09862 -38.275593 
L 136.526083 -38.275593 
L 135.953545 -38.275593 
L 135.381008 -38.275593 
L 134.808471 -38.275593 
L 134.235934 -38.275593 
L 133.663397 -38.275593 
L 133.09086 -38.275593 
L 132.518323 -38.275593 
L 131.945786 -38.275593 
L 131.373249 -38.275593 
L 130.800712 -38.275593 
L 130.228175 -38.275593 
L 129.655638 -38.275593 
L 129.083101 -38.275593 
L 128.510564 -38.275593 
L 127.938026 -38.275593 
L 127.365489 -38.275593 
L 126.792952 -38.275593 
L 126.220415 -38.275593 
L 125.647878 -38.275593 
L 125.075341 -38.275593 
L 124.502804 -38.275593 
L 123.930267 -38.275593 
L 123.35773 -38.275593 
L 122.785193 -38.275593 
L 122.212656 -38.275593 
L 121.640119 -38.275593 
L 121.067582 -38.275593 
L 120.495044 -38.275593 
L 119.922507 -38.275593 
L 119.34997 -38.275593 
L 118.777433 -38.275593 
L 118.204896 -38.275593 
L 117.632359 -38.275593 
L 117.059822 -38.275593 
L 116.487285 -38.275593 
L 115.914748 -38.275593 
L 115.342211 -38.275593 
L 114.769674 -38.275593 
L 114.197137 -38.275593 
L 113.6246 -38.275593 
L 113.052063 -38.275593 
L 112.479525 -38.275593 
L 111.906988 -38.275593 
L 111.334451 -38.275593 
L 110.761914 -38.275593 
L 110.189377 -38.275593 
L 109.61684 -38.275593 
L 109.044303 -38.275593 
L 108.471766 -38.275593 
L 107.899229 -38.275593 
L 107.326692 -38.275593 
L 106.754155 -38.275593 
L 106.181618 -38.275593 
L 105.609081 -38.275593 
L 105.036543 -38.275593 
L 104.464006 -38.275593 
L 103.891469 -38.275593 
L 103.318932 -38.275593 
L 102.746395 -38.275593 
L 102.173858 -38.275593 
L 101.601321 -38.275593 
L 101.028784 -38.275593 
L 100.456247 -38.275593 
L 99.88371 -38.275593 
L 99.311173 -38.275593 
L 98.738636 -38.275593 
L 98.166099 -38.275593 
L 97.593562 -38.275593 
L 97.021024 -38.275593 
L 96.448487 -38.275593 
L 95.87595 -38.275593 
L 95.303413 -38.275593 
L 94.730876 -38.275593 
L 94.158339 -38.275593 
L 93.585802 -38.275593 
L 93.013265 -38.275593 
L 92.440728 -38.275593 
L 91.868191 -38.275593 
L 91.295654 -38.275593 
L 90.723117 -38.275593 
L 90.15058 -38.275593 
L 89.578042 -38.275593 
L 89.005505 -38.275593 
L 88.432968 -38.275593 
L 87.860431 -38.275593 
L 87.287894 -38.275593 
L 86.715357 -38.275593 
L 86.14282 -38.275593 
L 85.570283 -38.275593 
L 84.997746 -38.275593 
L 84.425209 -38.275593 
L 83.852672 -38.275593 
L 83.280135 -38.275593 
L 82.707598 -38.275593 
L 82.135061 -38.275593 
L 81.562523 -38.275593 
L 80.989986 -38.275593 
L 80.417449 -38.275593 
L 79.844912 -38.275593 
L 79.272375 -38.275593 
L 78.699838 -38.275593 
L 78.127301 -38.275593 
L 77.554764 -38.275593 
L 76.982227 -38.275593 
L 76.40969 -38.275593 
L 75.837153 -38.275593 
L 75.264616 -38.275593 
L 74.692079 -38.275593 
L 74.119541 -38.275593 
L 73.547004 -38.275593 
L 72.974467 -38.275593 
L 72.40193 -38.275593 
L 71.829393 -38.275593 
L 71.256856 -38.275593 
L 70.684319 -38.275593 
L 70.111782 -38.275593 
L 69.539245 -38.275593 
L 68.966708 -38.275593 
L 68.394171 -38.275593 
L 67.821634 -38.275593 
L 67.249097 -38.275593 
L 66.67656 -38.275593 
L 66.104022 -38.275593 
L 65.531485 -38.275593 
L 64.958948 -38.275593 
L 64.386411 -38.275593 
L 63.813874 -38.275593 
L 63.241337 -38.275593 
L 62.6688 -38.275593 
z
" style="stroke: #0000ff; stroke-opacity: 0.3"/>
    </defs>
    <g clip-path="url(#p09f7e996d6)">
     <use xlink:href="#m88e674acef" x="0" y="211.68" style="fill: #0000ff; fill-opacity: 0.3; stroke: #0000ff; stroke-opacity: 0.3"/>
    </g>
   </g>
   <g id="FillBetweenPolyCollection_2">
    <defs>
     <path id="m261fd0c136" d="M 62.6688 -38.275593 
L 62.6688 -49.718176 
L 63.241337 -49.871769 
L 63.813874 -50.026779 
L 64.386411 -50.183208 
L 64.958948 -50.341056 
L 65.531485 -50.500326 
L 66.104022 -50.661018 
L 66.67656 -50.823134 
L 67.249097 -50.986674 
L 67.821634 -51.151638 
L 68.394171 -51.318028 
L 68.966708 -51.485842 
L 69.539245 -51.655081 
L 70.111782 -51.825745 
L 70.684319 -51.997832 
L 71.256856 -52.171342 
L 71.829393 -52.346273 
L 72.40193 -52.522624 
L 72.974467 -52.700394 
L 73.547004 -52.87958 
L 74.119541 -53.060181 
L 74.692079 -53.242193 
L 75.264616 -53.425614 
L 75.837153 -53.610442 
L 76.40969 -53.796672 
L 76.982227 -53.984301 
L 77.554764 -54.173326 
L 78.127301 -54.363742 
L 78.699838 -54.555546 
L 79.272375 -54.748731 
L 79.844912 -54.943294 
L 80.417449 -55.13923 
L 80.989986 -55.336532 
L 81.562523 -55.535195 
L 82.135061 -55.735213 
L 82.707598 -55.936579 
L 83.280135 -56.139287 
L 83.852672 -56.343329 
L 84.425209 -56.5487 
L 84.997746 -56.75539 
L 85.570283 -56.963392 
L 86.14282 -57.172698 
L 86.715357 -57.383299 
L 87.287894 -57.595187 
L 87.860431 -57.808352 
L 88.432968 -58.022785 
L 89.005505 -58.238476 
L 89.578042 -58.455416 
L 90.15058 -58.673593 
L 90.723117 -58.892997 
L 91.295654 -59.113617 
L 91.868191 -59.335442 
L 92.440728 -59.55846 
L 93.013265 -59.782659 
L 93.585802 -60.008026 
L 94.158339 -60.23455 
L 94.730876 -60.462217 
L 95.303413 -60.691014 
L 95.87595 -60.920927 
L 96.448487 -61.151942 
L 97.021024 -61.384046 
L 97.593562 -61.617223 
L 98.166099 -61.851459 
L 98.738636 -62.086738 
L 99.311173 -62.323045 
L 99.88371 -62.560364 
L 100.456247 -62.798679 
L 101.028784 -63.037973 
L 101.601321 -63.27823 
L 102.173858 -63.519432 
L 102.746395 -63.761562 
L 103.318932 -64.004601 
L 103.891469 -64.248533 
L 104.464006 -64.493338 
L 105.036543 -64.738998 
L 105.609081 -64.985493 
L 106.181618 -65.232804 
L 106.754155 -65.480912 
L 107.326692 -65.729796 
L 107.899229 -65.979436 
L 108.471766 -66.229812 
L 109.044303 -66.480902 
L 109.61684 -66.732685 
L 110.189377 -66.98514 
L 110.761914 -67.238244 
L 111.334451 -67.491976 
L 111.906988 -67.746313 
L 112.479525 -68.001233 
L 113.052063 -68.256711 
L 113.6246 -68.512725 
L 114.197137 -68.769252 
L 114.769674 -69.026266 
L 115.342211 -69.283745 
L 115.914748 -69.541663 
L 116.487285 -69.799996 
L 117.059822 -70.058718 
L 117.632359 -70.317805 
L 118.204896 -70.57723 
L 118.777433 -70.836969 
L 119.34997 -71.096994 
L 119.922507 -71.35728 
L 120.495044 -71.617799 
L 121.067582 -71.878526 
L 121.640119 -72.139432 
L 122.212656 -72.400491 
L 122.785193 -72.661674 
L 123.35773 -72.922955 
L 123.930267 -73.184304 
L 124.502804 -73.445694 
L 125.075341 -73.707097 
L 125.647878 -73.968482 
L 126.220415 -74.229823 
L 126.792952 -74.491089 
L 127.365489 -74.75225 
L 127.938026 -75.013279 
L 128.510564 -75.274144 
L 129.083101 -75.534816 
L 129.655638 -75.795265 
L 130.228175 -76.055461 
L 130.800712 -76.315373 
L 131.373249 -76.57497 
L 131.945786 -76.834223 
L 132.518323 -77.093099 
L 133.09086 -77.351568 
L 133.663397 -77.609599 
L 134.235934 -77.867161 
L 134.808471 -78.124221 
L 135.381008 -78.380749 
L 135.953545 -78.636712 
L 136.526083 -78.89208 
L 137.09862 -79.146819 
L 137.671157 -79.400899 
L 138.243694 -79.654286 
L 138.816231 -79.906949 
L 139.388768 -80.158856 
L 139.961305 -80.409974 
L 140.533842 -80.660271 
L 141.106379 -80.909715 
L 141.678916 -81.158272 
L 142.251453 -81.405911 
L 142.82399 -81.652598 
L 143.396527 -81.898302 
L 143.969065 -82.142989 
L 144.541602 -82.386628 
L 145.114139 -82.629184 
L 145.686676 -82.870626 
L 146.259213 -83.110922 
L 146.83175 -83.350037 
L 147.404287 -83.587941 
L 147.976824 -83.824599 
L 148.549361 -84.059981 
L 149.121898 -84.294052 
L 149.694435 -84.526781 
L 150.266972 -84.758135 
L 150.839509 -84.988082 
L 151.412046 -85.21659 
L 151.984584 -85.443626 
L 152.557121 -85.669159 
L 153.129658 -85.893156 
L 153.702195 -86.115586 
L 154.274732 -86.336416 
L 154.847269 -86.555615 
L 155.419806 -86.773151 
L 155.992343 -86.988993 
L 156.56488 -87.20311 
L 157.137417 -87.415471 
L 157.709954 -87.626044 
L 158.282491 -87.834799 
L 158.855028 -88.041705 
L 159.427566 -88.246732 
L 160.000103 -88.449848 
L 160.57264 -88.651025 
L 161.145177 -88.850233 
L 161.717714 -89.04744 
L 162.290251 -89.242619 
L 162.862788 -89.43574 
L 163.435325 -89.626774 
L 164.007862 -89.815691 
L 164.580399 -90.002464 
L 165.152936 -90.187064 
L 165.725473 -90.369463 
L 166.29801 -90.549633 
L 166.870547 -90.727547 
L 167.443085 -90.903177 
L 168.015622 -91.076497 
L 168.588159 -91.24748 
L 169.160696 -91.416099 
L 169.733233 -91.582328 
L 170.30577 -91.746142 
L 170.878307 -91.907516 
L 171.450844 -92.066423 
L 172.023381 -92.22284 
L 172.595918 -92.376742 
L 173.168455 -92.528104 
L 173.740992 -92.676904 
L 174.313529 -92.823117 
L 174.886067 -92.966721 
L 175.458604 -93.107693 
L 176.031141 -93.24601 
L 176.603678 -93.381651 
L 177.176215 -93.514595 
L 177.748752 -93.64482 
L 178.321289 -93.772305 
L 178.893826 -93.89703 
L 179.466363 -94.018975 
L 180.0389 -94.138122 
L 180.611437 -94.254449 
L 181.183974 -94.36794 
L 181.756511 -94.478576 
L 182.329048 -94.586338 
L 182.901586 -94.69121 
L 183.474123 -94.793175 
L 184.04666 -94.892216 
L 184.619197 -94.988317 
L 185.191734 -95.081463 
L 185.764271 -95.171639 
L 186.336808 -95.258829 
L 186.909345 -95.343021 
L 187.481882 -95.424199 
L 188.054419 -95.502351 
L 188.626956 -95.577465 
L 189.199493 -95.649528 
L 189.77203 -95.718527 
L 190.344568 -95.784453 
L 190.917105 -95.847294 
L 191.489642 -95.90704 
L 192.062179 -95.963681 
L 192.634716 -96.017208 
L 193.207253 -96.067612 
L 193.77979 -96.114884 
L 194.352327 -96.159018 
L 194.924864 -96.200006 
L 195.497401 -96.237841 
L 196.069938 -96.272516 
L 196.642475 -96.304027 
L 197.215012 -96.332368 
L 197.787549 -96.357534 
L 198.360087 -96.379522 
L 198.932624 -96.398327 
L 199.505161 -96.413947 
L 200.077698 -96.426378 
L 200.650235 -96.435619 
L 201.222772 -96.441669 
L 201.795309 -96.444526 
L 202.367846 -96.44419 
L 202.940383 -96.440661 
L 203.51292 -96.43394 
L 204.085457 -96.424027 
L 204.657994 -96.410924 
L 205.230531 -96.394634 
L 205.803069 -96.375159 
L 206.375606 -96.352502 
L 206.948143 -96.326667 
L 207.52068 -96.297659 
L 208.093217 -96.265482 
L 208.665754 -96.230141 
L 209.238291 -96.191642 
L 209.810828 -96.149991 
L 210.383365 -96.105196 
L 210.955902 -96.057264 
L 211.528439 -96.006202 
L 212.100976 -95.952019 
L 212.673513 -95.894724 
L 213.246051 -95.834326 
L 213.818588 -95.770835 
L 214.391125 -95.704261 
L 214.963662 -95.634616 
L 215.536199 -95.56191 
L 216.108736 -95.486156 
L 216.681273 -95.407366 
L 217.25381 -95.325552 
L 217.826347 -95.240728 
L 218.398884 -95.152908 
L 218.971421 -95.062106 
L 219.543958 -94.968337 
L 220.116495 -94.871616 
L 220.689032 -94.771958 
L 221.26157 -94.66938 
L 221.834107 -94.563898 
L 222.406644 -94.45553 
L 222.979181 -94.344292 
L 223.551718 -94.230203 
L 224.124255 -94.11328 
L 224.696792 -93.993543 
L 225.269329 -93.871011 
L 225.841866 -93.745703 
L 226.414403 -93.61764 
L 226.98694 -93.486841 
L 227.559477 -93.353328 
L 228.132014 -93.217122 
L 228.704552 -93.078244 
L 229.277089 -92.936717 
L 229.849626 -92.792562 
L 230.422163 -92.645802 
L 230.9947 -92.496461 
L 231.567237 -92.344563 
L 232.139774 -92.190129 
L 232.712311 -92.033186 
L 233.284848 -91.873758 
L 233.857385 -91.711869 
L 234.429922 -91.547544 
L 235.002459 -91.38081 
L 235.574996 -91.211691 
L 236.147533 -91.040214 
L 236.720071 -90.866406 
L 237.292608 -90.690293 
L 237.865145 -90.511902 
L 238.437682 -90.33126 
L 239.010219 -90.148396 
L 239.582756 -89.963336 
L 240.155293 -89.77611 
L 240.72783 -89.586744 
L 241.300367 -89.395269 
L 241.872904 -89.201713 
L 242.445441 -89.006105 
L 243.017978 -88.808474 
L 243.590515 -88.608849 
L 244.163053 -88.407262 
L 244.73559 -88.20374 
L 245.308127 -87.998316 
L 245.880664 -87.791018 
L 246.453201 -87.581878 
L 247.025738 -87.370926 
L 247.598275 -87.158193 
L 248.170812 -86.943711 
L 248.743349 -86.727509 
L 249.315886 -86.50962 
L 249.888423 -86.290075 
L 250.46096 -86.068906 
L 251.033497 -85.846144 
L 251.606034 -85.621821 
L 252.178572 -85.395969 
L 252.751109 -85.168621 
L 253.323646 -84.939807 
L 253.896183 -84.709561 
L 254.46872 -84.477915 
L 255.041257 -84.244901 
L 255.613794 -84.010551 
L 256.186331 -83.774898 
L 256.758868 -83.537975 
L 257.331405 -83.299814 
L 257.903942 -83.060447 
L 258.476479 -82.819908 
L 259.049016 -82.578228 
L 259.621554 -82.335441 
L 260.194091 -82.09158 
L 260.766628 -81.846676 
L 261.339165 -81.600762 
L 261.911702 -81.353872 
L 262.484239 -81.106037 
L 263.056776 -80.857291 
L 263.629313 -80.607665 
L 264.20185 -80.357192 
L 264.774387 -80.105906 
L 265.346924 -79.853837 
L 265.919461 -79.601019 
L 266.491998 -79.347483 
L 267.064535 -79.093262 
L 267.637073 -78.838387 
L 268.20961 -78.582892 
L 268.782147 -78.326807 
L 269.354684 -78.070164 
L 269.927221 -77.812996 
L 270.499758 -77.555333 
L 271.072295 -77.297207 
L 271.644832 -77.03865 
L 272.217369 -76.779692 
L 272.789906 -76.520364 
L 273.362443 -76.260698 
L 273.93498 -76.000724 
L 274.507517 -75.740473 
L 275.080055 -75.479974 
L 275.652592 -75.219259 
L 276.225129 -74.958357 
L 276.797666 -74.697298 
L 277.370203 -74.436112 
L 277.94274 -74.174828 
L 278.515277 -73.913475 
L 279.087814 -73.652084 
L 279.660351 -73.390681 
L 280.232888 -73.129297 
L 280.805425 -72.86796 
L 281.377962 -72.606698 
L 281.950499 -72.345538 
L 282.523036 -72.084509 
L 283.095574 -71.823639 
L 283.668111 -71.562954 
L 284.240648 -71.302481 
L 284.813185 -71.042248 
L 285.385722 -70.782281 
L 285.958259 -70.522606 
L 286.530796 -70.26325 
L 287.103333 -70.004237 
L 287.67587 -69.745595 
L 288.248407 -69.487347 
L 288.820944 -69.22952 
L 289.393481 -68.972137 
L 289.966018 -68.715223 
L 290.538556 -68.458802 
L 291.111093 -68.202899 
L 291.68363 -67.947536 
L 292.256167 -67.692738 
L 292.828704 -67.438526 
L 293.401241 -67.184924 
L 293.973778 -66.931955 
L 294.546315 -66.67964 
L 295.118852 -66.428001 
L 295.691389 -66.177059 
L 296.263926 -65.926837 
L 296.836463 -65.677354 
L 297.409 -65.428631 
L 297.981537 -65.180689 
L 298.554075 -64.933548 
L 299.126612 -64.687227 
L 299.699149 -64.441746 
L 300.271686 -64.197123 
L 300.844223 -63.953378 
L 301.41676 -63.710528 
L 301.989297 -63.468592 
L 302.561834 -63.227587 
L 303.134371 -62.987532 
L 303.706908 -62.748442 
L 304.279445 -62.510336 
L 304.851982 -62.273228 
L 305.424519 -62.037136 
L 305.997057 -61.802075 
L 306.569594 -61.568061 
L 307.142131 -61.335109 
L 307.714668 -61.103233 
L 308.287205 -60.872448 
L 308.859742 -60.642769 
L 309.432279 -60.414209 
L 310.004816 -60.186781 
L 310.577353 -59.9605 
L 311.14989 -59.735377 
L 311.722427 -59.511426 
L 312.294964 -59.288658 
L 312.867501 -59.067086 
L 313.440038 -58.846721 
L 314.012576 -58.627574 
L 314.585113 -58.409656 
L 315.15765 -58.192979 
L 315.730187 -57.977552 
L 316.302724 -57.763385 
L 316.875261 -57.550488 
L 317.447798 -57.33887 
L 318.020335 -57.12854 
L 318.592872 -56.919508 
L 319.165409 -56.711781 
L 319.737946 -56.505368 
L 320.310483 -56.300277 
L 320.88302 -56.096515 
L 321.455558 -55.894088 
L 322.028095 -55.693005 
L 322.600632 -55.493272 
L 323.173169 -55.294895 
L 323.745706 -55.09788 
L 324.318243 -54.902233 
L 324.89078 -54.70796 
L 325.463317 -54.515065 
L 326.035854 -54.323553 
L 326.608391 -54.133429 
L 327.180928 -53.944698 
L 327.753465 -53.757362 
L 328.326002 -53.571427 
L 328.898539 -53.386895 
L 329.471077 -53.20377 
L 330.043614 -53.022055 
L 330.616151 -52.841752 
L 331.188688 -52.662864 
L 331.761225 -52.485392 
L 332.333762 -52.30934 
L 332.906299 -52.134708 
L 333.478836 -51.961497 
L 334.051373 -51.78971 
L 334.62391 -51.619346 
L 335.196447 -51.450406 
L 335.768984 -51.282892 
L 336.341521 -51.116802 
L 336.914059 -50.952138 
L 337.486596 -50.788898 
L 338.059133 -50.627081 
L 338.63167 -50.466689 
L 339.204207 -50.307718 
L 339.776744 -50.150169 
L 340.349281 -49.994039 
L 340.921818 -49.839327 
L 341.494355 -49.686032 
L 342.066892 -49.53415 
L 342.639429 -49.383681 
L 343.211966 -49.234621 
L 343.784503 -49.086967 
L 344.35704 -48.940718 
L 344.929578 -48.795869 
L 345.502115 -48.652418 
L 346.074652 -48.510361 
L 346.647189 -48.369695 
L 347.219726 -48.230415 
L 347.792263 -48.092519 
L 348.3648 -47.956001 
L 348.3648 -38.275593 
L 348.3648 -38.275593 
L 347.792263 -38.275593 
L 347.219726 -38.275593 
L 346.647189 -38.275593 
L 346.074652 -38.275593 
L 345.502115 -38.275593 
L 344.929578 -38.275593 
L 344.35704 -38.275593 
L 343.784503 -38.275593 
L 343.211966 -38.275593 
L 342.639429 -38.275593 
L 342.066892 -38.275593 
L 341.494355 -38.275593 
L 340.921818 -38.275593 
L 340.349281 -38.275593 
L 339.776744 -38.275593 
L 339.204207 -38.275593 
L 338.63167 -38.275593 
L 338.059133 -38.275593 
L 337.486596 -38.275593 
L 336.914059 -38.275593 
L 336.341521 -38.275593 
L 335.768984 -38.275593 
L 335.196447 -38.275593 
L 334.62391 -38.275593 
L 334.051373 -38.275593 
L 333.478836 -38.275593 
L 332.906299 -38.275593 
L 332.333762 -38.275593 
L 331.761225 -38.275593 
L 331.188688 -38.275593 
L 330.616151 -38.275593 
L 330.043614 -38.275593 
L 329.471077 -38.275593 
L 328.898539 -38.275593 
L 328.326002 -38.275593 
L 327.753465 -38.275593 
L 327.180928 -38.275593 
L 326.608391 -38.275593 
L 326.035854 -38.275593 
L 325.463317 -38.275593 
L 324.89078 -38.275593 
L 324.318243 -38.275593 
L 323.745706 -38.275593 
L 323.173169 -38.275593 
L 322.600632 -38.275593 
L 322.028095 -38.275593 
L 321.455558 -38.275593 
L 320.88302 -38.275593 
L 320.310483 -38.275593 
L 319.737946 -38.275593 
L 319.165409 -38.275593 
L 318.592872 -38.275593 
L 318.020335 -38.275593 
L 317.447798 -38.275593 
L 316.875261 -38.275593 
L 316.302724 -38.275593 
L 315.730187 -38.275593 
L 315.15765 -38.275593 
L 314.585113 -38.275593 
L 314.012576 -38.275593 
L 313.440038 -38.275593 
L 312.867501 -38.275593 
L 312.294964 -38.275593 
L 311.722427 -38.275593 
L 311.14989 -38.275593 
L 310.577353 -38.275593 
L 310.004816 -38.275593 
L 309.432279 -38.275593 
L 308.859742 -38.275593 
L 308.287205 -38.275593 
L 307.714668 -38.275593 
L 307.142131 -38.275593 
L 306.569594 -38.275593 
L 305.997057 -38.275593 
L 305.424519 -38.275593 
L 304.851982 -38.275593 
L 304.279445 -38.275593 
L 303.706908 -38.275593 
L 303.134371 -38.275593 
L 302.561834 -38.275593 
L 301.989297 -38.275593 
L 301.41676 -38.275593 
L 300.844223 -38.275593 
L 300.271686 -38.275593 
L 299.699149 -38.275593 
L 299.126612 -38.275593 
L 298.554075 -38.275593 
L 297.981537 -38.275593 
L 297.409 -38.275593 
L 296.836463 -38.275593 
L 296.263926 -38.275593 
L 295.691389 -38.275593 
L 295.118852 -38.275593 
L 294.546315 -38.275593 
L 293.973778 -38.275593 
L 293.401241 -38.275593 
L 292.828704 -38.275593 
L 292.256167 -38.275593 
L 291.68363 -38.275593 
L 291.111093 -38.275593 
L 290.538556 -38.275593 
L 289.966018 -38.275593 
L 289.393481 -38.275593 
L 288.820944 -38.275593 
L 288.248407 -38.275593 
L 287.67587 -38.275593 
L 287.103333 -38.275593 
L 286.530796 -38.275593 
L 285.958259 -38.275593 
L 285.385722 -38.275593 
L 284.813185 -38.275593 
L 284.240648 -38.275593 
L 283.668111 -38.275593 
L 283.095574 -38.275593 
L 282.523036 -38.275593 
L 281.950499 -38.275593 
L 281.377962 -38.275593 
L 280.805425 -38.275593 
L 280.232888 -38.275593 
L 279.660351 -38.275593 
L 279.087814 -38.275593 
L 278.515277 -38.275593 
L 277.94274 -38.275593 
L 277.370203 -38.275593 
L 276.797666 -38.275593 
L 276.225129 -38.275593 
L 275.652592 -38.275593 
L 275.080055 -38.275593 
L 274.507517 -38.275593 
L 273.93498 -38.275593 
L 273.362443 -38.275593 
L 272.789906 -38.275593 
L 272.217369 -38.275593 
L 271.644832 -38.275593 
L 271.072295 -38.275593 
L 270.499758 -38.275593 
L 269.927221 -38.275593 
L 269.354684 -38.275593 
L 268.782147 -38.275593 
L 268.20961 -38.275593 
L 267.637073 -38.275593 
L 267.064535 -38.275593 
L 266.491998 -38.275593 
L 265.919461 -38.275593 
L 265.346924 -38.275593 
L 264.774387 -38.275593 
L 264.20185 -38.275593 
L 263.629313 -38.275593 
L 263.056776 -38.275593 
L 262.484239 -38.275593 
L 261.911702 -38.275593 
L 261.339165 -38.275593 
L 260.766628 -38.275593 
L 260.194091 -38.275593 
L 259.621554 -38.275593 
L 259.049016 -38.275593 
L 258.476479 -38.275593 
L 257.903942 -38.275593 
L 257.331405 -38.275593 
L 256.758868 -38.275593 
L 256.186331 -38.275593 
L 255.613794 -38.275593 
L 255.041257 -38.275593 
L 254.46872 -38.275593 
L 253.896183 -38.275593 
L 253.323646 -38.275593 
L 252.751109 -38.275593 
L 252.178572 -38.275593 
L 251.606034 -38.275593 
L 251.033497 -38.275593 
L 250.46096 -38.275593 
L 249.888423 -38.275593 
L 249.315886 -38.275593 
L 248.743349 -38.275593 
L 248.170812 -38.275593 
L 247.598275 -38.275593 
L 247.025738 -38.275593 
L 246.453201 -38.275593 
L 245.880664 -38.275593 
L 245.308127 -38.275593 
L 244.73559 -38.275593 
L 244.163053 -38.275593 
L 243.590515 -38.275593 
L 243.017978 -38.275593 
L 242.445441 -38.275593 
L 241.872904 -38.275593 
L 241.300367 -38.275593 
L 240.72783 -38.275593 
L 240.155293 -38.275593 
L 239.582756 -38.275593 
L 239.010219 -38.275593 
L 238.437682 -38.275593 
L 237.865145 -38.275593 
L 237.292608 -38.275593 
L 236.720071 -38.275593 
L 236.147533 -38.275593 
L 235.574996 -38.275593 
L 235.002459 -38.275593 
L 234.429922 -38.275593 
L 233.857385 -38.275593 
L 233.284848 -38.275593 
L 232.712311 -38.275593 
L 232.139774 -38.275593 
L 231.567237 -38.275593 
L 230.9947 -38.275593 
L 230.422163 -38.275593 
L 229.849626 -38.275593 
L 229.277089 -38.275593 
L 228.704552 -38.275593 
L 228.132014 -38.275593 
L 227.559477 -38.275593 
L 226.98694 -38.275593 
L 226.414403 -38.275593 
L 225.841866 -38.275593 
L 225.269329 -38.275593 
L 224.696792 -38.275593 
L 224.124255 -38.275593 
L 223.551718 -38.275593 
L 222.979181 -38.275593 
L 222.406644 -38.275593 
L 221.834107 -38.275593 
L 221.26157 -38.275593 
L 220.689032 -38.275593 
L 220.116495 -38.275593 
L 219.543958 -38.275593 
L 218.971421 -38.275593 
L 218.398884 -38.275593 
L 217.826347 -38.275593 
L 217.25381 -38.275593 
L 216.681273 -38.275593 
L 216.108736 -38.275593 
L 215.536199 -38.275593 
L 214.963662 -38.275593 
L 214.391125 -38.275593 
L 213.818588 -38.275593 
L 213.246051 -38.275593 
L 212.673513 -38.275593 
L 212.100976 -38.275593 
L 211.528439 -38.275593 
L 210.955902 -38.275593 
L 210.383365 -38.275593 
L 209.810828 -38.275593 
L 209.238291 -38.275593 
L 208.665754 -38.275593 
L 208.093217 -38.275593 
L 207.52068 -38.275593 
L 206.948143 -38.275593 
L 206.375606 -38.275593 
L 205.803069 -38.275593 
L 205.230531 -38.275593 
L 204.657994 -38.275593 
L 204.085457 -38.275593 
L 203.51292 -38.275593 
L 202.940383 -38.275593 
L 202.367846 -38.275593 
L 201.795309 -38.275593 
L 201.222772 -38.275593 
L 200.650235 -38.275593 
L 200.077698 -38.275593 
L 199.505161 -38.275593 
L 198.932624 -38.275593 
L 198.360087 -38.275593 
L 197.787549 -38.275593 
L 197.215012 -38.275593 
L 196.642475 -38.275593 
L 196.069938 -38.275593 
L 195.497401 -38.275593 
L 194.924864 -38.275593 
L 194.352327 -38.275593 
L 193.77979 -38.275593 
L 193.207253 -38.275593 
L 192.634716 -38.275593 
L 192.062179 -38.275593 
L 191.489642 -38.275593 
L 190.917105 -38.275593 
L 190.344568 -38.275593 
L 189.77203 -38.275593 
L 189.199493 -38.275593 
L 188.626956 -38.275593 
L 188.054419 -38.275593 
L 187.481882 -38.275593 
L 186.909345 -38.275593 
L 186.336808 -38.275593 
L 185.764271 -38.275593 
L 185.191734 -38.275593 
L 184.619197 -38.275593 
L 184.04666 -38.275593 
L 183.474123 -38.275593 
L 182.901586 -38.275593 
L 182.329048 -38.275593 
L 181.756511 -38.275593 
L 181.183974 -38.275593 
L 180.611437 -38.275593 
L 180.0389 -38.275593 
L 179.466363 -38.275593 
L 178.893826 -38.275593 
L 178.321289 -38.275593 
L 177.748752 -38.275593 
L 177.176215 -38.275593 
L 176.603678 -38.275593 
L 176.031141 -38.275593 
L 175.458604 -38.275593 
L 174.886067 -38.275593 
L 174.313529 -38.275593 
L 173.740992 -38.275593 
L 173.168455 -38.275593 
L 172.595918 -38.275593 
L 172.023381 -38.275593 
L 171.450844 -38.275593 
L 170.878307 -38.275593 
L 170.30577 -38.275593 
L 169.733233 -38.275593 
L 169.160696 -38.275593 
L 168.588159 -38.275593 
L 168.015622 -38.275593 
L 167.443085 -38.275593 
L 166.870547 -38.275593 
L 166.29801 -38.275593 
L 165.725473 -38.275593 
L 165.152936 -38.275593 
L 164.580399 -38.275593 
L 164.007862 -38.275593 
L 163.435325 -38.275593 
L 162.862788 -38.275593 
L 162.290251 -38.275593 
L 161.717714 -38.275593 
L 161.145177 -38.275593 
L 160.57264 -38.275593 
L 160.000103 -38.275593 
L 159.427566 -38.275593 
L 158.855028 -38.275593 
L 158.282491 -38.275593 
L 157.709954 -38.275593 
L 157.137417 -38.275593 
L 156.56488 -38.275593 
L 155.992343 -38.275593 
L 155.419806 -38.275593 
L 154.847269 -38.275593 
L 154.274732 -38.275593 
L 153.702195 -38.275593 
L 153.129658 -38.275593 
L 152.557121 -38.275593 
L 151.984584 -38.275593 
L 151.412046 -38.275593 
L 150.839509 -38.275593 
L 150.266972 -38.275593 
L 149.694435 -38.275593 
L 149.121898 -38.275593 
L 148.549361 -38.275593 
L 147.976824 -38.275593 
L 147.404287 -38.275593 
L 146.83175 -38.275593 
L 146.259213 -38.275593 
L 145.686676 -38.275593 
L 145.114139 -38.275593 
L 144.541602 -38.275593 
L 143.969065 -38.275593 
L 143.396527 -38.275593 
L 142.82399 -38.275593 
L 142.251453 -38.275593 
L 141.678916 -38.275593 
L 141.106379 -38.275593 
L 140.533842 -38.275593 
L 139.961305 -38.275593 
L 139.388768 -38.275593 
L 138.816231 -38.275593 
L 138.243694 -38.275593 
L 137.671157 -38.275593 
L 137.09862 -38.275593 
L 136.526083 -38.275593 
L 135.953545 -38.275593 
L 135.381008 -38.275593 
L 134.808471 -38.275593 
L 134.235934 -38.275593 
L 133.663397 -38.275593 
L 133.09086 -38.275593 
L 132.518323 -38.275593 
L 131.945786 -38.275593 
L 131.373249 -38.275593 
L 130.800712 -38.275593 
L 130.228175 -38.275593 
L 129.655638 -38.275593 
L 129.083101 -38.275593 
L 128.510564 -38.275593 
L 127.938026 -38.275593 
L 127.365489 -38.275593 
L 126.792952 -38.275593 
L 126.220415 -38.275593 
L 125.647878 -38.275593 
L 125.075341 -38.275593 
L 124.502804 -38.275593 
L 123.930267 -38.275593 
L 123.35773 -38.275593 
L 122.785193 -38.275593 
L 122.212656 -38.275593 
L 121.640119 -38.275593 
L 121.067582 -38.275593 
L 120.495044 -38.275593 
L 119.922507 -38.275593 
L 119.34997 -38.275593 
L 118.777433 -38.275593 
L 118.204896 -38.275593 
L 117.632359 -38.275593 
L 117.059822 -38.275593 
L 116.487285 -38.275593 
L 115.914748 -38.275593 
L 115.342211 -38.275593 
L 114.769674 -38.275593 
L 114.197137 -38.275593 
L 113.6246 -38.275593 
L 113.052063 -38.275593 
L 112.479525 -38.275593 
L 111.906988 -38.275593 
L 111.334451 -38.275593 
L 110.761914 -38.275593 
L 110.189377 -38.275593 
L 109.61684 -38.275593 
L 109.044303 -38.275593 
L 108.471766 -38.275593 
L 107.899229 -38.275593 
L 107.326692 -38.275593 
L 106.754155 -38.275593 
L 106.181618 -38.275593 
L 105.609081 -38.275593 
L 105.036543 -38.275593 
L 104.464006 -38.275593 
L 103.891469 -38.275593 
L 103.318932 -38.275593 
L 102.746395 -38.275593 
L 102.173858 -38.275593 
L 101.601321 -38.275593 
L 101.028784 -38.275593 
L 100.456247 -38.275593 
L 99.88371 -38.275593 
L 99.311173 -38.275593 
L 98.738636 -38.275593 
L 98.166099 -38.275593 
L 97.593562 -38.275593 
L 97.021024 -38.275593 
L 96.448487 -38.275593 
L 95.87595 -38.275593 
L 95.303413 -38.275593 
L 94.730876 -38.275593 
L 94.158339 -38.275593 
L 93.585802 -38.275593 
L 93.013265 -38.275593 
L 92.440728 -38.275593 
L 91.868191 -38.275593 
L 91.295654 -38.275593 
L 90.723117 -38.275593 
L 90.15058 -38.275593 
L 89.578042 -38.275593 
L 89.005505 -38.275593 
L 88.432968 -38.275593 
L 87.860431 -38.275593 
L 87.287894 -38.275593 
L 86.715357 -38.275593 
L 86.14282 -38.275593 
L 85.570283 -38.275593 
L 84.997746 -38.275593 
L 84.425209 -38.275593 
L 83.852672 -38.275593 
L 83.280135 -38.275593 
L 82.707598 -38.275593 
L 82.135061 -38.275593 
L 81.562523 -38.275593 
L 80.989986 -38.275593 
L 80.417449 -38.275593 
L 79.844912 -38.275593 
L 79.272375 -38.275593 
L 78.699838 -38.275593 
L 78.127301 -38.275593 
L 77.554764 -38.275593 
L 76.982227 -38.275593 
L 76.40969 -38.275593 
L 75.837153 -38.275593 
L 75.264616 -38.275593 
L 74.692079 -38.275593 
L 74.119541 -38.275593 
L 73.547004 -38.275593 
L 72.974467 -38.275593 
L 72.40193 -38.275593 
L 71.829393 -38.275593 
L 71.256856 -38.275593 
L 70.684319 -38.275593 
L 70.111782 -38.275593 
L 69.539245 -38.275593 
L 68.966708 -38.275593 
L 68.394171 -38.275593 
L 67.821634 -38.275593 
L 67.249097 -38.275593 
L 66.67656 -38.275593 
L 66.104022 -38.275593 
L 65.531485 -38.275593 
L 64.958948 -38.275593 
L 64.386411 -38.275593 
L 63.813874 -38.275593 
L 63.241337 -38.275593 
L 62.6688 -38.275593 
z
" style="stroke: #ff0000; stroke-opacity: 0.3"/>
    </defs>
    <g clip-path="url(#p09f7e996d6)">
     <use xlink:href="#m261fd0c136" x="0" y="211.68" style="fill: #ff0000; fill-opacity: 0.3; stroke: #ff0000; stroke-opacity: 0.3"/>
    </g>
   </g>
   <g id="matplotlib.axis_1">
    <g id="xtick_1">
     <g id="line2d_1">
      <defs>
       <path id="m6cded83f61" d="M 0 0 
L 0 3.5 
" style="stroke: #000000; stroke-width: 0.8"/>
      </defs>
      <g>
       <use xlink:href="#m6cded83f61" x="62.6688" y="180.77472" style="stroke: #000000; stroke-width: 0.8"/>
      </g>
     </g>
     <g id="text_1">
      <!-- 0 -->
      <g transform="translate(59.48755 195.373157) scale(0.1 -0.1)">
       <defs>
        <path id="DejaVuSans-30" d="M 2034 4250 
Q 1547 4250 1301 3770 
Q 1056 3291 1056 2328 
Q 1056 1369 1301 889 
Q 1547 409 2034 409 
Q 2525 409 2770 889 
Q 3016 1369 3016 2328 
Q 3016 3291 2770 3770 
Q 2525 4250 2034 4250 
z
M 2034 4750 
Q 2819 4750 3233 4129 
Q 3647 3509 3647 2328 
Q 3647 1150 3233 529 
Q 2819 -91 2034 -91 
Q 1250 -91 836 529 
Q 422 1150 422 2328 
Q 422 3509 836 4129 
Q 1250 4750 2034 4750 
z
" transform="scale(0.015625)"/>
       </defs>
       <use xlink:href="#DejaVuSans-30"/>
      </g>
     </g>
    </g>
    <g id="xtick_2">
     <g id="line2d_2">
      <g>
       <use xlink:href="#m6cded83f61" x="98.3808" y="180.77472" style="stroke: #000000; stroke-width: 0.8"/>
      </g>
     </g>
     <g id="text_2">
      <!-- 250 -->
      <g transform="translate(88.83705 195.373157) scale(0.1 -0.1)">
       <defs>
        <path id="DejaVuSans-32" d="M 1228 531 
L 3431 531 
L 3431 0 
L 469 0 
L 469 531 
Q 828 903 1448 1529 
Q 2069 2156 2228 2338 
Q 2531 2678 2651 2914 
Q 2772 3150 2772 3378 
Q 2772 3750 2511 3984 
Q 2250 4219 1831 4219 
Q 1534 4219 1204 4116 
Q 875 4013 500 3803 
L 500 4441 
Q 881 4594 1212 4672 
Q 1544 4750 1819 4750 
Q 2544 4750 2975 4387 
Q 3406 4025 3406 3419 
Q 3406 3131 3298 2873 
Q 3191 2616 2906 2266 
Q 2828 2175 2409 1742 
Q 1991 1309 1228 531 
z
" transform="scale(0.015625)"/>
        <path id="DejaVuSans-35" d="M 691 4666 
L 3169 4666 
L 3169 4134 
L 1269 4134 
L 1269 2991 
Q 1406 3038 1543 3061 
Q 1681 3084 1819 3084 
Q 2600 3084 3056 2656 
Q 3513 2228 3513 1497 
Q 3513 744 3044 326 
Q 2575 -91 1722 -91 
Q 1428 -91 1123 -41 
Q 819 9 494 109 
L 494 744 
Q 775 591 1075 516 
Q 1375 441 1709 441 
Q 2250 441 2565 725 
Q 2881 1009 2881 1497 
Q 2881 1984 2565 2268 
Q 2250 2553 1709 2553 
Q 1456 2553 1204 2497 
Q 953 2441 691 2322 
L 691 4666 
z
" transform="scale(0.015625)"/>
       </defs>
       <use xlink:href="#DejaVuSans-32"/>
       <use xlink:href="#DejaVuSans-35" transform="translate(63.623047 0)"/>
       <use xlink:href="#DejaVuSans-30" transform="translate(127.246094 0)"/>
      </g>
     </g>
    </g>
    <g id="xtick_3">
     <g id="line2d_3">
      <g>
       <use xlink:href="#m6cded83f61" x="134.0928" y="180.77472" style="stroke: #000000; stroke-width: 0.8"/>
      </g>
     </g>
     <g id="text_3">
      <!-- 500 -->
      <g transform="translate(124.54905 195.373157) scale(0.1 -0.1)">
       <use xlink:href="#DejaVuSans-35"/>
       <use xlink:href="#DejaVuSans-30" transform="translate(63.623047 0)"/>
       <use xlink:href="#DejaVuSans-30" transform="translate(127.246094 0)"/>
      </g>
     </g>
    </g>
    <g id="xtick_4">
     <g id="line2d_4">
      <g>
       <use xlink:href="#m6cded83f61" x="169.8048" y="180.77472" style="stroke: #000000; stroke-width: 0.8"/>
      </g>
     </g>
     <g id="text_4">
      <!-- 750 -->
      <g transform="translate(160.26105 195.373157) scale(0.1 -0.1)">
       <defs>
        <path id="DejaVuSans-37" d="M 525 4666 
L 3525 4666 
L 3525 4397 
L 1831 0 
L 1172 0 
L 2766 4134 
L 525 4134 
L 525 4666 
z
" transform="scale(0.015625)"/>
       </defs>
       <use xlink:href="#DejaVuSans-37"/>
       <use xlink:href="#DejaVuSans-35" transform="translate(63.623047 0)"/>
       <use xlink:href="#DejaVuSans-30" transform="translate(127.246094 0)"/>
      </g>
     </g>
    </g>
    <g id="xtick_5">
     <g id="line2d_5">
      <g>
       <use xlink:href="#m6cded83f61" x="205.5168" y="180.77472" style="stroke: #000000; stroke-width: 0.8"/>
      </g>
     </g>
     <g id="text_5">
      <!-- 1000 -->
      <g transform="translate(192.7918 195.373157) scale(0.1 -0.1)">
       <defs>
        <path id="DejaVuSans-31" d="M 794 531 
L 1825 531 
L 1825 4091 
L 703 3866 
L 703 4441 
L 1819 4666 
L 2450 4666 
L 2450 531 
L 3481 531 
L 3481 0 
L 794 0 
L 794 531 
z
" transform="scale(0.015625)"/>
       </defs>
       <use xlink:href="#DejaVuSans-31"/>
       <use xlink:href="#DejaVuSans-30" transform="translate(63.623047 0)"/>
       <use xlink:href="#DejaVuSans-30" transform="translate(127.246094 0)"/>
       <use xlink:href="#DejaVuSans-30" transform="translate(190.869141 0)"/>
      </g>
     </g>
    </g>
    <g id="xtick_6">
     <g id="line2d_6">
      <g>
       <use xlink:href="#m6cded83f61" x="241.2288" y="180.77472" style="stroke: #000000; stroke-width: 0.8"/>
      </g>
     </g>
     <g id="text_6">
      <!-- 1250 -->
      <g transform="translate(228.5038 195.373157) scale(0.1 -0.1)">
       <use xlink:href="#DejaVuSans-31"/>
       <use xlink:href="#DejaVuSans-32" transform="translate(63.623047 0)"/>
       <use xlink:href="#DejaVuSans-35" transform="translate(127.246094 0)"/>
       <use xlink:href="#DejaVuSans-30" transform="translate(190.869141 0)"/>
      </g>
     </g>
    </g>
    <g id="xtick_7">
     <g id="line2d_7">
      <g>
       <use xlink:href="#m6cded83f61" x="276.9408" y="180.77472" style="stroke: #000000; stroke-width: 0.8"/>
      </g>
     </g>
     <g id="text_7">
      <!-- 1500 -->
      <g transform="translate(264.2158 195.373157) scale(0.1 -0.1)">
       <use xlink:href="#DejaVuSans-31"/>
       <use xlink:href="#DejaVuSans-35" transform="translate(63.623047 0)"/>
       <use xlink:href="#DejaVuSans-30" transform="translate(127.246094 0)"/>
       <use xlink:href="#DejaVuSans-30" transform="translate(190.869141 0)"/>
      </g>
     </g>
    </g>
    <g id="xtick_8">
     <g id="line2d_8">
      <g>
       <use xlink:href="#m6cded83f61" x="312.6528" y="180.77472" style="stroke: #000000; stroke-width: 0.8"/>
      </g>
     </g>
     <g id="text_8">
      <!-- 1750 -->
      <g transform="translate(299.9278 195.373157) scale(0.1 -0.1)">
       <use xlink:href="#DejaVuSans-31"/>
       <use xlink:href="#DejaVuSans-37" transform="translate(63.623047 0)"/>
       <use xlink:href="#DejaVuSans-35" transform="translate(127.246094 0)"/>
       <use xlink:href="#DejaVuSans-30" transform="translate(190.869141 0)"/>
      </g>
     </g>
    </g>
    <g id="xtick_9">
     <g id="line2d_9">
      <g>
       <use xlink:href="#m6cded83f61" x="348.3648" y="180.77472" style="stroke: #000000; stroke-width: 0.8"/>
      </g>
     </g>
     <g id="text_9">
      <!-- 2000 -->
      <g transform="translate(335.6398 195.373157) scale(0.1 -0.1)">
       <use xlink:href="#DejaVuSans-32"/>
       <use xlink:href="#DejaVuSans-30" transform="translate(63.623047 0)"/>
       <use xlink:href="#DejaVuSans-30" transform="translate(127.246094 0)"/>
       <use xlink:href="#DejaVuSans-30" transform="translate(190.869141 0)"/>
      </g>
     </g>
    </g>
    <g id="text_10">
     <!-- Young's Modulus [Pa] -->
     <g transform="translate(152.762894 209.051283) scale(0.1 -0.1)">
      <defs>
       <path id="DejaVuSans-59" d="M -13 4666 
L 666 4666 
L 1959 2747 
L 3244 4666 
L 3922 4666 
L 2272 2222 
L 2272 0 
L 1638 0 
L 1638 2222 
L -13 4666 
z
" transform="scale(0.015625)"/>
       <path id="DejaVuSans-6f" d="M 1959 3097 
Q 1497 3097 1228 2736 
Q 959 2375 959 1747 
Q 959 1119 1226 758 
Q 1494 397 1959 397 
Q 2419 397 2687 759 
Q 2956 1122 2956 1747 
Q 2956 2369 2687 2733 
Q 2419 3097 1959 3097 
z
M 1959 3584 
Q 2709 3584 3137 3096 
Q 3566 2609 3566 1747 
Q 3566 888 3137 398 
Q 2709 -91 1959 -91 
Q 1206 -91 779 398 
Q 353 888 353 1747 
Q 353 2609 779 3096 
Q 1206 3584 1959 3584 
z
" transform="scale(0.015625)"/>
       <path id="DejaVuSans-75" d="M 544 1381 
L 544 3500 
L 1119 3500 
L 1119 1403 
Q 1119 906 1312 657 
Q 1506 409 1894 409 
Q 2359 409 2629 706 
Q 2900 1003 2900 1516 
L 2900 3500 
L 3475 3500 
L 3475 0 
L 2900 0 
L 2900 538 
Q 2691 219 2414 64 
Q 2138 -91 1772 -91 
Q 1169 -91 856 284 
Q 544 659 544 1381 
z
M 1991 3584 
L 1991 3584 
z
" transform="scale(0.015625)"/>
       <path id="DejaVuSans-6e" d="M 3513 2113 
L 3513 0 
L 2938 0 
L 2938 2094 
Q 2938 2591 2744 2837 
Q 2550 3084 2163 3084 
Q 1697 3084 1428 2787 
Q 1159 2491 1159 1978 
L 1159 0 
L 581 0 
L 581 3500 
L 1159 3500 
L 1159 2956 
Q 1366 3272 1645 3428 
Q 1925 3584 2291 3584 
Q 2894 3584 3203 3211 
Q 3513 2838 3513 2113 
z
" transform="scale(0.015625)"/>
       <path id="DejaVuSans-67" d="M 2906 1791 
Q 2906 2416 2648 2759 
Q 2391 3103 1925 3103 
Q 1463 3103 1205 2759 
Q 947 2416 947 1791 
Q 947 1169 1205 825 
Q 1463 481 1925 481 
Q 2391 481 2648 825 
Q 2906 1169 2906 1791 
z
M 3481 434 
Q 3481 -459 3084 -895 
Q 2688 -1331 1869 -1331 
Q 1566 -1331 1297 -1286 
Q 1028 -1241 775 -1147 
L 775 -588 
Q 1028 -725 1275 -790 
Q 1522 -856 1778 -856 
Q 2344 -856 2625 -561 
Q 2906 -266 2906 331 
L 2906 616 
Q 2728 306 2450 153 
Q 2172 0 1784 0 
Q 1141 0 747 490 
Q 353 981 353 1791 
Q 353 2603 747 3093 
Q 1141 3584 1784 3584 
Q 2172 3584 2450 3431 
Q 2728 3278 2906 2969 
L 2906 3500 
L 3481 3500 
L 3481 434 
z
" transform="scale(0.015625)"/>
       <path id="DejaVuSans-27" d="M 1147 4666 
L 1147 2931 
L 616 2931 
L 616 4666 
L 1147 4666 
z
" transform="scale(0.015625)"/>
       <path id="DejaVuSans-73" d="M 2834 3397 
L 2834 2853 
Q 2591 2978 2328 3040 
Q 2066 3103 1784 3103 
Q 1356 3103 1142 2972 
Q 928 2841 928 2578 
Q 928 2378 1081 2264 
Q 1234 2150 1697 2047 
L 1894 2003 
Q 2506 1872 2764 1633 
Q 3022 1394 3022 966 
Q 3022 478 2636 193 
Q 2250 -91 1575 -91 
Q 1294 -91 989 -36 
Q 684 19 347 128 
L 347 722 
Q 666 556 975 473 
Q 1284 391 1588 391 
Q 1994 391 2212 530 
Q 2431 669 2431 922 
Q 2431 1156 2273 1281 
Q 2116 1406 1581 1522 
L 1381 1569 
Q 847 1681 609 1914 
Q 372 2147 372 2553 
Q 372 3047 722 3315 
Q 1072 3584 1716 3584 
Q 2034 3584 2315 3537 
Q 2597 3491 2834 3397 
z
" transform="scale(0.015625)"/>
       <path id="DejaVuSans-20" transform="scale(0.015625)"/>
       <path id="DejaVuSans-4d" d="M 628 4666 
L 1569 4666 
L 2759 1491 
L 3956 4666 
L 4897 4666 
L 4897 0 
L 4281 0 
L 4281 4097 
L 3078 897 
L 2444 897 
L 1241 4097 
L 1241 0 
L 628 0 
L 628 4666 
z
" transform="scale(0.015625)"/>
       <path id="DejaVuSans-64" d="M 2906 2969 
L 2906 4863 
L 3481 4863 
L 3481 0 
L 2906 0 
L 2906 525 
Q 2725 213 2448 61 
Q 2172 -91 1784 -91 
Q 1150 -91 751 415 
Q 353 922 353 1747 
Q 353 2572 751 3078 
Q 1150 3584 1784 3584 
Q 2172 3584 2448 3432 
Q 2725 3281 2906 2969 
z
M 947 1747 
Q 947 1113 1208 752 
Q 1469 391 1925 391 
Q 2381 391 2643 752 
Q 2906 1113 2906 1747 
Q 2906 2381 2643 2742 
Q 2381 3103 1925 3103 
Q 1469 3103 1208 2742 
Q 947 2381 947 1747 
z
" transform="scale(0.015625)"/>
       <path id="DejaVuSans-6c" d="M 603 4863 
L 1178 4863 
L 1178 0 
L 603 0 
L 603 4863 
z
" transform="scale(0.015625)"/>
       <path id="DejaVuSans-5b" d="M 550 4863 
L 1875 4863 
L 1875 4416 
L 1125 4416 
L 1125 -397 
L 1875 -397 
L 1875 -844 
L 550 -844 
L 550 4863 
z
" transform="scale(0.015625)"/>
       <path id="DejaVuSans-50" d="M 1259 4147 
L 1259 2394 
L 2053 2394 
Q 2494 2394 2734 2622 
Q 2975 2850 2975 3272 
Q 2975 3691 2734 3919 
Q 2494 4147 2053 4147 
L 1259 4147 
z
M 628 4666 
L 2053 4666 
Q 2838 4666 3239 4311 
Q 3641 3956 3641 3272 
Q 3641 2581 3239 2228 
Q 2838 1875 2053 1875 
L 1259 1875 
L 1259 0 
L 628 0 
L 628 4666 
z
" transform="scale(0.015625)"/>
       <path id="DejaVuSans-61" d="M 2194 1759 
Q 1497 1759 1228 1600 
Q 959 1441 959 1056 
Q 959 750 1161 570 
Q 1363 391 1709 391 
Q 2188 391 2477 730 
Q 2766 1069 2766 1631 
L 2766 1759 
L 2194 1759 
z
M 3341 1997 
L 3341 0 
L 2766 0 
L 2766 531 
Q 2569 213 2275 61 
Q 1981 -91 1556 -91 
Q 1019 -91 701 211 
Q 384 513 384 1019 
Q 384 1609 779 1909 
Q 1175 2209 1959 2209 
L 2766 2209 
L 2766 2266 
Q 2766 2663 2505 2880 
Q 2244 3097 1772 3097 
Q 1472 3097 1187 3025 
Q 903 2953 641 2809 
L 641 3341 
Q 956 3463 1253 3523 
Q 1550 3584 1831 3584 
Q 2591 3584 2966 3190 
Q 3341 2797 3341 1997 
z
" transform="scale(0.015625)"/>
       <path id="DejaVuSans-5d" d="M 1947 4863 
L 1947 -844 
L 622 -844 
L 622 -397 
L 1369 -397 
L 1369 4416 
L 622 4416 
L 622 4863 
L 1947 4863 
z
" transform="scale(0.015625)"/>
      </defs>
      <use xlink:href="#DejaVuSans-59"/>
      <use xlink:href="#DejaVuSans-6f" transform="translate(47.833984 0)"/>
      <use xlink:href="#DejaVuSans-75" transform="translate(109.015625 0)"/>
      <use xlink:href="#DejaVuSans-6e" transform="translate(172.394531 0)"/>
      <use xlink:href="#DejaVuSans-67" transform="translate(235.773438 0)"/>
      <use xlink:href="#DejaVuSans-27" transform="translate(299.25 0)"/>
      <use xlink:href="#DejaVuSans-73" transform="translate(326.740234 0)"/>
      <use xlink:href="#DejaVuSans-20" transform="translate(378.839844 0)"/>
      <use xlink:href="#DejaVuSans-4d" transform="translate(410.626953 0)"/>
      <use xlink:href="#DejaVuSans-6f" transform="translate(496.90625 0)"/>
      <use xlink:href="#DejaVuSans-64" transform="translate(558.087891 0)"/>
      <use xlink:href="#DejaVuSans-75" transform="translate(621.564453 0)"/>
      <use xlink:href="#DejaVuSans-6c" transform="translate(684.943359 0)"/>
      <use xlink:href="#DejaVuSans-75" transform="translate(712.726562 0)"/>
      <use xlink:href="#DejaVuSans-73" transform="translate(776.105469 0)"/>
      <use xlink:href="#DejaVuSans-20" transform="translate(828.205078 0)"/>
      <use xlink:href="#DejaVuSans-5b" transform="translate(859.992188 0)"/>
      <use xlink:href="#DejaVuSans-50" transform="translate(899.005859 0)"/>
      <use xlink:href="#DejaVuSans-61" transform="translate(954.808594 0)"/>
      <use xlink:href="#DejaVuSans-5d" transform="translate(1016.087891 0)"/>
     </g>
    </g>
   </g>
   <g id="matplotlib.axis_2">
    <g id="ytick_1">
     <g id="line2d_10">
      <defs>
       <path id="m6b66bd42f2" d="M 0 0 
L -3.5 0 
" style="stroke: #000000; stroke-width: 0.8"/>
      </defs>
      <g>
       <use xlink:href="#m6b66bd42f2" x="62.6688" y="173.404407" style="stroke: #000000; stroke-width: 0.8"/>
      </g>
     </g>
     <g id="text_11">
      <!-- 0.0000 -->
      <g transform="translate(20.678175 177.203626) scale(0.1 -0.1)">
       <defs>
        <path id="DejaVuSans-2e" d="M 684 794 
L 1344 794 
L 1344 0 
L 684 0 
L 684 794 
z
" transform="scale(0.015625)"/>
       </defs>
       <use xlink:href="#DejaVuSans-30"/>
       <use xlink:href="#DejaVuSans-2e" transform="translate(63.623047 0)"/>
       <use xlink:href="#DejaVuSans-30" transform="translate(95.410156 0)"/>
       <use xlink:href="#DejaVuSans-30" transform="translate(159.033203 0)"/>
       <use xlink:href="#DejaVuSans-30" transform="translate(222.65625 0)"/>
       <use xlink:href="#DejaVuSans-30" transform="translate(286.279297 0)"/>
      </g>
     </g>
    </g>
    <g id="ytick_2">
     <g id="line2d_11">
      <g>
       <use xlink:href="#m6b66bd42f2" x="62.6688" y="133.966264" style="stroke: #000000; stroke-width: 0.8"/>
      </g>
     </g>
     <g id="text_12">
      <!-- 0.0005 -->
      <g transform="translate(20.678175 137.765482) scale(0.1 -0.1)">
       <use xlink:href="#DejaVuSans-30"/>
       <use xlink:href="#DejaVuSans-2e" transform="translate(63.623047 0)"/>
       <use xlink:href="#DejaVuSans-30" transform="translate(95.410156 0)"/>
       <use xlink:href="#DejaVuSans-30" transform="translate(159.033203 0)"/>
       <use xlink:href="#DejaVuSans-30" transform="translate(222.65625 0)"/>
       <use xlink:href="#DejaVuSans-35" transform="translate(286.279297 0)"/>
      </g>
     </g>
    </g>
    <g id="ytick_3">
     <g id="line2d_12">
      <g>
       <use xlink:href="#m6b66bd42f2" x="62.6688" y="94.52812" style="stroke: #000000; stroke-width: 0.8"/>
      </g>
     </g>
     <g id="text_13">
      <!-- 0.0010 -->
      <g transform="translate(20.678175 98.327338) scale(0.1 -0.1)">
       <use xlink:href="#DejaVuSans-30"/>
       <use xlink:href="#DejaVuSans-2e" transform="translate(63.623047 0)"/>
       <use xlink:href="#DejaVuSans-30" transform="translate(95.410156 0)"/>
       <use xlink:href="#DejaVuSans-30" transform="translate(159.033203 0)"/>
       <use xlink:href="#DejaVuSans-31" transform="translate(222.65625 0)"/>
       <use xlink:href="#DejaVuSans-30" transform="translate(286.279297 0)"/>
      </g>
     </g>
    </g>
    <g id="ytick_4">
     <g id="line2d_13">
      <g>
       <use xlink:href="#m6b66bd42f2" x="62.6688" y="55.089976" style="stroke: #000000; stroke-width: 0.8"/>
      </g>
     </g>
     <g id="text_14">
      <!-- 0.0015 -->
      <g transform="translate(20.678175 58.889195) scale(0.1 -0.1)">
       <use xlink:href="#DejaVuSans-30"/>
       <use xlink:href="#DejaVuSans-2e" transform="translate(63.623047 0)"/>
       <use xlink:href="#DejaVuSans-30" transform="translate(95.410156 0)"/>
       <use xlink:href="#DejaVuSans-30" transform="translate(159.033203 0)"/>
       <use xlink:href="#DejaVuSans-31" transform="translate(222.65625 0)"/>
       <use xlink:href="#DejaVuSans-35" transform="translate(286.279297 0)"/>
      </g>
     </g>
    </g>
    <g id="text_15">
     <!-- Probability Density -->
     <g transform="translate(14.598487 146.727843) rotate(-90) scale(0.1 -0.1)">
      <defs>
       <path id="DejaVuSans-72" d="M 2631 2963 
Q 2534 3019 2420 3045 
Q 2306 3072 2169 3072 
Q 1681 3072 1420 2755 
Q 1159 2438 1159 1844 
L 1159 0 
L 581 0 
L 581 3500 
L 1159 3500 
L 1159 2956 
Q 1341 3275 1631 3429 
Q 1922 3584 2338 3584 
Q 2397 3584 2469 3576 
Q 2541 3569 2628 3553 
L 2631 2963 
z
" transform="scale(0.015625)"/>
       <path id="DejaVuSans-62" d="M 3116 1747 
Q 3116 2381 2855 2742 
Q 2594 3103 2138 3103 
Q 1681 3103 1420 2742 
Q 1159 2381 1159 1747 
Q 1159 1113 1420 752 
Q 1681 391 2138 391 
Q 2594 391 2855 752 
Q 3116 1113 3116 1747 
z
M 1159 2969 
Q 1341 3281 1617 3432 
Q 1894 3584 2278 3584 
Q 2916 3584 3314 3078 
Q 3713 2572 3713 1747 
Q 3713 922 3314 415 
Q 2916 -91 2278 -91 
Q 1894 -91 1617 61 
Q 1341 213 1159 525 
L 1159 0 
L 581 0 
L 581 4863 
L 1159 4863 
L 1159 2969 
z
" transform="scale(0.015625)"/>
       <path id="DejaVuSans-69" d="M 603 3500 
L 1178 3500 
L 1178 0 
L 603 0 
L 603 3500 
z
M 603 4863 
L 1178 4863 
L 1178 4134 
L 603 4134 
L 603 4863 
z
" transform="scale(0.015625)"/>
       <path id="DejaVuSans-74" d="M 1172 4494 
L 1172 3500 
L 2356 3500 
L 2356 3053 
L 1172 3053 
L 1172 1153 
Q 1172 725 1289 603 
Q 1406 481 1766 481 
L 2356 481 
L 2356 0 
L 1766 0 
Q 1100 0 847 248 
Q 594 497 594 1153 
L 594 3053 
L 172 3053 
L 172 3500 
L 594 3500 
L 594 4494 
L 1172 4494 
z
" transform="scale(0.015625)"/>
       <path id="DejaVuSans-79" d="M 2059 -325 
Q 1816 -950 1584 -1140 
Q 1353 -1331 966 -1331 
L 506 -1331 
L 506 -850 
L 844 -850 
Q 1081 -850 1212 -737 
Q 1344 -625 1503 -206 
L 1606 56 
L 191 3500 
L 800 3500 
L 1894 763 
L 2988 3500 
L 3597 3500 
L 2059 -325 
z
" transform="scale(0.015625)"/>
       <path id="DejaVuSans-44" d="M 1259 4147 
L 1259 519 
L 2022 519 
Q 2988 519 3436 956 
Q 3884 1394 3884 2338 
Q 3884 3275 3436 3711 
Q 2988 4147 2022 4147 
L 1259 4147 
z
M 628 4666 
L 1925 4666 
Q 3281 4666 3915 4102 
Q 4550 3538 4550 2338 
Q 4550 1131 3912 565 
Q 3275 0 1925 0 
L 628 0 
L 628 4666 
z
" transform="scale(0.015625)"/>
       <path id="DejaVuSans-65" d="M 3597 1894 
L 3597 1613 
L 953 1613 
Q 991 1019 1311 708 
Q 1631 397 2203 397 
Q 2534 397 2845 478 
Q 3156 559 3463 722 
L 3463 178 
Q 3153 47 2828 -22 
Q 2503 -91 2169 -91 
Q 1331 -91 842 396 
Q 353 884 353 1716 
Q 353 2575 817 3079 
Q 1281 3584 2069 3584 
Q 2775 3584 3186 3129 
Q 3597 2675 3597 1894 
z
M 3022 2063 
Q 3016 2534 2758 2815 
Q 2500 3097 2075 3097 
Q 1594 3097 1305 2825 
Q 1016 2553 972 2059 
L 3022 2063 
z
" transform="scale(0.015625)"/>
      </defs>
      <use xlink:href="#DejaVuSans-50"/>
      <use xlink:href="#DejaVuSans-72" transform="translate(58.552734 0)"/>
      <use xlink:href="#DejaVuSans-6f" transform="translate(97.416016 0)"/>
      <use xlink:href="#DejaVuSans-62" transform="translate(158.597656 0)"/>
      <use xlink:href="#DejaVuSans-61" transform="translate(222.074219 0)"/>
      <use xlink:href="#DejaVuSans-62" transform="translate(283.353516 0)"/>
      <use xlink:href="#DejaVuSans-69" transform="translate(346.830078 0)"/>
      <use xlink:href="#DejaVuSans-6c" transform="translate(374.613281 0)"/>
      <use xlink:href="#DejaVuSans-69" transform="translate(402.396484 0)"/>
      <use xlink:href="#DejaVuSans-74" transform="translate(430.179688 0)"/>
      <use xlink:href="#DejaVuSans-79" transform="translate(469.388672 0)"/>
      <use xlink:href="#DejaVuSans-20" transform="translate(528.568359 0)"/>
      <use xlink:href="#DejaVuSans-44" transform="translate(560.355469 0)"/>
      <use xlink:href="#DejaVuSans-65" transform="translate(637.357422 0)"/>
      <use xlink:href="#DejaVuSans-6e" transform="translate(698.880859 0)"/>
      <use xlink:href="#DejaVuSans-73" transform="translate(762.259766 0)"/>
      <use xlink:href="#DejaVuSans-69" transform="translate(814.359375 0)"/>
      <use xlink:href="#DejaVuSans-74" transform="translate(842.142578 0)"/>
      <use xlink:href="#DejaVuSans-79" transform="translate(881.351562 0)"/>
     </g>
    </g>
   </g>
   <g id="line2d_14">
    <path d="M 62.6688 100.268113 
L 68.394171 83.657804 
L 74.692079 65.482636 
L 78.127301 56.188321 
L 80.989986 49.045886 
L 83.280135 43.844539 
L 85.570283 39.184815 
L 87.287894 36.089567 
L 89.005505 33.36793 
L 90.723117 31.044722 
L 92.440728 29.141393 
L 94.158339 27.675697 
L 95.303413 26.948669 
L 96.448487 26.42541 
L 97.593562 26.108124 
L 98.738636 25.998153 
L 99.88371 26.09596 
L 101.028784 26.401131 
L 102.173858 26.91238 
L 103.318932 27.627549 
L 104.464006 28.543634 
L 106.181618 30.285865 
L 107.899229 32.455035 
L 109.61684 35.031033 
L 111.334451 37.990255 
L 113.6246 42.485386 
L 115.914748 47.543193 
L 118.777433 54.538112 
L 121.640119 62.129268 
L 125.647878 73.440477 
L 138.243694 109.6235 
L 141.678916 118.626275 
L 145.114139 126.951563 
L 147.976824 133.304833 
L 150.839509 139.092898 
L 153.702195 144.3031 
L 155.992343 148.05692 
L 158.282491 151.450703 
L 160.57264 154.497035 
L 162.862788 157.212239 
L 165.152936 159.615517 
L 167.443085 161.728138 
L 169.733233 163.572691 
L 172.023381 165.172413 
L 174.886067 166.863243 
L 177.748752 168.252386 
L 180.611437 169.382122 
L 183.474123 170.291682 
L 186.909345 171.142421 
L 190.917105 171.870621 
L 195.497401 172.441132 
L 200.650235 172.848794 
L 207.52068 173.149228 
L 217.25381 173.326715 
L 236.147533 173.398633 
L 348.3648 173.404407 
L 348.3648 173.404407 
" clip-path="url(#p09f7e996d6)" style="fill: none; stroke-dasharray: 1.5,2.475; stroke-dashoffset: 0; stroke: #0000ff; stroke-opacity: 0.5; stroke-width: 1.5"/>
   </g>
   <g id="line2d_15">
    <path d="M 62.6688 146.09694 
L 73.547004 141.178615 
L 100.456247 128.892538 
L 108.471766 125.552817 
L 115.342211 122.933353 
L 121.640119 120.779714 
L 127.365489 119.062005 
L 132.518323 117.734795 
L 137.671157 116.632718 
L 142.82399 115.770286 
L 147.404287 115.214222 
L 151.984584 114.862534 
L 156.56488 114.718976 
L 161.145177 114.785084 
L 165.725473 115.06015 
L 170.30577 115.541235 
L 175.458604 116.322255 
L 180.611437 117.347042 
L 185.764271 118.602046 
L 191.489642 120.246515 
L 197.215012 122.128969 
L 203.51292 124.439815 
L 210.383365 127.199809 
L 218.398884 130.66073 
L 229.277089 135.614642 
L 252.178572 146.10768 
L 261.339165 150.030418 
L 269.354684 153.235568 
L 276.797666 155.988545 
L 284.240648 158.507103 
L 291.68363 160.781221 
L 299.126612 162.808725 
L 306.569594 164.594173 
L 314.012576 166.147617 
L 321.455558 167.483335 
L 329.471077 168.698172 
L 338.059133 169.769066 
L 347.219726 170.682189 
L 348.3648 170.781498 
L 348.3648 170.781498 
" clip-path="url(#p09f7e996d6)" style="fill: none; stroke-dasharray: 5.55,2.4; stroke-dashoffset: 0; stroke: #0000ff; stroke-opacity: 0.3; stroke-width: 1.5"/>
   </g>
   <g id="line2d_16">
    <path d="M 62.6688 173.404406 
L 162.862788 173.296462 
L 177.176215 173.060936 
L 186.909345 172.694509 
L 194.352327 172.208148 
L 200.650235 171.585619 
L 206.375606 170.789857 
L 211.528439 169.832513 
L 216.108736 168.745408 
L 220.116495 167.578519 
L 224.124255 166.180179 
L 228.132014 164.52098 
L 231.567237 162.869146 
L 235.002459 160.986866 
L 238.437682 158.858143 
L 241.872904 156.469108 
L 245.308127 153.80875 
L 248.743349 150.869678 
L 252.178572 147.648884 
L 255.613794 144.148472 
L 259.621554 139.722142 
L 263.629313 134.949799 
L 268.20961 129.11916 
L 273.362443 122.171336 
L 280.805425 111.695528 
L 289.966018 98.835961 
L 294.546315 92.768786 
L 298.554075 87.828392 
L 301.989297 83.952304 
L 304.851982 81.024047 
L 307.714668 78.407057 
L 310.577353 76.132804 
L 312.867501 74.579023 
L 315.15765 73.274848 
L 317.447798 72.23075 
L 319.737946 71.455176 
L 322.028095 70.954443 
L 324.318243 70.732643 
L 326.608391 70.791595 
L 328.898539 71.130815 
L 331.188688 71.747525 
L 333.478836 72.63669 
L 335.768984 73.791089 
L 338.059133 75.201409 
L 340.349281 76.856372 
L 343.211966 79.248997 
L 346.074652 81.974168 
L 348.3648 84.371964 
L 348.3648 84.371964 
" clip-path="url(#p09f7e996d6)" style="fill: none; stroke-dasharray: 1.5,2.475; stroke-dashoffset: 0; stroke: #ff0000; stroke-opacity: 0.5; stroke-width: 1.5"/>
   </g>
   <g id="line2d_17">
    <path d="M 62.6688 157.828601 
L 97.021024 157.83366 
L 131.945786 158.063988 
L 167.443085 158.520396 
L 205.230531 159.229742 
L 247.025738 160.241378 
L 296.836463 161.679857 
L 348.3648 163.324784 
L 348.3648 163.324784 
" clip-path="url(#p09f7e996d6)" style="fill: none; stroke-dasharray: 5.55,2.4; stroke-dashoffset: 0; stroke: #ff0000; stroke-opacity: 0.3; stroke-width: 1.5"/>
   </g>
   <g id="patch_3">
    <path d="M 62.6688 180.77472 
L 62.6688 18.62784 
" style="fill: none; stroke: #000000; stroke-width: 0.8; stroke-linejoin: miter; stroke-linecap: square"/>
   </g>
   <g id="patch_4">
    <path d="M 348.3648 180.77472 
L 348.3648 18.62784 
" style="fill: none; stroke: #000000; stroke-width: 0.8; stroke-linejoin: miter; stroke-linecap: square"/>
   </g>
   <g id="patch_5">
    <path d="M 62.6688 180.77472 
L 348.3648 180.77472 
" style="fill: none; stroke: #000000; stroke-width: 0.8; stroke-linejoin: miter; stroke-linecap: square"/>
   </g>
   <g id="patch_6">
    <path d="M 62.6688 18.62784 
L 348.3648 18.62784 
" style="fill: none; stroke: #000000; stroke-width: 0.8; stroke-linejoin: miter; stroke-linecap: square"/>
   </g>
   <g id="text_16">
    <!-- Probability Density Functions of Test Groups -->
    <g transform="translate(73.827112 12.62784) scale(0.12 -0.12)">
     <defs>
      <path id="DejaVuSans-46" d="M 628 4666 
L 3309 4666 
L 3309 4134 
L 1259 4134 
L 1259 2759 
L 3109 2759 
L 3109 2228 
L 1259 2228 
L 1259 0 
L 628 0 
L 628 4666 
z
" transform="scale(0.015625)"/>
      <path id="DejaVuSans-63" d="M 3122 3366 
L 3122 2828 
Q 2878 2963 2633 3030 
Q 2388 3097 2138 3097 
Q 1578 3097 1268 2742 
Q 959 2388 959 1747 
Q 959 1106 1268 751 
Q 1578 397 2138 397 
Q 2388 397 2633 464 
Q 2878 531 3122 666 
L 3122 134 
Q 2881 22 2623 -34 
Q 2366 -91 2075 -91 
Q 1284 -91 818 406 
Q 353 903 353 1747 
Q 353 2603 823 3093 
Q 1294 3584 2113 3584 
Q 2378 3584 2631 3529 
Q 2884 3475 3122 3366 
z
" transform="scale(0.015625)"/>
      <path id="DejaVuSans-66" d="M 2375 4863 
L 2375 4384 
L 1825 4384 
Q 1516 4384 1395 4259 
Q 1275 4134 1275 3809 
L 1275 3500 
L 2222 3500 
L 2222 3053 
L 1275 3053 
L 1275 0 
L 697 0 
L 697 3053 
L 147 3053 
L 147 3500 
L 697 3500 
L 697 3744 
Q 697 4328 969 4595 
Q 1241 4863 1831 4863 
L 2375 4863 
z
" transform="scale(0.015625)"/>
      <path id="DejaVuSans-54" d="M -19 4666 
L 3928 4666 
L 3928 4134 
L 2272 4134 
L 2272 0 
L 1638 0 
L 1638 4134 
L -19 4134 
L -19 4666 
z
" transform="scale(0.015625)"/>
      <path id="DejaVuSans-47" d="M 3809 666 
L 3809 1919 
L 2778 1919 
L 2778 2438 
L 4434 2438 
L 4434 434 
Q 4069 175 3628 42 
Q 3188 -91 2688 -91 
Q 1594 -91 976 548 
Q 359 1188 359 2328 
Q 359 3472 976 4111 
Q 1594 4750 2688 4750 
Q 3144 4750 3555 4637 
Q 3966 4525 4313 4306 
L 4313 3634 
Q 3963 3931 3569 4081 
Q 3175 4231 2741 4231 
Q 1884 4231 1454 3753 
Q 1025 3275 1025 2328 
Q 1025 1384 1454 906 
Q 1884 428 2741 428 
Q 3075 428 3337 486 
Q 3600 544 3809 666 
z
" transform="scale(0.015625)"/>
      <path id="DejaVuSans-70" d="M 1159 525 
L 1159 -1331 
L 581 -1331 
L 581 3500 
L 1159 3500 
L 1159 2969 
Q 1341 3281 1617 3432 
Q 1894 3584 2278 3584 
Q 2916 3584 3314 3078 
Q 3713 2572 3713 1747 
Q 3713 922 3314 415 
Q 2916 -91 2278 -91 
Q 1894 -91 1617 61 
Q 1341 213 1159 525 
z
M 3116 1747 
Q 3116 2381 2855 2742 
Q 2594 3103 2138 3103 
Q 1681 3103 1420 2742 
Q 1159 2381 1159 1747 
Q 1159 1113 1420 752 
Q 1681 391 2138 391 
Q 2594 391 2855 752 
Q 3116 1113 3116 1747 
z
" transform="scale(0.015625)"/>
     </defs>
     <use xlink:href="#DejaVuSans-50"/>
     <use xlink:href="#DejaVuSans-72" transform="translate(58.552734 0)"/>
     <use xlink:href="#DejaVuSans-6f" transform="translate(97.416016 0)"/>
     <use xlink:href="#DejaVuSans-62" transform="translate(158.597656 0)"/>
     <use xlink:href="#DejaVuSans-61" transform="translate(222.074219 0)"/>
     <use xlink:href="#DejaVuSans-62" transform="translate(283.353516 0)"/>
     <use xlink:href="#DejaVuSans-69" transform="translate(346.830078 0)"/>
     <use xlink:href="#DejaVuSans-6c" transform="translate(374.613281 0)"/>
     <use xlink:href="#DejaVuSans-69" transform="translate(402.396484 0)"/>
     <use xlink:href="#DejaVuSans-74" transform="translate(430.179688 0)"/>
     <use xlink:href="#DejaVuSans-79" transform="translate(469.388672 0)"/>
     <use xlink:href="#DejaVuSans-20" transform="translate(528.568359 0)"/>
     <use xlink:href="#DejaVuSans-44" transform="translate(560.355469 0)"/>
     <use xlink:href="#DejaVuSans-65" transform="translate(637.357422 0)"/>
     <use xlink:href="#DejaVuSans-6e" transform="translate(698.880859 0)"/>
     <use xlink:href="#DejaVuSans-73" transform="translate(762.259766 0)"/>
     <use xlink:href="#DejaVuSans-69" transform="translate(814.359375 0)"/>
     <use xlink:href="#DejaVuSans-74" transform="translate(842.142578 0)"/>
     <use xlink:href="#DejaVuSans-79" transform="translate(881.351562 0)"/>
     <use xlink:href="#DejaVuSans-20" transform="translate(940.53125 0)"/>
     <use xlink:href="#DejaVuSans-46" transform="translate(972.318359 0)"/>
     <use xlink:href="#DejaVuSans-75" transform="translate(1024.337891 0)"/>
     <use xlink:href="#DejaVuSans-6e" transform="translate(1087.716797 0)"/>
     <use xlink:href="#DejaVuSans-63" transform="translate(1151.095703 0)"/>
     <use xlink:href="#DejaVuSans-74" transform="translate(1206.076172 0)"/>
     <use xlink:href="#DejaVuSans-69" transform="translate(1245.285156 0)"/>
     <use xlink:href="#DejaVuSans-6f" transform="translate(1273.068359 0)"/>
     <use xlink:href="#DejaVuSans-6e" transform="translate(1334.25 0)"/>
     <use xlink:href="#DejaVuSans-73" transform="translate(1397.628906 0)"/>
     <use xlink:href="#DejaVuSans-20" transform="translate(1449.728516 0)"/>
     <use xlink:href="#DejaVuSans-6f" transform="translate(1481.515625 0)"/>
     <use xlink:href="#DejaVuSans-66" transform="translate(1542.697266 0)"/>
     <use xlink:href="#DejaVuSans-20" transform="translate(1577.902344 0)"/>
     <use xlink:href="#DejaVuSans-54" transform="translate(1609.689453 0)"/>
     <use xlink:href="#DejaVuSans-65" transform="translate(1653.773438 0)"/>
     <use xlink:href="#DejaVuSans-73" transform="translate(1715.296875 0)"/>
     <use xlink:href="#DejaVuSans-74" transform="translate(1767.396484 0)"/>
     <use xlink:href="#DejaVuSans-20" transform="translate(1806.605469 0)"/>
     <use xlink:href="#DejaVuSans-47" transform="translate(1838.392578 0)"/>
     <use xlink:href="#DejaVuSans-72" transform="translate(1915.882812 0)"/>
     <use xlink:href="#DejaVuSans-6f" transform="translate(1954.746094 0)"/>
     <use xlink:href="#DejaVuSans-75" transform="translate(2015.927734 0)"/>
     <use xlink:href="#DejaVuSans-70" transform="translate(2079.306641 0)"/>
     <use xlink:href="#DejaVuSans-73" transform="translate(2142.783203 0)"/>
    </g>
   </g>
   <g id="legend_1">
    <g id="patch_7">
     <path d="M 140.946487 114.69659 
L 270.087112 114.69659 
Q 272.087112 114.69659 272.087112 112.69659 
L 272.087112 25.62784 
Q 272.087112 23.62784 270.087112 23.62784 
L 140.946487 23.62784 
Q 138.946487 23.62784 138.946487 25.62784 
L 138.946487 112.69659 
Q 138.946487 114.69659 140.946487 114.69659 
z
" style="fill: #ffffff; opacity: 0.8; stroke: #cccccc; stroke-linejoin: miter"/>
    </g>
    <g id="patch_8">
     <path d="M 142.946487 35.226277 
L 162.946487 35.226277 
L 162.946487 28.226277 
L 142.946487 28.226277 
z
" style="fill: #0000ff; fill-opacity: 0.3; stroke: #0000ff; stroke-opacity: 0.3; stroke-linejoin: miter"/>
    </g>
    <g id="text_17">
     <!-- Control PDF -->
     <g transform="translate(170.946487 35.226277) scale(0.1 -0.1)">
      <defs>
       <path id="DejaVuSans-43" d="M 4122 4306 
L 4122 3641 
Q 3803 3938 3442 4084 
Q 3081 4231 2675 4231 
Q 1875 4231 1450 3742 
Q 1025 3253 1025 2328 
Q 1025 1406 1450 917 
Q 1875 428 2675 428 
Q 3081 428 3442 575 
Q 3803 722 4122 1019 
L 4122 359 
Q 3791 134 3420 21 
Q 3050 -91 2638 -91 
Q 1578 -91 968 557 
Q 359 1206 359 2328 
Q 359 3453 968 4101 
Q 1578 4750 2638 4750 
Q 3056 4750 3426 4639 
Q 3797 4528 4122 4306 
z
" transform="scale(0.015625)"/>
      </defs>
      <use xlink:href="#DejaVuSans-43"/>
      <use xlink:href="#DejaVuSans-6f" transform="translate(69.824219 0)"/>
      <use xlink:href="#DejaVuSans-6e" transform="translate(131.005859 0)"/>
      <use xlink:href="#DejaVuSans-74" transform="translate(194.384766 0)"/>
      <use xlink:href="#DejaVuSans-72" transform="translate(233.59375 0)"/>
      <use xlink:href="#DejaVuSans-6f" transform="translate(272.457031 0)"/>
      <use xlink:href="#DejaVuSans-6c" transform="translate(333.638672 0)"/>
      <use xlink:href="#DejaVuSans-20" transform="translate(361.421875 0)"/>
      <use xlink:href="#DejaVuSans-50" transform="translate(393.208984 0)"/>
      <use xlink:href="#DejaVuSans-44" transform="translate(453.511719 0)"/>
      <use xlink:href="#DejaVuSans-46" transform="translate(530.513672 0)"/>
     </g>
    </g>
    <g id="line2d_18">
     <path d="M 142.946487 46.404402 
L 152.946487 46.404402 
L 162.946487 46.404402 
" style="fill: none; stroke-dasharray: 1.5,2.475; stroke-dashoffset: 0; stroke: #0000ff; stroke-opacity: 0.5; stroke-width: 1.5"/>
    </g>
    <g id="text_18">
     <!-- Control Best-Case -->
     <g transform="translate(170.946487 49.904402) scale(0.1 -0.1)">
      <defs>
       <path id="DejaVuSans-42" d="M 1259 2228 
L 1259 519 
L 2272 519 
Q 2781 519 3026 730 
Q 3272 941 3272 1375 
Q 3272 1813 3026 2020 
Q 2781 2228 2272 2228 
L 1259 2228 
z
M 1259 4147 
L 1259 2741 
L 2194 2741 
Q 2656 2741 2882 2914 
Q 3109 3088 3109 3444 
Q 3109 3797 2882 3972 
Q 2656 4147 2194 4147 
L 1259 4147 
z
M 628 4666 
L 2241 4666 
Q 2963 4666 3353 4366 
Q 3744 4066 3744 3513 
Q 3744 3084 3544 2831 
Q 3344 2578 2956 2516 
Q 3422 2416 3680 2098 
Q 3938 1781 3938 1306 
Q 3938 681 3513 340 
Q 3088 0 2303 0 
L 628 0 
L 628 4666 
z
" transform="scale(0.015625)"/>
       <path id="DejaVuSans-2d" d="M 313 2009 
L 1997 2009 
L 1997 1497 
L 313 1497 
L 313 2009 
z
" transform="scale(0.015625)"/>
      </defs>
      <use xlink:href="#DejaVuSans-43"/>
      <use xlink:href="#DejaVuSans-6f" transform="translate(69.824219 0)"/>
      <use xlink:href="#DejaVuSans-6e" transform="translate(131.005859 0)"/>
      <use xlink:href="#DejaVuSans-74" transform="translate(194.384766 0)"/>
      <use xlink:href="#DejaVuSans-72" transform="translate(233.59375 0)"/>
      <use xlink:href="#DejaVuSans-6f" transform="translate(272.457031 0)"/>
      <use xlink:href="#DejaVuSans-6c" transform="translate(333.638672 0)"/>
      <use xlink:href="#DejaVuSans-20" transform="translate(361.421875 0)"/>
      <use xlink:href="#DejaVuSans-42" transform="translate(393.208984 0)"/>
      <use xlink:href="#DejaVuSans-65" transform="translate(461.8125 0)"/>
      <use xlink:href="#DejaVuSans-73" transform="translate(523.335938 0)"/>
      <use xlink:href="#DejaVuSans-74" transform="translate(575.435547 0)"/>
      <use xlink:href="#DejaVuSans-2d" transform="translate(614.644531 0)"/>
      <use xlink:href="#DejaVuSans-43" transform="translate(650.728516 0)"/>
      <use xlink:href="#DejaVuSans-61" transform="translate(720.552734 0)"/>
      <use xlink:href="#DejaVuSans-73" transform="translate(781.832031 0)"/>
      <use xlink:href="#DejaVuSans-65" transform="translate(833.931641 0)"/>
     </g>
    </g>
    <g id="line2d_19">
     <path d="M 142.946487 61.082527 
L 152.946487 61.082527 
L 162.946487 61.082527 
" style="fill: none; stroke-dasharray: 5.55,2.4; stroke-dashoffset: 0; stroke: #0000ff; stroke-opacity: 0.3; stroke-width: 1.5"/>
    </g>
    <g id="text_19">
     <!-- Control Worst-Case -->
     <g transform="translate(170.946487 64.582527) scale(0.1 -0.1)">
      <defs>
       <path id="DejaVuSans-57" d="M 213 4666 
L 850 4666 
L 1831 722 
L 2809 4666 
L 3519 4666 
L 4500 722 
L 5478 4666 
L 6119 4666 
L 4947 0 
L 4153 0 
L 3169 4050 
L 2175 0 
L 1381 0 
L 213 4666 
z
" transform="scale(0.015625)"/>
      </defs>
      <use xlink:href="#DejaVuSans-43"/>
      <use xlink:href="#DejaVuSans-6f" transform="translate(69.824219 0)"/>
      <use xlink:href="#DejaVuSans-6e" transform="translate(131.005859 0)"/>
      <use xlink:href="#DejaVuSans-74" transform="translate(194.384766 0)"/>
      <use xlink:href="#DejaVuSans-72" transform="translate(233.59375 0)"/>
      <use xlink:href="#DejaVuSans-6f" transform="translate(272.457031 0)"/>
      <use xlink:href="#DejaVuSans-6c" transform="translate(333.638672 0)"/>
      <use xlink:href="#DejaVuSans-20" transform="translate(361.421875 0)"/>
      <use xlink:href="#DejaVuSans-57" transform="translate(393.208984 0)"/>
      <use xlink:href="#DejaVuSans-6f" transform="translate(486.210938 0)"/>
      <use xlink:href="#DejaVuSans-72" transform="translate(547.392578 0)"/>
      <use xlink:href="#DejaVuSans-73" transform="translate(588.505859 0)"/>
      <use xlink:href="#DejaVuSans-74" transform="translate(640.605469 0)"/>
      <use xlink:href="#DejaVuSans-2d" transform="translate(679.814453 0)"/>
      <use xlink:href="#DejaVuSans-43" transform="translate(715.898438 0)"/>
      <use xlink:href="#DejaVuSans-61" transform="translate(785.722656 0)"/>
      <use xlink:href="#DejaVuSans-73" transform="translate(847.001953 0)"/>
      <use xlink:href="#DejaVuSans-65" transform="translate(899.101562 0)"/>
     </g>
    </g>
    <g id="patch_9">
     <path d="M 142.946487 79.260652 
L 162.946487 79.260652 
L 162.946487 72.260652 
L 142.946487 72.260652 
z
" style="fill: #ff0000; fill-opacity: 0.3; stroke: #ff0000; stroke-opacity: 0.3; stroke-linejoin: miter"/>
    </g>
    <g id="text_20">
     <!-- Treated PDF -->
     <g transform="translate(170.946487 79.260652) scale(0.1 -0.1)">
      <use xlink:href="#DejaVuSans-54"/>
      <use xlink:href="#DejaVuSans-72" transform="translate(46.333984 0)"/>
      <use xlink:href="#DejaVuSans-65" transform="translate(85.197266 0)"/>
      <use xlink:href="#DejaVuSans-61" transform="translate(146.720703 0)"/>
      <use xlink:href="#DejaVuSans-74" transform="translate(208 0)"/>
      <use xlink:href="#DejaVuSans-65" transform="translate(247.208984 0)"/>
      <use xlink:href="#DejaVuSans-64" transform="translate(308.732422 0)"/>
      <use xlink:href="#DejaVuSans-20" transform="translate(372.208984 0)"/>
      <use xlink:href="#DejaVuSans-50" transform="translate(403.996094 0)"/>
      <use xlink:href="#DejaVuSans-44" transform="translate(464.298828 0)"/>
      <use xlink:href="#DejaVuSans-46" transform="translate(541.300781 0)"/>
     </g>
    </g>
    <g id="line2d_20">
     <path d="M 142.946487 90.438777 
L 152.946487 90.438777 
L 162.946487 90.438777 
" style="fill: none; stroke-dasharray: 1.5,2.475; stroke-dashoffset: 0; stroke: #ff0000; stroke-opacity: 0.5; stroke-width: 1.5"/>
    </g>
    <g id="text_21">
     <!-- Treated Best-Case -->
     <g transform="translate(170.946487 93.938777) scale(0.1 -0.1)">
      <use xlink:href="#DejaVuSans-54"/>
      <use xlink:href="#DejaVuSans-72" transform="translate(46.333984 0)"/>
      <use xlink:href="#DejaVuSans-65" transform="translate(85.197266 0)"/>
      <use xlink:href="#DejaVuSans-61" transform="translate(146.720703 0)"/>
      <use xlink:href="#DejaVuSans-74" transform="translate(208 0)"/>
      <use xlink:href="#DejaVuSans-65" transform="translate(247.208984 0)"/>
      <use xlink:href="#DejaVuSans-64" transform="translate(308.732422 0)"/>
      <use xlink:href="#DejaVuSans-20" transform="translate(372.208984 0)"/>
      <use xlink:href="#DejaVuSans-42" transform="translate(403.996094 0)"/>
      <use xlink:href="#DejaVuSans-65" transform="translate(472.599609 0)"/>
      <use xlink:href="#DejaVuSans-73" transform="translate(534.123047 0)"/>
      <use xlink:href="#DejaVuSans-74" transform="translate(586.222656 0)"/>
      <use xlink:href="#DejaVuSans-2d" transform="translate(625.431641 0)"/>
      <use xlink:href="#DejaVuSans-43" transform="translate(661.515625 0)"/>
      <use xlink:href="#DejaVuSans-61" transform="translate(731.339844 0)"/>
      <use xlink:href="#DejaVuSans-73" transform="translate(792.619141 0)"/>
      <use xlink:href="#DejaVuSans-65" transform="translate(844.71875 0)"/>
     </g>
    </g>
    <g id="line2d_21">
     <path d="M 142.946487 105.116902 
L 152.946487 105.116902 
L 162.946487 105.116902 
" style="fill: none; stroke-dasharray: 5.55,2.4; stroke-dashoffset: 0; stroke: #ff0000; stroke-opacity: 0.3; stroke-width: 1.5"/>
    </g>
    <g id="text_22">
     <!-- Treated Worst-Case -->
     <g transform="translate(170.946487 108.616902) scale(0.1 -0.1)">
      <use xlink:href="#DejaVuSans-54"/>
      <use xlink:href="#DejaVuSans-72" transform="translate(46.333984 0)"/>
      <use xlink:href="#DejaVuSans-65" transform="translate(85.197266 0)"/>
      <use xlink:href="#DejaVuSans-61" transform="translate(146.720703 0)"/>
      <use xlink:href="#DejaVuSans-74" transform="translate(208 0)"/>
      <use xlink:href="#DejaVuSans-65" transform="translate(247.208984 0)"/>
      <use xlink:href="#DejaVuSans-64" transform="translate(308.732422 0)"/>
      <use xlink:href="#DejaVuSans-20" transform="translate(372.208984 0)"/>
      <use xlink:href="#DejaVuSans-57" transform="translate(403.996094 0)"/>
      <use xlink:href="#DejaVuSans-6f" transform="translate(496.998047 0)"/>
      <use xlink:href="#DejaVuSans-72" transform="translate(558.179688 0)"/>
      <use xlink:href="#DejaVuSans-73" transform="translate(599.292969 0)"/>
      <use xlink:href="#DejaVuSans-74" transform="translate(651.392578 0)"/>
      <use xlink:href="#DejaVuSans-2d" transform="translate(690.601562 0)"/>
      <use xlink:href="#DejaVuSans-43" transform="translate(726.685547 0)"/>
      <use xlink:href="#DejaVuSans-61" transform="translate(796.509766 0)"/>
      <use xlink:href="#DejaVuSans-73" transform="translate(857.789062 0)"/>
      <use xlink:href="#DejaVuSans-65" transform="translate(909.888672 0)"/>
     </g>
    </g>
   </g>
  </g>
 </g>
 <defs>
  <clipPath id="p09f7e996d6">
   <rect x="62.6688" y="18.62784" width="285.696" height="162.14688"/>
  </clipPath>
 </defs>
</svg>
