<?xml version="1.0" encoding="UTF-8" standalone="no"?>
<!-- Generator: Adobe Illustrator 22.0.1, SVG Export Plug-In . SVG Version: 6.00 Build 0)  -->

<svg
   version="1.1"
   id="Layer_1"
   x="0px"
   y="0px"
   viewBox="0 0 101.5 162.61594"
   xml:space="preserve"
   sodipodi:docname="SDG_TARGET_34.svg"
   width="101.5"
   height="162.61594"
   inkscape:version="1.1.2 (0a00cf5339, 2022-02-04)"
   xmlns:inkscape="http://www.inkscape.org/namespaces/inkscape"
   xmlns:sodipodi="http://sodipodi.sourceforge.net/DTD/sodipodi-0.dtd"
   xmlns="http://www.w3.org/2000/svg"
   xmlns:svg="http://www.w3.org/2000/svg"
   xmlns:rdf="http://www.w3.org/1999/02/22-rdf-syntax-ns#"
   xmlns:cc="http://creativecommons.org/ns#"
   xmlns:dc="http://purl.org/dc/elements/1.1/"><sodipodi:namedview
   id="namedview193"
   pagecolor="#ffffff"
   bordercolor="#666666"
   borderopacity="1.0"
   inkscape:pageshadow="2"
   inkscape:pageopacity="0.0"
   inkscape:pagecheckerboard="0"
   showgrid="false"
   fit-margin-top="0"
   fit-margin-left="0"
   fit-margin-right="0"
   fit-margin-bottom="0"
   inkscape:zoom="3.903366"
   inkscape:cx="50.853546"
   inkscape:cy="92.099998"
   inkscape:window-width="2560"
   inkscape:window-height="1440"
   inkscape:window-x="2560"
   inkscape:window-y="0"
   inkscape:window-maximized="0"
   inkscape:current-layer="Layer_1" /><defs
   id="defs369">
	

	
	
	
	
	
	
	
	
	
	
	
	
	
	
	

		
		
		
		
		
		
		
		
		
		
		
		
		
		
		
		
		
		
		
		
		
		
		
		
		
		
		
		
		
		
		
		
		
		
		
		
		
		
		
		
		
		
		
		
		
		
		
		
		
		
		
		
		
		
		
		
		
		
		
		
		
		
		
		
		
	
			
		</defs>
<style
   type="text/css"
   id="style2">
	.st0{fill:#FFFFFF;}
	.st1{fill:#4C9F38;}
	.st2{enable-background:new    ;}
</style>
<title
   id="title4">TARGET 1.4</title>
<g
   id="g8"
   transform="scale(1,0.88282303)"
   inkscape:export-filename="/home/joe/Documents/Obsidian/SuperVault/Projects/Uni Projects/Individual project/Assesments/Poster/LaTex/images/SDG_TARGET_34.png"
   inkscape:export-xdpi="96"
   inkscape:export-ydpi="96">
		<rect
   y="0"
   class="st0"
   width="101.5"
   height="184.2"
   id="rect6"
   x="0" />
	</g>
<g
   id="g13">
			
		</g><g
   id="g17">
			
		</g><g
   id="g21">
			
		</g><g
   id="g25">
			
		</g><g
   id="g29">
			
		</g><g
   id="g33">
			
		</g><g
   id="g37">
			
		</g><g
   id="g41">
			
		</g><g
   id="g45">
			
		</g><g
   id="g49">
			
		</g><g
   id="g53">
			
		</g><g
   id="g57">
			
		</g><g
   id="g61">
			
		</g><g
   id="g65">
			
		</g><g
   id="g2389"
   inkscape:export-filename="/home/joe/Documents/Obsidian/SuperVault/Projects/Uni Projects/Individual project/Assesments/Poster/LaTex/images/SDG_TARGET_34.png"
   inkscape:export-xdpi="96"
   inkscape:export-ydpi="96"><path
     class="st1"
     d="M 7.6811808,131.42768 H 6.8 v -5.63956 h 1.9385977 c 1.4098893,0 1.9385973,0.61683 1.9385973,1.67424 0.08812,0.61683 -0.264354,1.23366 -0.8811804,1.49801 l 1.1455354,2.46731 H 9.8841327 L 8.9148339,129.13661 H 7.6811808 Z m 0,-3.08414 h 1.145535 c 0.7930627,0 0.8811807,-0.44059 0.8811807,-0.88118 0,-0.44059 -0.088118,-0.88118 -0.8811807,-0.88118 h -1.145535 z"
     id="path11"
     style="stroke-width:0.881181" /><path
     class="st1"
     d="m 14.642509,128.87225 h -2.379188 v 1.76236 h 2.643542 v 0.79307 h -3.436605 v -5.63956 h 3.436605 v 0.79306 h -2.643542 v 1.58613 h 2.379188 z"
     id="path15"
     style="stroke-width:0.881181" /><path
     class="st1"
     d="m 15.611808,131.42768 v -5.63956 h 1.674243 c 1.85048,0 2.379188,1.23365 2.379188,2.81978 0,1.58612 -0.528708,2.81978 -2.379188,2.81978 z m 0.88118,-0.79307 h 0.881181 c 1.145535,0 1.498007,-0.79306 1.498007,-2.02671 0,-1.23366 -0.352472,-2.02672 -1.498007,-2.02672 h -0.881181 z"
     id="path19"
     style="stroke-width:0.881181" /><path
     class="st1"
     d="m 20.282066,129.66531 v -3.87719 h 0.793062 v 3.78908 c -0.08812,0.61682 0.352473,1.14553 0.881181,1.14553 0.08812,0 0.176236,0 0.264354,0 0.528709,0.0881 1.145535,-0.26435 1.233653,-0.88118 0,-0.0881 0,-0.17624 0,-0.26435 v -3.78908 h 0.881181 v 3.87719 c 0,0.9693 -0.704944,1.85048 -1.762361,1.85048 -0.08812,0 -0.176237,0 -0.264355,0 -0.969298,0.17624 -1.938597,-0.5287 -2.026715,-1.58612 0,-0.0881 0,-0.17624 0,-0.26436 z"
     id="path23"
     style="stroke-width:0.881181" /><path
     class="st1"
     d="m 27.331512,125.7 c 0.44059,0 0.88118,0.0881 1.321771,0.26435 v 0.79307 c -0.440591,-0.17624 -0.793063,-0.26436 -1.233653,-0.26436 -1.057417,0 -1.498007,0.70495 -1.498007,2.11484 0,1.40989 0.44059,2.11483 1.498007,2.11483 0.44059,0 0.881181,-0.0881 1.233653,-0.26435 v 0.79306 c -0.440591,0.17624 -0.881181,0.26435 -1.321771,0.26435 -1.674244,0 -2.29107,-1.05741 -2.29107,-2.90789 0,-1.85048 0.704944,-2.9079 2.29107,-2.9079 z"
     id="path27"
     style="stroke-width:0.881181" /><path
     class="st1"
     d="m 32.618596,128.87225 h -2.379188 v 1.76236 h 2.555424 v 0.79307 h -3.436605 v -5.63956 h 3.436605 v 0.79306 h -2.555424 v 1.58613 h 2.379188 z"
     id="path31"
     style="stroke-width:0.881181" /></g><g
   id="g2400"
   transform="translate(1.7531363)"
   inkscape:export-filename="/home/joe/Documents/Obsidian/SuperVault/Projects/Uni Projects/Individual project/Assesments/Poster/LaTex/images/SDG_TARGET_34.png"
   inkscape:export-xdpi="96"
   inkscape:export-ydpi="96"><path
     class="st1"
     d="M 37.817563,130.63461 H 37.0245 l -1.409889,-3.4366 v 4.22967 H 34.73343 v -5.63956 h 1.057417 l 1.498007,3.78908 1.498008,-3.78908 h 1.057417 v 5.63956 h -0.881181 v -4.22967 z"
     id="path35"
     style="stroke-width:0.881181" /><path
     class="st1"
     d="m 40.637341,128.6079 c 0,-1.58613 0.352473,-2.9079 2.202952,-2.9079 1.85048,0 2.202952,1.32177 2.202952,2.9079 0,1.58612 -0.352472,2.90789 -2.202952,2.90789 -1.850479,0 -2.202952,-1.32177 -2.202952,-2.90789 z m 0.881181,0 c 0,1.32177 0.264354,2.11483 1.321771,2.11483 1.057417,0 1.321771,-0.79306 1.321771,-2.11483 0,-1.32177 -0.264354,-2.11484 -1.321771,-2.11484 -1.057417,0 -1.321771,0.79307 -1.321771,2.11484 z"
     id="path39"
     style="stroke-width:0.881181" /><path
     class="st1"
     d="m 46.453134,131.42768 h -0.881181 v -5.63956 h 1.938598 c 1.498007,0 1.938598,0.61683 1.938598,1.67424 0.08812,0.61683 -0.264354,1.23366 -0.881181,1.49801 l 1.145535,2.46731 h -1.057417 l -1.057417,-2.29107 h -1.145535 z m 0,-3.08414 h 1.145535 c 0.793063,0 0.881181,-0.44059 0.881181,-0.88118 0,-0.44059 -0.08812,-0.88118 -0.881181,-0.88118 h -1.145535 z"
     id="path43"
     style="stroke-width:0.881181" /><path
     class="st1"
     d="m 52.004573,126.58118 v 4.8465 h -0.881181 v -4.8465 h -1.409889 v -0.79306 h 3.789077 v 0.79306 z"
     id="path47"
     style="stroke-width:0.881181" /><path
     class="st1"
     d="m 56.146123,130.1059 h -1.762362 l -0.44059,1.40989 H 53.06199 l 1.762361,-5.63955 h 0.881181 l 1.762362,5.63955 h -0.881181 z m -0.881181,-3.26036 -0.704945,2.4673 h 1.409889 z"
     id="path51"
     style="stroke-width:0.881181" /><path
     class="st1"
     d="m 58.789665,130.63461 h 2.467306 v 0.79307 h -3.260369 v -5.63956 h 0.881181 z"
     id="path55"
     style="stroke-width:0.881181" /><path
     class="st1"
     d="m 61.785679,131.42768 v -5.63956 h 0.881181 v 5.63956 z"
     id="path59"
     style="stroke-width:0.881181" /><path
     class="st1"
     d="m 65.486639,126.58118 v 4.8465 h -0.881181 v -4.8465 h -1.409889 v -0.79306 h 3.789077 v 0.79306 z"
     id="path63"
     style="stroke-width:0.881181" /><path
     class="st1"
     d="m 69.892542,129.22472 v 2.29107 h -0.88118 v -2.29107 l -1.938598,-3.34848 h 0.969299 l 1.409889,2.64354 1.409889,-2.64354 h 0.969299 z"
     id="path67"
     style="stroke-width:0.881181" /></g><g
   id="g2194"
   transform="matrix(0.88118076,0,0,0.88118113,70.380774,7.0930732)"
   inkscape:export-filename="/home/joe/Documents/Obsidian/SuperVault/Projects/Uni Projects/Individual project/Assesments/Poster/LaTex/images/SDG_TARGET_34.png"
   inkscape:export-xdpi="96"
   inkscape:export-ydpi="96"><g
     id="g73">
			<path
   class="st1"
   d="M 10.4,138.4 H 7.8 v 2.8 h -1 v -6.4 h 3.9 v 0.9 H 7.8 v 1.8 h 2.6 z"
   id="path71" />
		</g><g
     id="g77">
			<path
   class="st1"
   d="m 12.2,141.2 h -0.9 v -6.4 h 2.1 c 1.6,0 2.2,0.7 2.2,1.9 0.1,0.7 -0.3,1.4 -1,1.7 l 1.3,2.8 h -1.2 l -1.1,-2.6 h -1.3 v 2.6 z m 0,-3.5 h 1.3 c 0.9,0 1,-0.5 1,-1 0,-0.5 -0.1,-1 -1,-1 h -1.3 z"
   id="path75" />
		</g><g
     id="g81">
			<path
   class="st1"
   d="m 16.2,138 c 0,-1.8 0.4,-3.3 2.5,-3.3 2.1,0 2.5,1.5 2.5,3.3 0,1.8 -0.4,3.3 -2.5,3.3 -2.1,0 -2.5,-1.5 -2.5,-3.3 z m 1,0 c 0,1.5 0.3,2.4 1.5,2.4 1.2,0 1.5,-0.9 1.5,-2.4 0,-1.5 -0.3,-2.4 -1.5,-2.4 -1.2,0 -1.5,0.9 -1.5,2.4 z"
   id="path79" />
		</g><g
     id="g85">
			<path
   class="st1"
   d="m 25.4,140.3 h -0.9 l -1.6,-3.9 v 4.8 H 22 v -6.4 h 1.2 l 1.8,4.3 1.7,-4.3 h 1.2 v 6.4 H 27 v -4.8 z"
   id="path83" />
		</g></g><g
   id="g2228"
   transform="matrix(0.88118076,0,0,0.88118113,0.80797086,6.9011059)"
   inkscape:export-filename="/home/joe/Documents/Obsidian/SuperVault/Projects/Uni Projects/Individual project/Assesments/Poster/LaTex/images/SDG_TARGET_34.png"
   inkscape:export-xdpi="96"
   inkscape:export-ydpi="96"><g
     id="g89">
			<path
   class="st1"
   d="m 10.6,150.2 -2.8,-4.5 v 4.5 H 6.9 v -6.4 h 0.9 l 2.8,4.5 v -4.5 h 0.9 v 6.4 z"
   id="path87" />
		</g><g
     id="g93">
			<path
   class="st1"
   d="m 12.3,147 c 0,-1.8 0.4,-3.3 2.5,-3.3 2.1,0 2.5,1.5 2.5,3.3 0,1.8 -0.4,3.3 -2.4,3.3 -2,0 -2.6,-1.5 -2.6,-3.3 z m 1,0 c 0,1.5 0.3,2.4 1.5,2.4 1.2,0 1.5,-0.9 1.5,-2.4 0,-1.5 -0.3,-2.4 -1.5,-2.4 -1.2,0 -1.5,0.9 -1.5,2.4 z"
   id="path91" />
		</g><g
     id="g97">
			<path
   class="st1"
   d="m 21.6,150.2 -2.8,-4.5 v 4.5 H 18 v -6.4 h 0.9 l 2.8,4.5 v -4.5 h 0.9 v 6.4 z"
   id="path95" />
		</g><g
     id="g101">
			<path
   class="st1"
   d="M 25.2,147.4 H 23 v -0.9 h 2.2 z"
   id="path99" />
		</g><g
     id="g105">
			<path
   class="st1"
   d="m 28.4,143.7 c 0.5,0 1,0.1 1.5,0.3 v 0.9 c -0.5,-0.2 -0.9,-0.3 -1.4,-0.3 -1.2,0 -1.7,0.8 -1.7,2.4 0,1.6 0.5,2.4 1.7,2.4 0.5,0 1,-0.1 1.4,-0.3 v 0.9 c -0.5,0.2 -1,0.3 -1.5,0.3 -1.9,0 -2.6,-1.2 -2.6,-3.3 0,-2.1 0.7,-3.3 2.6,-3.3 z"
   id="path103" />
		</g><g
     id="g109">
			<path
   class="st1"
   d="m 30.5,147 c 0,-1.8 0.4,-3.3 2.5,-3.3 2.1,0 2.5,1.5 2.5,3.3 0,1.8 -0.4,3.3 -2.5,3.3 -2.1,0 -2.5,-1.5 -2.5,-3.3 z m 1,0 c 0,1.5 0.3,2.4 1.5,2.4 1.2,0 1.5,-0.9 1.5,-2.4 0,-1.5 -0.3,-2.4 -1.5,-2.4 -1.2,0 -1.6,0.9 -1.5,2.4 z"
   id="path107" />
		</g><g
     id="g113">
			<path
   class="st1"
   d="M 39.5,149.3 H 38.6 L 37,145.4 v 4.8 h -1 v -6.4 h 1.2 l 1.7,4.3 1.7,-4.3 H 42 v 6.4 h -1 v -4.8 z"
   id="path111" />
		</g><g
     id="g117">
			<path
   class="st1"
   d="m 46.4,149.3 h -0.9 l -1.6,-3.9 v 4.8 H 43 v -6.4 h 1.2 l 1.7,4.3 1.7,-4.3 h 1.2 v 6.4 h -1 v -4.8 z"
   id="path115" />
		</g><g
     id="g121">
			<path
   class="st1"
   d="m 49.8,148.2 v -4.4 h 1 v 4.3 c 0,0.8 0.6,1.4 1.4,1.4 0.8,0 1.4,-0.6 1.4,-1.4 v -4.3 h 1 v 4.4 c -0.1,1.3 -1.2,2.2 -2.5,2.1 -1.3,-0.1 -2.2,-1 -2.3,-2.1 z"
   id="path119" />
		</g><g
     id="g125">
			<path
   class="st1"
   d="m 58.9,150.2 -2.8,-4.5 v 4.5 h -0.9 v -6.4 H 56 l 2.8,4.5 v -4.5 h 0.9 v 6.4 z"
   id="path123" />
		</g><g
     id="g129">
			<path
   class="st1"
   d="m 60.7,150.2 v -6.4 h 1 v 6.4 z"
   id="path127" />
		</g><g
     id="g133">
			<path
   class="st1"
   d="m 65.2,143.7 c 0.5,0 1,0.1 1.5,0.3 v 0.9 c -0.4,-0.2 -0.9,-0.3 -1.4,-0.3 -1.2,0 -1.7,0.8 -1.7,2.4 0,1.6 0.5,2.4 1.7,2.4 0.5,0 1,-0.1 1.4,-0.3 v 0.9 c -0.5,0.2 -1,0.3 -1.5,0.3 -1.9,0 -2.6,-1.2 -2.6,-3.3 0,-2.1 0.7,-3.3 2.6,-3.3 z"
   id="path131" />
		</g><g
     id="g137">
			<path
   class="st1"
   d="m 70.5,148.7 h -2 l -0.5,1.6 h -1 l 2,-6.4 h 1 l 2,6.4 h -1 z m -1,-3.7 -0.8,2.8 h 1.6 z"
   id="path135" />
		</g><g
     id="g141">
			<path
   class="st1"
   d="m 72.5,143.8 h 2.1 c 1.6,0 2,0.8 2,1.7 0,0.5 -0.3,1 -0.8,1.3 0.6,0.2 1.1,0.8 1,1.5 0,1.1 -0.5,1.9 -2.2,1.9 h -2.2 v -6.4 z m 2.2,0.9 h -1.2 v 1.8 h 1.2 c 0.4,0.1 0.9,-0.2 0.9,-0.7 0,-0.1 0,-0.1 0,-0.2 0.1,-0.4 -0.1,-0.9 -0.9,-0.9 z m -1.2,4.6 h 1.3 c 0.9,0 1.1,-0.5 1.1,-1 0,-0.5 -0.3,-1 -1.1,-1 h -1.3 z"
   id="path139" />
		</g><g
     id="g145">
			<path
   class="st1"
   d="m 78.6,149.3 h 2.8 v 0.9 h -3.7 v -6.4 h 1 z"
   id="path143" />
		</g><g
     id="g149">
			<path
   class="st1"
   d="m 85.4,147.3 h -2.6 v 2 h 2.9 v 0.9 h -3.9 v -6.4 h 3.9 v 0.9 h -2.9 v 1.8 h 2.7 z"
   id="path147" />
		</g></g><g
   id="g2440"
   inkscape:export-filename="/home/joe/Documents/Obsidian/SuperVault/Projects/Uni Projects/Individual project/Assesments/Poster/LaTex/images/SDG_TARGET_34.png"
   inkscape:export-xdpi="96"
   inkscape:export-ydpi="96"><g
     id="g153"
     transform="matrix(0.88118076,0,0,0.88118076,0.80797086,7.1118562)">
			<path
   class="st1"
   d="m 6.9,159.2 v -6.4 h 1.9 c 2.1,0 2.7,1.4 2.7,3.2 0,1.8 -0.6,3.2 -2.7,3.2 z m 1,-0.9 h 1 c 1.3,0 1.7,-0.9 1.7,-2.3 0,-1.4 -0.4,-2.3 -1.7,-2.3 h -1 z"
   id="path151" />
		</g><g
     id="g157"
     transform="matrix(0.88118076,0,0,0.88118076,0.80797086,7.1118562)">
			<path
   class="st1"
   d="m 12.3,159.2 v -6.4 h 0.9 v 6.4 z"
   id="path155" />
		</g><g
     id="g161"
     transform="matrix(0.88118076,0,0,0.88118076,0.80797086,7.1118562)">
			<path
   class="st1"
   d="m 18.5,157.3 c 0,1.2 -0.7,2 -2.4,2 -0.6,0 -1.3,-0.1 -1.9,-0.4 V 158 c 0.6,0.3 1.2,0.4 1.8,0.4 1.1,0 1.5,-0.5 1.5,-1.1 0,-0.6 -0.3,-0.9 -1.2,-1 -1.6,-0.2 -2.2,-0.6 -2.2,-1.8 0,-0.9 0.5,-1.8 2.3,-1.8 0.6,0 1.2,0.1 1.7,0.3 v 1 c -0.5,-0.2 -1.1,-0.3 -1.7,-0.3 -1,0 -1.3,0.4 -1.3,1 0,0.7 0.4,0.8 1.2,0.9 1.5,0.1 2.2,0.4 2.2,1.7 z"
   id="path159" />
		</g><g
     id="g165"
     transform="matrix(0.88118076,0,0,0.88118076,0.80797086,7.1118562)">
			<path
   class="st1"
   d="m 22.8,156.3 h -2.6 v 2 h 2.9 v 0.9 h -3.9 v -6.4 h 3.9 v 0.9 h -2.9 v 1.8 h 2.6 z"
   id="path163" />
		</g><g
     id="g169"
     transform="matrix(0.88118076,0,0,0.88118076,0.80797086,7.1118562)">
			<path
   class="st1"
   d="m 27,157.7 h -2 l -0.5,1.6 h -1 l 2,-6.4 h 1 l 2,6.4 h -1 z m -1,-3.7 -0.8,2.8 h 1.6 z"
   id="path167" />
		</g><g
     id="g173"
     transform="matrix(0.88118076,0,0,0.88118076,0.80797086,7.1118562)">
			<path
   class="st1"
   d="m 33,157.3 c 0,1.2 -0.7,2 -2.4,2 -0.6,0 -1.3,-0.1 -1.9,-0.4 V 158 c 0.6,0.3 1.2,0.4 1.8,0.4 1.1,0 1.5,-0.5 1.5,-1.1 0,-0.6 -0.3,-0.9 -1.2,-1 -1.5,-0.2 -2.1,-0.6 -2.1,-1.8 0,-0.9 0.5,-1.8 2.3,-1.8 0.6,0 1.2,0.1 1.7,0.3 v 1 c -0.5,-0.2 -1.1,-0.3 -1.7,-0.3 -1,0 -1.3,0.4 -1.3,1 0,0.7 0.4,0.8 1.2,0.9 1.4,0.1 2.1,0.4 2.1,1.7 z"
   id="path171" />
		</g><g
     id="g177"
     transform="matrix(0.88118076,0,0,0.88118076,0.80797086,7.1118562)">
			<path
   class="st1"
   d="m 37.5,156.3 h -2.7 v 2 h 2.9 v 0.9 h -3.9 v -6.4 h 3.9 v 0.9 h -2.9 v 1.8 h 2.7 z"
   id="path175" />
		</g><g
     id="g181"
     transform="matrix(0.88118076,0,0,0.88118076,0.80797086,7.1118562)">
			<path
   class="st1"
   d="m 42.6,157.3 c 0,1.2 -0.7,2 -2.4,2 -0.6,0 -1.3,-0.1 -1.9,-0.3 v -1 c 0.6,0.3 1.2,0.4 1.8,0.4 1.1,0 1.5,-0.5 1.5,-1.1 0,-0.6 -0.3,-0.9 -1.2,-1 -1.6,-0.2 -2.2,-0.6 -2.2,-1.8 0,-0.9 0.5,-1.8 2.3,-1.8 0.6,0 1.2,0.1 1.7,0.3 v 1 c -0.5,-0.2 -1.1,-0.3 -1.7,-0.3 -1,0 -1.3,0.4 -1.3,1 0,0.7 0.4,0.8 1.2,0.9 1.4,0.1 2.2,0.4 2.2,1.7 z"
   id="path179" />
		</g></g><g
   id="g2448"
   transform="translate(0.99639735)"
   inkscape:export-filename="/home/joe/Documents/Obsidian/SuperVault/Projects/Uni Projects/Individual project/Assesments/Poster/LaTex/images/SDG_TARGET_34.png"
   inkscape:export-xdpi="96"
   inkscape:export-ydpi="96"><g
     id="g185"
     transform="matrix(0.88118076,0,0,0.88118076,0.80797086,7.1118562)">
			<path
   class="st1"
   d="m 48,157.7 h -2 l -0.5,1.6 h -1 l 2,-6.4 h 1 l 2,6.4 h -1 z m -1,-3.7 -0.8,2.8 h 1.6 z"
   id="path183" />
		</g><g
     id="g189"
     transform="matrix(0.88118076,0,0,0.88118076,0.80797086,7.1118562)">
			<path
   class="st1"
   d="m 53.6,159.2 -2.8,-4.5 v 4.5 H 50 v -6.4 h 0.9 l 2.8,4.5 v -4.5 h 1 v 6.4 z"
   id="path187" />
		</g><g
     id="g193"
     transform="matrix(0.88118076,0,0,0.88118076,0.80797086,7.1118562)">
			<path
   class="st1"
   d="m 55.5,159.2 v -6.4 h 1.9 c 2.1,0 2.7,1.4 2.7,3.2 0,1.8 -0.6,3.2 -2.7,3.2 z m 0.9,-0.9 h 1 c 1.3,0 1.7,-0.9 1.7,-2.3 0,-1.4 -0.4,-2.3 -1.7,-2.3 h -1 z"
   id="path191" />
		</g></g><g
   id="g2350"
   transform="translate(1.8204633,-7.823726)"
   inkscape:export-filename="/home/joe/Documents/Obsidian/SuperVault/Projects/Uni Projects/Individual project/Assesments/Poster/LaTex/images/SDG_TARGET_34.png"
   inkscape:export-xdpi="96"
   inkscape:export-ydpi="96"><g
     id="g197"
     transform="matrix(0.88118076,0,0,0.88118076,50.02483,6.9168341)">
			<path
   class="st1"
   d="m 7.8,168.2 h -1 v -6.4 h 2.1 c 1.6,0 2.2,0.9 2.2,2 0,1.1 -0.6,2 -2.2,2 H 7.8 Z m 0,-3.2 H 9 c 0.6,0.1 1.2,-0.4 1.2,-1 0.1,-0.6 -0.4,-1.2 -1,-1.2 -0.1,0 -0.1,0 -0.2,0 H 7.8 Z"
   id="path195" />
		</g><g
     id="g201"
     transform="matrix(0.88118076,0,0,0.88118076,50.02483,6.9168341)">
			<path
   class="st1"
   d="m 12.7,168.2 h -1 v -6.4 h 2.1 c 1.6,0 2.2,0.7 2.2,1.9 0.1,0.7 -0.3,1.4 -1,1.7 l 1.3,2.8 H 15.2 L 14,165.6 h -1.3 z m 0,-3.5 h 1.2 c 0.9,0 1,-0.5 1,-1 0,-0.5 -0.1,-1 -1,-1 h -1.2 z"
   id="path199" />
		</g><g
     id="g205"
     transform="matrix(0.88118076,0,0,0.88118076,50.02483,6.9168341)">
			<path
   class="st1"
   d="m 16.7,165 c 0,-1.8 0.4,-3.3 2.5,-3.3 2.1,0 2.5,1.5 2.5,3.3 0,1.8 -0.4,3.3 -2.5,3.3 -2.1,0 -2.5,-1.5 -2.5,-3.3 z m 1,0 c 0,1.5 0.3,2.4 1.5,2.4 1.2,0 1.5,-0.9 1.5,-2.4 0,-1.5 -0.3,-2.4 -1.5,-2.4 -1.2,0 -1.5,0.9 -1.5,2.4 z"
   id="path203" />
		</g><g
     id="g209"
     transform="matrix(0.88118076,0,0,0.88118076,50.02483,6.9168341)">
			<path
   class="st1"
   d="m 25.8,167.3 h -0.9 l -1.6,-3.9 v 4.8 h -1 v -6.4 h 1.2 l 1.7,4.3 1.7,-4.3 h 1.2 v 6.4 h -1 v -4.8 z"
   id="path207" />
		</g><g
     id="g213"
     transform="matrix(0.88118076,0,0,0.88118076,50.02483,6.9168341)">
			<path
   class="st1"
   d="m 29.1,165 c 0,-1.8 0.4,-3.3 2.5,-3.3 2.1,0 2.5,1.5 2.5,3.3 0,1.8 -0.4,3.3 -2.5,3.3 -2.1,0 -2.5,-1.5 -2.5,-3.3 z m 1,0 c 0,1.5 0.3,2.4 1.5,2.4 1.2,0 1.5,-0.9 1.5,-2.4 0,-1.5 -0.3,-2.4 -1.5,-2.4 -1.2,0 -1.5,0.9 -1.5,2.4 z"
   id="path211" />
		</g><g
     id="g217"
     transform="matrix(0.88118076,0,0,0.88118076,50.02483,6.9168341)">
			<path
   class="st1"
   d="m 36.8,162.7 v 5.5 h -1 v -5.5 h -1.6 v -0.9 h 4.3 v 0.9 z"
   id="path215" />
		</g><g
     id="g221"
     transform="matrix(0.88118076,0,0,0.88118076,50.02483,6.9168341)">
			<path
   class="st1"
   d="M 42.7,165.3 H 40 v 2 h 3 v 0.9 h -3.9 v -6.4 H 43 v 0.9 h -3 v 1.8 h 2.7 z"
   id="path219" />
		</g></g><g
   id="g2334"
   transform="translate(-82.877964,0.02033327)"
   inkscape:export-filename="/home/joe/Documents/Obsidian/SuperVault/Projects/Uni Projects/Individual project/Assesments/Poster/LaTex/images/SDG_TARGET_34.png"
   inkscape:export-xdpi="96"
   inkscape:export-ydpi="96"><g
     id="g225"
     transform="matrix(0.88118076,0,0,0.88118076,50.02483,6.9168341)">
			<path
   class="st1"
   d="m 48.6,167.3 h -0.9 l -1.6,-3.9 v 4.8 h -1 v -6.4 h 1.2 l 1.7,4.3 1.7,-4.3 H 51 v 6.4 h -1 v -4.8 z"
   id="path223" />
		</g><g
     id="g229"
     transform="matrix(0.88118076,0,0,0.88118076,50.02483,6.9168341)">
			<path
   class="st1"
   d="M 55.6,165.3 H 53 v 2 h 2.9 v 0.9 H 52 v -6.4 h 3.9 v 0.9 H 53 v 1.8 h 2.7 z"
   id="path227" />
		</g><g
     id="g233"
     transform="matrix(0.88118076,0,0,0.88118076,50.02483,6.9168341)">
			<path
   class="st1"
   d="m 60.4,168.2 -2.8,-4.5 v 4.5 h -1 v -6.4 h 0.9 l 2.8,4.5 v -4.5 h 0.9 v 6.4 z"
   id="path231" />
		</g><g
     id="g237"
     transform="matrix(0.88118076,0,0,0.88118076,50.02483,6.9168341)">
			<path
   class="st1"
   d="m 64.4,162.7 v 5.5 h -1 v -5.5 h -1.6 v -0.9 h 4.3 v 0.9 z"
   id="path235" />
		</g><g
     id="g241"
     transform="matrix(0.88118076,0,0,0.88118076,50.02483,6.9168341)">
			<path
   class="st1"
   d="m 69.1,166.7 h -2 l -0.5,1.6 h -1 l 2,-6.4 h 1 l 2,6.4 h -1 z m -1,-3.7 -0.8,2.8 h 1.6 z"
   id="path239" />
		</g><g
     id="g245"
     transform="matrix(0.88118076,0,0,0.88118076,50.02483,6.9168341)">
			<path
   class="st1"
   d="m 72.1,167.3 h 2.8 v 0.9 h -3.7 v -6.4 h 1 z"
   id="path243" />
		</g></g><g
   id="g2294"
   transform="matrix(0.88118076,0,0,0.88118113,30.44984,-0.99345915)"
   inkscape:export-filename="/home/joe/Documents/Obsidian/SuperVault/Projects/Uni Projects/Individual project/Assesments/Poster/LaTex/images/SDG_TARGET_34.png"
   inkscape:export-xdpi="96"
   inkscape:export-ydpi="96"><g
     id="g249">
			<path
   class="st1"
   d="m 10.4,177.2 v -2.9 H 7.8 v 2.9 h -1 v -6.4 h 1 v 2.6 h 2.6 v -2.6 h 1 v 6.4 z"
   id="path247" />
		</g><g
     id="g253">
			<path
   class="st1"
   d="m 15.9,174.3 h -2.7 v 2 h 2.9 v 0.9 h -3.9 v -6.4 h 3.9 v 0.9 h -2.9 v 1.8 h 2.7 z"
   id="path251" />
		</g><g
     id="g257">
			<path
   class="st1"
   d="m 20.1,175.7 h -2 l -0.5,1.6 h -1 l 2,-6.4 h 1 l 2,6.4 h -1 z m -1,-3.7 -0.8,2.8 H 20 Z"
   id="path255" />
		</g><g
     id="g261">
			<path
   class="st1"
   d="m 23.1,176.3 h 2.8 v 0.9 h -3.7 v -6.4 h 1 z"
   id="path259" />
		</g><g
     id="g265">
			<path
   class="st1"
   d="m 27.9,171.7 v 5.5 h -1 v -5.5 h -1.7 v -0.9 h 4.3 v 0.9 z"
   id="path263" />
		</g><g
     id="g269">
			<path
   class="st1"
   d="m 33.7,177.2 v -2.9 h -2.6 v 2.9 h -1 v -6.4 h 1 v 2.6 h 2.6 v -2.6 h 1 v 6.4 z"
   id="path267" />
		</g></g><g
   id="g275"
   inkscape:export-filename="/home/joe/Documents/Obsidian/SuperVault/Projects/Uni Projects/Individual project/Assesments/Poster/LaTex/images/SDG_TARGET_34.png"
   inkscape:export-xdpi="96"
   inkscape:export-ydpi="96">
		<rect
   x="3.3"
   y="24"
   class="st1"
   width="94.800003"
   height="94.800003"
   id="rect273" />
	</g><g
   id="g279"
   inkscape:export-filename="/home/joe/Documents/Obsidian/SuperVault/Projects/Uni Projects/Individual project/Assesments/Poster/LaTex/images/SDG_TARGET_34.png"
   inkscape:export-xdpi="96"
   inkscape:export-ydpi="96">
		<path
   class="st1"
   d="M 98.2,20.7 H 3.3 V 3.3 H 98.1 V 20.7 Z M 4.3,19.7 H 97.1 V 4.3 H 4.3 Z"
   id="path277" />
	</g><g
   class="st2"
   id="g283"
   inkscape:export-filename="/home/joe/Documents/Obsidian/SuperVault/Projects/Uni Projects/Individual project/Assesments/Poster/LaTex/images/SDG_TARGET_34.png"
   inkscape:export-xdpi="96"
   inkscape:export-ydpi="96">
		<path
   class="st1"
   d="m 6.7,6.9 h 4.5 V 8.3 H 9.9 v 8.8 H 8.1 V 8.3 H 6.7 Z"
   id="path281" />
	</g><g
   class="st2"
   id="g287"
   inkscape:export-filename="/home/joe/Documents/Obsidian/SuperVault/Projects/Uni Projects/Individual project/Assesments/Poster/LaTex/images/SDG_TARGET_34.png"
   inkscape:export-xdpi="96"
   inkscape:export-ydpi="96">
		<path
   class="st1"
   d="M 11.2,17.1 13.1,6.9 H 15 l 2,10.2 h -1.8 l -0.3,-1.9 h -1.8 l -0.3,1.9 z m 2.1,-3.2 h 1.4 L 14,9.8 v 0 z"
   id="path285" />
	</g><g
   class="st2"
   id="g291"
   inkscape:export-filename="/home/joe/Documents/Obsidian/SuperVault/Projects/Uni Projects/Individual project/Assesments/Poster/LaTex/images/SDG_TARGET_34.png"
   inkscape:export-xdpi="96"
   inkscape:export-ydpi="96">
		<path
   class="st1"
   d="m 19.6,12.5 v 4.7 H 17.9 V 6.9 h 2.5 c 1.7,0 2.4,0.9 2.4,2.3 v 1.3 c 0,1.1 -0.4,1.7 -1.4,2 l 1.6,4.6 h -1.8 z m 0,-4.2 v 3.2 h 0.6 c 0.6,0 0.8,-0.3 0.8,-0.8 V 9.2 C 21,8.6 20.7,8.4 20.2,8.4 h -0.6 z"
   id="path289" />
	</g><g
   class="st2"
   id="g295"
   inkscape:export-filename="/home/joe/Documents/Obsidian/SuperVault/Projects/Uni Projects/Individual project/Assesments/Poster/LaTex/images/SDG_TARGET_34.png"
   inkscape:export-xdpi="96"
   inkscape:export-ydpi="96">
		<path
   class="st1"
   d="m 26.4,11.7 h 2.4 v 5.4 H 27.6 V 16 c -0.2,0.8 -0.7,1.2 -1.6,1.2 -1.5,0 -2.1,-1.2 -2.1,-2.7 V 9.6 c 0,-1.6 0.8,-2.7 2.6,-2.7 1.9,0 2.4,1.1 2.4,2.6 v 0.9 h -1.6 v -1 c 0,-0.6 -0.2,-1 -0.9,-1 -0.6,0 -0.9,0.4 -0.9,1 v 5.5 c 0,0.6 0.3,1 0.8,1 0.6,0 0.8,-0.3 0.8,-1 V 13 h -0.8 v -1.3 z"
   id="path293" />
	</g><g
   class="st2"
   id="g299"
   inkscape:export-filename="/home/joe/Documents/Obsidian/SuperVault/Projects/Uni Projects/Individual project/Assesments/Poster/LaTex/images/SDG_TARGET_34.png"
   inkscape:export-xdpi="96"
   inkscape:export-ydpi="96">
		<path
   class="st1"
   d="m 30.2,6.9 h 4.1 v 1.4 h -2.4 v 2.9 h 1.7 v 1.4 h -1.7 v 3.1 h 2.4 v 1.4 h -4.1 z"
   id="path297" />
	</g><g
   class="st2"
   id="g303"
   inkscape:export-filename="/home/joe/Documents/Obsidian/SuperVault/Projects/Uni Projects/Individual project/Assesments/Poster/LaTex/images/SDG_TARGET_34.png"
   inkscape:export-xdpi="96"
   inkscape:export-ydpi="96">
		<path
   class="st1"
   d="m 35.1,6.9 h 4.5 v 1.4 h -1.4 v 8.8 H 36.5 V 8.3 h -1.4 z"
   id="path301" />
	</g><g
   class="st2"
   id="g307"
   inkscape:export-filename="/home/joe/Documents/Obsidian/SuperVault/Projects/Uni Projects/Individual project/Assesments/Poster/LaTex/images/SDG_TARGET_34.png"
   inkscape:export-xdpi="96"
   inkscape:export-ydpi="96">
		<path
   class="st1"
   d="M 83.7,9.2 V 10 c 0,0.9 -0.5,1.4 -1.2,1.7 0.9,0.2 1.3,0.8 1.3,1.7 v 1.5 c 0,1.4 -0.8,2.3 -2.5,2.3 -1.7,0 -2.4,-1 -2.4,-2.5 v -1.3 h 1.6 v 1.5 c 0,0.6 0.2,1 0.8,1 0.5,0 0.8,-0.4 0.8,-0.9 v -1.7 c 0,-0.5 -0.2,-0.8 -0.8,-0.8 h -0.7 v -1.3 h 0.6 c 0.6,0 0.9,-0.3 0.9,-0.8 V 9.2 c 0,-0.6 -0.2,-0.9 -0.7,-0.9 -0.5,0 -0.7,0.4 -0.7,1 v 1 H 79 V 9.4 c 0,-1.5 0.6,-2.6 2.4,-2.6 1.6,0 2.3,0.9 2.3,2.4 z"
   id="path305" />
	</g><g
   class="st2"
   id="g309">
	</g><g
   class="st2"
   id="g313"
   inkscape:export-filename="/home/joe/Documents/Obsidian/SuperVault/Projects/Uni Projects/Individual project/Assesments/Poster/LaTex/images/SDG_TARGET_34.png"
   inkscape:export-xdpi="96"
   inkscape:export-ydpi="96">
		<path
   class="st1"
   d="m 86.6,10.8 c 0.7,0 1.2,0.6 1.2,1.2 0,0.7 -0.6,1.2 -1.2,1.2 -0.7,0 -1.2,-0.6 -1.2,-1.2 0,-0.6 0.6,-1.2 1.2,-1.2 z"
   id="path311" />
	</g><g
   class="st2"
   id="g317"
   inkscape:export-filename="/home/joe/Documents/Obsidian/SuperVault/Projects/Uni Projects/Individual project/Assesments/Poster/LaTex/images/SDG_TARGET_34.png"
   inkscape:export-xdpi="96"
   inkscape:export-ydpi="96">
		<path
   class="st1"
   d="m 89.1,14.4 3,-7.5 h 1.7 v 7.2 h 0.7 v 1.3 h -0.7 v 1.7 h -1.6 v -1.7 h -3 v -1 z m 1.5,-0.3 h 1.5 v -4.2 0 z"
   id="path315" />
	</g><g
   id="g321"
   transform="matrix(1,0,0,0.63235438,0,44.889581)"
   inkscape:export-filename="/home/joe/Documents/Obsidian/SuperVault/Projects/Uni Projects/Individual project/Assesments/Poster/LaTex/images/SDG_TARGET_34.png"
   inkscape:export-xdpi="96"
   inkscape:export-ydpi="96">
		<path
   class="st1"
   d="m 98.2,180.9 h -95 v -58.8 h 95 z m -94,-1 h 93 v -56.8 h -93 z"
   id="path319" />
	</g><g
   id="g363"
   inkscape:export-filename="/home/joe/Documents/Obsidian/SuperVault/Projects/Uni Projects/Individual project/Assesments/Poster/LaTex/images/SDG_TARGET_34.png"
   inkscape:export-xdpi="96"
   inkscape:export-ydpi="96">
		<g
   id="g325">
			<path
   class="st0"
   d="m 76.4,75.4 c 0,1.8 1.4,3.2 3.2,3.2 1.8,0 3.2,-1.4 3.2,-3.2 0,-1.8 -1.4,-3.2 -3.2,-3.2 v 0 c -1.7,0 -3.2,1.4 -3.2,3.2 z"
   id="path323" />
		</g>
		<g
   id="g329">
			<path
   class="st0"
   d="m 48.4,77 c 0,1.7 1.3,3 3,3 1.7,0 3,-1.3 3,-3 0,-1.7 -1.3,-3 -3,-3 -1.7,0 -3,1.4 -3,3 z"
   id="path327" />
		</g>
		<g
   id="g333">
			<path
   class="st0"
   d="m 20.9,75.4 c 0,1.8 1.4,3.2 3.2,3.2 1.8,0 3.2,-1.4 3.2,-3.2 0,-1.8 -1.4,-3.2 -3.2,-3.2 -1.8,0 -3.2,1.4 -3.2,3.2 z"
   id="path331" />
		</g>
		<g
   id="g337">
			<path
   class="st0"
   d="M 39.5,56.1 H 40 c 0.6,0 1.1,-0.4 1.3,-1 l 2.4,-8.1 4.7,18.8 c 0.1,0.6 0.6,1.1 1.2,1.2 h 0.2 c 0.5,0 1,-0.3 1.3,-0.8 l 6.8,-13.4 2.5,6.8 c 0.2,0.5 0.7,0.9 1.3,0.9 v 0 c 0.6,0 1.1,-0.4 1.3,-0.9 l 8.6,-21.6 2.3,5.6 c 0.3,0.7 1.1,1 1.8,0.7 0.7,-0.3 1,-1.1 0.7,-1.8 v 0 L 72.7,33.7 C 72.5,33.2 72,32.9 71.4,32.9 v 0 c -0.6,0 -1.1,0.3 -1.3,0.9 L 61.6,55.2 59.2,48.7 C 59,48.2 58.5,47.8 58,47.8 c -0.6,0 -1.1,0.3 -1.3,0.8 L 50.4,61 45.4,41.5 c -0.1,-0.6 -0.6,-1.1 -1.2,-1.1 -0.6,0 -1.2,0.4 -1.4,1 l -3.7,12 H 16.2 v 2.8 z"
   id="path335" />
		</g>
		<g
   id="g341">
			<path
   class="st0"
   d="m 71.4,51 c 0,1.2 0.5,2.4 1.3,3.3 l 6.4,6.4 6.3,-6.4 v 0 c 0.9,-0.9 1.3,-2.1 1.3,-3.3 0,-2.5 -1.6,-4.6 -4.1,-4.6 -1.2,0 -2.7,1.4 -3.6,2.2 -0.8,-0.8 -2.2,-2.2 -3.4,-2.2 -2.4,0.1 -4.3,2 -4.2,4.4 0,0.1 0,0.1 0,0.2 z"
   id="path339" />
		</g>
		<g
   id="g345">
			<path
   class="st0"
   d="m 83.4,79.8 h -0.2 -7 -0.2 c -2.2,0.2 -3.9,2 -3.9,4.3 V 93 c -0.1,0.7 0.4,1.3 1.1,1.4 0.7,0.1 1.3,-0.4 1.4,-1.1 0,-0.1 0,-0.1 0,-0.2 v -7.7 c 0,-0.3 0.1,-0.7 0.6,-0.7 0.4,0 0.4,0.4 0.4,0.6 v 22.9 c -0.1,1 0.7,1.8 1.7,1.9 1,0.1 1.8,-0.7 1.9,-1.7 0,-0.1 0,-0.2 0,-0.3 V 95 c 0,-0.3 0.2,-0.5 0.5,-0.5 0,0 0,0 0,0 v 0 c 0.3,0 0.5,0.2 0.5,0.4 0,0 0,0 0,0.1 v 13.2 c 0,1 0.8,1.8 1.8,1.8 1,0 1.8,-0.8 1.8,-1.8 V 85.3 c 0,-0.2 0.1,-0.6 0.4,-0.6 0.5,0 0.6,0.4 0.6,0.7 V 93 c -0.1,0.7 0.4,1.3 1.1,1.4 0.7,0.1 1.3,-0.4 1.4,-1.1 0,-0.1 0,-0.1 0,-0.2 v -8.9 c 0,-2.3 -1.7,-4.2 -3.9,-4.4 z"
   id="path343" />
		</g>
		<g
   id="g349">
			<path
   class="st0"
   d="M 60.1,92.2 57.6,84 c 0,0 -0.9,-2.4 -2.9,-2.4 h -6.4 c -2,0 -2.9,2.4 -2.9,2.4 l -2.5,8.2 c 0,0.2 -0.1,0.3 -0.1,0.5 -0.1,-0.1 -0.2,-0.2 -0.3,-0.2 -0.5,-0.2 -1,-0.1 -1.3,0.4 0,0 0,0 0,0 -0.5,0.9 -1,1.7 -1.6,2.5 -0.2,0.2 -0.5,0.4 -0.8,0.4 h -3.1 c -0.3,0 -0.6,-0.2 -0.7,-0.4 -0.4,-0.4 -1.6,-2.5 -1.6,-2.6 -0.3,-0.4 -0.8,-0.5 -1.3,-0.3 -0.1,0.1 -0.2,0.2 -0.3,0.3 v -8.7 c 0,-2.2 -1.7,-4.1 -3.9,-4.3 h -0.2 -7 -0.2 c -2.2,0.2 -3.9,2 -3.9,4.3 V 93 c 0,0.4 0.2,0.8 0.6,1 l -2.9,15.3 c -0.1,0.3 0.1,0.6 0.4,0.7 h 0.1 c 0.3,0 0.5,-0.2 0.6,-0.5 L 18.3,94.1 C 18.7,93.9 19,93.5 19,93 v -7.7 c 0,-0.3 0.1,-0.7 0.6,-0.7 0.4,0 0.4,0.4 0.5,0.6 v 22.9 c 0,1 0.8,1.8 1.8,1.8 1,0 1.8,-0.8 1.8,-1.8 0,0 0,0 0,0 V 95 c -0.1,-0.3 0.1,-0.5 0.4,-0.6 0.3,-0.1 0.5,0.1 0.6,0.4 0,0.1 0,0.1 0,0.2 v 13.2 c 0,1 0.8,1.8 1.8,1.8 1,0 1.8,-0.8 1.8,-1.8 V 85.3 c 0,-0.2 0.1,-0.6 0.5,-0.6 0.5,0 0.6,0.4 0.6,0.7 V 93 c 0,0.7 0.5,1.2 1.2,1.3 0.5,0 0.9,-0.3 1.2,-0.7 0,0.1 0,0.1 0,0.1 l 2.6,4.6 c 0.1,0.2 0.1,0.4 0.2,0.6 v 0.7 0 c 0,0.3 0,0.5 -0.1,0.8 l -1.2,4.8 h 1.4 v 3.6 0 c -0.1,0.7 0.4,1.3 1.1,1.4 0.7,0.1 1.3,-0.4 1.4,-1.1 0,-0.1 0,-0.1 0,-0.2 v -3.4 c 0,0 0,-0.1 0,-0.2 H 38 c 0,0 0,0.1 0,0.2 v 3.4 c 0,0.7 0.6,1.2 1.2,1.2 0.6,0 1.2,-0.6 1.2,-1.2 v -3.6 h 1.3 l -1.2,-4.8 c -0.1,-0.2 -0.1,-0.4 -0.1,-0.6 v -0.2 0 -0.7 c 0,-0.2 0.1,-0.4 0.2,-0.6 l 2.4,-4.3 0.2,-0.4 c 0,0 0,-0.1 0,-0.1 0.1,0.3 0.4,0.5 0.8,0.6 1.3,0.4 1.7,-1.1 1.7,-1.1 l 2,-6.9 c 0,0 0.1,-0.5 0.5,-0.4 0.4,0.1 0.2,0.7 0.2,0.7 l -3.5,12.9 h 3.3 v 9.2 c 0.1,0.9 0.8,1.5 1.7,1.5 0.8,-0.1 1.4,-0.7 1.5,-1.5 v -9.2 h 0.9 v 9.2 c 0.1,0.9 0.8,1.5 1.7,1.5 0.8,-0.1 1.4,-0.7 1.5,-1.5 v -9.2 h 3.3 L 55.3,86.5 c 0,0 -0.2,-0.6 0.2,-0.7 0.4,-0.1 0.5,0.4 0.5,0.4 l 2,6.9 c 0,0 0.4,1.5 1.7,1.1 1.3,-0.4 0.4,-2 0.4,-2 z"
   id="path347" />
		</g>
		<g
   id="g353">
			<path
   class="st0"
   d="m 63.4,91.6 c 0,1.4 1.2,2.5 2.6,2.5 1.4,0 2.5,-1.2 2.5,-2.6 0,-1.4 -1.1,-2.5 -2.5,-2.5 -1.4,0 -2.6,1.1 -2.6,2.6 0,-0.1 0,0 0,0 z"
   id="path351" />
		</g>
		<g
   id="g357">
			<path
   class="st0"
   d="M 71.1,99 C 69.6,95 69.3,95.1 67.9,95 H 64 c -1.4,0 -1.7,0 -3.2,4 -0.2,0.6 -1.1,2.8 -1.2,2.9 -0.1,0.1 -0.4,0.9 0.5,1.2 0.9,0.3 1.1,-0.6 1.1,-0.6 l 1.6,-3.9 c 0,0 0,-0.1 0.1,-0.1 0.1,0 0.1,0.1 0.1,0.1 v 10.1 0 c 0,0.7 0.5,1.3 1.3,1.4 0,0 0,0 0.1,0 0.7,0 1.3,-0.6 1.3,-1.3 0,0 0,0 0,-0.1 v -4 c 0,0 0,-0.6 0.4,-0.6 0.4,0 0.4,0.6 0.4,0.6 v 4 c 0,0.7 0.5,1.3 1.3,1.4 0,0 0,0 0,0 0.7,0 1.3,-0.5 1.3,-1.2 0,0 0,-0.1 0,-0.1 v 0 -10.1 c 0,-0.1 0,-0.1 0,-0.1 l 0.1,0.1 1.4,3.5 c 0,0 0.4,0.9 1.2,0.6 0.8,-0.3 0.4,-1.2 0.4,-1.2 0,0 -0.9,-2 -1.1,-2.6 z"
   id="path355" />
		</g>
		<g
   id="g361">
			<path
   class="st0"
   d="m 37.3,89 c -1.4,0 -2.5,1.1 -2.5,2.5 0,1.4 1.1,2.5 2.5,2.5 1.4,0 2.5,-1.1 2.5,-2.5 v 0 C 39.8,90.1 38.7,89 37.3,89 Z"
   id="path359" />
		</g>
	</g>
<metadata
   id="metadata1325"><rdf:RDF><cc:Work
       rdf:about=""><dc:title>TARGET 1.4</dc:title></cc:Work></rdf:RDF></metadata></svg>
