<svg version="1.1" xmlns="http://www.w3.org/2000/svg" viewBox="0 0 3585.568806053847 720.0000000000001" width="3585.568806053847" height="720.0000000000001" class="excalidraw-svg"><!-- svg-source:excalidraw --><metadata></metadata><defs><style class="style-fonts">
      </style></defs><g stroke-linecap="round"><g transform="translate(1030 410) rotate(0 150 0)"><path d="M0 0 C50 0, 250 0, 300 0 M0 0 C50 0, 250 0, 300 0" stroke="#1e1e1e" stroke-width="1" fill="none"></path></g><g transform="translate(1030 410) rotate(0 150 0)"><path d="M276.51 8.55 C282.74 6.28, 288.98 4.01, 300 0 M276.51 8.55 C282.49 6.37, 288.46 4.2, 300 0" stroke="#1e1e1e" stroke-width="1" fill="none"></path></g><g transform="translate(1030 410) rotate(0 150 0)"><path d="M276.51 -8.55 C282.74 -6.28, 288.98 -4.01, 300 0 M276.51 -8.55 C282.49 -6.37, 288.46 -4.2, 300 0" stroke="#1e1e1e" stroke-width="1" fill="none"></path></g></g><mask></mask><g stroke-linecap="round" transform="translate(179.16432174888905 395.7486066816144) rotate(0 65.06320067264966 65.06320067264966)"><path d="M38.78 6.49 C47.12 1.56, 58.4 -0.46, 68.5 0.08 C78.6 0.63, 90.61 4.61, 99.36 9.78 C108.11 14.94, 116.03 22.64, 120.99 31.05 C125.95 39.47, 128.54 50.11, 129.12 60.29 C129.7 70.47, 128.48 82.96, 124.45 92.14 C120.43 101.32, 112.82 109.27, 104.95 115.37 C97.08 121.46, 87.16 126.87, 77.23 128.7 C67.3 130.53, 55.05 129.31, 45.36 126.36 C35.66 123.4, 25.97 118.07, 19.06 110.97 C12.14 103.86, 6.8 93.25, 3.87 83.72 C0.94 74.19, -0.31 63.55, 1.49 53.79 C3.29 44.02, 7.65 33.55, 14.66 25.14 C21.67 16.72, 38.01 7, 43.54 3.3 C49.08 -0.39, 47.57 1.91, 47.87 2.99 M93.09 5.69 C102.12 8.84, 110.82 17.46, 116.72 25.94 C122.62 34.41, 126.92 46.22, 128.49 56.53 C130.07 66.85, 129.09 78.52, 126.16 87.82 C123.22 97.13, 118.32 105.47, 110.89 112.37 C103.46 119.27, 91.35 126.31, 81.57 129.23 C71.8 132.15, 61.82 132.47, 52.23 129.9 C42.64 127.32, 31.91 120.29, 24.03 113.8 C16.15 107.3, 9 99.93, 4.97 90.91 C0.93 81.89, -0.94 69.94, -0.18 59.69 C0.58 49.43, 3.78 37.82, 9.53 29.36 C15.29 20.9, 25.49 13.95, 34.37 8.95 C43.24 3.95, 52.84 -0.3, 62.79 -0.66 C72.74 -1.01, 89.24 5.31, 94.06 6.81 C98.89 8.31, 92.37 7.5, 91.75 8.35" stroke="#1e1e1e" stroke-width="2" fill="none"></path></g><g stroke-linecap="round"><g transform="translate(244.2275224215387 395.7486066816144) rotate(0 130.1264013452993 0)"><path d="M-1.01 -0.67 C42.47 -0.53, 217.47 0.43, 261.17 0.43 M0.66 1.6 C44.03 1.41, 217.33 -1.25, 260.71 -1.47" stroke="#1e1e1e" stroke-width="2" fill="none"></path></g></g><mask></mask><g stroke-linecap="round"><g transform="translate(505.08083153024495 395.9588998633736) rotate(0 -32.53160033632483 -65.06320067264966)"><path d="M0.92 0.43 C-9.6 -21.26, -53.12 -109.15, -64.12 -130.79 M-0.05 -0.39 C-10.56 -21.88, -53.6 -107.77, -64.58 -129.6" stroke="#1e1e1e" stroke-width="2" fill="none"></path></g></g><mask></mask><g stroke-linecap="round"><g transform="translate(166.15168161435912 265.622205336315) rotate(0 137.18642758585375 0.3331386802165355)"><path d="M0.94 -0.66 C46.51 -0.51, 228.68 1.1, 274.33 1.37 M-0.02 1.6 C45.3 1.38, 227.64 -0.52, 273.35 -0.39" stroke="#1e1e1e" stroke-width="2" fill="none"></path></g></g><mask></mask><g stroke-linecap="round"><g transform="translate(179.35308986591912 461.9334931998097) rotate(0 -32.53160033632483 -65.06320067264966)"><path d="M-0.05 0.7 C-10.98 -20.83, -53.71 -107.88, -64.63 -129.87 M-1.53 0.03 C-12.66 -21.83, -54.51 -110.11, -65.35 -131.85" stroke="#1e1e1e" stroke-width="2" fill="none"></path></g></g><mask></mask><g stroke-linecap="round"><g transform="translate(114.62242283036426 330.6177592794679) rotate(0 26.025280269059863 -32.53160033632483)"><path d="M0.43 0.26 C2.53 -8.71, 4.11 -42.25, 12.53 -53.12 C20.95 -63.99, 44.31 -62.93, 50.96 -64.96 M-0.8 -0.65 C1.1 -9.57, 2.31 -41.66, 11.32 -52.15 C20.34 -62.64, 46.35 -61.56, 53.27 -63.59" stroke="#1e1e1e" stroke-width="2" fill="none"></path></g></g><mask></mask><g stroke-linecap="round" transform="translate(193.62281078725562 395.7486066816144) rotate(0 57.83395615346636 57.83395615346636)"><path d="M32.16 4.96 C39.5 0.33, 50.96 -0.62, 59.9 -0.35 C68.84 -0.08, 78.06 2.14, 85.8 6.57 C93.54 11, 101.25 18.69, 106.35 26.22 C111.44 33.76, 115.46 42.77, 116.36 51.78 C117.26 60.8, 115.18 71.88, 111.75 80.31 C108.32 88.75, 102.64 96.81, 95.77 102.4 C88.91 107.98, 79.53 112.06, 70.58 113.83 C61.63 115.6, 50.77 115.35, 42.07 113.04 C33.37 110.72, 24.7 106.08, 18.38 99.96 C12.05 93.83, 7.03 84.77, 4.13 76.26 C1.24 67.76, -0.08 57.76, 0.98 48.91 C2.05 40.05, 5.1 30.53, 10.51 23.14 C15.93 15.74, 29.1 7.53, 33.47 4.55 C37.84 1.58, 36.09 4.17, 36.72 5.3 M55.35 1.36 C64.06 -0.44, 74.32 0.31, 82.34 3.96 C90.35 7.62, 98.13 15.93, 103.45 23.29 C108.77 30.64, 112.83 39.52, 114.26 48.11 C115.7 56.7, 114.47 66.28, 112.06 74.82 C109.66 83.37, 106.09 93.12, 99.83 99.38 C93.58 105.64, 83.22 109.79, 74.54 112.37 C65.86 114.96, 56.72 116.3, 47.76 114.89 C38.79 113.47, 27.97 109.55, 20.77 103.89 C13.57 98.23, 7.89 89.21, 4.55 80.93 C1.21 72.65, 0.31 63.03, 0.76 54.2 C1.21 45.38, 2.85 35.37, 7.25 27.97 C11.66 20.58, 19.26 14.51, 27.19 9.82 C35.13 5.13, 50.07 1.41, 54.85 -0.15 C59.63 -1.71, 55.65 -0.64, 55.85 0.46" stroke="#1e1e1e" stroke-width="1" fill="none"></path></g><g stroke-linecap="round" transform="translate(193.62281078725562 410.207095719981) rotate(0 50.60471163428306 50.60471163428307)"><path d="M58.97 0.24 C66.98 0.79, 75.64 5.09, 82.12 10.44 C88.6 15.79, 94.64 24.46, 97.87 32.36 C101.11 40.26, 102.79 49.4, 101.54 57.83 C100.29 66.26, 95.71 76.21, 90.38 82.92 C85.05 89.63, 77.43 95.22, 69.57 98.08 C61.7 100.94, 51.7 101.53, 43.17 100.08 C34.64 98.64, 25.02 94.64, 18.39 89.41 C11.77 84.17, 6.24 76.56, 3.43 68.68 C0.62 60.8, 0.17 50.52, 1.53 42.14 C2.89 33.76, 6.55 24.95, 11.59 18.4 C16.64 11.84, 23.45 5.76, 31.79 2.81 C40.12 -0.14, 55.89 0.67, 61.6 0.7 C67.31 0.74, 66.01 1.93, 66.05 3.01 M48.56 1.35 C56.77 -0.3, 66.59 0.45, 73.98 4.2 C81.37 7.95, 88.46 16.48, 92.91 23.82 C97.36 31.16, 100.33 40.05, 100.66 48.25 C100.98 56.44, 98.39 65.46, 94.89 72.99 C91.38 80.53, 86.57 88.9, 79.61 93.47 C72.66 98.05, 61.71 100.01, 53.17 100.44 C44.62 100.87, 36.04 99.61, 28.35 96.04 C20.65 92.47, 11.8 86.2, 7 79.03 C2.2 71.86, -0.28 61.55, -0.45 53.02 C-0.61 44.49, 2.31 35.29, 5.99 27.86 C9.67 20.43, 14.81 12.83, 21.62 8.45 C28.42 4.07, 42.41 2.85, 46.83 1.58 C51.24 0.31, 47.71 0.39, 48.12 0.85" stroke="#1e1e1e" stroke-width="1" fill="none"></path></g><g stroke-linecap="round" transform="translate(208.08129982562224 410.207095719981) rotate(0 43.37546711509978 43.375467115099774)"><path d="M23.21 4.02 C29.46 0.13, 39.56 -0.63, 47.55 0.14 C55.53 0.91, 64.93 3.72, 71.13 8.64 C77.34 13.57, 82.25 22.17, 84.78 29.7 C87.31 37.24, 88.14 46.43, 86.3 53.86 C84.46 61.28, 79.59 69, 73.74 74.26 C67.88 79.52, 58.91 83.87, 51.18 85.41 C43.44 86.96, 34.34 86.44, 27.3 83.53 C20.27 80.62, 13.44 74.34, 8.95 67.93 C4.47 61.51, 1.03 52.84, 0.4 45.03 C-0.23 37.23, 0.69 28.24, 5.18 21.12 C9.67 13.99, 22.66 5.46, 27.34 2.28 C32.02 -0.9, 32.76 1.11, 33.25 2.04 M41.76 1.33 C49.4 -0.15, 58.68 0.61, 65.34 4.4 C72.01 8.2, 78.29 16.92, 81.76 24.12 C85.22 31.33, 86.96 40.07, 86.14 47.64 C85.32 55.21, 81.31 63.33, 76.82 69.53 C72.33 75.72, 66.46 82.25, 59.19 84.83 C51.92 87.4, 40.94 86.8, 33.2 84.97 C25.45 83.15, 18.34 79.25, 12.73 73.87 C7.11 68.48, 1.24 60.44, -0.49 52.65 C-2.22 44.87, -0.78 34.54, 2.37 27.14 C5.52 19.74, 12.21 12.74, 18.43 8.24 C24.64 3.74, 36.06 1.12, 39.67 0.15 C43.28 -0.81, 39.78 1.77, 40.09 2.43" stroke="#1e1e1e" stroke-width="1" fill="none"></path></g><g stroke-linecap="round" transform="translate(208.08129982562224 424.66558475834756) rotate(0 36.14622259591647 36.14622259591648)"><path d="M29.54 0.56 C36.27 -1.13, 46.13 -0.28, 52.59 2.86 C59.05 5.99, 64.93 12.99, 68.29 19.36 C71.66 25.72, 73.68 34.2, 72.77 41.05 C71.86 47.9, 67.9 55.46, 62.84 60.47 C57.78 65.48, 49.41 69.75, 42.39 71.12 C35.37 72.49, 26.87 71.73, 20.69 68.68 C14.52 65.64, 8.66 59.11, 5.32 52.84 C1.98 46.58, 0 38.11, 0.65 31.09 C1.31 24.07, 3.89 16.01, 9.25 10.74 C14.61 5.48, 28.05 1.21, 32.81 -0.5 C37.57 -2.21, 37.53 -0.36, 37.81 0.5 M34.97 1.32 C41.91 0, 50.53 0.75, 56.35 4.54 C62.17 8.33, 67.48 17.14, 69.87 24.04 C72.26 30.93, 72.63 39.28, 70.67 45.91 C68.71 52.54, 63.33 59.33, 58.13 63.82 C52.92 68.32, 46.42 72.52, 39.44 72.87 C32.45 73.22, 22.31 69.82, 16.22 65.93 C10.12 62.04, 5.61 55.92, 2.87 49.53 C0.13 43.14, -1.85 34.59, -0.22 27.6 C1.41 20.61, 6.84 12.22, 12.64 7.61 C18.45 3, 31.25 1.07, 34.63 -0.06 C38 -1.18, 33.11 -0.01, 32.92 0.86" stroke="#1e1e1e" stroke-width="1" fill="none"></path></g><g stroke-linecap="round" transform="translate(222.5397888639888 424.66558475834756) rotate(0 28.916978076733187 28.91697807673318)"><path d="M18.55 1.67 C23.89 -0.88, 31.88 -0.18, 37.77 1.77 C43.67 3.73, 50.56 8.39, 53.94 13.41 C57.32 18.43, 59 25.9, 58.05 31.92 C57.1 37.93, 52.83 45.21, 48.24 49.5 C43.65 53.8, 36.46 57.36, 30.49 57.68 C24.52 58, 17.33 55.19, 12.43 51.41 C7.53 47.64, 2.75 41.06, 1.09 35.03 C-0.56 29, -0.59 20.95, 2.52 15.23 C5.62 9.51, 16.2 3.11, 19.73 0.73 C23.26 -1.64, 23.34 0.26, 23.72 0.97 M28.17 1.31 C34.28 0.15, 42.07 0.88, 46.89 4.55 C51.72 8.22, 55.88 16.97, 57.12 23.3 C58.36 29.63, 57.27 37.21, 54.32 42.53 C51.37 47.84, 44.86 52.75, 39.44 55.21 C34.02 57.67, 27.65 59.11, 21.8 57.27 C15.94 55.44, 7.85 49.42, 4.31 44.17 C0.77 38.92, 0 31.74, 0.56 25.78 C1.11 19.83, 3.31 12.85, 7.65 8.46 C12 4.07, 23.27 0.76, 26.64 -0.57 C30.01 -1.89, 27.93 -0.09, 27.87 0.51" stroke="#1e1e1e" stroke-width="1" fill="none"></path></g><g stroke-linecap="round" transform="translate(222.5397888639888 439.12407379671413) rotate(0 21.687733557549876 21.68773355754989)"><path d="M21.57 0.26 C25.97 -0.01, 32.17 2.15, 35.77 5 C39.37 7.85, 42.43 12.86, 43.2 17.35 C43.98 21.85, 42.72 27.88, 40.42 31.98 C38.13 36.07, 33.66 40.25, 29.43 41.9 C25.2 43.55, 19.39 43.42, 15.03 41.87 C10.66 40.32, 5.75 36.59, 3.24 32.6 C0.73 28.62, -0.71 22.56, -0.04 17.95 C0.63 13.35, 3.54 7.99, 7.27 4.97 C11 1.96, 19.73 0.56, 22.37 -0.12 C25 -0.79, 23.15 0.57, 23.08 0.91 M27.23 0.06 C31.51 0.83, 36.58 5.53, 39.23 9.43 C41.87 13.33, 43.49 18.93, 43.1 23.46 C42.7 27.98, 39.94 33.23, 36.85 36.58 C33.77 39.93, 29.17 43.1, 24.59 43.57 C20.02 44.03, 13.31 42, 9.39 39.37 C5.46 36.75, 2.42 32.19, 1.05 27.83 C-0.33 23.47, -0.65 17.53, 1.15 13.21 C2.95 8.89, 7.5 4.03, 11.84 1.92 C16.18 -0.19, 24.79 0.7, 27.18 0.56 C29.58 0.43, 26.4 0.6, 26.2 1.08" stroke="#1e1e1e" stroke-width="1" fill="none"></path></g><g stroke-linecap="round" transform="translate(10 70) rotate(0 292.7844030269234 290)"><path d="M366.25 72.75 C398.6 107.16, 435.53 140.05, 512.32 218.25 M366.25 72.75 C422.49 126.75, 475.98 180.56, 512.32 218.25 M512.32 218.25 C585.17 290.41, 586.57 291.07, 512.32 363.75 M512.32 218.25 C584.66 288.79, 586.3 291.62, 512.32 363.75 M512.32 363.75 C454.59 419.8, 398.01 475.69, 366.25 507.25 M512.32 363.75 C469.31 404.5, 426.17 448.12, 366.25 507.25 M366.25 507.25 C292.23 579.34, 291.77 579.26, 219.75 507.25 M366.25 507.25 C293.08 578.17, 293.27 578.21, 219.75 507.25 M219.75 507.25 C175.19 462.75, 130.95 421.96, 73.25 363.75 M219.75 507.25 C184.78 472.05, 147.76 437.51, 73.25 363.75 M73.25 363.75 C-0.49 291.2, -0.22 291.74, 73.25 218.25 M73.25 363.75 C-1.17 290.89, 1.66 292.63, 73.25 218.25 M73.25 218.25 C120.66 170.03, 171.08 122.47, 219.75 72.75 M73.25 218.25 C108.55 185.37, 142.08 151.32, 219.75 72.75 M219.75 72.75 C293.27 1.82, 294.93 1.49, 366.25 72.75 M219.75 72.75 C294.66 -0.89, 291.65 0.3, 366.25 72.75" stroke="#1e1e1e" stroke-width="4" fill="none"></path></g><g stroke-linecap="round" transform="translate(630 310) rotate(0 100 50)"><path d="M25 0 C65.83 -2.13, 104.35 3.47, 175 0 C194.64 3.1, 202.55 8.6, 200 25 C196.83 40.25, 202.72 56.97, 200 75 C203.12 94.28, 194.88 96.76, 175 100 C136.62 100.85, 98.13 99.64, 25 100 C4.75 102.7, 3 94.47, 0 75 C3 57.6, -0.81 40.32, 0 25 C-2.8 9.84, 7.43 -2.94, 25 0" stroke="none" stroke-width="0" fill="#1e1e1e"></path><path d="M25 0 C68.24 1.48, 106.96 2.05, 175 0 M25 0 C76.27 1.11, 126.87 0.33, 175 0 M175 0 C191.44 0.5, 201.68 7.83, 200 25 M175 0 C189.49 -1.5, 200.65 9.17, 200 25 M200 25 C198.15 44.83, 198.86 61.82, 200 75 M200 25 C199.88 44.78, 198.78 65.12, 200 75 M200 75 C199.02 92.86, 190.11 98.4, 175 100 M200 75 C199.71 93.39, 193.96 100.35, 175 100 M175 100 C133.08 101.53, 95.22 101.4, 25 100 M175 100 C144.11 98.61, 113.33 98.39, 25 100 M25 100 C10.25 98.21, -0.62 91.46, 0 75 M25 100 C6.71 98.48, 1.91 92.12, 0 75 M0 75 C-0.38 59.83, -0.54 44.85, 0 25 M0 75 C-0.53 60.36, -0.62 47.52, 0 25 M0 25 C-0.02 9.56, 6.51 -0.07, 25 0 M0 25 C1.15 6.72, 9.62 -1.23, 25 0" stroke="#1e1e1e" stroke-width="1" fill="none"></path></g><g stroke-linecap="round" transform="translate(770 310) rotate(0 50 50)"><path d="M63.75 12.75 C69.86 22.13, 84.31 31.96, 87.25 38.25 C98.37 50.81, 97.2 52.51, 87.25 63.75 C79.02 71.81, 77.05 79.28, 63.75 87.25 C51.55 98.48, 47.53 97.96, 38.25 87.25 C33.28 82.53, 25.71 74.12, 12.75 63.75 C-1.67 49.33, -3.29 53.13, 12.75 38.25 C16.2 33.19, 22.42 26.01, 38.25 12.75 C49.96 3.28, 52.2 0.7, 63.75 12.75" stroke="none" stroke-width="0" fill="#1e1e1e"></path><path d="M63.75 12.75 C70.05 22.37, 79.23 31.8, 87.25 38.25 M63.75 12.75 C69.52 19.44, 74.15 23.8, 87.25 38.25 M87.25 38.25 C101.73 51.71, 98.3 52, 87.25 63.75 M87.25 38.25 C100.76 52, 97.76 48.79, 87.25 63.75 M87.25 63.75 C79.69 67.84, 77.69 73.19, 63.75 87.25 M87.25 63.75 C80.25 70.73, 74.79 76.39, 63.75 87.25 M63.75 87.25 C52.05 99.49, 50.88 100.65, 38.25 87.25 M63.75 87.25 C50.69 101.73, 50.46 99.25, 38.25 87.25 M38.25 87.25 C30.63 81.71, 25.99 76.84, 12.75 63.75 M38.25 87.25 C32.24 83.03, 27.08 77.23, 12.75 63.75 M12.75 63.75 C-1.24 51.03, 0.53 49.84, 12.75 38.25 M12.75 63.75 C-0.26 53.24, 1.9 52.98, 12.75 38.25 M12.75 38.25 C22.55 29.89, 29.79 18.04, 38.25 12.75 M12.75 38.25 C23.13 29.46, 30.96 18.58, 38.25 12.75 M38.25 12.75 C51.74 0.62, 50.2 0.01, 63.75 12.75 M38.25 12.75 C49.09 -0.77, 48.71 1.73, 63.75 12.75" stroke="#1e1e1e" stroke-width="1" fill="none"></path></g><g stroke-linecap="round" transform="translate(2990 70) rotate(0 292.7844030269234 290)"><path d="M366.25 72.75 C405.55 113.68, 446.08 152.3, 512.32 218.25 M366.25 72.75 C398.59 105.44, 430.82 139.8, 512.32 218.25 M512.32 218.25 C583.73 291.02, 585.7 289.64, 512.32 363.75 M512.32 218.25 C585.3 289.47, 585.75 292.73, 512.32 363.75 M512.32 363.75 C464.05 412.09, 418.05 458.77, 366.25 507.25 M512.32 363.75 C482.09 393.6, 451.11 424.67, 366.25 507.25 M366.25 507.25 C293.46 578, 294.77 581.65, 219.75 507.25 M366.25 507.25 C292.14 580.03, 293.82 578.95, 219.75 507.25 M219.75 507.25 C181.05 468.78, 140.32 428.12, 73.25 363.75 M219.75 507.25 C160.77 450.32, 103.58 393.44, 73.25 363.75 M73.25 363.75 C0.54 290.43, -1.03 292.28, 73.25 218.25 M73.25 363.75 C-1.93 289.49, -0.48 292.92, 73.25 218.25 M73.25 218.25 C107.53 181.57, 142.89 146.69, 219.75 72.75 M73.25 218.25 C129.76 163.45, 184.3 109.24, 219.75 72.75 M219.75 72.75 C292.33 0.05, 293.72 0.43, 366.25 72.75 M219.75 72.75 C292.45 -0.88, 291.17 -2.28, 366.25 72.75" stroke="#1e1e1e" stroke-width="4" fill="none"></path></g><g stroke-linecap="round" transform="translate(3137.82818122506 158.47260385756624) rotate(308.8746558280798 154.89274748142884 188.2663104236401)"><path d="M155 0 C197.48 51.86, 239.95 103.73, 309.79 189 M155 0 C215.42 73.78, 275.85 147.56, 309.79 189 M309.79 189 C265.69 242.42, 221.6 295.84, 155 376.53 M309.79 189 C252.13 258.86, 194.47 328.71, 155 376.53 M155 376.53 C94.98 303.92, 34.97 231.31, 0 189 M155 376.53 C97.46 306.92, 39.92 237.3, 0 189 M0 189 C48.47 129.9, 96.93 70.8, 155 0 M0 189 C36.73 144.21, 73.46 99.43, 155 0" stroke="#1e1e1e" stroke-width="2" fill="none"></path></g><g stroke-linecap="round" transform="translate(1130 510) rotate(0 40 50)"><path d="M0 0 L80 0 L80 100 L0 100" stroke="none" stroke-width="0" fill="#e9ecef"></path><path d="M0 0 C21.3 0, 42.6 0, 80 0 M0 0 C31.54 0, 63.09 0, 80 0 M80 0 C80 28.64, 80 57.28, 80 100 M80 0 C80 33.26, 80 66.53, 80 100 M80 100 C55 100, 29.99 100, 0 100 M80 100 C51.65 100, 23.3 100, 0 100 M0 100 C0 72.04, 0 44.09, 0 0 M0 100 C0 62.14, 0 24.29, 0 0" stroke="#1e1e1e" stroke-width="1" fill="none"></path></g><g stroke-linecap="round" transform="translate(930 10) rotate(0 350 350.00000000000006)"><path d="M32 0 C195.18 -1.3, 360.04 -1.55, 668 0 M32 0 C189.57 0.78, 346.52 0.61, 668 0 M668 0 C689.99 -0.79, 699.83 11.6, 700 32 M668 0 C687.59 0.75, 700.5 11.1, 700 32 M700 32 C700.16 257.97, 699.28 483.94, 700 668 M700 32 C701.16 256.62, 701.17 480.62, 700 668 M700 668 C701.85 690.94, 689.95 700.01, 668 700 M700 668 C699.53 687.35, 690.64 700.45, 668 700 M668 700 C535.38 699.77, 401.16 699.07, 32 700 M668 700 C494.79 698.93, 320.85 698.6, 32 700 M32 700 C9.22 701.41, -0.8 687.72, 0 668 M32 700 C12.54 702.04, -0.31 689.92, 0 668 M0 668 C0.04 445.97, 0.23 223.01, 0 32 M0 668 C0.87 494.58, 0.98 322.07, 0 32 M0 32 C-0.69 9.44, 11.07 0.48, 32 0 M0 32 C0.81 11.56, 9.09 0.67, 32 0" stroke="#1e1e1e" stroke-width="4" fill="none"></path></g><g stroke-linecap="round"><g transform="translate(930 310) rotate(0 100 0)"><path d="M0 0 C33.33 0, 166.67 0, 200 0 M0 0 C33.33 0, 166.67 0, 200 0" stroke="#1e1e1e" stroke-width="1" fill="none"></path></g></g><mask></mask><g stroke-linecap="round"><g transform="translate(931.7373995283151 511.8540743501578) rotate(0 149.13130023584233 -0.9270371750788797)"><path d="M0 0 C49.71 -0.31, 248.55 -1.55, 298.26 -1.85 M0 0 C49.71 -0.31, 248.55 -1.55, 298.26 -1.85" stroke="#1e1e1e" stroke-width="1" fill="none"></path></g></g><mask></mask><g stroke-linecap="round" transform="translate(1132.6160548803753 64.1163952500292) rotate(346.4435791340601 46.88544896999076 211.1813925224994)"><path d="M47 0 L93.77 212 L47 422.36 L0 212" stroke="none" stroke-width="0" fill="#b2f2bb" fill-rule="evenodd"></path><path d="M47 0 C61.04 63.62, 75.07 127.24, 93.77 212 M47 0 C61.92 67.65, 76.85 135.3, 93.77 212 M93.77 212 C78.73 279.65, 63.69 347.29, 47 422.36 M93.77 212 C84.01 255.92, 74.24 299.83, 47 422.36 M47 422.36 C36.35 374.71, 25.71 327.05, 0 212 M47 422.36 C36.96 377.41, 26.91 332.45, 0 212 M0 212 C17.92 131.19, 35.83 50.38, 47 0 M0 212 C15.12 143.81, 30.23 75.63, 47 0" stroke="#1e1e1e" stroke-width="1" fill="none"></path></g><g stroke-linecap="round"><g transform="translate(1149.9999999999998 190) rotate(0 0 39.5)"><path d="M0 0 C0 13.17, 0 65.83, 0 79 M0 0 C0 13.17, 0 65.83, 0 79" stroke="#1e1e1e" stroke-width="1" fill="none"></path></g><g transform="translate(1149.9999999999998 190) rotate(0 0 39.5)"><path d="M0 0 L6.34 13.59 L-6.34 13.59 L0 0" stroke="none" stroke-width="0" fill="#1e1e1e" fill-rule="evenodd"></path><path d="M0 0 C1.47 3.16, 2.95 6.32, 6.34 13.59 M0 0 C1.65 3.54, 3.3 7.08, 6.34 13.59 M6.34 13.59 C1.84 13.59, -2.67 13.59, -6.34 13.59 M6.34 13.59 C1.87 13.59, -2.61 13.59, -6.34 13.59 M-6.34 13.59 C-3.85 8.26, -1.36 2.92, 0 0 M-6.34 13.59 C-4.31 9.25, -2.29 4.91, 0 0 M0 0 C0 0, 0 0, 0 0 M0 0 C0 0, 0 0, 0 0" stroke="#1e1e1e" stroke-width="1" fill="none"></path></g></g><mask></mask><g stroke-linecap="round"><g transform="translate(1178.026588975956 248.20189538543968) rotate(0 0 40)"><path d="M0 0 C0 13.33, 0 66.67, 0 80 M0 0 C0 13.33, 0 66.67, 0 80" stroke="#1e1e1e" stroke-width="1" fill="none"></path></g><g transform="translate(1178.026588975956 248.20189538543968) rotate(0 0 40)"><path d="M0 0 L6.34 13.59 L-6.34 13.59 L0 0" stroke="none" stroke-width="0" fill="#1e1e1e" fill-rule="evenodd"></path><path d="M0 0 C2.35 5.03, 4.7 10.07, 6.34 13.59 M0 0 C2.2 4.71, 4.39 9.42, 6.34 13.59 M6.34 13.59 C2.21 13.59, -1.91 13.59, -6.34 13.59 M6.34 13.59 C3.46 13.59, 0.57 13.59, -6.34 13.59 M-6.34 13.59 C-4.24 9.1, -2.15 4.6, 0 0 M-6.34 13.59 C-4.05 8.68, -1.76 3.77, 0 0 M0 0 C0 0, 0 0, 0 0 M0 0 C0 0, 0 0, 0 0" stroke="#1e1e1e" stroke-width="1" fill="none"></path></g></g><mask></mask><g stroke-linecap="round"><g transform="translate(1209.9999999999998 330) rotate(0 0 40)"><path d="M0 0 C0 13.33, 0 66.67, 0 80 M0 0 C0 13.33, 0 66.67, 0 80" stroke="#1e1e1e" stroke-width="1" fill="none"></path></g><g transform="translate(1209.9999999999998 330) rotate(0 0 40)"><path d="M0 0 L6.34 13.59 L-6.34 13.59 L0 0" stroke="none" stroke-width="0" fill="#1e1e1e" fill-rule="evenodd"></path><path d="M0 0 C1.82 3.89, 3.63 7.79, 6.34 13.59 M0 0 C2.11 4.52, 4.22 9.04, 6.34 13.59 M6.34 13.59 C2.38 13.59, -1.59 13.59, -6.34 13.59 M6.34 13.59 C1.85 13.59, -2.65 13.59, -6.34 13.59 M-6.34 13.59 C-4.57 9.79, -2.79 5.99, 0 0 M-6.34 13.59 C-3.94 8.45, -1.54 3.3, 0 0 M0 0 C0 0, 0 0, 0 0 M0 0 C0 0, 0 0, 0 0" stroke="#1e1e1e" stroke-width="1" fill="none"></path></g></g><mask></mask><g stroke-linecap="round"><g transform="translate(1530 510) rotate(0 -50 -100)"><path d="M0 0 C-29.15 -58.31, -58.31 -116.61, -100 -200 M0 0 C-30.05 -60.1, -60.1 -120.2, -100 -200" stroke="#1e1e1e" stroke-width="1" fill="none"></path></g></g><mask></mask><g stroke-linecap="round"><g transform="translate(1230 510) rotate(0 150 0)"><path d="M0 0 C67.2 0, 134.41 0, 300 0 M0 0 C95.54 0, 191.07 0, 300 0" stroke="#1e1e1e" stroke-width="1" fill="none"></path></g></g><mask></mask><g stroke-linecap="round"><g transform="translate(1130 310) rotate(0 150 0)"><path d="M0 0 C51.45 0, 102.9 0, 160 0 M0 0 C33.4 0, 66.81 0, 160 0 M160 0 C191.72 0, 223.43 0, 300 0 M160 0 C189.92 0, 219.84 0, 300 0" stroke="#1e1e1e" stroke-width="1" fill="none"></path></g></g><mask></mask><g stroke-linecap="round" transform="translate(1430 510) rotate(0 50 50)"><path d="M100 50 C100 52.18, 99.86 54.37, 99.57 56.53 C99.29 58.68, 98.86 60.84, 98.3 62.94 C97.73 65.04, 97.03 67.12, 96.19 69.13 C95.36 71.14, 94.39 73.12, 93.3 75 C92.21 76.88, 90.99 78.71, 89.67 80.44 C88.34 82.16, 86.89 83.82, 85.36 85.36 C83.82 86.89, 82.16 88.34, 80.44 89.67 C78.71 90.99, 76.88 92.21, 75 93.3 C73.12 94.39, 71.14 95.36, 69.13 96.19 C67.12 97.03, 65.04 97.73, 62.94 98.3 C60.84 98.86, 58.68 99.29, 56.53 99.57 C54.37 99.86, 52.18 100, 50 100 C47.82 100, 45.63 99.86, 43.47 99.57 C41.32 99.29, 39.16 98.86, 37.06 98.3 C34.96 97.73, 32.88 97.03, 30.87 96.19 C28.86 95.36, 26.88 94.39, 25 93.3 C23.12 92.21, 21.29 90.99, 19.56 89.67 C17.84 88.34, 16.18 86.89, 14.64 85.36 C13.11 83.82, 11.66 82.16, 10.33 80.44 C9.01 78.71, 7.79 76.88, 6.7 75 C5.61 73.12, 4.64 71.14, 3.81 69.13 C2.97 67.12, 2.27 65.04, 1.7 62.94 C1.14 60.84, 0.71 58.68, 0.43 56.53 C0.14 54.37, 0 52.18, 0 50 C0 47.82, 0.14 45.63, 0.43 43.47 C0.71 41.32, 1.14 39.16, 1.7 37.06 C2.27 34.96, 2.97 32.88, 3.81 30.87 C4.64 28.86, 5.61 26.88, 6.7 25 C7.79 23.12, 9.01 21.29, 10.33 19.56 C11.66 17.84, 13.11 16.18, 14.64 14.64 C16.18 13.11, 17.84 11.66, 19.56 10.33 C21.29 9.01, 23.12 7.79, 25 6.7 C26.88 5.61, 28.86 4.64, 30.87 3.81 C32.88 2.97, 34.96 2.27, 37.06 1.7 C39.16 1.14, 41.32 0.71, 43.47 0.43 C45.63 0.14, 47.82 0, 50 0 C52.18 0, 54.37 0.14, 56.53 0.43 C58.68 0.71, 60.84 1.14, 62.94 1.7 C65.04 2.27, 67.12 2.97, 69.13 3.81 C71.14 4.64, 73.12 5.61, 75 6.7 C76.88 7.79, 78.71 9.01, 80.44 10.33 C82.16 11.66, 83.82 13.11, 85.36 14.64 C86.89 16.18, 88.34 17.84, 89.67 19.56 C90.99 21.29, 92.21 23.12, 93.3 25 C94.39 26.88, 95.36 28.86, 96.19 30.87 C97.03 32.88, 97.73 34.96, 98.3 37.06 C98.86 39.16, 99.29 41.32, 99.57 43.47 C99.86 45.63, 99.93 48.91, 100 50 C100.07 51.09, 100.07 48.91, 100 50" stroke="none" stroke-width="0" fill="#b2f2bb"></path><path d="M100 50 C100 52.18, 99.86 54.37, 99.57 56.53 C99.29 58.68, 98.86 60.84, 98.3 62.94 C97.73 65.04, 97.03 67.12, 96.19 69.13 C95.36 71.14, 94.39 73.12, 93.3 75 C92.21 76.88, 90.99 78.71, 89.67 80.44 C88.34 82.16, 86.89 83.82, 85.36 85.36 C83.82 86.89, 82.16 88.34, 80.44 89.67 C78.71 90.99, 76.88 92.21, 75 93.3 C73.12 94.39, 71.14 95.36, 69.13 96.19 C67.12 97.03, 65.04 97.73, 62.94 98.3 C60.84 98.86, 58.68 99.29, 56.53 99.57 C54.37 99.86, 52.18 100, 50 100 C47.82 100, 45.63 99.86, 43.47 99.57 C41.32 99.29, 39.16 98.86, 37.06 98.3 C34.96 97.73, 32.88 97.03, 30.87 96.19 C28.86 95.36, 26.88 94.39, 25 93.3 C23.12 92.21, 21.29 90.99, 19.56 89.67 C17.84 88.34, 16.18 86.89, 14.64 85.36 C13.11 83.82, 11.66 82.16, 10.33 80.44 C9.01 78.71, 7.79 76.88, 6.7 75 C5.61 73.12, 4.64 71.14, 3.81 69.13 C2.97 67.12, 2.27 65.04, 1.7 62.94 C1.14 60.84, 0.71 58.68, 0.43 56.53 C0.14 54.37, 0 52.18, 0 50 C0 47.82, 0.14 45.63, 0.43 43.47 C0.71 41.32, 1.14 39.16, 1.7 37.06 C2.27 34.96, 2.97 32.88, 3.81 30.87 C4.64 28.86, 5.61 26.88, 6.7 25 C7.79 23.12, 9.01 21.29, 10.33 19.56 C11.66 17.84, 13.11 16.18, 14.64 14.64 C16.18 13.11, 17.84 11.66, 19.56 10.33 C21.29 9.01, 23.12 7.79, 25 6.7 C26.88 5.61, 28.86 4.64, 30.87 3.81 C32.88 2.97, 34.96 2.27, 37.06 1.7 C39.16 1.14, 41.32 0.71, 43.47 0.43 C45.63 0.14, 47.82 0, 50 0 C52.18 0, 54.37 0.14, 56.53 0.43 C58.68 0.71, 60.84 1.14, 62.94 1.7 C65.04 2.27, 67.12 2.97, 69.13 3.81 C71.14 4.64, 73.12 5.61, 75 6.7 C76.88 7.79, 78.71 9.01, 80.44 10.33 C82.16 11.66, 83.82 13.11, 85.36 14.64 C86.89 16.18, 88.34 17.84, 89.67 19.56 C90.99 21.29, 92.21 23.12, 93.3 25 C94.39 26.88, 95.36 28.86, 96.19 30.87 C97.03 32.88, 97.73 34.96, 98.3 37.06 C98.86 39.16, 99.29 41.32, 99.57 43.47 C99.86 45.63, 99.93 48.91, 100 50 C100.07 51.09, 100.07 48.91, 100 50" stroke="#1e1e1e" stroke-width="1" fill="none"></path></g><g stroke-linecap="round" transform="translate(1030 510) rotate(0 50 50)"><path d="M100 50 C100 52.18, 99.86 54.37, 99.57 56.53 C99.29 58.68, 98.86 60.84, 98.3 62.94 C97.73 65.04, 97.03 67.12, 96.19 69.13 C95.36 71.14, 94.39 73.12, 93.3 75 C92.21 76.88, 90.99 78.71, 89.67 80.44 C88.34 82.16, 86.89 83.82, 85.36 85.36 C83.82 86.89, 82.16 88.34, 80.44 89.67 C78.71 90.99, 76.88 92.21, 75 93.3 C73.12 94.39, 71.14 95.36, 69.13 96.19 C67.12 97.03, 65.04 97.73, 62.94 98.3 C60.84 98.86, 58.68 99.29, 56.53 99.57 C54.37 99.86, 52.18 100, 50 100 C47.82 100, 45.63 99.86, 43.47 99.57 C41.32 99.29, 39.16 98.86, 37.06 98.3 C34.96 97.73, 32.88 97.03, 30.87 96.19 C28.86 95.36, 26.88 94.39, 25 93.3 C23.12 92.21, 21.29 90.99, 19.56 89.67 C17.84 88.34, 16.18 86.89, 14.64 85.36 C13.11 83.82, 11.66 82.16, 10.33 80.44 C9.01 78.71, 7.79 76.88, 6.7 75 C5.61 73.12, 4.64 71.14, 3.81 69.13 C2.97 67.12, 2.27 65.04, 1.7 62.94 C1.14 60.84, 0.71 58.68, 0.43 56.53 C0.14 54.37, 0 52.18, 0 50 C0 47.82, 0.14 45.63, 0.43 43.47 C0.71 41.32, 1.14 39.16, 1.7 37.06 C2.27 34.96, 2.97 32.88, 3.81 30.87 C4.64 28.86, 5.61 26.88, 6.7 25 C7.79 23.12, 9.01 21.29, 10.33 19.56 C11.66 17.84, 13.11 16.18, 14.64 14.64 C16.18 13.11, 17.84 11.66, 19.56 10.33 C21.29 9.01, 23.12 7.79, 25 6.7 C26.88 5.61, 28.86 4.64, 30.87 3.81 C32.88 2.97, 34.96 2.27, 37.06 1.7 C39.16 1.14, 41.32 0.71, 43.47 0.43 C45.63 0.14, 47.82 0, 50 0 C52.18 0, 54.37 0.14, 56.53 0.43 C58.68 0.71, 60.84 1.14, 62.94 1.7 C65.04 2.27, 67.12 2.97, 69.13 3.81 C71.14 4.64, 73.12 5.61, 75 6.7 C76.88 7.79, 78.71 9.01, 80.44 10.33 C82.16 11.66, 83.82 13.11, 85.36 14.64 C86.89 16.18, 88.34 17.84, 89.67 19.56 C90.99 21.29, 92.21 23.12, 93.3 25 C94.39 26.88, 95.36 28.86, 96.19 30.87 C97.03 32.88, 97.73 34.96, 98.3 37.06 C98.86 39.16, 99.29 41.32, 99.57 43.47 C99.86 45.63, 99.93 48.91, 100 50 C100.07 51.09, 100.07 48.91, 100 50" stroke="none" stroke-width="0" fill="#b2f2bb"></path><path d="M100 50 C100 52.18, 99.86 54.37, 99.57 56.53 C99.29 58.68, 98.86 60.84, 98.3 62.94 C97.73 65.04, 97.03 67.12, 96.19 69.13 C95.36 71.14, 94.39 73.12, 93.3 75 C92.21 76.88, 90.99 78.71, 89.67 80.44 C88.34 82.16, 86.89 83.82, 85.36 85.36 C83.82 86.89, 82.16 88.34, 80.44 89.67 C78.71 90.99, 76.88 92.21, 75 93.3 C73.12 94.39, 71.14 95.36, 69.13 96.19 C67.12 97.03, 65.04 97.73, 62.94 98.3 C60.84 98.86, 58.68 99.29, 56.53 99.57 C54.37 99.86, 52.18 100, 50 100 C47.82 100, 45.63 99.86, 43.47 99.57 C41.32 99.29, 39.16 98.86, 37.06 98.3 C34.96 97.73, 32.88 97.03, 30.87 96.19 C28.86 95.36, 26.88 94.39, 25 93.3 C23.12 92.21, 21.29 90.99, 19.56 89.67 C17.84 88.34, 16.18 86.89, 14.64 85.36 C13.11 83.82, 11.66 82.16, 10.33 80.44 C9.01 78.71, 7.79 76.88, 6.7 75 C5.61 73.12, 4.64 71.14, 3.81 69.13 C2.97 67.12, 2.27 65.04, 1.7 62.94 C1.14 60.84, 0.71 58.68, 0.43 56.53 C0.14 54.37, 0 52.18, 0 50 C0 47.82, 0.14 45.63, 0.43 43.47 C0.71 41.32, 1.14 39.16, 1.7 37.06 C2.27 34.96, 2.97 32.88, 3.81 30.87 C4.64 28.86, 5.61 26.88, 6.7 25 C7.79 23.12, 9.01 21.29, 10.33 19.56 C11.66 17.84, 13.11 16.18, 14.64 14.64 C16.18 13.11, 17.84 11.66, 19.56 10.33 C21.29 9.01, 23.12 7.79, 25 6.7 C26.88 5.61, 28.86 4.64, 30.87 3.81 C32.88 2.97, 34.96 2.27, 37.06 1.7 C39.16 1.14, 41.32 0.71, 43.47 0.43 C45.63 0.14, 47.82 0, 50 0 C52.18 0, 54.37 0.14, 56.53 0.43 C58.68 0.71, 60.84 1.14, 62.94 1.7 C65.04 2.27, 67.12 2.97, 69.13 3.81 C71.14 4.64, 73.12 5.61, 75 6.7 C76.88 7.79, 78.71 9.01, 80.44 10.33 C82.16 11.66, 83.82 13.11, 85.36 14.64 C86.89 16.18, 88.34 17.84, 89.67 19.56 C90.99 21.29, 92.21 23.12, 93.3 25 C94.39 26.88, 95.36 28.86, 96.19 30.87 C97.03 32.88, 97.73 34.96, 98.3 37.06 C98.86 39.16, 99.29 41.32, 99.57 43.47 C99.86 45.63, 99.93 48.91, 100 50 C100.07 51.09, 100.07 48.91, 100 50" stroke="#1e1e1e" stroke-width="1" fill="none"></path></g><g stroke-linecap="round" transform="translate(930 510) rotate(0 50 50)"><path d="M100 50 C100 52.18, 99.86 54.37, 99.57 56.53 C99.29 58.68, 98.86 60.84, 98.3 62.94 C97.73 65.04, 97.03 67.12, 96.19 69.13 C95.36 71.14, 94.39 73.12, 93.3 75 C92.21 76.88, 90.99 78.71, 89.67 80.44 C88.34 82.16, 86.89 83.82, 85.36 85.36 C83.82 86.89, 82.16 88.34, 80.44 89.67 C78.71 90.99, 76.88 92.21, 75 93.3 C73.12 94.39, 71.14 95.36, 69.13 96.19 C67.12 97.03, 65.04 97.73, 62.94 98.3 C60.84 98.86, 58.68 99.29, 56.53 99.57 C54.37 99.86, 52.18 100, 50 100 C47.82 100, 45.63 99.86, 43.47 99.57 C41.32 99.29, 39.16 98.86, 37.06 98.3 C34.96 97.73, 32.88 97.03, 30.87 96.19 C28.86 95.36, 26.88 94.39, 25 93.3 C23.12 92.21, 21.29 90.99, 19.56 89.67 C17.84 88.34, 16.18 86.89, 14.64 85.36 C13.11 83.82, 11.66 82.16, 10.33 80.44 C9.01 78.71, 7.79 76.88, 6.7 75 C5.61 73.12, 4.64 71.14, 3.81 69.13 C2.97 67.12, 2.27 65.04, 1.7 62.94 C1.14 60.84, 0.71 58.68, 0.43 56.53 C0.14 54.37, 0 52.18, 0 50 C0 47.82, 0.14 45.63, 0.43 43.47 C0.71 41.32, 1.14 39.16, 1.7 37.06 C2.27 34.96, 2.97 32.88, 3.81 30.87 C4.64 28.86, 5.61 26.88, 6.7 25 C7.79 23.12, 9.01 21.29, 10.33 19.56 C11.66 17.84, 13.11 16.18, 14.64 14.64 C16.18 13.11, 17.84 11.66, 19.56 10.33 C21.29 9.01, 23.12 7.79, 25 6.7 C26.88 5.61, 28.86 4.64, 30.87 3.81 C32.88 2.97, 34.96 2.27, 37.06 1.7 C39.16 1.14, 41.32 0.71, 43.47 0.43 C45.63 0.14, 47.82 0, 50 0 C52.18 0, 54.37 0.14, 56.53 0.43 C58.68 0.71, 60.84 1.14, 62.94 1.7 C65.04 2.27, 67.12 2.97, 69.13 3.81 C71.14 4.64, 73.12 5.61, 75 6.7 C76.88 7.79, 78.71 9.01, 80.44 10.33 C82.16 11.66, 83.82 13.11, 85.36 14.64 C86.89 16.18, 88.34 17.84, 89.67 19.56 C90.99 21.29, 92.21 23.12, 93.3 25 C94.39 26.88, 95.36 28.86, 96.19 30.87 C97.03 32.88, 97.73 34.96, 98.3 37.06 C98.86 39.16, 99.29 41.32, 99.57 43.47 C99.86 45.63, 99.93 48.91, 100 50 C100.07 51.09, 100.07 48.91, 100 50" stroke="none" stroke-width="0" fill="#b2f2bb"></path><path d="M100 50 C100 52.18, 99.86 54.37, 99.57 56.53 C99.29 58.68, 98.86 60.84, 98.3 62.94 C97.73 65.04, 97.03 67.12, 96.19 69.13 C95.36 71.14, 94.39 73.12, 93.3 75 C92.21 76.88, 90.99 78.71, 89.67 80.44 C88.34 82.16, 86.89 83.82, 85.36 85.36 C83.82 86.89, 82.16 88.34, 80.44 89.67 C78.71 90.99, 76.88 92.21, 75 93.3 C73.12 94.39, 71.14 95.36, 69.13 96.19 C67.12 97.03, 65.04 97.73, 62.94 98.3 C60.84 98.86, 58.68 99.29, 56.53 99.57 C54.37 99.86, 52.18 100, 50 100 C47.82 100, 45.63 99.86, 43.47 99.57 C41.32 99.29, 39.16 98.86, 37.06 98.3 C34.96 97.73, 32.88 97.03, 30.87 96.19 C28.86 95.36, 26.88 94.39, 25 93.3 C23.12 92.21, 21.29 90.99, 19.56 89.67 C17.84 88.34, 16.18 86.89, 14.64 85.36 C13.11 83.82, 11.66 82.16, 10.33 80.44 C9.01 78.71, 7.79 76.88, 6.7 75 C5.61 73.12, 4.64 71.14, 3.81 69.13 C2.97 67.12, 2.27 65.04, 1.7 62.94 C1.14 60.84, 0.71 58.68, 0.43 56.53 C0.14 54.37, 0 52.18, 0 50 C0 47.82, 0.14 45.63, 0.43 43.47 C0.71 41.32, 1.14 39.16, 1.7 37.06 C2.27 34.96, 2.97 32.88, 3.81 30.87 C4.64 28.86, 5.61 26.88, 6.7 25 C7.79 23.12, 9.01 21.29, 10.33 19.56 C11.66 17.84, 13.11 16.18, 14.64 14.64 C16.18 13.11, 17.84 11.66, 19.56 10.33 C21.29 9.01, 23.12 7.79, 25 6.7 C26.88 5.61, 28.86 4.64, 30.87 3.81 C32.88 2.97, 34.96 2.27, 37.06 1.7 C39.16 1.14, 41.32 0.71, 43.47 0.43 C45.63 0.14, 47.82 0, 50 0 C52.18 0, 54.37 0.14, 56.53 0.43 C58.68 0.71, 60.84 1.14, 62.94 1.7 C65.04 2.27, 67.12 2.97, 69.13 3.81 C71.14 4.64, 73.12 5.61, 75 6.7 C76.88 7.79, 78.71 9.01, 80.44 10.33 C82.16 11.66, 83.82 13.11, 85.36 14.64 C86.89 16.18, 88.34 17.84, 89.67 19.56 C90.99 21.29, 92.21 23.12, 93.3 25 C94.39 26.88, 95.36 28.86, 96.19 30.87 C97.03 32.88, 97.73 34.96, 98.3 37.06 C98.86 39.16, 99.29 41.32, 99.57 43.47 C99.86 45.63, 99.93 48.91, 100 50 C100.07 51.09, 100.07 48.91, 100 50" stroke="#1e1e1e" stroke-width="1" fill="none"></path></g><g stroke-linecap="round" transform="translate(1530 510) rotate(0 50 50)"><path d="M100 50 C100 52.18, 99.86 54.37, 99.57 56.53 C99.29 58.68, 98.86 60.84, 98.3 62.94 C97.73 65.04, 97.03 67.12, 96.19 69.13 C95.36 71.14, 94.39 73.12, 93.3 75 C92.21 76.88, 90.99 78.71, 89.67 80.44 C88.34 82.16, 86.89 83.82, 85.36 85.36 C83.82 86.89, 82.16 88.34, 80.44 89.67 C78.71 90.99, 76.88 92.21, 75 93.3 C73.12 94.39, 71.14 95.36, 69.13 96.19 C67.12 97.03, 65.04 97.73, 62.94 98.3 C60.84 98.86, 58.68 99.29, 56.53 99.57 C54.37 99.86, 52.18 100, 50 100 C47.82 100, 45.63 99.86, 43.47 99.57 C41.32 99.29, 39.16 98.86, 37.06 98.3 C34.96 97.73, 32.88 97.03, 30.87 96.19 C28.86 95.36, 26.88 94.39, 25 93.3 C23.12 92.21, 21.29 90.99, 19.56 89.67 C17.84 88.34, 16.18 86.89, 14.64 85.36 C13.11 83.82, 11.66 82.16, 10.33 80.44 C9.01 78.71, 7.79 76.88, 6.7 75 C5.61 73.12, 4.64 71.14, 3.81 69.13 C2.97 67.12, 2.27 65.04, 1.7 62.94 C1.14 60.84, 0.71 58.68, 0.43 56.53 C0.14 54.37, 0 52.18, 0 50 C0 47.82, 0.14 45.63, 0.43 43.47 C0.71 41.32, 1.14 39.16, 1.7 37.06 C2.27 34.96, 2.97 32.88, 3.81 30.87 C4.64 28.86, 5.61 26.88, 6.7 25 C7.79 23.12, 9.01 21.29, 10.33 19.56 C11.66 17.84, 13.11 16.18, 14.64 14.64 C16.18 13.11, 17.84 11.66, 19.56 10.33 C21.29 9.01, 23.12 7.79, 25 6.7 C26.88 5.61, 28.86 4.64, 30.87 3.81 C32.88 2.97, 34.96 2.27, 37.06 1.7 C39.16 1.14, 41.32 0.71, 43.47 0.43 C45.63 0.14, 47.82 0, 50 0 C52.18 0, 54.37 0.14, 56.53 0.43 C58.68 0.71, 60.84 1.14, 62.94 1.7 C65.04 2.27, 67.12 2.97, 69.13 3.81 C71.14 4.64, 73.12 5.61, 75 6.7 C76.88 7.79, 78.71 9.01, 80.44 10.33 C82.16 11.66, 83.82 13.11, 85.36 14.64 C86.89 16.18, 88.34 17.84, 89.67 19.56 C90.99 21.29, 92.21 23.12, 93.3 25 C94.39 26.88, 95.36 28.86, 96.19 30.87 C97.03 32.88, 97.73 34.96, 98.3 37.06 C98.86 39.16, 99.29 41.32, 99.57 43.47 C99.86 45.63, 99.93 48.91, 100 50 C100.07 51.09, 100.07 48.91, 100 50" stroke="none" stroke-width="0" fill="#b2f2bb"></path><path d="M100 50 C100 52.18, 99.86 54.37, 99.57 56.53 C99.29 58.68, 98.86 60.84, 98.3 62.94 C97.73 65.04, 97.03 67.12, 96.19 69.13 C95.36 71.14, 94.39 73.12, 93.3 75 C92.21 76.88, 90.99 78.71, 89.67 80.44 C88.34 82.16, 86.89 83.82, 85.36 85.36 C83.82 86.89, 82.16 88.34, 80.44 89.67 C78.71 90.99, 76.88 92.21, 75 93.3 C73.12 94.39, 71.14 95.36, 69.13 96.19 C67.12 97.03, 65.04 97.73, 62.94 98.3 C60.84 98.86, 58.68 99.29, 56.53 99.57 C54.37 99.86, 52.18 100, 50 100 C47.82 100, 45.63 99.86, 43.47 99.57 C41.32 99.29, 39.16 98.86, 37.06 98.3 C34.96 97.73, 32.88 97.03, 30.87 96.19 C28.86 95.36, 26.88 94.39, 25 93.3 C23.12 92.21, 21.29 90.99, 19.56 89.67 C17.84 88.34, 16.18 86.89, 14.64 85.36 C13.11 83.82, 11.66 82.16, 10.33 80.44 C9.01 78.71, 7.79 76.88, 6.7 75 C5.61 73.12, 4.64 71.14, 3.81 69.13 C2.97 67.12, 2.27 65.04, 1.7 62.94 C1.14 60.84, 0.71 58.68, 0.43 56.53 C0.14 54.37, 0 52.18, 0 50 C0 47.82, 0.14 45.63, 0.43 43.47 C0.71 41.32, 1.14 39.16, 1.7 37.06 C2.27 34.96, 2.97 32.88, 3.81 30.87 C4.64 28.86, 5.61 26.88, 6.7 25 C7.79 23.12, 9.01 21.29, 10.33 19.56 C11.66 17.84, 13.11 16.18, 14.64 14.64 C16.18 13.11, 17.84 11.66, 19.56 10.33 C21.29 9.01, 23.12 7.79, 25 6.7 C26.88 5.61, 28.86 4.64, 30.87 3.81 C32.88 2.97, 34.96 2.27, 37.06 1.7 C39.16 1.14, 41.32 0.71, 43.47 0.43 C45.63 0.14, 47.82 0, 50 0 C52.18 0, 54.37 0.14, 56.53 0.43 C58.68 0.71, 60.84 1.14, 62.94 1.7 C65.04 2.27, 67.12 2.97, 69.13 3.81 C71.14 4.64, 73.12 5.61, 75 6.7 C76.88 7.79, 78.71 9.01, 80.44 10.33 C82.16 11.66, 83.82 13.11, 85.36 14.64 C86.89 16.18, 88.34 17.84, 89.67 19.56 C90.99 21.29, 92.21 23.12, 93.3 25 C94.39 26.88, 95.36 28.86, 96.19 30.87 C97.03 32.88, 97.73 34.96, 98.3 37.06 C98.86 39.16, 99.29 41.32, 99.57 43.47 C99.86 45.63, 99.93 48.91, 100 50 C100.07 51.09, 100.07 48.91, 100 50" stroke="#1e1e1e" stroke-width="1" fill="none"></path></g><g stroke-linecap="round" transform="translate(1330 510) rotate(0 50 50)"><path d="M100 50 C100 52.18, 99.86 54.37, 99.57 56.53 C99.29 58.68, 98.86 60.84, 98.3 62.94 C97.73 65.04, 97.03 67.12, 96.19 69.13 C95.36 71.14, 94.39 73.12, 93.3 75 C92.21 76.88, 90.99 78.71, 89.67 80.44 C88.34 82.16, 86.89 83.82, 85.36 85.36 C83.82 86.89, 82.16 88.34, 80.44 89.67 C78.71 90.99, 76.88 92.21, 75 93.3 C73.12 94.39, 71.14 95.36, 69.13 96.19 C67.12 97.03, 65.04 97.73, 62.94 98.3 C60.84 98.86, 58.68 99.29, 56.53 99.57 C54.37 99.86, 52.18 100, 50 100 C47.82 100, 45.63 99.86, 43.47 99.57 C41.32 99.29, 39.16 98.86, 37.06 98.3 C34.96 97.73, 32.88 97.03, 30.87 96.19 C28.86 95.36, 26.88 94.39, 25 93.3 C23.12 92.21, 21.29 90.99, 19.56 89.67 C17.84 88.34, 16.18 86.89, 14.64 85.36 C13.11 83.82, 11.66 82.16, 10.33 80.44 C9.01 78.71, 7.79 76.88, 6.7 75 C5.61 73.12, 4.64 71.14, 3.81 69.13 C2.97 67.12, 2.27 65.04, 1.7 62.94 C1.14 60.84, 0.71 58.68, 0.43 56.53 C0.14 54.37, 0 52.18, 0 50 C0 47.82, 0.14 45.63, 0.43 43.47 C0.71 41.32, 1.14 39.16, 1.7 37.06 C2.27 34.96, 2.97 32.88, 3.81 30.87 C4.64 28.86, 5.61 26.88, 6.7 25 C7.79 23.12, 9.01 21.29, 10.33 19.56 C11.66 17.84, 13.11 16.18, 14.64 14.64 C16.18 13.11, 17.84 11.66, 19.56 10.33 C21.29 9.01, 23.12 7.79, 25 6.7 C26.88 5.61, 28.86 4.64, 30.87 3.81 C32.88 2.97, 34.96 2.27, 37.06 1.7 C39.16 1.14, 41.32 0.71, 43.47 0.43 C45.63 0.14, 47.82 0, 50 0 C52.18 0, 54.37 0.14, 56.53 0.43 C58.68 0.71, 60.84 1.14, 62.94 1.7 C65.04 2.27, 67.12 2.97, 69.13 3.81 C71.14 4.64, 73.12 5.61, 75 6.7 C76.88 7.79, 78.71 9.01, 80.44 10.33 C82.16 11.66, 83.82 13.11, 85.36 14.64 C86.89 16.18, 88.34 17.84, 89.67 19.56 C90.99 21.29, 92.21 23.12, 93.3 25 C94.39 26.88, 95.36 28.86, 96.19 30.87 C97.03 32.88, 97.73 34.96, 98.3 37.06 C98.86 39.16, 99.29 41.32, 99.57 43.47 C99.86 45.63, 99.93 48.91, 100 50 C100.07 51.09, 100.07 48.91, 100 50" stroke="none" stroke-width="0" fill="#b2f2bb"></path><path d="M100 50 C100 52.18, 99.86 54.37, 99.57 56.53 C99.29 58.68, 98.86 60.84, 98.3 62.94 C97.73 65.04, 97.03 67.12, 96.19 69.13 C95.36 71.14, 94.39 73.12, 93.3 75 C92.21 76.88, 90.99 78.71, 89.67 80.44 C88.34 82.16, 86.89 83.82, 85.36 85.36 C83.82 86.89, 82.16 88.34, 80.44 89.67 C78.71 90.99, 76.88 92.21, 75 93.3 C73.12 94.39, 71.14 95.36, 69.13 96.19 C67.12 97.03, 65.04 97.73, 62.94 98.3 C60.84 98.86, 58.68 99.29, 56.53 99.57 C54.37 99.86, 52.18 100, 50 100 C47.82 100, 45.63 99.86, 43.47 99.57 C41.32 99.29, 39.16 98.86, 37.06 98.3 C34.96 97.73, 32.88 97.03, 30.87 96.19 C28.86 95.36, 26.88 94.39, 25 93.3 C23.12 92.21, 21.29 90.99, 19.56 89.67 C17.84 88.34, 16.18 86.89, 14.64 85.36 C13.11 83.82, 11.66 82.16, 10.33 80.44 C9.01 78.71, 7.79 76.88, 6.7 75 C5.61 73.12, 4.64 71.14, 3.81 69.13 C2.97 67.12, 2.27 65.04, 1.7 62.94 C1.14 60.84, 0.71 58.68, 0.43 56.53 C0.14 54.37, 0 52.18, 0 50 C0 47.82, 0.14 45.63, 0.43 43.47 C0.71 41.32, 1.14 39.16, 1.7 37.06 C2.27 34.96, 2.97 32.88, 3.81 30.87 C4.64 28.86, 5.61 26.88, 6.7 25 C7.79 23.12, 9.01 21.29, 10.33 19.56 C11.66 17.84, 13.11 16.18, 14.64 14.64 C16.18 13.11, 17.84 11.66, 19.56 10.33 C21.29 9.01, 23.12 7.79, 25 6.7 C26.88 5.61, 28.86 4.64, 30.87 3.81 C32.88 2.97, 34.96 2.27, 37.06 1.7 C39.16 1.14, 41.32 0.71, 43.47 0.43 C45.63 0.14, 47.82 0, 50 0 C52.18 0, 54.37 0.14, 56.53 0.43 C58.68 0.71, 60.84 1.14, 62.94 1.7 C65.04 2.27, 67.12 2.97, 69.13 3.81 C71.14 4.64, 73.12 5.61, 75 6.7 C76.88 7.79, 78.71 9.01, 80.44 10.33 C82.16 11.66, 83.82 13.11, 85.36 14.64 C86.89 16.18, 88.34 17.84, 89.67 19.56 C90.99 21.29, 92.21 23.12, 93.3 25 C94.39 26.88, 95.36 28.86, 96.19 30.87 C97.03 32.88, 97.73 34.96, 98.3 37.06 C98.86 39.16, 99.29 41.32, 99.57 43.47 C99.86 45.63, 99.93 48.91, 100 50 C100.07 51.09, 100.07 48.91, 100 50" stroke="#1e1e1e" stroke-width="1" fill="none"></path></g><g stroke-linecap="round" transform="translate(1250 510) rotate(0 40 50)"><path d="M0 0 L80 0 L80 100 L0 100" stroke="none" stroke-width="0" fill="#e9ecef"></path><path d="M0 0 C18.12 0, 36.25 0, 80 0 M0 0 C17.1 0, 34.19 0, 80 0 M80 0 C80 38.12, 80 76.23, 80 100 M80 0 C80 32.16, 80 64.33, 80 100 M80 100 C49.49 100, 18.99 100, 0 100 M80 100 C62.75 100, 45.5 100, 0 100 M0 100 C0 79.75, 0 59.5, 0 0 M0 100 C0 67.6, 0 35.2, 0 0" stroke="#1e1e1e" stroke-width="1" fill="none"></path></g><g stroke-linecap="round" transform="translate(1430 290) rotate(0 20 20)"><path d="M40 20 C40 21.16, 39.9 22.33, 39.7 23.47 C39.5 24.61, 39.19 25.75, 38.79 26.84 C38.4 27.93, 37.9 29, 37.32 30 C36.74 31, 36.07 31.97, 35.32 32.86 C34.58 33.74, 33.74 34.58, 32.86 35.32 C31.97 36.07, 31 36.74, 30 37.32 C29 37.9, 27.93 38.4, 26.84 38.79 C25.75 39.19, 24.61 39.5, 23.47 39.7 C22.33 39.9, 21.16 40, 20 40 C18.84 40, 17.67 39.9, 16.53 39.7 C15.39 39.5, 14.25 39.19, 13.16 38.79 C12.07 38.4, 11 37.9, 10 37.32 C9 36.74, 8.03 36.07, 7.14 35.32 C6.26 34.58, 5.42 33.74, 4.68 32.86 C3.93 31.97, 3.26 31, 2.68 30 C2.1 29, 1.6 27.93, 1.21 26.84 C0.81 25.75, 0.5 24.61, 0.3 23.47 C0.1 22.33, 0 21.16, 0 20 C0 18.84, 0.1 17.67, 0.3 16.53 C0.5 15.39, 0.81 14.25, 1.21 13.16 C1.6 12.07, 2.1 11, 2.68 10 C3.26 9, 3.93 8.03, 4.68 7.14 C5.42 6.26, 6.26 5.42, 7.14 4.68 C8.03 3.93, 9 3.26, 10 2.68 C11 2.1, 12.07 1.6, 13.16 1.21 C14.25 0.81, 15.39 0.5, 16.53 0.3 C17.67 0.1, 18.84 0, 20 0 C21.16 0, 22.33 0.1, 23.47 0.3 C24.61 0.5, 25.75 0.81, 26.84 1.21 C27.93 1.6, 29 2.1, 30 2.68 C31 3.26, 31.97 3.93, 32.86 4.68 C33.74 5.42, 34.58 6.26, 35.32 7.14 C36.07 8.03, 36.74 9, 37.32 10 C37.9 11, 38.4 12.07, 38.79 13.16 C39.19 14.25, 39.5 15.39, 39.7 16.53 C39.9 17.67, 39.95 19.42, 40 20 C40.05 20.58, 40.05 19.42, 40 20" stroke="none" stroke-width="0" fill="#a5d8ff"></path><path d="M40 20 C40 21.16, 39.9 22.33, 39.7 23.47 C39.5 24.61, 39.19 25.75, 38.79 26.84 C38.4 27.93, 37.9 29, 37.32 30 C36.74 31, 36.07 31.97, 35.32 32.86 C34.58 33.74, 33.74 34.58, 32.86 35.32 C31.97 36.07, 31 36.74, 30 37.32 C29 37.9, 27.93 38.4, 26.84 38.79 C25.75 39.19, 24.61 39.5, 23.47 39.7 C22.33 39.9, 21.16 40, 20 40 C18.84 40, 17.67 39.9, 16.53 39.7 C15.39 39.5, 14.25 39.19, 13.16 38.79 C12.07 38.4, 11 37.9, 10 37.32 C9 36.74, 8.03 36.07, 7.14 35.32 C6.26 34.58, 5.42 33.74, 4.68 32.86 C3.93 31.97, 3.26 31, 2.68 30 C2.1 29, 1.6 27.93, 1.21 26.84 C0.81 25.75, 0.5 24.61, 0.3 23.47 C0.1 22.33, 0 21.16, 0 20 C0 18.84, 0.1 17.67, 0.3 16.53 C0.5 15.39, 0.81 14.25, 1.21 13.16 C1.6 12.07, 2.1 11, 2.68 10 C3.26 9, 3.93 8.03, 4.68 7.14 C5.42 6.26, 6.26 5.42, 7.14 4.68 C8.03 3.93, 9 3.26, 10 2.68 C11 2.1, 12.07 1.6, 13.16 1.21 C14.25 0.81, 15.39 0.5, 16.53 0.3 C17.67 0.1, 18.84 0, 20 0 C21.16 0, 22.33 0.1, 23.47 0.3 C24.61 0.5, 25.75 0.81, 26.84 1.21 C27.93 1.6, 29 2.1, 30 2.68 C31 3.26, 31.97 3.93, 32.86 4.68 C33.74 5.42, 34.58 6.26, 35.32 7.14 C36.07 8.03, 36.74 9, 37.32 10 C37.9 11, 38.4 12.07, 38.79 13.16 C39.19 14.25, 39.5 15.39, 39.7 16.53 C39.9 17.67, 39.95 19.42, 40 20 C40.05 20.58, 40.05 19.42, 40 20" stroke="#1e1e1e" stroke-width="1" fill="none"></path></g><g stroke-linecap="round"><g transform="translate(1430 310) rotate(0 0 -30)"><path d="M0 0 C0 -13.65, 0 -27.31, 0 -60 M0 0 C0 -19.53, 0 -39.07, 0 -60" stroke="#1e1e1e" stroke-width="1" fill="none"></path></g></g><mask></mask><g stroke-linecap="round"><g transform="translate(1470 310) rotate(0 0 -30)"><path d="M0 0 C0 -15.59, 0 -31.17, 0 -60 M0 0 C0 -16.32, 0 -32.63, 0 -60" stroke="#1e1e1e" stroke-width="1" fill="none"></path></g></g><mask></mask><g stroke-linecap="round" transform="translate(1410 170) rotate(0 40 40)"><path d="M0 0 C30.51 0, 61.01 0, 80 0 M0 0 C17.25 0, 34.5 0, 80 0 M80 0 C80 16.2, 80 32.4, 80 80 M80 0 C80 25.92, 80 51.84, 80 80 M80 80 C52 80, 24 80, 0 80 M80 80 C58.36 80, 36.71 80, 0 80 M0 80 C0 63.31, 0 46.62, 0 0 M0 80 C0 54.07, 0 28.14, 0 0" stroke="#1e1e1e" stroke-width="1" fill="none"></path></g><g stroke-linecap="round" transform="translate(2172.6160548803755 144.1163952500292) rotate(346.4435791340601 46.88544896999076 211.1813925224994)"><path d="M47 0 L93.77 212 L47 422.36 L0 212" stroke="none" stroke-width="0" fill="#ffc9c9" fill-rule="evenodd"></path><path d="M47 0 C57.19 46.18, 67.38 92.36, 93.77 212 M47 0 C62.67 71.03, 78.34 142.06, 93.77 212 M93.77 212 C78.31 281.54, 62.85 351.08, 47 422.36 M93.77 212 C76.58 289.33, 59.38 366.66, 47 422.36 M47 422.36 C31.27 351.97, 15.54 281.57, 0 212 M47 422.36 C33.77 363.13, 20.53 303.9, 0 212 M0 212 C13.03 153.25, 26.05 94.49, 47 0 M0 212 C12.38 156.16, 24.76 100.32, 47 0" stroke="#1e1e1e" stroke-width="1" fill="none"></path></g><g stroke-linecap="round" transform="translate(2170 510) rotate(0 40 50)"><path d="M0 0 L80 0 L80 100 L0 100" stroke="none" stroke-width="0" fill="#e9ecef"></path><path d="M0 0 C27.07 0, 54.13 0, 80 0 M0 0 C25.56 0, 51.13 0, 80 0 M80 0 C80 32.24, 80 64.48, 80 100 M80 0 C80 29.57, 80 59.14, 80 100 M80 100 C54.22 100, 28.45 100, 0 100 M80 100 C51.88 100, 23.75 100, 0 100 M0 100 C0 62.3, 0 24.6, 0 0 M0 100 C0 79.36, 0 58.72, 0 0" stroke="#1e1e1e" stroke-width="1" fill="none"></path></g><g stroke-linecap="round"><g transform="translate(1970 310) rotate(0 100 0)"><path d="M0 0 C33.33 0, 166.67 0, 200 0 M0 0 C33.33 0, 166.67 0, 200 0" stroke="#1e1e1e" stroke-width="1" fill="none"></path></g></g><mask></mask><g stroke-linecap="round"><g transform="translate(1971.737399528315 511.8540743501578) rotate(0 149.13130023584233 -0.9270371750788797)"><path d="M0 0 C49.71 -0.31, 248.55 -1.55, 298.26 -1.85 M0 0 C49.71 -0.31, 248.55 -1.55, 298.26 -1.85" stroke="#1e1e1e" stroke-width="1" fill="none"></path></g></g><mask></mask><g stroke-linecap="round" transform="translate(2172.6160548803755 84.1163952500292) rotate(346.4435791340601 46.88544896999076 211.1813925224994)"><path d="M47 0 L93.77 212 L47 422.36 L0 212" stroke="none" stroke-width="0" fill="#b2f2bb" fill-rule="evenodd"></path><path d="M47 0 C56.81 44.45, 66.61 88.9, 93.77 212 M47 0 C58.22 50.85, 69.44 101.71, 93.77 212 M93.77 212 C77.46 285.38, 61.14 358.75, 47 422.36 M93.77 212 C80.59 271.28, 67.41 330.56, 47 422.36 M47 422.36 C32.7 358.37, 18.4 294.37, 0 212 M47 422.36 C35.56 371.15, 24.12 319.94, 0 212 M0 212 C18.05 130.6, 36.09 49.19, 47 0 M0 212 C12.94 153.62, 25.88 95.25, 47 0" stroke="#1e1e1e" stroke-width="1" fill="none"></path></g><g stroke-linecap="round"><g transform="translate(2190 210) rotate(0 0 39.5)"><path d="M0 0 C0 13.17, 0 65.83, 0 79 M0 0 C0 13.17, 0 65.83, 0 79" stroke="#1e1e1e" stroke-width="1" fill="none"></path></g><g transform="translate(2190 210) rotate(0 0 39.5)"><path d="M0 79 L-6.34 65.41 L6.34 65.41 L0 79" stroke="none" stroke-width="0" fill="#1e1e1e" fill-rule="evenodd"></path><path d="M0 79 C-2.49 73.67, -4.97 68.34, -6.34 65.41 M0 79 C-1.5 75.78, -3 72.56, -6.34 65.41 M-6.34 65.41 C-1.92 65.41, 2.49 65.41, 6.34 65.41 M-6.34 65.41 C-2.76 65.41, 0.81 65.41, 6.34 65.41 M6.34 65.41 C4.14 70.12, 1.94 74.83, 0 79 M6.34 65.41 C4.32 69.74, 2.3 74.07, 0 79 M0 79 C0 79, 0 79, 0 79 M0 79 C0 79, 0 79, 0 79" stroke="#1e1e1e" stroke-width="1" fill="none"></path></g></g><mask></mask><g stroke-linecap="round"><g transform="translate(2218.0265889759557 268.2018953854397) rotate(0 0 40)"><path d="M0 0 C0 13.33, 0 66.67, 0 80 M0 0 C0 13.33, 0 66.67, 0 80" stroke="#1e1e1e" stroke-width="1" fill="none"></path></g><g transform="translate(2218.0265889759557 268.2018953854397) rotate(0 0 40)"><path d="M0 80 L-6.34 66.41 L6.34 66.41 L0 80" stroke="none" stroke-width="0" fill="#1e1e1e" fill-rule="evenodd"></path><path d="M0 80 C-2.1 75.51, -4.19 71.01, -6.34 66.41 M0 80 C-2.33 75, -4.66 70.01, -6.34 66.41 M-6.34 66.41 C-2.1 66.41, 2.15 66.41, 6.34 66.41 M-6.34 66.41 C-2.77 66.41, 0.8 66.41, 6.34 66.41 M6.34 66.41 C4.58 70.17, 2.83 73.94, 0 80 M6.34 66.41 C4.67 69.99, 3 73.57, 0 80 M0 80 C0 80, 0 80, 0 80 M0 80 C0 80, 0 80, 0 80" stroke="#1e1e1e" stroke-width="1" fill="none"></path></g></g><mask></mask><g stroke-linecap="round"><g transform="translate(2250 350) rotate(0 0 40)"><path d="M0 0 C0 13.33, 0 66.67, 0 80 M0 0 C0 13.33, 0 66.67, 0 80" stroke="#1e1e1e" stroke-width="1" fill="none"></path></g><g transform="translate(2250 350) rotate(0 0 40)"><path d="M0 80 L-6.34 66.41 L6.34 66.41 L0 80" stroke="none" stroke-width="0" fill="#1e1e1e" fill-rule="evenodd"></path><path d="M0 80 C-2.04 75.62, -4.09 71.23, -6.34 66.41 M0 80 C-1.87 75.98, -3.75 71.96, -6.34 66.41 M-6.34 66.41 C-2.25 66.41, 1.83 66.41, 6.34 66.41 M-6.34 66.41 C-1.88 66.41, 2.58 66.41, 6.34 66.41 M6.34 66.41 C3.95 71.53, 1.56 76.66, 0 80 M6.34 66.41 C5.03 69.21, 3.72 72.02, 0 80 M0 80 C0 80, 0 80, 0 80 M0 80 C0 80, 0 80, 0 80" stroke="#1e1e1e" stroke-width="1" fill="none"></path></g></g><mask></mask><g stroke-linecap="round" transform="translate(2470 510) rotate(0 50 50)"><path d="M100 50 C100 52.18, 99.86 54.37, 99.57 56.53 C99.29 58.68, 98.86 60.84, 98.3 62.94 C97.73 65.04, 97.03 67.12, 96.19 69.13 C95.36 71.14, 94.39 73.12, 93.3 75 C92.21 76.88, 90.99 78.71, 89.67 80.44 C88.34 82.16, 86.89 83.82, 85.36 85.36 C83.82 86.89, 82.16 88.34, 80.44 89.67 C78.71 90.99, 76.88 92.21, 75 93.3 C73.12 94.39, 71.14 95.36, 69.13 96.19 C67.12 97.03, 65.04 97.73, 62.94 98.3 C60.84 98.86, 58.68 99.29, 56.53 99.57 C54.37 99.86, 52.18 100, 50 100 C47.82 100, 45.63 99.86, 43.47 99.57 C41.32 99.29, 39.16 98.86, 37.06 98.3 C34.96 97.73, 32.88 97.03, 30.87 96.19 C28.86 95.36, 26.88 94.39, 25 93.3 C23.12 92.21, 21.29 90.99, 19.56 89.67 C17.84 88.34, 16.18 86.89, 14.64 85.36 C13.11 83.82, 11.66 82.16, 10.33 80.44 C9.01 78.71, 7.79 76.88, 6.7 75 C5.61 73.12, 4.64 71.14, 3.81 69.13 C2.97 67.12, 2.27 65.04, 1.7 62.94 C1.14 60.84, 0.71 58.68, 0.43 56.53 C0.14 54.37, 0 52.18, 0 50 C0 47.82, 0.14 45.63, 0.43 43.47 C0.71 41.32, 1.14 39.16, 1.7 37.06 C2.27 34.96, 2.97 32.88, 3.81 30.87 C4.64 28.86, 5.61 26.88, 6.7 25 C7.79 23.12, 9.01 21.29, 10.33 19.56 C11.66 17.84, 13.11 16.18, 14.64 14.64 C16.18 13.11, 17.84 11.66, 19.56 10.33 C21.29 9.01, 23.12 7.79, 25 6.7 C26.88 5.61, 28.86 4.64, 30.87 3.81 C32.88 2.97, 34.96 2.27, 37.06 1.7 C39.16 1.14, 41.32 0.71, 43.47 0.43 C45.63 0.14, 47.82 0, 50 0 C52.18 0, 54.37 0.14, 56.53 0.43 C58.68 0.71, 60.84 1.14, 62.94 1.7 C65.04 2.27, 67.12 2.97, 69.13 3.81 C71.14 4.64, 73.12 5.61, 75 6.7 C76.88 7.79, 78.71 9.01, 80.44 10.33 C82.16 11.66, 83.82 13.11, 85.36 14.64 C86.89 16.18, 88.34 17.84, 89.67 19.56 C90.99 21.29, 92.21 23.12, 93.3 25 C94.39 26.88, 95.36 28.86, 96.19 30.87 C97.03 32.88, 97.73 34.96, 98.3 37.06 C98.86 39.16, 99.29 41.32, 99.57 43.47 C99.86 45.63, 99.93 48.91, 100 50 C100.07 51.09, 100.07 48.91, 100 50" stroke="none" stroke-width="0" fill="#b2f2bb"></path><path d="M100 50 C100 52.18, 99.86 54.37, 99.57 56.53 C99.29 58.68, 98.86 60.84, 98.3 62.94 C97.73 65.04, 97.03 67.12, 96.19 69.13 C95.36 71.14, 94.39 73.12, 93.3 75 C92.21 76.88, 90.99 78.71, 89.67 80.44 C88.34 82.16, 86.89 83.82, 85.36 85.36 C83.82 86.89, 82.16 88.34, 80.44 89.67 C78.71 90.99, 76.88 92.21, 75 93.3 C73.12 94.39, 71.14 95.36, 69.13 96.19 C67.12 97.03, 65.04 97.73, 62.94 98.3 C60.84 98.86, 58.68 99.29, 56.53 99.57 C54.37 99.86, 52.18 100, 50 100 C47.82 100, 45.63 99.86, 43.47 99.57 C41.32 99.29, 39.16 98.86, 37.06 98.3 C34.96 97.73, 32.88 97.03, 30.87 96.19 C28.86 95.36, 26.88 94.39, 25 93.3 C23.12 92.21, 21.29 90.99, 19.56 89.67 C17.84 88.34, 16.18 86.89, 14.64 85.36 C13.11 83.82, 11.66 82.16, 10.33 80.44 C9.01 78.71, 7.79 76.88, 6.7 75 C5.61 73.12, 4.64 71.14, 3.81 69.13 C2.97 67.12, 2.27 65.04, 1.7 62.94 C1.14 60.84, 0.71 58.68, 0.43 56.53 C0.14 54.37, 0 52.18, 0 50 C0 47.82, 0.14 45.63, 0.43 43.47 C0.71 41.32, 1.14 39.16, 1.7 37.06 C2.27 34.96, 2.97 32.88, 3.81 30.87 C4.64 28.86, 5.61 26.88, 6.7 25 C7.79 23.12, 9.01 21.29, 10.33 19.56 C11.66 17.84, 13.11 16.18, 14.64 14.64 C16.18 13.11, 17.84 11.66, 19.56 10.33 C21.29 9.01, 23.12 7.79, 25 6.7 C26.88 5.61, 28.86 4.64, 30.87 3.81 C32.88 2.97, 34.96 2.27, 37.06 1.7 C39.16 1.14, 41.32 0.71, 43.47 0.43 C45.63 0.14, 47.82 0, 50 0 C52.18 0, 54.37 0.14, 56.53 0.43 C58.68 0.71, 60.84 1.14, 62.94 1.7 C65.04 2.27, 67.12 2.97, 69.13 3.81 C71.14 4.64, 73.12 5.61, 75 6.7 C76.88 7.79, 78.71 9.01, 80.44 10.33 C82.16 11.66, 83.82 13.11, 85.36 14.64 C86.89 16.18, 88.34 17.84, 89.67 19.56 C90.99 21.29, 92.21 23.12, 93.3 25 C94.39 26.88, 95.36 28.86, 96.19 30.87 C97.03 32.88, 97.73 34.96, 98.3 37.06 C98.86 39.16, 99.29 41.32, 99.57 43.47 C99.86 45.63, 99.93 48.91, 100 50 C100.07 51.09, 100.07 48.91, 100 50" stroke="#1e1e1e" stroke-width="1" fill="none"></path></g><g stroke-linecap="round" transform="translate(2070 510) rotate(0 50 50)"><path d="M100 50 C100 52.18, 99.86 54.37, 99.57 56.53 C99.29 58.68, 98.86 60.84, 98.3 62.94 C97.73 65.04, 97.03 67.12, 96.19 69.13 C95.36 71.14, 94.39 73.12, 93.3 75 C92.21 76.88, 90.99 78.71, 89.67 80.44 C88.34 82.16, 86.89 83.82, 85.36 85.36 C83.82 86.89, 82.16 88.34, 80.44 89.67 C78.71 90.99, 76.88 92.21, 75 93.3 C73.12 94.39, 71.14 95.36, 69.13 96.19 C67.12 97.03, 65.04 97.73, 62.94 98.3 C60.84 98.86, 58.68 99.29, 56.53 99.57 C54.37 99.86, 52.18 100, 50 100 C47.82 100, 45.63 99.86, 43.47 99.57 C41.32 99.29, 39.16 98.86, 37.06 98.3 C34.96 97.73, 32.88 97.03, 30.87 96.19 C28.86 95.36, 26.88 94.39, 25 93.3 C23.12 92.21, 21.29 90.99, 19.56 89.67 C17.84 88.34, 16.18 86.89, 14.64 85.36 C13.11 83.82, 11.66 82.16, 10.33 80.44 C9.01 78.71, 7.79 76.88, 6.7 75 C5.61 73.12, 4.64 71.14, 3.81 69.13 C2.97 67.12, 2.27 65.04, 1.7 62.94 C1.14 60.84, 0.71 58.68, 0.43 56.53 C0.14 54.37, 0 52.18, 0 50 C0 47.82, 0.14 45.63, 0.43 43.47 C0.71 41.32, 1.14 39.16, 1.7 37.06 C2.27 34.96, 2.97 32.88, 3.81 30.87 C4.64 28.86, 5.61 26.88, 6.7 25 C7.79 23.12, 9.01 21.29, 10.33 19.56 C11.66 17.84, 13.11 16.18, 14.64 14.64 C16.18 13.11, 17.84 11.66, 19.56 10.33 C21.29 9.01, 23.12 7.79, 25 6.7 C26.88 5.61, 28.86 4.64, 30.87 3.81 C32.88 2.97, 34.96 2.27, 37.06 1.7 C39.16 1.14, 41.32 0.71, 43.47 0.43 C45.63 0.14, 47.82 0, 50 0 C52.18 0, 54.37 0.14, 56.53 0.43 C58.68 0.71, 60.84 1.14, 62.94 1.7 C65.04 2.27, 67.12 2.97, 69.13 3.81 C71.14 4.64, 73.12 5.61, 75 6.7 C76.88 7.79, 78.71 9.01, 80.44 10.33 C82.16 11.66, 83.82 13.11, 85.36 14.64 C86.89 16.18, 88.34 17.84, 89.67 19.56 C90.99 21.29, 92.21 23.12, 93.3 25 C94.39 26.88, 95.36 28.86, 96.19 30.87 C97.03 32.88, 97.73 34.96, 98.3 37.06 C98.86 39.16, 99.29 41.32, 99.57 43.47 C99.86 45.63, 99.93 48.91, 100 50 C100.07 51.09, 100.07 48.91, 100 50" stroke="none" stroke-width="0" fill="#b2f2bb"></path><path d="M100 50 C100 52.18, 99.86 54.37, 99.57 56.53 C99.29 58.68, 98.86 60.84, 98.3 62.94 C97.73 65.04, 97.03 67.12, 96.19 69.13 C95.36 71.14, 94.39 73.12, 93.3 75 C92.21 76.88, 90.99 78.71, 89.67 80.44 C88.34 82.16, 86.89 83.82, 85.36 85.36 C83.82 86.89, 82.16 88.34, 80.44 89.67 C78.71 90.99, 76.88 92.21, 75 93.3 C73.12 94.39, 71.14 95.36, 69.13 96.19 C67.12 97.03, 65.04 97.73, 62.94 98.3 C60.84 98.86, 58.68 99.29, 56.53 99.57 C54.37 99.86, 52.18 100, 50 100 C47.82 100, 45.63 99.86, 43.47 99.57 C41.32 99.29, 39.16 98.86, 37.06 98.3 C34.96 97.73, 32.88 97.03, 30.87 96.19 C28.86 95.36, 26.88 94.39, 25 93.3 C23.12 92.21, 21.29 90.99, 19.56 89.67 C17.84 88.34, 16.18 86.89, 14.64 85.36 C13.11 83.82, 11.66 82.16, 10.33 80.44 C9.01 78.71, 7.79 76.88, 6.7 75 C5.61 73.12, 4.64 71.14, 3.81 69.13 C2.97 67.12, 2.27 65.04, 1.7 62.94 C1.14 60.84, 0.71 58.68, 0.43 56.53 C0.14 54.37, 0 52.18, 0 50 C0 47.82, 0.14 45.63, 0.43 43.47 C0.71 41.32, 1.14 39.16, 1.7 37.06 C2.27 34.96, 2.97 32.88, 3.81 30.87 C4.64 28.86, 5.61 26.88, 6.7 25 C7.79 23.12, 9.01 21.29, 10.33 19.56 C11.66 17.84, 13.11 16.18, 14.64 14.64 C16.18 13.11, 17.84 11.66, 19.56 10.33 C21.29 9.01, 23.12 7.79, 25 6.7 C26.88 5.61, 28.86 4.64, 30.87 3.81 C32.88 2.97, 34.96 2.27, 37.06 1.7 C39.16 1.14, 41.32 0.71, 43.47 0.43 C45.63 0.14, 47.82 0, 50 0 C52.18 0, 54.37 0.14, 56.53 0.43 C58.68 0.71, 60.84 1.14, 62.94 1.7 C65.04 2.27, 67.12 2.97, 69.13 3.81 C71.14 4.64, 73.12 5.61, 75 6.7 C76.88 7.79, 78.71 9.01, 80.44 10.33 C82.16 11.66, 83.82 13.11, 85.36 14.64 C86.89 16.18, 88.34 17.84, 89.67 19.56 C90.99 21.29, 92.21 23.12, 93.3 25 C94.39 26.88, 95.36 28.86, 96.19 30.87 C97.03 32.88, 97.73 34.96, 98.3 37.06 C98.86 39.16, 99.29 41.32, 99.57 43.47 C99.86 45.63, 99.93 48.91, 100 50 C100.07 51.09, 100.07 48.91, 100 50" stroke="#1e1e1e" stroke-width="1" fill="none"></path></g><g stroke-linecap="round" transform="translate(1970 510) rotate(0 50 50)"><path d="M100 50 C100 52.18, 99.86 54.37, 99.57 56.53 C99.29 58.68, 98.86 60.84, 98.3 62.94 C97.73 65.04, 97.03 67.12, 96.19 69.13 C95.36 71.14, 94.39 73.12, 93.3 75 C92.21 76.88, 90.99 78.71, 89.67 80.44 C88.34 82.16, 86.89 83.82, 85.36 85.36 C83.82 86.89, 82.16 88.34, 80.44 89.67 C78.71 90.99, 76.88 92.21, 75 93.3 C73.12 94.39, 71.14 95.36, 69.13 96.19 C67.12 97.03, 65.04 97.73, 62.94 98.3 C60.84 98.86, 58.68 99.29, 56.53 99.57 C54.37 99.86, 52.18 100, 50 100 C47.82 100, 45.63 99.86, 43.47 99.57 C41.32 99.29, 39.16 98.86, 37.06 98.3 C34.96 97.73, 32.88 97.03, 30.87 96.19 C28.86 95.36, 26.88 94.39, 25 93.3 C23.12 92.21, 21.29 90.99, 19.56 89.67 C17.84 88.34, 16.18 86.89, 14.64 85.36 C13.11 83.82, 11.66 82.16, 10.33 80.44 C9.01 78.71, 7.79 76.88, 6.7 75 C5.61 73.12, 4.64 71.14, 3.81 69.13 C2.97 67.12, 2.27 65.04, 1.7 62.94 C1.14 60.84, 0.71 58.68, 0.43 56.53 C0.14 54.37, 0 52.18, 0 50 C0 47.82, 0.14 45.63, 0.43 43.47 C0.71 41.32, 1.14 39.16, 1.7 37.06 C2.27 34.96, 2.97 32.88, 3.81 30.87 C4.64 28.86, 5.61 26.88, 6.7 25 C7.79 23.12, 9.01 21.29, 10.33 19.56 C11.66 17.84, 13.11 16.18, 14.64 14.64 C16.18 13.11, 17.84 11.66, 19.56 10.33 C21.29 9.01, 23.12 7.79, 25 6.7 C26.88 5.61, 28.86 4.64, 30.87 3.81 C32.88 2.97, 34.96 2.27, 37.06 1.7 C39.16 1.14, 41.32 0.71, 43.47 0.43 C45.63 0.14, 47.82 0, 50 0 C52.18 0, 54.37 0.14, 56.53 0.43 C58.68 0.71, 60.84 1.14, 62.94 1.7 C65.04 2.27, 67.12 2.97, 69.13 3.81 C71.14 4.64, 73.12 5.61, 75 6.7 C76.88 7.79, 78.71 9.01, 80.44 10.33 C82.16 11.66, 83.82 13.11, 85.36 14.64 C86.89 16.18, 88.34 17.84, 89.67 19.56 C90.99 21.29, 92.21 23.12, 93.3 25 C94.39 26.88, 95.36 28.86, 96.19 30.87 C97.03 32.88, 97.73 34.96, 98.3 37.06 C98.86 39.16, 99.29 41.32, 99.57 43.47 C99.86 45.63, 99.93 48.91, 100 50 C100.07 51.09, 100.07 48.91, 100 50" stroke="none" stroke-width="0" fill="#b2f2bb"></path><path d="M100 50 C100 52.18, 99.86 54.37, 99.57 56.53 C99.29 58.68, 98.86 60.84, 98.3 62.94 C97.73 65.04, 97.03 67.12, 96.19 69.13 C95.36 71.14, 94.39 73.12, 93.3 75 C92.21 76.88, 90.99 78.71, 89.67 80.44 C88.34 82.16, 86.89 83.82, 85.36 85.36 C83.82 86.89, 82.16 88.34, 80.44 89.67 C78.71 90.99, 76.88 92.21, 75 93.3 C73.12 94.39, 71.14 95.36, 69.13 96.19 C67.12 97.03, 65.04 97.73, 62.94 98.3 C60.84 98.86, 58.68 99.29, 56.53 99.57 C54.37 99.86, 52.18 100, 50 100 C47.82 100, 45.63 99.86, 43.47 99.57 C41.32 99.29, 39.16 98.86, 37.06 98.3 C34.96 97.73, 32.88 97.03, 30.87 96.19 C28.86 95.36, 26.88 94.39, 25 93.3 C23.12 92.21, 21.29 90.99, 19.56 89.67 C17.84 88.34, 16.18 86.89, 14.64 85.36 C13.11 83.82, 11.66 82.16, 10.33 80.44 C9.01 78.71, 7.79 76.88, 6.7 75 C5.61 73.12, 4.64 71.14, 3.81 69.13 C2.97 67.12, 2.27 65.04, 1.7 62.94 C1.14 60.84, 0.71 58.68, 0.43 56.53 C0.14 54.37, 0 52.18, 0 50 C0 47.82, 0.14 45.63, 0.43 43.47 C0.71 41.32, 1.14 39.16, 1.7 37.06 C2.27 34.96, 2.97 32.88, 3.81 30.87 C4.64 28.86, 5.61 26.88, 6.7 25 C7.79 23.12, 9.01 21.29, 10.33 19.56 C11.66 17.84, 13.11 16.18, 14.64 14.64 C16.18 13.11, 17.84 11.66, 19.56 10.33 C21.29 9.01, 23.12 7.79, 25 6.7 C26.88 5.61, 28.86 4.64, 30.87 3.81 C32.88 2.97, 34.96 2.27, 37.06 1.7 C39.16 1.14, 41.32 0.71, 43.47 0.43 C45.63 0.14, 47.82 0, 50 0 C52.18 0, 54.37 0.14, 56.53 0.43 C58.68 0.71, 60.84 1.14, 62.94 1.7 C65.04 2.27, 67.12 2.97, 69.13 3.81 C71.14 4.64, 73.12 5.61, 75 6.7 C76.88 7.79, 78.71 9.01, 80.44 10.33 C82.16 11.66, 83.82 13.11, 85.36 14.64 C86.89 16.18, 88.34 17.84, 89.67 19.56 C90.99 21.29, 92.21 23.12, 93.3 25 C94.39 26.88, 95.36 28.86, 96.19 30.87 C97.03 32.88, 97.73 34.96, 98.3 37.06 C98.86 39.16, 99.29 41.32, 99.57 43.47 C99.86 45.63, 99.93 48.91, 100 50 C100.07 51.09, 100.07 48.91, 100 50" stroke="#1e1e1e" stroke-width="1" fill="none"></path></g><g stroke-linecap="round" transform="translate(2570 510) rotate(0 50 50)"><path d="M100 50 C100 52.18, 99.86 54.37, 99.57 56.53 C99.29 58.68, 98.86 60.84, 98.3 62.94 C97.73 65.04, 97.03 67.12, 96.19 69.13 C95.36 71.14, 94.39 73.12, 93.3 75 C92.21 76.88, 90.99 78.71, 89.67 80.44 C88.34 82.16, 86.89 83.82, 85.36 85.36 C83.82 86.89, 82.16 88.34, 80.44 89.67 C78.71 90.99, 76.88 92.21, 75 93.3 C73.12 94.39, 71.14 95.36, 69.13 96.19 C67.12 97.03, 65.04 97.73, 62.94 98.3 C60.84 98.86, 58.68 99.29, 56.53 99.57 C54.37 99.86, 52.18 100, 50 100 C47.82 100, 45.63 99.86, 43.47 99.57 C41.32 99.29, 39.16 98.86, 37.06 98.3 C34.96 97.73, 32.88 97.03, 30.87 96.19 C28.86 95.36, 26.88 94.39, 25 93.3 C23.12 92.21, 21.29 90.99, 19.56 89.67 C17.84 88.34, 16.18 86.89, 14.64 85.36 C13.11 83.82, 11.66 82.16, 10.33 80.44 C9.01 78.71, 7.79 76.88, 6.7 75 C5.61 73.12, 4.64 71.14, 3.81 69.13 C2.97 67.12, 2.27 65.04, 1.7 62.94 C1.14 60.84, 0.71 58.68, 0.43 56.53 C0.14 54.37, 0 52.18, 0 50 C0 47.82, 0.14 45.63, 0.43 43.47 C0.71 41.32, 1.14 39.16, 1.7 37.06 C2.27 34.96, 2.97 32.88, 3.81 30.87 C4.64 28.86, 5.61 26.88, 6.7 25 C7.79 23.12, 9.01 21.29, 10.33 19.56 C11.66 17.84, 13.11 16.18, 14.64 14.64 C16.18 13.11, 17.84 11.66, 19.56 10.33 C21.29 9.01, 23.12 7.79, 25 6.7 C26.88 5.61, 28.86 4.64, 30.87 3.81 C32.88 2.97, 34.96 2.27, 37.06 1.7 C39.16 1.14, 41.32 0.71, 43.47 0.43 C45.63 0.14, 47.82 0, 50 0 C52.18 0, 54.37 0.14, 56.53 0.43 C58.68 0.71, 60.84 1.14, 62.94 1.7 C65.04 2.27, 67.12 2.97, 69.13 3.81 C71.14 4.64, 73.12 5.61, 75 6.7 C76.88 7.79, 78.71 9.01, 80.44 10.33 C82.16 11.66, 83.82 13.11, 85.36 14.64 C86.89 16.18, 88.34 17.84, 89.67 19.56 C90.99 21.29, 92.21 23.12, 93.3 25 C94.39 26.88, 95.36 28.86, 96.19 30.87 C97.03 32.88, 97.73 34.96, 98.3 37.06 C98.86 39.16, 99.29 41.32, 99.57 43.47 C99.86 45.63, 99.93 48.91, 100 50 C100.07 51.09, 100.07 48.91, 100 50" stroke="none" stroke-width="0" fill="#b2f2bb"></path><path d="M100 50 C100 52.18, 99.86 54.37, 99.57 56.53 C99.29 58.68, 98.86 60.84, 98.3 62.94 C97.73 65.04, 97.03 67.12, 96.19 69.13 C95.36 71.14, 94.39 73.12, 93.3 75 C92.21 76.88, 90.99 78.71, 89.67 80.44 C88.34 82.16, 86.89 83.82, 85.36 85.36 C83.82 86.89, 82.16 88.34, 80.44 89.67 C78.71 90.99, 76.88 92.21, 75 93.3 C73.12 94.39, 71.14 95.36, 69.13 96.19 C67.12 97.03, 65.04 97.73, 62.94 98.3 C60.84 98.86, 58.68 99.29, 56.53 99.57 C54.37 99.86, 52.18 100, 50 100 C47.82 100, 45.63 99.86, 43.47 99.57 C41.32 99.29, 39.16 98.86, 37.06 98.3 C34.96 97.73, 32.88 97.03, 30.87 96.19 C28.86 95.36, 26.88 94.39, 25 93.3 C23.12 92.21, 21.29 90.99, 19.56 89.67 C17.84 88.34, 16.18 86.89, 14.64 85.36 C13.11 83.82, 11.66 82.16, 10.33 80.44 C9.01 78.71, 7.79 76.88, 6.7 75 C5.61 73.12, 4.64 71.14, 3.81 69.13 C2.97 67.12, 2.27 65.04, 1.7 62.94 C1.14 60.84, 0.71 58.68, 0.43 56.53 C0.14 54.37, 0 52.18, 0 50 C0 47.82, 0.14 45.63, 0.43 43.47 C0.71 41.32, 1.14 39.16, 1.7 37.06 C2.27 34.96, 2.97 32.88, 3.81 30.87 C4.64 28.86, 5.61 26.88, 6.7 25 C7.79 23.12, 9.01 21.29, 10.33 19.56 C11.66 17.84, 13.11 16.18, 14.64 14.64 C16.18 13.11, 17.84 11.66, 19.56 10.33 C21.29 9.01, 23.12 7.79, 25 6.7 C26.88 5.61, 28.86 4.64, 30.87 3.81 C32.88 2.97, 34.96 2.27, 37.06 1.7 C39.16 1.14, 41.32 0.71, 43.47 0.43 C45.63 0.14, 47.82 0, 50 0 C52.18 0, 54.37 0.14, 56.53 0.43 C58.68 0.71, 60.84 1.14, 62.94 1.7 C65.04 2.27, 67.12 2.97, 69.13 3.81 C71.14 4.64, 73.12 5.61, 75 6.7 C76.88 7.79, 78.71 9.01, 80.44 10.33 C82.16 11.66, 83.82 13.11, 85.36 14.64 C86.89 16.18, 88.34 17.84, 89.67 19.56 C90.99 21.29, 92.21 23.12, 93.3 25 C94.39 26.88, 95.36 28.86, 96.19 30.87 C97.03 32.88, 97.73 34.96, 98.3 37.06 C98.86 39.16, 99.29 41.32, 99.57 43.47 C99.86 45.63, 99.93 48.91, 100 50 C100.07 51.09, 100.07 48.91, 100 50" stroke="#1e1e1e" stroke-width="1" fill="none"></path></g><g stroke-linecap="round" transform="translate(2370 510) rotate(0 50 50)"><path d="M100 50 C100 52.18, 99.86 54.37, 99.57 56.53 C99.29 58.68, 98.86 60.84, 98.3 62.94 C97.73 65.04, 97.03 67.12, 96.19 69.13 C95.36 71.14, 94.39 73.12, 93.3 75 C92.21 76.88, 90.99 78.71, 89.67 80.44 C88.34 82.16, 86.89 83.82, 85.36 85.36 C83.82 86.89, 82.16 88.34, 80.44 89.67 C78.71 90.99, 76.88 92.21, 75 93.3 C73.12 94.39, 71.14 95.36, 69.13 96.19 C67.12 97.03, 65.04 97.73, 62.94 98.3 C60.84 98.86, 58.68 99.29, 56.53 99.57 C54.37 99.86, 52.18 100, 50 100 C47.82 100, 45.63 99.86, 43.47 99.57 C41.32 99.29, 39.16 98.86, 37.06 98.3 C34.96 97.73, 32.88 97.03, 30.87 96.19 C28.86 95.36, 26.88 94.39, 25 93.3 C23.12 92.21, 21.29 90.99, 19.56 89.67 C17.84 88.34, 16.18 86.89, 14.64 85.36 C13.11 83.82, 11.66 82.16, 10.33 80.44 C9.01 78.71, 7.79 76.88, 6.7 75 C5.61 73.12, 4.64 71.14, 3.81 69.13 C2.97 67.12, 2.27 65.04, 1.7 62.94 C1.14 60.84, 0.71 58.68, 0.43 56.53 C0.14 54.37, 0 52.18, 0 50 C0 47.82, 0.14 45.63, 0.43 43.47 C0.71 41.32, 1.14 39.16, 1.7 37.06 C2.27 34.96, 2.97 32.88, 3.81 30.87 C4.64 28.86, 5.61 26.88, 6.7 25 C7.79 23.12, 9.01 21.29, 10.33 19.56 C11.66 17.84, 13.11 16.18, 14.64 14.64 C16.18 13.11, 17.84 11.66, 19.56 10.33 C21.29 9.01, 23.12 7.79, 25 6.7 C26.88 5.61, 28.86 4.64, 30.87 3.81 C32.88 2.97, 34.96 2.27, 37.06 1.7 C39.16 1.14, 41.32 0.71, 43.47 0.43 C45.63 0.14, 47.82 0, 50 0 C52.18 0, 54.37 0.14, 56.53 0.43 C58.68 0.71, 60.84 1.14, 62.94 1.7 C65.04 2.27, 67.12 2.97, 69.13 3.81 C71.14 4.64, 73.12 5.61, 75 6.7 C76.88 7.79, 78.71 9.01, 80.44 10.33 C82.16 11.66, 83.82 13.11, 85.36 14.64 C86.89 16.18, 88.34 17.84, 89.67 19.56 C90.99 21.29, 92.21 23.12, 93.3 25 C94.39 26.88, 95.36 28.86, 96.19 30.87 C97.03 32.88, 97.73 34.96, 98.3 37.06 C98.86 39.16, 99.29 41.32, 99.57 43.47 C99.86 45.63, 99.93 48.91, 100 50 C100.07 51.09, 100.07 48.91, 100 50" stroke="none" stroke-width="0" fill="#b2f2bb"></path><path d="M100 50 C100 52.18, 99.86 54.37, 99.57 56.53 C99.29 58.68, 98.86 60.84, 98.3 62.94 C97.73 65.04, 97.03 67.12, 96.19 69.13 C95.36 71.14, 94.39 73.12, 93.3 75 C92.21 76.88, 90.99 78.71, 89.67 80.44 C88.34 82.16, 86.89 83.82, 85.36 85.36 C83.82 86.89, 82.16 88.34, 80.44 89.67 C78.71 90.99, 76.88 92.21, 75 93.3 C73.12 94.39, 71.14 95.36, 69.13 96.19 C67.12 97.03, 65.04 97.73, 62.94 98.3 C60.84 98.86, 58.68 99.29, 56.53 99.57 C54.37 99.86, 52.18 100, 50 100 C47.82 100, 45.63 99.86, 43.47 99.57 C41.32 99.29, 39.16 98.86, 37.06 98.3 C34.96 97.73, 32.88 97.03, 30.87 96.19 C28.86 95.36, 26.88 94.39, 25 93.3 C23.12 92.21, 21.29 90.99, 19.56 89.67 C17.84 88.34, 16.18 86.89, 14.64 85.36 C13.11 83.82, 11.66 82.16, 10.33 80.44 C9.01 78.71, 7.79 76.88, 6.7 75 C5.61 73.12, 4.64 71.14, 3.81 69.13 C2.97 67.12, 2.27 65.04, 1.7 62.94 C1.14 60.84, 0.71 58.68, 0.43 56.53 C0.14 54.37, 0 52.18, 0 50 C0 47.82, 0.14 45.63, 0.43 43.47 C0.71 41.32, 1.14 39.16, 1.7 37.06 C2.27 34.96, 2.97 32.88, 3.81 30.87 C4.64 28.86, 5.61 26.88, 6.7 25 C7.79 23.12, 9.01 21.29, 10.33 19.56 C11.66 17.84, 13.11 16.18, 14.64 14.64 C16.18 13.11, 17.84 11.66, 19.56 10.33 C21.29 9.01, 23.12 7.79, 25 6.7 C26.88 5.61, 28.86 4.64, 30.87 3.81 C32.88 2.97, 34.96 2.27, 37.06 1.7 C39.16 1.14, 41.32 0.71, 43.47 0.43 C45.63 0.14, 47.82 0, 50 0 C52.18 0, 54.37 0.14, 56.53 0.43 C58.68 0.71, 60.84 1.14, 62.94 1.7 C65.04 2.27, 67.12 2.97, 69.13 3.81 C71.14 4.64, 73.12 5.61, 75 6.7 C76.88 7.79, 78.71 9.01, 80.44 10.33 C82.16 11.66, 83.82 13.11, 85.36 14.64 C86.89 16.18, 88.34 17.84, 89.67 19.56 C90.99 21.29, 92.21 23.12, 93.3 25 C94.39 26.88, 95.36 28.86, 96.19 30.87 C97.03 32.88, 97.73 34.96, 98.3 37.06 C98.86 39.16, 99.29 41.32, 99.57 43.47 C99.86 45.63, 99.93 48.91, 100 50 C100.07 51.09, 100.07 48.91, 100 50" stroke="#1e1e1e" stroke-width="1" fill="none"></path></g><g stroke-linecap="round" transform="translate(2290 510) rotate(0 40 50)"><path d="M0 0 L80 0 L80 100 L0 100" stroke="none" stroke-width="0" fill="#e9ecef"></path><path d="M0 0 C24.34 0, 48.68 0, 80 0 M0 0 C19.48 0, 38.95 0, 80 0 M80 0 C80 38.4, 80 76.79, 80 100 M80 0 C80 27.54, 80 55.07, 80 100 M80 100 C60.69 100, 41.37 100, 0 100 M80 100 C59.38 100, 38.76 100, 0 100 M0 100 C0 67.47, 0 34.95, 0 0 M0 100 C0 64.94, 0 29.88, 0 0" stroke="#1e1e1e" stroke-width="1" fill="none"></path></g><g stroke-linecap="round"><g transform="translate(2430 510) rotate(0 -50 -100)"><path d="M0 0 C-25.99 -51.97, -51.97 -103.94, -100 -200 M0 0 C-36.38 -72.76, -72.76 -145.52, -100 -200" stroke="#1e1e1e" stroke-width="1" fill="none"></path></g></g><mask></mask><g stroke-linecap="round"><g transform="translate(2670 390) rotate(0 -20 -40)"><path d="M0 0 C-15.22 -30.44, -30.44 -60.89, -40 -80 M0 0 C-9.78 -19.56, -19.56 -39.11, -40 -80" stroke="#1e1e1e" stroke-width="1" fill="none"></path></g></g><mask></mask><g stroke-linecap="round"><g transform="translate(2430 510) rotate(0 120 0)"><path d="M0 0 C52.18 0, 104.37 0, 240 0 M0 0 C93.56 0, 187.11 0, 240 0" stroke="#1e1e1e" stroke-width="1" fill="none"></path></g></g><mask></mask><g stroke-linecap="round"><g transform="translate(2330 310) rotate(0 150 0)"><path d="M0 0 C104.64 0, 209.29 0, 300 0 M0 0 C84.54 0, 169.08 0, 300 0" stroke="#1e1e1e" stroke-width="1" fill="none"></path></g></g><mask></mask><g stroke-linecap="round"><g transform="translate(2470 410) rotate(0 70 0)"><path d="M0 0 C23.33 0, 116.67 0, 140 0 M0 0 C23.33 0, 116.67 0, 140 0" stroke="#1e1e1e" stroke-width="1" fill="none"></path></g><g transform="translate(2470 410) rotate(0 70 0)"><path d="M116.51 8.55 C125.53 5.27, 134.55 1.98, 140 0 M116.51 8.55 C122.98 6.2, 129.45 3.84, 140 0" stroke="#1e1e1e" stroke-width="1" fill="none"></path></g><g transform="translate(2470 410) rotate(0 70 0)"><path d="M116.51 -8.55 C125.53 -5.27, 134.55 -1.98, 140 0 M116.51 -8.55 C122.98 -6.2, 129.45 -3.84, 140 0" stroke="#1e1e1e" stroke-width="1" fill="none"></path></g></g><mask></mask><g stroke-linecap="round" transform="translate(2470 270) rotate(0 20 20)"><path d="M40 20 C40 21.16, 39.9 22.33, 39.7 23.47 C39.5 24.61, 39.19 25.75, 38.79 26.84 C38.4 27.93, 37.9 29, 37.32 30 C36.74 31, 36.07 31.97, 35.32 32.86 C34.58 33.74, 33.74 34.58, 32.86 35.32 C31.97 36.07, 31 36.74, 30 37.32 C29 37.9, 27.93 38.4, 26.84 38.79 C25.75 39.19, 24.61 39.5, 23.47 39.7 C22.33 39.9, 21.16 40, 20 40 C18.84 40, 17.67 39.9, 16.53 39.7 C15.39 39.5, 14.25 39.19, 13.16 38.79 C12.07 38.4, 11 37.9, 10 37.32 C9 36.74, 8.03 36.07, 7.14 35.32 C6.26 34.58, 5.42 33.74, 4.68 32.86 C3.93 31.97, 3.26 31, 2.68 30 C2.1 29, 1.6 27.93, 1.21 26.84 C0.81 25.75, 0.5 24.61, 0.3 23.47 C0.1 22.33, 0 21.16, 0 20 C0 18.84, 0.1 17.67, 0.3 16.53 C0.5 15.39, 0.81 14.25, 1.21 13.16 C1.6 12.07, 2.1 11, 2.68 10 C3.26 9, 3.93 8.03, 4.68 7.14 C5.42 6.26, 6.26 5.42, 7.14 4.68 C8.03 3.93, 9 3.26, 10 2.68 C11 2.1, 12.07 1.6, 13.16 1.21 C14.25 0.81, 15.39 0.5, 16.53 0.3 C17.67 0.1, 18.84 0, 20 0 C21.16 0, 22.33 0.1, 23.47 0.3 C24.61 0.5, 25.75 0.81, 26.84 1.21 C27.93 1.6, 29 2.1, 30 2.68 C31 3.26, 31.97 3.93, 32.86 4.68 C33.74 5.42, 34.58 6.26, 35.32 7.14 C36.07 8.03, 36.74 9, 37.32 10 C37.9 11, 38.4 12.07, 38.79 13.16 C39.19 14.25, 39.5 15.39, 39.7 16.53 C39.9 17.67, 39.95 19.42, 40 20 C40.05 20.58, 40.05 19.42, 40 20" stroke="none" stroke-width="0" fill="#ffc9c9"></path><path d="M40 20 C40 21.16, 39.9 22.33, 39.7 23.47 C39.5 24.61, 39.19 25.75, 38.79 26.84 C38.4 27.93, 37.9 29, 37.32 30 C36.74 31, 36.07 31.97, 35.32 32.86 C34.58 33.74, 33.74 34.58, 32.86 35.32 C31.97 36.07, 31 36.74, 30 37.32 C29 37.9, 27.93 38.4, 26.84 38.79 C25.75 39.19, 24.61 39.5, 23.47 39.7 C22.33 39.9, 21.16 40, 20 40 C18.84 40, 17.67 39.9, 16.53 39.7 C15.39 39.5, 14.25 39.19, 13.16 38.79 C12.07 38.4, 11 37.9, 10 37.32 C9 36.74, 8.03 36.07, 7.14 35.32 C6.26 34.58, 5.42 33.74, 4.68 32.86 C3.93 31.97, 3.26 31, 2.68 30 C2.1 29, 1.6 27.93, 1.21 26.84 C0.81 25.75, 0.5 24.61, 0.3 23.47 C0.1 22.33, 0 21.16, 0 20 C0 18.84, 0.1 17.67, 0.3 16.53 C0.5 15.39, 0.81 14.25, 1.21 13.16 C1.6 12.07, 2.1 11, 2.68 10 C3.26 9, 3.93 8.03, 4.68 7.14 C5.42 6.26, 6.26 5.42, 7.14 4.68 C8.03 3.93, 9 3.26, 10 2.68 C11 2.1, 12.07 1.6, 13.16 1.21 C14.25 0.81, 15.39 0.5, 16.53 0.3 C17.67 0.1, 18.84 0, 20 0 C21.16 0, 22.33 0.1, 23.47 0.3 C24.61 0.5, 25.75 0.81, 26.84 1.21 C27.93 1.6, 29 2.1, 30 2.68 C31 3.26, 31.97 3.93, 32.86 4.68 C33.74 5.42, 34.58 6.26, 35.32 7.14 C36.07 8.03, 36.74 9, 37.32 10 C37.9 11, 38.4 12.07, 38.79 13.16 C39.19 14.25, 39.5 15.39, 39.7 16.53 C39.9 17.67, 39.95 19.42, 40 20 C40.05 20.58, 40.05 19.42, 40 20" stroke="#1e1e1e" stroke-width="1" fill="none"></path></g><g stroke-linecap="round"><g transform="translate(2470 290) rotate(0 0 -20)"><path d="M0 0 C0 -12.31, 0 -24.61, 0 -40 M0 0 C0 -8.25, 0 -16.5, 0 -40" stroke="#1e1e1e" stroke-width="1" fill="none"></path></g></g><mask></mask><g stroke-linecap="round"><g transform="translate(2510 290) rotate(0 0 -20)"><path d="M0 0 C0 -15.87, 0 -31.75, 0 -40 M0 0 C0 -11.8, 0 -23.6, 0 -40" stroke="#1e1e1e" stroke-width="1" fill="none"></path></g></g><mask></mask><g stroke-linecap="round" transform="translate(2450 170) rotate(0 40 40)"><path d="M0 0 C19.31 0, 38.63 0, 80 0 M0 0 C20.62 0, 41.24 0, 80 0 M80 0 C80 26.02, 80 52.04, 80 80 M80 0 C80 28.05, 80 56.09, 80 80 M80 80 C53.64 80, 27.28 80, 0 80 M80 80 C52.53 80, 25.06 80, 0 80 M0 80 C0 60.53, 0 41.05, 0 0 M0 80 C0 63.56, 0 47.12, 0 0" stroke="#1e1e1e" stroke-width="1" fill="none"></path></g><g stroke-linecap="round" transform="translate(1690 310) rotate(0 100 50)"><path d="M25 0 C59.57 -0.86, 97.41 -0.65, 175 0 C190.5 -0.85, 200.77 10.89, 200 25 C202.21 36.64, 202.41 53.58, 200 75 C202.46 94, 189.13 102.77, 175 100 C128.96 104.31, 85.74 99.55, 25 100 C8.42 100.36, 2.64 88.2, 0 75 C-1.19 63.24, 0.97 46.47, 0 25 C-0.03 7.34, 10.78 -1.12, 25 0" stroke="none" stroke-width="0" fill="#1e1e1e"></path><path d="M25 0 C62.24 -1.52, 99.02 -2.86, 175 0 M25 0 C73.34 -0.1, 120.66 0.84, 175 0 M175 0 C193.3 -0.41, 199.05 7.09, 200 25 M175 0 C191.03 -0.51, 200.7 10.09, 200 25 M200 25 C198.93 43.91, 201.69 58.31, 200 75 M200 25 C200.12 36.39, 200.46 47.36, 200 75 M200 75 C198.91 92.33, 191.37 99.75, 175 100 M200 75 C201.01 91.89, 193.66 100.58, 175 100 M175 100 C120.17 98.73, 67.07 98.49, 25 100 M175 100 C129.94 101.61, 84 101.38, 25 100 M25 100 C8.83 101.33, -0.81 93.21, 0 75 M25 100 C10.03 98.26, 1.41 92.4, 0 75 M0 75 C0.13 63.48, 0.79 50.29, 0 25 M0 75 C-0.55 62.12, 0.35 47.48, 0 25 M0 25 C0.36 7.21, 7.06 -1.37, 25 0 M0 25 C0.89 7.35, 8.19 2.15, 25 0" stroke="#1e1e1e" stroke-width="1" fill="none"></path></g><g stroke-linecap="round" transform="translate(1830 310) rotate(0 50 50)"><path d="M63.75 12.75 C67.07 19.39, 75.83 26.85, 87.25 38.25 C100.77 53.56, 98.9 48.69, 87.25 63.75 C83.51 72.24, 75.92 79.99, 63.75 87.25 C48.47 102.77, 50.72 99.93, 38.25 87.25 C27.72 76.96, 20.14 70.94, 12.75 63.75 C2.64 47.53, -1.38 50.14, 12.75 38.25 C21.46 27.94, 28.46 21.52, 38.25 12.75 C53.45 -1.12, 50.27 1.39, 63.75 12.75" stroke="none" stroke-width="0" fill="#1e1e1e"></path><path d="M63.75 12.75 C71.13 21.58, 82.79 34.35, 87.25 38.25 M63.75 12.75 C70.52 19.73, 76.92 25.91, 87.25 38.25 M87.25 38.25 C99.05 49.75, 99.44 50.55, 87.25 63.75 M87.25 38.25 C100.7 52.76, 101.07 52.28, 87.25 63.75 M87.25 63.75 C80.99 70.1, 70.6 77.33, 63.75 87.25 M87.25 63.75 C81.07 70.6, 72.49 78.43, 63.75 87.25 M63.75 87.25 C50.71 99.75, 51.88 100.19, 38.25 87.25 M63.75 87.25 C53 100.58, 52.39 101.24, 38.25 87.25 M38.25 87.25 C32.42 80.94, 26.19 77.28, 12.75 63.75 M38.25 87.25 C29.76 79.92, 20.54 71.75, 12.75 63.75 M12.75 63.75 C-0.81 52.54, 1.48 49.49, 12.75 38.25 M12.75 63.75 C1.41 51.73, -1.29 50.28, 12.75 38.25 M12.75 38.25 C19.1 32.14, 23.63 27.08, 38.25 12.75 M12.75 38.25 C22.75 28.3, 31.94 18.61, 38.25 12.75 M38.25 12.75 C49.73 -1.37, 51.77 -0.85, 63.75 12.75 M38.25 12.75 C50.86 2.15, 49.89 0.17, 63.75 12.75" stroke="#1e1e1e" stroke-width="1" fill="none"></path></g><g stroke-linecap="round"><g transform="translate(2170 310) rotate(0 50 100)"><path d="M0 0 C29.18 58.36, 58.36 116.72, 100 200 M0 0 C21.38 42.77, 42.77 85.54, 100 200" stroke="#1e1e1e" stroke-width="1" fill="none"></path></g></g><mask></mask><g stroke-linecap="round"><g transform="translate(1990 410) rotate(0 80 0)"><path d="M0 0 C26.67 0, 133.33 0, 160 0 M0 0 C26.67 0, 133.33 0, 160 0" stroke="#1e1e1e" stroke-width="1" fill="none"></path></g><g transform="translate(1990 410) rotate(0 80 0)"><path d="M160 15 C160 11.93, 160 8.85, 160 0 M160 15 C160 9.29, 160 3.58, 160 0" stroke="#1e1e1e" stroke-width="1" fill="none"></path></g><g transform="translate(1990 410) rotate(0 80 0)"><path d="M160 -15 C160 -11.93, 160 -8.85, 160 0 M160 -15 C160 -9.29, 160 -3.58, 160 0" stroke="#1e1e1e" stroke-width="1" fill="none"></path></g></g><mask></mask><g stroke-linecap="round" transform="translate(2730 310) rotate(0 100 50)"><path d="M25 0 C58.78 3.75, 96.83 3.97, 175 0 C193.9 -1.71, 198.9 9.29, 200 25 C201.68 39.55, 197.07 47.86, 200 75 C203.29 88.52, 194.25 99.38, 175 100 C134.36 101.18, 95.61 96.18, 25 100 C9.7 96.61, 3.01 93.99, 0 75 C-0.75 63.16, 2.47 51.46, 0 25 C-2.62 8.94, 7.94 -2.48, 25 0" stroke="none" stroke-width="0" fill="#1e1e1e"></path><path d="M25 0 C63.07 -0.71, 100.53 -1.04, 175 0 M25 0 C56.72 0.72, 87.89 1.04, 175 0 M175 0 C192.76 -0.66, 201.87 6.53, 200 25 M175 0 C191.95 1.62, 201.35 9.38, 200 25 M200 25 C199.64 40.07, 200.67 56.49, 200 75 M200 25 C200.06 39.28, 200.17 53.5, 200 75 M200 75 C198.64 93.26, 191.58 100.5, 175 100 M200 75 C200.36 93.81, 193.71 100.19, 175 100 M175 100 C143.37 99.19, 111.21 99.44, 25 100 M175 100 C128.84 99.3, 83.48 98.41, 25 100 M25 100 C8.07 100, 0.63 92.04, 0 75 M25 100 C8.16 97.87, -0.82 90.91, 0 75 M0 75 C1.12 57.22, 1.59 36.37, 0 25 M0 75 C0.32 62.53, 0.61 47.81, 0 25 M0 25 C0.95 9.84, 8.17 1.02, 25 0 M0 25 C-1.29 9.19, 7.13 -0.9, 25 0" stroke="#1e1e1e" stroke-width="1" fill="none"></path></g><g stroke-linecap="round" transform="translate(2870 310) rotate(0 50 50)"><path d="M63.75 12.75 C67.46 19.65, 75.66 21.74, 87.25 38.25 C98.9 51.96, 98.23 48.42, 87.25 63.75 C78.39 68.6, 77.12 74.53, 63.75 87.25 C53.58 99.38, 49.74 97.58, 38.25 87.25 C31.97 79.01, 26.77 72.23, 12.75 63.75 C3.01 53.32, -1.04 47.88, 12.75 38.25 C22.59 33.64, 26.23 22.72, 38.25 12.75 C50.6 -2.48, 51.67 -3.52, 63.75 12.75" stroke="none" stroke-width="0" fill="#1e1e1e"></path><path d="M63.75 12.75 C74.44 22.62, 80.01 31.37, 87.25 38.25 M63.75 12.75 C69.3 18.06, 74.43 23.42, 87.25 38.25 M87.25 38.25 C101.87 49.2, 100.24 52.41, 87.25 63.75 M87.25 38.25 C101.35 52.04, 100.64 51.29, 87.25 63.75 M87.25 63.75 C80.57 69.55, 72.4 79.84, 63.75 87.25 M87.25 63.75 C79.02 71.77, 70.74 80.31, 63.75 87.25 M63.75 87.25 C50.91 100.5, 51.31 101.86, 38.25 87.25 M63.75 87.25 C53.04 100.19, 48.87 100.54, 38.25 87.25 M38.25 87.25 C31.38 83.2, 27.78 75.9, 12.75 63.75 M38.25 87.25 C33.59 82.39, 27.62 77.73, 12.75 63.75 M12.75 63.75 C0.63 51.37, -0.15 49.14, 12.75 38.25 M12.75 63.75 C-0.82 50.24, 2.02 50.5, 12.75 38.25 M12.75 38.25 C24.29 28.01, 32.36 15.73, 38.25 12.75 M12.75 38.25 C18.82 31.73, 25.08 26.95, 38.25 12.75 M38.25 12.75 C50.83 1.02, 49.88 0.75, 63.75 12.75 M38.25 12.75 C49.8 -0.9, 49.68 -0.49, 63.75 12.75" stroke="#1e1e1e" stroke-width="1" fill="none"></path></g><g stroke-linecap="round" transform="translate(1970 10) rotate(0 350 350.00000000000006)"><path d="M32 0 C190.57 -0.39, 350.39 -0.37, 668 0 M32 0 C274.86 -1.22, 517.61 -1.15, 668 0 M668 0 C690.89 -0.87, 698.86 10.51, 700 32 M668 0 C688.98 0.76, 697.78 11.11, 700 32 M700 32 C701.58 273.99, 702.94 515.6, 700 668 M700 32 C698.99 237.3, 699.28 442.85, 700 668 M700 668 C698.2 689.33, 687.37 699.17, 668 700 M700 668 C700.22 688.47, 688.43 698.88, 668 700 M668 700 C532.7 698.26, 397.11 697.8, 32 700 M668 700 C429.7 697.62, 191.64 697.96, 32 700 M32 700 C8.75 701.43, -0.59 688.62, 0 668 M32 700 C11.49 701.75, -2.24 691.51, 0 668 M0 668 C0.16 505.13, -0.1 343.12, 0 32 M0 668 C0.1 430.56, 0.83 192.58, 0 32 M0 32 C-0.68 9.73, 10.07 -1.96, 32 0 M0 32 C-1.22 11.28, 11.29 -2.01, 32 0" stroke="#1e1e1e" stroke-width="4" fill="none"></path></g><g stroke-linecap="round"><g transform="translate(1450 250) rotate(0 0 30)"><path d="M0 0 C0 17.14, 0 34.27, 0 60 M0 0 C0 21.12, 0 42.24, 0 60" stroke="#1e1e1e" stroke-width="2" fill="none"></path></g><g transform="translate(1450 250) rotate(0 0 30)"><path d="M15 0 C10.72 0, 6.43 0, 0 0 M15 0 C9.72 0, 4.44 0, 0 0" stroke="#1e1e1e" stroke-width="2" fill="none"></path></g><g transform="translate(1450 250) rotate(0 0 30)"><path d="M-15 0 C-10.72 0, -6.43 0, 0 0 M-15 0 C-9.72 0, -4.44 0, 0 0" stroke="#1e1e1e" stroke-width="2" fill="none"></path></g><g transform="translate(1450 250) rotate(0 0 30)"><path d="M-8.55 36.51 C-6.11 43.22, -3.67 49.93, 0 60 M-8.55 36.51 C-5.54 44.78, -2.53 53.04, 0 60" stroke="#1e1e1e" stroke-width="2" fill="none"></path></g><g transform="translate(1450 250) rotate(0 0 30)"><path d="M8.55 36.51 C6.11 43.22, 3.67 49.93, 0 60 M8.55 36.51 C5.54 44.78, 2.53 53.04, 0 60" stroke="#1e1e1e" stroke-width="2" fill="none"></path></g></g><mask></mask><g stroke-linecap="round"><g transform="translate(2490 230) rotate(0 0 30)"><path d="M0 0 C0 21.42, 0 42.83, 0 60 M0 0 C0 20.15, 0 40.3, 0 60" stroke="#1e1e1e" stroke-width="2" fill="none"></path></g><g transform="translate(2490 230) rotate(0 0 30)"><path d="M15 0 C9.65 0, 4.29 0, 0 0 M15 0 C9.96 0, 4.93 0, 0 0" stroke="#1e1e1e" stroke-width="2" fill="none"></path></g><g transform="translate(2490 230) rotate(0 0 30)"><path d="M-15 0 C-9.65 0, -4.29 0, 0 0 M-15 0 C-9.96 0, -4.93 0, 0 0" stroke="#1e1e1e" stroke-width="2" fill="none"></path></g><g transform="translate(2490 230) rotate(0 0 30)"><path d="M8.45 58.13 C5.44 51.66, 2.42 45.19, 0 40 M8.45 58.13 C5.61 52.04, 2.78 45.95, 0 40" stroke="#1e1e1e" stroke-width="2" fill="none"></path></g><g transform="translate(2490 230) rotate(0 0 30)"><path d="M-8.45 58.13 C-5.44 51.66, -2.42 45.19, 0 40 M-8.45 58.13 C-5.61 52.04, -2.78 45.95, 0 40" stroke="#1e1e1e" stroke-width="2" fill="none"></path></g></g><mask></mask></svg>