<svg version="1.1" xmlns="http://www.w3.org/2000/svg" viewBox="0 0 3345.568806053847 600.0000000000002" width="3345.568806053847" height="600.0000000000002" class="excalidraw-svg"><!-- svg-source:excalidraw --><metadata></metadata><defs><style class="style-fonts">
      </style></defs><g stroke-linecap="round" transform="translate(2049.9999999999995 430) rotate(540 20 20)"><path d="M40 20 C40 21.16, 39.9 22.33, 39.7 23.47 C39.5 24.61, 39.19 25.75, 38.79 26.84 C38.4 27.93, 37.9 29, 37.32 30 C36.74 31, 36.07 31.97, 35.32 32.86 C34.58 33.74, 33.74 34.58, 32.86 35.32 C31.97 36.07, 31 36.74, 30 37.32 C29 37.9, 27.93 38.4, 26.84 38.79 C25.75 39.19, 24.61 39.5, 23.47 39.7 C22.33 39.9, 21.16 40, 20 40 C18.84 40, 17.67 39.9, 16.53 39.7 C15.39 39.5, 14.25 39.19, 13.16 38.79 C12.07 38.4, 11 37.9, 10 37.32 C9 36.74, 8.03 36.07, 7.14 35.32 C6.26 34.58, 5.42 33.74, 4.68 32.86 C3.93 31.97, 3.26 31, 2.68 30 C2.1 29, 1.6 27.93, 1.21 26.84 C0.81 25.75, 0.5 24.61, 0.3 23.47 C0.1 22.33, 0 21.16, 0 20 C0 18.84, 0.1 17.67, 0.3 16.53 C0.5 15.39, 0.81 14.25, 1.21 13.16 C1.6 12.07, 2.1 11, 2.68 10 C3.26 9, 3.93 8.03, 4.68 7.14 C5.42 6.26, 6.26 5.42, 7.14 4.68 C8.03 3.93, 9 3.26, 10 2.68 C11 2.1, 12.07 1.6, 13.16 1.21 C14.25 0.81, 15.39 0.5, 16.53 0.3 C17.67 0.1, 18.84 0, 20 0 C21.16 0, 22.33 0.1, 23.47 0.3 C24.61 0.5, 25.75 0.81, 26.84 1.21 C27.93 1.6, 29 2.1, 30 2.68 C31 3.26, 31.97 3.93, 32.86 4.68 C33.74 5.42, 34.58 6.26, 35.32 7.14 C36.07 8.03, 36.74 9, 37.32 10 C37.9 11, 38.4 12.07, 38.79 13.16 C39.19 14.25, 39.5 15.39, 39.7 16.53 C39.9 17.67, 39.95 19.42, 40 20 C40.05 20.58, 40.05 19.42, 40 20" stroke="none" stroke-width="0" fill="#a5d8ff"></path><path d="M40 20 C40 21.16, 39.9 22.33, 39.7 23.47 C39.5 24.61, 39.19 25.75, 38.79 26.84 C38.4 27.93, 37.9 29, 37.32 30 C36.74 31, 36.07 31.97, 35.32 32.86 C34.58 33.74, 33.74 34.58, 32.86 35.32 C31.97 36.07, 31 36.74, 30 37.32 C29 37.9, 27.93 38.4, 26.84 38.79 C25.75 39.19, 24.61 39.5, 23.47 39.7 C22.33 39.9, 21.16 40, 20 40 C18.84 40, 17.67 39.9, 16.53 39.7 C15.39 39.5, 14.25 39.19, 13.16 38.79 C12.07 38.4, 11 37.9, 10 37.32 C9 36.74, 8.03 36.07, 7.14 35.32 C6.26 34.58, 5.42 33.74, 4.68 32.86 C3.93 31.97, 3.26 31, 2.68 30 C2.1 29, 1.6 27.93, 1.21 26.84 C0.81 25.75, 0.5 24.61, 0.3 23.47 C0.1 22.33, 0 21.16, 0 20 C0 18.84, 0.1 17.67, 0.3 16.53 C0.5 15.39, 0.81 14.25, 1.21 13.16 C1.6 12.07, 2.1 11, 2.68 10 C3.26 9, 3.93 8.03, 4.68 7.14 C5.42 6.26, 6.26 5.42, 7.14 4.68 C8.03 3.93, 9 3.26, 10 2.68 C11 2.1, 12.07 1.6, 13.16 1.21 C14.25 0.81, 15.39 0.5, 16.53 0.3 C17.67 0.1, 18.84 0, 20 0 C21.16 0, 22.33 0.1, 23.47 0.3 C24.61 0.5, 25.75 0.81, 26.84 1.21 C27.93 1.6, 29 2.1, 30 2.68 C31 3.26, 31.97 3.93, 32.86 4.68 C33.74 5.42, 34.58 6.26, 35.32 7.14 C36.07 8.03, 36.74 9, 37.32 10 C37.9 11, 38.4 12.07, 38.79 13.16 C39.19 14.25, 39.5 15.39, 39.7 16.53 C39.9 17.67, 39.95 19.42, 40 20 C40.05 20.58, 40.05 19.42, 40 20" stroke="#1e1e1e" stroke-width="1" fill="none"></path></g><g stroke-linecap="round"><g transform="translate(2089.999999999998 509.99999999999943) rotate(540 6.821210263296962e-13 -29.999999999999936)"><path d="M0 0 C0 -15.62, 0 -31.24, 0 -60 M0 0 C0 -22.3, 0 -44.59, 0 -60" stroke="#1e1e1e" stroke-width="1" fill="none"></path></g></g><mask></mask><g stroke-linecap="round"><g transform="translate(2049.999999999998 510.00000000000057) rotate(540 4.547473508864641e-13 -30.00000000000017)"><path d="M0 0 C0 -16.54, 0 -33.08, 0 -60 M0 0 C0 -20.07, 0 -40.14, 0 -60" stroke="#1e1e1e" stroke-width="1" fill="none"></path></g></g><mask></mask><g stroke-linecap="round"><g transform="translate(2069.9999999999995 450) rotate(180 0 30)"><path d="M0 0 C0 20.01, 0 40.03, 0 60 M0 0 C0 23.98, 0 47.96, 0 60" stroke="#1e1e1e" stroke-width="2" fill="none"></path></g><g transform="translate(2069.9999999999995 450) rotate(180 0 30)"><path d="M15 0 C10 0, 4.99 0, 0 0 M15 0 C9.01 0, 3.01 0, 0 0" stroke="#1e1e1e" stroke-width="2" fill="none"></path></g><g transform="translate(2069.9999999999995 450) rotate(180 0 30)"><path d="M-15 0 C-10 0, -4.99 0, 0 0 M-15 0 C-9.01 0, -3.01 0, 0 0" stroke="#1e1e1e" stroke-width="2" fill="none"></path></g><g transform="translate(2069.9999999999995 450) rotate(180 0 30)"><path d="M-8.55 36.51 C-5.7 44.34, -2.85 52.18, 0 60 M-8.55 36.51 C-5.13 45.9, -1.72 55.28, 0 60" stroke="#1e1e1e" stroke-width="2" fill="none"></path></g><g transform="translate(2069.9999999999995 450) rotate(180 0 30)"><path d="M8.55 36.51 C5.7 44.34, 2.85 52.18, 0 60 M8.55 36.51 C5.13 45.9, 1.72 55.28, 0 60" stroke="#1e1e1e" stroke-width="2" fill="none"></path></g></g><mask></mask><g stroke-linecap="round" transform="translate(2030 510.00000000000017) rotate(540 40 40)"><path d="M0 0 C30.11 0, 60.23 0, 80 0 M0 0 C24.06 0, 48.12 0, 80 0 M80 0 C80 24.53, 80 49.07, 80 80 M80 0 C80 30.55, 80 61.09, 80 80 M80 80 C62.7 80, 45.39 80, 0 80 M80 80 C60.89 80, 41.77 80, 0 80 M0 80 C0 61.14, 0 42.29, 0 0 M0 80 C0 49.88, 0 19.76, 0 0" stroke="#1e1e1e" stroke-width="1" fill="none"></path></g><g stroke-linecap="round" transform="translate(2110 450) rotate(0 40 30)"><path d="M0 0 L80 0 L80 60 L0 60" stroke="none" stroke-width="0" fill="#e9ecef"></path><path d="M0 0 C26.53 0, 53.06 0, 80 0 M0 0 C20.69 0, 41.39 0, 80 0 M80 0 C80 20.64, 80 41.28, 80 60 M80 0 C80 17.78, 80 35.55, 80 60 M80 60 C62.12 60, 44.25 60, 0 60 M80 60 C53.74 60, 27.49 60, 0 60 M0 60 C0 45.52, 0 31.03, 0 0 M0 60 C0 38.3, 0 16.59, 0 0" stroke="#1e1e1e" stroke-width="1" fill="none"></path></g><g stroke-linecap="round" transform="translate(1950 450) rotate(0 40 30)"><path d="M0 0 L80 0 L80 60 L0 60" stroke="none" stroke-width="0" fill="#e9ecef"></path><path d="M0 0 C25.34 0, 50.68 0, 80 0 M0 0 C16.17 0, 32.33 0, 80 0 M80 0 C80 15.32, 80 30.64, 80 60 M80 0 C80 19.61, 80 39.21, 80 60 M80 60 C49.34 60, 18.69 60, 0 60 M80 60 C58.29 60, 36.57 60, 0 60 M0 60 C0 44.38, 0 28.75, 0 0 M0 60 C0 45.85, 0 31.69, 0 0" stroke="#1e1e1e" stroke-width="1" fill="none"></path></g><g stroke-linecap="round" transform="translate(1109.9999999999995 450) rotate(540 20 20)"><path d="M40 20 C40 21.16, 39.9 22.33, 39.7 23.47 C39.5 24.61, 39.19 25.75, 38.79 26.84 C38.4 27.93, 37.9 29, 37.32 30 C36.74 31, 36.07 31.97, 35.32 32.86 C34.58 33.74, 33.74 34.58, 32.86 35.32 C31.97 36.07, 31 36.74, 30 37.32 C29 37.9, 27.93 38.4, 26.84 38.79 C25.75 39.19, 24.61 39.5, 23.47 39.7 C22.33 39.9, 21.16 40, 20 40 C18.84 40, 17.67 39.9, 16.53 39.7 C15.39 39.5, 14.25 39.19, 13.16 38.79 C12.07 38.4, 11 37.9, 10 37.32 C9 36.74, 8.03 36.07, 7.14 35.32 C6.26 34.58, 5.42 33.74, 4.68 32.86 C3.93 31.97, 3.26 31, 2.68 30 C2.1 29, 1.6 27.93, 1.21 26.84 C0.81 25.75, 0.5 24.61, 0.3 23.47 C0.1 22.33, 0 21.16, 0 20 C0 18.84, 0.1 17.67, 0.3 16.53 C0.5 15.39, 0.81 14.25, 1.21 13.16 C1.6 12.07, 2.1 11, 2.68 10 C3.26 9, 3.93 8.03, 4.68 7.14 C5.42 6.26, 6.26 5.42, 7.14 4.68 C8.03 3.93, 9 3.26, 10 2.68 C11 2.1, 12.07 1.6, 13.16 1.21 C14.25 0.81, 15.39 0.5, 16.53 0.3 C17.67 0.1, 18.84 0, 20 0 C21.16 0, 22.33 0.1, 23.47 0.3 C24.61 0.5, 25.75 0.81, 26.84 1.21 C27.93 1.6, 29 2.1, 30 2.68 C31 3.26, 31.97 3.93, 32.86 4.68 C33.74 5.42, 34.58 6.26, 35.32 7.14 C36.07 8.03, 36.74 9, 37.32 10 C37.9 11, 38.4 12.07, 38.79 13.16 C39.19 14.25, 39.5 15.39, 39.7 16.53 C39.9 17.67, 39.95 19.42, 40 20 C40.05 20.58, 40.05 19.42, 40 20" stroke="none" stroke-width="0" fill="#ffc9c9"></path><path d="M40 20 C40 21.16, 39.9 22.33, 39.7 23.47 C39.5 24.61, 39.19 25.75, 38.79 26.84 C38.4 27.93, 37.9 29, 37.32 30 C36.74 31, 36.07 31.97, 35.32 32.86 C34.58 33.74, 33.74 34.58, 32.86 35.32 C31.97 36.07, 31 36.74, 30 37.32 C29 37.9, 27.93 38.4, 26.84 38.79 C25.75 39.19, 24.61 39.5, 23.47 39.7 C22.33 39.9, 21.16 40, 20 40 C18.84 40, 17.67 39.9, 16.53 39.7 C15.39 39.5, 14.25 39.19, 13.16 38.79 C12.07 38.4, 11 37.9, 10 37.32 C9 36.74, 8.03 36.07, 7.14 35.32 C6.26 34.58, 5.42 33.74, 4.68 32.86 C3.93 31.97, 3.26 31, 2.68 30 C2.1 29, 1.6 27.93, 1.21 26.84 C0.81 25.75, 0.5 24.61, 0.3 23.47 C0.1 22.33, 0 21.16, 0 20 C0 18.84, 0.1 17.67, 0.3 16.53 C0.5 15.39, 0.81 14.25, 1.21 13.16 C1.6 12.07, 2.1 11, 2.68 10 C3.26 9, 3.93 8.03, 4.68 7.14 C5.42 6.26, 6.26 5.42, 7.14 4.68 C8.03 3.93, 9 3.26, 10 2.68 C11 2.1, 12.07 1.6, 13.16 1.21 C14.25 0.81, 15.39 0.5, 16.53 0.3 C17.67 0.1, 18.84 0, 20 0 C21.16 0, 22.33 0.1, 23.47 0.3 C24.61 0.5, 25.75 0.81, 26.84 1.21 C27.93 1.6, 29 2.1, 30 2.68 C31 3.26, 31.97 3.93, 32.86 4.68 C33.74 5.42, 34.58 6.26, 35.32 7.14 C36.07 8.03, 36.74 9, 37.32 10 C37.9 11, 38.4 12.07, 38.79 13.16 C39.19 14.25, 39.5 15.39, 39.7 16.53 C39.9 17.67, 39.95 19.42, 40 20 C40.05 20.58, 40.05 19.42, 40 20" stroke="#1e1e1e" stroke-width="1" fill="none"></path></g><g stroke-linecap="round"><g transform="translate(1149.9999999999984 509.9999999999997) rotate(540 6.821210263296962e-13 -19.999999999999936)"><path d="M0 0 C0 -8.59, 0 -17.18, 0 -40 M0 0 C0 -12.75, 0 -25.51, 0 -40" stroke="#1e1e1e" stroke-width="1" fill="none"></path></g></g><mask></mask><g stroke-linecap="round"><g transform="translate(1109.9999999999982 510.0000000000007) rotate(540 5.115907697472721e-13 -20.00000000000017)"><path d="M0 0 C0 -10.57, 0 -21.15, 0 -40 M0 0 C0 -11.91, 0 -23.82, 0 -40" stroke="#1e1e1e" stroke-width="1" fill="none"></path></g></g><mask></mask><g stroke-linecap="round" transform="translate(1090 510.00000000000017) rotate(540 40 40)"><path d="M0 0 C31.1 0, 62.2 0, 80 0 M0 0 C21.01 0, 42.03 0, 80 0 M80 0 C80 18.66, 80 37.32, 80 80 M80 0 C80 27.49, 80 54.98, 80 80 M80 80 C63.85 80, 47.69 80, 0 80 M80 80 C50.59 80, 21.17 80, 0 80 M0 80 C0 51.15, 0 22.29, 0 0 M0 80 C0 61.19, 0 42.38, 0 0" stroke="#1e1e1e" stroke-width="1" fill="none"></path></g><g stroke-linecap="round"><g transform="translate(1129.9999999999995 470.0000000000002) rotate(180 0 30)"><path d="M0 0 C0 20.99, 0 41.98, 0 60 M0 0 C0 12.92, 0 25.84, 0 60" stroke="#1e1e1e" stroke-width="2" fill="none"></path></g><g transform="translate(1129.9999999999995 470.0000000000002) rotate(180 0 30)"><path d="M15 0 C9.75 0, 4.51 0, 0 0 M15 0 C11.77 0, 8.54 0, 0 0" stroke="#1e1e1e" stroke-width="2" fill="none"></path></g><g transform="translate(1129.9999999999995 470.0000000000002) rotate(180 0 30)"><path d="M-15 0 C-9.75 0, -4.51 0, 0 0 M-15 0 C-11.77 0, -8.54 0, 0 0" stroke="#1e1e1e" stroke-width="2" fill="none"></path></g><g transform="translate(1129.9999999999995 470.0000000000002) rotate(180 0 30)"><path d="M8.45 58.13 C5.5 51.79, 2.54 45.45, 0 40 M8.45 58.13 C6.63 54.22, 4.81 50.32, 0 40" stroke="#1e1e1e" stroke-width="2" fill="none"></path></g><g transform="translate(1129.9999999999995 470.0000000000002) rotate(180 0 30)"><path d="M-8.45 58.13 C-5.5 51.79, -2.54 45.45, 0 40 M-8.45 58.13 C-6.63 54.22, -4.81 50.32, 0 40" stroke="#1e1e1e" stroke-width="2" fill="none"></path></g></g><mask></mask><g stroke-linecap="round" transform="translate(1910 240) rotate(0 50 5)"><path d="M0 0 L100 0 L100 10 L0 10" stroke="none" stroke-width="0" fill="#ffc9c9"></path><path d="M0 0 C38.21 0, 76.43 0, 100 0 M100 0 C100 3.82, 100 7.64, 100 10 M100 10 C60.51 10, 21.02 10, 0 10 M0 10 C0 6.02, 0 2.03, 0 0" stroke="#1e1e1e" stroke-width="1.5" fill="none" stroke-dasharray="8 9"></path></g><g stroke-linecap="round" transform="translate(1830 240) rotate(0 40 5)"><path d="M0 0 L80 0 L80 10 L0 10" stroke="none" stroke-width="0" fill="#b2f2bb"></path><path d="M0 0 C31.23 0, 62.45 0, 80 0 M0 0 C28.06 0, 56.12 0, 80 0 M80 0 C80 3.6, 80 7.2, 80 10 M80 0 C80 2.56, 80 5.13, 80 10 M80 10 C55.6 10, 31.21 10, 0 10 M80 10 C57.04 10, 34.08 10, 0 10 M0 10 C0 7.93, 0 5.86, 0 0 M0 10 C0 6.36, 0 2.73, 0 0" stroke="#1e1e1e" stroke-width="1" fill="none"></path></g><g stroke-linecap="round" transform="translate(1850 440) rotate(0 50 5)"><path d="M0 0 L100 0 L100 10 L0 10" stroke="none" stroke-width="0" fill="#b2f2bb"></path><path d="M0 0 C26.84 0, 53.67 0, 100 0 M0 0 C39.19 0, 78.39 0, 100 0 M100 0 C100 2.15, 100 4.3, 100 10 M100 0 C100 2.65, 100 5.29, 100 10 M100 10 C69 10, 38 10, 0 10 M100 10 C78.85 10, 57.7 10, 0 10 M0 10 C0 7.25, 0 4.51, 0 0 M0 10 C0 7.04, 0 4.08, 0 0" stroke="#1e1e1e" stroke-width="1" fill="none"></path></g><g stroke-linecap="round"><g transform="translate(1950 440.20764597684695) rotate(0 -20 -100)"><path d="M0 0 C-14.98 -74.9, -29.96 -149.8, -40 -200" stroke="#1e1e1e" stroke-width="1.5" fill="none" stroke-dasharray="8 9"></path></g></g><mask></mask><g stroke-linecap="round"><g transform="translate(1850.058782610987 439.969973081709) rotate(0 -10.296667377057474 -50.14801588212998)"><path d="M0 0 C-7.5 -36.54, -15.01 -73.09, -20.59 -100.3 M0 0 C-5.58 -27.19, -11.17 -54.38, -20.59 -100.3" stroke="#1e1e1e" stroke-width="1" fill="none"></path></g></g><mask></mask><g stroke-linecap="round"><g transform="translate(1850 450) rotate(0 -10 -50)"><path d="M0 0 C-6.79 -33.93, -13.57 -67.85, -20 -100 M0 0 C-4.96 -24.79, -9.92 -49.58, -20 -100" stroke="#1e1e1e" stroke-width="1" fill="none"></path></g></g><mask></mask><g stroke-linecap="round" transform="translate(890 240) rotate(0 40 5)"><path d="M0 0 L80 0 L80 10 L0 10" stroke="none" stroke-width="0" fill="#b2f2bb"></path><path d="M0 0 C21.66 0, 43.32 0, 80 0 M0 0 C31.7 0, 63.4 0, 80 0 M80 0 C80 3.13, 80 6.26, 80 10 M80 0 C80 2.94, 80 5.88, 80 10 M80 10 C50.09 10, 20.18 10, 0 10 M80 10 C56.52 10, 33.04 10, 0 10 M0 10 C0 6.21, 0 2.42, 0 0 M0 10 C0 7.06, 0 4.12, 0 0" stroke="#1e1e1e" stroke-width="1" fill="none"></path></g><g stroke-linecap="round" transform="translate(1170 450) rotate(0 40 30)"><path d="M0 0 L80 0 L80 60 L0 60" stroke="none" stroke-width="0" fill="#e9ecef"></path><path d="M0 0 C16.33 0, 32.65 0, 80 0 M0 0 C27.16 0, 54.31 0, 80 0 M80 0 C80 17.5, 80 35.01, 80 60 M80 0 C80 16.29, 80 32.58, 80 60 M80 60 C48.8 60, 17.6 60, 0 60 M80 60 C55.02 60, 30.04 60, 0 60 M0 60 C0 36.08, 0 12.15, 0 0 M0 60 C0 42.44, 0 24.88, 0 0" stroke="#1e1e1e" stroke-width="1" fill="none"></path></g><g stroke-linecap="round" transform="translate(2290 450) rotate(0 50 50)"><path d="M100 50 C100 52.18, 99.86 54.37, 99.57 56.53 C99.29 58.68, 98.86 60.84, 98.3 62.94 C97.73 65.04, 97.03 67.12, 96.19 69.13 C95.36 71.14, 94.39 73.12, 93.3 75 C92.21 76.88, 90.99 78.71, 89.67 80.44 C88.34 82.16, 86.89 83.82, 85.36 85.36 C83.82 86.89, 82.16 88.34, 80.44 89.67 C78.71 90.99, 76.88 92.21, 75 93.3 C73.12 94.39, 71.14 95.36, 69.13 96.19 C67.12 97.03, 65.04 97.73, 62.94 98.3 C60.84 98.86, 58.68 99.29, 56.53 99.57 C54.37 99.86, 52.18 100, 50 100 C47.82 100, 45.63 99.86, 43.47 99.57 C41.32 99.29, 39.16 98.86, 37.06 98.3 C34.96 97.73, 32.88 97.03, 30.87 96.19 C28.86 95.36, 26.88 94.39, 25 93.3 C23.12 92.21, 21.29 90.99, 19.56 89.67 C17.84 88.34, 16.18 86.89, 14.64 85.36 C13.11 83.82, 11.66 82.16, 10.33 80.44 C9.01 78.71, 7.79 76.88, 6.7 75 C5.61 73.12, 4.64 71.14, 3.81 69.13 C2.97 67.12, 2.27 65.04, 1.7 62.94 C1.14 60.84, 0.71 58.68, 0.43 56.53 C0.14 54.37, 0 52.18, 0 50 C0 47.82, 0.14 45.63, 0.43 43.47 C0.71 41.32, 1.14 39.16, 1.7 37.06 C2.27 34.96, 2.97 32.88, 3.81 30.87 C4.64 28.86, 5.61 26.88, 6.7 25 C7.79 23.12, 9.01 21.29, 10.33 19.56 C11.66 17.84, 13.11 16.18, 14.64 14.64 C16.18 13.11, 17.84 11.66, 19.56 10.33 C21.29 9.01, 23.12 7.79, 25 6.7 C26.88 5.61, 28.86 4.64, 30.87 3.81 C32.88 2.97, 34.96 2.27, 37.06 1.7 C39.16 1.14, 41.32 0.71, 43.47 0.43 C45.63 0.14, 47.82 0, 50 0 C52.18 0, 54.37 0.14, 56.53 0.43 C58.68 0.71, 60.84 1.14, 62.94 1.7 C65.04 2.27, 67.12 2.97, 69.13 3.81 C71.14 4.64, 73.12 5.61, 75 6.7 C76.88 7.79, 78.71 9.01, 80.44 10.33 C82.16 11.66, 83.82 13.11, 85.36 14.64 C86.89 16.18, 88.34 17.84, 89.67 19.56 C90.99 21.29, 92.21 23.12, 93.3 25 C94.39 26.88, 95.36 28.86, 96.19 30.87 C97.03 32.88, 97.73 34.96, 98.3 37.06 C98.86 39.16, 99.29 41.32, 99.57 43.47 C99.86 45.63, 99.93 48.91, 100 50 C100.07 51.09, 100.07 48.91, 100 50" stroke="none" stroke-width="0" fill="#b2f2bb"></path><path d="M100 50 C100 52.18, 99.86 54.37, 99.57 56.53 C99.29 58.68, 98.86 60.84, 98.3 62.94 C97.73 65.04, 97.03 67.12, 96.19 69.13 C95.36 71.14, 94.39 73.12, 93.3 75 C92.21 76.88, 90.99 78.71, 89.67 80.44 C88.34 82.16, 86.89 83.82, 85.36 85.36 C83.82 86.89, 82.16 88.34, 80.44 89.67 C78.71 90.99, 76.88 92.21, 75 93.3 C73.12 94.39, 71.14 95.36, 69.13 96.19 C67.12 97.03, 65.04 97.73, 62.94 98.3 C60.84 98.86, 58.68 99.29, 56.53 99.57 C54.37 99.86, 52.18 100, 50 100 C47.82 100, 45.63 99.86, 43.47 99.57 C41.32 99.29, 39.16 98.86, 37.06 98.3 C34.96 97.73, 32.88 97.03, 30.87 96.19 C28.86 95.36, 26.88 94.39, 25 93.3 C23.12 92.21, 21.29 90.99, 19.56 89.67 C17.84 88.34, 16.18 86.89, 14.64 85.36 C13.11 83.82, 11.66 82.16, 10.33 80.44 C9.01 78.71, 7.79 76.88, 6.7 75 C5.61 73.12, 4.64 71.14, 3.81 69.13 C2.97 67.12, 2.27 65.04, 1.7 62.94 C1.14 60.84, 0.71 58.68, 0.43 56.53 C0.14 54.37, 0 52.18, 0 50 C0 47.82, 0.14 45.63, 0.43 43.47 C0.71 41.32, 1.14 39.16, 1.7 37.06 C2.27 34.96, 2.97 32.88, 3.81 30.87 C4.64 28.86, 5.61 26.88, 6.7 25 C7.79 23.12, 9.01 21.29, 10.33 19.56 C11.66 17.84, 13.11 16.18, 14.64 14.64 C16.18 13.11, 17.84 11.66, 19.56 10.33 C21.29 9.01, 23.12 7.79, 25 6.7 C26.88 5.61, 28.86 4.64, 30.87 3.81 C32.88 2.97, 34.96 2.27, 37.06 1.7 C39.16 1.14, 41.32 0.71, 43.47 0.43 C45.63 0.14, 47.82 0, 50 0 C52.18 0, 54.37 0.14, 56.53 0.43 C58.68 0.71, 60.84 1.14, 62.94 1.7 C65.04 2.27, 67.12 2.97, 69.13 3.81 C71.14 4.64, 73.12 5.61, 75 6.7 C76.88 7.79, 78.71 9.01, 80.44 10.33 C82.16 11.66, 83.82 13.11, 85.36 14.64 C86.89 16.18, 88.34 17.84, 89.67 19.56 C90.99 21.29, 92.21 23.12, 93.3 25 C94.39 26.88, 95.36 28.86, 96.19 30.87 C97.03 32.88, 97.73 34.96, 98.3 37.06 C98.86 39.16, 99.29 41.32, 99.57 43.47 C99.86 45.63, 99.93 48.91, 100 50 C100.07 51.09, 100.07 48.91, 100 50" stroke="#1e1e1e" stroke-width="1" fill="none"></path></g><g stroke-linecap="round" transform="translate(2190 450) rotate(0 50 50)"><path d="M100 50 C100 52.18, 99.86 54.37, 99.57 56.53 C99.29 58.68, 98.86 60.84, 98.3 62.94 C97.73 65.04, 97.03 67.12, 96.19 69.13 C95.36 71.14, 94.39 73.12, 93.3 75 C92.21 76.88, 90.99 78.71, 89.67 80.44 C88.34 82.16, 86.89 83.82, 85.36 85.36 C83.82 86.89, 82.16 88.34, 80.44 89.67 C78.71 90.99, 76.88 92.21, 75 93.3 C73.12 94.39, 71.14 95.36, 69.13 96.19 C67.12 97.03, 65.04 97.73, 62.94 98.3 C60.84 98.86, 58.68 99.29, 56.53 99.57 C54.37 99.86, 52.18 100, 50 100 C47.82 100, 45.63 99.86, 43.47 99.57 C41.32 99.29, 39.16 98.86, 37.06 98.3 C34.96 97.73, 32.88 97.03, 30.87 96.19 C28.86 95.36, 26.88 94.39, 25 93.3 C23.12 92.21, 21.29 90.99, 19.56 89.67 C17.84 88.34, 16.18 86.89, 14.64 85.36 C13.11 83.82, 11.66 82.16, 10.33 80.44 C9.01 78.71, 7.79 76.88, 6.7 75 C5.61 73.12, 4.64 71.14, 3.81 69.13 C2.97 67.12, 2.27 65.04, 1.7 62.94 C1.14 60.84, 0.71 58.68, 0.43 56.53 C0.14 54.37, 0 52.18, 0 50 C0 47.82, 0.14 45.63, 0.43 43.47 C0.71 41.32, 1.14 39.16, 1.7 37.06 C2.27 34.96, 2.97 32.88, 3.81 30.87 C4.64 28.86, 5.61 26.88, 6.7 25 C7.79 23.12, 9.01 21.29, 10.33 19.56 C11.66 17.84, 13.11 16.18, 14.64 14.64 C16.18 13.11, 17.84 11.66, 19.56 10.33 C21.29 9.01, 23.12 7.79, 25 6.7 C26.88 5.61, 28.86 4.64, 30.87 3.81 C32.88 2.97, 34.96 2.27, 37.06 1.7 C39.16 1.14, 41.32 0.71, 43.47 0.43 C45.63 0.14, 47.82 0, 50 0 C52.18 0, 54.37 0.14, 56.53 0.43 C58.68 0.71, 60.84 1.14, 62.94 1.7 C65.04 2.27, 67.12 2.97, 69.13 3.81 C71.14 4.64, 73.12 5.61, 75 6.7 C76.88 7.79, 78.71 9.01, 80.44 10.33 C82.16 11.66, 83.82 13.11, 85.36 14.64 C86.89 16.18, 88.34 17.84, 89.67 19.56 C90.99 21.29, 92.21 23.12, 93.3 25 C94.39 26.88, 95.36 28.86, 96.19 30.87 C97.03 32.88, 97.73 34.96, 98.3 37.06 C98.86 39.16, 99.29 41.32, 99.57 43.47 C99.86 45.63, 99.93 48.91, 100 50 C100.07 51.09, 100.07 48.91, 100 50" stroke="none" stroke-width="0" fill="#b2f2bb"></path><path d="M100 50 C100 52.18, 99.86 54.37, 99.57 56.53 C99.29 58.68, 98.86 60.84, 98.3 62.94 C97.73 65.04, 97.03 67.12, 96.19 69.13 C95.36 71.14, 94.39 73.12, 93.3 75 C92.21 76.88, 90.99 78.71, 89.67 80.44 C88.34 82.16, 86.89 83.82, 85.36 85.36 C83.82 86.89, 82.16 88.34, 80.44 89.67 C78.71 90.99, 76.88 92.21, 75 93.3 C73.12 94.39, 71.14 95.36, 69.13 96.19 C67.12 97.03, 65.04 97.73, 62.94 98.3 C60.84 98.86, 58.68 99.29, 56.53 99.57 C54.37 99.86, 52.18 100, 50 100 C47.82 100, 45.63 99.86, 43.47 99.57 C41.32 99.29, 39.16 98.86, 37.06 98.3 C34.96 97.73, 32.88 97.03, 30.87 96.19 C28.86 95.36, 26.88 94.39, 25 93.3 C23.12 92.21, 21.29 90.99, 19.56 89.67 C17.84 88.34, 16.18 86.89, 14.64 85.36 C13.11 83.82, 11.66 82.16, 10.33 80.44 C9.01 78.71, 7.79 76.88, 6.7 75 C5.61 73.12, 4.64 71.14, 3.81 69.13 C2.97 67.12, 2.27 65.04, 1.7 62.94 C1.14 60.84, 0.71 58.68, 0.43 56.53 C0.14 54.37, 0 52.18, 0 50 C0 47.82, 0.14 45.63, 0.43 43.47 C0.71 41.32, 1.14 39.16, 1.7 37.06 C2.27 34.96, 2.97 32.88, 3.81 30.87 C4.64 28.86, 5.61 26.88, 6.7 25 C7.79 23.12, 9.01 21.29, 10.33 19.56 C11.66 17.84, 13.11 16.18, 14.64 14.64 C16.18 13.11, 17.84 11.66, 19.56 10.33 C21.29 9.01, 23.12 7.79, 25 6.7 C26.88 5.61, 28.86 4.64, 30.87 3.81 C32.88 2.97, 34.96 2.27, 37.06 1.7 C39.16 1.14, 41.32 0.71, 43.47 0.43 C45.63 0.14, 47.82 0, 50 0 C52.18 0, 54.37 0.14, 56.53 0.43 C58.68 0.71, 60.84 1.14, 62.94 1.7 C65.04 2.27, 67.12 2.97, 69.13 3.81 C71.14 4.64, 73.12 5.61, 75 6.7 C76.88 7.79, 78.71 9.01, 80.44 10.33 C82.16 11.66, 83.82 13.11, 85.36 14.64 C86.89 16.18, 88.34 17.84, 89.67 19.56 C90.99 21.29, 92.21 23.12, 93.3 25 C94.39 26.88, 95.36 28.86, 96.19 30.87 C97.03 32.88, 97.73 34.96, 98.3 37.06 C98.86 39.16, 99.29 41.32, 99.57 43.47 C99.86 45.63, 99.93 48.91, 100 50 C100.07 51.09, 100.07 48.91, 100 50" stroke="#1e1e1e" stroke-width="1" fill="none"></path></g><g stroke-linecap="round" transform="translate(1350 450) rotate(0 50 50)"><path d="M100 50 C100 52.18, 99.86 54.37, 99.57 56.53 C99.29 58.68, 98.86 60.84, 98.3 62.94 C97.73 65.04, 97.03 67.12, 96.19 69.13 C95.36 71.14, 94.39 73.12, 93.3 75 C92.21 76.88, 90.99 78.71, 89.67 80.44 C88.34 82.16, 86.89 83.82, 85.36 85.36 C83.82 86.89, 82.16 88.34, 80.44 89.67 C78.71 90.99, 76.88 92.21, 75 93.3 C73.12 94.39, 71.14 95.36, 69.13 96.19 C67.12 97.03, 65.04 97.73, 62.94 98.3 C60.84 98.86, 58.68 99.29, 56.53 99.57 C54.37 99.86, 52.18 100, 50 100 C47.82 100, 45.63 99.86, 43.47 99.57 C41.32 99.29, 39.16 98.86, 37.06 98.3 C34.96 97.73, 32.88 97.03, 30.87 96.19 C28.86 95.36, 26.88 94.39, 25 93.3 C23.12 92.21, 21.29 90.99, 19.56 89.67 C17.84 88.34, 16.18 86.89, 14.64 85.36 C13.11 83.82, 11.66 82.16, 10.33 80.44 C9.01 78.71, 7.79 76.88, 6.7 75 C5.61 73.12, 4.64 71.14, 3.81 69.13 C2.97 67.12, 2.27 65.04, 1.7 62.94 C1.14 60.84, 0.71 58.68, 0.43 56.53 C0.14 54.37, 0 52.18, 0 50 C0 47.82, 0.14 45.63, 0.43 43.47 C0.71 41.32, 1.14 39.16, 1.7 37.06 C2.27 34.96, 2.97 32.88, 3.81 30.87 C4.64 28.86, 5.61 26.88, 6.7 25 C7.79 23.12, 9.01 21.29, 10.33 19.56 C11.66 17.84, 13.11 16.18, 14.64 14.64 C16.18 13.11, 17.84 11.66, 19.56 10.33 C21.29 9.01, 23.12 7.79, 25 6.7 C26.88 5.61, 28.86 4.64, 30.87 3.81 C32.88 2.97, 34.96 2.27, 37.06 1.7 C39.16 1.14, 41.32 0.71, 43.47 0.43 C45.63 0.14, 47.82 0, 50 0 C52.18 0, 54.37 0.14, 56.53 0.43 C58.68 0.71, 60.84 1.14, 62.94 1.7 C65.04 2.27, 67.12 2.97, 69.13 3.81 C71.14 4.64, 73.12 5.61, 75 6.7 C76.88 7.79, 78.71 9.01, 80.44 10.33 C82.16 11.66, 83.82 13.11, 85.36 14.64 C86.89 16.18, 88.34 17.84, 89.67 19.56 C90.99 21.29, 92.21 23.12, 93.3 25 C94.39 26.88, 95.36 28.86, 96.19 30.87 C97.03 32.88, 97.73 34.96, 98.3 37.06 C98.86 39.16, 99.29 41.32, 99.57 43.47 C99.86 45.63, 99.93 48.91, 100 50 C100.07 51.09, 100.07 48.91, 100 50" stroke="none" stroke-width="0" fill="#b2f2bb"></path><path d="M100 50 C100 52.18, 99.86 54.37, 99.57 56.53 C99.29 58.68, 98.86 60.84, 98.3 62.94 C97.73 65.04, 97.03 67.12, 96.19 69.13 C95.36 71.14, 94.39 73.12, 93.3 75 C92.21 76.88, 90.99 78.71, 89.67 80.44 C88.34 82.16, 86.89 83.82, 85.36 85.36 C83.82 86.89, 82.16 88.34, 80.44 89.67 C78.71 90.99, 76.88 92.21, 75 93.3 C73.12 94.39, 71.14 95.36, 69.13 96.19 C67.12 97.03, 65.04 97.73, 62.94 98.3 C60.84 98.86, 58.68 99.29, 56.53 99.57 C54.37 99.86, 52.18 100, 50 100 C47.82 100, 45.63 99.86, 43.47 99.57 C41.32 99.29, 39.16 98.86, 37.06 98.3 C34.96 97.73, 32.88 97.03, 30.87 96.19 C28.86 95.36, 26.88 94.39, 25 93.3 C23.12 92.21, 21.29 90.99, 19.56 89.67 C17.84 88.34, 16.18 86.89, 14.64 85.36 C13.11 83.82, 11.66 82.16, 10.33 80.44 C9.01 78.71, 7.79 76.88, 6.7 75 C5.61 73.12, 4.64 71.14, 3.81 69.13 C2.97 67.12, 2.27 65.04, 1.7 62.94 C1.14 60.84, 0.71 58.68, 0.43 56.53 C0.14 54.37, 0 52.18, 0 50 C0 47.82, 0.14 45.63, 0.43 43.47 C0.71 41.32, 1.14 39.16, 1.7 37.06 C2.27 34.96, 2.97 32.88, 3.81 30.87 C4.64 28.86, 5.61 26.88, 6.7 25 C7.79 23.12, 9.01 21.29, 10.33 19.56 C11.66 17.84, 13.11 16.18, 14.64 14.64 C16.18 13.11, 17.84 11.66, 19.56 10.33 C21.29 9.01, 23.12 7.79, 25 6.7 C26.88 5.61, 28.86 4.64, 30.87 3.81 C32.88 2.97, 34.96 2.27, 37.06 1.7 C39.16 1.14, 41.32 0.71, 43.47 0.43 C45.63 0.14, 47.82 0, 50 0 C52.18 0, 54.37 0.14, 56.53 0.43 C58.68 0.71, 60.84 1.14, 62.94 1.7 C65.04 2.27, 67.12 2.97, 69.13 3.81 C71.14 4.64, 73.12 5.61, 75 6.7 C76.88 7.79, 78.71 9.01, 80.44 10.33 C82.16 11.66, 83.82 13.11, 85.36 14.64 C86.89 16.18, 88.34 17.84, 89.67 19.56 C90.99 21.29, 92.21 23.12, 93.3 25 C94.39 26.88, 95.36 28.86, 96.19 30.87 C97.03 32.88, 97.73 34.96, 98.3 37.06 C98.86 39.16, 99.29 41.32, 99.57 43.47 C99.86 45.63, 99.93 48.91, 100 50 C100.07 51.09, 100.07 48.91, 100 50" stroke="#1e1e1e" stroke-width="1" fill="none"></path></g><g stroke-linecap="round" transform="translate(1250 450) rotate(0 50 50)"><path d="M100 50 C100 52.18, 99.86 54.37, 99.57 56.53 C99.29 58.68, 98.86 60.84, 98.3 62.94 C97.73 65.04, 97.03 67.12, 96.19 69.13 C95.36 71.14, 94.39 73.12, 93.3 75 C92.21 76.88, 90.99 78.71, 89.67 80.44 C88.34 82.16, 86.89 83.82, 85.36 85.36 C83.82 86.89, 82.16 88.34, 80.44 89.67 C78.71 90.99, 76.88 92.21, 75 93.3 C73.12 94.39, 71.14 95.36, 69.13 96.19 C67.12 97.03, 65.04 97.73, 62.94 98.3 C60.84 98.86, 58.68 99.29, 56.53 99.57 C54.37 99.86, 52.18 100, 50 100 C47.82 100, 45.63 99.86, 43.47 99.57 C41.32 99.29, 39.16 98.86, 37.06 98.3 C34.96 97.73, 32.88 97.03, 30.87 96.19 C28.86 95.36, 26.88 94.39, 25 93.3 C23.12 92.21, 21.29 90.99, 19.56 89.67 C17.84 88.34, 16.18 86.89, 14.64 85.36 C13.11 83.82, 11.66 82.16, 10.33 80.44 C9.01 78.71, 7.79 76.88, 6.7 75 C5.61 73.12, 4.64 71.14, 3.81 69.13 C2.97 67.12, 2.27 65.04, 1.7 62.94 C1.14 60.84, 0.71 58.68, 0.43 56.53 C0.14 54.37, 0 52.18, 0 50 C0 47.82, 0.14 45.63, 0.43 43.47 C0.71 41.32, 1.14 39.16, 1.7 37.06 C2.27 34.96, 2.97 32.88, 3.81 30.87 C4.64 28.86, 5.61 26.88, 6.7 25 C7.79 23.12, 9.01 21.29, 10.33 19.56 C11.66 17.84, 13.11 16.18, 14.64 14.64 C16.18 13.11, 17.84 11.66, 19.56 10.33 C21.29 9.01, 23.12 7.79, 25 6.7 C26.88 5.61, 28.86 4.64, 30.87 3.81 C32.88 2.97, 34.96 2.27, 37.06 1.7 C39.16 1.14, 41.32 0.71, 43.47 0.43 C45.63 0.14, 47.82 0, 50 0 C52.18 0, 54.37 0.14, 56.53 0.43 C58.68 0.71, 60.84 1.14, 62.94 1.7 C65.04 2.27, 67.12 2.97, 69.13 3.81 C71.14 4.64, 73.12 5.61, 75 6.7 C76.88 7.79, 78.71 9.01, 80.44 10.33 C82.16 11.66, 83.82 13.11, 85.36 14.64 C86.89 16.18, 88.34 17.84, 89.67 19.56 C90.99 21.29, 92.21 23.12, 93.3 25 C94.39 26.88, 95.36 28.86, 96.19 30.87 C97.03 32.88, 97.73 34.96, 98.3 37.06 C98.86 39.16, 99.29 41.32, 99.57 43.47 C99.86 45.63, 99.93 48.91, 100 50 C100.07 51.09, 100.07 48.91, 100 50" stroke="none" stroke-width="0" fill="#b2f2bb"></path><path d="M100 50 C100 52.18, 99.86 54.37, 99.57 56.53 C99.29 58.68, 98.86 60.84, 98.3 62.94 C97.73 65.04, 97.03 67.12, 96.19 69.13 C95.36 71.14, 94.39 73.12, 93.3 75 C92.21 76.88, 90.99 78.71, 89.67 80.44 C88.34 82.16, 86.89 83.82, 85.36 85.36 C83.82 86.89, 82.16 88.34, 80.44 89.67 C78.71 90.99, 76.88 92.21, 75 93.3 C73.12 94.39, 71.14 95.36, 69.13 96.19 C67.12 97.03, 65.04 97.73, 62.94 98.3 C60.84 98.86, 58.68 99.29, 56.53 99.57 C54.37 99.86, 52.18 100, 50 100 C47.82 100, 45.63 99.86, 43.47 99.57 C41.32 99.29, 39.16 98.86, 37.06 98.3 C34.96 97.73, 32.88 97.03, 30.87 96.19 C28.86 95.36, 26.88 94.39, 25 93.3 C23.12 92.21, 21.29 90.99, 19.56 89.67 C17.84 88.34, 16.18 86.89, 14.64 85.36 C13.11 83.82, 11.66 82.16, 10.33 80.44 C9.01 78.71, 7.79 76.88, 6.7 75 C5.61 73.12, 4.64 71.14, 3.81 69.13 C2.97 67.12, 2.27 65.04, 1.7 62.94 C1.14 60.84, 0.71 58.68, 0.43 56.53 C0.14 54.37, 0 52.18, 0 50 C0 47.82, 0.14 45.63, 0.43 43.47 C0.71 41.32, 1.14 39.16, 1.7 37.06 C2.27 34.96, 2.97 32.88, 3.81 30.87 C4.64 28.86, 5.61 26.88, 6.7 25 C7.79 23.12, 9.01 21.29, 10.33 19.56 C11.66 17.84, 13.11 16.18, 14.64 14.64 C16.18 13.11, 17.84 11.66, 19.56 10.33 C21.29 9.01, 23.12 7.79, 25 6.7 C26.88 5.61, 28.86 4.64, 30.87 3.81 C32.88 2.97, 34.96 2.27, 37.06 1.7 C39.16 1.14, 41.32 0.71, 43.47 0.43 C45.63 0.14, 47.82 0, 50 0 C52.18 0, 54.37 0.14, 56.53 0.43 C58.68 0.71, 60.84 1.14, 62.94 1.7 C65.04 2.27, 67.12 2.97, 69.13 3.81 C71.14 4.64, 73.12 5.61, 75 6.7 C76.88 7.79, 78.71 9.01, 80.44 10.33 C82.16 11.66, 83.82 13.11, 85.36 14.64 C86.89 16.18, 88.34 17.84, 89.67 19.56 C90.99 21.29, 92.21 23.12, 93.3 25 C94.39 26.88, 95.36 28.86, 96.19 30.87 C97.03 32.88, 97.73 34.96, 98.3 37.06 C98.86 39.16, 99.29 41.32, 99.57 43.47 C99.86 45.63, 99.93 48.91, 100 50 C100.07 51.09, 100.07 48.91, 100 50" stroke="#1e1e1e" stroke-width="1" fill="none"></path></g><g stroke-linecap="round" transform="translate(1830 10) rotate(0 300 290)"><path d="M32 0 C175.84 -1.26, 319.78 -0.81, 568 0 M32 0 C170.36 0.19, 309.11 0.57, 568 0 M568 0 C589.99 -0.34, 601.89 9.6, 600 32 M568 0 C591.4 0.87, 600.62 11.48, 600 32 M600 32 C600.39 183.25, 599.91 334.85, 600 548 M600 32 C599.17 138.16, 599.46 244.16, 600 548 M600 548 C598.7 568.73, 590.39 580.3, 568 580 M600 548 C598.78 567.58, 591.33 581.78, 568 580 M568 580 C355.93 579.08, 143.8 579.8, 32 580 M568 580 C421.05 578.47, 273.83 578.07, 32 580 M32 580 C8.95 579.3, 0.97 568.15, 0 548 M32 580 C10.44 580.37, 2.12 568.19, 0 548 M0 548 C-1.29 424.06, -2 301.4, 0 32 M0 548 C1.88 376.23, 1.24 204.86, 0 32 M0 32 C-1.23 9.05, 12.28 0.14, 32 0 M0 32 C-1.81 11.98, 8.93 -0.44, 32 0" stroke="#1e1e1e" stroke-width="4" fill="none"></path></g><g stroke-linecap="round" transform="translate(630 250) rotate(0 100 50)"><path d="M25 0 C65.83 -2.13, 104.35 3.47, 175 0 C194.64 3.1, 202.55 8.6, 200 25 C196.83 40.25, 202.72 56.97, 200 75 C203.12 94.28, 194.88 96.76, 175 100 C136.62 100.85, 98.13 99.64, 25 100 C4.75 102.7, 3 94.47, 0 75 C3 57.6, -0.81 40.32, 0 25 C-2.8 9.84, 7.43 -2.94, 25 0" stroke="none" stroke-width="0" fill="#1e1e1e"></path><path d="M25 0 C68.24 1.48, 106.96 2.05, 175 0 M25 0 C76.27 1.11, 126.87 0.33, 175 0 M175 0 C191.44 0.5, 201.68 7.83, 200 25 M175 0 C189.49 -1.5, 200.65 9.17, 200 25 M200 25 C198.15 44.83, 198.86 61.82, 200 75 M200 25 C199.88 44.78, 198.78 65.12, 200 75 M200 75 C199.02 92.86, 190.11 98.4, 175 100 M200 75 C199.71 93.39, 193.96 100.35, 175 100 M175 100 C133.08 101.53, 95.22 101.4, 25 100 M175 100 C144.11 98.61, 113.33 98.39, 25 100 M25 100 C10.25 98.21, -0.62 91.46, 0 75 M25 100 C6.71 98.48, 1.91 92.12, 0 75 M0 75 C-0.38 59.83, -0.54 44.85, 0 25 M0 75 C-0.53 60.36, -0.62 47.52, 0 25 M0 25 C-0.02 9.56, 6.51 -0.07, 25 0 M0 25 C1.15 6.72, 9.62 -1.23, 25 0" stroke="#1e1e1e" stroke-width="1" fill="none"></path></g><g stroke-linecap="round" transform="translate(770 250) rotate(0 50 50)"><path d="M63.75 12.75 C69.86 22.13, 84.31 31.96, 87.25 38.25 C98.37 50.81, 97.2 52.51, 87.25 63.75 C79.02 71.81, 77.05 79.28, 63.75 87.25 C51.55 98.48, 47.53 97.96, 38.25 87.25 C33.28 82.53, 25.71 74.12, 12.75 63.75 C-1.67 49.33, -3.29 53.13, 12.75 38.25 C16.2 33.19, 22.42 26.01, 38.25 12.75 C49.96 3.28, 52.2 0.7, 63.75 12.75" stroke="none" stroke-width="0" fill="#1e1e1e"></path><path d="M63.75 12.75 C70.05 22.37, 79.23 31.8, 87.25 38.25 M63.75 12.75 C69.52 19.44, 74.15 23.8, 87.25 38.25 M87.25 38.25 C101.73 51.71, 98.3 52, 87.25 63.75 M87.25 38.25 C100.76 52, 97.76 48.79, 87.25 63.75 M87.25 63.75 C79.69 67.84, 77.69 73.19, 63.75 87.25 M87.25 63.75 C80.25 70.73, 74.79 76.39, 63.75 87.25 M63.75 87.25 C52.05 99.49, 50.88 100.65, 38.25 87.25 M63.75 87.25 C50.69 101.73, 50.46 99.25, 38.25 87.25 M38.25 87.25 C30.63 81.71, 25.99 76.84, 12.75 63.75 M38.25 87.25 C32.24 83.03, 27.08 77.23, 12.75 63.75 M12.75 63.75 C-1.24 51.03, 0.53 49.84, 12.75 38.25 M12.75 63.75 C-0.26 53.24, 1.9 52.98, 12.75 38.25 M12.75 38.25 C22.55 29.89, 29.79 18.04, 38.25 12.75 M12.75 38.25 C23.13 29.46, 30.96 18.58, 38.25 12.75 M38.25 12.75 C51.74 0.62, 50.2 0.01, 63.75 12.75 M38.25 12.75 C49.09 -0.77, 48.71 1.73, 63.75 12.75" stroke="#1e1e1e" stroke-width="1" fill="none"></path></g><g stroke-linecap="round" transform="translate(1550 250) rotate(0 100 50)"><path d="M25 0 C61.92 -0.93, 105.25 -2.22, 175 0 C192.81 -1.62, 200.53 7.14, 200 25 C200.66 46.59, 200.02 66.46, 200 75 C200.7 93.97, 192.16 103.33, 175 100 C137.37 101.33, 99.58 103.9, 25 100 C8.31 97.25, 1.06 90.7, 0 75 C-1.03 60.71, 3.77 48.82, 0 25 C-1.37 8.43, 7.82 3.4, 25 0" stroke="none" stroke-width="0" fill="#1e1e1e"></path><path d="M25 0 C79.52 -2.14, 131.15 -0.83, 175 0 M25 0 C74.57 -0.92, 125.35 -1.25, 175 0 M175 0 C190.35 -0.42, 201.67 7.2, 200 25 M175 0 C192.68 -0.13, 198.99 6.57, 200 25 M200 25 C198.93 36.49, 201.74 48.06, 200 75 M200 25 C200.07 42.21, 200.26 58.45, 200 75 M200 75 C199.24 90.08, 189.69 100.7, 175 100 M200 75 C201.71 90.32, 192.78 98.62, 175 100 M175 100 C114.83 97.7, 56.5 97.97, 25 100 M175 100 C144.29 100.74, 114.55 101.69, 25 100 M25 100 C9.99 99.69, -0.22 92.3, 0 75 M25 100 C6.68 97.95, 1.58 93.03, 0 75 M0 75 C0.25 57.87, -1.68 44.38, 0 25 M0 75 C-0.68 63.65, -0.34 54.64, 0 25 M0 25 C-0.19 8.61, 8.34 1.08, 25 0 M0 25 C-1.35 7.85, 7.43 -0.33, 25 0" stroke="#1e1e1e" stroke-width="1" fill="none"></path></g><g stroke-linecap="round" transform="translate(1690 250) rotate(0 50 50)"><path d="M63.75 12.75 C71.71 17.34, 77.79 25.62, 87.25 38.25 C100.53 49.81, 103.58 53.89, 87.25 63.75 C79.59 72.42, 74.03 80.16, 63.75 87.25 C51.49 103.33, 49 101.43, 38.25 87.25 C27.36 81.59, 20.51 68.06, 12.75 63.75 C1.06 50.03, -1 49.85, 12.75 38.25 C25.26 30.52, 29.27 20.71, 38.25 12.75 C50.49 3.4, 51.05 -3.54, 63.75 12.75" stroke="none" stroke-width="0" fill="#1e1e1e"></path><path d="M63.75 12.75 C72.17 23.52, 83.1 33.28, 87.25 38.25 M63.75 12.75 C72.01 20.37, 78.4 29.35, 87.25 38.25 M87.25 38.25 C101.67 49.87, 100.88 50.89, 87.25 63.75 M87.25 38.25 C98.99 49.24, 98.63 49.9, 87.25 63.75 M87.25 63.75 C80.29 71.56, 70.22 81.54, 63.75 87.25 M87.25 63.75 C81.21 69.85, 74.35 75.56, 63.75 87.25 M63.75 87.25 C49.02 100.7, 52.48 98.82, 38.25 87.25 M63.75 87.25 C52.11 98.62, 53.24 100.87, 38.25 87.25 M38.25 87.25 C31.98 78.78, 22.25 75.34, 12.75 63.75 M38.25 87.25 C30.19 79.81, 21.04 70.46, 12.75 63.75 M12.75 63.75 C-0.22 51.63, -1.44 49.22, 12.75 38.25 M12.75 63.75 C1.58 52.36, 0.28 53.14, 12.75 38.25 M12.75 38.25 C18.26 32.23, 24.54 24.11, 38.25 12.75 M12.75 38.25 C18.69 33.11, 25.37 26.07, 38.25 12.75 M38.25 12.75 C51 1.08, 49.83 -0.42, 63.75 12.75 M38.25 12.75 C50.1 -0.33, 50.12 -1.69, 63.75 12.75" stroke="#1e1e1e" stroke-width="1" fill="none"></path></g><g stroke-linecap="round" transform="translate(10 10) rotate(0 292.7844030269234 290)"><path d="M366.25 72.75 C397.77 102.42, 424.93 134.56, 512.32 218.25 M366.25 72.75 C398.43 107.18, 432.75 139.37, 512.32 218.25 M512.32 218.25 C585.91 289.05, 587.39 289.18, 512.32 363.75 M512.32 218.25 C587.37 289.55, 584.46 292.36, 512.32 363.75 M512.32 363.75 C463.36 408.82, 412.88 458.41, 366.25 507.25 M512.32 363.75 C458.21 416.87, 404.1 470.48, 366.25 507.25 M366.25 507.25 C292.02 578.16, 294.88 581.7, 219.75 507.25 M366.25 507.25 C293.05 580.32, 295.22 582.16, 219.75 507.25 M219.75 507.25 C175.77 464.77, 133.77 422.69, 73.25 363.75 M219.75 507.25 C161.71 450.53, 105.61 395.39, 73.25 363.75 M73.25 363.75 C-0.46 289.88, 1.42 291.75, 73.25 218.25 M73.25 363.75 C1.48 292.26, -0.53 290.37, 73.25 218.25 M73.25 218.25 C128.72 163.67, 182.29 108.18, 219.75 72.75 M73.25 218.25 C115.22 175.35, 158.46 133.81, 219.75 72.75 M219.75 72.75 C294.98 -0.35, 292.73 -0.97, 366.25 72.75 M219.75 72.75 C293.94 0.22, 293.7 -0.95, 366.25 72.75" stroke="#1e1e1e" stroke-width="4" fill="none"></path></g><g stroke-linecap="round" transform="translate(162.6174482568726 178.66713157758005) rotate(308.8746558280798 137.38255174312746 166.98332590662145)"><path d="M138 0 C190.13 63.66, 242.27 127.32, 274.77 167 M138 0 C185.76 58.32, 233.52 116.64, 274.77 167 M274.77 167 C235.23 215.27, 195.7 263.53, 138 333.97 M274.77 167 C242.88 205.92, 211 244.85, 138 333.97 M138 333.97 C89.49 275.27, 40.97 216.57, 0 167 M138 333.97 C93.48 280.1, 48.95 226.23, 0 167 M0 167 C33.23 126.79, 66.45 86.58, 138 0 M0 167 C52.34 103.67, 104.67 40.33, 138 0" stroke="#1e1e1e" stroke-width="2" fill="none"></path></g><g stroke-linecap="round" transform="translate(2130 50) rotate(0 10 90)"><path d="M0 0 L20 0 L20 180 L0 180" stroke="none" stroke-width="0" fill="#e9ecef"></path><path d="M0 0 C4.13 0, 8.25 0, 20 0 M0 0 C5.52 0, 11.03 0, 20 0 M20 0 C20 41.52, 20 83.04, 20 180 M20 0 C20 60.59, 20 121.18, 20 180 M20 180 C12.51 180, 5.02 180, 0 180 M20 180 C14.7 180, 9.4 180, 0 180 M0 180 C0 141.35, 0 102.71, 0 0 M0 180 C0 132.66, 0 85.33, 0 0" stroke="transparent" stroke-width="1" fill="none"></path></g><g stroke-linecap="round" transform="translate(162.6174482568726 160.92807613735044) rotate(308.8746558280798 137.38255174312746 166.98332590662145)"><path d="M138 0 C171.03 40.33, 204.06 80.66, 274.77 167 M138 0 C170.55 39.75, 203.11 79.5, 274.77 167 M274.77 167 C230.15 221.46, 185.54 275.93, 138 333.97 M274.77 167 C237.49 212.51, 200.21 258.02, 138 333.97 M138 333.97 C101.45 289.74, 64.9 245.52, 0 167 M138 333.97 C91.63 277.86, 45.26 221.76, 0 167 M0 167 C44.41 113.26, 88.82 59.51, 138 0 M0 167 C44.53 113.12, 89.05 59.23, 138 0" stroke="#1e1e1e" stroke-width="2" fill="none"></path></g><g stroke-linecap="round" transform="translate(162.6174482568726 143.18902069712084) rotate(308.8746558280798 137.38255174312746 166.98332590662145)"><path d="M138 0 C169.24 38.14, 200.48 76.29, 274.77 167 M138 0 C165.66 33.78, 193.32 67.55, 274.77 167 M274.77 167 C232.41 218.71, 190.05 270.42, 138 333.97 M274.77 167 C242.11 206.86, 209.46 246.73, 138 333.97 M138 333.97 C101.48 289.78, 64.95 245.59, 0 167 M138 333.97 C99.07 286.86, 60.13 239.75, 0 167 M0 167 C55.17 100.24, 110.33 33.48, 138 0 M0 167 C42.71 115.31, 85.43 63.62, 138 0" stroke="#1e1e1e" stroke-width="2" fill="none"></path></g><g stroke-linecap="round" transform="translate(162.6174482568726 125.44996525689129) rotate(308.8746558280798 137.38255174312746 166.98332590662145)"><path d="M138 0 C172.1 41.63, 206.19 83.27, 274.77 167 M138 0 C178.62 49.6, 219.24 99.2, 274.77 167 M274.77 167 C245.38 202.87, 216 238.74, 138 333.97 M274.77 167 C225.41 227.25, 176.06 287.5, 138 333.97 M138 333.97 C88.3 273.83, 38.59 213.69, 0 167 M138 333.97 C103.08 291.71, 68.15 249.46, 0 167 M0 167 C39.02 119.79, 78.03 72.57, 138 0 M0 167 C31.75 128.57, 63.51 90.14, 138 0" stroke="#1e1e1e" stroke-width="2" fill="none"></path></g><g stroke-linecap="round" transform="translate(162.6174482568726 107.71090981666168) rotate(308.8746558280798 137.38255174312746 166.98332590662145)"><path d="M138 0 C171.39 40.77, 204.77 81.53, 274.77 167 M138 0 C167.33 35.81, 196.65 71.62, 274.77 167 M274.77 167 C221.69 231.8, 168.61 296.59, 138 333.97 M274.77 167 C244.72 203.68, 214.68 240.35, 138 333.97 M138 333.97 C101.89 290.27, 65.77 246.58, 0 167 M138 333.97 C83.73 268.31, 29.47 202.65, 0 167 M0 167 C33.83 126.06, 67.67 85.11, 138 0 M0 167 C39.17 119.6, 78.33 72.21, 138 0" stroke="#1e1e1e" stroke-width="2" fill="none"></path></g><g stroke-linecap="round" transform="translate(162.6174482568726 89.97185437643208) rotate(308.8746558280798 137.38255174312746 166.98332590662145)"><path d="M138 0 C173.08 42.83, 208.15 85.66, 274.77 167 M138 0 C168.69 37.47, 199.37 74.94, 274.77 167 M274.77 167 C241.79 207.26, 208.81 247.52, 138 333.97 M274.77 167 C230.3 221.29, 185.83 275.57, 138 333.97 M138 333.97 C109.02 298.91, 80.05 263.85, 0 167 M138 333.97 C89.07 274.77, 40.15 215.58, 0 167 M0 167 C38.09 120.9, 76.18 74.81, 138 0 M0 167 C28.07 133.03, 56.15 99.05, 138 0" stroke="#1e1e1e" stroke-width="2" fill="none"></path></g><g stroke-linecap="round" transform="translate(1902.6174482568726 158.66713157758022) rotate(308.8746558280798 137.38255174312746 166.98332590662145)"><path d="M138 0 C180.07 51.37, 222.13 102.73, 274.77 167 M138 0 C181.14 52.68, 224.29 105.37, 274.77 167 M274.77 167 C231.37 219.97, 187.98 272.95, 138 333.97 M274.77 167 C244.92 203.43, 215.08 239.87, 138 333.97 M138 333.97 C99.23 287.06, 60.46 240.16, 0 167 M138 333.97 C89.57 275.38, 41.15 216.79, 0 167 M0 167 C32 128.27, 64 89.55, 138 0 M0 167 C49.56 107.03, 99.12 47.06, 138 0" stroke="#1e1e1e" stroke-width="1" fill="none"></path></g><g stroke-linecap="round" transform="translate(1902.6174482568726 140.92807613735067) rotate(308.8746558280798 137.38255174312746 166.98332590662145)"><path d="M138 0 C185.31 57.76, 232.61 115.53, 274.77 167 M138 0 C189.38 62.74, 240.76 125.48, 274.77 167 M274.77 167 C225.28 227.41, 175.8 287.82, 138 333.97 M274.77 167 C235.79 214.58, 196.81 262.17, 138 333.97 M138 333.97 C109.29 299.22, 80.57 264.48, 0 167 M138 333.97 C108.65 298.46, 79.3 262.95, 0 167 M0 167 C48.42 108.4, 96.85 49.8, 138 0 M0 167 C34.02 125.84, 68.03 84.67, 138 0" stroke="#1e1e1e" stroke-width="1" fill="none"></path></g><g stroke-linecap="round" transform="translate(1902.6174482568726 123.1890206971209) rotate(308.8746558280798 137.38255174312746 166.98332590662145)"><path d="M138 0 C185.03 57.43, 232.07 114.86, 274.77 167 M138 0 C175.55 45.85, 213.1 91.71, 274.77 167 M274.77 167 C242.05 206.94, 209.33 246.88, 138 333.97 M274.77 167 C225.71 226.88, 176.66 286.77, 138 333.97 M138 333.97 C97.15 284.54, 56.3 235.12, 0 167 M138 333.97 C93.86 280.56, 49.72 227.16, 0 167 M0 167 C50.13 106.34, 100.25 45.68, 138 0 M0 167 C46.66 110.54, 93.32 54.07, 138 0" stroke="#1e1e1e" stroke-width="1" fill="none"></path></g><g stroke-linecap="round" transform="translate(1902.6174482568726 105.44996525689135) rotate(308.8746558280798 137.38255174312746 166.98332590662145)"><path d="M138 0 C171.43 40.82, 204.86 81.64, 274.77 167 M138 0 C175.15 45.37, 212.31 90.73, 274.77 167 M274.77 167 C240.55 208.77, 206.34 250.53, 138 333.97 M274.77 167 C245.24 203.05, 215.71 239.1, 138 333.97 M138 333.97 C103.07 291.7, 68.13 249.43, 0 167 M138 333.97 C94.35 281.15, 50.69 228.33, 0 167 M0 167 C32.46 127.72, 64.91 88.45, 138 0 M0 167 C40.72 117.73, 81.43 68.46, 138 0" stroke="#1e1e1e" stroke-width="1" fill="none"></path></g><g stroke-linecap="round" transform="translate(1902.6174482568726 87.71090981666157) rotate(308.8746558280798 137.38255174312746 166.98332590662145)"><path d="M138 0 C181.76 53.44, 225.53 106.88, 274.77 167 M138 0 C168.33 37.03, 198.66 74.06, 274.77 167 M274.77 167 C223.49 229.6, 172.21 292.21, 138 333.97 M274.77 167 C236.64 213.54, 198.51 260.09, 138 333.97 M138 333.97 C107.97 297.63, 77.93 261.29, 0 167 M138 333.97 C90.9 276.98, 43.8 219.99, 0 167 M0 167 C43.15 114.78, 86.3 62.57, 138 0 M0 167 C44.67 112.94, 89.34 58.88, 138 0" stroke="#1e1e1e" stroke-width="1" fill="none"></path></g><g stroke-linecap="round" transform="translate(1902.6174482568726 69.97185437643202) rotate(308.8746558280798 137.38255174312746 166.98332590662145)"><path d="M138 0 C168.47 37.21, 198.94 74.41, 274.77 167 M138 0 C182.45 54.28, 226.9 108.56, 274.77 167 M274.77 167 C230.51 221.03, 186.25 275.06, 138 333.97 M274.77 167 C224.9 227.87, 175.04 288.74, 138 333.97 M138 333.97 C109.39 299.35, 80.78 264.74, 0 167 M138 333.97 C85.65 270.63, 33.3 207.29, 0 167 M0 167 C51.25 104.99, 102.49 42.97, 138 0 M0 167 C44.96 112.59, 89.92 58.18, 138 0" stroke="#1e1e1e" stroke-width="1" fill="none"></path></g><g stroke-linecap="round"><g transform="translate(2090 250) rotate(0 100 0)"><path d="M0 0 C78.77 0, 157.54 0, 200 0 M0 0 C48.64 0, 97.29 0, 200 0" stroke="#1e1e1e" stroke-width="1" fill="none"></path></g></g><mask></mask><g stroke-linecap="round"><g transform="translate(2130 450) rotate(0 100 0)"><path d="M0 0 C79.19 0, 158.37 0, 200 0 M0 0 C55.01 0, 110.02 0, 200 0" stroke="#1e1e1e" stroke-width="1" fill="none"></path></g></g><mask></mask><g stroke-linecap="round"><g transform="translate(2130 450) rotate(0 -20 -100)"><path d="M0 0 C-9.85 -49.25, -19.7 -98.51, -40 -200 M0 0 C-12.82 -64.12, -25.65 -128.24, -40 -200" stroke="#1e1e1e" stroke-width="1" fill="none"></path></g></g><mask></mask><g stroke-linecap="round"><g transform="translate(2330 450) rotate(0 -20 -100)"><path d="M0 0 C-15.97 -79.85, -31.94 -159.7, -40 -200 M0 0 C-13.58 -67.89, -27.16 -135.78, -40 -200" stroke="#1e1e1e" stroke-width="1" fill="none"></path></g></g><mask></mask><g stroke-linecap="round"><g transform="translate(2190 170) rotate(0 -20 -60)"><path d="M0 0 C-14.49 -43.48, -28.98 -86.95, -40 -120 M0 0 C-13.89 -41.67, -27.78 -83.35, -40 -120" stroke="#1e1e1e" stroke-width="1" fill="none"></path></g></g><mask></mask><g stroke-linecap="round"><g transform="translate(2170 170) rotate(0 -20 -60)"><path d="M0 0 C-13.54 -40.61, -27.07 -81.22, -40 -120 M0 0 C-10.01 -30.02, -20.02 -60.05, -40 -120" stroke="#1e1e1e" stroke-width="1" fill="none"></path></g></g><mask></mask><g stroke-linecap="round"><g transform="translate(2130 50) rotate(0 10 0)"><path d="M0 0 C4.91 0, 9.82 0, 20 0 M0 0 C5.81 0, 11.62 0, 20 0" stroke="#1e1e1e" stroke-width="1" fill="none"></path></g></g><mask></mask><g stroke-linecap="round"><g transform="translate(2130 50) rotate(0 0 90)"><path d="M0 0 C0 51.33, 0 102.66, 0 180 M0 0 C0 49.11, 0 98.22, 0 180" stroke="#1e1e1e" stroke-width="1" fill="none"></path></g></g><mask></mask><g stroke-linecap="round"><g transform="translate(2210 350) rotate(0 40 0)"><path d="M0 0 C13.33 0, 66.67 0, 80 0 M0 0 C13.33 0, 66.67 0, 80 0" stroke="#1e1e1e" stroke-width="1" fill="none"></path></g><g transform="translate(2210 350) rotate(0 40 0)"><path d="M56.51 8.55 C64.25 5.73, 71.99 2.91, 80 0 M56.51 8.55 C64.49 5.64, 72.48 2.74, 80 0" stroke="#1e1e1e" stroke-width="1" fill="none"></path></g><g transform="translate(2210 350) rotate(0 40 0)"><path d="M56.51 -8.55 C64.25 -5.73, 71.99 -2.91, 80 0 M56.51 -8.55 C64.49 -5.64, 72.48 -2.74, 80 0" stroke="#1e1e1e" stroke-width="1" fill="none"></path></g></g><mask></mask><g stroke-linecap="round" transform="translate(2170 170) rotate(0 10 130)"><path d="M0 0 L20 0 L20 260 L0 260" stroke="none" stroke-width="0" fill="#e9ecef"></path><path d="M0 0 C5.79 0, 11.58 0, 20 0 M0 0 C7.23 0, 14.46 0, 20 0 M20 0 C20 75.62, 20 151.24, 20 260 M20 0 C20 71.87, 20 143.74, 20 260 M20 260 C13.01 260, 6.02 260, 0 260 M20 260 C12.72 260, 5.45 260, 0 260 M0 260 C0 179.35, 0 98.69, 0 0 M0 260 C0 169.38, 0 78.75, 0 0" stroke="#1e1e1e" stroke-width="1" fill="none"></path></g><g stroke-linecap="round" transform="translate(1190 50) rotate(0 10 90)"><path d="M0 0 L20 0 L20 180 L0 180" stroke="none" stroke-width="0" fill="#e9ecef"></path><path d="M0 0 C4.17 0, 8.35 0, 20 0 M0 0 C6.24 0, 12.48 0, 20 0 M20 0 C20 49.48, 20 98.96, 20 180 M20 0 C20 38.17, 20 76.34, 20 180 M20 180 C12.97 180, 5.95 180, 0 180 M20 180 C14.31 180, 8.61 180, 0 180 M0 180 C0 125.61, 0 71.22, 0 0 M0 180 C0 139.63, 0 99.26, 0 0" stroke="transparent" stroke-width="1" fill="none"></path></g><g stroke-linecap="round" transform="translate(962.6174482568726 158.6671315775801) rotate(308.8746558280798 137.38255174312746 166.98332590662145)"><path d="M138 0 C176.49 46.99, 214.97 93.99, 274.77 167 M138 0 C174.75 44.87, 211.5 89.75, 274.77 167 M274.77 167 C228.55 223.42, 182.34 279.83, 138 333.97 M274.77 167 C236.9 213.23, 199.03 259.46, 138 333.97 M138 333.97 C107.05 296.52, 76.1 259.07, 0 167 M138 333.97 C105.47 294.61, 72.95 255.26, 0 167 M0 167 C34.1 125.74, 68.19 84.48, 138 0 M0 167 C44.47 113.18, 88.94 59.37, 138 0" stroke="#1e1e1e" stroke-width="1" fill="none"></path></g><g stroke-linecap="round" transform="translate(962.6174482568726 140.92807613735056) rotate(308.8746558280798 137.38255174312746 166.98332590662145)"><path d="M138 0 C176.62 47.16, 215.24 94.31, 274.77 167 M138 0 C190.54 64.16, 243.08 128.31, 274.77 167 M274.77 167 C245.2 203.09, 215.64 239.19, 138 333.97 M274.77 167 C246.09 202.01, 217.41 237.02, 138 333.97 M138 333.97 C100.76 288.91, 63.52 243.85, 0 167 M138 333.97 C87.14 272.44, 36.29 210.91, 0 167 M0 167 C33.41 126.56, 66.83 86.13, 138 0 M0 167 C37.34 121.82, 74.67 76.63, 138 0" stroke="#1e1e1e" stroke-width="1" fill="none"></path></g><g stroke-linecap="round" transform="translate(962.6174482568726 123.1890206971209) rotate(308.8746558280798 137.38255174312746 166.98332590662145)"><path d="M138 0 C165.68 33.8, 193.37 67.61, 274.77 167 M138 0 C182.84 54.76, 227.69 109.52, 274.77 167 M274.77 167 C244.99 203.35, 215.22 239.69, 138 333.97 M274.77 167 C235.42 215.04, 196.07 263.07, 138 333.97 M138 333.97 C101.69 290.03, 65.37 246.09, 0 167 M138 333.97 C107.89 297.54, 77.79 261.12, 0 167 M0 167 C38.6 120.29, 77.19 73.59, 138 0 M0 167 C43.06 114.89, 86.11 62.79, 138 0" stroke="#1e1e1e" stroke-width="1" fill="none"></path></g><g stroke-linecap="round" transform="translate(962.6174482568726 105.44996525689135) rotate(308.8746558280798 137.38255174312746 166.98332590662145)"><path d="M138 0 C169.13 38.02, 200.27 76.03, 274.77 167 M138 0 C172.05 41.57, 206.09 83.15, 274.77 167 M274.77 167 C234.32 216.37, 193.88 265.75, 138 333.97 M274.77 167 C244.98 203.36, 215.19 239.73, 138 333.97 M138 333.97 C100.11 288.12, 62.21 242.27, 0 167 M138 333.97 C96.69 283.99, 55.38 234.01, 0 167 M0 167 C41.03 117.34, 82.06 67.69, 138 0 M0 167 C30.24 130.41, 60.48 93.82, 138 0" stroke="#1e1e1e" stroke-width="1" fill="none"></path></g><g stroke-linecap="round" transform="translate(962.6174482568726 87.71090981666168) rotate(308.8746558280798 137.38255174312746 166.98332590662145)"><path d="M138 0 C177.59 48.34, 217.17 96.67, 274.77 167 M138 0 C168.92 37.75, 199.84 75.51, 274.77 167 M274.77 167 C220.22 233.59, 165.67 300.18, 138 333.97 M274.77 167 C221.9 231.54, 169.04 296.07, 138 333.97 M138 333.97 C107.64 297.24, 77.29 260.51, 0 167 M138 333.97 C88.82 274.46, 39.63 214.95, 0 167 M0 167 C45.27 112.21, 90.55 57.42, 138 0 M0 167 C47.48 109.54, 94.96 52.08, 138 0" stroke="#1e1e1e" stroke-width="1" fill="none"></path></g><g stroke-linecap="round" transform="translate(962.6174482568726 69.97185437643213) rotate(308.8746558280798 137.38255174312746 166.98332590662145)"><path d="M138 0 C167.34 35.82, 196.68 71.65, 274.77 167 M138 0 C181.46 53.06, 224.91 106.12, 274.77 167 M274.77 167 C244.55 203.89, 214.33 240.78, 138 333.97 M274.77 167 C232.34 218.79, 189.92 270.58, 138 333.97 M138 333.97 C108.97 298.84, 79.94 263.72, 0 167 M138 333.97 C108.54 298.32, 79.08 262.68, 0 167 M0 167 C34.52 125.22, 69.05 83.44, 138 0 M0 167 C37.09 122.12, 74.18 77.23, 138 0" stroke="#1e1e1e" stroke-width="1" fill="none"></path></g><g stroke-linecap="round"><g transform="translate(1250 170) rotate(0 -20 -60)"><path d="M0 0 C-11.83 -35.49, -23.66 -70.97, -40 -120 M0 0 C-8.71 -26.13, -17.42 -52.27, -40 -120" stroke="#1e1e1e" stroke-width="1" fill="none"></path></g></g><mask></mask><g stroke-linecap="round"><g transform="translate(1230 170) rotate(0 -20 -60)"><path d="M0 0 C-15.95 -47.86, -31.91 -95.72, -40 -120 M0 0 C-15.46 -46.38, -30.92 -92.77, -40 -120" stroke="#1e1e1e" stroke-width="1" fill="none"></path></g></g><mask></mask><g stroke-linecap="round"><g transform="translate(1190 50) rotate(0 10 0)"><path d="M0 0 C4.42 0, 8.84 0, 20 0 M0 0 C6.2 0, 12.41 0, 20 0" stroke="#1e1e1e" stroke-width="1" fill="none"></path></g></g><mask></mask><g stroke-linecap="round"><g transform="translate(1190 50) rotate(0 0 90)"><path d="M0 0 C0 63.23, 0 126.45, 0 180 M0 0 C0 51.24, 0 102.49, 0 180" stroke="#1e1e1e" stroke-width="1" fill="none"></path></g></g><mask></mask><g stroke-linecap="round" transform="translate(1230 170) rotate(0 10 130)"><path d="M0 0 L20 0 L20 260 L0 260" stroke="none" stroke-width="0" fill="#e9ecef"></path><path d="M0 0 C4.21 0, 8.41 0, 20 0 M0 0 C4.27 0, 8.54 0, 20 0 M20 0 C20 65.05, 20 130.09, 20 260 M20 0 C20 69.88, 20 139.76, 20 260 M20 260 C14.94 260, 9.87 260, 0 260 M20 260 C13.06 260, 6.12 260, 0 260 M0 260 C0 200.89, 0 141.79, 0 0 M0 260 C0 182.4, 0 104.8, 0 0" stroke="#1e1e1e" stroke-width="1" fill="none"></path></g><g stroke-linecap="round" transform="translate(890 10) rotate(0 300 290)"><path d="M32 0 C229.35 -0.89, 426.87 -0.11, 568 0 M32 0 C245.37 0.14, 459.08 0.23, 568 0 M568 0 C588.66 -0.5, 598.54 10.82, 600 32 M568 0 C590.71 -1.57, 598.02 11.01, 600 32 M600 32 C601.46 169.8, 601.2 307.88, 600 548 M600 32 C601.86 144.98, 602.14 257.78, 600 548 M600 548 C601.82 567.99, 590.16 579.05, 568 580 M600 548 C599.68 568.1, 590.52 580.71, 568 580 M568 580 C385.01 581.37, 201.16 582.54, 32 580 M568 580 C422.63 578.56, 277.55 578.81, 32 580 M32 580 C10.17 579.94, 0.5 569.91, 0 548 M32 580 C12.59 580.03, -2.2 569.97, 0 548 M0 548 C-0.79 358.07, -1.77 167.58, 0 32 M0 548 C-0.8 342.95, -0.77 138.62, 0 32 M0 32 C0.92 9.72, 10.03 -0.32, 32 0 M0 32 C1.31 11.9, 9.3 0.56, 32 0" stroke="#1e1e1e" stroke-width="4" fill="none"></path></g><g stroke-linecap="round" transform="translate(2750 10) rotate(0 292.7844030269234 290)"><path d="M366.25 72.75 C410.96 117.14, 458.57 161.44, 512.32 218.25 M366.25 72.75 C405.83 114.56, 447.46 152.96, 512.32 218.25 M512.32 218.25 C585.77 290.08, 584.35 289.71, 512.32 363.75 M512.32 218.25 C585.34 291.82, 584.1 288.79, 512.32 363.75 M512.32 363.75 C476.3 399.48, 440.87 434.55, 366.25 507.25 M512.32 363.75 C463.82 410.36, 417.28 457.34, 366.25 507.25 M366.25 507.25 C291.16 581.62, 292.48 579.35, 219.75 507.25 M366.25 507.25 C291.77 582.2, 292.92 582.09, 219.75 507.25 M219.75 507.25 C184.4 474.35, 149.15 436.69, 73.25 363.75 M219.75 507.25 C163.44 450.48, 104.61 393.76, 73.25 363.75 M73.25 363.75 C1.96 289.81, 1.86 289.83, 73.25 218.25 M73.25 363.75 C-2.01 293.27, 1.73 292.49, 73.25 218.25 M73.25 218.25 C118.09 175.08, 162.31 133.51, 219.75 72.75 M73.25 218.25 C108.62 183.43, 144.67 148.35, 219.75 72.75 M219.75 72.75 C292.07 1.15, 292.64 0.94, 366.25 72.75 M219.75 72.75 C291.51 1.14, 293.68 -0.13, 366.25 72.75" stroke="#1e1e1e" stroke-width="4" fill="none"></path></g><g stroke-linecap="round" transform="translate(2897.82818122506 98.47260385756624) rotate(308.8746558280798 154.89274748142884 188.2663104236401)"><path d="M155 0 C199.86 54.78, 244.73 109.56, 309.79 189 M155 0 C190.23 43.02, 225.47 86.04, 309.79 189 M309.79 189 C272.82 233.79, 235.85 278.57, 155 376.53 M309.79 189 C275.93 230.02, 242.07 271.04, 155 376.53 M155 376.53 C111.76 324.22, 68.52 271.9, 0 189 M155 376.53 C95.91 305.04, 36.81 233.54, 0 189 M0 189 C37.24 143.59, 74.47 98.19, 155 0 M0 189 C61.04 114.57, 122.08 40.14, 155 0" stroke="#1e1e1e" stroke-width="2" fill="none"></path></g><g stroke-linecap="round" transform="translate(2490 250) rotate(0 100 50)"><path d="M25 0 C81.61 1.97, 134.02 -2.07, 175 0 C191.91 0.17, 201.21 4.77, 200 25 C197.26 39.13, 201.94 55.58, 200 75 C196.65 90.55, 191.16 99.53, 175 100 C143.82 99.55, 105.48 101.02, 25 100 C5.78 103.34, -2.87 94.25, 0 75 C3.42 57.24, -0.33 43.65, 0 25 C-1.1 9.36, 7.55 0.62, 25 0" stroke="none" stroke-width="0" fill="#1e1e1e"></path><path d="M25 0 C75.4 -0.22, 123.35 -0.79, 175 0 M25 0 C83.8 0.17, 141.59 -0.28, 175 0 M175 0 C192.03 1.61, 200.43 7.44, 200 25 M175 0 C190.5 -1.68, 200.02 9.33, 200 25 M200 25 C200.62 35.25, 198.26 48.01, 200 75 M200 25 C200.52 41.96, 200.35 59.66, 200 75 M200 75 C198.88 93.19, 190.07 99.6, 175 100 M200 75 C198.81 92.5, 193.38 100.44, 175 100 M175 100 C137.91 97.96, 100.72 100.91, 25 100 M175 100 C117.52 99.65, 59.97 101.01, 25 100 M25 100 C8.93 100.45, 1.72 93.19, 0 75 M25 100 C8.41 99.53, 0.61 93.59, 0 75 M0 75 C-1.19 57.03, -0.06 40.86, 0 25 M0 75 C0.06 63.04, -0.46 49.3, 0 25 M0 25 C-0.9 8.64, 7.51 -0.94, 25 0 M0 25 C-0.79 9.03, 7.64 0.57, 25 0" stroke="#1e1e1e" stroke-width="1" fill="none"></path></g><g stroke-linecap="round" transform="translate(2630 250) rotate(0 50 50)"><path d="M63.75 12.75 C71.47 16.68, 77.07 26.62, 87.25 38.25 C101.21 47.43, 100.51 51.72, 87.25 63.75 C82 69.38, 70.24 75.77, 63.75 87.25 C50.49 99.53, 48.23 102.3, 38.25 87.25 C26.41 78.4, 17.51 73.84, 12.75 63.75 C-2.87 53.58, -0.59 50.51, 12.75 38.25 C21.56 26.02, 30.59 20.37, 38.25 12.75 C50.22 0.62, 49.2 -0.29, 63.75 12.75" stroke="none" stroke-width="0" fill="#1e1e1e"></path><path d="M63.75 12.75 C70.76 20.1, 80.35 28.71, 87.25 38.25 M63.75 12.75 C70.42 20.4, 78.49 29.22, 87.25 38.25 M87.25 38.25 C100.43 50.1, 98.99 49.54, 87.25 63.75 M87.25 38.25 C100.02 52, 98.16 49.42, 87.25 63.75 M87.25 63.75 C80.19 70.44, 76.69 75.89, 63.75 87.25 M87.25 63.75 C79.65 71.86, 71.06 80.18, 63.75 87.25 M63.75 87.25 C49.41 99.6, 49.96 100.73, 38.25 87.25 M63.75 87.25 C52.71 100.44, 49.66 100.74, 38.25 87.25 M38.25 87.25 C30.54 83.37, 27.95 73.99, 12.75 63.75 M38.25 87.25 C31.29 81.04, 23.05 73.19, 12.75 63.75 M12.75 63.75 C1.72 52.52, 0.06 50.59, 12.75 38.25 M12.75 63.75 C0.61 52.92, 1.09 51.43, 12.75 38.25 M12.75 38.25 C19.34 32.52, 24.9 23.58, 38.25 12.75 M12.75 38.25 C21.23 28.88, 31.04 19.52, 38.25 12.75 M38.25 12.75 C50.17 -0.94, 50.31 0.61, 63.75 12.75 M38.25 12.75 C50.3 0.57, 52.38 -1.3, 63.75 12.75" stroke="#1e1e1e" stroke-width="1" fill="none"></path></g><g stroke-linecap="round" transform="translate(910 440) rotate(0 50 5)"><path d="M0 0 L100 0 L100 10 L0 10" stroke="none" stroke-width="0" fill="#b2f2bb"></path><path d="M0 0 C24.64 0, 49.28 0, 100 0 M0 0 C21.37 0, 42.74 0, 100 0 M100 0 C100 3.3, 100 6.59, 100 10 M100 0 C100 2.86, 100 5.73, 100 10 M100 10 C77.05 10, 54.09 10, 0 10 M100 10 C60.01 10, 20.01 10, 0 10 M0 10 C0 7.12, 0 4.25, 0 0 M0 10 C0 6.34, 0 2.67, 0 0" stroke="#1e1e1e" stroke-width="1" fill="none"></path></g><g stroke-linecap="round" transform="translate(962.6174482568726 169.97185437643213) rotate(308.8746558280798 137.38255174312746 166.98332590662145)"><path d="M138 0 C192.7 66.79, 247.39 133.58, 274.77 167 M138 0 C177.34 48.03, 216.67 96.06, 274.77 167 M274.77 167 C224.65 228.19, 174.53 289.37, 138 333.97 M274.77 167 C229.78 221.92, 184.79 276.85, 138 333.97 M138 333.97 C98.89 286.65, 59.78 239.33, 0 167 M138 333.97 C107.06 296.53, 76.12 259.1, 0 167 M0 167 C51.24 104.99, 102.48 42.99, 138 0 M0 167 C34.81 124.88, 69.61 82.76, 138 0" stroke="#1e1e1e" stroke-width="1" fill="none"></path></g><g stroke-linecap="round" transform="translate(1950 440) rotate(0 50 5)"><path d="M0 0 L100 0 L100 10 L0 10" stroke="none" stroke-width="0" fill="#ffc9c9"></path><path d="M0 0 C20.21 0, 40.42 0, 100 0 M100 0 C100 3.86, 100 7.73, 100 10 M100 10 C65 10, 30 10, 0 10 M0 10 C0 6.5, 0 3.01, 0 0" stroke="#1e1e1e" stroke-width="1.5" fill="none" stroke-dasharray="8 9"></path></g><g stroke-linecap="round"><g transform="translate(1010 440.20764597684695) rotate(0 -20 -100)"><path d="M0 0 C-10.18 -50.89, -20.36 -101.78, -40 -200 M0 0 C-15.35 -76.76, -30.7 -153.52, -40 -200" stroke="#1e1e1e" stroke-width="1" fill="none"></path></g></g><mask></mask><g stroke-linecap="round"><g transform="translate(910.058782610987 439.969973081709) rotate(0 -10.296667377057446 -50.14801588212998)"><path d="M0 0 C-5.02 -24.44, -10.04 -48.88, -20.59 -100.3 M0 0 C-5.05 -24.62, -10.11 -49.23, -20.59 -100.3" stroke="#1e1e1e" stroke-width="1" fill="none"></path></g></g><mask></mask><g stroke-linecap="round"><g transform="translate(910 450) rotate(0 -10 -50)"><path d="M0 0 C-7.54 -37.68, -15.07 -75.36, -20 -100 M0 0 C-7.77 -38.85, -15.54 -77.71, -20 -100" stroke="#1e1e1e" stroke-width="1" fill="none"></path></g></g><mask></mask><g stroke-linecap="round"><g transform="translate(2050 440.20764597684695) rotate(0 -20 -100)"><path d="M0 0 C-13.66 -68.31, -27.32 -136.62, -40 -200" stroke="#1e1e1e" stroke-width="1.5" fill="none" stroke-dasharray="8 9"></path></g></g><mask></mask><g stroke-linecap="round" transform="translate(1010 450) rotate(0 40 30)"><path d="M0 0 L80 0 L80 60 L0 60" stroke="none" stroke-width="0" fill="#e9ecef"></path><path d="M0 0 C25.93 0, 51.86 0, 80 0 M0 0 C20.56 0, 41.13 0, 80 0 M80 0 C80 17.88, 80 35.76, 80 60 M80 0 C80 17.86, 80 35.72, 80 60 M80 60 C48.9 60, 17.8 60, 0 60 M80 60 C58.99 60, 37.97 60, 0 60 M0 60 C0 46, 0 32.01, 0 0 M0 60 C0 39.38, 0 18.77, 0 0" stroke="#1e1e1e" stroke-width="1" fill="none"></path></g></svg>