<?xml version="1.0" encoding="utf-8" standalone="no"?>
<!DOCTYPE svg PUBLIC "-//W3C//DTD SVG 1.1//EN"
  "http://www.w3.org/Graphics/SVG/1.1/DTD/svg11.dtd">
<svg xmlns:xlink="http://www.w3.org/1999/xlink" width="777.6pt" height="636.48pt" viewBox="0 0 777.6 636.48" xmlns="http://www.w3.org/2000/svg" version="1.1">
 <metadata>
  <rdf:RDF xmlns:dc="http://purl.org/dc/elements/1.1/" xmlns:cc="http://creativecommons.org/ns#" xmlns:rdf="http://www.w3.org/1999/02/22-rdf-syntax-ns#">
   <cc:Work>
    <dc:type rdf:resource="http://purl.org/dc/dcmitype/StillImage"/>
    <dc:date>2024-11-28T01:27:58.488430</dc:date>
    <dc:format>image/svg+xml</dc:format>
    <dc:creator>
     <cc:Agent>
      <dc:title>Matplotlib v3.9.2, https://matplotlib.org/</dc:title>
     </cc:Agent>
    </dc:creator>
   </cc:Work>
  </rdf:RDF>
 </metadata>
 <defs>
  <style type="text/css">*{stroke-linejoin: round; stroke-linecap: butt}</style>
 </defs>
 <g id="figure_1">
  <g id="patch_1">
   <path d="M 0 636.48 
L 777.6 636.48 
L 777.6 0 
L 0 0 
z
" style="fill: #ffffff"/>
  </g>
  <g id="axes_1">
   <g id="patch_2">
    <path d="M 50.105209 594.52 
L 766.8 594.52 
L 766.8 25.44 
L 50.105209 25.44 
z
" style="fill: #ffffff"/>
   </g>
   <g id="matplotlib.axis_1">
    <g id="xtick_1">
     <g id="line2d_1">
      <path d="M 50.105209 594.52 
L 50.105209 25.44 
" clip-path="url(#p2660cfcaf1)" style="fill: none; stroke: #b0b0b0; stroke-width: 0.8; stroke-linecap: square"/>
     </g>
     <g id="line2d_2">
      <defs>
       <path id="m633ffb6316" d="M 0 0 
L 0 3.5 
" style="stroke: #000000; stroke-width: 0.8"/>
      </defs>
      <g>
       <use xlink:href="#m633ffb6316" x="50.105209" y="594.52" style="stroke: #000000; stroke-width: 0.8"/>
      </g>
     </g>
     <g id="text_1">
      <!-- 100 -->
      <g transform="translate(40.561459 609.118438) scale(0.1 -0.1)">
       <defs>
        <path id="DejaVuSans-31" d="M 794 531 
L 1825 531 
L 1825 4091 
L 703 3866 
L 703 4441 
L 1819 4666 
L 2450 4666 
L 2450 531 
L 3481 531 
L 3481 0 
L 794 0 
L 794 531 
z
" transform="scale(0.015625)"/>
        <path id="DejaVuSans-30" d="M 2034 4250 
Q 1547 4250 1301 3770 
Q 1056 3291 1056 2328 
Q 1056 1369 1301 889 
Q 1547 409 2034 409 
Q 2525 409 2770 889 
Q 3016 1369 3016 2328 
Q 3016 3291 2770 3770 
Q 2525 4250 2034 4250 
z
M 2034 4750 
Q 2819 4750 3233 4129 
Q 3647 3509 3647 2328 
Q 3647 1150 3233 529 
Q 2819 -91 2034 -91 
Q 1250 -91 836 529 
Q 422 1150 422 2328 
Q 422 3509 836 4129 
Q 1250 4750 2034 4750 
z
" transform="scale(0.015625)"/>
       </defs>
       <use xlink:href="#DejaVuSans-31"/>
       <use xlink:href="#DejaVuSans-30" x="63.623047"/>
       <use xlink:href="#DejaVuSans-30" x="127.246094"/>
      </g>
     </g>
    </g>
    <g id="xtick_2">
     <g id="line2d_3">
      <path d="M 139.692058 594.52 
L 139.692058 25.44 
" clip-path="url(#p2660cfcaf1)" style="fill: none; stroke: #b0b0b0; stroke-width: 0.8; stroke-linecap: square"/>
     </g>
     <g id="line2d_4">
      <g>
       <use xlink:href="#m633ffb6316" x="139.692058" y="594.52" style="stroke: #000000; stroke-width: 0.8"/>
      </g>
     </g>
     <g id="text_2">
      <!-- 150 -->
      <g transform="translate(130.148308 609.118438) scale(0.1 -0.1)">
       <defs>
        <path id="DejaVuSans-35" d="M 691 4666 
L 3169 4666 
L 3169 4134 
L 1269 4134 
L 1269 2991 
Q 1406 3038 1543 3061 
Q 1681 3084 1819 3084 
Q 2600 3084 3056 2656 
Q 3513 2228 3513 1497 
Q 3513 744 3044 326 
Q 2575 -91 1722 -91 
Q 1428 -91 1123 -41 
Q 819 9 494 109 
L 494 744 
Q 775 591 1075 516 
Q 1375 441 1709 441 
Q 2250 441 2565 725 
Q 2881 1009 2881 1497 
Q 2881 1984 2565 2268 
Q 2250 2553 1709 2553 
Q 1456 2553 1204 2497 
Q 953 2441 691 2322 
L 691 4666 
z
" transform="scale(0.015625)"/>
       </defs>
       <use xlink:href="#DejaVuSans-31"/>
       <use xlink:href="#DejaVuSans-35" x="63.623047"/>
       <use xlink:href="#DejaVuSans-30" x="127.246094"/>
      </g>
     </g>
    </g>
    <g id="xtick_3">
     <g id="line2d_5">
      <path d="M 229.278907 594.52 
L 229.278907 25.44 
" clip-path="url(#p2660cfcaf1)" style="fill: none; stroke: #b0b0b0; stroke-width: 0.8; stroke-linecap: square"/>
     </g>
     <g id="line2d_6">
      <g>
       <use xlink:href="#m633ffb6316" x="229.278907" y="594.52" style="stroke: #000000; stroke-width: 0.8"/>
      </g>
     </g>
     <g id="text_3">
      <!-- 200 -->
      <g transform="translate(219.735157 609.118438) scale(0.1 -0.1)">
       <defs>
        <path id="DejaVuSans-32" d="M 1228 531 
L 3431 531 
L 3431 0 
L 469 0 
L 469 531 
Q 828 903 1448 1529 
Q 2069 2156 2228 2338 
Q 2531 2678 2651 2914 
Q 2772 3150 2772 3378 
Q 2772 3750 2511 3984 
Q 2250 4219 1831 4219 
Q 1534 4219 1204 4116 
Q 875 4013 500 3803 
L 500 4441 
Q 881 4594 1212 4672 
Q 1544 4750 1819 4750 
Q 2544 4750 2975 4387 
Q 3406 4025 3406 3419 
Q 3406 3131 3298 2873 
Q 3191 2616 2906 2266 
Q 2828 2175 2409 1742 
Q 1991 1309 1228 531 
z
" transform="scale(0.015625)"/>
       </defs>
       <use xlink:href="#DejaVuSans-32"/>
       <use xlink:href="#DejaVuSans-30" x="63.623047"/>
       <use xlink:href="#DejaVuSans-30" x="127.246094"/>
      </g>
     </g>
    </g>
    <g id="xtick_4">
     <g id="line2d_7">
      <path d="M 318.865756 594.52 
L 318.865756 25.44 
" clip-path="url(#p2660cfcaf1)" style="fill: none; stroke: #b0b0b0; stroke-width: 0.8; stroke-linecap: square"/>
     </g>
     <g id="line2d_8">
      <g>
       <use xlink:href="#m633ffb6316" x="318.865756" y="594.52" style="stroke: #000000; stroke-width: 0.8"/>
      </g>
     </g>
     <g id="text_4">
      <!-- 250 -->
      <g transform="translate(309.322006 609.118438) scale(0.1 -0.1)">
       <use xlink:href="#DejaVuSans-32"/>
       <use xlink:href="#DejaVuSans-35" x="63.623047"/>
       <use xlink:href="#DejaVuSans-30" x="127.246094"/>
      </g>
     </g>
    </g>
    <g id="xtick_5">
     <g id="line2d_9">
      <path d="M 408.452605 594.52 
L 408.452605 25.44 
" clip-path="url(#p2660cfcaf1)" style="fill: none; stroke: #b0b0b0; stroke-width: 0.8; stroke-linecap: square"/>
     </g>
     <g id="line2d_10">
      <g>
       <use xlink:href="#m633ffb6316" x="408.452605" y="594.52" style="stroke: #000000; stroke-width: 0.8"/>
      </g>
     </g>
     <g id="text_5">
      <!-- 300 -->
      <g transform="translate(398.908855 609.118438) scale(0.1 -0.1)">
       <defs>
        <path id="DejaVuSans-33" d="M 2597 2516 
Q 3050 2419 3304 2112 
Q 3559 1806 3559 1356 
Q 3559 666 3084 287 
Q 2609 -91 1734 -91 
Q 1441 -91 1130 -33 
Q 819 25 488 141 
L 488 750 
Q 750 597 1062 519 
Q 1375 441 1716 441 
Q 2309 441 2620 675 
Q 2931 909 2931 1356 
Q 2931 1769 2642 2001 
Q 2353 2234 1838 2234 
L 1294 2234 
L 1294 2753 
L 1863 2753 
Q 2328 2753 2575 2939 
Q 2822 3125 2822 3475 
Q 2822 3834 2567 4026 
Q 2313 4219 1838 4219 
Q 1578 4219 1281 4162 
Q 984 4106 628 3988 
L 628 4550 
Q 988 4650 1302 4700 
Q 1616 4750 1894 4750 
Q 2613 4750 3031 4423 
Q 3450 4097 3450 3541 
Q 3450 3153 3228 2886 
Q 3006 2619 2597 2516 
z
" transform="scale(0.015625)"/>
       </defs>
       <use xlink:href="#DejaVuSans-33"/>
       <use xlink:href="#DejaVuSans-30" x="63.623047"/>
       <use xlink:href="#DejaVuSans-30" x="127.246094"/>
      </g>
     </g>
    </g>
    <g id="xtick_6">
     <g id="line2d_11">
      <path d="M 498.039453 594.52 
L 498.039453 25.44 
" clip-path="url(#p2660cfcaf1)" style="fill: none; stroke: #b0b0b0; stroke-width: 0.8; stroke-linecap: square"/>
     </g>
     <g id="line2d_12">
      <g>
       <use xlink:href="#m633ffb6316" x="498.039453" y="594.52" style="stroke: #000000; stroke-width: 0.8"/>
      </g>
     </g>
     <g id="text_6">
      <!-- 350 -->
      <g transform="translate(488.495703 609.118438) scale(0.1 -0.1)">
       <use xlink:href="#DejaVuSans-33"/>
       <use xlink:href="#DejaVuSans-35" x="63.623047"/>
       <use xlink:href="#DejaVuSans-30" x="127.246094"/>
      </g>
     </g>
    </g>
    <g id="xtick_7">
     <g id="line2d_13">
      <path d="M 587.626302 594.52 
L 587.626302 25.44 
" clip-path="url(#p2660cfcaf1)" style="fill: none; stroke: #b0b0b0; stroke-width: 0.8; stroke-linecap: square"/>
     </g>
     <g id="line2d_14">
      <g>
       <use xlink:href="#m633ffb6316" x="587.626302" y="594.52" style="stroke: #000000; stroke-width: 0.8"/>
      </g>
     </g>
     <g id="text_7">
      <!-- 400 -->
      <g transform="translate(578.082552 609.118438) scale(0.1 -0.1)">
       <defs>
        <path id="DejaVuSans-34" d="M 2419 4116 
L 825 1625 
L 2419 1625 
L 2419 4116 
z
M 2253 4666 
L 3047 4666 
L 3047 1625 
L 3713 1625 
L 3713 1100 
L 3047 1100 
L 3047 0 
L 2419 0 
L 2419 1100 
L 313 1100 
L 313 1709 
L 2253 4666 
z
" transform="scale(0.015625)"/>
       </defs>
       <use xlink:href="#DejaVuSans-34"/>
       <use xlink:href="#DejaVuSans-30" x="63.623047"/>
       <use xlink:href="#DejaVuSans-30" x="127.246094"/>
      </g>
     </g>
    </g>
    <g id="xtick_8">
     <g id="line2d_15">
      <path d="M 677.213151 594.52 
L 677.213151 25.44 
" clip-path="url(#p2660cfcaf1)" style="fill: none; stroke: #b0b0b0; stroke-width: 0.8; stroke-linecap: square"/>
     </g>
     <g id="line2d_16">
      <g>
       <use xlink:href="#m633ffb6316" x="677.213151" y="594.52" style="stroke: #000000; stroke-width: 0.8"/>
      </g>
     </g>
     <g id="text_8">
      <!-- 450 -->
      <g transform="translate(667.669401 609.118438) scale(0.1 -0.1)">
       <use xlink:href="#DejaVuSans-34"/>
       <use xlink:href="#DejaVuSans-35" x="63.623047"/>
       <use xlink:href="#DejaVuSans-30" x="127.246094"/>
      </g>
     </g>
    </g>
    <g id="xtick_9">
     <g id="line2d_17">
      <path d="M 766.8 594.52 
L 766.8 25.44 
" clip-path="url(#p2660cfcaf1)" style="fill: none; stroke: #b0b0b0; stroke-width: 0.8; stroke-linecap: square"/>
     </g>
     <g id="line2d_18">
      <g>
       <use xlink:href="#m633ffb6316" x="766.8" y="594.52" style="stroke: #000000; stroke-width: 0.8"/>
      </g>
     </g>
     <g id="text_9">
      <!-- 500 -->
      <g transform="translate(757.25625 609.118438) scale(0.1 -0.1)">
       <use xlink:href="#DejaVuSans-35"/>
       <use xlink:href="#DejaVuSans-30" x="63.623047"/>
       <use xlink:href="#DejaVuSans-30" x="127.246094"/>
      </g>
     </g>
    </g>
    <g id="text_10">
     <!-- h [kJ/kg] -->
     <g transform="translate(387.669011 622.796563) scale(0.1 -0.1)">
      <defs>
       <path id="DejaVuSans-68" d="M 3513 2113 
L 3513 0 
L 2938 0 
L 2938 2094 
Q 2938 2591 2744 2837 
Q 2550 3084 2163 3084 
Q 1697 3084 1428 2787 
Q 1159 2491 1159 1978 
L 1159 0 
L 581 0 
L 581 4863 
L 1159 4863 
L 1159 2956 
Q 1366 3272 1645 3428 
Q 1925 3584 2291 3584 
Q 2894 3584 3203 3211 
Q 3513 2838 3513 2113 
z
" transform="scale(0.015625)"/>
       <path id="DejaVuSans-20" transform="scale(0.015625)"/>
       <path id="DejaVuSans-5b" d="M 550 4863 
L 1875 4863 
L 1875 4416 
L 1125 4416 
L 1125 -397 
L 1875 -397 
L 1875 -844 
L 550 -844 
L 550 4863 
z
" transform="scale(0.015625)"/>
       <path id="DejaVuSans-6b" d="M 581 4863 
L 1159 4863 
L 1159 1991 
L 2875 3500 
L 3609 3500 
L 1753 1863 
L 3688 0 
L 2938 0 
L 1159 1709 
L 1159 0 
L 581 0 
L 581 4863 
z
" transform="scale(0.015625)"/>
       <path id="DejaVuSans-4a" d="M 628 4666 
L 1259 4666 
L 1259 325 
Q 1259 -519 939 -900 
Q 619 -1281 -91 -1281 
L -331 -1281 
L -331 -750 
L -134 -750 
Q 284 -750 456 -515 
Q 628 -281 628 325 
L 628 4666 
z
" transform="scale(0.015625)"/>
       <path id="DejaVuSans-2f" d="M 1625 4666 
L 2156 4666 
L 531 -594 
L 0 -594 
L 1625 4666 
z
" transform="scale(0.015625)"/>
       <path id="DejaVuSans-67" d="M 2906 1791 
Q 2906 2416 2648 2759 
Q 2391 3103 1925 3103 
Q 1463 3103 1205 2759 
Q 947 2416 947 1791 
Q 947 1169 1205 825 
Q 1463 481 1925 481 
Q 2391 481 2648 825 
Q 2906 1169 2906 1791 
z
M 3481 434 
Q 3481 -459 3084 -895 
Q 2688 -1331 1869 -1331 
Q 1566 -1331 1297 -1286 
Q 1028 -1241 775 -1147 
L 775 -588 
Q 1028 -725 1275 -790 
Q 1522 -856 1778 -856 
Q 2344 -856 2625 -561 
Q 2906 -266 2906 331 
L 2906 616 
Q 2728 306 2450 153 
Q 2172 0 1784 0 
Q 1141 0 747 490 
Q 353 981 353 1791 
Q 353 2603 747 3093 
Q 1141 3584 1784 3584 
Q 2172 3584 2450 3431 
Q 2728 3278 2906 2969 
L 2906 3500 
L 3481 3500 
L 3481 434 
z
" transform="scale(0.015625)"/>
       <path id="DejaVuSans-5d" d="M 1947 4863 
L 1947 -844 
L 622 -844 
L 622 -397 
L 1369 -397 
L 1369 4416 
L 622 4416 
L 622 4863 
L 1947 4863 
z
" transform="scale(0.015625)"/>
      </defs>
      <use xlink:href="#DejaVuSans-68"/>
      <use xlink:href="#DejaVuSans-20" x="63.378906"/>
      <use xlink:href="#DejaVuSans-5b" x="95.166016"/>
      <use xlink:href="#DejaVuSans-6b" x="134.179688"/>
      <use xlink:href="#DejaVuSans-4a" x="192.089844"/>
      <use xlink:href="#DejaVuSans-2f" x="221.582031"/>
      <use xlink:href="#DejaVuSans-6b" x="255.273438"/>
      <use xlink:href="#DejaVuSans-67" x="313.183594"/>
      <use xlink:href="#DejaVuSans-5d" x="376.660156"/>
     </g>
    </g>
   </g>
   <g id="matplotlib.axis_2">
    <g id="ytick_1">
     <g id="line2d_19">
      <path d="M 50.105209 558.831519 
L 766.8 558.831519 
" clip-path="url(#p2660cfcaf1)" style="fill: none; stroke: #b0b0b0; stroke-width: 0.8; stroke-linecap: square"/>
     </g>
     <g id="line2d_20">
      <defs>
       <path id="mc2411df920" d="M 0 0 
L -3.5 0 
" style="stroke: #000000; stroke-width: 0.8"/>
      </defs>
      <g>
       <use xlink:href="#mc2411df920" x="50.105209" y="558.831519" style="stroke: #000000; stroke-width: 0.8"/>
      </g>
     </g>
     <g id="text_11">
      <!-- $\mathdefault{10^{0}}$ -->
      <g transform="translate(25.505209 562.630738) scale(0.1 -0.1)">
       <use xlink:href="#DejaVuSans-31" transform="translate(0 0.765625)"/>
       <use xlink:href="#DejaVuSans-30" transform="translate(63.623047 0.765625)"/>
       <use xlink:href="#DejaVuSans-30" transform="translate(128.203125 39.046875) scale(0.7)"/>
      </g>
     </g>
    </g>
    <g id="ytick_2">
     <g id="line2d_21">
      <path d="M 50.105209 408.328901 
L 766.8 408.328901 
" clip-path="url(#p2660cfcaf1)" style="fill: none; stroke: #b0b0b0; stroke-width: 0.8; stroke-linecap: square"/>
     </g>
     <g id="line2d_22">
      <g>
       <use xlink:href="#mc2411df920" x="50.105209" y="408.328901" style="stroke: #000000; stroke-width: 0.8"/>
      </g>
     </g>
     <g id="text_12">
      <!-- $\mathdefault{10^{1}}$ -->
      <g transform="translate(25.505209 412.12812) scale(0.1 -0.1)">
       <use xlink:href="#DejaVuSans-31" transform="translate(0 0.684375)"/>
       <use xlink:href="#DejaVuSans-30" transform="translate(63.623047 0.684375)"/>
       <use xlink:href="#DejaVuSans-31" transform="translate(128.203125 38.965625) scale(0.7)"/>
      </g>
     </g>
    </g>
    <g id="ytick_3">
     <g id="line2d_23">
      <path d="M 50.105209 257.826283 
L 766.8 257.826283 
" clip-path="url(#p2660cfcaf1)" style="fill: none; stroke: #b0b0b0; stroke-width: 0.8; stroke-linecap: square"/>
     </g>
     <g id="line2d_24">
      <g>
       <use xlink:href="#mc2411df920" x="50.105209" y="257.826283" style="stroke: #000000; stroke-width: 0.8"/>
      </g>
     </g>
     <g id="text_13">
      <!-- $\mathdefault{10^{2}}$ -->
      <g transform="translate(25.505209 261.625502) scale(0.1 -0.1)">
       <use xlink:href="#DejaVuSans-31" transform="translate(0 0.765625)"/>
       <use xlink:href="#DejaVuSans-30" transform="translate(63.623047 0.765625)"/>
       <use xlink:href="#DejaVuSans-32" transform="translate(128.203125 39.046875) scale(0.7)"/>
      </g>
     </g>
    </g>
    <g id="ytick_4">
     <g id="line2d_25">
      <path d="M 50.105209 107.323665 
L 766.8 107.323665 
" clip-path="url(#p2660cfcaf1)" style="fill: none; stroke: #b0b0b0; stroke-width: 0.8; stroke-linecap: square"/>
     </g>
     <g id="line2d_26">
      <g>
       <use xlink:href="#mc2411df920" x="50.105209" y="107.323665" style="stroke: #000000; stroke-width: 0.8"/>
      </g>
     </g>
     <g id="text_14">
      <!-- $\mathdefault{10^{3}}$ -->
      <g transform="translate(25.505209 111.122884) scale(0.1 -0.1)">
       <use xlink:href="#DejaVuSans-31" transform="translate(0 0.765625)"/>
       <use xlink:href="#DejaVuSans-30" transform="translate(63.623047 0.765625)"/>
       <use xlink:href="#DejaVuSans-33" transform="translate(128.203125 39.046875) scale(0.7)"/>
      </g>
     </g>
    </g>
    <g id="ytick_5">
     <g id="line2d_27">
      <defs>
       <path id="me8596dc08f" d="M 0 0 
L -2 0 
" style="stroke: #000000; stroke-width: 0.6"/>
      </defs>
      <g>
       <use xlink:href="#me8596dc08f" x="50.105209" y="592.220337" style="stroke: #000000; stroke-width: 0.6"/>
      </g>
     </g>
    </g>
    <g id="ytick_6">
     <g id="line2d_28">
      <g>
       <use xlink:href="#me8596dc08f" x="50.105209" y="582.14467" style="stroke: #000000; stroke-width: 0.6"/>
      </g>
     </g>
    </g>
    <g id="ytick_7">
     <g id="line2d_29">
      <g>
       <use xlink:href="#me8596dc08f" x="50.105209" y="573.41673" style="stroke: #000000; stroke-width: 0.6"/>
      </g>
     </g>
    </g>
    <g id="ytick_8">
     <g id="line2d_30">
      <g>
       <use xlink:href="#me8596dc08f" x="50.105209" y="565.718142" style="stroke: #000000; stroke-width: 0.6"/>
      </g>
     </g>
    </g>
    <g id="ytick_9">
     <g id="line2d_31">
      <g>
       <use xlink:href="#me8596dc08f" x="50.105209" y="513.525717" style="stroke: #000000; stroke-width: 0.6"/>
      </g>
     </g>
    </g>
    <g id="ytick_10">
     <g id="line2d_32">
      <g>
       <use xlink:href="#me8596dc08f" x="50.105209" y="487.023521" style="stroke: #000000; stroke-width: 0.6"/>
      </g>
     </g>
    </g>
    <g id="ytick_11">
     <g id="line2d_33">
      <g>
       <use xlink:href="#me8596dc08f" x="50.105209" y="468.219914" style="stroke: #000000; stroke-width: 0.6"/>
      </g>
     </g>
    </g>
    <g id="ytick_12">
     <g id="line2d_34">
      <g>
       <use xlink:href="#me8596dc08f" x="50.105209" y="453.634704" style="stroke: #000000; stroke-width: 0.6"/>
      </g>
     </g>
    </g>
    <g id="ytick_13">
     <g id="line2d_35">
      <g>
       <use xlink:href="#me8596dc08f" x="50.105209" y="441.717719" style="stroke: #000000; stroke-width: 0.6"/>
      </g>
     </g>
    </g>
    <g id="ytick_14">
     <g id="line2d_36">
      <g>
       <use xlink:href="#me8596dc08f" x="50.105209" y="431.642052" style="stroke: #000000; stroke-width: 0.6"/>
      </g>
     </g>
    </g>
    <g id="ytick_15">
     <g id="line2d_37">
      <g>
       <use xlink:href="#me8596dc08f" x="50.105209" y="422.914112" style="stroke: #000000; stroke-width: 0.6"/>
      </g>
     </g>
    </g>
    <g id="ytick_16">
     <g id="line2d_38">
      <g>
       <use xlink:href="#me8596dc08f" x="50.105209" y="415.215523" style="stroke: #000000; stroke-width: 0.6"/>
      </g>
     </g>
    </g>
    <g id="ytick_17">
     <g id="line2d_39">
      <g>
       <use xlink:href="#me8596dc08f" x="50.105209" y="363.023099" style="stroke: #000000; stroke-width: 0.6"/>
      </g>
     </g>
    </g>
    <g id="ytick_18">
     <g id="line2d_40">
      <g>
       <use xlink:href="#me8596dc08f" x="50.105209" y="336.520903" style="stroke: #000000; stroke-width: 0.6"/>
      </g>
     </g>
    </g>
    <g id="ytick_19">
     <g id="line2d_41">
      <g>
       <use xlink:href="#me8596dc08f" x="50.105209" y="317.717296" style="stroke: #000000; stroke-width: 0.6"/>
      </g>
     </g>
    </g>
    <g id="ytick_20">
     <g id="line2d_42">
      <g>
       <use xlink:href="#me8596dc08f" x="50.105209" y="303.132086" style="stroke: #000000; stroke-width: 0.6"/>
      </g>
     </g>
    </g>
    <g id="ytick_21">
     <g id="line2d_43">
      <g>
       <use xlink:href="#me8596dc08f" x="50.105209" y="291.215101" style="stroke: #000000; stroke-width: 0.6"/>
      </g>
     </g>
    </g>
    <g id="ytick_22">
     <g id="line2d_44">
      <g>
       <use xlink:href="#me8596dc08f" x="50.105209" y="281.139434" style="stroke: #000000; stroke-width: 0.6"/>
      </g>
     </g>
    </g>
    <g id="ytick_23">
     <g id="line2d_45">
      <g>
       <use xlink:href="#me8596dc08f" x="50.105209" y="272.411494" style="stroke: #000000; stroke-width: 0.6"/>
      </g>
     </g>
    </g>
    <g id="ytick_24">
     <g id="line2d_46">
      <g>
       <use xlink:href="#me8596dc08f" x="50.105209" y="264.712905" style="stroke: #000000; stroke-width: 0.6"/>
      </g>
     </g>
    </g>
    <g id="ytick_25">
     <g id="line2d_47">
      <g>
       <use xlink:href="#me8596dc08f" x="50.105209" y="212.520481" style="stroke: #000000; stroke-width: 0.6"/>
      </g>
     </g>
    </g>
    <g id="ytick_26">
     <g id="line2d_48">
      <g>
       <use xlink:href="#me8596dc08f" x="50.105209" y="186.018285" style="stroke: #000000; stroke-width: 0.6"/>
      </g>
     </g>
    </g>
    <g id="ytick_27">
     <g id="line2d_49">
      <g>
       <use xlink:href="#me8596dc08f" x="50.105209" y="167.214678" style="stroke: #000000; stroke-width: 0.6"/>
      </g>
     </g>
    </g>
    <g id="ytick_28">
     <g id="line2d_50">
      <g>
       <use xlink:href="#me8596dc08f" x="50.105209" y="152.629468" style="stroke: #000000; stroke-width: 0.6"/>
      </g>
     </g>
    </g>
    <g id="ytick_29">
     <g id="line2d_51">
      <g>
       <use xlink:href="#me8596dc08f" x="50.105209" y="140.712483" style="stroke: #000000; stroke-width: 0.6"/>
      </g>
     </g>
    </g>
    <g id="ytick_30">
     <g id="line2d_52">
      <g>
       <use xlink:href="#me8596dc08f" x="50.105209" y="130.636816" style="stroke: #000000; stroke-width: 0.6"/>
      </g>
     </g>
    </g>
    <g id="ytick_31">
     <g id="line2d_53">
      <g>
       <use xlink:href="#me8596dc08f" x="50.105209" y="121.908876" style="stroke: #000000; stroke-width: 0.6"/>
      </g>
     </g>
    </g>
    <g id="ytick_32">
     <g id="line2d_54">
      <g>
       <use xlink:href="#me8596dc08f" x="50.105209" y="114.210287" style="stroke: #000000; stroke-width: 0.6"/>
      </g>
     </g>
    </g>
    <g id="ytick_33">
     <g id="line2d_55">
      <g>
       <use xlink:href="#me8596dc08f" x="50.105209" y="62.017863" style="stroke: #000000; stroke-width: 0.6"/>
      </g>
     </g>
    </g>
    <g id="ytick_34">
     <g id="line2d_56">
      <g>
       <use xlink:href="#me8596dc08f" x="50.105209" y="35.515667" style="stroke: #000000; stroke-width: 0.6"/>
      </g>
     </g>
    </g>
    <g id="text_15">
     <!-- P [kPa] -->
     <g transform="translate(19.425522 327.234688) rotate(-90) scale(0.1 -0.1)">
      <defs>
       <path id="DejaVuSans-50" d="M 1259 4147 
L 1259 2394 
L 2053 2394 
Q 2494 2394 2734 2622 
Q 2975 2850 2975 3272 
Q 2975 3691 2734 3919 
Q 2494 4147 2053 4147 
L 1259 4147 
z
M 628 4666 
L 2053 4666 
Q 2838 4666 3239 4311 
Q 3641 3956 3641 3272 
Q 3641 2581 3239 2228 
Q 2838 1875 2053 1875 
L 1259 1875 
L 1259 0 
L 628 0 
L 628 4666 
z
" transform="scale(0.015625)"/>
       <path id="DejaVuSans-61" d="M 2194 1759 
Q 1497 1759 1228 1600 
Q 959 1441 959 1056 
Q 959 750 1161 570 
Q 1363 391 1709 391 
Q 2188 391 2477 730 
Q 2766 1069 2766 1631 
L 2766 1759 
L 2194 1759 
z
M 3341 1997 
L 3341 0 
L 2766 0 
L 2766 531 
Q 2569 213 2275 61 
Q 1981 -91 1556 -91 
Q 1019 -91 701 211 
Q 384 513 384 1019 
Q 384 1609 779 1909 
Q 1175 2209 1959 2209 
L 2766 2209 
L 2766 2266 
Q 2766 2663 2505 2880 
Q 2244 3097 1772 3097 
Q 1472 3097 1187 3025 
Q 903 2953 641 2809 
L 641 3341 
Q 956 3463 1253 3523 
Q 1550 3584 1831 3584 
Q 2591 3584 2966 3190 
Q 3341 2797 3341 1997 
z
" transform="scale(0.015625)"/>
      </defs>
      <use xlink:href="#DejaVuSans-50"/>
      <use xlink:href="#DejaVuSans-20" x="60.302734"/>
      <use xlink:href="#DejaVuSans-5b" x="92.089844"/>
      <use xlink:href="#DejaVuSans-6b" x="131.103516"/>
      <use xlink:href="#DejaVuSans-50" x="189.013672"/>
      <use xlink:href="#DejaVuSans-61" x="244.816406"/>
      <use xlink:href="#DejaVuSans-5d" x="306.095703"/>
     </g>
    </g>
   </g>
   <g id="line2d_57">
    <path d="M 596.309375 199.973344 
L 293.646437 199.973344 
L 293.646437 322.241431 
L 537.724925 322.241431 
" clip-path="url(#p2660cfcaf1)" style="fill: none; stroke: #440154; stroke-width: 1.5; stroke-linecap: square"/>
   </g>
   <g id="line2d_58">
    <defs>
     <path id="m1afa466632" d="M 0 3 
C 0.795609 3 1.55874 2.683901 2.12132 2.12132 
C 2.683901 1.55874 3 0.795609 3 0 
C 3 -0.795609 2.683901 -1.55874 2.12132 -2.12132 
C 1.55874 -2.683901 0.795609 -3 0 -3 
C -0.795609 -3 -1.55874 -2.683901 -2.12132 -2.12132 
C -2.683901 -1.55874 -3 -0.795609 -3 0 
C -3 0.795609 -2.683901 1.55874 -2.12132 2.12132 
C -1.55874 2.683901 -0.795609 3 0 3 
z
" style="stroke: #440154"/>
    </defs>
    <g clip-path="url(#p2660cfcaf1)">
     <use xlink:href="#m1afa466632" x="537.724925" y="322.241431" style="fill: #440154; stroke: #440154"/>
     <use xlink:href="#m1afa466632" x="596.309375" y="199.973344" style="fill: #440154; stroke: #440154"/>
     <use xlink:href="#m1afa466632" x="293.646437" y="199.973344" style="fill: #440154; stroke: #440154"/>
     <use xlink:href="#m1afa466632" x="293.646437" y="322.241431" style="fill: #440154; stroke: #440154"/>
    </g>
   </g>
   <g id="line2d_59">
    <path d="M 598.833643 196.302173 
L 297.724762 196.302173 
L 297.724762 322.241431 
L 537.724925 322.241431 
" clip-path="url(#p2660cfcaf1)" style="fill: none; stroke: #440154; stroke-width: 1.5; stroke-linecap: square"/>
   </g>
   <g id="line2d_60">
    <g clip-path="url(#p2660cfcaf1)">
     <use xlink:href="#m1afa466632" x="537.724925" y="322.241431" style="fill: #440154; stroke: #440154"/>
     <use xlink:href="#m1afa466632" x="598.833643" y="196.302173" style="fill: #440154; stroke: #440154"/>
     <use xlink:href="#m1afa466632" x="297.724762" y="196.302173" style="fill: #440154; stroke: #440154"/>
     <use xlink:href="#m1afa466632" x="297.724762" y="322.241431" style="fill: #440154; stroke: #440154"/>
    </g>
   </g>
   <g id="line2d_61">
    <path d="M 605.001192 195.039457 
L 305.943464 195.039457 
L 305.943464 327.718112 
L 544.228375 327.718112 
" clip-path="url(#p2660cfcaf1)" style="fill: none; stroke: #440154; stroke-width: 1.5; stroke-linecap: square"/>
   </g>
   <g id="line2d_62">
    <g clip-path="url(#p2660cfcaf1)">
     <use xlink:href="#m1afa466632" x="544.228375" y="327.718112" style="fill: #440154; stroke: #440154"/>
     <use xlink:href="#m1afa466632" x="605.001192" y="195.039457" style="fill: #440154; stroke: #440154"/>
     <use xlink:href="#m1afa466632" x="305.943464" y="195.039457" style="fill: #440154; stroke: #440154"/>
     <use xlink:href="#m1afa466632" x="305.943464" y="327.718112" style="fill: #440154; stroke: #440154"/>
    </g>
   </g>
   <g id="line2d_63">
    <path d="M 594.39597 200.243633 
L 291.619138 200.243633 
L 291.619138 324.016488 
L 535.896487 324.016488 
" clip-path="url(#p2660cfcaf1)" style="fill: none; stroke: #482475; stroke-width: 1.5; stroke-linecap: square"/>
   </g>
   <g id="line2d_64">
    <defs>
     <path id="m8da0c158ac" d="M 0 3 
C 0.795609 3 1.55874 2.683901 2.12132 2.12132 
C 2.683901 1.55874 3 0.795609 3 0 
C 3 -0.795609 2.683901 -1.55874 2.12132 -2.12132 
C 1.55874 -2.683901 0.795609 -3 0 -3 
C -0.795609 -3 -1.55874 -2.683901 -2.12132 -2.12132 
C -2.683901 -1.55874 -3 -0.795609 -3 0 
C -3 0.795609 -2.683901 1.55874 -2.12132 2.12132 
C -1.55874 2.683901 -0.795609 3 0 3 
z
" style="stroke: #482475"/>
    </defs>
    <g clip-path="url(#p2660cfcaf1)">
     <use xlink:href="#m8da0c158ac" x="535.896487" y="324.016488" style="fill: #482475; stroke: #482475"/>
     <use xlink:href="#m8da0c158ac" x="594.39597" y="200.243633" style="fill: #482475; stroke: #482475"/>
     <use xlink:href="#m8da0c158ac" x="291.619138" y="200.243633" style="fill: #482475; stroke: #482475"/>
     <use xlink:href="#m8da0c158ac" x="291.619138" y="324.016488" style="fill: #482475; stroke: #482475"/>
    </g>
   </g>
   <g id="line2d_65">
    <path d="M 607.539872 200.787587 
L 299.761498 200.787587 
L 299.761498 327.718112 
L 537.892289 327.718112 
" clip-path="url(#p2660cfcaf1)" style="fill: none; stroke: #414487; stroke-width: 1.5; stroke-linecap: square"/>
   </g>
   <g id="line2d_66">
    <defs>
     <path id="mc1592143f6" d="M 0 3 
C 0.795609 3 1.55874 2.683901 2.12132 2.12132 
C 2.683901 1.55874 3 0.795609 3 0 
C 3 -0.795609 2.683901 -1.55874 2.12132 -2.12132 
C 1.55874 -2.683901 0.795609 -3 0 -3 
C -0.795609 -3 -1.55874 -2.683901 -2.12132 -2.12132 
C -2.683901 -1.55874 -3 -0.795609 -3 0 
C -3 0.795609 -2.683901 1.55874 -2.12132 2.12132 
C -1.55874 2.683901 -0.795609 3 0 3 
z
" style="stroke: #414487"/>
    </defs>
    <g clip-path="url(#p2660cfcaf1)">
     <use xlink:href="#mc1592143f6" x="537.892289" y="327.718112" style="fill: #414487; stroke: #414487"/>
     <use xlink:href="#mc1592143f6" x="607.539872" y="200.787587" style="fill: #414487; stroke: #414487"/>
     <use xlink:href="#mc1592143f6" x="299.761498" y="200.787587" style="fill: #414487; stroke: #414487"/>
     <use xlink:href="#mc1592143f6" x="299.761498" y="327.718112" style="fill: #414487; stroke: #414487"/>
    </g>
   </g>
   <g id="line2d_67">
    <path d="M 596.893849 203.577403 
L 293.640001 203.577403 
L 293.640001 322.241431 
L 541.519613 322.241431 
" clip-path="url(#p2660cfcaf1)" style="fill: none; stroke: #414487; stroke-width: 1.5; stroke-linecap: square"/>
   </g>
   <g id="line2d_68">
    <g clip-path="url(#p2660cfcaf1)">
     <use xlink:href="#mc1592143f6" x="541.519613" y="322.241431" style="fill: #414487; stroke: #414487"/>
     <use xlink:href="#mc1592143f6" x="596.893849" y="203.577403" style="fill: #414487; stroke: #414487"/>
     <use xlink:href="#mc1592143f6" x="293.640001" y="203.577403" style="fill: #414487; stroke: #414487"/>
     <use xlink:href="#mc1592143f6" x="293.640001" y="322.241431" style="fill: #414487; stroke: #414487"/>
    </g>
   </g>
   <g id="line2d_69">
    <path d="M 596.759808 202.727885 
L 293.641486 202.727885 
L 293.641486 322.241431 
L 537.724925 322.241431 
" clip-path="url(#p2660cfcaf1)" style="fill: none; stroke: #414487; stroke-width: 1.5; stroke-linecap: square"/>
   </g>
   <g id="line2d_70">
    <g clip-path="url(#p2660cfcaf1)">
     <use xlink:href="#mc1592143f6" x="537.724925" y="322.241431" style="fill: #414487; stroke: #414487"/>
     <use xlink:href="#mc1592143f6" x="596.759808" y="202.727885" style="fill: #414487; stroke: #414487"/>
     <use xlink:href="#mc1592143f6" x="293.641486" y="202.727885" style="fill: #414487; stroke: #414487"/>
     <use xlink:href="#mc1592143f6" x="293.641486" y="322.241431" style="fill: #414487; stroke: #414487"/>
    </g>
   </g>
   <g id="line2d_71">
    <path d="M 594.943017 203.577403 
L 291.107325 203.577403 
L 291.107325 324.016488 
L 537.780805 324.016488 
" clip-path="url(#p2660cfcaf1)" style="fill: none; stroke: #355f8d; stroke-width: 1.5; stroke-linecap: square"/>
   </g>
   <g id="line2d_72">
    <defs>
     <path id="mdcbe05754a" d="M 0 3 
C 0.795609 3 1.55874 2.683901 2.12132 2.12132 
C 2.683901 1.55874 3 0.795609 3 0 
C 3 -0.795609 2.683901 -1.55874 2.12132 -2.12132 
C 1.55874 -2.683901 0.795609 -3 0 -3 
C -0.795609 -3 -1.55874 -2.683901 -2.12132 -2.12132 
C -2.683901 -1.55874 -3 -0.795609 -3 0 
C -3 0.795609 -2.683901 1.55874 -2.12132 2.12132 
C -1.55874 2.683901 -0.795609 3 0 3 
z
" style="stroke: #355f8d"/>
    </defs>
    <g clip-path="url(#p2660cfcaf1)">
     <use xlink:href="#mdcbe05754a" x="537.780805" y="324.016488" style="fill: #355f8d; stroke: #355f8d"/>
     <use xlink:href="#mdcbe05754a" x="594.943017" y="203.577403" style="fill: #355f8d; stroke: #355f8d"/>
     <use xlink:href="#mdcbe05754a" x="291.107325" y="203.577403" style="fill: #355f8d; stroke: #355f8d"/>
     <use xlink:href="#mdcbe05754a" x="291.107325" y="324.016488" style="fill: #355f8d; stroke: #355f8d"/>
    </g>
   </g>
   <g id="line2d_73">
    <path d="M 592.636842 206.194286 
L 287.572409 206.194286 
L 287.572409 322.241431 
L 541.519613 322.241431 
" clip-path="url(#p2660cfcaf1)" style="fill: none; stroke: #2a788e; stroke-width: 1.5; stroke-linecap: square"/>
   </g>
   <g id="line2d_74">
    <defs>
     <path id="m9e82a3100e" d="M 0 3 
C 0.795609 3 1.55874 2.683901 2.12132 2.12132 
C 2.683901 1.55874 3 0.795609 3 0 
C 3 -0.795609 2.683901 -1.55874 2.12132 -2.12132 
C 1.55874 -2.683901 0.795609 -3 0 -3 
C -0.795609 -3 -1.55874 -2.683901 -2.12132 -2.12132 
C -2.683901 -1.55874 -3 -0.795609 -3 0 
C -3 0.795609 -2.683901 1.55874 -2.12132 2.12132 
C -1.55874 2.683901 -0.795609 3 0 3 
z
" style="stroke: #2a788e"/>
    </defs>
    <g clip-path="url(#p2660cfcaf1)">
     <use xlink:href="#m9e82a3100e" x="541.519613" y="322.241431" style="fill: #2a788e; stroke: #2a788e"/>
     <use xlink:href="#m9e82a3100e" x="592.636842" y="206.194286" style="fill: #2a788e; stroke: #2a788e"/>
     <use xlink:href="#m9e82a3100e" x="287.572409" y="206.194286" style="fill: #2a788e; stroke: #2a788e"/>
     <use xlink:href="#m9e82a3100e" x="287.572409" y="322.241431" style="fill: #2a788e; stroke: #2a788e"/>
    </g>
   </g>
   <g id="line2d_75">
    <path d="M 606.484793 204.438109 
L 291.611614 204.438109 
L 291.611614 327.718112 
L 536.636143 327.718112 
" clip-path="url(#p2660cfcaf1)" style="fill: none; stroke: #2a788e; stroke-width: 1.5; stroke-linecap: square"/>
   </g>
   <g id="line2d_76">
    <g clip-path="url(#p2660cfcaf1)">
     <use xlink:href="#m9e82a3100e" x="536.636143" y="327.718112" style="fill: #2a788e; stroke: #2a788e"/>
     <use xlink:href="#m9e82a3100e" x="606.484793" y="204.438109" style="fill: #2a788e; stroke: #2a788e"/>
     <use xlink:href="#m9e82a3100e" x="291.611614" y="204.438109" style="fill: #2a788e; stroke: #2a788e"/>
     <use xlink:href="#m9e82a3100e" x="291.611614" y="327.718112" style="fill: #2a788e; stroke: #2a788e"/>
    </g>
   </g>
   <g id="line2d_77">
    <path d="M 597.248894 205.898294 
L 289.588088 205.898294 
L 289.588088 322.241431 
L 537.095678 322.241431 
" clip-path="url(#p2660cfcaf1)" style="fill: none; stroke: #2a788e; stroke-width: 1.5; stroke-linecap: square"/>
   </g>
   <g id="line2d_78">
    <g clip-path="url(#p2660cfcaf1)">
     <use xlink:href="#m9e82a3100e" x="537.095678" y="322.241431" style="fill: #2a788e; stroke: #2a788e"/>
     <use xlink:href="#m9e82a3100e" x="597.248894" y="205.898294" style="fill: #2a788e; stroke: #2a788e"/>
     <use xlink:href="#m9e82a3100e" x="289.588088" y="205.898294" style="fill: #2a788e; stroke: #2a788e"/>
     <use xlink:href="#m9e82a3100e" x="289.588088" y="322.241431" style="fill: #2a788e; stroke: #2a788e"/>
    </g>
   </g>
   <g id="line2d_79">
    <path d="M 594.52687 205.898294 
L 289.083751 205.898294 
L 289.083751 324.016488 
L 537.780805 324.016488 
" clip-path="url(#p2660cfcaf1)" style="fill: none; stroke: #21918c; stroke-width: 1.5; stroke-linecap: square"/>
   </g>
   <g id="line2d_80">
    <defs>
     <path id="mcbe53998e7" d="M 0 3 
C 0.795609 3 1.55874 2.683901 2.12132 2.12132 
C 2.683901 1.55874 3 0.795609 3 0 
C 3 -0.795609 2.683901 -1.55874 2.12132 -2.12132 
C 1.55874 -2.683901 0.795609 -3 0 -3 
C -0.795609 -3 -1.55874 -2.683901 -2.12132 -2.12132 
C -2.683901 -1.55874 -3 -0.795609 -3 0 
C -3 0.795609 -2.683901 1.55874 -2.12132 2.12132 
C -1.55874 2.683901 -0.795609 3 0 3 
z
" style="stroke: #21918c"/>
    </defs>
    <g clip-path="url(#p2660cfcaf1)">
     <use xlink:href="#mcbe53998e7" x="537.780805" y="324.016488" style="fill: #21918c; stroke: #21918c"/>
     <use xlink:href="#mcbe53998e7" x="594.52687" y="205.898294" style="fill: #21918c; stroke: #21918c"/>
     <use xlink:href="#mcbe53998e7" x="289.083751" y="205.898294" style="fill: #21918c; stroke: #21918c"/>
     <use xlink:href="#mcbe53998e7" x="289.083751" y="324.016488" style="fill: #21918c; stroke: #21918c"/>
    </g>
   </g>
   <g id="line2d_81">
    <path d="M 608.283012 205.898294 
L 289.588088 205.898294 
L 289.588088 327.718112 
L 536.636143 327.718112 
" clip-path="url(#p2660cfcaf1)" style="fill: none; stroke: #22a884; stroke-width: 1.5; stroke-linecap: square"/>
   </g>
   <g id="line2d_82">
    <defs>
     <path id="m136266a034" d="M 0 3 
C 0.795609 3 1.55874 2.683901 2.12132 2.12132 
C 2.683901 1.55874 3 0.795609 3 0 
C 3 -0.795609 2.683901 -1.55874 2.12132 -2.12132 
C 1.55874 -2.683901 0.795609 -3 0 -3 
C -0.795609 -3 -1.55874 -2.683901 -2.12132 -2.12132 
C -2.683901 -1.55874 -3 -0.795609 -3 0 
C -3 0.795609 -2.683901 1.55874 -2.12132 2.12132 
C -1.55874 2.683901 -0.795609 3 0 3 
z
" style="stroke: #22a884"/>
    </defs>
    <g clip-path="url(#p2660cfcaf1)">
     <use xlink:href="#m136266a034" x="536.636143" y="327.718112" style="fill: #22a884; stroke: #22a884"/>
     <use xlink:href="#m136266a034" x="608.283012" y="205.898294" style="fill: #22a884; stroke: #22a884"/>
     <use xlink:href="#m136266a034" x="289.588088" y="205.898294" style="fill: #22a884; stroke: #22a884"/>
     <use xlink:href="#m136266a034" x="289.588088" y="327.718112" style="fill: #22a884; stroke: #22a884"/>
    </g>
   </g>
   <g id="line2d_83">
    <path d="M 597.381149 206.790323 
L 285.561991 206.790323 
L 285.561991 322.241431 
L 537.724925 322.241431 
" clip-path="url(#p2660cfcaf1)" style="fill: none; stroke: #22a884; stroke-width: 1.5; stroke-linecap: square"/>
   </g>
   <g id="line2d_84">
    <g clip-path="url(#p2660cfcaf1)">
     <use xlink:href="#m136266a034" x="537.724925" y="322.241431" style="fill: #22a884; stroke: #22a884"/>
     <use xlink:href="#m136266a034" x="597.381149" y="206.790323" style="fill: #22a884; stroke: #22a884"/>
     <use xlink:href="#m136266a034" x="285.561991" y="206.790323" style="fill: #22a884; stroke: #22a884"/>
     <use xlink:href="#m136266a034" x="285.561991" y="322.241431" style="fill: #22a884; stroke: #22a884"/>
    </g>
   </g>
   <g id="line2d_85">
    <path d="M 592.773492 207.090393 
L 285.561471 207.090393 
L 285.561471 322.241431 
L 537.724925 322.241431 
" clip-path="url(#p2660cfcaf1)" style="fill: none; stroke: #22a884; stroke-width: 1.5; stroke-linecap: square"/>
   </g>
   <g id="line2d_86">
    <g clip-path="url(#p2660cfcaf1)">
     <use xlink:href="#m136266a034" x="537.724925" y="322.241431" style="fill: #22a884; stroke: #22a884"/>
     <use xlink:href="#m136266a034" x="592.773492" y="207.090393" style="fill: #22a884; stroke: #22a884"/>
     <use xlink:href="#m136266a034" x="285.561471" y="207.090393" style="fill: #22a884; stroke: #22a884"/>
     <use xlink:href="#m136266a034" x="285.561471" y="322.241431" style="fill: #22a884; stroke: #22a884"/>
    </g>
   </g>
   <g id="line2d_87">
    <path d="M 595.691717 205.898294 
L 288.579778 205.898294 
L 288.579778 322.241431 
L 537.724925 322.241431 
" clip-path="url(#p2660cfcaf1)" style="fill: none; stroke: #44bf70; stroke-width: 1.5; stroke-linecap: square"/>
   </g>
   <g id="line2d_88">
    <defs>
     <path id="m9197acc8c9" d="M 0 3 
C 0.795609 3 1.55874 2.683901 2.12132 2.12132 
C 2.683901 1.55874 3 0.795609 3 0 
C 3 -0.795609 2.683901 -1.55874 2.12132 -2.12132 
C 1.55874 -2.683901 0.795609 -3 0 -3 
C -0.795609 -3 -1.55874 -2.683901 -2.12132 -2.12132 
C -2.683901 -1.55874 -3 -0.795609 -3 0 
C -3 0.795609 -2.683901 1.55874 -2.12132 2.12132 
C -1.55874 2.683901 -0.795609 3 0 3 
z
" style="stroke: #44bf70"/>
    </defs>
    <g clip-path="url(#p2660cfcaf1)">
     <use xlink:href="#m9197acc8c9" x="537.724925" y="322.241431" style="fill: #44bf70; stroke: #44bf70"/>
     <use xlink:href="#m9197acc8c9" x="595.691717" y="205.898294" style="fill: #44bf70; stroke: #44bf70"/>
     <use xlink:href="#m9197acc8c9" x="288.579778" y="205.898294" style="fill: #44bf70; stroke: #44bf70"/>
     <use xlink:href="#m9197acc8c9" x="288.579778" y="322.241431" style="fill: #44bf70; stroke: #44bf70"/>
    </g>
   </g>
   <g id="line2d_89">
    <path d="M 608.364688 206.491625 
L 287.571895 206.491625 
L 287.571895 327.718112 
L 536.009418 327.718112 
" clip-path="url(#p2660cfcaf1)" style="fill: none; stroke: #7ad151; stroke-width: 1.5; stroke-linecap: square"/>
   </g>
   <g id="line2d_90">
    <defs>
     <path id="mcc406ed7ca" d="M 0 3 
C 0.795609 3 1.55874 2.683901 2.12132 2.12132 
C 2.683901 1.55874 3 0.795609 3 0 
C 3 -0.795609 2.683901 -1.55874 2.12132 -2.12132 
C 1.55874 -2.683901 0.795609 -3 0 -3 
C -0.795609 -3 -1.55874 -2.683901 -2.12132 -2.12132 
C -2.683901 -1.55874 -3 -0.795609 -3 0 
C -3 0.795609 -2.683901 1.55874 -2.12132 2.12132 
C -1.55874 2.683901 -0.795609 3 0 3 
z
" style="stroke: #7ad151"/>
    </defs>
    <g clip-path="url(#p2660cfcaf1)">
     <use xlink:href="#mcc406ed7ca" x="536.009418" y="327.718112" style="fill: #7ad151; stroke: #7ad151"/>
     <use xlink:href="#mcc406ed7ca" x="608.364688" y="206.491625" style="fill: #7ad151; stroke: #7ad151"/>
     <use xlink:href="#mcc406ed7ca" x="287.571895" y="206.491625" style="fill: #7ad151; stroke: #7ad151"/>
     <use xlink:href="#mcc406ed7ca" x="287.571895" y="327.718112" style="fill: #7ad151; stroke: #7ad151"/>
    </g>
   </g>
   <g id="line2d_91">
    <path d="M 600.678415 207.998955 
L 281.558218 207.998955 
L 281.558218 322.241431 
L 537.095678 322.241431 
" clip-path="url(#p2660cfcaf1)" style="fill: none; stroke: #7ad151; stroke-width: 1.5; stroke-linecap: square"/>
   </g>
   <g id="line2d_92">
    <g clip-path="url(#p2660cfcaf1)">
     <use xlink:href="#mcc406ed7ca" x="537.095678" y="322.241431" style="fill: #7ad151; stroke: #7ad151"/>
     <use xlink:href="#mcc406ed7ca" x="600.678415" y="207.998955" style="fill: #7ad151; stroke: #7ad151"/>
     <use xlink:href="#mcc406ed7ca" x="281.558218" y="207.998955" style="fill: #7ad151; stroke: #7ad151"/>
     <use xlink:href="#mcc406ed7ca" x="281.558218" y="322.241431" style="fill: #7ad151; stroke: #7ad151"/>
    </g>
   </g>
   <g id="line2d_93">
    <path d="M 592.909626 207.998955 
L 283.556228 207.998955 
L 283.556228 322.241431 
L 537.724925 322.241431 
" clip-path="url(#p2660cfcaf1)" style="fill: none; stroke: #7ad151; stroke-width: 1.5; stroke-linecap: square"/>
   </g>
   <g id="line2d_94">
    <g clip-path="url(#p2660cfcaf1)">
     <use xlink:href="#mcc406ed7ca" x="537.724925" y="322.241431" style="fill: #7ad151; stroke: #7ad151"/>
     <use xlink:href="#mcc406ed7ca" x="592.909626" y="207.998955" style="fill: #7ad151; stroke: #7ad151"/>
     <use xlink:href="#mcc406ed7ca" x="283.556228" y="207.998955" style="fill: #7ad151; stroke: #7ad151"/>
     <use xlink:href="#mcc406ed7ca" x="283.556228" y="322.241431" style="fill: #7ad151; stroke: #7ad151"/>
    </g>
   </g>
   <g id="line2d_95">
    <path d="M 596.469724 205.898294 
L 288.579778 205.898294 
L 288.579778 320.513308 
L 538.930652 320.513308 
" clip-path="url(#p2660cfcaf1)" style="fill: none; stroke: #bddf26; stroke-width: 1.5; stroke-linecap: square"/>
   </g>
   <g id="line2d_96">
    <defs>
     <path id="m7dfd07eed6" d="M 0 3 
C 0.795609 3 1.55874 2.683901 2.12132 2.12132 
C 2.683901 1.55874 3 0.795609 3 0 
C 3 -0.795609 2.683901 -1.55874 2.12132 -2.12132 
C 1.55874 -2.683901 0.795609 -3 0 -3 
C -0.795609 -3 -1.55874 -2.683901 -2.12132 -2.12132 
C -2.683901 -1.55874 -3 -0.795609 -3 0 
C -3 0.795609 -2.683901 1.55874 -2.12132 2.12132 
C -1.55874 2.683901 -0.795609 3 0 3 
z
" style="stroke: #bddf26"/>
    </defs>
    <g clip-path="url(#p2660cfcaf1)">
     <use xlink:href="#m7dfd07eed6" x="538.930652" y="320.513308" style="fill: #bddf26; stroke: #bddf26"/>
     <use xlink:href="#m7dfd07eed6" x="596.469724" y="205.898294" style="fill: #bddf26; stroke: #bddf26"/>
     <use xlink:href="#m7dfd07eed6" x="288.579778" y="205.898294" style="fill: #bddf26; stroke: #bddf26"/>
     <use xlink:href="#m7dfd07eed6" x="288.579778" y="320.513308" style="fill: #bddf26; stroke: #bddf26"/>
    </g>
   </g>
   <g id="line2d_97">
    <path d="M 608.486874 207.391846 
L 287.570353 207.391846 
L 287.570353 327.718112 
L 536.636143 327.718112 
" clip-path="url(#p2660cfcaf1)" style="fill: none; stroke: #fde725; stroke-width: 1.5; stroke-linecap: square"/>
   </g>
   <g id="line2d_98">
    <defs>
     <path id="mc5a77c746d" d="M 0 3 
C 0.795609 3 1.55874 2.683901 2.12132 2.12132 
C 2.683901 1.55874 3 0.795609 3 0 
C 3 -0.795609 2.683901 -1.55874 2.12132 -2.12132 
C 1.55874 -2.683901 0.795609 -3 0 -3 
C -0.795609 -3 -1.55874 -2.683901 -2.12132 -2.12132 
C -2.683901 -1.55874 -3 -0.795609 -3 0 
C -3 0.795609 -2.683901 1.55874 -2.12132 2.12132 
C -1.55874 2.683901 -0.795609 3 0 3 
z
" style="stroke: #fde725"/>
    </defs>
    <g clip-path="url(#p2660cfcaf1)">
     <use xlink:href="#mc5a77c746d" x="536.636143" y="327.718112" style="fill: #fde725; stroke: #fde725"/>
     <use xlink:href="#mc5a77c746d" x="608.486874" y="207.391846" style="fill: #fde725; stroke: #fde725"/>
     <use xlink:href="#mc5a77c746d" x="287.570353" y="207.391846" style="fill: #fde725; stroke: #fde725"/>
     <use xlink:href="#mc5a77c746d" x="287.570353" y="327.718112" style="fill: #fde725; stroke: #fde725"/>
    </g>
   </g>
   <g id="line2d_99">
    <path d="M 594.498778 208.304638 
L 281.557686 208.304638 
L 281.557686 322.241431 
L 537.724925 322.241431 
" clip-path="url(#p2660cfcaf1)" style="fill: none; stroke: #fde725; stroke-width: 1.5; stroke-linecap: square"/>
   </g>
   <g id="line2d_100">
    <g clip-path="url(#p2660cfcaf1)">
     <use xlink:href="#mc5a77c746d" x="537.724925" y="322.241431" style="fill: #fde725; stroke: #fde725"/>
     <use xlink:href="#mc5a77c746d" x="594.498778" y="208.304638" style="fill: #fde725; stroke: #fde725"/>
     <use xlink:href="#mc5a77c746d" x="281.557686" y="208.304638" style="fill: #fde725; stroke: #fde725"/>
     <use xlink:href="#mc5a77c746d" x="281.557686" y="322.241431" style="fill: #fde725; stroke: #fde725"/>
    </g>
   </g>
   <g id="line2d_101">
    <path d="M 600.763992 208.611757 
L 281.557154 208.611757 
L 281.557154 322.241431 
L 536.467331 322.241431 
" clip-path="url(#p2660cfcaf1)" style="fill: none; stroke: #fde725; stroke-width: 1.5; stroke-linecap: square"/>
   </g>
   <g id="line2d_102">
    <g clip-path="url(#p2660cfcaf1)">
     <use xlink:href="#mc5a77c746d" x="536.467331" y="322.241431" style="fill: #fde725; stroke: #fde725"/>
     <use xlink:href="#mc5a77c746d" x="600.763992" y="208.611757" style="fill: #fde725; stroke: #fde725"/>
     <use xlink:href="#mc5a77c746d" x="281.557154" y="208.611757" style="fill: #fde725; stroke: #fde725"/>
     <use xlink:href="#mc5a77c746d" x="281.557154" y="322.241431" style="fill: #fde725; stroke: #fde725"/>
    </g>
   </g>
   <g id="line2d_103">
    <path d="M 665.230602 41.163634 
L 669.414069 40.328903 
L 673.597537 39.397677 
L 677.781004 38.462322 
L 681.964472 37.610203 
L 686.14794 36.924367 
L 690.331407 36.48525 
L 694.514875 36.373316 
L 698.698342 36.672651 
L 702.88181 37.475783 
L 707.065277 38.890307 
" clip-path="url(#p2660cfcaf1)" style="fill: none; stroke: #000000; stroke-width: 0.5; stroke-linecap: square"/>
   </g>
   <g id="line2d_104">
    <path d="M 84.585504 595.202671 
L 93.208273 574.849033 
L 101.840398 554.998525 
L 110.485464 535.644679 
L 119.147518 516.781107 
L 127.831063 498.401365 
L 136.541044 480.498862 
L 145.282817 463.066808 
L 154.062118 446.098193 
L 162.885023 429.585772 
L 171.757911 413.522071 
L 180.68742 397.899393 
L 189.680411 382.709836 
L 196.92524 370.864604 
L 204.218882 359.287167 
L 211.565067 347.973233 
L 218.967564 336.918451 
L 226.430177 326.118414 
L 233.956734 315.568665 
L 241.551081 305.264704 
L 249.217075 295.201987 
L 256.95858 285.375936 
L 264.779465 275.78194 
L 272.683599 266.415361 
L 280.674847 257.271533 
L 288.757078 248.345769 
L 296.934159 239.633363 
L 305.209959 231.129593 
L 313.588359 222.829719 
L 322.073252 214.728994 
L 330.668557 206.822656 
L 339.378229 199.105937 
L 348.206273 191.574059 
L 357.156762 184.222241 
L 366.233862 177.045693 
L 375.441853 170.039623 
L 384.785166 163.199233 
L 394.268423 156.519719 
L 403.896477 149.996273 
L 413.674479 143.624081 
L 423.607938 137.398319 
L 433.702818 131.314154 
L 443.965638 125.366739 
L 454.403612 119.551208 
L 465.024822 113.862671 
L 475.838443 108.296206 
L 486.855047 102.84685 
L 498.087002 97.50958 
L 509.549037 92.279302 
L 521.259034 87.150818 
L 533.239203 82.118793 
L 545.517855 77.177703 
L 558.132246 72.321759 
L 571.133358 67.544788 
L 584.594565 62.84004 
L 598.628884 58.199864 
L 609.640948 54.756671 
L 621.219248 51.339868 
L 633.623771 47.943097 
L 642.618746 45.685266 
L 652.655789 43.427933 
L 658.403578 42.297346 
L 665.230602 41.163634 
L 665.230602 41.163634 
" clip-path="url(#p2660cfcaf1)" style="fill: none; stroke: #000000; stroke-width: 0.5; stroke-linecap: square"/>
   </g>
   <g id="line2d_105">
    <path d="M 686.14794 36.924367 
" clip-path="url(#p2660cfcaf1)" style="fill: none; stroke: #000000; stroke-width: 0.25; stroke-linecap: square"/>
   </g>
   <g id="line2d_106">
    <path d="M 686.14794 36.924367 
" clip-path="url(#p2660cfcaf1)" style="fill: none; stroke: #000000; stroke-width: 0.25; stroke-linecap: square"/>
   </g>
   <g id="line2d_107">
    <path d="M 686.14794 36.924367 
" clip-path="url(#p2660cfcaf1)" style="fill: none; stroke: #000000; stroke-width: 0.25; stroke-linecap: square"/>
   </g>
   <g id="line2d_108">
    <path d="M 686.14794 36.924367 
" clip-path="url(#p2660cfcaf1)" style="fill: none; stroke: #000000; stroke-width: 0.25; stroke-linecap: square"/>
   </g>
   <g id="line2d_109">
    <path d="M 686.14794 36.924367 
" clip-path="url(#p2660cfcaf1)" style="fill: none; stroke: #000000; stroke-width: 0.25; stroke-linecap: square"/>
   </g>
   <g id="line2d_110">
    <path d="M 686.14794 36.924367 
" clip-path="url(#p2660cfcaf1)" style="fill: none; stroke: #000000; stroke-width: 0.25; stroke-linecap: square"/>
   </g>
   <g id="line2d_111">
    <path d="M 686.14794 36.924367 
" clip-path="url(#p2660cfcaf1)" style="fill: none; stroke: #000000; stroke-width: 0.25; stroke-linecap: square"/>
   </g>
   <g id="line2d_112">
    <path d="M 686.14794 36.924367 
" clip-path="url(#p2660cfcaf1)" style="fill: none; stroke: #000000; stroke-width: 0.25; stroke-linecap: square"/>
   </g>
   <g id="line2d_113">
    <path d="M 686.14794 36.924367 
" clip-path="url(#p2660cfcaf1)" style="fill: none; stroke: #000000; stroke-width: 0.25; stroke-linecap: square"/>
   </g>
   <g id="line2d_114">
    <path d="M 686.14794 36.924367 
" clip-path="url(#p2660cfcaf1)" style="fill: none; stroke: #000000; stroke-width: 0.25; stroke-linecap: square"/>
   </g>
   <g id="line2d_115">
    <path d="M 686.14794 36.924367 
" clip-path="url(#p2660cfcaf1)" style="fill: none; stroke: #000000; stroke-width: 0.25; stroke-linecap: square"/>
   </g>
   <g id="line2d_116">
    <path d="M 686.14794 36.924367 
" clip-path="url(#p2660cfcaf1)" style="fill: none; stroke: #000000; stroke-width: 0.25; stroke-linecap: square"/>
   </g>
   <g id="line2d_117">
    <path d="M 686.14794 36.924367 
" clip-path="url(#p2660cfcaf1)" style="fill: none; stroke: #000000; stroke-width: 0.25; stroke-linecap: square"/>
   </g>
   <g id="line2d_118">
    <path d="M 442.078196 595.202671 
L 448.526848 570.838891 
L 454.996022 547.197745 
L 461.489129 524.268113 
L 468.009719 502.038921 
L 474.561426 480.498862 
L 481.147923 459.636239 
L 487.772877 439.438895 
L 494.439908 419.894193 
L 501.152557 400.989023 
L 507.914267 382.709836 
L 514.728351 365.042678 
L 520.449059 350.77725 
L 526.2101 336.918451 
L 532.013144 323.457688 
L 537.859766 310.386244 
L 543.751435 297.695299 
L 549.689502 285.375936 
L 555.675174 273.419157 
L 561.709493 261.815896 
L 567.793306 250.557024 
L 573.927225 239.633363 
L 580.111585 229.035694 
L 586.34639 218.754761 
L 592.631252 208.781277 
L 598.965315 199.105937 
L 605.347173 189.719411 
L 611.774762 180.612358 
L 618.245236 171.775421 
L 626.061 161.51446 
L 633.924244 151.612766 
L 641.823202 142.054101 
L 649.742252 132.822185 
L 657.660767 123.900683 
L 666.861556 113.862671 
L 678.537374 101.502222 
L 700.518857 78.404762 
L 705.963141 72.321759 
L 709.949916 67.544788 
L 712.650961 64.009854 
L 715.028058 60.512408 
L 716.385646 58.199864 
L 717.516427 55.901209 
L 718.367457 53.615078 
L 718.866028 51.339868 
L 718.952363 50.205764 
L 718.908241 49.073619 
L 718.712429 47.943097 
L 718.338243 46.813804 
L 717.751649 45.685266 
L 716.908635 44.556896 
L 715.751849 43.427933 
L 714.207361 42.297346 
L 712.186317 41.163634 
L 707.065277 38.890307 
L 707.065277 38.890307 
" clip-path="url(#p2660cfcaf1)" style="fill: none; stroke: #000000; stroke-width: 0.5; stroke-linecap: square"/>
   </g>
   <g id="patch_3">
    <path d="M 50.105209 594.52 
L 50.105209 25.44 
" style="fill: none; stroke: #000000; stroke-width: 0.8; stroke-linejoin: miter; stroke-linecap: square"/>
   </g>
   <g id="patch_4">
    <path d="M 766.8 594.52 
L 766.8 25.44 
" style="fill: none; stroke: #000000; stroke-width: 0.8; stroke-linejoin: miter; stroke-linecap: square"/>
   </g>
   <g id="patch_5">
    <path d="M 50.105209 594.52 
L 766.8 594.52 
" style="fill: none; stroke: #000000; stroke-width: 0.8; stroke-linejoin: miter; stroke-linecap: square"/>
   </g>
   <g id="patch_6">
    <path d="M 50.105209 25.44 
L 766.8 25.44 
" style="fill: none; stroke: #000000; stroke-width: 0.8; stroke-linejoin: miter; stroke-linecap: square"/>
   </g>
   <g id="text_16">
    <!-- Refrigeration Cycles on P-h Diagram -->
    <g transform="translate(299.642605 19.44) scale(0.12 -0.12)">
     <defs>
      <path id="DejaVuSans-52" d="M 2841 2188 
Q 3044 2119 3236 1894 
Q 3428 1669 3622 1275 
L 4263 0 
L 3584 0 
L 2988 1197 
Q 2756 1666 2539 1819 
Q 2322 1972 1947 1972 
L 1259 1972 
L 1259 0 
L 628 0 
L 628 4666 
L 2053 4666 
Q 2853 4666 3247 4331 
Q 3641 3997 3641 3322 
Q 3641 2881 3436 2590 
Q 3231 2300 2841 2188 
z
M 1259 4147 
L 1259 2491 
L 2053 2491 
Q 2509 2491 2742 2702 
Q 2975 2913 2975 3322 
Q 2975 3731 2742 3939 
Q 2509 4147 2053 4147 
L 1259 4147 
z
" transform="scale(0.015625)"/>
      <path id="DejaVuSans-65" d="M 3597 1894 
L 3597 1613 
L 953 1613 
Q 991 1019 1311 708 
Q 1631 397 2203 397 
Q 2534 397 2845 478 
Q 3156 559 3463 722 
L 3463 178 
Q 3153 47 2828 -22 
Q 2503 -91 2169 -91 
Q 1331 -91 842 396 
Q 353 884 353 1716 
Q 353 2575 817 3079 
Q 1281 3584 2069 3584 
Q 2775 3584 3186 3129 
Q 3597 2675 3597 1894 
z
M 3022 2063 
Q 3016 2534 2758 2815 
Q 2500 3097 2075 3097 
Q 1594 3097 1305 2825 
Q 1016 2553 972 2059 
L 3022 2063 
z
" transform="scale(0.015625)"/>
      <path id="DejaVuSans-66" d="M 2375 4863 
L 2375 4384 
L 1825 4384 
Q 1516 4384 1395 4259 
Q 1275 4134 1275 3809 
L 1275 3500 
L 2222 3500 
L 2222 3053 
L 1275 3053 
L 1275 0 
L 697 0 
L 697 3053 
L 147 3053 
L 147 3500 
L 697 3500 
L 697 3744 
Q 697 4328 969 4595 
Q 1241 4863 1831 4863 
L 2375 4863 
z
" transform="scale(0.015625)"/>
      <path id="DejaVuSans-72" d="M 2631 2963 
Q 2534 3019 2420 3045 
Q 2306 3072 2169 3072 
Q 1681 3072 1420 2755 
Q 1159 2438 1159 1844 
L 1159 0 
L 581 0 
L 581 3500 
L 1159 3500 
L 1159 2956 
Q 1341 3275 1631 3429 
Q 1922 3584 2338 3584 
Q 2397 3584 2469 3576 
Q 2541 3569 2628 3553 
L 2631 2963 
z
" transform="scale(0.015625)"/>
      <path id="DejaVuSans-69" d="M 603 3500 
L 1178 3500 
L 1178 0 
L 603 0 
L 603 3500 
z
M 603 4863 
L 1178 4863 
L 1178 4134 
L 603 4134 
L 603 4863 
z
" transform="scale(0.015625)"/>
      <path id="DejaVuSans-74" d="M 1172 4494 
L 1172 3500 
L 2356 3500 
L 2356 3053 
L 1172 3053 
L 1172 1153 
Q 1172 725 1289 603 
Q 1406 481 1766 481 
L 2356 481 
L 2356 0 
L 1766 0 
Q 1100 0 847 248 
Q 594 497 594 1153 
L 594 3053 
L 172 3053 
L 172 3500 
L 594 3500 
L 594 4494 
L 1172 4494 
z
" transform="scale(0.015625)"/>
      <path id="DejaVuSans-6f" d="M 1959 3097 
Q 1497 3097 1228 2736 
Q 959 2375 959 1747 
Q 959 1119 1226 758 
Q 1494 397 1959 397 
Q 2419 397 2687 759 
Q 2956 1122 2956 1747 
Q 2956 2369 2687 2733 
Q 2419 3097 1959 3097 
z
M 1959 3584 
Q 2709 3584 3137 3096 
Q 3566 2609 3566 1747 
Q 3566 888 3137 398 
Q 2709 -91 1959 -91 
Q 1206 -91 779 398 
Q 353 888 353 1747 
Q 353 2609 779 3096 
Q 1206 3584 1959 3584 
z
" transform="scale(0.015625)"/>
      <path id="DejaVuSans-6e" d="M 3513 2113 
L 3513 0 
L 2938 0 
L 2938 2094 
Q 2938 2591 2744 2837 
Q 2550 3084 2163 3084 
Q 1697 3084 1428 2787 
Q 1159 2491 1159 1978 
L 1159 0 
L 581 0 
L 581 3500 
L 1159 3500 
L 1159 2956 
Q 1366 3272 1645 3428 
Q 1925 3584 2291 3584 
Q 2894 3584 3203 3211 
Q 3513 2838 3513 2113 
z
" transform="scale(0.015625)"/>
      <path id="DejaVuSans-43" d="M 4122 4306 
L 4122 3641 
Q 3803 3938 3442 4084 
Q 3081 4231 2675 4231 
Q 1875 4231 1450 3742 
Q 1025 3253 1025 2328 
Q 1025 1406 1450 917 
Q 1875 428 2675 428 
Q 3081 428 3442 575 
Q 3803 722 4122 1019 
L 4122 359 
Q 3791 134 3420 21 
Q 3050 -91 2638 -91 
Q 1578 -91 968 557 
Q 359 1206 359 2328 
Q 359 3453 968 4101 
Q 1578 4750 2638 4750 
Q 3056 4750 3426 4639 
Q 3797 4528 4122 4306 
z
" transform="scale(0.015625)"/>
      <path id="DejaVuSans-79" d="M 2059 -325 
Q 1816 -950 1584 -1140 
Q 1353 -1331 966 -1331 
L 506 -1331 
L 506 -850 
L 844 -850 
Q 1081 -850 1212 -737 
Q 1344 -625 1503 -206 
L 1606 56 
L 191 3500 
L 800 3500 
L 1894 763 
L 2988 3500 
L 3597 3500 
L 2059 -325 
z
" transform="scale(0.015625)"/>
      <path id="DejaVuSans-63" d="M 3122 3366 
L 3122 2828 
Q 2878 2963 2633 3030 
Q 2388 3097 2138 3097 
Q 1578 3097 1268 2742 
Q 959 2388 959 1747 
Q 959 1106 1268 751 
Q 1578 397 2138 397 
Q 2388 397 2633 464 
Q 2878 531 3122 666 
L 3122 134 
Q 2881 22 2623 -34 
Q 2366 -91 2075 -91 
Q 1284 -91 818 406 
Q 353 903 353 1747 
Q 353 2603 823 3093 
Q 1294 3584 2113 3584 
Q 2378 3584 2631 3529 
Q 2884 3475 3122 3366 
z
" transform="scale(0.015625)"/>
      <path id="DejaVuSans-6c" d="M 603 4863 
L 1178 4863 
L 1178 0 
L 603 0 
L 603 4863 
z
" transform="scale(0.015625)"/>
      <path id="DejaVuSans-73" d="M 2834 3397 
L 2834 2853 
Q 2591 2978 2328 3040 
Q 2066 3103 1784 3103 
Q 1356 3103 1142 2972 
Q 928 2841 928 2578 
Q 928 2378 1081 2264 
Q 1234 2150 1697 2047 
L 1894 2003 
Q 2506 1872 2764 1633 
Q 3022 1394 3022 966 
Q 3022 478 2636 193 
Q 2250 -91 1575 -91 
Q 1294 -91 989 -36 
Q 684 19 347 128 
L 347 722 
Q 666 556 975 473 
Q 1284 391 1588 391 
Q 1994 391 2212 530 
Q 2431 669 2431 922 
Q 2431 1156 2273 1281 
Q 2116 1406 1581 1522 
L 1381 1569 
Q 847 1681 609 1914 
Q 372 2147 372 2553 
Q 372 3047 722 3315 
Q 1072 3584 1716 3584 
Q 2034 3584 2315 3537 
Q 2597 3491 2834 3397 
z
" transform="scale(0.015625)"/>
      <path id="DejaVuSans-2d" d="M 313 2009 
L 1997 2009 
L 1997 1497 
L 313 1497 
L 313 2009 
z
" transform="scale(0.015625)"/>
      <path id="DejaVuSans-44" d="M 1259 4147 
L 1259 519 
L 2022 519 
Q 2988 519 3436 956 
Q 3884 1394 3884 2338 
Q 3884 3275 3436 3711 
Q 2988 4147 2022 4147 
L 1259 4147 
z
M 628 4666 
L 1925 4666 
Q 3281 4666 3915 4102 
Q 4550 3538 4550 2338 
Q 4550 1131 3912 565 
Q 3275 0 1925 0 
L 628 0 
L 628 4666 
z
" transform="scale(0.015625)"/>
      <path id="DejaVuSans-6d" d="M 3328 2828 
Q 3544 3216 3844 3400 
Q 4144 3584 4550 3584 
Q 5097 3584 5394 3201 
Q 5691 2819 5691 2113 
L 5691 0 
L 5113 0 
L 5113 2094 
Q 5113 2597 4934 2840 
Q 4756 3084 4391 3084 
Q 3944 3084 3684 2787 
Q 3425 2491 3425 1978 
L 3425 0 
L 2847 0 
L 2847 2094 
Q 2847 2600 2669 2842 
Q 2491 3084 2119 3084 
Q 1678 3084 1418 2786 
Q 1159 2488 1159 1978 
L 1159 0 
L 581 0 
L 581 3500 
L 1159 3500 
L 1159 2956 
Q 1356 3278 1631 3431 
Q 1906 3584 2284 3584 
Q 2666 3584 2933 3390 
Q 3200 3197 3328 2828 
z
" transform="scale(0.015625)"/>
     </defs>
     <use xlink:href="#DejaVuSans-52"/>
     <use xlink:href="#DejaVuSans-65" x="64.982422"/>
     <use xlink:href="#DejaVuSans-66" x="126.505859"/>
     <use xlink:href="#DejaVuSans-72" x="161.710938"/>
     <use xlink:href="#DejaVuSans-69" x="202.824219"/>
     <use xlink:href="#DejaVuSans-67" x="230.607422"/>
     <use xlink:href="#DejaVuSans-65" x="294.083984"/>
     <use xlink:href="#DejaVuSans-72" x="355.607422"/>
     <use xlink:href="#DejaVuSans-61" x="396.720703"/>
     <use xlink:href="#DejaVuSans-74" x="458"/>
     <use xlink:href="#DejaVuSans-69" x="497.208984"/>
     <use xlink:href="#DejaVuSans-6f" x="524.992188"/>
     <use xlink:href="#DejaVuSans-6e" x="586.173828"/>
     <use xlink:href="#DejaVuSans-20" x="649.552734"/>
     <use xlink:href="#DejaVuSans-43" x="681.339844"/>
     <use xlink:href="#DejaVuSans-79" x="751.164062"/>
     <use xlink:href="#DejaVuSans-63" x="810.34375"/>
     <use xlink:href="#DejaVuSans-6c" x="865.324219"/>
     <use xlink:href="#DejaVuSans-65" x="893.107422"/>
     <use xlink:href="#DejaVuSans-73" x="954.630859"/>
     <use xlink:href="#DejaVuSans-20" x="1006.730469"/>
     <use xlink:href="#DejaVuSans-6f" x="1038.517578"/>
     <use xlink:href="#DejaVuSans-6e" x="1099.699219"/>
     <use xlink:href="#DejaVuSans-20" x="1163.078125"/>
     <use xlink:href="#DejaVuSans-50" x="1194.865234"/>
     <use xlink:href="#DejaVuSans-2d" x="1252.917969"/>
     <use xlink:href="#DejaVuSans-68" x="1289.001953"/>
     <use xlink:href="#DejaVuSans-20" x="1352.380859"/>
     <use xlink:href="#DejaVuSans-44" x="1384.167969"/>
     <use xlink:href="#DejaVuSans-69" x="1461.169922"/>
     <use xlink:href="#DejaVuSans-61" x="1488.953125"/>
     <use xlink:href="#DejaVuSans-67" x="1550.232422"/>
     <use xlink:href="#DejaVuSans-72" x="1613.708984"/>
     <use xlink:href="#DejaVuSans-61" x="1654.822266"/>
     <use xlink:href="#DejaVuSans-6d" x="1716.101562"/>
    </g>
   </g>
  </g>
 </g>
 <defs>
  <clipPath id="p2660cfcaf1">
   <rect x="50.105209" y="25.44" width="716.694791" height="569.08"/>
  </clipPath>
 </defs>
</svg>
